<svg xmlns="http://www.w3.org/2000/svg" viewBox="0 0 62.35 62.55">
  <defs>
    <style>
      .cls-1 {
        fill: #333132;
      }

      .cls-2 {
        fill: #f1f2f2;
      }

      .cls-3 {
        fill: #ef372f;
      }

      .cls-4 {
        fill: #e21a58;
      }

      .cls-5 {
        fill: #eb0d8c;
      }

      .cls-6 {
        fill: #922a8e;
      }

      .cls-7 {
        fill: #2e3690;
      }

      .cls-8 {
        fill: #0d73bb;
      }

      .cls-9 {
        fill: #2bace2;
      }

      .cls-10 {
        fill: #00a99d;
      }

      .cls-11 {
        fill: #06a64f;
      }

      .cls-12 {
        fill: #88c541;
      }

      .cls-13 {
        fill: #fcee23;
      }

      .cls-14 {
        fill: #f89521;
      }
    </style>
  </defs>
  <g id="Layer_3" data-name="Layer 3">
    <path class="cls-1"
      d="M48.42,13.62A6.12,6.12,0,0,0,37.82,7.5a6.52,6.52,0,0,0-.43.93h0v.06a7.61,7.61,0,0,0-.28,1L33.3,23.84a2,2,0,0,0,3.37,1.95l11-11.11A7,7,0,0,0,48.42,13.62Z" />
    <path class="cls-2"
      d="M55,24.59A6.12,6.12,0,0,0,48.85,14a5.51,5.51,0,0,0-.84.59h0l0,0a6.06,6.06,0,0,0-.76.76L36.77,25.88a2,2,0,0,0,1.94,3.37l15.06-4.13A6.36,6.36,0,0,0,55,24.59Z" />
    <path class="cls-2"
      d="M55.16,37.36a6.12,6.12,0,1,0,0-12.24,6.79,6.79,0,0,0-1,.09h0a5.89,5.89,0,0,0-1,.28l-14.3,3.88a2,2,0,0,0,0,3.89l15.11,3.95A6.09,6.09,0,0,0,55.16,37.36Z" />
    <path class="cls-1"
      d="M48.94,48.51a6.11,6.11,0,0,0,6.11-10.59,5.88,5.88,0,0,0-.92-.43h-.05a5.73,5.73,0,0,0-1-.28L38.71,33.4a2,2,0,0,0-1.94,3.37l11.11,11A5.87,5.87,0,0,0,48.94,48.51Z" />
    <path class="cls-2"
      d="M38,55.06A6.12,6.12,0,0,0,48.57,49a7.4,7.4,0,0,0-.59-.84h0l0,0a5.46,5.46,0,0,0-.76-.76L36.67,36.86a2,2,0,0,0-3.37,2l4.14,15.06A6,6,0,0,0,38,55.06Z" />
    <path class="cls-1"
      d="M25.2,55.25a6.12,6.12,0,1,0,12.23,0,5.66,5.66,0,0,0-.09-1h0l0-.06a5.23,5.23,0,0,0-.28-1L33.18,38.84a2,2,0,0,0-3.9,0L25.34,54A5.63,5.63,0,0,0,25.2,55.25Z" />
    <path class="cls-2"
      d="M14,49a6.12,6.12,0,0,0,10.6,6.12,7,7,0,0,0,.43-.92h0l0-.06a6.25,6.25,0,0,0,.27-1l3.8-14.33a2,2,0,0,0-3.38-2L14.81,48A6.24,6.24,0,0,0,14,49Z" />
    <path class="cls-2"
      d="M7.49,38.07a6.12,6.12,0,1,0,7,10h0l0,0a5.38,5.38,0,0,0,.75-.76L25.69,36.77a2,2,0,0,0-1.94-3.37L8.69,37.54A5.78,5.78,0,0,0,7.49,38.07Z" />
    <path class="cls-1"
      d="M7.3,25.29a6.12,6.12,0,0,0,0,12.24,5.69,5.69,0,0,0,1-.09h0l0,0a5.89,5.89,0,0,0,1-.28l14.3-3.88a2,2,0,0,0,0-3.89L8.6,25.43A6.16,6.16,0,0,0,7.3,25.29Z" />
    <path class="cls-2"
      d="M13.52,14.14A6.12,6.12,0,1,0,7.4,24.74a7.07,7.07,0,0,0,.93.43h0l.05,0a6.36,6.36,0,0,0,1,.27l14.33,3.79a2,2,0,0,0,1.94-3.37l-11.11-11A5.87,5.87,0,0,0,13.52,14.14Z" />
    <path class="cls-1"
      d="M24.49,7.59a6.12,6.12,0,1,0-10.6,6.12,5.42,5.42,0,0,0,.59.83h0l0,0a6.82,6.82,0,0,0,.76.76L25.78,25.79a2,2,0,0,0,3.38-1.95L25,8.78A6.57,6.57,0,0,0,24.49,7.59Z" />
    <path class="cls-2"
      d="M37.26,7.4A6.12,6.12,0,1,0,25,7.4a6.65,6.65,0,0,0,.09,1h0v.05a7.24,7.24,0,0,0,.28,1l3.88,14.3a2,2,0,0,0,3.9,0L37.12,8.7A6.16,6.16,0,0,0,37.26,7.4Z" />
    <path class="cls-3" d="M26.38,8.7c-1.71-6.41,8-9,9.69-2.6S28.1,15.11,26.38,8.7Z" />
    <path class="cls-4" d="M15.72,14.15C11,9.46,18.12,2.37,22.81,7.06S20.42,18.86,15.72,14.15Z" />
    <path class="cls-5" d="M9.21,24.21c-6.4-1.72-3.82-11.41,2.6-9.69S15.62,25.93,9.21,24.21Z" />
    <path class="cls-6" d="M8.6,36.17c-6.4,1.72-9-8-2.6-9.68S15,34.45,8.6,36.17Z" />
    <path class="cls-7" d="M14.05,46.84C9.37,51.53,2.27,44.44,7,39.75S18.75,42.14,14.05,46.84Z" />
    <path class="cls-8" d="M24.11,53.35c-1.71,6.4-11.4,3.81-9.69-2.6S25.83,46.93,24.11,53.35Z" />
    <path class="cls-9" d="M36.08,54c1.71,6.4-8,9-9.69,2.59S34.36,47.54,36.08,54Z" />
    <path class="cls-10" d="M46.74,48.5c4.69,4.69-2.4,11.79-7.09,7.09S42,43.81,46.74,48.5Z" />
    <path class="cls-11" d="M53.25,38.45c6.41,1.71,3.82,11.4-2.6,9.68S46.84,36.73,53.25,38.45Z" />
    <path class="cls-12" d="M53.86,26.48c6.4-1.71,9,8,2.59,9.69S47.45,28.2,53.86,26.48Z" />
    <path class="cls-13" d="M48.4,15.82c4.69-4.69,11.79,2.39,7.1,7.09S43.7,20.52,48.4,15.82Z" />
    <path class="cls-14" d="M38.35,9.31C40.06,2.9,49.75,5.49,48,11.9S36.63,15.72,38.35,9.31Z" />
  </g>
</svg>