<svg enable-background="new 0 0 432.5 361.5" viewBox="0 0 432.5 361.5" xmlns="http://www.w3.org/2000/svg"><path d="m78.2 257.8 45.6-79 45.6 79z" fill="#fff" opacity=".15" stroke="#008eaf"/><path d="m170.3 257.8 45.6-79 45.6 79z" fill="#fff" opacity=".15" stroke="#008eaf"/><path d="m262 257.8 45.6-79 45.6 79z" fill="#fff" opacity=".15" stroke="#008eaf"/><path d="m124.3 178 45.6-79 45.6 79z" fill="#fff" opacity=".15" stroke="#008eaf"/><path d="m216.1 178 45.6-79 45.6 79z" fill="#fff" opacity=".15" stroke="#008eaf"/><path d="m170.4 98.4 45.6-79 45.6 79z" fill="#fff" opacity=".15" stroke="#008eaf"/><g stroke="#000"><circle cx="215.7" cy="18.1" r="6"/><circle cx="261.5" cy="98.5" r="6"/><ellipse cx="307.3" cy="178.2" rx="6" ry="6" transform="matrix(.1602 -.9871 .9871 .1602 82.1286 453.0126)"/><circle cx="353.2" cy="257.8" r="6"/><circle cx="261.5" cy="257.8" r="6"/><circle cx="170.7" cy="257.8" r="6"/><circle cx="78.2" cy="257.8" r="6"/></g><path d="m32.9 337.5 45.6-78.9 45.6 78.9z" fill="#fff" opacity=".15" stroke="#008eaf"/><path d="m124.9 337.5 45.6-78.9 45.6 78.9z" fill="#fff" opacity=".15" stroke="#008eaf"/><path d="m216.6 337.5 45.6-78.9 45.6 78.9z" fill="#fff" opacity=".15" stroke="#008eaf"/><circle cx="307.8" cy="337.5" r="6" stroke="#000"/><path d="m307.3 337.5 45.6-78.9 45.6 78.9z" fill="#fff" opacity=".15" stroke="#008eaf"/><circle cx="398.5" cy="337.5" r="6" stroke="#000"/><circle cx="216.1" cy="337.5" r="6" stroke="#000"/><circle cx="125.3" cy="337.5" r="6" stroke="#000"/><circle cx="32.9" cy="337.5" r="6" stroke="#000"/><circle cx="124.3" cy="178.2" r="6" stroke="#000"/><circle cx="215.7" cy="178.2" r="6" stroke="#000"/><circle cx="170.7" cy="98.5" r="6" stroke="#000"/><path d="m47.4 0h337.7v282.7h-337.7z" fill="none"/></svg>