<svg viewBox="0 0 419.27 427.47" xmlns="http://www.w3.org/2000/svg"><circle cx="400.69" cy="187.01" fill="#ee342e" r="26.71"/><path d="m403 177.32 7.64 20.43h-4.64l-1.55-4.55h-7.64l-1.6 4.55h-4.52l7.72-20.43zm.26 12.53-2.58-7.49h-.06l-2.62 7.49z" fill="#fff"/><circle cx="92.71" cy="187.01" fill="#f5832b" r="26.71"/><path d="m88.22 177.67 7.64 20.43h-4.66l-1.55-4.55h-7.65l-1.6 4.55h-4.51l7.72-20.43zm.26 12.53-2.58-7.5h-.05l-2.66 7.5z" fill="#fff"/><path d="m100.73 198.1v-4.7l-2.84.58v-2.67l2.84-.57v-4.46l-2.84.57v-2.66l2.84-.63v-4.46l1.17-.2v4.43l3.15-.71v-5l1.2-.2v5l2.86-.6v2.72l-2.86.57v4.43l2.86-.54v2.66l-2.86.6v4.21l-1.2.23v-4.18l-3.15.74v4.73zm1.17-7.64 3.15-.72v-4.46l-3.15.77z" fill="#fff"/><circle cx="215.9" cy="187.01" fill="#87c540" r="26.71"/><path d="m219.93 182.38a4.49 4.49 0 0 0 -1-1.13 4.54 4.54 0 0 0 -1.36-.76 4.74 4.74 0 0 0 -1.59-.27 5.29 5.29 0 0 0 -2.58.58 4.89 4.89 0 0 0 -1.71 1.58 6.75 6.75 0 0 0 -1 2.24 11.23 11.23 0 0 0 -.3 2.61 10.43 10.43 0 0 0 .3 2.5 6.76 6.76 0 0 0 1 2.19 4.93 4.93 0 0 0 1.71 1.56 5.29 5.29 0 0 0 2.58.58 4.15 4.15 0 0 0 3.22-1.25 5.91 5.91 0 0 0 1.42-3.32h4.38a10.48 10.48 0 0 1 -.88 3.46 8.31 8.31 0 0 1 -1.89 2.63 7.91 7.91 0 0 1 -2.75 1.66 10.09 10.09 0 0 1 -3.46.57 10.55 10.55 0 0 1 -4.22-.81 9.19 9.19 0 0 1 -3.16-2.25 9.9 9.9 0 0 1 -2-3.36 12.56 12.56 0 0 1 -.68-4.16 12.93 12.93 0 0 1 .68-4.25 10.17 10.17 0 0 1 2-3.42 8.9 8.9 0 0 1 3.16-2.29 10.39 10.39 0 0 1 4.22-.83 10.1 10.1 0 0 1 3.19.49 8.53 8.53 0 0 1 2.69 1.41 7.72 7.72 0 0 1 2 2.31 8.21 8.21 0 0 1 1 3.14h-4.35a3.52 3.52 0 0 0 -.62-1.41z" fill="#fff"/><circle cx="339.1" cy="187.01" fill="#00a99d" r="26.71"/><path d="m338.87 177.05a10.48 10.48 0 0 1 3.67.63 8 8 0 0 1 2.95 1.89 8.81 8.81 0 0 1 1.95 3.14 12.69 12.69 0 0 1 .7 4.44 14.2 14.2 0 0 1 -.57 4.12 9 9 0 0 1 -1.73 3.26 8.11 8.11 0 0 1 -2.89 2.16 9.74 9.74 0 0 1 -4.08.79h-8.81v-20.43zm-.32 16.65a5.76 5.76 0 0 0 1.89-.31 4.08 4.08 0 0 0 1.63-1 5.22 5.22 0 0 0 1.15-1.9 8.53 8.53 0 0 0 .43-2.86 11.93 11.93 0 0 0 -.3-2.79 5.51 5.51 0 0 0 -1-2.13 4.33 4.33 0 0 0 -1.82-1.36 7.13 7.13 0 0 0 -2.79-.47h-3.2v12.82z" fill="#fff"/><circle cx="31.12" cy="187.01" fill="#00aeef" r="26.71"/><path d="m24.82 177.57a10.48 10.48 0 0 1 3.67.63 8 8 0 0 1 3 1.89 8.77 8.77 0 0 1 1.95 3.15 12.6 12.6 0 0 1 .7 4.43 14.2 14.2 0 0 1 -.57 4.12 9 9 0 0 1 -1.73 3.26 8.11 8.11 0 0 1 -2.89 2.16 9.74 9.74 0 0 1 -4.08.79h-8.87v-20.43zm-.32 16.65a5.76 5.76 0 0 0 1.89-.31 4.08 4.08 0 0 0 1.63-1 5.22 5.22 0 0 0 1.15-1.9 8.49 8.49 0 0 0 .43-2.86 11.93 11.93 0 0 0 -.3-2.79 5.51 5.51 0 0 0 -1-2.13 4.33 4.33 0 0 0 -1.82-1.36 7.13 7.13 0 0 0 -2.79-.47h-3.19v12.87z" fill="#fff"/><path d="m40.3 198v-4.69l-2.83.57v-2.66l2.83-.57v-4.47l-2.83.58v-2.67l2.83-.62v-4.47l1.17-.2v4.44l3.15-.72v-5l1.2-.2v4.95l2.86-.6v2.72l-2.86.57v4.44l2.86-.55v2.66l-2.86.61v4.2l-1.2.23v-4.18l-3.15.75v4.72zm1.17-7.64 3.15-.71v-4.47l-3.15.77z" fill="#fff"/><circle cx="154.31" cy="187.01" fill="#2e3192" r="26.71"/><path d="m162 176.8v3.78h-9.87v4.72h8.56v3.49h-8.56v8.44h-4.49v-20.43z" fill="#fff"/><circle cx="277.5" cy="187.01" fill="#ec008c" r="26.71"/><path d="m279.67 197.25a7.49 7.49 0 0 1 -2.94.61 10.48 10.48 0 0 1 -4.22-.81 9 9 0 0 1 -3.17-2.25 9.87 9.87 0 0 1 -2-3.36 12.27 12.27 0 0 1 -.69-4.16 12.71 12.71 0 0 1 .69-4.25 10.15 10.15 0 0 1 2-3.42 9.07 9.07 0 0 1 3.17-2.29 10.32 10.32 0 0 1 4.22-.83 10.06 10.06 0 0 1 3 .47 8.77 8.77 0 0 1 2.66 1.39 7.37 7.37 0 0 1 2 2.26 7.67 7.67 0 0 1 .95 3.09h-4.29a4.33 4.33 0 0 0 -1.55-2.57 4.44 4.44 0 0 0 -2.77-.86 5.26 5.26 0 0 0 -2.58.58 4.84 4.84 0 0 0 -1.72 1.58 6.74 6.74 0 0 0 -.95 2.24 11.23 11.23 0 0 0 -.31 2.61 10.38 10.38 0 0 0 .31 2.5 6.74 6.74 0 0 0 .95 2.19 4.88 4.88 0 0 0 1.72 1.56 5.26 5.26 0 0 0 2.58.59 4.4 4.4 0 0 0 4.86-4.41h-4.52v-3.35h8.58v11h-2.86l-.46-2.32a6.67 6.67 0 0 1 -2.66 2.21z" fill="#fff"/><circle cx="185.44" cy="133.58" fill="#ee342e" r="26.71"/><path d="m187.79 123.89 7.64 20.43h-4.67l-1.54-4.55h-7.64l-1.6 4.55h-4.53l7.73-20.43zm.25 12.53-2.57-7.5h-.06l-2.66 7.5z" fill="#fff"/><circle cx="308.63" cy="133.58" fill="#fff200" r="26.71"/><path d="m310.82 123.47a12.86 12.86 0 0 1 2.66.25 5.91 5.91 0 0 1 2.06.85 3.81 3.81 0 0 1 1.33 1.56 5.4 5.4 0 0 1 .48 2.4 4.55 4.55 0 0 1 -.7 2.58 5.07 5.07 0 0 1 -2.08 1.68 4.94 4.94 0 0 1 2.82 1.91 6.25 6.25 0 0 1 .33 6 5.14 5.14 0 0 1 -1.62 1.84 7.13 7.13 0 0 1 -2.32 1.06 10.35 10.35 0 0 1 -2.67.35h-9.9v-20.48zm-.57 8.27a3.16 3.16 0 0 0 2-.58 2.15 2.15 0 0 0 .78-1.86 2.41 2.41 0 0 0 -.26-1.17 1.88 1.88 0 0 0 -.69-.71 2.55 2.55 0 0 0 -1-.36 6.34 6.34 0 0 0 -1.16-.1h-4.22v4.78zm.26 8.66a6.41 6.41 0 0 0 1.26-.12 3.24 3.24 0 0 0 1.06-.43 2.13 2.13 0 0 0 .72-.82 3.26 3.26 0 0 0 -.61-3.56 3.77 3.77 0 0 0 -2.35-.67h-4.89v5.6z" fill="#fff"/><circle cx=".65" cy="133.58" fill="#87c540" r="26.71"/><path d="m4.68 128.94a4.71 4.71 0 0 0 -1-1.13 4.71 4.71 0 0 0 -1.35-.76 4.74 4.74 0 0 0 -1.59-.27 5.29 5.29 0 0 0 -2.58.59 4.89 4.89 0 0 0 -1.72 1.57 7.1 7.1 0 0 0 -.95 2.25 11.21 11.21 0 0 0 -.3 2.6 10.45 10.45 0 0 0 .3 2.51 6.81 6.81 0 0 0 .95 2.18 5 5 0 0 0 1.71 1.52 5.29 5.29 0 0 0 2.58.59 4.17 4.17 0 0 0 3.27-1.22 5.81 5.81 0 0 0 1.41-3.32h4.3a10.18 10.18 0 0 1 -.89 3.46 8.29 8.29 0 0 1 -1.88 2.64 8.33 8.33 0 0 1 -2.75 1.66 10.09 10.09 0 0 1 -3.46.57 10.35 10.35 0 0 1 -4.22-.82 9.07 9.07 0 0 1 -3.17-2.24 10.18 10.18 0 0 1 -2-3.37 12.23 12.23 0 0 1 -.69-4.16 12.76 12.76 0 0 1 .69-4.25 10.52 10.52 0 0 1 2-3.42 9 9 0 0 1 3.17-2.28 10.19 10.19 0 0 1 4.22-.84 10.44 10.44 0 0 1 3.19.48 8.77 8.77 0 0 1 2.69 1.42 7.81 7.81 0 0 1 2 2.3 8.31 8.31 0 0 1 1 3.15h-4.42a3.83 3.83 0 0 0 -.51-1.41z" fill="#fff"/><circle cx="430.98" cy="133.58" fill="#00a651" r="26.71"/><path d="m428.29 128.89a4.47 4.47 0 0 0 -1-1.13 4.67 4.67 0 0 0 -2.94-1 5.26 5.26 0 0 0 -2.58.59 4.81 4.81 0 0 0 -1.72 1.57 6.88 6.88 0 0 0 -.95 2.25 10.64 10.64 0 0 0 -.31 2.6 9.9 9.9 0 0 0 .31 2.5 6.74 6.74 0 0 0 .95 2.19 4.88 4.88 0 0 0 1.72 1.56 5.26 5.26 0 0 0 2.58.59 4.14 4.14 0 0 0 3.21-1.26 5.78 5.78 0 0 0 1.44-3.35h4.35a10.18 10.18 0 0 1 -.89 3.46 8.16 8.16 0 0 1 -1.89 2.64 8 8 0 0 1 -2.74 1.65 9.89 9.89 0 0 1 -3.46.58 10.48 10.48 0 0 1 -4.22-.82 9.07 9.07 0 0 1 -3.17-2.24 10 10 0 0 1 -2-3.37 12.23 12.23 0 0 1 -.69-4.16 12.71 12.71 0 0 1 .69-4.25 10.25 10.25 0 0 1 2-3.42 9.19 9.19 0 0 1 3.17-2.29 10.32 10.32 0 0 1 4.22-.83 10.19 10.19 0 0 1 3.19.49 8.67 8.67 0 0 1 2.69 1.42 7.68 7.68 0 0 1 2 2.3 8.43 8.43 0 0 1 1 3.15h-4.35a3.68 3.68 0 0 0 -.61-1.42z" fill="#fff"/><circle cx="123.84" cy="133.58" fill="#00a99d" r="26.71"/><path d="m123.62 123.62a10.71 10.71 0 0 1 3.67.62 8 8 0 0 1 3 1.89 8.77 8.77 0 0 1 1.95 3.15 12.93 12.93 0 0 1 .7 4.44 13.79 13.79 0 0 1 -.58 4.11 9 9 0 0 1 -1.73 3.27 8.17 8.17 0 0 1 -2.89 2.16 9.82 9.82 0 0 1 -4.07.78h-8.87v-20.42zm-.32 16.65a5.77 5.77 0 0 0 1.89-.32 4.24 4.24 0 0 0 1.63-1 5.3 5.3 0 0 0 1.18-1.95 8.61 8.61 0 0 0 .42-2.87 11.78 11.78 0 0 0 -.3-2.78 5.77 5.77 0 0 0 -1-2.14 4.48 4.48 0 0 0 -1.82-1.36 7.32 7.32 0 0 0 -2.79-.47h-3.21v12.88z" fill="#fff"/><circle cx="247.04" cy="133.58" fill="#0072bc" r="26.71"/><path d="m254.56 123.74v3.77h-10.79v4.38h9.91v3.49h-9.91v5h11v3.78h-15.49v-20.42z" fill="#fff"/><circle cx="369.38" cy="133.58" fill="#92278f" r="26.71"/><path d="m370.85 123.68v3.77h-9.85v4.72h8.55v3.49h-8.55v8.44h-4.49v-20.42z" fill="#fff"/><path d="m376.54 144.1v-4.69l-2.83.57v-2.66l2.83-.57v-4.46l-2.83.57v-2.66l2.83-.63v-4.46l1.18-.2v4.43l3.14-.72v-5l1.21-.2v5l2.86-.6v2.72l-2.86.57v4.43l2.86-.54v2.66l-2.86.6v4.21l-1.21.23v-4.18l-3.14.74v4.72zm1.18-7.63 3.14-.72v-4.46l-3.14.77z" fill="#fff"/><circle cx="62.25" cy="133.58" fill="#ec008c" r="26.71"/><path d="m64.42 143.81a7.55 7.55 0 0 1 -3 .62 10.38 10.38 0 0 1 -4.22-.82 9 9 0 0 1 -3.16-2.24 9.9 9.9 0 0 1 -2-3.36 12.33 12.33 0 0 1 -.69-4.17 12.76 12.76 0 0 1 .69-4.25 10.18 10.18 0 0 1 2-3.42 9 9 0 0 1 3.16-2.28 10.22 10.22 0 0 1 4.22-.83 9.77 9.77 0 0 1 3 .47 8.55 8.55 0 0 1 2.66 1.39 7.53 7.53 0 0 1 2.91 5.35h-4.3a4.26 4.26 0 0 0 -1.54-2.58 4.51 4.51 0 0 0 -2.78-.86 5.22 5.22 0 0 0 -2.57.59 4.9 4.9 0 0 0 -1.62 1.58 6.9 6.9 0 0 0 -1 2.25 11.21 11.21 0 0 0 -.3 2.6 10.45 10.45 0 0 0 .3 2.51 6.62 6.62 0 0 0 1 2.18 4.88 4.88 0 0 0 1.72 1.56 5.12 5.12 0 0 0 2.57.59 4.39 4.39 0 0 0 4.87-4.41h-4.52v-3.34h8.58v11h-2.86l-.46-2.32a6.74 6.74 0 0 1 -2.66 2.19z" fill="#fff"/><circle cx="402.03" cy="80.14" fill="#f5832b" r="26.71"/><path d="m397.54 70.8 7.64 20.43h-4.67l-1.51-4.55h-7.64l-1.6 4.55h-4.52l7.72-20.43zm.26 12.53-2.58-7.5h-.06l-2.66 7.5z" fill="#fff"/><path d="m410 91.23v-4.7l-2.83.58v-2.66l2.83-.58v-4.46l-2.83.57v-2.66l2.83-.63v-4.46l1.18-.2v4.43l3.14-.71v-5l1.2-.2v4.95l2.87-.6v2.72l-2.87.57v4.43l2.87-.54v2.66l-2.87.6v4.21l-1.2.23v-4.19l-3.14.74v4.73zm1.18-7.64 3.14-.72v-4.46l-3.14.77z" fill="#fff"/><circle cx="94.05" cy="80.14" fill="#fff200" r="26.71"/><path d="m96.24 70a12.83 12.83 0 0 1 2.66.26 5.72 5.72 0 0 1 2.06.84 4 4 0 0 1 1.33 1.56 5.42 5.42 0 0 1 .47 2.41 4.42 4.42 0 0 1 -.7 2.57 5.05 5.05 0 0 1 -2.06 1.72 4.92 4.92 0 0 1 2.82 1.9 5.68 5.68 0 0 1 .93 3.28 5.6 5.6 0 0 1 -.6 2.67 5.18 5.18 0 0 1 -1.62 1.85 7.13 7.13 0 0 1 -2.32 1.06 10.4 10.4 0 0 1 -2.67.34h-9.9v-20.46zm-.57 8.27a3.22 3.22 0 0 0 2-.57 2.14 2.14 0 0 0 .77-1.86 2.36 2.36 0 0 0 -.25-1.17 1.84 1.84 0 0 0 -.69-.72 3 3 0 0 0 -1-.36 7.16 7.16 0 0 0 -1.16-.1h-4.2v4.81zm.26 8.73a5.7 5.7 0 0 0 1.25-.13 2.88 2.88 0 0 0 1.06-.43 2.12 2.12 0 0 0 .76-.84 2.84 2.84 0 0 0 .27-1.32 2.65 2.65 0 0 0 -.91-2.28 3.85 3.85 0 0 0 -2.36-.64h-4.88v5.64z" fill="#fff"/><circle cx="217.24" cy="80.14" fill="#00a651" r="26.71"/><path d="m214.56 75.46a4.49 4.49 0 0 0 -1-1.13 4.54 4.54 0 0 0 -1.36-.76 4.74 4.74 0 0 0 -1.59-.27 5.29 5.29 0 0 0 -2.58.58 4.89 4.89 0 0 0 -1.71 1.58 6.75 6.75 0 0 0 -1 2.24 11.23 11.23 0 0 0 -.3 2.61 10.43 10.43 0 0 0 .3 2.5 6.76 6.76 0 0 0 1 2.19 4.93 4.93 0 0 0 1.68 1.56 5.29 5.29 0 0 0 2.58.58 4.15 4.15 0 0 0 3.22-1.25 5.84 5.84 0 0 0 1.41-3.32h4.35a10.48 10.48 0 0 1 -.88 3.46 8.31 8.31 0 0 1 -1.89 2.63 7.91 7.91 0 0 1 -2.75 1.66 10.09 10.09 0 0 1 -3.46.57 10.52 10.52 0 0 1 -4.22-.81 9.09 9.09 0 0 1 -3.16-2.25 9.9 9.9 0 0 1 -2-3.36 12.56 12.56 0 0 1 -.68-4.16 12.93 12.93 0 0 1 .68-4.25 10.17 10.17 0 0 1 2-3.42 8.82 8.82 0 0 1 3.16-2.29 10.35 10.35 0 0 1 4.22-.83 10.14 10.14 0 0 1 3.19.49 8.53 8.53 0 0 1 2.69 1.41 7.72 7.72 0 0 1 2 2.31 8.21 8.21 0 0 1 1 3.14h-4.35a3.68 3.68 0 0 0 -.55-1.41z" fill="#fff"/><path d="m225.74 90.43v-4.69l-2.83.57v-2.66l2.83-.57v-4.46l-2.83.57v-2.66l2.83-.63v-4.46l1.18-.2v4.43l3.15-.72v-4.95l1.2-.2v5l2.86-.6v2.72l-2.86.57v4.43l2.86-.54v2.66l-2.86.6v4.21l-1.2.23v-4.28l-3.15.74v4.72zm1.18-7.63 3.15-.72v-4.46l-3.15.77z" fill="#fff"/><circle cx="340.43" cy="80.14" fill="#00aeef" r="26.71"/><path d="m334.13 70.7a10.5 10.5 0 0 1 3.68.63 8 8 0 0 1 2.95 1.89 8.61 8.61 0 0 1 1.94 3.15 12.67 12.67 0 0 1 .71 4.43 14.19 14.19 0 0 1 -.58 4.12 9 9 0 0 1 -1.73 3.26 7.94 7.94 0 0 1 -2.89 2.16 9.67 9.67 0 0 1 -4.08.79h-8.81v-20.43zm-.31 16.65a5.76 5.76 0 0 0 1.89-.31 4.24 4.24 0 0 0 1.63-1 5.11 5.11 0 0 0 1.14-1.91 8.24 8.24 0 0 0 .43-2.86 11.93 11.93 0 0 0 -.3-2.79 5.65 5.65 0 0 0 -1-2.13 4.48 4.48 0 0 0 -1.8-1.35 7.36 7.36 0 0 0 -2.79-.47h-3.21v12.82z" fill="#fff"/><path d="m349.61 91.13v-4.69l-2.83.57v-2.66l2.83-.57v-4.47l-2.83.58v-2.66l2.83-.63v-4.47l1.18-.2v4.44l3.15-.72v-5l1.2-.21v5l2.86-.61v2.72l-2.86.57v4.44l2.86-.56v2.67l-2.86.6v4.2l-1.2.23v-4.2l-3.15.74v4.76zm1.18-7.64 3.15-.71v-4.47l-3.15.78z" fill="#fff"/><circle cx="32.46" cy="80.14" fill="#0072bc" r="26.71"/><path d="m40 70.3v3.78h-10.81v4.38h9.9v3.54h-9.9v5h11v3.78h-15.49v-20.48z" fill="#fff"/><circle cx="155.64" cy="80.14" fill="#92278f" r="26.71"/><path d="m157.11 70.24v3.76h-9.87v4.72h8.56v3.49h-8.56v8.44h-4.49v-20.41z" fill="#fff"/><path d="m162.81 90.67v-4.67l-2.83.57v-2.68l2.83-.57v-4.47l-2.83.58v-2.66l2.83-.63v-4.47l1.17-.2v4.44l3.15-.72v-5l1.2-.2v5l2.86-.6v2.72l-2.86.57v4.44l2.86-.55v2.66l-2.86.61v4.16l-1.2.23v-4.23l-3.15.75v4.75zm1.19-7.67 3.15-.71v-4.44l-3.15.77z" fill="#fff"/><circle cx="278.84" cy="80.14" fill="#e11156" r="26.71"/><path d="m276.63 90.56a7.53 7.53 0 0 1 -2.95.61 10.55 10.55 0 0 1 -4.22-.81 9.19 9.19 0 0 1 -3.16-2.25 9.72 9.72 0 0 1 -2-3.36 12.31 12.31 0 0 1 -.69-4.16 12.77 12.77 0 0 1 .69-4.26 10 10 0 0 1 2-3.41 8.9 8.9 0 0 1 3.16-2.29 10.22 10.22 0 0 1 4.22-.83 9.77 9.77 0 0 1 3.05.47 8.55 8.55 0 0 1 2.66 1.39 7.53 7.53 0 0 1 2.91 5.34h-4.3a4.29 4.29 0 0 0 -1.54-2.58 4.5 4.5 0 0 0 -2.78-.85 5.22 5.22 0 0 0 -2.57.58 4.9 4.9 0 0 0 -1.72 1.57 6.9 6.9 0 0 0 -1 2.25 11.23 11.23 0 0 0 -.3 2.61 10.43 10.43 0 0 0 .3 2.5 6.76 6.76 0 0 0 1 2.19 5 5 0 0 0 1.72 1.56 5.22 5.22 0 0 0 2.57.58 4.85 4.85 0 0 0 3.45-1.13 4.93 4.93 0 0 0 1.42-3.28h-4.55v-3.33h8.58v11h-2.86l-.46-2.31a6.74 6.74 0 0 1 -2.63 2.2z" fill="#fff"/><path d="m289.33 90.71v-4.71l-2.83.57v-2.64l2.83-.57v-4.46l-2.83.57v-2.66l2.83-.63v-4.47l1.18-.2v4.49l3.14-.72v-5l1.21-.2v5l2.86-.6v2.71l-2.86.58v4.33l2.86-.54v2.66l-2.86.6v4.18l-1.21.22v-4.14l-3.14.74v4.72zm1.18-7.64 3.14-.71v-4.47l-3.14.78z" fill="#fff"/><circle cx="196.35" cy="26.71" fill="#f5832b" r="26.71"/><path d="m191.86 17.36 7.64 20.43h-4.66l-1.55-4.55h-7.64l-1.6 4.55h-4.52l7.72-20.43zm.26 12.54-2.58-7.5-2.66 7.5z" fill="#fff"/><path d="m204.37 37.79v-4.69l-2.84.57v-2.67l2.84-.57v-4.43l-2.84.57v-2.68l2.84-.63v-4.47l1.17-.2v4.41l3.15-.72v-5l1.2-.2v4.95l2.86-.6v2.71l-2.86.58v4.43l2.86-.54v2.69l-2.86.6v4.21l-1.2.22v-4.17l-3.15.74v4.72zm1.17-7.64 3.15-.71v-4.44l-3.15.78z" fill="#fff"/><circle cx="319.55" cy="26.71" fill="#87c540" r="26.71"/><path d="m323.57 22.07a4.67 4.67 0 0 0 -1-1.13 5 5 0 0 0 -1.36-.76 4.74 4.74 0 0 0 -1.59-.27 5.29 5.29 0 0 0 -2.58.59 5 5 0 0 0 -1.71 1.57 6.9 6.9 0 0 0 -1 2.25 11.21 11.21 0 0 0 -.3 2.6 10.45 10.45 0 0 0 .3 2.51 6.62 6.62 0 0 0 1 2.18 4.93 4.93 0 0 0 1.67 1.56 5.18 5.18 0 0 0 2.58.59 4.16 4.16 0 0 0 3.22-1.26 5.88 5.88 0 0 0 1.42-3.32h4.34a10.54 10.54 0 0 1 -.88 3.47 8.43 8.43 0 0 1 -1.89 2.63 8.07 8.07 0 0 1 -2.75 1.66 10.09 10.09 0 0 1 -3.46.57 10.38 10.38 0 0 1 -4.22-.82 9 9 0 0 1 -3.16-2.24 10 10 0 0 1 -2-3.36 12.58 12.58 0 0 1 -.68-4.17 13 13 0 0 1 .68-4.25 10.37 10.37 0 0 1 2-3.42 9 9 0 0 1 3.2-2.25 10.22 10.22 0 0 1 4.22-.83 10.39 10.39 0 0 1 3.19.48 8.77 8.77 0 0 1 2.69 1.35 7.81 7.81 0 0 1 2 2.3 8.14 8.14 0 0 1 1 3.15h-4.35a3.51 3.51 0 0 0 -.58-1.38z" fill="#fff"/><circle cx="10.72" cy="26.71" fill="#00a651" r="26.71"/><path d="m8 22a4.51 4.51 0 0 0 -1-1.13 4.61 4.61 0 0 0 -2.94-1 5.29 5.29 0 0 0 -2.58.59 4.86 4.86 0 0 0 -1.68 1.54 6.9 6.9 0 0 0 -1 2.25 11.15 11.15 0 0 0 -.3 2.6 10.45 10.45 0 0 0 .3 2.51 6.62 6.62 0 0 0 1 2.18 4.93 4.93 0 0 0 1.71 1.56 5.29 5.29 0 0 0 2.58.59 4.17 4.17 0 0 0 3.22-1.26 5.84 5.84 0 0 0 1.41-3.32h4.35a10.42 10.42 0 0 1 -.88 3.46 8.47 8.47 0 0 1 -1.89 2.64 8.33 8.33 0 0 1 -2.75 1.66 10.09 10.09 0 0 1 -3.46.57 10.35 10.35 0 0 1 -4.22-.82 8.94 8.94 0 0 1 -3.16-2.22 10 10 0 0 1 -2-3.37 12.23 12.23 0 0 1 -.68-4.16 12.75 12.75 0 0 1 .68-4.25 10.37 10.37 0 0 1 2-3.42 8.91 8.91 0 0 1 3.16-2.28 10.19 10.19 0 0 1 4.22-.84 10.44 10.44 0 0 1 3.19.49 8.77 8.77 0 0 1 2.72 1.43 7.81 7.81 0 0 1 2 2.3 8.31 8.31 0 0 1 1 3.15h-4.45a3.67 3.67 0 0 0 -.55-1.45z" fill="#fff"/><path d="m19.22 37v-4.69l-2.83.57v-2.66l2.83-.57v-4.47l-2.83.58v-2.66l2.83-.63v-4.47l1.18-.2v4.44l3.14-.72v-5l1.21-.2v5l2.86-.6v2.72l-2.86.56v4.44l2.86-.55v2.61l-2.86.61v4.2l-1.21.23v-4.18l-3.14.75v4.72zm1.18-7.64 3.14-.71v-4.47l-3.14.82z" fill="#fff"/><circle cx="442.74" cy="26.71" fill="#00a99d" r="26.71"/><circle cx="134.76" cy="26.71" fill="#00aeef" r="26.71"/><path d="m128.46 17.27a10.58 10.58 0 0 1 3.68.63 8 8 0 0 1 2.94 1.89 8.72 8.72 0 0 1 1.92 3.14 12.69 12.69 0 0 1 .7 4.44 14.2 14.2 0 0 1 -.57 4.12 9.1 9.1 0 0 1 -1.73 3.26 8.11 8.11 0 0 1 -2.89 2.16 9.74 9.74 0 0 1 -4.08.79h-8.81v-20.43zm-.32 16.65a5.76 5.76 0 0 0 1.89-.31 4.08 4.08 0 0 0 1.63-1 5.3 5.3 0 0 0 1.15-1.9 8.53 8.53 0 0 0 .43-2.86 11.93 11.93 0 0 0 -.3-2.79 5.51 5.51 0 0 0 -1-2.13 4.25 4.25 0 0 0 -1.82-1.36 7.13 7.13 0 0 0 -2.79-.47h-3.2v12.82z" fill="#fff"/><path d="m143.94 37.7v-4.7l-2.83.58v-2.66l2.83-.58v-4.46l-2.83.57v-2.66l2.83-.63v-4.46l1.17-.2v4.43l3.15-.71v-5l1.2-.2v4.98l2.86-.6v2.72l-2.86.57v4.43l2.86-.54v2.62l-2.86.6v4.2l-1.2.23v-4.17l-3.15.74v4.73zm1.17-7.64 3.15-.72v-4.46l-3.15.77z" fill="#fff"/><circle cx="257.95" cy="26.71" fill="#2e3192" r="26.71"/><path d="m265.65 16.5v3.77h-9.87v4.73h8.56v3.49h-8.56v8.45h-4.49v-20.44z" fill="#fff"/><circle cx="381.14" cy="26.71" fill="#ec008c" r="26.71"/><path d="m383.31 37a7.49 7.49 0 0 1 -2.94.61 10.32 10.32 0 0 1 -4.22-.82 9.07 9.07 0 0 1 -3.15-2.29 10 10 0 0 1 -2-3.36 12.33 12.33 0 0 1 -.69-4.17 12.76 12.76 0 0 1 .69-4.25 10.37 10.37 0 0 1 2-3.41 8.94 8.94 0 0 1 3.15-2.31 10.16 10.16 0 0 1 4.22-.83 9.71 9.71 0 0 1 3 .47 8.44 8.44 0 0 1 2.66 1.39 7.37 7.37 0 0 1 2 2.26 7.58 7.58 0 0 1 1 3.09h-4.29a4.32 4.32 0 0 0 -1.55-2.58 4.5 4.5 0 0 0 -2.77-.86 5.26 5.26 0 0 0 -2.58.59 4.9 4.9 0 0 0 -1.72 1.57 7.1 7.1 0 0 0 -.95 2.25 11.21 11.21 0 0 0 -.31 2.6 10.46 10.46 0 0 0 .31 2.51 7 7 0 0 0 .95 2.19 5 5 0 0 0 1.72 1.56 5.26 5.26 0 0 0 2.58.58 4.39 4.39 0 0 0 4.86-4.4h-4.52v-3.33h8.58v11h-2.86l-.48-2.27a6.67 6.67 0 0 1 -2.69 2.21z" fill="#fff"/><circle cx="72.32" cy="26.71" fill="#e11156" r="26.71"/><path d="m70.11 37.12a7.55 7.55 0 0 1 -3 .62 10.38 10.38 0 0 1 -4.22-.82 9 9 0 0 1 -3.16-2.24 9.85 9.85 0 0 1 -2-3.37 12.23 12.23 0 0 1 -.69-4.16 12.71 12.71 0 0 1 .69-4.25 10.08 10.08 0 0 1 2-3.42 9.15 9.15 0 0 1 3.16-2.29 10.39 10.39 0 0 1 4.22-.83 9.78 9.78 0 0 1 3 .48 8.53 8.53 0 0 1 2.66 1.38 7.77 7.77 0 0 1 2 2.26 7.51 7.51 0 0 1 .94 3.09h-4.23a4.31 4.31 0 0 0 -1.54-2.57 4.53 4.53 0 0 0 -2.78-.86 5.22 5.22 0 0 0 -2.57.59 4.81 4.81 0 0 0 -1.72 1.57 6.9 6.9 0 0 0 -1 2.25 11.15 11.15 0 0 0 -.3 2.6 10.37 10.37 0 0 0 .3 2.5 6.76 6.76 0 0 0 1 2.19 4.88 4.88 0 0 0 1.72 1.56 5.22 5.22 0 0 0 2.57.59 4.89 4.89 0 0 0 3.45-1.13 5 5 0 0 0 1.39-3.28h-4.49v-3.34h8.58v11h-2.86l-.46-2.24a6.74 6.74 0 0 1 -2.66 2.12z" fill="#fff"/><path d="m82.81 37.28v-4.69l-2.81.57v-2.66l2.83-.57v-4.47l-2.83.54v-2.63l2.83-.63v-4.46l1.18-.2v4.43l3.14-.71v-5l1.21-.2v4.95l2.86-.6v2.72l-2.86.57v4.44l2.86-.55v2.66l-2.86.61v4.2l-1.21.23v-4.19l-3.15.75v4.72zm1.19-7.64 3.14-.72v-4.46l-3.14.77z" fill="#fff"/><circle cx="204.41" cy="400.75" fill="#f5832b" r="26.71"/><path d="m199.92 391.41 7.64 20.43h-4.66l-1.55-4.55h-7.63l-1.61 4.55h-4.52l7.73-20.43zm.26 12.53-2.57-7.5h-.06l-2.66 7.5z" fill="#fff"/><path d="m212.43 411.84v-4.69l-2.83.57v-2.66l2.83-.58v-4.48l-2.83.57v-2.66l2.83-.63v-4.46l1.17-.2v4.43l3.15-.71v-5l1.2-.2v5l2.86-.6v2.72l-2.86.57v4.43l2.86-.54v2.66l-2.86.6v4.21l-1.2.23v-4.22l-3.15.74v4.73zm1.17-7.64 3.15-.72v-4.48l-3.15.77z" fill="#fff"/><circle cx="327.61" cy="400.75" fill="#87c540" r="26.71"/><path d="m331.63 396.12a4.49 4.49 0 0 0 -1-1.13 4.54 4.54 0 0 0 -1.36-.76 4.74 4.74 0 0 0 -1.59-.27 5.22 5.22 0 0 0 -2.57.58 4.84 4.84 0 0 0 -1.72 1.58 6.84 6.84 0 0 0 -1 2.24 11.23 11.23 0 0 0 -.3 2.61 10.37 10.37 0 0 0 .3 2.5 6.76 6.76 0 0 0 1 2.19 4.88 4.88 0 0 0 1.72 1.56 5.22 5.22 0 0 0 2.57.59 4.14 4.14 0 0 0 3.22-1.26 5.85 5.85 0 0 0 1.42-3.32h4.35a10.42 10.42 0 0 1 -.89 3.46 8.31 8.31 0 0 1 -1.89 2.63 7.91 7.91 0 0 1 -2.75 1.66 10.09 10.09 0 0 1 -3.46.58 10.55 10.55 0 0 1 -4.22-.82 8.93 8.93 0 0 1 -3.16-2.25 9.72 9.72 0 0 1 -2-3.36 12.27 12.27 0 0 1 -.69-4.16 12.71 12.71 0 0 1 .69-4.25 10 10 0 0 1 2-3.42 9 9 0 0 1 3.16-2.29 10.39 10.39 0 0 1 4.22-.83 10.1 10.1 0 0 1 3.19.49 8.53 8.53 0 0 1 2.69 1.41 7.58 7.58 0 0 1 2 2.31 8 8 0 0 1 1 3.14h-4.34a3.69 3.69 0 0 0 -.59-1.41z" fill="#fff"/><circle cx="19.63" cy="400.75" fill="#00a651" r="26.71"/><path d="m16.94 396.07a4.3 4.3 0 0 0 -1-1.13 4.42 4.42 0 0 0 -1.36-.76 4.66 4.66 0 0 0 -1.59-.27 5.25 5.25 0 0 0 -2.57.58 4.84 4.84 0 0 0 -1.72 1.58 6.75 6.75 0 0 0 -1 2.24 11.23 11.23 0 0 0 -.3 2.61 10.43 10.43 0 0 0 .3 2.5 6.76 6.76 0 0 0 1 2.19 4.88 4.88 0 0 0 1.72 1.56 5.25 5.25 0 0 0 2.57.58 4.14 4.14 0 0 0 3.22-1.25 5.78 5.78 0 0 0 1.42-3.32h4.37a10.48 10.48 0 0 1 -.89 3.46 8 8 0 0 1 -1.89 2.63 7.87 7.87 0 0 1 -2.74 1.66 10.14 10.14 0 0 1 -3.47.57 10.55 10.55 0 0 1 -4.22-.81 9.28 9.28 0 0 1 -3.16-2.25 9.87 9.87 0 0 1 -2-3.36 12.31 12.31 0 0 1 -.63-4.16 12.67 12.67 0 0 1 .69-4.25 10.15 10.15 0 0 1 2-3.42 9 9 0 0 1 3.08-2.25 10.39 10.39 0 0 1 4.22-.83 10.21 10.21 0 0 1 3.2.49 8.64 8.64 0 0 1 2.69 1.34 7.72 7.72 0 0 1 2 2.31 8.38 8.38 0 0 1 1 3.14h-4.42a3.69 3.69 0 0 0 -.52-1.38z" fill="#fff"/><path d="m28.13 411.05v-4.7l-2.83.57v-2.66l2.83-.57v-4.46l-2.83.57v-2.66l2.83-.63v-4.46l1.17-.2v4.43l3.15-.71v-5l1.2-.2v4.95l2.86-.6v2.72l-2.86.57v4.43l2.86-.54v2.66l-2.86.6v4.21l-1.2.23v-4.18l-3.15.74v4.72zm1.17-7.64 3.15-.72v-4.46l-3.15.77z" fill="#fff"/><circle cx="142.82" cy="400.75" fill="#00aeef" r="26.71"/><path d="m136.52 391.31a10.54 10.54 0 0 1 3.68.63 8.12 8.12 0 0 1 3 1.89 8.89 8.89 0 0 1 1.94 3.15 12.68 12.68 0 0 1 .7 4.43 14.2 14.2 0 0 1 -.57 4.12 9 9 0 0 1 -1.73 3.26 8 8 0 0 1 -2.94 2.21 9.74 9.74 0 0 1 -4.08.79h-8.81v-20.48zm-.31 16.69a5.75 5.75 0 0 0 1.88-.31 4.28 4.28 0 0 0 1.64-1 5.39 5.39 0 0 0 1.14-1.91 8.24 8.24 0 0 0 .43-2.86 11.93 11.93 0 0 0 -.3-2.79 5.51 5.51 0 0 0 -1-2.13 4.42 4.42 0 0 0 -1.82-1.36 7.32 7.32 0 0 0 -2.79-.47h-3.2v12.83z" fill="#fff"/><path d="m152 411.74v-4.69l-2.83.57v-2.62l2.83-.57v-4.47l-2.83.58v-2.66l2.83-.63v-4.47l1.17-.2v4.42l3.15-.72v-5l1.2-.21v5l2.86-.61v2.72l-2.86.57v4.44l2.86-.54v2.66l-2.86.6v4.2l-1.2.23v-4.17l-3.15.74v4.72zm1.17-7.64 3.15-.71v-4.47l-3.15.78z" fill="#fff"/><circle cx="266.01" cy="400.75" fill="#2e3192" r="26.71"/><path d="m273.71 390.54v3.78h-9.87v4.68h8.56v3.49h-8.56v8.51h-4.49v-20.46z" fill="#fff"/><circle cx="389.2" cy="400.75" fill="#ec008c" r="26.71"/><path d="m391.37 411a7.5 7.5 0 0 1 -2.94.62 10.52 10.52 0 0 1 -4.22-.82 8.84 8.84 0 0 1 -3.16-2.25 9.9 9.9 0 0 1 -2-3.36 12.27 12.27 0 0 1 -.69-4.16 12.71 12.71 0 0 1 .69-4.25 10.17 10.17 0 0 1 2-3.42 8.94 8.94 0 0 1 3.16-2.29 10.35 10.35 0 0 1 4.22-.83 10 10 0 0 1 3 .47 8.82 8.82 0 0 1 2.67 1.39 7.77 7.77 0 0 1 2 2.26 7.67 7.67 0 0 1 .94 3.09h-4.29a4.28 4.28 0 0 0 -1.55-2.57 4.5 4.5 0 0 0 -2.77-.86 5.29 5.29 0 0 0 -2.58.58 4.9 4.9 0 0 0 -1.71 1.58 6.94 6.94 0 0 0 -1 2.24 11.23 11.23 0 0 0 -.3 2.61 10.37 10.37 0 0 0 .3 2.5 6.76 6.76 0 0 0 1 2.19 4.84 4.84 0 0 0 1.71 1.56 5.29 5.29 0 0 0 2.58.59 4.37 4.37 0 0 0 4.86-4.41h-4.52v-3.36h8.59v11h-2.87l-.45-2.32a6.7 6.7 0 0 1 -2.67 2.22z" fill="#fff"/><circle cx="81.22" cy="400.75" fill="#e11156" r="26.71"/><path d="m79 411.17a7.57 7.57 0 0 1 -3 .61 10.52 10.52 0 0 1 -4.22-.81 9.09 9.09 0 0 1 -3.16-2.25 9.9 9.9 0 0 1 -2-3.36 12.56 12.56 0 0 1 -.62-4.16 13 13 0 0 1 .68-4.26 10.22 10.22 0 0 1 2-3.41 8.82 8.82 0 0 1 3.16-2.29 10.19 10.19 0 0 1 4.22-.83 9.82 9.82 0 0 1 3.05.47 8.55 8.55 0 0 1 2.66 1.39 7.48 7.48 0 0 1 2.9 5.35h-4.28a4.3 4.3 0 0 0 -1.55-2.62 4.48 4.48 0 0 0 -2.77-.85 5.29 5.29 0 0 0 -2.58.58 4.89 4.89 0 0 0 -1.71 1.58 6.75 6.75 0 0 0 -1 2.24 11.23 11.23 0 0 0 -.3 2.61 10.43 10.43 0 0 0 .3 2.5 6.76 6.76 0 0 0 1 2.19 4.93 4.93 0 0 0 1.71 1.56 5.29 5.29 0 0 0 2.58.58 4.37 4.37 0 0 0 4.86-4.4h-4.52v-3.35h8.59v11h-2.87l-.45-2.24a6.74 6.74 0 0 1 -2.68 2.17z" fill="#fff"/><path d="m91.72 411.32v-4.69l-2.83.57v-2.66l2.83-.57v-4.46l-2.83.57v-2.66l2.83-.63v-4.47l1.17-.2v4.44l3.15-.72v-5l1.2-.2v4.95l2.86-.6v2.71l-2.86.58v4.43l2.86-.54v2.66l-2.86.6v4.21l-1.2.22v-4.17l-3.15.74v4.72zm1.17-7.64 3.11-.68v-4.5l-3.15.78z" fill="#fff"/><circle cx="297.14" cy="347.32" fill="#ee342e" r="26.71"/><path d="m299.49 337.63 7.64 20.43h-4.66l-1.55-4.55h-7.64l-1.6 4.55h-4.52l7.72-20.43zm.26 12.53-2.58-7.5h-.06l-2.66 7.5z" fill="#fff"/><circle cx="-10.84" cy="347.32" fill="#f5832b" r="26.71"/><path d="m-2.83 358.4v-4.69l-2.83.57v-2.66l2.83-.57v-4.46l-2.83.57v-2.66l2.83-.63v-4.47l1.18-.2v4.44l3.15-.72v-5l1.2-.2v4.95l2.86-.6v2.71l-2.86.58v4.43l2.86-.54v2.66l-2.86.6v4.21l-1.2.22v-4.17l-3.15.74v4.72zm1.18-7.64 3.15-.71v-4.47l-3.15.78z" fill="#fff"/><circle cx="420.34" cy="347.32" fill="#fff200" r="26.71"/><path d="m422.52 337.21a13 13 0 0 1 2.67.25 6 6 0 0 1 2.06.85 4 4 0 0 1 1.33 1.56 5.55 5.55 0 0 1 .47 2.4 4.55 4.55 0 0 1 -.7 2.58 5.17 5.17 0 0 1 -2.08 1.69 4.88 4.88 0 0 1 2.82 1.9 6.25 6.25 0 0 1 .33 5.95 5.26 5.26 0 0 1 -1.62 1.85 7.06 7.06 0 0 1 -2.31 1.05 10.43 10.43 0 0 1 -2.68.35h-9.9v-20.43zm-.57 8.27a3.21 3.21 0 0 0 2-.58 2.16 2.16 0 0 0 .77-1.85 2.43 2.43 0 0 0 -.26-1.18 1.93 1.93 0 0 0 -.68-.71 3.07 3.07 0 0 0 -1-.36 6.26 6.26 0 0 0 -1.16-.1h-4.22v4.78zm.26 8.67a6.4 6.4 0 0 0 1.26-.13 3.24 3.24 0 0 0 1.06-.43 2.16 2.16 0 0 0 .73-.82 2.8 2.8 0 0 0 .27-1.31 2.66 2.66 0 0 0 -.89-2.25 3.76 3.76 0 0 0 -2.34-.67h-4.9v5.61z" fill="#fff"/><circle cx="112.35" cy="347.32" fill="#87c540" r="26.71"/><path d="m116.38 342.68a4.67 4.67 0 0 0 -1-1.13 4.74 4.74 0 0 0 -1.36-.75 4.51 4.51 0 0 0 -1.59-.28 5.29 5.29 0 0 0 -2.58.59 5 5 0 0 0 -1.71 1.57 6.9 6.9 0 0 0 -1 2.25 11.21 11.21 0 0 0 -.3 2.6 10.45 10.45 0 0 0 .3 2.51 6.76 6.76 0 0 0 1 2.19 5.13 5.13 0 0 0 1.71 1.56 5.29 5.29 0 0 0 2.58.58 4.16 4.16 0 0 0 3.22-1.26 5.81 5.81 0 0 0 1.41-3.32h4.35a10.47 10.47 0 0 1 -.88 3.47 8.43 8.43 0 0 1 -1.89 2.63 8.07 8.07 0 0 1 -2.75 1.66 10.09 10.09 0 0 1 -3.46.57 10.35 10.35 0 0 1 -4.22-.82 8.94 8.94 0 0 1 -3.16-2.24 10 10 0 0 1 -2-3.36 12.58 12.58 0 0 1 -.68-4.17 13 13 0 0 1 .68-4.25 10.37 10.37 0 0 1 2-3.42 8.91 8.91 0 0 1 3.16-2.28 10.19 10.19 0 0 1 4.22-.83 10.44 10.44 0 0 1 3.19.48 8.77 8.77 0 0 1 2.69 1.42 7.81 7.81 0 0 1 2 2.3 8.31 8.31 0 0 1 1 3.15h-4.35a3.67 3.67 0 0 0 -.58-1.42z" fill="#fff"/><circle cx="235.55" cy="347.32" fill="#00a99d" r="26.71"/><path d="m235.32 337.36a10.48 10.48 0 0 1 3.68.64 8 8 0 0 1 2.95 1.89 8.64 8.64 0 0 1 1.95 3.14 12.69 12.69 0 0 1 .7 4.44 14.25 14.25 0 0 1 -.57 4.12 9.12 9.12 0 0 1 -1.74 3.26 8.22 8.22 0 0 1 -2.89 2.15 9.9 9.9 0 0 1 -4.08.79h-8.82v-20.43zm-.32 16.64a6 6 0 0 0 1.89-.31 4.19 4.19 0 0 0 1.63-1.05 5.3 5.3 0 0 0 1.15-1.9 8.53 8.53 0 0 0 .43-2.86 11.93 11.93 0 0 0 -.3-2.79 5.51 5.51 0 0 0 -1-2.13 4.25 4.25 0 0 0 -1.82-1.36 7.12 7.12 0 0 0 -2.79-.48h-3.19v12.88z" fill="#fff"/><circle cx="358.74" cy="347.32" fill="#0072bc" r="26.71"/><path d="m366.26 337.48v3.78h-10.78v4.37h9.9v3.49h-9.9v5h11v3.78h-15.48v-20.42z" fill="#fff"/><circle cx="50.76" cy="347.32" fill="#2e3192" r="26.71"/><path d="m58.46 337.11v3.77h-9.87v4.72h8.56v3.5h-8.56v8.44h-4.49v-20.43z" fill="#fff"/><circle cx="173.95" cy="347.32" fill="#ec008c" r="26.71"/><path d="m176.12 357.56a7.5 7.5 0 0 1 -3 .61 10.55 10.55 0 0 1 -4.22-.81 9.28 9.28 0 0 1 -3.16-2.25 9.87 9.87 0 0 1 -2-3.36 12.31 12.31 0 0 1 -.69-4.16 12.77 12.77 0 0 1 .69-4.26 10.2 10.2 0 0 1 2-3.41 9 9 0 0 1 3.16-2.29 10.22 10.22 0 0 1 4.22-.83 9.77 9.77 0 0 1 3.05.47 8.55 8.55 0 0 1 2.66 1.39 7.53 7.53 0 0 1 2.91 5.35h-4.24a4.32 4.32 0 0 0 -1.55-2.58 4.51 4.51 0 0 0 -2.78-.86 5.22 5.22 0 0 0 -2.57.59 4.9 4.9 0 0 0 -1.72 1.57 6.9 6.9 0 0 0 -1 2.25 11.23 11.23 0 0 0 -.3 2.61 10.43 10.43 0 0 0 .3 2.5 6.76 6.76 0 0 0 1 2.19 5 5 0 0 0 1.72 1.56 5.22 5.22 0 0 0 2.57.58 4.39 4.39 0 0 0 4.83-4.42h-4.52v-3.35h8.58v11h-2.86l-.46-2.31a6.74 6.74 0 0 1 -2.62 2.22z" fill="#fff"/><circle cx="82.56" cy="293.89" fill="#ee342e" r="26.71"/><path d="m84.91 284.2 7.64 20.42h-4.67l-1.54-4.54h-7.64l-1.6 4.54h-4.52l7.72-20.42zm.25 12.53-2.57-7.5h-.06l-2.66 7.5z" fill="#fff"/><circle cx="205.75" cy="293.89" fill="#fff200" r="26.71"/><path d="m207.94 283.77a12.76 12.76 0 0 1 2.66.26 5.56 5.56 0 0 1 2.06.85 3.81 3.81 0 0 1 1.33 1.56 5.37 5.37 0 0 1 .48 2.4 4.5 4.5 0 0 1 -.7 2.57 5.09 5.09 0 0 1 -2.08 1.69 4.92 4.92 0 0 1 2.82 1.9 6.27 6.27 0 0 1 .33 6 5.23 5.23 0 0 1 -1.62 1.84 7.13 7.13 0 0 1 -2.32 1.06 10.34 10.34 0 0 1 -2.67.34h-9.9v-20.47zm-.57 8.27a3.22 3.22 0 0 0 2-.57 2.15 2.15 0 0 0 .78-1.86 2.36 2.36 0 0 0 -.26-1.17 1.84 1.84 0 0 0 -.69-.72 2.93 2.93 0 0 0 -1-.36 7.36 7.36 0 0 0 -1.16-.1h-4.21v4.74zm.26 8.67a5.73 5.73 0 0 0 1.26-.13 3 3 0 0 0 1.06-.42 2.41 2.41 0 0 0 .73-.82 2.81 2.81 0 0 0 .32-1.34 2.63 2.63 0 0 0 -.89-2.24 3.77 3.77 0 0 0 -2.35-.68h-4.89v5.61z" fill="#fff"/><circle cx="328.94" cy="293.89" fill="#00a651" r="26.71"/><path d="m326.26 289.2a4.49 4.49 0 0 0 -1-1.13 4.54 4.54 0 0 0 -1.36-.76 4.74 4.74 0 0 0 -1.59-.27 5.22 5.22 0 0 0 -2.57.58 4.84 4.84 0 0 0 -1.74 1.58 6.84 6.84 0 0 0 -1 2.24 11.23 11.23 0 0 0 -.3 2.61 10.37 10.37 0 0 0 .3 2.5 6.76 6.76 0 0 0 1 2.19 4.88 4.88 0 0 0 1.72 1.56 5.22 5.22 0 0 0 2.57.59 4.16 4.16 0 0 0 3.22-1.26 5.85 5.85 0 0 0 1.42-3.32h4.35a10.42 10.42 0 0 1 -.89 3.46 8.31 8.31 0 0 1 -1.89 2.63 7.91 7.91 0 0 1 -2.75 1.66 10.09 10.09 0 0 1 -3.46.58 10.55 10.55 0 0 1 -4.22-.82 8.93 8.93 0 0 1 -3.16-2.25 9.72 9.72 0 0 1 -2-3.36 12.27 12.27 0 0 1 -.69-4.16 12.71 12.71 0 0 1 .69-4.25 10 10 0 0 1 2-3.42 9 9 0 0 1 3.16-2.29 10.39 10.39 0 0 1 4.22-.83 10.1 10.1 0 0 1 3.19.49 8.53 8.53 0 0 1 2.69 1.41 7.58 7.58 0 0 1 2 2.31 8 8 0 0 1 1 3.14h-4.34a3.69 3.69 0 0 0 -.57-1.41z" fill="#fff"/><path d="m337.45 304.18v-4.7l-2.84.58v-2.67l2.84-.57v-4.46l-2.84.57v-2.66l2.84-.63v-4.46l1.17-.2v4.43l3.15-.71v-5l1.2-.2v4.95l2.86-.6v2.72l-2.86.57v4.43l2.86-.54v2.66l-2.86.6v4.21l-1.2.23v-4.18l-3.15.74v4.71zm1.17-7.64 3.15-.72v-4.46l-3.15.77z" fill="#fff"/><circle cx="20.97" cy="293.89" fill="#00a99d" r="26.71"/><path d="m20.74 283.92a10.48 10.48 0 0 1 3.67.63 8 8 0 0 1 2.95 1.89 8.77 8.77 0 0 1 1.95 3.15 12.91 12.91 0 0 1 .69 4.41 13.86 13.86 0 0 1 -.58 4.12 8.87 8.87 0 0 1 -1.73 3.26 7.94 7.94 0 0 1 -2.89 2.16 9.66 9.66 0 0 1 -4.07.79h-8.81v-20.41zm-.32 16.65a5.76 5.76 0 0 0 1.89-.31 4.24 4.24 0 0 0 1.63-1 5.26 5.26 0 0 0 1.15-1.91 8.5 8.5 0 0 0 .42-2.86 11.93 11.93 0 0 0 -.3-2.79 5.65 5.65 0 0 0 -1-2.13 4.48 4.48 0 0 0 -1.82-1.36 7.32 7.32 0 0 0 -2.79-.47h-3.2v12.87z" fill="#fff"/><circle cx="144.16" cy="293.89" fill="#0072bc" r="26.71"/><path d="m151.68 284v3.78h-10.78v4.38h9.9v3.49h-9.9v5h11v3.77h-15.5v-20.42z" fill="#fff"/><circle cx="267.35" cy="293.89" fill="#92278f" r="26.71"/><path d="m268.82 284v3.78h-9.88v4.72h8.56v3.5h-8.56v8.44h-4.49v-20.44z" fill="#fff"/><path d="m274.51 304.41v-4.69l-2.83.57v-2.66l2.83-.57v-4.47l-2.83.58v-2.66l2.83-.63v-4.47l1.17-.2v4.44l3.15-.72v-5l1.2-.21v5l2.86-.61v2.72l-2.86.57v4.44l2.86-.54v2.66l-2.86.6v4.2l-1.2.23v-4.17l-3.15.74v4.72zm1.17-7.64 3.15-.71v-4.47l-3.15.78z" fill="#fff"/><circle cx="390.54" cy="293.89" fill="#e11156" r="26.71"/><path d="m388.33 304.3a7.5 7.5 0 0 1 -2.95.61 10.55 10.55 0 0 1 -4.22-.81 9.28 9.28 0 0 1 -3.16-2.25 9.87 9.87 0 0 1 -2-3.36 12.31 12.31 0 0 1 -.69-4.16 12.67 12.67 0 0 1 .69-4.25 10.15 10.15 0 0 1 2-3.42 9 9 0 0 1 3.16-2.29 10.39 10.39 0 0 1 4.22-.83 10.07 10.07 0 0 1 3.05.47 8.77 8.77 0 0 1 2.66 1.39 7.5 7.5 0 0 1 2 2.26 7.67 7.67 0 0 1 .95 3.09h-4.29a4.35 4.35 0 0 0 -1.55-2.58 4.5 4.5 0 0 0 -2.78-.85 5.22 5.22 0 0 0 -2.57.58 4.84 4.84 0 0 0 -1.72 1.58 6.75 6.75 0 0 0 -1 2.24 11.23 11.23 0 0 0 -.3 2.61 10.43 10.43 0 0 0 .3 2.5 6.76 6.76 0 0 0 1 2.19 4.88 4.88 0 0 0 1.72 1.56 5.22 5.22 0 0 0 2.57.58 4.39 4.39 0 0 0 4.87-4.4h-4.52v-3.35h8.58v11h-2.86l-.46-2.32a6.74 6.74 0 0 1 -2.7 2.21z" fill="#fff"/><path d="m401 304.46v-4.7l-2.84.57v-2.66l2.84-.57v-4.46l-2.84.57v-2.66l2.84-.63v-4.46l1.17-.2v4.43l3.15-.71v-5l1.2-.2v5l2.86-.6v2.72l-2.86.57v4.43l2.86-.54v2.64l-2.86.6v4.21l-1.2.23v-4.18l-3.15.74v4.72zm1.17-7.64 3.15-.72v-4.46l-3.15.77z" fill="#fff"/><circle cx="308.05" cy="240.45" fill="#f5832b" r="26.71"/><path d="m303.56 231.11 7.64 20.42h-4.66l-1.54-4.53h-7.64l-1.61 4.54h-4.52l7.77-20.43zm.26 12.53-2.57-7.5h-.06l-2.66 7.5z" fill="#fff"/><path d="m316.07 251.53v-4.69l-2.83.57v-2.66l2.83-.57v-4.46l-2.83.57v-2.66l2.83-.63v-4.46l1.17-.2v4.43l3.15-.72v-5l1.2-.2v5l2.86-.6v2.72l-2.86.57v4.43l2.86-.54v2.57l-2.86.6v4.21l-1.2.23v-4.14l-3.15.74v4.72zm1.17-7.63 3.15-.72v-4.46l-3.15.77z" fill="#fff"/><circle cx=".08" cy="240.45" fill="#fff200" r="26.71"/><path d="m2.27 230.34a12.83 12.83 0 0 1 2.66.26 5.72 5.72 0 0 1 2.06.84 4 4 0 0 1 1.33 1.56 5.55 5.55 0 0 1 .47 2.4 4.48 4.48 0 0 1 -.7 2.58 5.12 5.12 0 0 1 -2.09 1.69 4.89 4.89 0 0 1 2.81 1.9 5.68 5.68 0 0 1 .93 3.28 5.6 5.6 0 0 1 -.6 2.67 5.25 5.25 0 0 1 -1.61 1.85 7.35 7.35 0 0 1 -2.32 1.06 10.88 10.88 0 0 1 -2.68.34h-9.9v-20.43zm-.58 8.27a3.25 3.25 0 0 0 2-.57 2.2 2.2 0 0 0 .77-1.86 2.32 2.32 0 0 0 -.28-1.18 1.93 1.93 0 0 0 -.68-.71 3.07 3.07 0 0 0 -1-.36 6.26 6.26 0 0 0 -1.16-.1h-4.2v4.78zm.31 8.67a5.73 5.73 0 0 0 1.26-.13 3.24 3.24 0 0 0 1.06-.43 2.12 2.12 0 0 0 .73-.81 2.87 2.87 0 0 0 .27-1.32 2.63 2.63 0 0 0 -.89-2.25 3.76 3.76 0 0 0 -2.43-.67h-4.9v5.61z" fill="#fff"/><circle cx="431.25" cy="240.45" fill="#87c540" r="26.71"/><circle cx="122.42" cy="240.45" fill="#00a651" r="26.71"/><path d="m119.74 235.76a4.67 4.67 0 0 0 -1-1.13 5 5 0 0 0 -1.36-.76 4.74 4.74 0 0 0 -1.59-.27 5.22 5.22 0 0 0 -2.57.59 4.9 4.9 0 0 0 -1.72 1.57 6.9 6.9 0 0 0 -1 2.25 11.21 11.21 0 0 0 -.3 2.6 10.45 10.45 0 0 0 .3 2.51 6.76 6.76 0 0 0 1 2.19 4.94 4.94 0 0 0 1.72 1.55 5.12 5.12 0 0 0 2.57.59 4.16 4.16 0 0 0 3.22-1.26 5.88 5.88 0 0 0 1.42-3.32h4.35a10.73 10.73 0 0 1 -.89 3.47 8.43 8.43 0 0 1 -1.89 2.66 8.07 8.07 0 0 1 -2.75 1.66 10.09 10.09 0 0 1 -3.46.57 10.38 10.38 0 0 1 -4.22-.82 9 9 0 0 1 -3.16-2.24 10 10 0 0 1 -2-3.36 12.58 12.58 0 0 1 -.68-4.17 13 13 0 0 1 .68-4.25 10.37 10.37 0 0 1 2-3.42 9 9 0 0 1 3.16-2.28 10.22 10.22 0 0 1 4.22-.83 10.39 10.39 0 0 1 3.19.48 8.77 8.77 0 0 1 2.69 1.42 7.81 7.81 0 0 1 2 2.3 8.14 8.14 0 0 1 1 3.15h-4.35a3.51 3.51 0 0 0 -.58-1.45z" fill="#fff"/><path d="m130.93 250.74v-4.69l-2.84.57v-2.62l2.84-.57v-4.47l-2.84.58v-2.66l2.84-.63v-4.47l1.17-.2v4.42l3.15-.72v-5l1.2-.2v4.92l2.86-.61v2.72l-2.86.57v4.44l2.86-.54v2.66l-2.86.6v4.2l-1.2.23v-4.17l-3.15.74v4.72zm1.17-7.64 3.15-.71v-4.47l-3.15.78z" fill="#fff"/><circle cx="246.46" cy="240.45" fill="#00aeef" r="26.71"/><path d="m240.16 231a10.54 10.54 0 0 1 3.68.63 8 8 0 0 1 2.95 1.89 8.93 8.93 0 0 1 1.94 3.14 12.69 12.69 0 0 1 .7 4.44 14.2 14.2 0 0 1 -.57 4.12 9 9 0 0 1 -1.73 3.26 8 8 0 0 1 -2.89 2.16 9.71 9.71 0 0 1 -4.08.79h-8.81v-20.43zm-.31 16.65a5.85 5.85 0 0 0 1.89-.31 4.23 4.23 0 0 0 1.63-1 5.34 5.34 0 0 0 1.14-1.9 8.24 8.24 0 0 0 .43-2.86 11.93 11.93 0 0 0 -.3-2.79 5.51 5.51 0 0 0 -1-2.13 4.33 4.33 0 0 0 -1.82-1.36 7.12 7.12 0 0 0 -2.78-.47h-3.21v12.87z" fill="#fff"/><path d="m255.64 251.44v-4.69l-2.83.57v-2.66l2.83-.57v-4.47l-2.83.57v-2.66l2.83-.63v-4.46l1.17-.2v4.43l3.19-.67v-5l1.2-.2v4.95l2.86-.6v2.72l-2.86.57v4.44l2.86-.55v2.66l-2.86.6v4.21l-1.2.2v-4.2l-3.15.75v4.72zm1.17-7.64 3.15-.72v-4.46l-3.15.77z" fill="#fff"/><circle cx="369.65" cy="240.45" fill="#2e3192" r="26.71"/><path d="m377.35 230.24v3.76h-9.87v4.73h8.52v3.49h-8.56v8.44h-4.44v-20.42z" fill="#fff"/><circle cx="60.82" cy="240.45" fill="#92278f" r="26.71"/><path d="m62.29 230.55v3.78h-9.87v4.72h8.58v3.49h-8.58v8.46h-4.49v-20.45z" fill="#fff"/><path d="m68 251v-4.69l-2.83.57v-2.68l2.83-.58v-4.46l-2.83.57v-2.66l2.83-.63v-4.44l1.17-.2v4.43l3.15-.71v-5l1.2-.2v5l2.86-.6v2.72l-2.86.57v4.44l2.86-.55v2.66l-2.86.6v4.21l-1.2.23v-4.18l-3.15.74v4.73zm1.17-7.64 3.15-.72v-4.46l-3.15.77z" fill="#fff"/><circle cx="184.02" cy="240.45" fill="#e11156" r="26.71"/><g fill="#fff"><path d="m181.81 250.86a7.51 7.51 0 0 1 -2.95.62 10.38 10.38 0 0 1 -4.22-.82 9 9 0 0 1 -3.16-2.24 10 10 0 0 1 -2-3.37 12.23 12.23 0 0 1 -.69-4.16 12.76 12.76 0 0 1 .69-4.25 10.35 10.35 0 0 1 2-3.42 9 9 0 0 1 3.16-2.28 10.22 10.22 0 0 1 4.22-.83 9.77 9.77 0 0 1 3 .47 8.53 8.53 0 0 1 2.66 1.38 7.67 7.67 0 0 1 2 2.27 7.58 7.58 0 0 1 .95 3.09h-4.3a4.26 4.26 0 0 0 -1.54-2.58 4.51 4.51 0 0 0 -2.78-.86 5.22 5.22 0 0 0 -2.57.59 4.81 4.81 0 0 0 -1.72 1.57 6.9 6.9 0 0 0 -1 2.25 11.21 11.21 0 0 0 -.3 2.6 10.45 10.45 0 0 0 .3 2.51 6.62 6.62 0 0 0 1 2.18 4.88 4.88 0 0 0 1.72 1.56 5.22 5.22 0 0 0 2.57.59 4.39 4.39 0 0 0 4.87-4.41h-4.52v-3.32h8.58v11h-2.86l-.46-2.32a6.74 6.74 0 0 1 -2.65 2.18z"/><path d="m194.51 251v-4.69l-2.83.57v-2.66l2.83-.57v-4.45l-2.83.58v-2.66l2.83-.63v-4.49l1.18-.2v4.44l3.15-.72v-5l1.2-.2v4.95l2.86-.6v2.72l-2.9.61v4.44l2.86-.55v2.67l-2.86.6v4.2l-1.2.23v-4.18l-3.15.75v4.72zm1.18-7.64 3.15-.71v-4.45l-3.15.77z"/></g></svg>