<?xml version="1.0" standalone="no"?>
<!DOCTYPE svg PUBLIC "-//W3C//DTD SVG 20010904//EN"
 "http://www.w3.org/TR/2001/REC-SVG-20010904/DTD/svg10.dtd">
<svg version="1.0" xmlns="http://www.w3.org/2000/svg"
 width="700.000000pt" height="700.000000pt" viewBox="0 0 700.000000 700.000000"
 preserveAspectRatio="xMidYMid meet">
<metadata>
Created by potrace 1.14, written by Peter Selinger 2001-2017
</metadata>
<g transform="translate(0.000000,700.000000) scale(0.100000,-0.100000)"
fill="#000000" stroke="none">
<path d="M3448 6245 c-2 -2 -26 -5 -53 -8 -66 -6 -183 -47 -253 -89 -77 -45
-192 -161 -232 -233 -18 -33 -35 -62 -36 -64 -2 -2 -26 11 -54 28 -51 32 -164
74 -230 86 -19 4 -76 7 -127 7 -345 -1 -635 -261 -679 -612 -9 -69 -9 -89 -1
-120 6 -25 6 -25 -50 -21 -245 15 -514 -144 -630 -373 -58 -115 -78 -205 -76
-342 2 -128 57 -299 114 -349 19 -18 18 -19 -33 -48 -233 -132 -364 -364 -353
-627 5 -129 33 -226 98 -340 42 -74 168 -198 239 -235 32 -17 57 -32 55 -35
-1 -3 -21 -43 -44 -90 -53 -106 -73 -183 -74 -285 -1 -101 6 -151 37 -245 44
-132 155 -281 264 -353 106 -70 213 -106 345 -114 55 -3 101 -6 102 -7 1 -1 3
-36 4 -77 10 -379 335 -680 719 -665 115 5 188 24 293 77 43 22 81 39 82 37 1
-2 10 -17 19 -35 89 -176 282 -315 481 -348 111 -19 316 -3 352 27 7 6 13 8
13 4 0 -3 31 9 69 29 69 34 163 104 208 154 33 37 108 153 106 163 -5 15 16 8
64 -22 80 -49 196 -82 304 -88 293 -15 542 134 667 399 50 105 78 262 60 329
l-7 25 70 -3 c95 -5 205 21 309 71 68 33 102 58 170 127 99 98 155 196 189
325 21 79 29 224 16 290 -13 63 -56 176 -86 225 -17 28 -30 52 -28 53 2 2 18
9 34 17 53 26 98 62 171 135 253 258 259 671 14 938 -78 84 -178 157 -219 158
-14 0 -21 3 -14 6 19 7 71 104 100 185 32 90 42 237 23 341 -43 243 -220 451
-450 533 -63 22 -176 40 -236 39 l-52 -2 1 61 c2 140 -35 261 -116 383 -194
292 -596 392 -903 223 l-72 -40 -32 56 c-114 202 -329 330 -572 339 -42 2 -78
2 -80 0z m537 -972 c-8 -27 -15 -52 -15 -57 0 -5 -3 -7 -6 -3 -5 5 -1 23 21
95 3 6 7 12 9 12 3 0 -1 -21 -9 -47z m-35 -128 c-7 -25 -15 -44 -17 -42 -2 3
2 25 9 50 6 26 14 44 16 42 3 -2 -1 -25 -8 -50z m-23 -77 c-3 -8 -6 -5 -6 6
-1 11 2 17 5 13 3 -3 4 -12 1 -19z m-16 -59 c-5 -13 -10 -19 -10 -12 -1 15 10
45 15 40 3 -2 0 -15 -5 -28z m-14 -51 c-3 -8 -6 -5 -6 6 -1 11 2 17 5 13 3 -3
4 -12 1 -19z m-740 -170 c-3 -7 -5 -2 -5 12 0 14 2 19 5 13 2 -7 2 -19 0 -25z
m-910 -350 c-3 -8 -6 -5 -6 6 -1 11 2 17 5 13 3 -3 4 -12 1 -19z m-27 -108
c-12 -33 -26 -62 -30 -65 -4 -3 4 26 19 64 14 38 28 68 30 65 2 -2 -7 -31 -19
-64z m859 -65 c132 -247 170 -279 297 -249 74 18 185 18 244 0 53 -16 86 -12
120 12 23 17 161 216 202 291 15 28 19 30 41 20 l25 -11 -50 -82 c-91 -147
-128 -224 -128 -267 0 -49 10 -68 70 -139 25 -30 57 -72 70 -92 26 -40 50 -56
90 -61 39 -6 212 34 570 133 301 83 369 102 420 114 8 2 56 16 107 30 51 14
114 26 140 26 l48 0 -51 -24 c-28 -13 -66 -27 -85 -31 -19 -3 -61 -15 -94 -25
-33 -10 -72 -21 -85 -24 -14 -3 -56 -15 -95 -26 -38 -12 -77 -23 -85 -25 -18
-5 -171 -48 -355 -100 -71 -20 -141 -38 -154 -41 -14 -3 -72 -19 -130 -36
-155 -45 -174 -66 -185 -208 -3 -30 -8 -86 -11 -125 -6 -63 -4 -72 14 -92 25
-26 90 -68 219 -142 50 -29 92 -54 92 -56 0 -13 -14 -35 -21 -35 -5 0 -42 19
-82 42 -141 81 -231 122 -268 122 -29 1 -49 -10 -95 -48 -72 -59 -144 -101
-244 -141 -102 -41 -103 -44 -104 -270 l-2 -180 -27 -3 -27 -3 -1 173 c0 95
-3 184 -5 197 -7 37 -29 57 -92 82 -31 12 -88 38 -126 57 -37 19 -81 35 -98
34 -50 -1 -128 -70 -528 -473 -212 -212 -407 -401 -433 -418 l-49 -31 23 32
c13 18 64 74 113 124 259 259 763 779 773 798 21 36 15 84 -21 164 -18 43 -38
93 -45 113 -14 43 -43 73 -92 93 -28 12 -74 15 -207 13 l-170 -2 -4 27 c-3 15
-1 25 3 22 4 -2 83 -5 176 -5 229 -1 272 17 302 129 17 60 52 122 117 207 90
118 90 122 -45 350 -70 118 -70 120 -48 131 12 7 22 12 23 11 0 -1 20 -38 43
-82z m-899 -19 c0 -2 -8 -10 -17 -17 -16 -13 -17 -12 -4 4 13 16 21 21 21 13z
m2735 -96 c10 -11 16 -20 13 -20 -3 0 -13 9 -23 20 -10 11 -16 20 -13 20 3 0
13 -9 23 -20z m112 -692 c-3 -8 -6 -5 -6 6 -1 11 2 17 5 13 3 -3 4 -12 1 -19z
m10 -70 c-3 -8 -6 -5 -6 6 -1 11 2 17 5 13 3 -3 4 -12 1 -19z m-2702 -198 c-3
-5 -12 -10 -18 -10 -7 0 -6 4 3 10 19 12 23 12 15 0z m-207 -370 c27 -28 72
-96 72 -107 0 -4 -12 10 -26 32 -15 22 -52 67 -83 100 -31 33 -40 46 -21 30
19 -17 45 -41 58 -55z m2622 -575 c13 -14 21 -25 18 -25 -2 0 -15 11 -28 25
-13 14 -21 25 -18 25 2 0 15 -11 28 -25z m-900 -30 c0 -5 -5 -3 -10 5 -5 8
-10 20 -10 25 0 6 5 3 10 -5 5 -8 10 -19 10 -25z m7 -37 c-3 -8 -6 -5 -6 6 -1
11 2 17 5 13 3 -3 4 -12 1 -19z m973 -13 c14 -19 14 -19 -2 -6 -10 7 -18 18
-18 24 0 6 1 8 3 6 1 -2 9 -13 17 -24z m-951 -45 c0 -10 -3 -8 -9 5 -12 27
-12 43 0 25 5 -8 9 -22 9 -30z m9 -51 c-3 -8 -7 -3 -11 10 -4 17 -3 21 5 13 5
-5 8 -16 6 -23z m31 -104 c0 -11 -7 0 -15 25 -7 25 -13 50 -13 55 1 18 27 -59
28 -80z m19 -80 c0 -16 -2 -15 -8 5 -11 34 -11 60 0 35 5 -11 8 -29 8 -40z
m26 -95 c4 -24 3 -29 -3 -15 -4 11 -11 36 -15 55 -4 24 -3 29 3 15 4 -11 11
-36 15 -55z m-2007 38 c-3 -8 -6 -5 -6 6 -1 11 2 17 5 13 3 -3 4 -12 1 -19z
m2031 -143 c0 -16 -2 -15 -8 5 -4 14 -8 34 -8 45 0 16 2 15 8 -5 4 -14 8 -34
8 -45z"/>
</g>
</svg>
