<?xml version="1.0" encoding="utf-8"?>
<!-- Generator: Adobe Illustrator 15.1.0, SVG Export Plug-In . SVG Version: 6.00 Build 0)  -->
<!DOCTYPE svg PUBLIC "-//W3C//DTD SVG 1.1//EN" "http://www.w3.org/Graphics/SVG/1.1/DTD/svg11.dtd">
<svg version="1.1" id="svg2" xmlns:svg="http://www.w3.org/2000/svg"
	 xmlns="http://www.w3.org/2000/svg" xmlns:xlink="http://www.w3.org/1999/xlink" x="0px" y="0px" width="500px" height="255px"
	 viewBox="0 0 500 255" enable-background="new 0 0 500 255" xml:space="preserve">
<g id="layer1" transform="translate(-125,-404.86218)">
	<path id="path2480" fill="#9C9C9C" stroke="#1B1B1B" stroke-miterlimit="6" d="M248.599,576.716
		c-31.647,15.417-46.259,22.331-85.027,39.894c19.285-21.204,39.446-43.555,58.428-65.636l-77.705-42.509l83.506,13.93
		l-18.271-59.74l42.984,38.913l54.95-77.342l-18.171,104.264l55.664-3.277l-50.614,31.103L327,600.815l-51.578-12.708l-21.547,46.54
		L248.599,576.716z"/>
	<path id="path2478" fill="#9C9C9C" stroke="#1B1B1B" stroke-miterlimit="6" d="M509,626.239c-1.375-0.981-3.063-2.48-3.752-3.33
		c-2.943-3.635-7.394-14.498-11.283-27.547c-2.296-7.699-4.718-14.574-5.381-15.275c-0.965-1.02-3.003,0.369-10.146,6.914
		c-9.688,8.875-18.525,15.075-24.127,16.924c-1.949,0.644-5.851,0.948-8.668,0.678c-4.685-0.45-5.536-0.952-9.923-5.85
		C428.89,591.126,425,582.908,425,576.104c0-11.9,4.828-16.15,29.353-25.832c15.08-5.954,18.125-9.107,11.049-11.442
		c-2.004-0.661-13.851-1.535-26.75-1.972c-24.274-0.823-29.65-1.723-35.595-5.955c-4.073-2.9-6.057-6.947-6.057-12.356
		c0-12.213,11.053-14.281,46.399-8.68c20.776,3.292,30.184,3.751,33.104,1.616c1.782-1.303,1.794-1.519,0.216-3.928
		c-0.919-1.402-8.46-7.832-16.758-14.289c-16.246-12.642-21.637-18.038-25.036-25.06c-4.392-9.072-0.61-17.939,10.144-23.786
		c4.396-2.39,6.941-3.022,13.566-3.37c7.502-0.394,8.573-0.199,13.401,2.428c6.916,3.764,10.25,7.874,17.464,21.527
		c3.3,6.246,6.45,11.356,7,11.356s3.855-5.802,7.345-12.893c7.295-14.822,13.165-21.725,20.052-23.58
		c5.377-1.448,10.354-0.455,13.269,2.647c3.343,3.557,3.734,15.401,0.938,28.325c-7.068,32.67-7.41,39.056-2.229,41.629
		c3.945,1.959,7.815-0.274,17.04-9.833c9.763-10.118,16.987-14.466,22.277-13.408c5.412,1.083,11.526,5.397,16.118,11.376
		c6.312,8.217,8.689,13.375,8.689,18.851c0,4.14-0.452,5.125-3.822,8.331c-4.412,4.198-10.726,6.495-23.675,8.613
		c-18.739,3.065-21.638,3.73-23.768,5.455c-2.037,1.649-2.086,1.967-0.712,4.588c0.812,1.549,7.156,8.732,14.099,15.961
		c16.806,17.502,20.641,24.129,17.489,30.222c-1.57,3.036-5.843,5.216-10.226,5.216c-3.461,0-10.666-2.642-22.386-8.208
		c-18.58-8.825-20.133-8.345-11.999,3.71c10.685,15.834,12.265,22.434,6.702,27.996c-4.164,4.163-8.765,5.533-20.703,6.162
		C512.954,627.947,511.117,627.751,509,626.239z"/>
</g>
</svg>
