<svg id="Layer_2" data-name="Layer 2" xmlns="http://www.w3.org/2000/svg" viewBox="0 0 198.43 198.43">
  <g>
    <g>
      <path d="M169.47,83.62c-4.17-3.19-3.11-2.4-15.62.95,19.35-4.82,26.67,24.44,7.29,29.27-5.41,1.35-15.35-2.15,4.62,3.2A19.65,19.65,0,0,0,169.47,83.62Z" fill="#ebebec"/>
      <path d="M139.22,59.22c14.36-13.82,35.29,7.89,20.9,21.73-4,3.86-14.26,5.76,5.64.44,9.14-12.87-.08-31-16.07-31C147.47,50.41,149.09,49.34,139.22,59.22Z" fill="#ebebec"/>
      <path d="M113.87,153.83c4.82,19.36-24.44,26.68-29.27,7.31-1.35-5.41,2.17-15.38-3.2,4.61,7,15.23,28.74,15.09,35.66,0Z" fill="#231f20"/>
      <path d="M59.24,139.2C44.89,153,23.93,131.35,38.3,117.5c4-3.88,14.34-5.8-5.6-.46-9.62,13.55,1.09,32.36,17.81,30.89Z" fill="#ebebec"/>
      <path d="M139.22,139.2c13.82,14.36-7.88,35.29-21.72,20.91-3.91-4.05-5.8-14.36-.44,5.64a19.68,19.68,0,0,0,30.8-13.51C148.52,147.17,148.46,148.44,139.22,139.2Z" fill="#ebebec"/>
      <path d="M153.85,113.85c19.16,5.52,10.83,34.51-8.35,29-5.33-1.54-12.16-9.51,2.44,5.09,16.95,1.49,27.29-17.56,17.82-30.88Z" fill="#231f20"/>
      <path d="M84.59,153.83c-5.52,19.16-34.51,10.83-29-8.35,1.54-5.33,9.51-12.16-5.1,2.45C48.94,164.71,68,175.26,81.4,165.75Z" fill="#ebebec"/>
      <path d="M84.6,44.58C79.78,25.24,109,17.92,113.86,37.29c1.35,5.42-2.16,15.34,3.2-4.62-6.94-15.2-28.72-15.11-35.65,0Z" fill="#ebebec"/>
      <path d="M113.86,44.58c5.52-19.16,34.51-10.84,29,8.34-1.55,5.4-9.48,12.14,5.09-2.43,1.57-16.77-17.43-27.36-30.88-17.82Z" fill="#231f20"/>
      <path d="M59.24,59.22C45.41,44.85,67.12,23.92,81,38.31c3.85,4,5.77,14.28.45-5.63A19.66,19.66,0,0,0,50.6,46.18C49.92,51.31,50.05,50,59.24,59.22Z" fill="#231f20"/>
      <path d="M44.6,113.85C25.25,118.66,18,89.39,37.33,84.58c5.37-1.33,15.17,2.1-4.2-3.08a1.22,1.22,0,0,0-.84.08c-14.77,7.15-14.54,28.21,0,35.27C32.86,117.12,32.23,117.16,44.6,113.85Z" fill="#231f20"/>
      <path d="M45.16,84.51C26,79,33.78,50.06,53,55.6c5.42,1.56,12.18,9.53-2.45-5.11A19.67,19.67,0,0,0,30.6,77.6C32.61,82.43,32.56,81.39,45.16,84.51Z" fill="#ebebec"/>
    </g>
    <g>
      <path d="M85.09,151.28c4.63-16.37,4.85-23.6,13.32-24.26,0-15.54.68-10.29-6.86-14.69-3.79-2.22-3.39-1-28.39,24A15.08,15.08,0,0,1,85.09,151.28Z" fill="#ededee"/>
      <path d="M114.18,99.32c0,8.66-4.06,5.51,9,13.05a9.34,9.34,0,0,1,10.44-4c38.24,10.11,1.7,5.09,10-14.91,3.52-8.49,19.56-10.53-26.42,1.8A4.1,4.1,0,0,0,114.18,99.32Z" fill="#ededee"/>
      <path d="M113.9,154c.1,0,0,0-.11-.43A3,3,0,0,1,113.9,154Z" fill="#ededee"/>
      <path d="M122.46,113.62c-13.31-7.69-9-5.21-15.81-1.26-7.49,4.31-6.81-.81-6.81,14.65,8.66.56,9,8,14,26.57C110.15,140,125.56,129.29,137,137.33,125.22,125.19,118.89,121.36,122.46,113.62Z" fill="#ededee"/>
      <path d="M139,59.41l-.07.08Z" fill="#ededee"/>
      <path d="M139.19,59.26l-.16.15Z" fill="#ededee"/>
      <path d="M136.64,77.61c-6.47-11.19,4.18-19.9,1.91-17.69-12.47,12.22-16.68,20.26-25,15.88-4,7-6.83,9.77-3.74,12.87,7,7-3.49,8,39.5-3.53A15,15,0,0,1,136.64,77.61Z" fill="#ededee"/>
      <path d="M113.8,44.84c-4,14.9-25.18,14.83-29.14,0a14.92,14.92,0,0,1,.51,3.63c4,13.55,8.72,21.58.87,26.76C89.93,82,91,86,95.23,84.78c11.11-3.07,7.43,7,17.07-9.73C105.66,70.27,108.61,64.4,113.8,44.84Z" fill="#ededee"/>
      <path d="M84.59,44.55c-.1,0,0-.06.07.29C84.63,44.75,84.62,44.65,84.59,44.55Z" fill="#ededee"/>
      <path d="M113.87,44.61h0C113.77,44.92,113.78,44.91,113.87,44.61Z" fill="#ededee"/>
      <path d="M64.1,108.79c-36.49,9.94-2.39-3.65-.33,18.14.83,8.78-11.74,18.45,21.78-15.06,2.77-2.76-.11-5.33-1-8.72C83.46,98.78,78.21,100,71.13,100A9.35,9.35,0,0,1,64.1,108.79Z" fill="#ededee"/>
      <path d="M73.91,74.07c-27.79-27.55,1.57-4.76-16.28,8.21C49,88.53,40.43,82.2,47.5,85.63,63,90,70.29,90.22,71.09,98.6c8.65,0,12.38,1,13.49-3.18,1.81-6.82,7.07-7.6,4.67-11.75l-4.47-7.74A9.42,9.42,0,0,1,73.91,74.07Z" fill="#ededee"/>
      <path d="M44.43,84.51c0,.1-.11,0,.43.13Z" fill="#ededee"/>
      <path d="M113.37,47.2c-4.33,16.39-8,22.86-1.07,27.85,4.9,3,9.24,2.1,12.29-.86,15.12-15.47,14.33-14.65,14.4-14.75C129.1,69.26,111.93,61.28,113.37,47.2Z" fill="#231f20"/>
      <path d="M59.18,59.14c-.79-.82-1.31-1.59-.62-.53C59.35,59.28,59.08,59.24,59.18,59.14Z" fill="#231f20"/>
      <path d="M86,75.23a9.19,9.19,0,0,0,4-10.28c-9.54-34.82.58-11.89-12.13-3.9-3.41,3.75-12.64,4.21-18.5-1.64C72.63,72.65,76.61,80.5,86,75.23Z" fill="#231f20"/>
      <path d="M59.18,59.14l0,0C59.5,59.48,59.52,59.51,59.18,59.14Z" fill="#231f20"/>
      <path d="M44.37,113.9c-1.09.25-3.36.49-1.09.4C44.42,113.86,44.39,114,44.37,113.9Z" fill="#231f20"/>
      <path d="M44.37,113.9c0,.1-.07,0,.49-.12Z" fill="#231f20"/>
      <path d="M71.09,98.6C70.29,90,61.55,89.23,46.65,85c11.64,5.62,11.13,25.3-1.79,28.77C61.65,109.29,71.37,109.74,71.09,98.6Z" fill="#231f20"/>
      <path d="M84.52,154.06c-.27.91-.34.71-.25,1.5C84.48,154,84.62,154.07,84.52,154.06Z" fill="#231f20"/>
      <path d="M84.52,154.06c.1,0,0,.09.14-.48C84.62,153.75,84.57,153.9,84.52,154.06Z" fill="#231f20"/>
      <path d="M99.84,127c-10.44-.67-11,10.68-15.18,26.57,3.79-14.1,23.53-15.14,28.69-1.38C108.54,134.49,108.37,127.57,99.84,127Z" fill="#231f20"/>
      <path d="M153.88,113.86c.69.2.9.31.5.1C153.78,113.83,153.9,113.76,153.88,113.86Z" fill="#231f20"/>
      <path d="M139.28,139.28c.59.64.45.54.82.7C139.06,139.12,139.38,139.18,139.28,139.28Z" fill="#231f20"/>
      <path d="M153.88,113.86h0C153.53,113.76,153.48,113.75,153.88,113.86Z" fill="#231f20"/>
      <path d="M122.46,113.62c4.6-9.92,14.57-4.24,31.14.16-14.75-4-25.51,14.29-14.57,25.23C126.44,126.43,118.71,121.73,122.46,113.62Z"/>
      <path d="M139.28,139.28h0C138.93,138.91,139,138.94,139.28,139.28Z" fill="#231f20"/>
      <path d="M84.05,44.7c.07.21-.12-.44,1.12,3.77C85.16,47.82,85.05,44.44,84.05,44.7Z" fill="#ededee"/>
      <path d="M59.06,59.25c.11-.11.23,0-.5-.64C58.62,58.71,59,59.36,59.06,59.25Z" fill="#231f20"/>
      <path d="M59.06,59.25c.11-.11.23,0-.5-.64C58.62,58.71,59,59.36,59.06,59.25Z" fill="#eb0d8c"/>
      <path d="M59.16,59.16c-.16.16-.43-.17,1.81,2.05A14.55,14.55,0,0,0,59.16,59.16Z" fill="#231f20"/>
      <path d="M59.16,59.16c-.16.16-.43-.17,1.81,2.05A14.55,14.55,0,0,0,59.16,59.16Z" fill="#eb0d8c"/>
      <path d="M44.37,84.75l3.13.88C47.22,85.5,44.51,84.25,44.37,84.75Z" fill="#ededee"/>
      <path d="M44.37,84.75l3.13.88C47.22,85.5,44.51,84.25,44.37,84.75Z" fill="#922a8e"/>
      <path d="M44.39,114.13c.1,0,.28-.38-1.11.17A4.59,4.59,0,0,0,44.39,114.13Z" fill="#231f20"/>
      <path d="M44.39,114.13c.1,0,.28-.38-1.11.17A4.59,4.59,0,0,0,44.39,114.13Z" fill="#2e3690"/>
      <path d="M44.86,113.78c-1.52.41.61.06,2.48-.45A14.82,14.82,0,0,0,44.86,113.78Z" fill="#231f20"/>
      <path d="M44.86,113.78c-1.52.41.61.06,2.48-.45A14.82,14.82,0,0,0,44.86,113.78Z" fill="#2e3690"/>
      <path d="M84.46,154.05c-.11,0-.21-.17-.22.84C84.28,154.79,84.56,154.08,84.46,154.05Z" fill="#231f20"/>
      <path d="M84.46,154.05c-.11,0-.21-.17-.22.84C84.28,154.79,84.56,154.08,84.46,154.05Z" fill="#0d73bb"/>
      <path d="M85.09,151.28c-.88,3.07-.84,2.72-.57,2.78A14.59,14.59,0,0,0,85.09,151.28Z" fill="#231f20"/>
      <path d="M85.09,151.28c-.88,3.07-.84,2.72-.57,2.78A14.59,14.59,0,0,0,85.09,151.28Z" fill="#0d73bb"/>
      <path d="M113.35,152.2c.32,1.16.76,2.55.45,1.38Q113.61,152.88,113.35,152.2Z" fill="#ededee"/>
      <path d="M113.35,152.2c.32,1.16.76,2.55.45,1.38Q113.61,152.88,113.35,152.2Z" fill="#2bace2"/>
      <path d="M139.19,139.38c-.1.09.49.4.59.45C139.23,139.18,139.3,139.26,139.19,139.38Z" fill="#231f20"/>
      <path d="M139.19,139.38c-.1.09.49.4.59.45C139.23,139.18,139.3,139.26,139.19,139.38Z" fill="#00a99d"/>
      <path d="M137,137.33c2.32,2.38,2,2.15,2.26,1.95A16.35,16.35,0,0,0,137,137.33Z" fill="#231f20"/>
      <path d="M137,137.33c2.32,2.38,2,2.15,2.26,1.95A16.35,16.35,0,0,0,137,137.33Z" fill="#00a99d"/>
      <path d="M153.89,113.85c.58.15.72.18,0-.1C153.9,113.78,153.9,113.81,153.89,113.85Z" fill="#88c541"/>
      <path d="M151.73,113.13c2.27,1,2.74.73,1.62.43Z" fill="#88c541"/>
      <path d="M139,59.49l-.22.24Z" fill="#fcee23"/>
      <path d="M139,59.44c.23-.27.27-.11.17-.21Z" fill="#f89521"/>
      <path d="M113.37,47.2c.81-3.09.54-2.79.43-2.36A14.81,14.81,0,0,0,113.37,47.2Z" fill="#f89521"/>
    </g>
    <g id="круги">
      <path d="M84.66,44.84c-5.16-19.26,24-27.09,29.13-7.81S89.83,64.11,84.66,44.84Z" fill="#ef372f"/>
      <path d="M59.42,59.41C45.33,45.3,66.64,24,80.75,38.09S73.57,73.55,59.42,59.41Z" fill="#e21a58"/>
      <path d="M44.86,84.64C25.6,79.48,33.38,50.35,52.67,55.51S64.14,89.81,44.86,84.64Z" fill="#eb0d8c"/>
      <path d="M44.86,113.78c-19.26,5.16-27.09-24-7.81-29.13S64.12,108.61,44.86,113.78Z" fill="#922a8e"/>
      <path d="M59.42,139C45.32,153.11,24,131.8,38.1,117.68S73.55,124.89,59.42,139Z" fill="#2e3690"/>
      <path d="M84.66,153.58c-5.16,19.26-34.3,11.48-29.13-7.81S89.83,134.29,84.66,153.58Z" fill="#0d73bb"/>
      <path d="M113.8,153.58c5.15,19.26-24,27.09-29.13,7.8S108.63,134.29,113.8,153.58Z" fill="#2bace2"/>
      <path d="M139,139c14.1,14.1-7.21,35.44-21.32,21.32S124.91,124.89,139,139Z" fill="#00a99d"/>
      <path d="M153.6,113.78c19.26,5.16,11.48,34.3-7.81,29.13S134.31,108.61,153.6,113.78Z" fill="#06a64f"/>
      <path d="M153.6,84.64c19.26-5.15,27.08,24,7.8,29.13S134.34,89.8,153.6,84.64Z" fill="#88c541"/>
      <path d="M139,59.41c14.1-14.1,35.44,7.21,21.32,21.32S124.89,73.55,139,59.41Z" fill="#fcee23"/>
      <path d="M113.8,44.84c5.16-19.26,34.29-11.48,29.13,7.81S108.63,64.13,113.8,44.84Z" fill="#f89521"/>
    </g>
  </g>
</svg>
