<svg id="circle-of-tones" xmlns="http://www.w3.org/2000/svg" xmlns:xlink="http://www.w3.org/1999/xlink" viewBox="0 0 364.73 314.83">
  <defs>
    <style>
      .cls-1 {
        fill: none;
      }

      .cls-2 {
        clip-path: url(#clip-path);
      }

      .cls-3 {
        fill: #a7a9ac;
      }

      .cls-4 {
        opacity: 0.5;
      }

      .cls-5 {
        fill: #bcbec0;
      }

      .cls-6 {
        opacity: 0.9;
      }

      .cls-7 {
        fill: #f1f2f2;
      }

      .cls-8 {
        fill: #ee342e;
      }

      .cls-9 {
        fill: #f7941d;
      }

      .cls-10 {
        fill: #fff200;
      }

      .cls-11 {
        fill: #87c540;
      }

      .cls-12 {
        fill: #00a651;
      }

      .cls-13 {
        fill: #00a99d;
      }

      .cls-14 {
        fill: #00aeef;
      }

      .cls-15 {
        fill: #0072bc;
      }

      .cls-16 {
        fill: #2e3192;
      }

      .cls-17 {
        fill: #92278f;
      }

      .cls-18 {
        fill: #ec008c;
      }

      .cls-19 {
        fill: #e11156;
      }

      .cls-20 {
        fill: #fff;
      }

      .cls-21 {
        fill: #9da4ab;
      }
    </style>
    <clipPath id="clip-path" transform="translate(19.73 -12.53)">
      <circle id="mask" class="cls-1" cx="170.08" cy="170.08" r="87.44"/>
    </clipPath>
  </defs>
  <title>circle-exp</title>
  <g id="scales">
    <g class="cls-2">
      <g id="fifths">
        <rect class="cls-3" x="66.08" y="157.5" width="168.91" height="2.83" transform="translate(-42.47 197.91) rotate(-60.17)"/>
        <rect class="cls-3" x="145.6" y="85.5" width="2.83" height="168.91" transform="translate(19.25 -12.11) rotate(-0.16)"/>
        <path class="cls-3" d="M109.23,233.4,107.8,231c75.13-43.87,110.81-64.6,127.51-74.26,9.5-5.5,14-8.09,16.16-9.3,2.95-1.67,2.95-1.67,3.61-1.41L254,148.6l.57-1.3.6,1.28C254.68,148.82,246.58,153.18,109.23,233.4Z" transform="translate(19.73 -12.53)"/>
        <rect class="cls-3" x="104.83" y="179.73" width="168.91" height="2.83" transform="translate(-42.29 242.7) rotate(-60.17)"/>
        <polygon class="cls-3" points="214.2 247.33 126.72 96.41 129.17 94.99 211.34 236.73 210.87 73.12 213.7 73.11 214.2 247.33"/>
        <rect class="cls-3" x="73.82" y="148.91" width="168.91" height="2.83" transform="matrix(0.86, -0.5, 0.5, 0.86, -34.36, 87.31)"/>
        <rect class="cls-3" x="85.54" y="145.77" width="168.91" height="2.83" transform="translate(19.33 -12.06) rotate(-0.16)"/>
        <path class="cls-3" d="M85.26,194.18v-2.83c116.23-.34,152.59-.52,164-.6L125.88,120,107.8,109.63c-1.37-.79-1-1.73-.83-2.1l1.24.7.71-1.22c.07,0,3.27,1.88,146.23,83.87l2.06,1.18-2,1.26c-.41.25-.41.25-22,.35C213.87,193.77,172.52,193.93,85.26,194.18Z" transform="translate(19.73 -12.53)"/>
        <path class="cls-3" d="M235.29,236.61l-150.47-88,1.43-2.45,141.19,82.53c-42-72.29-62-107.15-71.43-123.71-10.82-19-10.79-19.17-10.6-19.88l2.74.71-1.37-.36,1.32-.5c.27.62,4.89,10,84.49,147Z" transform="translate(19.73 -12.53)"/>
      </g>
      <g id="penta" class="cls-4">
        <circle id="p1" class="cls-5" cx="286.38" cy="101.97" r="78.35"/>
        <circle id="p2" class="cls-5" cx="78.35" cy="157.58" r="78.35"/>
      </g>
      <g id="hepta" class="cls-6">
        <circle id="h1" class="cls-7" cx="265.89" cy="81.47" r="53.82"/>
        <circle id="h2" class="cls-7" cx="288.57" cy="157.18" r="26.49"/>
        <circle id="h3" class="cls-7" cx="267.36" cy="234.28" r="54.63"/>
        <circle id="h4" class="cls-7" cx="161.96" cy="261.46" r="53.36"/>
        <circle id="h5" class="cls-7" cx="101.07" cy="208.67" r="29.29"/>
        <circle id="h6" class="cls-7" cx="85.8" cy="129.7" r="53.6"/>
        <circle id="h7" class="cls-7" cx="161.96" cy="53.49" r="53.49"/>
      </g>
    </g>
  </g>
  <g id="notes">
    <g id="segments">
      <path id="s1" class="cls-8" d="M147.66,86.28a87.2,87.2,0,0,1,44.83,0l15.68-58.51a148.46,148.46,0,0,0-76.26,0h0l.06,0Z" transform="translate(19.73 -12.53)"/>
      <path id="s2" class="cls-9" d="M231.36,108.71l42.86-42.83a148.48,148.48,0,0,0-66-38.09l-15.7,58.5A86.61,86.61,0,0,1,231.36,108.71Z" transform="translate(19.73 -12.53)"/>
      <path id="s3" class="cls-10" d="M253.85,147.56l58.52-15.63a148.48,148.48,0,0,0-38.11-66l-42.87,42.8A86.69,86.69,0,0,1,253.85,147.56Z" transform="translate(19.73 -12.53)"/>
      <path id="s4" class="cls-11" d="M312.39,132,253.86,147.6a87.18,87.18,0,0,1,0,44.86l58.5,15.72a.25.25,0,0,0,0,.07h0a148.46,148.46,0,0,0,0-76.26Z" transform="translate(19.73 -12.53)"/>
      <path id="s5" class="cls-12" d="M231.45,231.36l42.82,42.87a148.41,148.41,0,0,0,38.1-66l-58.5-15.75A86.57,86.57,0,0,1,231.45,231.36Z" transform="translate(19.73 -12.53)"/>
      <path id="s6" class="cls-13" d="M192.56,253.86l15.68,58.51a148.48,148.48,0,0,0,66-38.09l-42.81-42.89A86.66,86.66,0,0,1,192.56,253.86Z" transform="translate(19.73 -12.53)"/>
      <path id="s7" class="cls-14" d="M170.08,256.81a87,87,0,0,1-22.44-2.94L132,312.39l-.07,0h0a148.61,148.61,0,0,0,76.26,0l-15.65-58.52A87,87,0,0,1,170.08,256.81Z" transform="translate(19.73 -12.53)"/>
      <path id="s8" class="cls-15" d="M108.74,231.39l-42.8,42.89,0,0h0a148.51,148.51,0,0,0,66,38.14l15.68-58.51A86.57,86.57,0,0,1,108.74,231.39Z" transform="translate(19.73 -12.53)"/>
      <path id="s9" class="cls-16" d="M86.28,192.49,27.79,208.23a148.48,148.48,0,0,0,38.1,66l42.82-42.86A86.65,86.65,0,0,1,86.28,192.49Z" transform="translate(19.73 -12.53)"/>
      <path id="s10" class="cls-17" d="M86.27,192.45a87.18,87.18,0,0,1,0-44.86L27.77,132a148.57,148.57,0,0,0,0,76.25h0s0,0,0-.06Z" transform="translate(19.73 -12.53)"/>
      <path id="s11" class="cls-18" d="M86.31,147.55a86.62,86.62,0,0,1,22.46-38.81L65.88,65.93s0,0,.05-.05h0A148.39,148.39,0,0,0,27.77,132h0s0,0,0-.07Z" transform="translate(19.73 -12.53)"/>
      <path id="s12" class="cls-19" d="M147.62,86.29l-15.7-58.5a148.48,148.48,0,0,0-66,38.09l42.87,42.83A86.67,86.67,0,0,1,147.62,86.29Z" transform="translate(19.73 -12.53)"/>
    </g>
    <g id="circles">
      <circle id="c1" class="cls-8" cx="220.1" cy="44.5" r="30.32"/>
      <circle id="c2" class="cls-9" cx="272.57" cy="74.79" r="30.32"/>
      <circle id="c3" class="cls-10" cx="302.86" cy="127.26" r="30.32"/>
      <circle id="c4" class="cls-11" cx="302.86" cy="187.84" r="30.32"/>
      <circle id="c5" class="cls-12" cx="272.57" cy="240.3" r="30.32"/>
      <circle id="c6" class="cls-13" cx="220.1" cy="270.59" r="30.32"/>
      <circle id="c7" class="cls-14" cx="159.52" cy="270.59" r="30.32"/>
      <circle id="c8" class="cls-15" cx="107.06" cy="240.3" r="30.32"/>
      <circle id="c9" class="cls-16" cx="76.77" cy="187.84" r="30.32"/>
      <circle id="c10" class="cls-17" cx="76.77" cy="127.26" r="30.32"/>
      <circle id="c11" class="cls-18" cx="107.06" cy="74.79" r="30.32"/>
      <circle id="c12" class="cls-19" cx="159.52" cy="44.5" r="30.32"/>
    </g>
    <g id="letters">
      <g id="l1">
        <path class="cls-20" d="M201.71,60.53h-3.4l-1,3.84h-1.75l3.31-13.88h2.2l3.32,13.88h-1.75Zm-.24-1.76L200,52.54l-1.47,6.23Z" transform="translate(19.73 -12.53)"/>
      </g>
      <g id="l2">
        <path class="cls-20" d="M249.5,91.76h-3.41l-1,3.84h-1.75l3.31-13.88h2.2l3.32,13.88h-1.75ZM249.26,90l-1.47-6.24L246.31,90Z" transform="translate(19.73 -12.53)"/>
        <path class="cls-20" d="M262.83,87.75,262.34,90h2.33l-.47,1.69h-2.36l-.95,3.93h-1.82l.95-3.93h-2.25l-.95,3.93H255l1-3.93h-2.27l.5-1.69h2.26l.49-2.23h-2.25l.49-1.7h2.27l1-4.33h1.83l-1.05,4.33h2.24l1.06-4.33h1.82l-1.06,4.33h2.34l-.5,1.7Zm-1.83,0h-2.24L258.27,90h2.24Z" transform="translate(19.73 -12.53)"/>
      </g>
      <g id="l3">
        <path class="cls-21" d="M284.6,132.94c1.92,0,4,.89,4,3.28v.61a2.88,2.88,0,0,1-1.86,2.81,3.09,3.09,0,0,1,2.18,3.13v.55c0,2.28-1.62,3.51-4.16,3.51h-3.51V132.94Zm2.51,9.76c0-1.45-.93-2.2-2.43-2.2H283v4.64h1.71c1.49,0,2.43-.72,2.43-2.19Zm-.25-6c0-1.45-1.12-2-2.29-2H283v4.26h1.6c1.23,0,2.29-.59,2.29-2Z" transform="translate(19.73 -12.53)"/>
      </g>
      <g id="l4">
        <path class="cls-20" d="M278.31,198.31c0-3.67,2.07-4.81,4.05-4.81s3.87,1.06,4,4.54v.37h-1.75v-.32c-.11-2.15-1.05-2.89-2.21-2.89s-2.26.8-2.26,3.26v4.3c0,2.47,1,3.27,2.26,3.27s2.08-.73,2.21-2.85v-.36h1.75v.35c-.09,3.49-2.07,4.56-4,4.56s-4.05-1.13-4.05-4.8Z" transform="translate(19.73 -12.53)"/>
      </g>
      <g id="l5">
        <path class="cls-20" d="M240.6,252.09c0-3.67,2.07-4.8,4.05-4.8s3.87,1.05,4,4.54v.36h-1.74l0-.32c-.11-2.14-1.05-2.89-2.21-2.89s-2.26.8-2.26,3.27v4.3c0,2.47,1,3.27,2.26,3.27s2.08-.73,2.21-2.85l0-.37h1.74V257c-.09,3.5-2.07,4.56-4,4.56s-4.05-1.13-4.05-4.8Z" transform="translate(19.73 -12.53)"/>
        <path class="cls-20" d="M259,253.5l-.48,2.23h2.33l-.47,1.69H258l-1,3.93H255.2l.95-3.93h-2.24l-.95,3.93h-1.83l1-3.93h-2.26l.49-1.69h2.27l.49-2.23h-2.26l.5-1.7h2.26l1.05-4.33h1.83l-1,4.33h2.23l1.06-4.33h1.83l-1.06,4.33h2.33l-.49,1.7Zm-1.82,0h-2.25l-.49,2.23h2.25Z" transform="translate(19.73 -12.53)"/>
      </g>
      <g id="l6">
        <path class="cls-20" d="M201.33,276.22c1.94,0,4,1,4,4.8v4.28c0,3.78-2.09,4.8-4,4.8h-3.65V276.22Zm2.28,4.95c0-2.46-1.07-3.26-2.28-3.26h-1.91v10.5h1.91c1.21,0,2.28-.8,2.28-3.27Z" transform="translate(19.73 -12.53)"/>
      </g>
      <g id="l7">
        <path class="cls-20" d="M133.71,274.7c1.94,0,4,1,4,4.8v4.28c0,3.77-2.09,4.8-4,4.8h-3.66V274.7Zm2.28,4.95c0-2.46-1.07-3.26-2.28-3.26H131.8v10.5h1.91c1.21,0,2.28-.8,2.28-3.27Z" transform="translate(19.73 -12.53)"/>
        <path class="cls-20" d="M148.54,280.72l-.49,2.23h2.34l-.48,1.7h-2.35l-1,3.93h-1.82l.95-3.93h-2.25l-.95,3.93H140.7l1-3.93h-2.27l.5-1.7h2.26l.49-2.23h-2.25l.49-1.69h2.27l1-4.33H146L145,279h2.24l1.06-4.33h1.83L149,279h2.33l-.5,1.69Zm-1.83,0h-2.24L144,283h2.24Z" transform="translate(19.73 -12.53)"/>
      </g>
      <g id="l8">
        <path class="cls-20" d="M87,247.49v4.26H91v1.69H87V258h4.26v1.69h-6V245.8h6v1.69Z" transform="translate(19.73 -12.53)"/>
      </g>
      <g id="l9">
        <path class="cls-20" d="M56.58,197.32v4.44h3.91v1.7H56.58v6H54.83V195.62h5.86v1.7Z" transform="translate(19.73 -12.53)"/>
      </g>
      <g id="l10">
        <path class="cls-20" d="M49.94,136.45v4.45h3.91v1.7H49.94v6.05H48.19V134.76h5.86v1.69Z" transform="translate(19.73 -12.53)"/>
        <path class="cls-20" d="M64.39,140.79,63.91,143h2.33l-.47,1.7H63.41l-.95,3.93H60.63l.95-3.93H59.34l-1,3.93H56.56l.95-3.93H55.25l.49-1.7H58l.49-2.23H56.24l.5-1.7H59l1-4.33h1.83l-1.05,4.33h2.23l1.06-4.33H66l-1.06,4.33h2.33l-.49,1.7Zm-1.82,0H60.32L59.83,143h2.25Z" transform="translate(19.73 -12.53)"/>
      </g>
      <g id="l11">
        <path class="cls-20" d="M84.4,84.94c0-3.67,2-4.8,4-4.8s3.94,1.09,4,4.69V85h-1.7v-.14c-.07-2.29-1.1-3.06-2.28-3.06s-2.26.8-2.26,3.27v4.3c0,2.47,1,3.27,2.26,3.27s2.28-.77,2.28-3.21V88.32H88.51v-1.7H92.4v2.94c0,3.69-2.05,4.8-4,4.8s-4-1.13-4-4.8Z" transform="translate(19.73 -12.53)"/>
      </g>
      <g id="l12">
        <path class="cls-20" d="M129.49,55.71c0-3.67,2-4.8,4-4.8s3.93,1.09,4,4.68v.21h-1.7v-.14c-.07-2.29-1.11-3.06-2.28-3.06s-2.26.8-2.26,3.26v4.31c0,2.47,1,3.27,2.26,3.27s2.28-.77,2.28-3.22V59.09H133.6v-1.7h3.89v2.94c0,3.69-2.05,4.8-4,4.8s-4-1.13-4-4.8Z" transform="translate(19.73 -12.53)"/>
        <path class="cls-20" d="M148.33,57.12l-.49,2.23h2.33L149.7,61h-2.36l-1,3.93h-1.83l1-3.93h-2.25l-1,3.93h-1.83l.95-3.93h-2.26l.49-1.69h2.27l.49-2.23h-2.26l.5-1.7h2.26l1-4.33h1.83l-1.05,4.33H147l1.06-4.33h1.83l-1.06,4.33h2.34l-.5,1.7Zm-1.83,0h-2.25l-.48,2.23H146Z" transform="translate(19.73 -12.53)"/>
      </g>
    </g>
  </g>
</svg>
