<svg xmlns="http://www.w3.org/2000/svg" viewBox="0 0 198.43 198.43">
  <g id="Layer_3" data-name="Layer 3">
    <g>
      <path d="M151.69,45.15a18.68,18.68,0,1,0-32.36-18.68A18.42,18.42,0,0,0,118,29.29h0l-.05.17a18.77,18.77,0,0,0-.84,3.17L105.54,76.36a6.09,6.09,0,0,0,10.3,6l33.5-33.93A18.7,18.7,0,0,0,151.69,45.15Z" fill="#333132"/>
      <path d="M171.69,78.63A18.68,18.68,0,0,0,153,46.27a17.86,17.86,0,0,0-2.54,1.8l0,0-.12.12A18.15,18.15,0,0,0,148,50.5l-31.9,32.09a6.07,6.07,0,0,0,5.94,10.29l46-12.63A18.75,18.75,0,0,0,171.69,78.63Z" fill="#f1f2f2"/>
      <path d="M172.27,117.63a18.68,18.68,0,1,0-3.1-37.09v0l-.17,0a17.76,17.76,0,0,0-3.16.86L122.16,93.27a6.08,6.08,0,0,0,0,11.89l46.14,12A19.23,19.23,0,0,0,172.27,117.63Z" fill="#f1f2f2"/>
      <path d="M153.28,151.69A18.68,18.68,0,1,0,172,119.33a19,19,0,0,0-2.83-1.31h0L169,118a18.77,18.77,0,0,0-3.17-.84l-43.74-11.58a6.08,6.08,0,0,0-5.94,10.3l33.93,33.5A18.32,18.32,0,0,0,153.28,151.69Z" fill="#333132"/>
      <path d="M119.79,171.69a18.68,18.68,0,1,0,30.57-21.22l0,0-.13-.12a18.08,18.08,0,0,0-2.32-2.31l-32.09-31.9a6.08,6.08,0,0,0-10.3,5.94l12.63,46A18.75,18.75,0,0,0,119.79,171.69Z" fill="#f1f2f2"/>
      <path d="M80.79,172.27a18.69,18.69,0,1,0,37.09-3.1h0l0-.17a19.63,19.63,0,0,0-.86-3.16l-11.84-43.68a6.08,6.08,0,0,0-11.89,0l-12,46.14A18.57,18.57,0,0,0,80.79,172.27Z" fill="#333132"/>
      <path d="M46.73,153.28A18.68,18.68,0,1,0,79.09,172a19,19,0,0,0,1.31-2.83h0l0-.17a17.87,17.87,0,0,0,.84-3.17l11.59-43.74a6.08,6.08,0,0,0-10.3-5.94l-33.5,33.93A17.87,17.87,0,0,0,46.73,153.28Z" fill="#f1f2f2"/>
      <path d="M26.73,119.79A18.68,18.68,0,1,0,48,150.36v0l.12-.13a18.83,18.83,0,0,0,2.32-2.32l31.9-32.09a6.09,6.09,0,0,0-6-10.3l-46,12.63A19,19,0,0,0,26.73,119.79Z" fill="#f1f2f2"/>
      <path d="M26.15,80.79a18.69,18.69,0,1,0,3.1,37.09v0l.16,0a19.75,19.75,0,0,0,3.17-.86l43.67-11.84a6.08,6.08,0,0,0,0-11.89l-46.13-12A18.67,18.67,0,0,0,26.15,80.79Z" fill="#333132"/>
      <path d="M45.15,46.73A18.68,18.68,0,0,0,26.47,79.09a18.42,18.42,0,0,0,2.82,1.31v0l.17,0a17.87,17.87,0,0,0,3.17.84L76.36,92.89a6.09,6.09,0,0,0,6-10.3L48.38,49.09A18.23,18.23,0,0,0,45.15,46.73Z" fill="#f1f2f2"/>
      <path d="M78.63,26.73A18.68,18.68,0,0,0,46.27,45.41,18,18,0,0,0,48.07,48h0l.12.12a18.91,18.91,0,0,0,2.33,2.32l32.09,31.9a6.08,6.08,0,0,0,10.29-6l-12.63-46A19,19,0,0,0,78.63,26.73Z" fill="#333132"/>
      <path d="M117.63,26.15a18.68,18.68,0,1,0-37.09,3.1h0l0,.16a17.87,17.87,0,0,0,.86,3.17L93.27,76.26a6.08,6.08,0,0,0,11.89,0l12-46.13A19.33,19.33,0,0,0,117.63,26.15Z" fill="#f1f2f2"/>
      <path d="M84.42,30.12C79.18,10.57,108.75,2.61,114,22.19S89.67,49.68,84.42,30.12Z" fill="#ef372f"/>
      <path d="M51.85,46.77c-14.31-14.32,7.33-36,21.66-21.65S66.21,61.14,51.85,46.77Z" fill="#e21a58"/>
      <path d="M32,77.48C12.42,72.24,20.33,42.65,39.91,47.9S51.56,82.73,32,77.48Z" fill="#eb0d8c"/>
      <path d="M30.12,114c-19.55,5.24-27.51-24.33-7.93-29.58S49.68,108.76,30.12,114Z" fill="#922a8e"/>
      <path d="M46.77,146.58c-14.32,14.31-36-7.33-21.65-21.66S61.12,132.24,46.77,146.58Z" fill="#2e3690"/>
      <path d="M77.48,166.45C72.24,186,42.65,178.11,47.9,158.52S82.73,146.86,77.48,166.45Z" fill="#0d73bb"/>
      <path d="M114,168.31c5.24,19.56-24.34,27.51-29.58,7.92S108.77,148.72,114,168.31Z" fill="#2bace2"/>
      <path d="M146.58,151.66c14.32,14.31-7.33,36-21.66,21.65S132.23,137.32,146.58,151.66Z" fill="#00a99d"/>
      <path d="M166.45,121c19.56,5.24,11.66,34.83-7.92,29.58S146.86,115.7,166.45,121Z" fill="#06a64f"/>
      <path d="M168.31,84.42c19.56-5.23,27.51,24.34,7.92,29.58S148.75,89.66,168.31,84.42Z" fill="#88c541"/>
      <path d="M151.66,51.85c14.31-14.31,36,7.32,21.65,21.66S137.29,66.21,151.66,51.85Z" fill="#fcee23"/>
      <path d="M121,32c5.24-19.56,34.83-11.66,29.58,7.93S115.7,51.57,121,32Z" fill="#f89521"/>
    </g>
  </g>
</svg>
