<svg viewBox="0 0 340.16 340.16" xmlns="http://www.w3.org/2000/svg"><g fill="#00a99d"><path d="m126.88 60.26c.86-1.93 1.76-3.88 2.74-5.81l1.25-.43c-.9 1.73-1.75 3.46-2.53 5.2.87-.34 1.76-.64 2.65-1l1.33-.46.67-.22.82-.27c.49-.17 1-.31 1.49-.46 1-.31 2-.6 3-.87a119.45 119.45 0 0 1 49.3-3l-.13.89a118.69 118.69 0 0 0 -48.93 3c-1 .28-2 .56-3 .87-.49.15-1 .29-1.47.46l-.82.27-.66.22c-.45.14-.89.29-1.33.45-.87.32-1.76.62-2.63 1 1.73.78 3.44 1.62 5.09 2.47l-1.15.4c-1.84-.97-3.74-1.85-5.69-2.71z"/><path d="m187.52 53.38c1.69-1.24 3.45-2.49 5.24-3.68l1.3.25c-1.63 1-3.22 2.14-4.77 3.26.92.16 1.86.29 2.78.47l1.38.27.69.14.83.16c.49.09 1 .21 1.46.32l2.93.68a103.62 103.62 0 0 1 22.49 8.41 115.3 115.3 0 0 1 20 13.24l-.57.69a115.15 115.15 0 0 0 -19.88-13.13 103 103 0 0 0 -22.29-8.34l-2.91-.67c-.49-.11-1-.23-1.46-.32l-.74-.13-.69-.13-1.38-.27c-.91-.18-1.84-.31-2.76-.47 1.12 1.54 2.19 3.09 3.2 4.68l-1.2-.24c-1.17-1.76-2.4-3.46-3.65-5.19z"/><path d="m244.47 78.51c2.09-.19 4.25-.39 6.4-.49l1 .88c-1.93.07-3.86.19-5.77.37.72.61 1.46 1.19 2.15 1.83l1.05.94.53.46.62.56 1.09 1c.71.69 1.46 1.35 2.15 2.06a113.62 113.62 0 0 1 26.19 39.45l-.83.33a112.71 112.71 0 0 0 -26-39.14c-.69-.71-1.43-1.36-2.14-2l-1.08-1-.61-.55-.53-.46-1-.93c-.69-.63-1.42-1.21-2.13-1.82q.26 2.83.36 5.66l-.92-.86c-.15-2.09-.33-4.16-.53-6.29z"/><path d="m279.84 126.74c1.94.85 3.89 1.75 5.81 2.72.15.42.3.83.43 1.25-1.73-.89-3.45-1.74-5.2-2.52.34.87.65 1.76 1 2.65.16.44.32.88.46 1.33l.23.67.26.8c.16.47.3 1 .45 1.43.3 1 .59 1.92.85 2.89a117.33 117.33 0 0 1 4.11 23.67 111.47 111.47 0 0 1 -.71 24l-.89-.13a110.27 110.27 0 0 0 .7-23.82 115.56 115.56 0 0 0 -4.08-23.49c-.26-1-.54-1.91-.84-2.86-.15-.48-.29-1-.45-1.43l-.26-.79-.22-.66c-.14-.44-.29-.89-.45-1.32-.32-.88-.62-1.77-1-2.63-.78 1.73-1.62 3.43-2.48 5.09-.12-.39-.26-.77-.4-1.15.95-1.85 1.84-3.75 2.68-5.7z"/><path d="m286.79 187.45c1.24 1.7 2.5 3.45 3.7 5.23l-.24 1.29c-1.06-1.62-2.17-3.2-3.29-4.75-.16.93-.28 1.86-.46 2.78l-.26 1.39-.13.69-.16.81c-.08.48-.2 1-.3 1.44l-.63 2.88a108.38 108.38 0 0 1 -7.77 22.21 106.12 106.12 0 0 1 -12.56 19.9l-.71-.56a104.67 104.67 0 0 0 12.46-19.76 107.2 107.2 0 0 0 7.7-22l.63-2.86c.1-.47.22-.95.3-1.43l.15-.8.13-.69.26-1.37c.18-.92.31-1.85.46-2.77-1.54 1.12-3.09 2.2-4.67 3.23l.23-1.21c1.74-1.16 3.43-2.39 5.16-3.65z"/><path d="m262.47 243.45c.22 2.09.43 4.24.57 6.38l-.86 1c-.1-1.93-.25-3.86-.45-5.76-.6.72-1.18 1.46-1.8 2.17l-.92 1.07-.46.53-.56.64c-.34.39-.69.76-1 1.14-.7.76-1.38 1.53-2.09 2.26a111.92 111.92 0 0 1 -18.8 15.88 105.51 105.51 0 0 1 -10.66 6.24 121.52 121.52 0 0 1 -11.25 5l-.32-.84a119.58 119.58 0 0 0 11.16-5 103.75 103.75 0 0 0 10.53-6.2 110.91 110.91 0 0 0 18.65-15.75c.71-.73 1.38-1.49 2.08-2.24.34-.38.69-.75 1-1.13l.56-.64.46-.53.92-1.06c.61-.7 1.19-1.44 1.78-2.16-1.89.19-3.77.35-5.65.44l.8-.93c2.11-.08 4.18-.29 6.31-.51z"/><path d="m212.08 280.36q-1.31 2.89-2.79 5.78l-1.26.41c.92-1.71 1.78-3.44 2.59-5.17-.88.33-1.77.62-2.66.93l-1.34.45-.62.24-.79.25-1.42.43c-1 .29-1.91.55-2.86.8a118 118 0 0 1 -23.4 3.82 111.89 111.89 0 0 1 -11.87.14 113.77 113.77 0 0 1 -11.81-1.17l.13-.89a112.58 112.58 0 0 0 11.72 1.16 110.24 110.24 0 0 0 11.78-.14 117.07 117.07 0 0 0 23.22-3.78c.94-.26 1.89-.52 2.83-.81l1.41-.42.78-.25.67-.21c.45-.14.89-.28 1.33-.44.88-.31 1.77-.59 2.64-.93-1.72-.8-3.41-1.65-5.06-2.53.39-.12.77-.25 1.16-.39 1.8.94 3.68 1.84 5.62 2.72z"/><path d="m152.73 286.79c-1.7 1.24-3.45 2.5-5.24 3.69l-1.29-.25c1.62-1 3.21-2.15 4.76-3.27-.93-.16-1.86-.28-2.78-.47l-1.38-.27-.7-.13-.82-.16c-.49-.09-1-.21-1.47-.32-1-.22-2-.43-2.93-.67a110.23 110.23 0 0 1 -42.88-20.94l.56-.71a110 110 0 0 0 20.11 12.71 111.43 111.43 0 0 0 22.42 8c1 .24 1.94.44 2.91.66.49.11 1 .23 1.46.32l.82.16.69.13 1.37.27c.92.18 1.84.31 2.76.46-1.11-1.54-2.18-3.09-3.21-4.67l1.21.23c1.16 1.81 2.37 3.5 3.63 5.23z"/><path d="m96.89 262.61c-2.09.22-4.24.44-6.39.57l-1-.87q2.91-.13 5.77-.44c-.72-.6-1.47-1.17-2.17-1.8l-1.1-.93-.54-.46-.64-.56c-.39-.34-.76-.7-1.13-1-.75-.71-1.52-1.39-2.25-2.11a112.09 112.09 0 0 1 -15.66-19.01 116.78 116.78 0 0 1 -11.28-21.81l.84-.33a116.23 116.23 0 0 0 11.19 21.69 111.15 111.15 0 0 0 15.58 18.77c.72.72 1.48 1.4 2.22 2.09l1.13 1 .64.56.53.46 1.05.92c.7.62 1.44 1.19 2.16 1.79-.2-1.89-.34-3.77-.43-5.66l.93.81c.12 2.12.32 4.19.55 6.32z"/><path d="m60.14 213c-1.93-.85-3.88-1.76-5.8-2.75-.15-.41-.29-.83-.43-1.25 1.73.9 3.46 1.76 5.2 2.55-.34-.88-.64-1.77-1-2.66-.16-.44-.31-.88-.45-1.33l-.22-.67-.26-.79c-.15-.46-.29-.94-.43-1.41-.29-.94-.57-1.89-.83-2.84a117 117 0 0 1 -4-23.28c-.28-3.94-.35-7.88-.31-11.82a83.33 83.33 0 0 1 1-11.8l.89.13a81.76 81.76 0 0 0 -1 11.68c0 3.92 0 7.84.3 11.75a116.83 116.83 0 0 0 4 23.1c.25.95.53 1.88.82 2.82.14.47.28.94.43 1.4l.26.78.21.66.45 1.33c.32.88.61 1.76 1 2.63.79-1.72 1.63-3.42 2.5-5.08.12.39.25.77.39 1.16-.97 1.82-1.86 3.69-2.72 5.69z"/><path d="m53.06 152.29c-1.24-1.7-2.49-3.46-3.68-5.26l.26-1.29c1 1.63 2.13 3.22 3.25 4.78.16-.93.29-1.86.48-2.78l.27-1.39.14-.69.16-.83c.09-.5.22-1 .33-1.49l.7-3a110.91 110.91 0 0 1 8.5-22.8 116.93 116.93 0 0 1 13.18-20.41l.7.56a116.44 116.44 0 0 0 -13.08 20.31 109.92 109.92 0 0 0 -8.42 22.62l-.7 2.94c-.11.49-.24 1-.33 1.47l-.16.83-.14.69-.27 1.37c-.19.91-.31 1.84-.47 2.76 1.54-1.11 3.09-2.18 4.68-3.19l-.23 1.2c-1.75 1.13-3.44 2.31-5.17 3.6z"/><path d="m77.9 96.44c-.21-2.09-.43-4.24-.56-6.38l.86-1q.15 2.89.45 5.76c.6-.72 1.17-1.46 1.8-2.16l.92-1.07.46-.53.55-.63 1-1.09c.67-.73 1.32-1.47 2-2.18a110 110 0 0 1 18-15.38 105.84 105.84 0 0 1 10.19-6.09c3.52-1.82 7.13-3.45 10.8-4.92l.33.84a116.06 116.06 0 0 0 -10.71 4.88 104.17 104.17 0 0 0 -10.11 6 109 109 0 0 0 -17.88 15.29c-.68.7-1.33 1.44-2 2.16l-1 1.09-.54.62-.46.53-.92 1.06c-.62.7-1.19 1.44-1.79 2.15 1.89-.19 3.78-.34 5.66-.43l-.81.93c-2.04.11-4.14.33-6.24.55z"/></g><path d="m214.64 52.83c-1.94.88-3.83 1.78-5.68 2.74l-1.16-.39c1.65-.86 3.35-1.73 5.07-2.52-.88-.33-1.76-.63-2.64-.93l-1.33-.45-.67-.21-.87-.28c-.52-.17-1.05-.33-1.58-.48-1.05-.31-2.11-.62-3.18-.9a126 126 0 0 0 -52.42-2.7l-.14-.89a126.8 126.8 0 0 1 52.8 2.73c1.07.27 2.13.59 3.2.9.53.15 1.06.31 1.59.49l.88.27.67.22c.45.13.89.3 1.33.45.89.3 1.79.6 2.67.93-.81-1.74-1.68-3.44-2.58-5.18l1.25.42c.99 1.95 1.91 3.86 2.79 5.78z" fill="#488bca"/><path d="m150.11 46.26c-1.24 1.75-2.42 3.47-3.55 5.21l-1.2.26c1-1.62 2-3.16 3.13-4.72l-2.75.49-1.37.3-.69.14-.9.2c-.56.11-1.11.23-1.65.37l-3.28.82a125.29 125.29 0 0 0 -47.68 24.67l-.57-.69a126 126 0 0 1 48-24.87l3.31-.82c.55-.15 1.1-.27 1.66-.38l.92-.2.69-.14 1.37-.3 2.78-.5c-1.56-1.09-3.18-2.19-4.81-3.2l1.29-.28c1.82 1.21 3.59 2.43 5.3 3.64z" fill="#488bca"/><path d="m89.89 73.67c-.18 2.14-.33 4.21-.4 6.3l-.91.83c0-1.89.15-3.77.29-5.66-.7.61-1.42 1.2-2.11 1.83l-1 1-.52.47-.66.61c-.4.35-.77.74-1.16 1.11-.77.76-1.55 1.5-2.3 2.27a125.59 125.59 0 0 0 -27.78 43.14l-.84-.32a126.36 126.36 0 0 1 28-43.45c.75-.78 1.54-1.52 2.31-2.28.4-.38.77-.77 1.18-1.13l.66-.61.52-.47 1-1c.69-.63 1.42-1.23 2.13-1.85-1.91-.15-3.85-.26-5.78-.3l1-.89c2.12.07 4.27.23 6.37.4z" fill="#488bca"/><path d="m52.89 125.36c.88 1.94 1.77 3.83 2.74 5.69l-.4 1.16c-.86-1.65-1.73-3.36-2.52-5.08-.33.88-.63 1.76-.93 2.64-.15.45-.31.88-.45 1.33l-.21.67-.28.87c-.17.52-.33 1.05-.48 1.58-.31 1.06-.63 2.12-.91 3.18a126.09 126.09 0 0 0 -2.75 52.51l-.89.14a126.85 126.85 0 0 1 2.78-52.88c.28-1.08.59-2.14.91-3.21.15-.53.31-1.06.49-1.59l.28-.88.21-.67c.14-.45.3-.89.45-1.34.31-.89.61-1.78.94-2.66-1.75.81-3.45 1.67-5.18 2.57l.42-1.25c1.89-.99 3.89-1.9 5.78-2.78z" fill="#488bca"/><path d="m46.25 190c1.75 1.24 3.47 2.43 5.21 3.56l.25 1.2c-1.61-1-3.15-2.05-4.72-3.14.17.91.32 1.84.5 2.75l.29 1.37.15.69.19.89c.1.54.23 1.08.36 1.61l.8 3.21a125.3 125.3 0 0 0 23.85 46.79l-.69.57a126.23 126.23 0 0 1 -24-47.13l-.8-3.23c-.14-.54-.26-1.08-.37-1.63l-.19-.89-.15-.69-.29-1.38c-.19-.93-.33-1.86-.5-2.78-1.1 1.56-2.19 3.17-3.21 4.81l-.27-1.29c1.15-1.83 2.34-3.6 3.59-5.29z" fill="#488bca"/><path d="m72.78 249.19c2.14.2 4.22.37 6.29.47l.83.92c-1.9-.06-3.76-.19-5.66-.36.6.71 1.19 1.44 1.81 2.14l.94 1 .47.52.62.69c.37.43.76.84 1.16 1.24l2.35 2.44a125.59 125.59 0 0 0 45.41 29.13l-.31.85a126.75 126.75 0 0 1 -45.69-29.3l-2.38-2.46c-.39-.41-.79-.82-1.16-1.25l-.63-.7-.47-.52-.99-1c-.62-.7-1.21-1.43-1.82-2.15-.17 1.9-.31 3.84-.36 5.77l-.89-1c.12-2.19.29-4.34.48-6.43z" fill="#488bca"/><path d="m126.79 287.8c1.93-.9 3.81-1.82 5.65-2.8l1.17.38c-1.65.88-3.33 1.76-5.05 2.58.88.32 1.77.6 2.65.9l1.34.43.67.2.85.26c.51.17 1 .31 1.54.46 1 .3 2.07.58 3.11.84a126.09 126.09 0 0 0 51.16 2.42l.14.89a127 127 0 0 1 -51.52-2.44c-1.05-.26-2.09-.55-3.13-.85l-1.56-.45-.86-.27-.67-.21-1.34-.43c-.9-.29-1.79-.58-2.68-.9.83 1.73 1.71 3.43 2.64 5.15l-1.26-.41c-1.01-1.9-1.95-3.83-2.85-5.75z" fill="#488bca"/><path d="m190 293.91c1.24-1.75 2.43-3.46 3.56-5.2l1.2-.26c-1 1.61-2.05 3.16-3.14 4.72.92-.17 1.84-.31 2.75-.5l1.37-.29.69-.14.89-.19c.54-.11 1.07-.23 1.6-.37l3.2-.79a125.23 125.23 0 0 0 46.65-23.71l.57.7a126.14 126.14 0 0 1 -47 23.88l-3.22.8c-.54.13-1.08.26-1.62.37l-.89.19-.69.14-1.38.29c-.93.19-1.85.34-2.78.5 1.57 1.1 3.17 2.2 4.81 3.21l-1.29.27c-1.85-1.18-3.62-2.4-5.28-3.62z" fill="#488bca"/><path d="m249 267.53c.21-2.13.38-4.22.5-6.29l.91-.82c-.06 1.89-.2 3.76-.37 5.66.71-.61 1.44-1.19 2.14-1.81l1-.93.52-.47.68-.6c.41-.36.8-.74 1.2-1.11l2.42-2.26a119.26 119.26 0 0 0 16.49-20.26 123.4 123.4 0 0 0 11.74-23.36l.84.32a124.88 124.88 0 0 1 -11.82 23.53 120.67 120.67 0 0 1 -16.62 20.41l-2.39 2.27c-.39.38-.79.76-1.21 1.13l-.67.6-.53.47-1 .94c-.71.62-1.44 1.21-2.16 1.82 1.91.17 3.84.31 5.77.38l-1 .88c-2.2-.12-4.35-.3-6.44-.5z" fill="#488bca"/><path d="m287.45 214.32c-.89-1.94-1.79-3.82-2.76-5.68l.39-1.16c.87 1.65 1.74 3.35 2.54 5.07.32-.88.62-1.76.92-2.65.15-.44.3-.88.44-1.33l.21-.66.27-.87c.17-.52.33-1 .48-1.57.31-1.05.61-2.1.88-3.16a126 126 0 0 0 2.63-52.13l.89-.14a126.88 126.88 0 0 1 -2.65 52.5c-.27 1.06-.58 2.12-.89 3.18q-.23.79-.48 1.59l-.27.87-.21.67c-.14.45-.3.89-.45 1.34-.3.89-.6 1.78-.93 2.66 1.75-.81 3.44-1.68 5.18-2.59l-.42 1.25c-1.91 1-3.85 1.93-5.77 2.81z" fill="#488bca"/><path d="m294.86 151.13c-1.74-1.24-3.46-2.43-5.2-3.56l-.26-1.2c1.61 1 3.16 2 4.72 3.14-.17-.92-.32-1.84-.5-2.75l-.29-1.37-.15-.69-.19-.89c-.11-.55-.23-1.09-.37-1.62l-.8-3.23a125.23 125.23 0 0 0 -24.06-47l.7-.57a126.28 126.28 0 0 1 24.23 47.32l.81 3.25c.14.54.26 1.08.37 1.63l.19.9.15.69.29 1.38c.19.92.34 1.85.51 2.78 1.09-1.57 2.19-3.18 3.2-4.82l.27 1.29c-1.18 1.84-2.4 3.61-3.62 5.32z" fill="#488bca"/><path d="m267.14 90.68c-2.13-.19-4.21-.36-6.29-.45l-.82-.91c1.89.05 3.76.18 5.66.34-.61-.71-1.2-1.44-1.82-2.13l-.94-1-.47-.52-.61-.68c-.36-.41-.75-.8-1.13-1.2l-2.3-2.36a125.67 125.67 0 0 0 -43.94-28.48l.32-.84a126.58 126.58 0 0 1 44.26 28.68l2.31 2.39c.38.39.77.79 1.14 1.2l.61.68.48.53.94 1c.63.7 1.22 1.43 1.83 2.15.17-1.91.3-3.85.35-5.77l.88 1c-.1 2.13-.27 4.28-.46 6.37z" fill="#488bca"/><circle cx="232.97" cy="60.72" fill="#0072bc" r="19.97"/><path d="m238.6 53.36v2.83h-8.07v3.27h7.41v2.61h-7.41v3.74h8.24v2.82h-11.59v-15.27z" fill="#fff"/><circle cx="170.08" cy="44.29" fill="#ee342e" r="19.97"/><path d="m171.83 37.05 5.71 15.27h-3.48l-1.16-3.4h-5.71l-1.2 3.4h-3.38l5.78-15.27zm.19 9.36-1.92-5.6-2 5.6z" fill="#fff"/><circle cx="108.48" cy="279.85" fill="#f5832b" r="19.97"/><path d="m105.12 272.87 5.71 15.27h-3.48l-1.16-3.4h-5.71l-1.2 3.4h-3.38l5.78-15.27zm.19 9.36-1.92-5.6-2 5.6z" fill="#fff"/><path d="m114.47 288.14v-3.51l-2.12.43v-2l2.12-.43v-3.33l-2.12.43v-2l2.12-.47v-3.34l.87-.15v3.32l2.36-.54v-3.74l.89-.15v3.7l2.14-.45v2l-2.14.42v3.32l2.14-.41v2l-2.14.45v3.14l-.89.17v-3.12l-2.36.56v3.56zm.87-5.71 2.36-.54v-3.34l-2.36.58z" fill="#fff"/><circle cx="295.48" cy="170.08" fill="#92278f" r="19.97"/><path d="m296.58 162.68v2.82h-7.38v3.5h6.39v2.61h-6.39v6.39h-3.36v-15.32z" fill="#fff"/><path d="m300.83 178v-3.51l-2.12.43v-2l2.12-.43v-3.34l-2.12.43v-2l2.12-.47v-3.33l.88-.15v3.31l2.35-.53v-3.75l.9-.15v3.7l2.14-.45v2l-2.14.42v3.32l2.14-.41v2l-2.14.45v3.14l-.9.18v-3.13l-2.35.56v3.53zm.88-5.71 2.35-.54v-3.34l-2.35.58z" fill="#fff"/><circle cx="279.02" cy="107.18" fill="#fff200" r="19.97"/><path d="m280.65 99.63a9.4 9.4 0 0 1 2 .19 4.38 4.38 0 0 1 1.54.63 2.87 2.87 0 0 1 1 1.16 4.07 4.07 0 0 1 .36 1.8 3.37 3.37 0 0 1 -.53 1.93 3.81 3.81 0 0 1 -1.55 1.26 3.65 3.65 0 0 1 2.11 1.42 4.25 4.25 0 0 1 .69 2.45 4.19 4.19 0 0 1 -.44 2 4 4 0 0 1 -1.21 1.38 5.58 5.58 0 0 1 -1.73.79 7.89 7.89 0 0 1 -2 .26h-7.4v-15.27zm-.43 6.18a2.47 2.47 0 0 0 1.48-.43 1.64 1.64 0 0 0 .58-1.39 1.76 1.76 0 0 0 -.2-.88 1.24 1.24 0 0 0 -.51-.53 2.1 2.1 0 0 0 -.74-.27 4.74 4.74 0 0 0 -.86-.08h-3.15v3.58zm.2 6.48a4.83 4.83 0 0 0 .94-.1 2.23 2.23 0 0 0 .79-.32 1.52 1.52 0 0 0 .54-.61 2 2 0 0 0 .21-1 1.94 1.94 0 0 0 -.67-1.68 2.78 2.78 0 0 0 -1.75-.51h-3.66v4.2z" fill="#fff"/><circle cx="232.97" cy="279.43" fill="#e11156" r="19.97"/><path d="m231.32 287.21a5.53 5.53 0 0 1 -2.2.46 7.73 7.73 0 0 1 -3.15-.61 6.55 6.55 0 0 1 -2.37-1.68 7.39 7.39 0 0 1 -1.47-2.51 9.27 9.27 0 0 1 -.52-3.11 9.64 9.64 0 0 1 .52-3.18 7.58 7.58 0 0 1 1.47-2.58 6.62 6.62 0 0 1 2.37-1.71 7.57 7.57 0 0 1 3.15-.62 7.29 7.29 0 0 1 2.28.35 6.3 6.3 0 0 1 2 1 5.55 5.55 0 0 1 1.46 1.69 5.69 5.69 0 0 1 .71 2.31h-3.21a3.22 3.22 0 0 0 -1.15-1.93 3.36 3.36 0 0 0 -2.08-.64 3.92 3.92 0 0 0 -1.92.44 3.63 3.63 0 0 0 -1.29 1.17 5.49 5.49 0 0 0 -.71 1.68 8.39 8.39 0 0 0 -.23 1.95 7.72 7.72 0 0 0 .23 1.87 5.26 5.26 0 0 0 .71 1.64 3.7 3.7 0 0 0 1.29 1.16 3.92 3.92 0 0 0 1.92.44 3.68 3.68 0 0 0 2.58-.84 3.72 3.72 0 0 0 1.06-2.45h-3.38v-2.5h6.41v8.25h-2.13l-.35-1.73a5 5 0 0 1 -2 1.68z" fill="#fff"/><path d="m240.82 287.33v-3.51l-2.12.43v-2l2.12-.43v-3.32l-2.12.43v-2l2.12-.47v-3.34l.88-.15v3.31l2.35-.53v-3.75l.9-.15v3.7l2.14-.45v2l-2.14.43v3.31l2.14-.4v2l-2.14.44v3.15l-.9.17v-3.12l-2.35.55v3.53zm.88-5.71 2.35-.53v-3.34l-2.35.58z" fill="#fff"/><circle cx="44.68" cy="170.08" fill="#87c540" r="19.97"/><path d="m47.69 166.61a3.33 3.33 0 0 0 -.75-.84 3.63 3.63 0 0 0 -1-.57 3.57 3.57 0 0 0 -1.18-.2 3.85 3.85 0 0 0 -1.93.44 3.6 3.6 0 0 0 -1.28 1.17 5.09 5.09 0 0 0 -.72 1.68 8.39 8.39 0 0 0 -.22 2 7.78 7.78 0 0 0 .22 1.87 4.91 4.91 0 0 0 .72 1.63 3.6 3.6 0 0 0 1.28 1.17 4 4 0 0 0 1.93.44 3.08 3.08 0 0 0 2.4-.94 4.37 4.37 0 0 0 1.06-2.48h3.25a7.65 7.65 0 0 1 -.66 2.59 6.27 6.27 0 0 1 -1.41 2 5.87 5.87 0 0 1 -2.05 1.24 7.45 7.45 0 0 1 -2.59.43 7.81 7.81 0 0 1 -3.16-.61 6.6 6.6 0 0 1 -2.36-1.68 7.58 7.58 0 0 1 -1.48-2.51 9.26 9.26 0 0 1 -.51-3.11 9.64 9.64 0 0 1 .51-3.18 7.77 7.77 0 0 1 1.48-2.55 6.67 6.67 0 0 1 2.36-1.71 7.65 7.65 0 0 1 3.16-.63 7.75 7.75 0 0 1 2.38.37 6.24 6.24 0 0 1 2 1.06 5.72 5.72 0 0 1 1.47 1.72 6.23 6.23 0 0 1 .72 2.35h-3.26a2.65 2.65 0 0 0 -.38-1.15z" fill="#fff"/><circle cx="105.31" cy="61" fill="#00a99d" r="19.97"/><path d="m105.14 53.55a7.94 7.94 0 0 1 2.75.47 6.11 6.11 0 0 1 2.2 1.41 6.6 6.6 0 0 1 1.46 2.36 9.47 9.47 0 0 1 .52 3.31 10.42 10.42 0 0 1 -.43 3.08 6.71 6.71 0 0 1 -1.29 2.44 6.12 6.12 0 0 1 -2.16 1.61 7.19 7.19 0 0 1 -3 .59h-6.64v-15.27zm-.23 12.45a4.26 4.26 0 0 0 1.41-.24 3 3 0 0 0 1.22-.78 3.86 3.86 0 0 0 .85-1.42 6.11 6.11 0 0 0 .32-2.14 8.85 8.85 0 0 0 -.22-2.08 4.29 4.29 0 0 0 -.74-1.6 3.18 3.18 0 0 0 -1.36-1 5.31 5.31 0 0 0 -2.08-.36h-2.4v9.62z" fill="#fff"/><circle cx="170.08" cy="295.87" fill="#00aeef" r="19.97"/><path d="m165.37 288.81a7.94 7.94 0 0 1 2.75.47 5.86 5.86 0 0 1 2.2 1.41 6.56 6.56 0 0 1 1.46 2.35 9.53 9.53 0 0 1 .52 3.32 10.42 10.42 0 0 1 -.43 3.08 6.71 6.71 0 0 1 -1.29 2.44 6.12 6.12 0 0 1 -2.16 1.61 7.34 7.34 0 0 1 -3 .59h-6.59v-15.27zm-.23 12.45a4.26 4.26 0 0 0 1.41-.24 3.14 3.14 0 0 0 1.22-.78 4 4 0 0 0 .85-1.42 6.15 6.15 0 0 0 .32-2.14 8.79 8.79 0 0 0 -.22-2.08 4.22 4.22 0 0 0 -.72-1.6 3.18 3.18 0 0 0 -1.36-1 5.31 5.31 0 0 0 -2.08-.36h-2.4v9.63z" fill="#fff"/><path d="m176.94 304.08v-3.51l-2.11.43v-2l2.11-.43v-3.33l-2.11.43v-2l2.11-.47v-3.34l.88-.15v3.29l2.35-.53v-3.74l.9-.15v3.7l2.14-.45v2l-2.14.43v3.31l2.14-.4v2l-2.14.45v3.15l-.9.17v-3.12l-2.35.55v3.63zm.88-5.71 2.35-.53v-3.34l-2.35.58z" fill="#fff"/><circle cx="61.14" cy="232.97" fill="#2e3192" r="19.97"/><path d="m66.9 225.34v2.82h-7.38v3.53h6.4v2.61h-6.4v6.31h-3.36v-15.27z" fill="#fff"/><circle cx="61.14" cy="107.18" fill="#ec008c" r="19.97"/><path d="m62.77 114.83a5.63 5.63 0 0 1 -2.21.47 7.73 7.73 0 0 1 -3.15-.62 6.74 6.74 0 0 1 -2.41-1.68 7.44 7.44 0 0 1 -1.47-2.52 9.26 9.26 0 0 1 -.51-3.11 9.64 9.64 0 0 1 .51-3.18 7.67 7.67 0 0 1 1.47-2.54 6.71 6.71 0 0 1 2.37-1.71 8 8 0 0 1 5.43-.27 6.52 6.52 0 0 1 2 1 5.65 5.65 0 0 1 2.17 4h-3.18a3.22 3.22 0 0 0 -1.15-1.93 3.41 3.41 0 0 0 -2.08-.64 3.92 3.92 0 0 0 -1.92.44 3.57 3.57 0 0 0 -1.29 1.18 5.33 5.33 0 0 0 -.71 1.67 8.39 8.39 0 0 0 -.23 1.95 7.72 7.72 0 0 0 .23 1.87 5.26 5.26 0 0 0 .71 1.64 3.7 3.7 0 0 0 1.29 1.16 3.81 3.81 0 0 0 1.92.44 3.27 3.27 0 0 0 3.64-3.29h-3.38v-2.5h6.42v8.34h-2.14l-.35-1.73a4.93 4.93 0 0 1 -1.98 1.56z" fill="#fff"/><circle cx="279.02" cy="232.97" fill="#00a651" r="19.97"/><path d="m277 229.47a3.55 3.55 0 0 0 -.75-.85 3.58 3.58 0 0 0 -2.2-.77 4 4 0 0 0 -1.93.44 3.71 3.71 0 0 0 -1.28 1.18 5.09 5.09 0 0 0 -.72 1.68 8.24 8.24 0 0 0 -.22 1.94 7.8 7.8 0 0 0 .22 1.88 5 5 0 0 0 .72 1.63 3.78 3.78 0 0 0 1.28 1.17 4 4 0 0 0 1.93.44 3.07 3.07 0 0 0 2.4-1 4.25 4.25 0 0 0 1.06-2.48h3.25a7.53 7.53 0 0 1 -.66 2.59 6 6 0 0 1 -3.46 3.21 7.69 7.69 0 0 1 -2.59.43 8 8 0 0 1 -3.16-.61 6.86 6.86 0 0 1 -2.36-1.68 7.39 7.39 0 0 1 -1.47-2.51 9.08 9.08 0 0 1 -.52-3.12 9.33 9.33 0 0 1 .52-3.17 7.62 7.62 0 0 1 1.47-2.56 6.67 6.67 0 0 1 2.36-1.71 7.81 7.81 0 0 1 3.16-.62 7.7 7.7 0 0 1 2.38.36 6.66 6.66 0 0 1 2 1.06 5.82 5.82 0 0 1 1.47 1.72 6.28 6.28 0 0 1 .73 2.36h-3.23a2.76 2.76 0 0 0 -.4-1.01z" fill="#fff"/><path d="m285.37 240.66v-3.5l-2.11.42v-2l2.11-.43v-3.34l-2.11.43v-2l2.11-.47v-3.34l.88-.15v3.32l2.35-.54v-3.74l.9-.15v3.7l2.14-.45v2l-2.14.43v3.32l2.14-.41v2l-2.14.45v3.14l-.9.17v-3.12l-2.35.56v3.53zm.88-5.71 2.35-.53v-3.34l-2.35.58z" fill="#fff"/><path d="m192.9 39.81c0-1.19.6-1.81 1.43-1.81a3.93 3.93 0 0 1 1.7.54 3.66 3.66 0 0 0 1.49.51c.43 0 .63-.35.64-1h.71c.06 1.33-.62 1.81-1.37 1.81a4 4 0 0 1 -1.74-.53 3.69 3.69 0 0 0 -1.43-.52c-.44 0-.7.3-.71 1z" fill="#488bca"/><path d="m200.25 41.13a3.66 3.66 0 0 0 1.73.48c1.34 0 1.78-.85 1.76-1.51 0-1.09-1-1.56-2-1.56h-.59v-.79h.59c.77 0 1.74-.39 1.74-1.32 0-.62-.4-1.17-1.37-1.17a2.89 2.89 0 0 0 -1.56.51l-.29-.76a3.81 3.81 0 0 1 2.05-.6c1.54 0 2.24.91 2.24 1.86a2 2 0 0 1 -1.44 1.84 2 2 0 0 1 1.74 2c0 1.24-1 2.34-2.85 2.34a4 4 0 0 1 -2-.53z" fill="#488bca"/><path d="m206.25 37.49a.71.71 0 0 1 .71-.76.75.75 0 1 1 -.71.76zm0 4.23a.7.7 0 0 1 .75-.72.69.69 0 0 1 .71.75.71.71 0 1 1 -1.42 0z" fill="#488bca"/><path d="m208.64 42.33v-.64l.83-.81c2-1.89 2.9-2.9 2.9-4.08a1.38 1.38 0 0 0 -1.53-1.52 2.66 2.66 0 0 0 -1.66.66l-.33-.74a3.38 3.38 0 0 1 2.19-.79 2.19 2.19 0 0 1 2.39 2.26c0 1.44-1.05 2.6-2.69 4.19l-.61.57h3.49v.87z" fill="#488bca"/><path d="m134 68.46c0-1.2.6-1.81 1.43-1.81a3.79 3.79 0 0 1 1.7.54 3.78 3.78 0 0 0 1.49.5c.43 0 .63-.35.64-1h.74c.06 1.33-.62 1.81-1.37 1.81a3.92 3.92 0 0 1 -1.73-.53 3.78 3.78 0 0 0 -1.44-.52c-.44 0-.7.3-.71 1z" fill="#00a99d"/><path d="m144.41 71v-2.16h-3.63v-.68l3.48-5h1.14v4.84h1.09v.82h-1.09v2.18zm0-3v-2.6c0-.41 0-.81 0-1.22-.25.45-.44.79-.65 1.15l-1.91 2.67z" fill="#00a99d"/><path d="m147.39 66.13a.71.71 0 0 1 .71-.76.75.75 0 1 1 -.71.76zm0 4.23a.7.7 0 0 1 .71-.75.69.69 0 0 1 .71.75.71.71 0 1 1 -1.42 0z" fill="#00a99d"/><path d="m150 69.78a3.66 3.66 0 0 0 1.73.48c1.34 0 1.78-.86 1.76-1.52 0-1.09-1-1.55-2-1.55h-.59v-.8h.59c.77 0 1.74-.39 1.74-1.32 0-.62-.4-1.17-1.37-1.17a3 3 0 0 0 -1.56.51l-.29-.76a3.81 3.81 0 0 1 2.05-.6c1.54 0 2.24.91 2.24 1.86a2 2 0 0 1 -1.44 1.84 2 2 0 0 1 1.74 2c0 1.25-1 2.34-2.85 2.34a4 4 0 0 1 -2-.53z" fill="#00a99d"/></svg>