<?xml version="1.0" standalone="no"?>
<svg class="max-h-3xl w-full my-20 select-none" id="dissonance" version="1.1" baseProfile="full" viewBox="-100 -100 1400 700" xmlns="http://www.w3.org/2000/svg" data-v-db5b0026=""><defs data-v-db5b0026=""><linearGradient id="intervalGradient" data-v-db5b0026=""><stop offset="0%" stop-color="hsla(0,100%,40%,1)" data-v-db5b0026=""/><stop offset="100%" stop-color="hsla(-48.58608398437502,100%,40%,1)" data-v-db5b0026=""/></linearGradient></defs><g class="cursor-pointer" transform="translate(10,0)" data-v-db5b0026=""><rect x="0" y="-70" width="130" height="60" fill="currentColor" opacity="0.1" ry="20" data-v-db5b0026=""/><text font-weight="bold" fill="currentColor" font-family="Commissioner, sans-serif" font-size="32px" text-anchor="start" x="15" y="-30" data-v-db5b0026="">220 hz</text></g><g class="cursor-pointer" transform="translate(150,0)" data-v-db5b0026=""><rect x="0" y="-70" width="130" height="60" fill="currentColor" opacity="0.1" ry="20" data-v-db5b0026=""/><text font-weight="normal" fill="currentColor" font-family="Commissioner, sans-serif" font-size="32px" text-anchor="start" x="15" y="-30" data-v-db5b0026="">440 hz</text></g><text fill="currentColor" font-family="Commissioner, sans-serif" font-size="32px" text-anchor="middle" x="600" y="-30" data-v-db5b0026="">Sensory dissonance curve</text><g class="cursor-pointer" transform="translate(900,0)" data-v-db5b0026=""><rect x="0" y="-70" width="208" height="60" fill="currentColor" opacity="0.1" ry="20" data-v-db5b0026=""/><text font-weight="bold" fill="currentColor" font-family="Commissioner, sans-serif" font-size="32px" text-anchor="start" x="15" y="-30" data-v-db5b0026="">SAWTOOTH</text></g><g class="cursor-pointer" transform="translate(1120,0)" data-v-db5b0026=""><rect x="0" y="-70" width="104" height="60" fill="currentColor" opacity="0.1" ry="20" data-v-db5b0026=""/><text font-weight="normal" fill="currentColor" font-family="Commissioner, sans-serif" font-size="32px" text-anchor="start" x="15" y="-30" data-v-db5b0026="">SINE</text></g><rect x="0" y="0" width="1200" height="500" fill="none" stroke="currentColor" stroke-width="1px" opacity="0.5" data-v-db5b0026=""/><text fill="currentColor" font-family="Commissioner, sans-serif" font-size="25px" text-anchor="middle" x="-20" y="250" transform-origin="-20 250" transform="rotate(-90)" data-v-db5b0026="">Dissonance</text><line x1="0" x2="0" y1="0" y2="500" stroke="hsla(0,100%,40%,1)" stroke-width="1" data-v-db5b0026=""/><text fill="currentColor" font-family="Commissioner, sans-serif" font-size="25px" text-anchor="middle" x="600" y="570" data-v-db5b0026="">Frequency ratio (cents)</text><g transform="translate(0,0)" data-v-db5b0026=""><line stroke="currentColor" x1="0" x2="0" y1="0" y2="530" stroke-width="1" data-v-db5b0026=""/><text fill="currentColor" font-family="Commissioner, sans-serif" font-size="18px" text-anchor="end" x="-5" y="520" data-v-db5b0026="">A</text><text fill="currentColor" font-family="Commissioner, sans-serif" font-size="18px" text-anchor="start" x="5" y="520" data-v-db5b0026="">0</text></g><g transform="translate(100,0)" data-v-db5b0026=""><line stroke="currentColor" x1="0" x2="0" y1="0" y2="530" stroke-width="1" data-v-db5b0026=""/><text fill="currentColor" font-family="Commissioner, sans-serif" font-size="18px" text-anchor="end" x="-5" y="520" data-v-db5b0026="">A#</text><text fill="currentColor" font-family="Commissioner, sans-serif" font-size="18px" text-anchor="start" x="5" y="520" data-v-db5b0026="">100</text></g><g transform="translate(200,0)" data-v-db5b0026=""><line stroke="currentColor" x1="0" x2="0" y1="0" y2="530" stroke-width="1" data-v-db5b0026=""/><text fill="currentColor" font-family="Commissioner, sans-serif" font-size="18px" text-anchor="end" x="-5" y="520" data-v-db5b0026="">B</text><text fill="currentColor" font-family="Commissioner, sans-serif" font-size="18px" text-anchor="start" x="5" y="520" data-v-db5b0026="">200</text></g><g transform="translate(300,0)" data-v-db5b0026=""><line stroke="currentColor" x1="0" x2="0" y1="0" y2="530" stroke-width="1" data-v-db5b0026=""/><text fill="currentColor" font-family="Commissioner, sans-serif" font-size="18px" text-anchor="end" x="-5" y="520" data-v-db5b0026="">C</text><text fill="currentColor" font-family="Commissioner, sans-serif" font-size="18px" text-anchor="start" x="5" y="520" data-v-db5b0026="">300</text></g><g transform="translate(400,0)" data-v-db5b0026=""><line stroke="currentColor" x1="0" x2="0" y1="0" y2="530" stroke-width="1" data-v-db5b0026=""/><text fill="currentColor" font-family="Commissioner, sans-serif" font-size="18px" text-anchor="end" x="-5" y="520" data-v-db5b0026="">C#</text><text fill="currentColor" font-family="Commissioner, sans-serif" font-size="18px" text-anchor="start" x="5" y="520" data-v-db5b0026="">400</text></g><g transform="translate(500,0)" data-v-db5b0026=""><line stroke="currentColor" x1="0" x2="0" y1="0" y2="530" stroke-width="1" data-v-db5b0026=""/><text fill="currentColor" font-family="Commissioner, sans-serif" font-size="18px" text-anchor="end" x="-5" y="520" data-v-db5b0026="">D</text><text fill="currentColor" font-family="Commissioner, sans-serif" font-size="18px" text-anchor="start" x="5" y="520" data-v-db5b0026="">500</text></g><g transform="translate(600,0)" data-v-db5b0026=""><line stroke="currentColor" x1="0" x2="0" y1="0" y2="530" stroke-width="1" data-v-db5b0026=""/><text fill="currentColor" font-family="Commissioner, sans-serif" font-size="18px" text-anchor="end" x="-5" y="520" data-v-db5b0026="">D#</text><text fill="currentColor" font-family="Commissioner, sans-serif" font-size="18px" text-anchor="start" x="5" y="520" data-v-db5b0026="">600</text></g><g transform="translate(700,0)" data-v-db5b0026=""><line stroke="currentColor" x1="0" x2="0" y1="0" y2="530" stroke-width="1" data-v-db5b0026=""/><text fill="currentColor" font-family="Commissioner, sans-serif" font-size="18px" text-anchor="end" x="-5" y="520" data-v-db5b0026="">E</text><text fill="currentColor" font-family="Commissioner, sans-serif" font-size="18px" text-anchor="start" x="5" y="520" data-v-db5b0026="">700</text></g><g transform="translate(800,0)" data-v-db5b0026=""><line stroke="currentColor" x1="0" x2="0" y1="0" y2="530" stroke-width="1" data-v-db5b0026=""/><text fill="currentColor" font-family="Commissioner, sans-serif" font-size="18px" text-anchor="end" x="-5" y="520" data-v-db5b0026="">F</text><text fill="currentColor" font-family="Commissioner, sans-serif" font-size="18px" text-anchor="start" x="5" y="520" data-v-db5b0026="">800</text></g><g transform="translate(900,0)" data-v-db5b0026=""><line stroke="currentColor" x1="0" x2="0" y1="0" y2="530" stroke-width="1" data-v-db5b0026=""/><text fill="currentColor" font-family="Commissioner, sans-serif" font-size="18px" text-anchor="end" x="-5" y="520" data-v-db5b0026="">F#</text><text fill="currentColor" font-family="Commissioner, sans-serif" font-size="18px" text-anchor="start" x="5" y="520" data-v-db5b0026="">900</text></g><g transform="translate(1000,0)" data-v-db5b0026=""><line stroke="currentColor" x1="0" x2="0" y1="0" y2="530" stroke-width="1" data-v-db5b0026=""/><text fill="currentColor" font-family="Commissioner, sans-serif" font-size="18px" text-anchor="end" x="-5" y="520" data-v-db5b0026="">G</text><text fill="currentColor" font-family="Commissioner, sans-serif" font-size="18px" text-anchor="start" x="5" y="520" data-v-db5b0026="">1000</text></g><g transform="translate(1100,0)" data-v-db5b0026=""><line stroke="currentColor" x1="0" x2="0" y1="0" y2="530" stroke-width="1" data-v-db5b0026=""/><text fill="currentColor" font-family="Commissioner, sans-serif" font-size="18px" text-anchor="end" x="-5" y="520" data-v-db5b0026="">G#</text><text fill="currentColor" font-family="Commissioner, sans-serif" font-size="18px" text-anchor="start" x="5" y="520" data-v-db5b0026="">1100</text></g><g transform="translate(1200,0)" data-v-db5b0026=""><line stroke="currentColor" x1="0" x2="0" y1="0" y2="530" stroke-width="1" data-v-db5b0026=""/><text fill="currentColor" font-family="Commissioner, sans-serif" font-size="18px" text-anchor="end" x="-5" y="520" data-v-db5b0026="">A</text><text fill="currentColor" font-family="Commissioner, sans-serif" font-size="18px" text-anchor="start" x="5" y="520" data-v-db5b0026="">1200</text></g><path fill="none" stroke="currentColor" stroke-width="3" stroke-linecap="round" stroke-linejoin="round" stroke-miterlimit="10" d="M0,504.9c22.4-726,93.2-320.8,159.7-254.2c43.1,43.1,63.7,39.9,77.7,48.1c19.7,11.5,27.7,49.8,27.7,49.8c11.4-48.9,35-50,49.8,0.8c18-74.6,51.2-50.4,70.3,21.3c28.9-86.8,97.1-39.9,109.8,25.3c29.4-94.9,76.2-73.7,84.5-22.9c27.4-97.3,109.6-86.7,119.3,86.1c0,0,17.8-110.8,50.6-111.7c32.4-0.9,66.4,13.7,95.6,24.8c21.2,8,37.9,54.5,37.9,54.5s14.2-60.8,42.7-60.8c28.4,0,41.9,53.2,41.9,53.2c20.1-69.4,63.4-42,106.7-65c25.3-13.4,45.4-39.5,67.2-37.1c44.2,4.7,58.8,188,58.8,188" data-v-db5b0026=""/><!--v-if--><g transform="translate(0 0)" data-v-db5b0026=""><line stroke="hsla(0,100%,40%,1)" opacity="1" stroke-width="1" x1="0" x2="0" y1="0" y2="500" data-v-db5b0026=""/><text font-weight="bold" font-family="Commissioner, sans-serif" font-size="22px" text-anchor="start" fill="hsla(0,100%,40%,1)" x="5" y="25" data-v-db5b0026="">1P</text><text font-family="Commissioner, sans-serif" font-size="22px" text-anchor="start" fill="hsla(0,100%,40%,1)" x="5" y="60" data-v-db5b0026="">1/1</text></g><g transform="translate(111.73128526977774 0)" data-v-db5b0026=""><line stroke="hsla(30,100%,40%,1)" opacity="1" stroke-width="1" x1="0" x2="0" y1="0" y2="500" data-v-db5b0026=""/><text font-weight="bold" font-family="Commissioner, sans-serif" font-size="22px" text-anchor="start" fill="hsla(30,100%,40%,1)" x="5" y="25" data-v-db5b0026="">m2</text><text font-family="Commissioner, sans-serif" font-size="22px" text-anchor="start" fill="hsla(30,100%,40%,1)" x="5" y="60" data-v-db5b0026="">16/15</text></g><g transform="translate(203.91000173077484 0)" data-v-db5b0026=""><line stroke="hsla(60,100%,40%,1)" opacity="1" stroke-width="1" x1="0" x2="0" y1="0" y2="500" data-v-db5b0026=""/><text font-weight="bold" font-family="Commissioner, sans-serif" font-size="22px" text-anchor="start" fill="hsla(60,100%,40%,1)" x="5" y="25" data-v-db5b0026="">M2</text><text font-family="Commissioner, sans-serif" font-size="22px" text-anchor="start" fill="hsla(60,100%,40%,1)" x="5" y="60" data-v-db5b0026="">9/8</text></g><g transform="translate(315.64128700055255 0)" data-v-db5b0026=""><line stroke="hsla(90,100%,40%,1)" opacity="1" stroke-width="1" x1="0" x2="0" y1="0" y2="500" data-v-db5b0026=""/><text font-weight="bold" font-family="Commissioner, sans-serif" font-size="22px" text-anchor="start" fill="hsla(90,100%,40%,1)" x="5" y="25" data-v-db5b0026="">m3</text><text font-family="Commissioner, sans-serif" font-size="22px" text-anchor="start" fill="hsla(90,100%,40%,1)" x="5" y="60" data-v-db5b0026="">6/5</text></g><g transform="translate(386.3137138648348 0)" data-v-db5b0026=""><line stroke="hsla(120,100%,40%,1)" opacity="1" stroke-width="1" x1="0" x2="0" y1="0" y2="500" data-v-db5b0026=""/><text font-weight="bold" font-family="Commissioner, sans-serif" font-size="22px" text-anchor="start" fill="hsla(120,100%,40%,1)" x="5" y="25" data-v-db5b0026="">M3</text><text font-family="Commissioner, sans-serif" font-size="22px" text-anchor="start" fill="hsla(120,100%,40%,1)" x="5" y="60" data-v-db5b0026="">5/4</text></g><g transform="translate(498.0449991346125 0)" data-v-db5b0026=""><line stroke="hsla(150,100%,40%,1)" opacity="1" stroke-width="1" x1="0" x2="0" y1="0" y2="500" data-v-db5b0026=""/><text font-weight="bold" font-family="Commissioner, sans-serif" font-size="22px" text-anchor="start" fill="hsla(150,100%,40%,1)" x="5" y="25" data-v-db5b0026="">P4</text><text font-family="Commissioner, sans-serif" font-size="22px" text-anchor="start" fill="hsla(150,100%,40%,1)" x="5" y="60" data-v-db5b0026="">4/3</text></g><g transform="translate(590.2237155956096 0)" data-v-db5b0026=""><line stroke="hsla(180,100%,40%,1)" opacity="1" stroke-width="1" x1="0" x2="0" y1="0" y2="500" data-v-db5b0026=""/><text font-weight="bold" font-family="Commissioner, sans-serif" font-size="22px" text-anchor="start" fill="hsla(180,100%,40%,1)" x="5" y="25" data-v-db5b0026="">TT</text><text font-family="Commissioner, sans-serif" font-size="22px" text-anchor="start" fill="hsla(180,100%,40%,1)" x="5" y="60" data-v-db5b0026="">45/32</text></g><g transform="translate(701.9550008653874 0)" data-v-db5b0026=""><line stroke="hsla(210,100%,40%,1)" opacity="1" stroke-width="1" x1="0" x2="0" y1="0" y2="500" data-v-db5b0026=""/><text font-weight="bold" font-family="Commissioner, sans-serif" font-size="22px" text-anchor="start" fill="hsla(210,100%,40%,1)" x="5" y="25" data-v-db5b0026="">P5</text><text font-family="Commissioner, sans-serif" font-size="22px" text-anchor="start" fill="hsla(210,100%,40%,1)" x="5" y="60" data-v-db5b0026="">3/2</text></g><g transform="translate(813.6862861351652 0)" data-v-db5b0026=""><line stroke="hsla(240,100%,40%,1)" opacity="1" stroke-width="1" x1="0" x2="0" y1="0" y2="500" data-v-db5b0026=""/><text font-weight="bold" font-family="Commissioner, sans-serif" font-size="22px" text-anchor="start" fill="hsla(240,100%,40%,1)" x="5" y="25" data-v-db5b0026="">m6</text><text font-family="Commissioner, sans-serif" font-size="22px" text-anchor="start" fill="hsla(240,100%,40%,1)" x="5" y="60" data-v-db5b0026="">8/5</text></g><g transform="translate(884.3587129994474 0)" data-v-db5b0026=""><line stroke="hsla(270,100%,40%,1)" opacity="1" stroke-width="1" x1="0" x2="0" y1="0" y2="500" data-v-db5b0026=""/><text font-weight="bold" font-family="Commissioner, sans-serif" font-size="22px" text-anchor="start" fill="hsla(270,100%,40%,1)" x="5" y="25" data-v-db5b0026="">M6</text><text font-family="Commissioner, sans-serif" font-size="22px" text-anchor="start" fill="hsla(270,100%,40%,1)" x="5" y="60" data-v-db5b0026="">5/3</text></g><g transform="translate(1017.5962878659401 0)" data-v-db5b0026=""><line stroke="hsla(300,100%,40%,1)" opacity="1" stroke-width="1" x1="0" x2="0" y1="0" y2="500" data-v-db5b0026=""/><text font-weight="bold" font-family="Commissioner, sans-serif" font-size="22px" text-anchor="start" fill="hsla(300,100%,40%,1)" x="5" y="25" data-v-db5b0026="">m7</text><text font-family="Commissioner, sans-serif" font-size="22px" text-anchor="start" fill="hsla(300,100%,40%,1)" x="5" y="60" data-v-db5b0026="">9/5</text></g><g transform="translate(1088.2687147302222 0)" data-v-db5b0026=""><line stroke="hsla(330,100%,40%,1)" opacity="1" stroke-width="1" x1="0" x2="0" y1="0" y2="500" data-v-db5b0026=""/><text font-weight="bold" font-family="Commissioner, sans-serif" font-size="22px" text-anchor="start" fill="hsla(330,100%,40%,1)" x="5" y="25" data-v-db5b0026="">M7</text><text font-family="Commissioner, sans-serif" font-size="22px" text-anchor="start" fill="hsla(330,100%,40%,1)" x="5" y="60" data-v-db5b0026="">15/8</text></g><g transform="translate(1200 0)" data-v-db5b0026=""><line stroke="hsla(0,100%,40%,1)" opacity="1" stroke-width="1" x1="0" x2="0" y1="0" y2="500" data-v-db5b0026=""/><text font-weight="bold" font-family="Commissioner, sans-serif" font-size="22px" text-anchor="start" fill="hsla(0,100%,40%,1)" x="5" y="25" data-v-db5b0026="">P8</text><text font-family="Commissioner, sans-serif" font-size="22px" text-anchor="start" fill="hsla(0,100%,40%,1)" x="5" y="60" data-v-db5b0026="">2/1</text></g><!--v-if--><g transform="translate(1038.04638671875, 0)" data-v-db5b0026=""><line class="pointer" x1="0" x2="0" y1="0" y2="500" stroke-width="1" stroke="hsla(-48.58608398437502,100%,40%,1)" data-v-db5b0026=""/><circle class="pointer" cx="0" cy="0" r="10" fill="currentColor" transform="translate(0, 500)" data-v-db5b0026=""/><circle class="pointer" cx="0" cy="500" r="8" fill="currentColor" data-v-db5b0026=""/><text font-family="Commissioner, sans-serif" font-size="22px" text-anchor="end" x="-20" fill="currentColor" y="490" data-v-db5b0026="">401 hz</text><text font-family="Commissioner, sans-serif" font-size="22px" text-anchor="start" x="20" fill="currentColor" y="490" data-v-db5b0026="">1038</text></g><!--v-if--></svg>