<svg height="53.695278mm" viewBox="0 0 965.02864 634.3778" width="81.705757mm" xmlns="http://www.w3.org/2000/svg"><g fill="none" stroke="#000" stroke-linejoin="bevel"><g fill-rule="evenodd" stroke-width=".534781" transform="matrix(3.11654 0 0 3.11654 799.3542 377.77165)"><path d="m0 0h49.4132"/><path d="m0 10.0271h49.4132"/><path d="m0 20.0543h49.4132"/><path d="m0 30.0814h49.4132"/><path d="m0 40.1086h49.4132"/><path d="m0 50.1357h49.4132"/></g><g fill-rule="evenodd" stroke-width=".534781" transform="matrix(3.11654 0 0 3.11654 799.3542 75.68867)"><path d="m0 0h49.4132"/><path d="m0 6.68476h49.4132"/><path d="m0 13.3695h49.4132"/><path d="m0 20.0543h49.4132"/><path d="m0 26.7391h49.4132"/></g><g fill-rule="evenodd" stroke-width=".534781" transform="matrix(3.11654 0 0 3.11654 353.9632 377.77165)"><path d="m0 0h142.911"/><path d="m0 10.0271h142.911"/><path d="m0 20.0543h142.911"/><path d="m0 30.0814h142.911"/><path d="m0 40.1086h142.911"/><path d="m0 50.1357h142.911"/></g><g fill-rule="evenodd" stroke-width=".534781" transform="matrix(3.11654 0 0 3.11654 353.9632 75.68867)"><path d="m0 0h142.911"/><path d="m0 6.68476h142.911"/><path d="m0 13.3695h142.911"/><path d="m0 20.0543h142.911"/><path d="m0 26.7391h142.911"/></g><g fill-rule="evenodd" stroke-width=".534781" transform="matrix(3.11654 0 0 3.11654 11.6762 377.77165)"><path d="m0 0h109.829"/><path d="m0 10.0271h109.829"/><path d="m0 20.0543h109.829"/><path d="m0 30.0814h109.829"/><path d="m0 40.1086h109.829"/><path d="m0 50.1357h109.829"/></g><g fill-rule="evenodd" stroke-width=".534781" transform="matrix(3.11654 0 0 3.11654 11.6762 75.68867)"><path d="m0 0h109.829"/><path d="m0 6.68476h109.829"/><path d="m0 13.3695h109.829"/><path d="m0 20.0543h109.829"/><path d="m0 26.7391h109.829"/></g><path d="m.534781 0v147.065" stroke-width="1.06956" transform="matrix(3.11654 0 0 3.11654 11.6762 75.68867)"/><path d="m.534781 0v50.1357" stroke-width="1.06956" transform="matrix(3.11654 0 0 3.11654 931.2642 377.77165)"/><path d="m5.41466 0v50.1357" stroke-width="3.34238" transform="matrix(3.11654 0 0 3.11654 931.2642 377.77165)"/><path d="m.534781 0v26.7391" stroke-width="1.06956" transform="matrix(3.11654 0 0 3.11654 931.2642 75.68867)"/><path d="m5.41466 0v26.7391" stroke-width="3.34238" transform="matrix(3.11654 0 0 3.11654 931.2642 75.68867)"/><path d="m.534781 0v50.1357" stroke-width="1.06956" transform="matrix(3.11654 0 0 3.11654 796.0142 377.77165)"/><path d="m.534781 0v26.7391" stroke-width="1.06956" transform="matrix(3.11654 0 0 3.11654 796.0142 75.68867)"/><path d="m.534781 0v50.1357" stroke-width="1.06956" transform="matrix(3.11654 0 0 3.11654 350.6302 377.77165)"/><path d="m.534781 0v26.7391" stroke-width="1.06956" transform="matrix(3.11654 0 0 3.11654 350.6302 75.68867)"/><path d="m0 0v-20.0543" stroke-linecap="round" stroke-width=".869019" transform="matrix(3.11654 0 0 3.11654 743.4342 356.93865)"/><path d="m0 0v20.0543" stroke-linecap="round" stroke-width=".869019" transform="matrix(3.11654 0 0 3.11654 743.4342 554.85464)"/><path d="m0-1.25549v-17.12761" stroke-linecap="round" stroke-width=".869019" transform="matrix(3.11654 0 0 3.11654 753.8442 86.10467)"/><path d="m0 1.25549v43.86671" stroke-linecap="round" stroke-width=".869019" transform="matrix(3.11654 0 0 3.11654 729.1642 86.10467)"/><path d="m0 0v20.0543" stroke-linecap="round" stroke-width=".869019" transform="matrix(3.11654 0 0 3.11654 694.5042 554.85464)"/><path d="m0 1.25549v41.07101" stroke-linecap="round" stroke-width=".869019" transform="matrix(3.11654 0 0 3.11654 680.2342 106.93867)"/><path d="m0 0v20.0543" stroke-linecap="round" stroke-width=".869019" transform="matrix(3.11654 0 0 3.11654 645.5842 554.85464)"/><path d="m0 1.25549v34.93301" stroke-linecap="round" stroke-width=".869019" transform="matrix(3.11654 0 0 3.11654 631.3142 138.18867)"/><path d="m0 0v-20.0543" stroke-linecap="round" stroke-width=".869019" transform="matrix(3.11654 0 0 3.11654 596.2742 356.93865)"/></g><path d="m.445312 1.08594c-.296874-.296878-.445312-.658857-.445312-1.08594s.148438-.789062.445312-1.08594c.296876-.29687.656248-.44531 1.078128-.44531.42187 0 .78385.14844 1.08594.44531.30208.296878.45312.658857.45312 1.08594s-.15104.789062-.45312 1.08594c-.30209.29687-.66407.44531-1.08594.44531-.42188 0-.781252-.14844-1.078128-.44531" transform="matrix(3.11654 0 0 3.11654 611.8542 344.43865)"/><path d="m0 0v20.0543" fill="none" stroke="#000" stroke-linecap="round" stroke-linejoin="bevel" stroke-width=".869019" transform="matrix(3.11654 0 0 3.11654 596.2742 554.85464)"/><path d="m0-1.25549v-17.12761" fill="none" stroke="#000" stroke-linecap="round" stroke-linejoin="bevel" stroke-width=".869019" transform="matrix(3.11654 0 0 3.11654 606.6742 86.10467)"/><path d="m0 1.25549v18.79881" fill="none" stroke="#000" stroke-linecap="round" stroke-linejoin="bevel" stroke-width=".869019" transform="matrix(3.11654 0 0 3.11654 581.9942 200.68867)"/><path d="m0 0v-20.0543" fill="none" stroke="#000" stroke-linecap="round" stroke-linejoin="bevel" stroke-width=".869019" transform="matrix(3.11654 0 0 3.11654 543.6842 356.93865)"/><path d="m0 0v20.0543" fill="none" stroke="#000" stroke-linecap="round" stroke-linejoin="bevel" stroke-width=".869019" transform="matrix(3.11654 0 0 3.11654 543.6842 554.85464)"/><path d="m0-1.25549v-16.29201" fill="none" stroke="#000" stroke-linecap="round" stroke-linejoin="bevel" stroke-width=".869019" transform="matrix(3.11654 0 0 3.11654 554.0942 75.68867)"/><path d="m0 1.25549v22.14121" fill="none" stroke="#000" stroke-linecap="round" stroke-linejoin="bevel" stroke-width=".869019" transform="matrix(3.11654 0 0 3.11654 529.4142 127.77166)"/><path d="m0 0v20.0543" fill="none" stroke="#000" stroke-linecap="round" stroke-linejoin="bevel" stroke-width=".869019" transform="matrix(3.11654 0 0 3.11654 494.7642 554.85464)"/><path d="m0 1.25549v34.94631" fill="none" stroke="#000" stroke-linecap="round" stroke-linejoin="bevel" stroke-width=".869019" transform="matrix(3.11654 0 0 3.11654 480.4842 96.52167)"/><path d="m0 0v20.0543" fill="none" stroke="#000" stroke-linecap="round" stroke-linejoin="bevel" stroke-width=".869019" transform="matrix(3.11654 0 0 3.11654 445.8342 554.85464)"/><path d="m0 1.25549v27.69711" fill="none" stroke="#000" stroke-linecap="round" stroke-linejoin="bevel" stroke-width=".869019" transform="matrix(3.11654 0 0 3.11654 431.5642 127.77166)"/><path d="m0 0v-20.0543" fill="none" stroke="#000" stroke-linecap="round" stroke-linejoin="bevel" stroke-width=".869019" transform="matrix(3.11654 0 0 3.11654 396.5242 356.93865)"/><path d="m.445312 1.08594c-.296874-.296878-.445312-.658857-.445312-1.08594s.148438-.789062.445312-1.08594c.296876-.29687.656248-.44531 1.078128-.44531.42187 0 .78385.14844 1.08594.44531.30208.296878.45312.658857.45312 1.08594s-.15104.789062-.45312 1.08594c-.30209.29687-.66407.44531-1.08594.44531-.42188 0-.781252-.14844-1.078128-.44531" transform="matrix(3.11654 0 0 3.11654 412.1042 344.43865)"/><path d="m0 0v20.0543" fill="none" stroke="#000" stroke-linecap="round" stroke-linejoin="bevel" stroke-width=".869019" transform="matrix(3.11654 0 0 3.11654 396.5242 554.85464)"/><path d="m0-1.25549v-16.29201" fill="none" stroke="#000" stroke-linecap="round" stroke-linejoin="bevel" stroke-width=".869019" transform="matrix(3.11654 0 0 3.11654 406.9242 75.68867)"/><path d="m0 1.25549v17.12761" fill="none" stroke="#000" stroke-linecap="round" stroke-linejoin="bevel" stroke-width=".869019" transform="matrix(3.11654 0 0 3.11654 382.2492 169.43866)"/><path d="m0 0v10.0271" fill="none" stroke="#000" stroke-linecap="round" stroke-linejoin="bevel" stroke-width=".869019" transform="matrix(3.11654 0 0 3.11654 300.2662 586.10465)"/><path d="m0-1.02678v-62.47852" fill="none" stroke="#000" stroke-linecap="round" stroke-linejoin="bevel" stroke-width=".869019" transform="matrix(3.11654 0 0 3.11654 311.4722 211.10465)"/><path d="m0 0v10.0271" fill="none" stroke="#000" stroke-linecap="round" stroke-linejoin="bevel" stroke-width=".869019" transform="matrix(3.11654 0 0 3.11654 234.2782 586.10465)"/><path d="m0 1.04817v52.42993" fill="none" stroke="#000" stroke-linecap="round" stroke-linejoin="bevel" stroke-width=".869019" transform="matrix(3.11654 0 0 3.11654 219.2092 54.85467)"/><path d="m0 0h12.7984" fill="none" stroke="#000" stroke-linecap="square" stroke-linejoin="bevel" stroke-width="1.06956" transform="matrix(3.11654 0 0 3.11654 574.3942 179.85467)"/><path d="m0 0h12.7984" fill="none" stroke="#000" stroke-linecap="square" stroke-linejoin="bevel" stroke-width="1.06956" transform="matrix(3.11654 0 0 3.11654 574.3942 200.68867)"/><path d="m0 0h13.3109" fill="none" stroke="#000" stroke-linecap="square" stroke-linejoin="bevel" stroke-width="1.06956" transform="matrix(3.11654 0 0 3.11654 277.5932 179.85467)"/><path d="m0 0h13.3109" fill="none" stroke="#000" stroke-linecap="square" stroke-linejoin="bevel" stroke-width="1.06956" transform="matrix(3.11654 0 0 3.11654 277.5932 200.68867)"/><path d="m0 0h13.3109" fill="none" stroke="#000" stroke-linecap="square" stroke-linejoin="bevel" stroke-width="1.06956" transform="matrix(3.11654 0 0 3.11654 211.6042 54.85467)"/><path d="m-.668476-5.01357h7.336956v10.02714h-7.336956z" fill="#fff" fill-rule="evenodd" transform="matrix(3.11654 0 0 3.11654 837.5242 409.02166)"/><path d="m4.25-1.84375c0-.34375-.0625-.65365-.1875-.92969s-.3099-.50781-.55469-.69531-.48698-.34115-.72656-.46094-.54687-.24739-.92187-.38281v-.20312c.5625-.1875.96354-.40105 1.20312-.64063s.35938-.55729.35938-.95313c0-.38541-.10938-.6927-.32813-.92187s-.52083-.34375-.90625-.34375c-.30208 0-.5651.07812-.78906.23438-.22396.15624-.450523.42187-.67969.79687l-.25-.15625c.65625-1.16667 1.57292-1.75 2.75-1.75.61458 0 1.09635.13802 1.44531.41406s.52344.65886.52344 1.14844c0 .35417-.07292.64062-.21875.85938-.14583.21874-.41667.44791-.8125.6875 1 .44791 1.5 1.17187 1.5 2.17187 0 .875-.35417 1.61719-1.0625 2.226562-.70833.609376-1.5625.914063-2.5625.914063-.55208 0-.9974-.0963542-1.335938-.289063-.338541-.192708-.507812-.45052-.507812-.773437 0-.197915.072917-.361975.21875-.492185s.333333-.19531.5625-.19531c.27083 0 .52604.09895.76563.29687.23958.19792.46874.395833.6875.59375.21874.197917.4375.296875.65624.296875.35417 0 .63803-.130208.85157-.390625.21354-.26042.32031-.61458.32031-1.0625" transform="matrix(3.11654 0 0 3.11654 837.5242 423.04564)"/><path d="m-.668476-5.01357h7.336956v10.02714h-7.336956z" fill="#fff" fill-rule="evenodd" transform="matrix(3.11654 0 0 3.11654 837.5242 471.52165)"/><path d="m.28125-4.07812c0-1.17709.265625-2.16667.79687-2.96876.53126-.80208 1.1875-1.20312 1.96876-1.20312.78124 0 1.43489.40104 1.96093 1.20312.52604.80209.78907 1.80209.78907 3 0 1.20834-.26042 2.21094-.78126 3.00782-.52083.796872-1.17708 1.19531-1.96874 1.19531-.8125 0-1.47657-.395833-1.99219-1.1875-.515628-.79167-.77344-1.80729-.77344-3.04687m2.76563 3.89062c.26041 0 .45833-.179688.59374-.539062.13542-.359378.20313-1.002608.20313-1.929688v-2.75c0-.88542-.0625-1.52604-.1875-1.92187-.125-.39584-.33333-.59376-.625-.59376s-.4974.19271-.61719.57813-.17968 1.03125-.17968 1.9375v2.75c0 .88542.0625 1.51823.1875 1.898438s.33333.570312.625.570312" transform="matrix(3.11654 0 0 3.11654 837.5242 485.54567)"/><path d="m5.79688-3.03125c-.625 0-1.07813.21875-1.35938.65625-.32292.42708-.48438 1-.48438 1.71875 0 .822917.21876 1.536458.65626 2.14063.44791.57291.93229.97395 1.45312 1.20312.47917.22917.97917.34375 1.5.34375.61458 0 1.08333-.21875 1.40625-.65625.29167-.4375.4375-1.01042.4375-1.71875 0-.822917-.21875-1.536458-.65625-2.14063-.4375-.5625-.91146-.96354-1.42188-1.20312-.51041-.22917-1.02083-.34375-1.53124-.34375m.90624-.6875c1.89584 0 3.47398.36979 4.73438 1.10937 1.2917.73959 1.9375 1.60938 1.9375 2.60938 0 1.07292-.6615 1.95312-1.9844 2.64062-1.3229.71876-2.88539 1.07813-4.68748 1.07813-1.86458 0-3.44791-.36979-4.75-1.10937-1.302078-.73959-1.95312-1.60938-1.95312-2.60938 0-1.07292.666667-1.95312 2-2.64062 1.32292-.71876 2.89062-1.07813 4.70312-1.07813" transform="matrix(3.11654 0 0 3.11654 824.3542 96.52167)"/><path d="m5.79688-3.03125c-.625 0-1.07813.21875-1.35938.65625-.32292.42708-.48438 1-.48438 1.71875 0 .822917.21876 1.536458.65626 2.14063.44791.57291.93229.97395 1.45312 1.20312.47917.22917.97917.34375 1.5.34375.61458 0 1.08333-.21875 1.40625-.65625.29167-.4375.4375-1.01042.4375-1.71875 0-.822917-.21875-1.536458-.65625-2.14063-.4375-.5625-.91146-.96354-1.42188-1.20312-.51041-.22917-1.02083-.34375-1.53124-.34375m.90624-.6875c1.89584 0 3.47398.36979 4.73438 1.10937 1.2917.73959 1.9375 1.60938 1.9375 2.60938 0 1.07292-.6615 1.95312-1.9844 2.64062-1.3229.71876-2.88539 1.07813-4.68748 1.07813-1.86458 0-3.44791-.36979-4.75-1.10937-1.302078-.73959-1.95312-1.60938-1.95312-2.60938 0-1.07292.666667-1.95312 2-2.64062 1.32292-.71876 2.89062-1.07813 4.70312-1.07813" transform="matrix(3.11654 0 0 3.11654 824.3542 169.43866)"/><path d="m-.668476-5.01357h7.336956v10.02714h-7.336956z" fill="#fff" fill-rule="evenodd" transform="matrix(3.11654 0 0 3.11654 734.0842 377.77165)"/><path d="m.28125-4.07812c0-1.17709.265625-2.16667.79687-2.96876.53126-.80208 1.1875-1.20312 1.96876-1.20312.78124 0 1.43489.40104 1.96093 1.20312.52604.80209.78907 1.80209.78907 3 0 1.20834-.26042 2.21094-.78126 3.00782-.52083.796872-1.17708 1.19531-1.96874 1.19531-.8125 0-1.47657-.395833-1.99219-1.1875-.515628-.79167-.77344-1.80729-.77344-3.04687m2.76563 3.89062c.26041 0 .45833-.179688.59374-.539062.13542-.359378.20313-1.002608.20313-1.929688v-2.75c0-.88542-.0625-1.52604-.1875-1.92187-.125-.39584-.33333-.59376-.625-.59376s-.4974.19271-.61719.57813-.17968 1.03125-.17968 1.9375v2.75c0 .88542.0625 1.51823.1875 1.898438s.33333.570312.625.570312" transform="matrix(3.11654 0 0 3.11654 734.0842 391.79566)"/><path d="m-.668476-5.01357h7.336956v10.02714h-7.336956z" fill="#fff" fill-rule="evenodd" transform="matrix(3.11654 0 0 3.11654 734.0842 409.02166)"/><path d="m1-1.73438c.29167 0 .68229.17188 1.17188.51563.48958.34375.85937.515625 1.10937.515625.33333 0 .61458-.111979.84375-.335935.22917-.22396.34375-.50261.34375-.83594 0-.39583-.14844-.75-.44531-1.0625-.29688-.3125-.71615-.55208-1.25782-.71875-.44791-.13542-1.16666-.23958-2.156245-.3125l1.171875-4.14063h3.85937l-.51562 1.53126h-3.35938l-.25.96874c.83334.04167 1.4375.1198 1.8125.23438.65626.17708 1.16667.49219 1.53126.94531.36458.45313.54687.98698.54687 1.60157 0 .85416-.3151 1.55468-.94531 2.101558-.63021.546874-1.44011.820312-2.42969.820312-.54167 0-.97135-.09895833-1.289062-.296875-.317709-.197917-.476563-.463542-.476563-.796875 0-.20833.070313-.38281.210937-.52344.140626-.14062.315105-.21094.523438-.21094" transform="matrix(3.11654 0 0 3.11654 734.0842 423.04564)"/><path d="m5.9375-3.71875c.84375 0 1.55208.21875 2.125.65625.55208.47917.82812 1.07812.82812 1.79688 0 1.2083283-.625 2.34374-1.875 3.40624-1.27083 1.05209-2.625 1.57813-4.0625 1.57813-.84374 0-1.55729-.21875-2.14062-.65625-.541667-.47917-.8125-1.07812-.8125-1.79688 0-1.2083283.635417-2.34374 1.90625-3.40624 1.22917-1.05209 2.57292-1.57813 4.03125-1.57813" transform="matrix(3.11654 0 0 3.11654 727.8042 86.10467)"/><path d="m5.9375-3.71875c.84375 0 1.55208.21875 2.125.65625.55208.47917.82812 1.07812.82812 1.79688 0 1.2083283-.625 2.34374-1.875 3.40624-1.27083 1.05209-2.625 1.57813-4.0625 1.57813-.84374 0-1.55729-.21875-2.14062-.65625-.541667-.47917-.8125-1.07812-.8125-1.79688 0-1.2083283.635417-2.34374 1.90625-3.40624 1.22917-1.05209 2.57292-1.57813 4.03125-1.57813" transform="matrix(3.11654 0 0 3.11654 727.8042 86.10467)"/><path d="m-.668476-5.01357h7.336956v10.02714h-7.336956z" fill="#fff" fill-rule="evenodd" transform="matrix(3.11654 0 0 3.11654 685.1542 409.02166)"/><path d="m.375-5.8125c.604167-1.625 1.48438-2.4375 2.64062-2.4375.65626 0 1.19792.20573 1.625.61719.42709.41146.64063.93489.64063 1.57031 0 .88542-.45833 1.76042-1.375 2.625l-1.9375 1.84375h1.8125c.61458 0 1.01042-.04948 1.1875-.14844s.35417-.36198.53125-.78906h.28125l-.54687 2.53125h-5.031255v-.28125c1.364585-1.44792 2.270835-2.51823 2.718755-3.21094.44791-.69271.67187-1.3151.67187-1.86719 0-.40624-.13021-.76302-.39063-1.07031-.26041-.30729-.60416-.46093-1.03124-.46093-.61459 0-1.10417.35937-1.468755 1.07812z" transform="matrix(3.11654 0 0 3.11654 685.1542 423.04564)"/><path d="m5.9375-3.71875c.84375 0 1.55208.21875 2.125.65625.55208.47917.82812 1.07812.82812 1.79688 0 1.2083283-.625 2.34374-1.875 3.40624-1.27083 1.05209-2.625 1.57813-4.0625 1.57813-.84374 0-1.55729-.21875-2.14062-.65625-.541667-.47917-.8125-1.07812-.8125-1.79688 0-1.2083283.635417-2.34374 1.90625-3.40624 1.22917-1.05209 2.57292-1.57813 4.03125-1.57813" transform="matrix(3.11654 0 0 3.11654 678.8842 106.93867)"/><path d="m-.668476-5.01357h7.336956v10.02714h-7.336956z" fill="#fff" fill-rule="evenodd" transform="matrix(3.11654 0 0 3.11654 636.2342 440.27164)"/><path d="m.28125-4.07812c0-1.17709.265625-2.16667.79687-2.96876.53126-.80208 1.1875-1.20312 1.96876-1.20312.78124 0 1.43489.40104 1.96093 1.20312.52604.80209.78907 1.80209.78907 3 0 1.20834-.26042 2.21094-.78126 3.00782-.52083.796872-1.17708 1.19531-1.96874 1.19531-.8125 0-1.47657-.395833-1.99219-1.1875-.515628-.79167-.77344-1.80729-.77344-3.04687m2.76563 3.89062c.26041 0 .45833-.179688.59374-.539062.13542-.359378.20313-1.002608.20313-1.929688v-2.75c0-.88542-.0625-1.52604-.1875-1.92187-.125-.39584-.33333-.59376-.625-.59376s-.4974.19271-.61719.57813-.17968 1.03125-.17968 1.9375v2.75c0 .88542.0625 1.51823.1875 1.898438s.33333.570312.625.570312" transform="matrix(3.11654 0 0 3.11654 636.2342 454.29566)"/><path d="m5.9375-3.71875c.84375 0 1.55208.21875 2.125.65625.55208.47917.82812 1.07812.82812 1.79688 0 1.2083283-.625 2.34374-1.875 3.40624-1.27083 1.05209-2.625 1.57813-4.0625 1.57813-.84374 0-1.55729-.21875-2.14062-.65625-.541667-.47917-.8125-1.07812-.8125-1.79688 0-1.2083283.635417-2.34374 1.90625-3.40624 1.22917-1.05209 2.57292-1.57813 4.03125-1.57813" transform="matrix(3.11654 0 0 3.11654 629.9542 138.18867)"/><path d="m-.668476-5.01357h7.336956v10.02714h-7.336956z" fill="#fff" fill-rule="evenodd" transform="matrix(3.11654 0 0 3.11654 586.9242 377.77165)"/><path d="m.28125-4.07812c0-1.17709.265625-2.16667.79687-2.96876.53126-.80208 1.1875-1.20312 1.96876-1.20312.78124 0 1.43489.40104 1.96093 1.20312.52604.80209.78907 1.80209.78907 3 0 1.20834-.26042 2.21094-.78126 3.00782-.52083.796872-1.17708 1.19531-1.96874 1.19531-.8125 0-1.47657-.395833-1.99219-1.1875-.515628-.79167-.77344-1.80729-.77344-3.04687m2.76563 3.89062c.26041 0 .45833-.179688.59374-.539062.13542-.359378.20313-1.002608.20313-1.929688v-2.75c0-.88542-.0625-1.52604-.1875-1.92187-.125-.39584-.33333-.59376-.625-.59376s-.4974.19271-.61719.57813-.17968 1.03125-.17968 1.9375v2.75c0 .88542.0625 1.51823.1875 1.898438s.33333.570312.625.570312" transform="matrix(3.11654 0 0 3.11654 586.9242 391.79566)"/><path d="m-.668476-5.01357h7.336956v10.02714h-7.336956z" fill="#fff" fill-rule="evenodd" transform="matrix(3.11654 0 0 3.11654 586.9242 502.77167)"/><path d="m.28125-4.07812c0-1.17709.265625-2.16667.79687-2.96876.53126-.80208 1.1875-1.20312 1.96876-1.20312.78124 0 1.43489.40104 1.96093 1.20312.52604.80209.78907 1.80209.78907 3 0 1.20834-.26042 2.21094-.78126 3.00782-.52083.796872-1.17708 1.19531-1.96874 1.19531-.8125 0-1.47657-.395833-1.99219-1.1875-.515628-.79167-.77344-1.80729-.77344-3.04687m2.76563 3.89062c.26041 0 .45833-.179688.59374-.539062.13542-.359378.20313-1.002608.20313-1.929688v-2.75c0-.88542-.0625-1.52604-.1875-1.92187-.125-.39584-.33333-.59376-.625-.59376s-.4974.19271-.61719.57813-.17968 1.03125-.17968 1.9375v2.75c0 .88542.0625 1.51823.1875 1.898438s.33333.570312.625.570312" transform="matrix(3.11654 0 0 3.11654 586.9242 516.79565)"/><path d="m5.9375-3.71875c.84375 0 1.55208.21875 2.125.65625.55208.47917.82812 1.07812.82812 1.79688 0 1.2083283-.625 2.34374-1.875 3.40624-1.27083 1.05209-2.625 1.57813-4.0625 1.57813-.84374 0-1.55729-.21875-2.14062-.65625-.541667-.47917-.8125-1.07812-.8125-1.79688 0-1.2083283.635417-2.34374 1.90625-3.40624 1.22917-1.05209 2.57292-1.57813 4.03125-1.57813" transform="matrix(3.11654 0 0 3.11654 580.6442 86.10467)"/><path d="m5.9375-3.71875c.84375 0 1.55208.21875 2.125.65625.55208.47917.82812 1.07812.82812 1.79688 0 1.2083283-.625 2.34374-1.875 3.40624-1.27083 1.05209-2.625 1.57813-4.0625 1.57813-.84374 0-1.55729-.21875-2.14062-.65625-.541667-.47917-.8125-1.07812-.8125-1.79688 0-1.2083283.635417-2.34374 1.90625-3.40624 1.22917-1.05209 2.57292-1.57813 4.03125-1.57813" transform="matrix(3.11654 0 0 3.11654 580.6442 200.68867)"/><path d="m-.668476-5.01357h7.336956v10.02714h-7.336956z" fill="#fff" fill-rule="evenodd" transform="matrix(3.11654 0 0 3.11654 534.3342 377.77165)"/><path d="m.375-5.8125c.604167-1.625 1.48438-2.4375 2.64062-2.4375.65626 0 1.19792.20573 1.625.61719.42709.41146.64063.93489.64063 1.57031 0 .88542-.45833 1.76042-1.375 2.625l-1.9375 1.84375h1.8125c.61458 0 1.01042-.04948 1.1875-.14844s.35417-.36198.53125-.78906h.28125l-.54687 2.53125h-5.031255v-.28125c1.364585-1.44792 2.270835-2.51823 2.718755-3.21094.44791-.69271.67187-1.3151.67187-1.86719 0-.40624-.13021-.76302-.39063-1.07031-.26041-.30729-.60416-.46093-1.03124-.46093-.61459 0-1.10417.35937-1.468755 1.07812z" transform="matrix(3.11654 0 0 3.11654 534.3342 391.79566)"/><path d="m-.668476-5.01357h7.336956v10.02714h-7.336956z" fill="#fff" fill-rule="evenodd" transform="matrix(3.11654 0 0 3.11654 534.3342 440.27164)"/><path d="m.375-5.8125c.604167-1.625 1.48438-2.4375 2.64062-2.4375.65626 0 1.19792.20573 1.625.61719.42709.41146.64063.93489.64063 1.57031 0 .88542-.45833 1.76042-1.375 2.625l-1.9375 1.84375h1.8125c.61458 0 1.01042-.04948 1.1875-.14844s.35417-.36198.53125-.78906h.28125l-.54687 2.53125h-5.031255v-.28125c1.364585-1.44792 2.270835-2.51823 2.718755-3.21094.44791-.69271.67187-1.3151.67187-1.86719 0-.40624-.13021-.76302-.39063-1.07031-.26041-.30729-.60416-.46093-1.03124-.46093-.61459 0-1.10417.35937-1.468755 1.07812z" transform="matrix(3.11654 0 0 3.11654 534.3342 454.29566)"/><path d="m5.9375-3.71875c.84375 0 1.55208.21875 2.125.65625.55208.47917.82812 1.07812.82812 1.79688 0 1.2083283-.625 2.34374-1.875 3.40624-1.27083 1.05209-2.625 1.57813-4.0625 1.57813-.84374 0-1.55729-.21875-2.14062-.65625-.541667-.47917-.8125-1.07812-.8125-1.79688 0-1.2083283.635417-2.34374 1.90625-3.40624 1.22917-1.05209 2.57292-1.57813 4.03125-1.57813" transform="matrix(3.11654 0 0 3.11654 528.0642 75.68867)"/><path d="m5.9375-3.71875c.84375 0 1.55208.21875 2.125.65625.55208.47917.82812 1.07812.82812 1.79688 0 1.2083283-.625 2.34374-1.875 3.40624-1.27083 1.05209-2.625 1.57813-4.0625 1.57813-.84374 0-1.55729-.21875-2.14062-.65625-.541667-.47917-.8125-1.07812-.8125-1.79688 0-1.2083283.635417-2.34374 1.90625-3.40624 1.22917-1.05209 2.57292-1.57813 4.03125-1.57813" transform="matrix(3.11654 0 0 3.11654 528.0642 127.77166)"/><path d="m-.668476-5.01357h7.336956v10.02714h-7.336956z" fill="#fff" fill-rule="evenodd" transform="matrix(3.11654 0 0 3.11654 485.4142 409.02166)"/><path d="m4.25-1.84375c0-.34375-.0625-.65365-.1875-.92969s-.3099-.50781-.55469-.69531-.48698-.34115-.72656-.46094-.54687-.24739-.92187-.38281v-.20312c.5625-.1875.96354-.40105 1.20312-.64063s.35938-.55729.35938-.95313c0-.38541-.10938-.6927-.32813-.92187s-.52083-.34375-.90625-.34375c-.30208 0-.5651.07812-.78906.23438-.22396.15624-.450523.42187-.67969.79687l-.25-.15625c.65625-1.16667 1.57292-1.75 2.75-1.75.61458 0 1.09635.13802 1.44531.41406s.52344.65886.52344 1.14844c0 .35417-.07292.64062-.21875.85938-.14583.21874-.41667.44791-.8125.6875 1 .44791 1.5 1.17187 1.5 2.17187 0 .875-.35417 1.61719-1.0625 2.226562-.70833.609376-1.5625.914063-2.5625.914063-.55208 0-.9974-.0963542-1.335938-.289063-.338541-.192708-.507812-.45052-.507812-.773437 0-.197915.072917-.361975.21875-.492185s.333333-.19531.5625-.19531c.27083 0 .52604.09895.76563.29687.23958.19792.46874.395833.6875.59375.21874.197917.4375.296875.65624.296875.35417 0 .63803-.130208.85157-.390625.21354-.26042.32031-.61458.32031-1.0625" transform="matrix(3.11654 0 0 3.11654 485.4142 423.04564)"/><path d="m5.9375-3.71875c.84375 0 1.55208.21875 2.125.65625.55208.47917.82812 1.07812.82812 1.79688 0 1.2083283-.625 2.34374-1.875 3.40624-1.27083 1.05209-2.625 1.57813-4.0625 1.57813-.84374 0-1.55729-.21875-2.14062-.65625-.541667-.47917-.8125-1.07812-.8125-1.79688 0-1.2083283.635417-2.34374 1.90625-3.40624 1.22917-1.05209 2.57292-1.57813 4.03125-1.57813" transform="matrix(3.11654 0 0 3.11654 479.1342 96.52167)"/><path d="m-.668476-5.01357h7.336956v10.02714h-7.336956z" fill="#fff" fill-rule="evenodd" transform="matrix(3.11654 0 0 3.11654 436.4842 440.27164)"/><path d="m.375-5.8125c.604167-1.625 1.48438-2.4375 2.64062-2.4375.65626 0 1.19792.20573 1.625.61719.42709.41146.64063.93489.64063 1.57031 0 .88542-.45833 1.76042-1.375 2.625l-1.9375 1.84375h1.8125c.61458 0 1.01042-.04948 1.1875-.14844s.35417-.36198.53125-.78906h.28125l-.54687 2.53125h-5.031255v-.28125c1.364585-1.44792 2.270835-2.51823 2.718755-3.21094.44791-.69271.67187-1.3151.67187-1.86719 0-.40624-.13021-.76302-.39063-1.07031-.26041-.30729-.60416-.46093-1.03124-.46093-.61459 0-1.10417.35937-1.468755 1.07812z" transform="matrix(3.11654 0 0 3.11654 436.4842 454.29566)"/><path d="m5.9375-3.71875c.84375 0 1.55208.21875 2.125.65625.55208.47917.82812 1.07812.82812 1.79688 0 1.2083283-.625 2.34374-1.875 3.40624-1.27083 1.05209-2.625 1.57813-4.0625 1.57813-.84374 0-1.55729-.21875-2.14062-.65625-.541667-.47917-.8125-1.07812-.8125-1.79688 0-1.2083283.635417-2.34374 1.90625-3.40624 1.22917-1.05209 2.57292-1.57813 4.03125-1.57813" transform="matrix(3.11654 0 0 3.11654 430.2042 127.77166)"/><path d="m-.668476-5.01357h7.336956v10.02714h-7.336956z" fill="#fff" fill-rule="evenodd" transform="matrix(3.11654 0 0 3.11654 387.1742 377.77165)"/><path d="m.375-5.8125c.604167-1.625 1.48438-2.4375 2.64062-2.4375.65626 0 1.19792.20573 1.625.61719.42709.41146.64063.93489.64063 1.57031 0 .88542-.45833 1.76042-1.375 2.625l-1.9375 1.84375h1.8125c.61458 0 1.01042-.04948 1.1875-.14844s.35417-.36198.53125-.78906h.28125l-.54687 2.53125h-5.031255v-.28125c1.364585-1.44792 2.270835-2.51823 2.718755-3.21094.44791-.69271.67187-1.3151.67187-1.86719 0-.40624-.13021-.76302-.39063-1.07031-.26041-.30729-.60416-.46093-1.03124-.46093-.61459 0-1.10417.35937-1.468755 1.07812z" transform="matrix(3.11654 0 0 3.11654 387.1742 391.79566)"/><path d="m-.668476-5.01357h7.336956v10.02714h-7.336956z" fill="#fff" fill-rule="evenodd" transform="matrix(3.11654 0 0 3.11654 387.1742 471.52165)"/><path d="m.28125-4.07812c0-1.17709.265625-2.16667.79687-2.96876.53126-.80208 1.1875-1.20312 1.96876-1.20312.78124 0 1.43489.40104 1.96093 1.20312.52604.80209.78907 1.80209.78907 3 0 1.20834-.26042 2.21094-.78126 3.00782-.52083.796872-1.17708 1.19531-1.96874 1.19531-.8125 0-1.47657-.395833-1.99219-1.1875-.515628-.79167-.77344-1.80729-.77344-3.04687m2.76563 3.89062c.26041 0 .45833-.179688.59374-.539062.13542-.359378.20313-1.002608.20313-1.929688v-2.75c0-.88542-.0625-1.52604-.1875-1.92187-.125-.39584-.33333-.59376-.625-.59376s-.4974.19271-.61719.57813-.17968 1.03125-.17968 1.9375v2.75c0 .88542.0625 1.51823.1875 1.898438s.33333.570312.625.570312" transform="matrix(3.11654 0 0 3.11654 387.1742 485.54567)"/><path d="m5.9375-3.71875c.84375 0 1.55208.21875 2.125.65625.55208.47917.82812 1.07812.82812 1.79688 0 1.2083283-.625 2.34374-1.875 3.40624-1.27083 1.05209-2.625 1.57813-4.0625 1.57813-.84374 0-1.55729-.21875-2.14062-.65625-.541667-.47917-.8125-1.07812-.8125-1.79688 0-1.2083283.635417-2.34374 1.90625-3.40624 1.22917-1.05209 2.57292-1.57813 4.03125-1.57813" transform="matrix(3.11654 0 0 3.11654 380.8952 75.68867)"/><path d="m5.9375-3.71875c.84375 0 1.55208.21875 2.125.65625.55208.47917.82812 1.07812.82812 1.79688 0 1.2083283-.625 2.34374-1.875 3.40624-1.27083 1.05209-2.625 1.57813-4.0625 1.57813-.84374 0-1.55729-.21875-2.14062-.65625-.541667-.47917-.8125-1.07812-.8125-1.79688 0-1.2083283.635417-2.34374 1.90625-3.40624 1.22917-1.05209 2.57292-1.57813 4.03125-1.57813" transform="matrix(3.11654 0 0 3.11654 380.8952 169.43866)"/><path d="m-.668476-5.01357h7.336956v10.02714h-7.336956z" fill="#fff" fill-rule="evenodd" transform="matrix(3.11654 0 0 3.11654 290.9172 377.77165)"/><path d="m4.25-1.84375c0-.34375-.0625-.65365-.1875-.92969s-.3099-.50781-.55469-.69531-.48698-.34115-.72656-.46094-.54687-.24739-.92187-.38281v-.20312c.5625-.1875.96354-.40105 1.20312-.64063s.35938-.55729.35938-.95313c0-.38541-.10938-.6927-.32813-.92187s-.52083-.34375-.90625-.34375c-.30208 0-.5651.07812-.78906.23438-.22396.15624-.450523.42187-.67969.79687l-.25-.15625c.65625-1.16667 1.57292-1.75 2.75-1.75.61458 0 1.09635.13802 1.44531.41406s.52344.65886.52344 1.14844c0 .35417-.07292.64062-.21875.85938-.14583.21874-.41667.44791-.8125.6875 1 .44791 1.5 1.17187 1.5 2.17187 0 .875-.35417 1.61719-1.0625 2.226562-.70833.609376-1.5625.914063-2.5625.914063-.55208 0-.9974-.0963542-1.335938-.289063-.338541-.192708-.507812-.45052-.507812-.773437 0-.197915.072917-.361975.21875-.492185s.333333-.19531.5625-.19531c.27083 0 .52604.09895.76563.29687.23958.19792.46874.395833.6875.59375.21874.197917.4375.296875.65624.296875.35417 0 .63803-.130208.85157-.390625.21354-.26042.32031-.61458.32031-1.0625" transform="matrix(3.11654 0 0 3.11654 290.9172 391.79566)"/><path d="m-.668476-5.01357h7.336956v10.02714h-7.336956z" fill="#fff" fill-rule="evenodd" transform="matrix(3.11654 0 0 3.11654 290.9172 409.02166)"/><path d="m.28125-4.07812c0-1.17709.265625-2.16667.79687-2.96876.53126-.80208 1.1875-1.20312 1.96876-1.20312.78124 0 1.43489.40104 1.96093 1.20312.52604.80209.78907 1.80209.78907 3 0 1.20834-.26042 2.21094-.78126 3.00782-.52083.796872-1.17708 1.19531-1.96874 1.19531-.8125 0-1.47657-.395833-1.99219-1.1875-.515628-.79167-.77344-1.80729-.77344-3.04687m2.76563 3.89062c.26041 0 .45833-.179688.59374-.539062.13542-.359378.20313-1.002608.20313-1.929688v-2.75c0-.88542-.0625-1.52604-.1875-1.92187-.125-.39584-.33333-.59376-.625-.59376s-.4974.19271-.61719.57813-.17968 1.03125-.17968 1.9375v2.75c0 .88542.0625 1.51823.1875 1.898438s.33333.570312.625.570312" transform="matrix(3.11654 0 0 3.11654 290.9172 423.04564)"/><path d="m-.668476-5.01357h7.336956v10.02714h-7.336956z" fill="#fff" fill-rule="evenodd" transform="matrix(3.11654 0 0 3.11654 290.9172 440.27164)"/><path d="m.28125-4.07812c0-1.17709.265625-2.16667.79687-2.96876.53126-.80208 1.1875-1.20312 1.96876-1.20312.78124 0 1.43489.40104 1.96093 1.20312.52604.80209.78907 1.80209.78907 3 0 1.20834-.26042 2.21094-.78126 3.00782-.52083.796872-1.17708 1.19531-1.96874 1.19531-.8125 0-1.47657-.395833-1.99219-1.1875-.515628-.79167-.77344-1.80729-.77344-3.04687m2.76563 3.89062c.26041 0 .45833-.179688.59374-.539062.13542-.359378.20313-1.002608.20313-1.929688v-2.75c0-.88542-.0625-1.52604-.1875-1.92187-.125-.39584-.33333-.59376-.625-.59376s-.4974.19271-.61719.57813-.17968 1.03125-.17968 1.9375v2.75c0 .88542.0625 1.51823.1875 1.898438s.33333.570312.625.570312" transform="matrix(3.11654 0 0 3.11654 290.9172 454.29566)"/><path d="m-.668476-5.01357h7.336956v10.02714h-7.336956z" fill="#fff" fill-rule="evenodd" transform="matrix(3.11654 0 0 3.11654 290.9172 534.02164)"/><path d="m4.25-1.84375c0-.34375-.0625-.65365-.1875-.92969s-.3099-.50781-.55469-.69531-.48698-.34115-.72656-.46094-.54687-.24739-.92187-.38281v-.20312c.5625-.1875.96354-.40105 1.20312-.64063s.35938-.55729.35938-.95313c0-.38541-.10938-.6927-.32813-.92187s-.52083-.34375-.90625-.34375c-.30208 0-.5651.07812-.78906.23438-.22396.15624-.450523.42187-.67969.79687l-.25-.15625c.65625-1.16667 1.57292-1.75 2.75-1.75.61458 0 1.09635.13802 1.44531.41406s.52344.65886.52344 1.14844c0 .35417-.07292.64062-.21875.85938-.14583.21874-.41667.44791-.8125.6875 1 .44791 1.5 1.17187 1.5 2.17187 0 .875-.35417 1.61719-1.0625 2.226562-.70833.609376-1.5625.914063-2.5625.914063-.55208 0-.9974-.0963542-1.335938-.289063-.338541-.192708-.507812-.45052-.507812-.773437 0-.197915.072917-.361975.21875-.492185s.333333-.19531.5625-.19531c.27083 0 .52604.09895.76563.29687.23958.19792.46874.395833.6875.59375.21874.197917.4375.296875.65624.296875.35417 0 .63803-.130208.85157-.390625.21354-.26042.32031-.61458.32031-1.0625" transform="matrix(3.11654 0 0 3.11654 290.9172 548.04566)"/><path d="m8.51562-1.76562c0-.30209-.11458-.5573-.34374-.76563-.22917-.22917-.48959-.34375-.78126-.34375-.53124 0-1.59895.52604-3.20312 1.57812-1.64583 1.072922-2.65625 1.838547-3.03125 2.29688-.1875.25-.28125.50521-.28125.76562 0 .30209.114583.5573.34375.76563.20833.22917.46875.34375.78125.34375.51042 0 1.58333-.52604 3.21875-1.57812 1.61458-1.062505 2.61979-1.82813 3.01563-2.29688.1875-.22917.28124-.48438.28124-.76562m-1.39062-1.95313c1.51042 0 2.26562.65104 2.26562 1.95313 0 .63541-.1875 1.374995-.5625 2.218745-.36458.822915-.85416 1.453125-1.46874 1.890625-1.35417.91667-3.05209 1.375-5.09376 1.375-1.510412 0-2.26562-.65104-2.26562-1.95313 0-.58333.182292-1.312495.546875-2.187495.354167-.843745.848955-1.484375 1.484375-1.921875 1.35417-.91667 3.05208-1.375 5.09375-1.375" transform="matrix(3.11654 0 0 3.11654 283.8432 65.27167)"/><path d="m8.51562-1.76562c0-.30209-.11458-.5573-.34374-.76563-.22917-.22917-.48959-.34375-.78126-.34375-.53124 0-1.59895.52604-3.20312 1.57812-1.64583 1.072922-2.65625 1.838547-3.03125 2.29688-.1875.25-.28125.50521-.28125.76562 0 .30209.114583.5573.34375.76563.20833.22917.46875.34375.78125.34375.51042 0 1.58333-.52604 3.21875-1.57812 1.61458-1.062505 2.61979-1.82813 3.01563-2.29688.1875-.22917.28124-.48438.28124-.76562m-1.39062-1.95313c1.51042 0 2.26562.65104 2.26562 1.95313 0 .63541-.1875 1.374995-.5625 2.218745-.36458.822915-.85416 1.453125-1.46874 1.890625-1.35417.91667-3.05209 1.375-5.09376 1.375-1.510412 0-2.26562-.65104-2.26562-1.95313 0-.58333.182292-1.312495.546875-2.187495.354167-.843745.848955-1.484375 1.484375-1.921875 1.35417-.91667 3.05208-1.375 5.09375-1.375" transform="matrix(3.11654 0 0 3.11654 283.8432 117.35467)"/><path d="m8.51562-1.76562c0-.30209-.11458-.5573-.34374-.76563-.22917-.22917-.48959-.34375-.78126-.34375-.53124 0-1.59895.52604-3.20312 1.57812-1.64583 1.072922-2.65625 1.838547-3.03125 2.29688-.1875.25-.28125.50521-.28125.76562 0 .30209.114583.5573.34375.76563.20833.22917.46875.34375.78125.34375.51042 0 1.58333-.52604 3.21875-1.57812 1.61458-1.062505 2.61979-1.82813 3.01563-2.29688.1875-.22917.28124-.48438.28124-.76562m-1.39062-1.95313c1.51042 0 2.26562.65104 2.26562 1.95313 0 .63541-.1875 1.374995-.5625 2.218745-.36458.822915-.85416 1.453125-1.46874 1.890625-1.35417.91667-3.05209 1.375-5.09376 1.375-1.510412 0-2.26562-.65104-2.26562-1.95313 0-.58333.182292-1.312495.546875-2.187495.354167-.843745.848955-1.484375 1.484375-1.921875 1.35417-.91667 3.05208-1.375 5.09375-1.375" transform="matrix(3.11654 0 0 3.11654 283.8432 138.18867)"/><path d="m8.51562-1.76562c0-.30209-.11458-.5573-.34374-.76563-.22917-.22917-.48959-.34375-.78126-.34375-.53124 0-1.59895.52604-3.20312 1.57812-1.64583 1.072922-2.65625 1.838547-3.03125 2.29688-.1875.25-.28125.50521-.28125.76562 0 .30209.114583.5573.34375.76563.20833.22917.46875.34375.78125.34375.51042 0 1.58333-.52604 3.21875-1.57812 1.61458-1.062505 2.61979-1.82813 3.01563-2.29688.1875-.22917.28124-.48438.28124-.76562m-1.39062-1.95313c1.51042 0 2.26562.65104 2.26562 1.95313 0 .63541-.1875 1.374995-.5625 2.218745-.36458.822915-.85416 1.453125-1.46874 1.890625-1.35417.91667-3.05209 1.375-5.09376 1.375-1.510412 0-2.26562-.65104-2.26562-1.95313 0-.58333.182292-1.312495.546875-2.187495.354167-.843745.848955-1.484375 1.484375-1.921875 1.35417-.91667 3.05208-1.375 5.09375-1.375" transform="matrix(3.11654 0 0 3.11654 283.8432 211.10465)"/><path d="m-.668476-5.01357h7.336956v10.02714h-7.336956z" fill="#fff" fill-rule="evenodd" transform="matrix(3.11654 0 0 3.11654 224.9282 377.77165)"/><path d="m1-1.73438c.29167 0 .68229.17188 1.17188.51563.48958.34375.85937.515625 1.10937.515625.33333 0 .61458-.111979.84375-.335935.22917-.22396.34375-.50261.34375-.83594 0-.39583-.14844-.75-.44531-1.0625-.29688-.3125-.71615-.55208-1.25782-.71875-.44791-.13542-1.16666-.23958-2.156245-.3125l1.171875-4.14063h3.85937l-.51562 1.53126h-3.35938l-.25.96874c.83334.04167 1.4375.1198 1.8125.23438.65626.17708 1.16667.49219 1.53126.94531.36458.45313.54687.98698.54687 1.60157 0 .85416-.3151 1.55468-.94531 2.101558-.63021.546874-1.44011.820312-2.42969.820312-.54167 0-.97135-.09895833-1.289062-.296875-.317709-.197917-.476563-.463542-.476563-.796875 0-.20833.070313-.38281.210937-.52344.140626-.14062.315105-.21094.523438-.21094" transform="matrix(3.11654 0 0 3.11654 224.9282 391.79566)"/><path d="m-.668476-5.01357h7.336956v10.02714h-7.336956z" fill="#fff" fill-rule="evenodd" transform="matrix(3.11654 0 0 3.11654 224.9282 409.02166)"/><path d="m5.71875-8.10938-2.8125 8.10938h-1.14063l2.39063-6.46875h-2.48437c-.32292 0-.57032.07552-.742192.22656-.171876.15104-.315105.41927-.429688.80469h-.296875l.53125-2.67188z" transform="matrix(3.11654 0 0 3.11654 224.9282 423.04564)"/><path d="m-.668476-5.01357h7.336956v10.02714h-7.336956z" fill="#fff" fill-rule="evenodd" transform="matrix(3.11654 0 0 3.11654 224.9282 440.27164)"/><path d="m5.71875-8.10938-2.8125 8.10938h-1.14063l2.39063-6.46875h-2.48437c-.32292 0-.57032.07552-.742192.22656-.171876.15104-.315105.41927-.429688.80469h-.296875l.53125-2.67188z" transform="matrix(3.11654 0 0 3.11654 224.9282 454.29566)"/><path d="m-.668476-5.01357h7.336956v10.02714h-7.336956z" fill="#fff" fill-rule="evenodd" transform="matrix(3.11654 0 0 3.11654 224.9282 471.52165)"/><path d="m.28125-4.07812c0-1.17709.265625-2.16667.79687-2.96876.53126-.80208 1.1875-1.20312 1.96876-1.20312.78124 0 1.43489.40104 1.96093 1.20312.52604.80209.78907 1.80209.78907 3 0 1.20834-.26042 2.21094-.78126 3.00782-.52083.796872-1.17708 1.19531-1.96874 1.19531-.8125 0-1.47657-.395833-1.99219-1.1875-.515628-.79167-.77344-1.80729-.77344-3.04687m2.76563 3.89062c.26041 0 .45833-.179688.59374-.539062.13542-.359378.20313-1.002608.20313-1.929688v-2.75c0-.88542-.0625-1.52604-.1875-1.92187-.125-.39584-.33333-.59376-.625-.59376s-.4974.19271-.61719.57813-.17968 1.03125-.17968 1.9375v2.75c0 .88542.0625 1.51823.1875 1.898438s.33333.570312.625.570312" transform="matrix(3.11654 0 0 3.11654 224.9282 485.54567)"/><path d="m8.51562-1.76562c0-.30209-.11458-.5573-.34374-.76563-.22917-.22917-.48959-.34375-.78126-.34375-.53124 0-1.59895.52604-3.20312 1.57812-1.64583 1.072922-2.65625 1.838547-3.03125 2.29688-.1875.25-.28125.50521-.28125.76562 0 .30209.114583.5573.34375.76563.20833.22917.46875.34375.78125.34375.51042 0 1.58333-.52604 3.21875-1.57812 1.61458-1.062505 2.61979-1.82813 3.01563-2.29688.1875-.22917.28124-.48438.28124-.76562m-1.39062-1.95313c1.51042 0 2.26562.65104 2.26562 1.95313 0 .63541-.1875 1.374995-.5625 2.218745-.36458.822915-.85416 1.453125-1.46874 1.890625-1.35417.91667-3.05209 1.375-5.09376 1.375-1.510412 0-2.26562-.65104-2.26562-1.95313 0-.58333.182292-1.312495.546875-2.187495.354167-.843745.848955-1.484375 1.484375-1.921875 1.35417-.91667 3.05208-1.375 5.09375-1.375" transform="matrix(3.11654 0 0 3.11654 217.8542 54.85467)"/><path d="m8.51562-1.76562c0-.30209-.11458-.5573-.34374-.76563-.22917-.22917-.48959-.34375-.78126-.34375-.53124 0-1.59895.52604-3.20312 1.57812-1.64583 1.072922-2.65625 1.838547-3.03125 2.29688-.1875.25-.28125.50521-.28125.76562 0 .30209.114583.5573.34375.76563.20833.22917.46875.34375.78125.34375.51042 0 1.58333-.52604 3.21875-1.57812 1.61458-1.062505 2.61979-1.82813 3.01563-2.29688.1875-.22917.28124-.48438.28124-.76562m-1.39062-1.95313c1.51042 0 2.26562.65104 2.26562 1.95313 0 .63541-.1875 1.374995-.5625 2.218745-.36458.822915-.85416 1.453125-1.46874 1.890625-1.35417.91667-3.05209 1.375-5.09376 1.375-1.510412 0-2.26562-.65104-2.26562-1.95313 0-.58333.182292-1.312495.546875-2.187495.354167-.843745.848955-1.484375 1.484375-1.921875 1.35417-.91667 3.05208-1.375 5.09375-1.375" transform="matrix(3.11654 0 0 3.11654 217.8542 75.68867)"/><path d="m8.51562-1.76562c0-.30209-.11458-.5573-.34374-.76563-.22917-.22917-.48959-.34375-.78126-.34375-.53124 0-1.59895.52604-3.20312 1.57812-1.64583 1.072922-2.65625 1.838547-3.03125 2.29688-.1875.25-.28125.50521-.28125.76562 0 .30209.114583.5573.34375.76563.20833.22917.46875.34375.78125.34375.51042 0 1.58333-.52604 3.21875-1.57812 1.61458-1.062505 2.61979-1.82813 3.01563-2.29688.1875-.22917.28124-.48438.28124-.76562m-1.39062-1.95313c1.51042 0 2.26562.65104 2.26562 1.95313 0 .63541-.1875 1.374995-.5625 2.218745-.36458.822915-.85416 1.453125-1.46874 1.890625-1.35417.91667-3.05209 1.375-5.09376 1.375-1.510412 0-2.26562-.65104-2.26562-1.95313 0-.58333.182292-1.312495.546875-2.187495.354167-.843745.848955-1.484375 1.484375-1.921875 1.35417-.91667 3.05208-1.375 5.09375-1.375" transform="matrix(3.11654 0 0 3.11654 217.8542 96.52167)"/><path d="m8.51562-1.76562c0-.30209-.11458-.5573-.34374-.76563-.22917-.22917-.48959-.34375-.78126-.34375-.53124 0-1.59895.52604-3.20312 1.57812-1.64583 1.072922-2.65625 1.838547-3.03125 2.29688-.1875.25-.28125.50521-.28125.76562 0 .30209.114583.5573.34375.76563.20833.22917.46875.34375.78125.34375.51042 0 1.58333-.52604 3.21875-1.57812 1.61458-1.062505 2.61979-1.82813 3.01563-2.29688.1875-.22917.28124-.48438.28124-.76562m-1.39062-1.95313c1.51042 0 2.26562.65104 2.26562 1.95313 0 .63541-.1875 1.374995-.5625 2.218745-.36458.822915-.85416 1.453125-1.46874 1.890625-1.35417.91667-3.05209 1.375-5.09376 1.375-1.510412 0-2.26562-.65104-2.26562-1.95313 0-.58333.182292-1.312495.546875-2.187495.354167-.843745.848955-1.484375 1.484375-1.921875 1.35417-.91667 3.05208-1.375 5.09375-1.375" transform="matrix(3.11654 0 0 3.11654 217.8542 169.43866)"/><path d="m13.2969 17.7188c0 2.7083-1.6615 4.0624-4.9844 4.0624h-5.9375v-13.45308h5.9375c3.0417 0 4.5625 1.23438 4.5625 3.70308 0 1.4063-.6458 2.2761-1.9375 2.6094 1.5729.2917 2.3594 1.3177 2.3594 3.0782m-8.12502-7.0938v3.0625h3.14062c1.20833 0 1.8125-.5521 1.8125-1.6563 0-.9374-.60417-1.4062-1.8125-1.4062zm0 5.3594v3.5h3.14062c1.45833 0 2.1875-.5886 2.1875-1.7656 0-1.1563-.72917-1.7344-2.1875-1.7344zm4.375-12.18752h-4.95313l-.92187 2.71874h-2.875005l4.640625-13.45312h3.26562l4.64068 13.45312h-2.875zm-.6875-2.3125-1.79688-5.23438-1.78125 5.23438zm-.39063-21.15628v11.1094h-2.79687v-11.1094h-4.09376v-2.3437h10.96878v2.3437z" transform="matrix(3.11654 0 0 3.11654 28.3422 455.89665)"/><path d="m9.92188-6.90625h.15622c.0625-.02083.1198-.03125.1719-.03125 1.9688 0 3.5885.69271 4.8594 2.07812 1.2604 1.375 1.8906 2.97917 1.8906 4.812505 0 2.260415-.9375 4.104165-2.8125 5.531255-.4896.38541-1.1302.70312-1.9219.95312.0834 1.13542.125 2.05729.125 2.76562 0 .13542-.0156.64584-.0468 1.53128-.073 1.6354-.6355 3.0521-1.6876 4.25-1.02078 1.1771-2.28641 1.7656-3.79682 1.7656-1.42709 0-2.64063-.5052-3.64063-1.5156s-1.5-2.2396-1.5-3.6875c0-.75.28646-1.3907.85937-1.9219.60417-.53125 1.30209-.79688 2.09376-.79688.69791 0 1.28645.27605 1.76562.82813.48958.51045.73438 1.14065.73438 1.89065 0 .6875-.2448 1.276-.73438 1.7656s-1.07812.7344-1.76562.7344c-.28126 0-.5573-.0521-.82813-.1563.78125 1.1459 1.8125 1.7188 3.09375 1.7188 1.20833 0 2.20312-.4896 2.98438-1.4688.80212-1.0208 1.23962-2.2083 1.31252-3.5625.0312-.84372.0468-1.3281.0468-1.4531 0-.98958-.0312-1.79688-.0937-2.42188-.8854.13542-1.67188.20313-2.35938.20313-2.4375 0-4.52083-.96354-6.25-2.89063-1.687495-1.95833-2.531245-4.281245-2.531245-6.96874 0-.5625.057292-1.13542.171875-1.71876.104167-.46874.234375-.98437.390625-1.54687.083333-.32292.317708-.83333.703125-1.53125.14583-.20833.30729-.47135.48438-.78906.17708-.31771.29687-.52865.35937-.63282.17708-.35416.52083-.82812 1.03125-1.42192.14583-.1666.29167-.3463.4375-.539s.27344-.349.38281-.4688c.10938-.1198.19011-.2161.24219-.289s.44792-.5417 1.1875-1.4063c.17708-.1666.34896-.3515.51562-.5547.16667-.2031.30209-.3619.40626-.4765.10416-.1146.18229-.1979.23437-.25-.63542-2.0938-1.03125-3.7657-1.1875-5.0157-.125-1-.1875-2.3697-.1875-4.1093 0-1.5313.35417-2.9636 1.0625-4.2969.67708-1.3854 1.63542-2.5208 2.875-3.4062.08333-.0521.16667-.0782.25-.0782.125 0 .21354.0261.26563.0782.94792 1.1458 1.76562 2.6302 2.45312 4.4531.7083 1.8333 1.0625 3.4948 1.0625 4.9843 0 1.6876-.4063 3.2709-1.2187 4.75-.9167 1.5626-2.0938 3.1823-3.5313 4.8594.36458 1.1563.85938 2.97398 1.48438 5.45315m2.23432 12.26563c.9167-.33334 1.6303-.90626 2.1407-1.71876.5625-.77083.8437-1.64062.8437-2.60937 0-1.25-.4218-2.35937-1.2656-3.32813-.8646-1-1.9635-1.5625-3.2969-1.6875.75 3.708338 1.2761 6.82292 1.5781 9.34376m-10.20308-6.093755c0 1.739585.70313 3.265625 2.10938 4.578125 1.4375 1.29167 3.05208 1.9375 4.84375 1.9375.73958 0 1.46355-.05729 2.17185-.17187-.2812-2.66667-.8385-5.864588-1.67185-9.59376-1 .10417-1.79687.45834-2.39063 1.0625-.58333.61459-.875 1.3073-.875 2.07813 0 1.333333.71355 2.41667 2.14063 3.25.125.11458.1875.24219.1875.38281 0 .14063-.0625.27344-.1875.39844-.10417.125-.23437.1875-.39063.1875-.02083 0-.10416-.01562-.25-.04688-1-.55208-1.77083-1.2552-2.3125-2.10937-.51041-.916667-.76562-1.84375-.76562-2.78125 0-1.20833.38021-2.30729 1.14062-3.29688.78126-.97916 1.8073-1.60937 3.07813-1.89062-.48958-1.96875-.89583-3.5052-1.21875-4.6094-.28125.3125-.61979.6927-1.01562 1.1406-.39584.44797-.625.7188-.6875.81255-.63542.82292-1.1198 1.46354-1.45313 1.92187-.60417.82292-1.04687 1.53126-1.32813 2.125-.29166.67709-.55208 1.40626-.78124 2.1875-.22917.76042-.34376 1.57292-.34376 2.437505m8.81248-26.812525c-1.32289.6459-2.36456 1.5729-3.12498 2.7813-.77083 1.25-1.15624 2.5989-1.15624 4.0468 0 1.2605.3177 2.9636.95312 5.1094 1.26042-1.5312 2.20833-2.9479 2.8437-4.25.6667-1.3646 1-2.7968 1-4.2968 0-1.125-.1718-2.2553-.5156-3.3907m-2.90622 48.1094c.45833-.4583.6875-.9115.6875-1.3594-.04167-.375-.20313-.6562-.48438-.8437-.3125-.2188-.67708-.3282-1.09375-.3282-.30208 0-.55208.099-.75.2969-.17708.1771-.26563.3959-.26563.6563 0 .3125.13542.5521.40626.7187zm.42187.2344c.73958.4062 1.10937.9531 1.10937 1.6406v.0781c0 .5417-.21874 1-.65624 1.375-.44792.3854-1.07292.5782-1.875.5782-.66667 0-1.25-.1771-1.75-.5313-.48959-.3333-.73438-.7865-.73438-1.3594 0-.2291.0625-.4427.1875-.6406.13542-.2292.25-.3854.34375-.4687l.5-.5c-.54167-.375-.8125-.8594-.8125-1.4532 0-.4791.20833-.901.625-1.2656.4375-.3542 1.02083-.5312 1.75-.5312.59375 0 1.10156.1328 1.52344.3984.42187.2656.63281.6276.63281 1.0859 0 .4688-.28125 1-.84375 1.5938m-2.48437.4062c-.52084.4584-.80209.9167-.84376 1.375.04167.4688.23438.8438.57813 1.125.39583.3021.83854.4531 1.32813.4531.35416 0 .63541-.1145.84374-.3437.20834-.2083.3125-.4635.3125-.7656-.02083-.3854-.17708-.6667-.46874-.8438z" transform="matrix(3.11654 0 0 3.11654 28.3422 138.18867)"/><path d="m5.82812 8.40625c0 .33333-.16666.5-.5.5-.33333 0-.5-.16667-.5-.5v-3.89063l-2.25.84376v4.26562c0 .33333-.16666.5-.5.5-.33333 0-.5-.16667-.5-.5v-3.92188l-.843745.3125c-.010417.01042-.078125.01563-.203125.01563-.145833 0-.270833-.05208-.375-.15625-.1041667-.10417-.15625-.22396-.15625-.35938v-1.64062c0-.26042.114583-.42708.34375-.5l1.23437-.42188v-4.32812l-.843745.29688c-.010417.01041-.078125.01562-.203125.01562-.145833 0-.270833-.05208-.375-.15625-.1041667-.10417-.15625-.22396-.15625-.35937v-1.64063c0-.25.114583-.40625.34375-.46875l1.23437-.48438v-4.23437c0-.33333.16667-.5.5-.5.33334 0 .5.16667.5.5v3.89063l2.25-.84376v-4.26562c0-.33333.16667-.5.5-.5.33334 0 .5.16667.5.5v3.92188l.875-.3125c.01042-.01042.06771-.01563.17188-.01563.125 0 .26042.05208.40625.15625.10417.10417.15625.22396.15625.35938v1.64062c0 .25-.125.41667-.375.5l-1.23438.42188v4.32812l.875-.29688c.01042-.01041.06771-.01562.17188-.01562.125 0 .26042.05208.40625.15625.10417.10417.15625.22396.15625.35937v1.64063c0 .22917-.125.38542-.375.46875l-1.23438.48438zm-1-10.96875-2.25.79688v4.32812l2.25-.79688z" transform="matrix(3.11654 0 0 3.11654 111.8662 106.93867)"/><path d="m5.82812 8.40625c0 .33333-.16666.5-.5.5-.33333 0-.5-.16667-.5-.5v-3.89063l-2.25.84376v4.26562c0 .33333-.16666.5-.5.5-.33333 0-.5-.16667-.5-.5v-3.92188l-.843745.3125c-.010417.01042-.078125.01563-.203125.01563-.145833 0-.270833-.05208-.375-.15625-.1041667-.10417-.15625-.22396-.15625-.35938v-1.64062c0-.26042.114583-.42708.34375-.5l1.23437-.42188v-4.32812l-.843745.29688c-.010417.01041-.078125.01562-.203125.01562-.145833 0-.270833-.05208-.375-.15625-.1041667-.10417-.15625-.22396-.15625-.35937v-1.64063c0-.25.114583-.40625.34375-.46875l1.23437-.48438v-4.23437c0-.33333.16667-.5.5-.5.33334 0 .5.16667.5.5v3.89063l2.25-.84376v-4.26562c0-.33333.16667-.5.5-.5.33334 0 .5.16667.5.5v3.92188l.875-.3125c.01042-.01042.06771-.01563.17188-.01563.125 0 .26042.05208.40625.15625.10417.10417.15625.22396.15625.35938v1.64062c0 .25-.125.41667-.375.5l-1.23438.42188v4.32812l.875-.29688c.01042-.01041.06771-.01562.17188-.01562.125 0 .26042.05208.40625.15625.10417.10417.15625.22396.15625.35937v1.64063c0 .22917-.125.38542-.375.46875l-1.23438.48438zm-1-10.96875-2.25.79688v4.32812l2.25-.79688z" transform="matrix(3.11654 0 0 3.11654 91.0732 75.68867)"/><path d="m9.70312-.734375c-.45833 0-.91666-.177083-1.375-.531245-.4375-.33334-.65624-.82813-.65624-1.48438 0-.54167.1875-1.02083.5625-1.4375.34374-.42708.80729-.64062 1.39062-.64062.19792 0 .32292.01041.375.03124-.8125-1.04166-1.89583-1.57812-3.25-1.60937-1.02083 0-1.79167.29167-2.3125.875-.17708.22917-.33594.59635-.47656 1.10156-.14063.50521-.21094.96094-.21094 1.36719-.04167.28125-.0625.84375-.0625 1.6875v2.75c0 .84375.02083 1.41146.0625 1.70312.0625 1.14584.29167 1.96355.6875 2.45313.54167.60417 1.3125.90625 2.3125.90625 1.05208 0 1.94792-.38542 2.6875-1.15625.7604-.76042 1.2865-1.73958 1.5781-2.9375.0521-.17708.1615-.26563.3282-.26563.2291 0 .3437.10938.3437.32813 0 .11458-.0573.34896-.1719.70313-.2396.79166-.7187 1.625-1.4375 2.5-.86456.98958-1.97393 1.48437-3.3281 1.48437-.79167 0-1.59896-.11458-2.42188-.34375-.8125-.28125-1.52604-.66667-2.14062-1.15625-.6875-.55208-1.223958-1.29167-1.609375-2.21875-.385417-1.02083-.578125-2.14583-.578125-3.375 0-2.14583.578125-3.84896 1.73438-5.10938 1.125-1.30208 2.79687-1.95312 5.01562-1.95312 1.4375 0 2.57812.48958 3.4219 1.46875.8854.98958 1.3281 1.96875 1.3281 2.9375 0 .5625-.1771 1.01563-.5312 1.35937-.3126.375005-.7344.562505-1.26568.562505" transform="matrix(3.11654 0 0 3.11654 145.3562 117.35467)"/><path d="m350.812 75.2036h48.09v3.3424h-48.09z" fill-rule="evenodd" transform="matrix(3.11654 0 0 3.11654 -498.40584 377.77165)"/><path d="m346.233 58.4917 48.09-11.9136v3.3423l-48.09 11.9137z" fill-rule="evenodd" transform="matrix(3.11654 0 0 3.11654 -498.40584 75.68867)"/><path d="m286.719 75.2036h48.09v3.3424h-48.09z" fill-rule="evenodd" transform="matrix(3.11654 0 0 3.11654 -498.40584 377.77165)"/><path d="m282.14 46.7933 48.09-8.5097v3.3424l-48.09 8.5097z" fill-rule="evenodd" transform="matrix(3.11654 0 0 3.11654 -498.40584 75.68867)"/><path d="m0 6.75v-6.75h.84375c0 1 .19271 2 .57813 3 .42708 1.09375.89583 2.04688 1.40624 2.85938.36459.57291.91667 1.45833 1.65626 2.65624.5625.91667 1.03645 1.87498 1.42187 2.87498s.57813 2 .57813 3c0 1.8334-.375 3.6979-1.125 5.5938-.125.2083-.29167.3125-.5.3125-.17709 0-.33855-.0677-.48438-.2031-.10417-.1042-.15625-.2344-.15625-.3907v-.1406c.76042-1.7396 1.14063-3.4635 1.14063-5.1719 0-.875-.26563-1.8229-.79688-2.8437-.53125-1.0313-1.06771-1.85419-1.60938-2.46878-.61458-.72916-1.3177-1.5052-2.10937-2.32812z" transform="matrix(3.11654 0 0 3.11654 742.0842 291.72967)"/><path d="m0 6.75v-6.75h.84375c0 1 .19271 2 .57813 3 .42708 1.09375.89583 2.04688 1.40624 2.85938.36459.57291.91667 1.45833 1.65626 2.65624.5625.91667 1.03645 1.87498 1.42187 2.87498s.57813 2 .57813 3c0 1.8334-.375 3.6979-1.125 5.5938-.125.2083-.29167.3125-.5.3125-.17709 0-.33855-.0677-.48438-.2031-.10417-.1042-.15625-.2344-.15625-.3907v-.1406c.76042-1.7396 1.14063-3.4635 1.14063-5.1719 0-.875-.26563-1.8229-.79688-2.8437-.53125-1.0313-1.06771-1.85419-1.60938-2.46878-.61458-.72916-1.3177-1.5052-2.10937-2.32812z" transform="matrix(3.11654 0 0 3.11654 752.4842 28.81366)"/><path d="m0 6.75v-6.75h.84375c0 1 .19271 2 .57813 3 .42708 1.09375.89583 2.04688 1.40624 2.85938.36459.57291.91667 1.45833 1.65626 2.65624.5625.91667 1.03645 1.87498 1.42187 2.87498s.57813 2 .57813 3c0 1.8334-.375 3.6979-1.125 5.5938-.125.2083-.29167.3125-.5.3125-.17709 0-.33855-.0677-.48438-.2031-.10417-.1042-.15625-.2344-.15625-.3907v-.1406c.76042-1.7396 1.14063-3.4635 1.14063-5.1719 0-.875-.26563-1.8229-.79688-2.8437-.53125-1.0313-1.06771-1.85419-1.60938-2.46878-.61458-.72916-1.3177-1.5052-2.10937-2.32812z" transform="matrix(3.11654 0 0 3.11654 542.3342 291.72967)"/><path d="m0 6.75v-6.75h.84375c0 1 .19271 2 .57813 3 .42708 1.09375.89583 2.04688 1.40624 2.85938.36459.57291.91667 1.45833 1.65626 2.65624.5625.91667 1.03645 1.87498 1.42187 2.87498s.57813 2 .57813 3c0 1.8334-.375 3.6979-1.125 5.5938-.125.2083-.29167.3125-.5.3125-.17709 0-.33855-.0677-.48438-.2031-.10417-.1042-.15625-.2344-.15625-.3907v-.1406c.76042-1.7396 1.14063-3.4635 1.14063-5.1719 0-.875-.26563-1.8229-.79688-2.8437-.53125-1.0313-1.06771-1.85419-1.60938-2.46878-.61458-.72916-1.3177-1.5052-2.10937-2.32812z" transform="matrix(3.11654 0 0 3.11654 552.7342 21.00066)"/><path d="m.445312 1.08594c-.296874-.296878-.445312-.658857-.445312-1.08594s.148438-.789062.445312-1.08594c.296876-.29687.656248-.44531 1.078128-.44531.42187 0 .78385.14844 1.08594.44531.30208.296878.45312.658857.45312 1.08594s-.15104.789062-.45312 1.08594c-.30209.29687-.66407.44531-1.08594.44531-.42188 0-.781252-.14844-1.078128-.44531" transform="matrix(3.11654 0 0 3.11654 615.3242 86.10467)"/><path d="m.445312 1.08594c-.296874-.296878-.445312-.658857-.445312-1.08594s.148438-.789062.445312-1.08594c.296876-.29687.656248-.44531 1.078128-.44531.42187 0 .78385.14844 1.08594.44531.30208.296878.45312.658857.45312 1.08594s-.15104.789062-.45312 1.08594c-.30209.29687-.66407.44531-1.08594.44531-.42188 0-.781252-.14844-1.078128-.44531" transform="matrix(3.11654 0 0 3.11654 415.5742 86.10467)"/></svg>