<?xml version="1.0" standalone="no"?>
<svg version="1.1" baseProfile="full" viewBox="0 0 100 70" xmlns="http://www.w3.org/2000/svg" class="my-16" id="sound-vibrations"><g class="cursor-pointer" transform="translate(11.89105807053849,0)"><circle cx="0" cy="35" r="4.5" fill="currentColor"/><polygon fill="gray" points="-2,32 3,35 -2,38"/></g><circle cx="11.89105807053849" r="4" cy="35" stroke-width="0.5" stroke-linecap="round" stroke="currentColor" fill="none"/><circle cx="8.543486072085003" r="8" cy="35" stroke-width="0.5" stroke-linecap="round" stroke="currentColor" fill="none"/><circle cx="6.535026261898441" r="12" cy="35" stroke-width="0.5" stroke-linecap="round" stroke="currentColor" fill="none"/><circle cx="7.712247326977359" r="16" cy="35" stroke-width="0.5" stroke-linecap="round" stroke="currentColor" fill="none"/><circle cx="10.992817649121292" r="20" cy="35" stroke-width="0.5" stroke-linecap="round" stroke="currentColor" fill="none"/><circle cx="13.360596003276282" r="24" cy="35" stroke-width="0.5" stroke-linecap="round" stroke="currentColor" fill="none"/><circle cx="12.638657890201566" r="28" cy="35" stroke-width="0.5" stroke-linecap="round" stroke="currentColor" fill="none"/><circle cx="9.490749881669853" r="32" cy="35" stroke-width="0.5" stroke-linecap="round" stroke="currentColor" fill="none"/><circle cx="6.8110440834036305" r="36" cy="35" stroke-width="0.5" stroke-linecap="round" stroke="currentColor" fill="none"/><circle cx="7.063249648232416" r="40" cy="35" stroke-width="0.5" stroke-linecap="round" stroke="currentColor" fill="none"/><circle cx="10.015489942958178" r="44" cy="35" stroke-width="0.5" stroke-linecap="round" stroke="currentColor" fill="none"/><circle cx="12.953488855563723" r="48" cy="35" stroke-width="0.5" stroke-linecap="round" stroke="currentColor" fill="none"/><circle cx="13.176063735075687" r="52" cy="35" stroke-width="0.5" stroke-linecap="round" stroke="currentColor" fill="none"/><circle cx="10.478580263727418" r="56" cy="35" stroke-width="0.5" stroke-linecap="round" stroke="currentColor" fill="none"/><circle cx="7.341092304994126" r="60" cy="35" stroke-width="0.5" stroke-linecap="round" stroke="currentColor" fill="none"/><circle cx="6.6481918188681535" r="64" cy="35" stroke-width="0.5" stroke-linecap="round" stroke="currentColor" fill="none"/><circle cx="9.036928316819411" r="68" cy="35" stroke-width="0.5" stroke-linecap="round" stroke="currentColor" fill="none"/><circle cx="12.31110847885428" r="72" cy="35" stroke-width="0.5" stroke-linecap="round" stroke="currentColor" fill="none"/><circle cx="13.460466163653342" r="76" cy="35" stroke-width="0.5" stroke-linecap="round" stroke="currentColor" fill="none"/><circle cx="11.428287216346872" r="80" cy="35" stroke-width="0.5" stroke-linecap="round" stroke="currentColor" fill="none"/><circle cx="8.08294758921506" r="84" cy="35" stroke-width="0.5" stroke-linecap="round" stroke="currentColor" fill="none"/><circle cx="6.5001371076187695" r="88" cy="35" stroke-width="0.5" stroke-linecap="round" stroke="currentColor" fill="none"/><circle cx="8.135084428833109" r="92" cy="35" stroke-width="0.5" stroke-linecap="round" stroke="currentColor" fill="none"/><circle cx="11.48462652567949" r="96" cy="35" stroke-width="0.5" stroke-linecap="round" stroke="currentColor" fill="none"/><rect x="0" y="0" width="100" height="70" stroke="currentColor" fill="none" stroke-width="2" rx="2"/></svg>