<?xml version="1.0" encoding="utf-8"?>
<!-- Generator: Adobe Illustrator 24.3.0, SVG Export Plug-In . SVG Version: 6.00 Build 0)  -->
<svg version="1.1" id="Layer_1" xmlns="http://www.w3.org/2000/svg" xmlns:xlink="http://www.w3.org/1999/xlink" x="0px" y="0px"
	 viewBox="0 0 432.5 361.5" style="enable-background:new 0 0 432.5 361.5;" xml:space="preserve">
<style type="text/css">
	.st0{opacity:0.15;fill:#FFFFFF;stroke:#008EAF;enable-background:new    ;}
	.st1{stroke:#000000;}
	.st2{fill:none;}
</style>
<polygon class="st0" points="78.2,257.8 123.8,178.8 169.4,257.8 "/>
<polygon class="st0" points="170.3,257.8 215.9,178.8 261.5,257.8 "/>
<polygon class="st0" points="262,257.8 307.6,178.8 353.2,257.8 "/>
<polygon class="st0" points="124.3,178 169.9,99 215.5,178 "/>
<polygon class="st0" points="216.1,178 261.7,99 307.3,178 "/>
<polygon class="st0" points="170.4,98.4 216,19.4 261.6,98.4 "/>
<circle class="st1" cx="215.7" cy="18.1" r="6"/>
<circle class="st1" cx="261.5" cy="98.5" r="6"/>
<ellipse transform="matrix(0.1602 -0.9871 0.9871 0.1602 82.1286 453.0126)" class="st1" cx="307.3" cy="178.2" rx="6" ry="6"/>
<circle class="st1" cx="353.2" cy="257.8" r="6"/>
<circle class="st1" cx="261.5" cy="257.8" r="6"/>
<circle class="st1" cx="170.7" cy="257.8" r="6"/>
<circle class="st1" cx="78.2" cy="257.8" r="6"/>
<polygon class="st0" points="32.9,337.5 78.5,258.6 124.1,337.5 "/>
<polygon class="st0" points="124.9,337.5 170.5,258.6 216.1,337.5 "/>
<polygon class="st0" points="216.6,337.5 262.2,258.6 307.8,337.5 "/>
<circle class="st1" cx="307.8" cy="337.5" r="6"/>
<polygon class="st0" points="307.3,337.5 352.9,258.6 398.5,337.5 "/>
<circle class="st1" cx="398.5" cy="337.5" r="6"/>
<circle class="st1" cx="216.1" cy="337.5" r="6"/>
<circle class="st1" cx="125.3" cy="337.5" r="6"/>
<circle class="st1" cx="32.9" cy="337.5" r="6"/>
<circle class="st1" cx="124.3" cy="178.2" r="6"/>
<circle class="st1" cx="215.7" cy="178.2" r="6"/>
<circle class="st1" cx="170.7" cy="98.5" r="6"/>
<rect x="47.4" y="0" class="st2" width="337.7" height="282.7"/>
</svg>
