<svg viewBox="0 0 395.51 395.51" xmlns="http://www.w3.org/2000/svg"><circle cx="197.75" cy="197.76" fill="#37373a" r="137.25"/><path d="m320.76 126.73a142.36 142.36 0 0 1 14.24 34.27l-45.83 12.36a92.49 92.49 0 0 0 -24.6-42.61l33.61-33.51a141.66 141.66 0 0 1 22.58 29.49z" fill="#fcee1f"/><path d="m74.74 268.77a142.32 142.32 0 0 1 -14.24-34.28l45.83-12.36a92.49 92.49 0 0 0 24.6 42.62l-33.61 33.5a141.84 141.84 0 0 1 -22.58-29.48z" fill="#2d368f"/><path d="m126.73 74.74a142.32 142.32 0 0 1 34.27-14.24l12.36 45.83a92.39 92.39 0 0 0 -42.6 24.59l-33.5-33.61a142 142 0 0 1 29.47-22.57z" fill="#eb1a5b"/><path d="m268.78 320.77a141.52 141.52 0 0 1 -34.28 14.23l-12.36-45.82a92.53 92.53 0 0 0 42.6-24.6l33.51 33.62a142.22 142.22 0 0 1 -29.47 22.57z" fill="#009b90"/><path d="m268.77 74.74a141.66 141.66 0 0 1 29.47 22.57l-33.5 33.62a92.39 92.39 0 0 0 -42.61-24.6l12.36-45.83a142.32 142.32 0 0 1 34.28 14.24z" fill="#f69320"/><path d="m126.74 320.77a142 142 0 0 1 -29.47-22.56l33.51-33.62a92.53 92.53 0 0 0 42.6 24.6l-12.38 45.81a142.32 142.32 0 0 1 -34.26-14.23z" fill="#0b72ba"/><path d="m74.74 126.73a142 142 0 0 1 22.57-29.47l33.62 33.51a92.29 92.29 0 0 0 -24.6 42.6l-45.83-12.37a142.32 142.32 0 0 1 14.24-34.28z" fill="#e90e8b"/><path d="m320.77 268.78a142 142 0 0 1 -22.57 29.47l-33.62-33.5a92.39 92.39 0 0 0 24.6-42.61l45.82 12.37a142.42 142.42 0 0 1 -14.24 34.27z" fill="#03a550"/><path d="m339.8 197.76a142.29 142.29 0 0 1 -4.8 36.81l-45.87-12.21a92.49 92.49 0 0 0 0-49.19l45.87-12.17a142.27 142.27 0 0 1 4.81 36.8z" fill="#8cc540"/><path d="m55.71 197.75a142.29 142.29 0 0 1 4.81-36.81l45.87 12.21a92.53 92.53 0 0 0 0 49.2l-45.87 12.2a142.27 142.27 0 0 1 -4.81-36.8z" fill="#90298d"/><path d="m197.75 55.71a141.73 141.73 0 0 1 36.8 4.81l-12.2 45.87a92.53 92.53 0 0 0 -49.2 0l-12.15-45.87a141.78 141.78 0 0 1 36.75-4.81z" fill="#eb2227"/><path d="m197.76 339.8a142.34 142.34 0 0 1 -36.76-4.8l12.21-45.87a92.53 92.53 0 0 0 49.2 0l12.15 45.87a142.21 142.21 0 0 1 -36.8 4.8z" fill="#29abe2"/><path d="m280.77 149.82a96.1 96.1 0 0 1 9.61 23.18l-30.92 8.34a62.75 62.75 0 0 0 -16.61-28.77l22.69-22.61a96 96 0 0 1 15.23 19.86z" fill="#d2bc2c"/><path d="m114.74 245.68a95.47 95.47 0 0 1 -9.61-23.14l30.92-8.34a62.65 62.65 0 0 0 16.61 28.8l-22.66 22.58a95.77 95.77 0 0 1 -15.26-19.9z" fill="#31347f"/><path d="m149.82 114.74a95.47 95.47 0 0 1 23.18-9.61l8.34 30.92a62.55 62.55 0 0 0 -28.75 16.6l-22.66-22.65a95.66 95.66 0 0 1 19.89-15.26z" fill="#c82155"/><path d="m245.69 280.78a96.27 96.27 0 0 1 -23.14 9.61l-8.34-30.93a62.32 62.32 0 0 0 28.79-16.6l22.62 22.69a95.92 95.92 0 0 1 -19.93 15.23z" fill="#07867a"/><path d="m245.68 114.73a96.35 96.35 0 0 1 19.89 15.27l-22.57 22.65a62.65 62.65 0 0 0 -28.76-16.6l8.35-30.92a95.93 95.93 0 0 1 23.09 9.6z" fill="#cd7b2b"/><path d="m149.83 280.78a96 96 0 0 1 -19.89-15.23l22.62-22.69a62.36 62.36 0 0 0 28.74 16.6l-8.3 30.93a96.27 96.27 0 0 1 -23.17-9.61z" fill="#03679a"/><path d="m114.74 149.82a96 96 0 0 1 15.26-19.89l22.69 22.61a62.65 62.65 0 0 0 -16.6 28.76l-30.96-8.3a95.57 95.57 0 0 1 9.61-23.13z" fill="#c81a79"/><path d="m280.77 245.69a95.66 95.66 0 0 1 -15.23 19.89l-22.68-22.58a62.55 62.55 0 0 0 16.6-28.75l30.92 8.34a95.57 95.57 0 0 1 -9.61 23.13z" fill="#00904d"/><path d="m293.62 197.76a96 96 0 0 1 -3.25 24.84l-30.95-8.24a62.59 62.59 0 0 0 0-33.19l30.95-8.24a95.94 95.94 0 0 1 3.25 24.83z" fill="#7aa240"/><path d="m101.89 197.75a96 96 0 0 1 3.25-24.84l31 8.24a62.63 62.63 0 0 0 0 33.2l-30.95 8.24a96 96 0 0 1 -3.3-24.84z" fill="#822b7c"/><path d="m197.75 101.89a96 96 0 0 1 24.84 3.25l-8.24 31a62.63 62.63 0 0 0 -33.2 0l-8.24-30.95a96 96 0 0 1 24.84-3.3z" fill="#c8262d"/><path d="m197.76 293.62a96 96 0 0 1 -24.84-3.24l8.24-31a62.36 62.36 0 0 0 33.2 0l8.24 31a96 96 0 0 1 -24.84 3.24z" fill="#0294bb"/><path d="m254.07 165.23a65.28 65.28 0 0 1 6.53 15.71l-21 5.65a42.34 42.34 0 0 0 -11.26-19.51l15.39-15.34a65.35 65.35 0 0 1 10.34 13.49z" fill="#a79038"/><path d="m141.43 230.27a64.78 64.78 0 0 1 -6.52-15.7l21-5.66a42.24 42.24 0 0 0 11.27 19.51l-15.39 15.35a65.11 65.11 0 0 1 -10.36-13.5z" fill="#33356f"/><path d="m165.23 141.43a64.78 64.78 0 0 1 15.7-6.52l5.66 21a42.34 42.34 0 0 0 -19.51 11.26l-15.34-15.39a65.35 65.35 0 0 1 13.49-10.35z" fill="#a62b4e"/><path d="m230.28 254.09a65.14 65.14 0 0 1 -15.7 6.51l-5.66-21a42.34 42.34 0 0 0 19.51-11.26l15.34 15.39a65.39 65.39 0 0 1 -13.49 10.36z" fill="#007264"/><path d="m230.27 141.43a64.74 64.74 0 0 1 13.49 10.33l-15.34 15.39a42.34 42.34 0 0 0 -19.51-11.26l5.66-21a64.78 64.78 0 0 1 15.7 6.54z" fill="#a76636"/><path d="m165.24 254.09a65.47 65.47 0 0 1 -13.49-10.34l15.34-15.4a42.24 42.24 0 0 0 19.51 11.27l-5.66 21a65.14 65.14 0 0 1 -15.7-6.53z" fill="#035b7f"/><path d="m141.43 165.23a65.08 65.08 0 0 1 10.33-13.49l15.39 15.34a42.34 42.34 0 0 0 -11.26 19.51l-21-5.66a65.18 65.18 0 0 1 6.52-15.7z" fill="#a42868"/><path d="m254.08 230.28a64.82 64.82 0 0 1 -10.33 13.49l-15.39-15.34a42.24 42.24 0 0 0 11.26-19.5l21 5.66a65.28 65.28 0 0 1 -6.52 15.69z" fill="#007b48"/><path d="m262.8 197.76a65.55 65.55 0 0 1 -2.21 16.86l-21-5.6a42.47 42.47 0 0 0 0-22.52l21-5.59a65.53 65.53 0 0 1 2.21 16.85z" fill="#688443"/><path d="m132.72 197.75a65.11 65.11 0 0 1 2.2-16.86l21 5.6a42.2 42.2 0 0 0 0 22.52l-21 5.59a65 65 0 0 1 -2.2-16.85z" fill="#73306c"/><path d="m197.75 132.71a65.42 65.42 0 0 1 16.85 2.21l-5.59 21a42.2 42.2 0 0 0 -22.52 0l-5.59-21a65.42 65.42 0 0 1 16.85-2.21z" fill="#a62d33"/><path d="m197.76 262.8a65.42 65.42 0 0 1 -16.85-2.21l5.59-21a42.47 42.47 0 0 0 22.52 0l5.59 21a65 65 0 0 1 -16.85 2.2z" fill="#037c90"/><path d="m235.5 176a43.73 43.73 0 0 1 4.37 10.52l-14.06 3.79a29.52 29.52 0 0 0 -2.89-7.05 28.7 28.7 0 0 0 -4.66-6l10.31-10.28a43.6 43.6 0 0 1 6.93 9.02z" fill="#816f3c"/><path d="m160 219.54a43 43 0 0 1 -4.36-10.54l14.06-3.8a28.42 28.42 0 0 0 7.55 13.08l-10.31 10.28a43.25 43.25 0 0 1 -6.94-9.02z" fill="#36365d"/><path d="m176 160a43.46 43.46 0 0 1 10.52-4.36l3.79 14.06a28.71 28.71 0 0 0 -7.05 2.89 28.37 28.37 0 0 0 -6 4.66l-10.28-10.32a43.6 43.6 0 0 1 9.02-6.93z" fill="#843147"/><path d="m219.55 235.51a43.9 43.9 0 0 1 -10.55 4.37l-3.79-14.06a29.11 29.11 0 0 0 7-2.89 28.7 28.7 0 0 0 6-4.66l10.29 10.31a43.59 43.59 0 0 1 -8.95 6.93z" fill="#035e50"/><path d="m219.54 160a43.94 43.94 0 0 1 9.05 6.93l-10.29 10.32a28.37 28.37 0 0 0 -6-4.66 28.71 28.71 0 0 0 -7.05-2.89l3.8-14.07a43.83 43.83 0 0 1 10.49 4.37z" fill="#84543a"/><path d="m176 235.51a43.59 43.59 0 0 1 -9.05-6.93l10.28-10.32a28.56 28.56 0 0 0 13.08 7.56l-3.79 14.06a43.73 43.73 0 0 1 -10.52-4.37z" fill="#225066"/><path d="m160 176a43.29 43.29 0 0 1 6.92-9.05l10.31 10.28a29.33 29.33 0 0 0 -4.65 6 28.87 28.87 0 0 0 -2.89 7.05l-14.07-3.8a43.46 43.46 0 0 1 4.38-10.48z" fill="#85305a"/><path d="m235.51 219.56a43.87 43.87 0 0 1 -6.93 9l-10.31-10.28a28.52 28.52 0 0 0 7.54-13.08l14.07 3.8a44.07 44.07 0 0 1 -4.37 10.52z" fill="#026644"/><path d="m241.35 197.77a44.24 44.24 0 0 1 -1.48 11.29l-14.08-3.75a28.49 28.49 0 0 0 1-7.55 29 29 0 0 0 -1-7.56l14.07-3.74a44 44 0 0 1 1.49 11.31z" fill="#566a41"/><path d="m154.17 197.75a43.74 43.74 0 0 1 1.47-11.29l14.08 3.74a29 29 0 0 0 -1 7.55 28.54 28.54 0 0 0 1 7.55l-14.08 3.75a43.93 43.93 0 0 1 -1.47-11.3z" fill="#61345c"/><path d="m197.75 154.17a43.36 43.36 0 0 1 11.25 1.47l-3.74 14.08a29.33 29.33 0 0 0 -7.55-1 29 29 0 0 0 -7.55 1l-3.74-14.07a43.36 43.36 0 0 1 11.33-1.48z" fill="#853236"/><path d="m197.76 241.35a43.44 43.44 0 0 1 -11.3-1.48l3.75-14.07a28.45 28.45 0 0 0 15.1 0l3.74 14.08a43.79 43.79 0 0 1 -11.29 1.47z" fill="#05666f"/><path d="m205.81 211.7a16.1 16.1 0 1 0 -22-5.9 16.1 16.1 0 0 0 22 5.9z" fill="#37373a"/><path d="m193.58 182.1a15.75 15.75 0 0 1 8.36 0 16.12 16.12 0 0 1 11.45 11.45 15.64 15.64 0 0 1 .56 4.19 16 16 0 0 1 -.55 4.18 15.76 15.76 0 0 1 -4.18 7.27 15.77 15.77 0 0 1 -3.36 2.6 16 16 0 0 1 -3.93 1.61 15.69 15.69 0 0 1 -8.38 0 15.84 15.84 0 0 1 -3.9-1.61 16.22 16.22 0 0 1 -3.35-2.58 15.88 15.88 0 0 1 -2.58-3.35 16.19 16.19 0 0 1 9.86-23.75z" fill="none"/><path d="m221.23 191.44s0 0 0 0l-7.85 2.09a16 16 0 0 0 -4.19-7.26l5.74-5.75 3.4-3.41a29.32 29.32 0 0 1 7.54 13.06z" fill="#5d523d"/><path d="m215 180.57-5.74 5.75a16 16 0 0 0 -7.26-4.19l2.09-7.86 1.24-4.65a29.4 29.4 0 0 1 13 7.54z" fill="#60443b"/><path d="m190.23 225.9-.01-.01z" fill="#0b72ba"/><path d="m180.56 214.94 5.73-5.75a16.22 16.22 0 0 0 3.35 2.58 15.84 15.84 0 0 0 3.9 1.61l-2.08 7.86-1.23 4.64a28.78 28.78 0 0 1 -7-2.92 29.65 29.65 0 0 1 -6-4.63l3.4-3.41z" fill="#2f434e"/><path d="m180.57 180.55 5.75 5.74a16 16 0 0 0 -4.18 7.25l-7.85-2.09-4.65-1.23a29.43 29.43 0 0 1 7.54-13.07z" fill="#603449"/><path d="m225.89 205.29v.01z" fill="#03a550"/><path d="m215 215-5.75-5.73a15.76 15.76 0 0 0 4.18-7.27l7.86 2.1 4.65 1.24a29.35 29.35 0 0 1 -2.92 7 28.93 28.93 0 0 1 -4.62 6l-3.46-3.34z" fill="#2a503f"/><path d="m221.24 204.07 4.65 1.24a29.31 29.31 0 0 0 0-15.07l-4.65 1.23s0 0 0 0l-7.85 2.09a15.64 15.64 0 0 1 .56 4.19 16 16 0 0 1 -.55 4.18l7.86 2.1z" fill="#45513e"/><path d="m169.62 190.21a29.46 29.46 0 0 0 0 15.07l4.65-1.23 7.84-2.09a16 16 0 0 1 0-8.38l-7.85-2.09zm4.64 1.24s0 0 0 0 .01.01 0 0z" fill="#4c364a"/><path d="m204.06 174.27 1.24-4.65a29.5 29.5 0 0 0 -15.08 0l1.23 4.65 2.09 7.84a15.75 15.75 0 0 1 8.36 0l2.09-7.86z" fill="#633539"/><path d="m191.45 221.25-1.23 4.64a29.66 29.66 0 0 0 7.53 1 28.82 28.82 0 0 0 7.54-1l-1.23-4.64-2.06-7.85a15.69 15.69 0 0 1 -8.38 0l-2.08 7.86z" fill="#274f50"/><path d="m174.27 204.05 7.84-2.09a16.06 16.06 0 0 0 1.61 3.91 15.88 15.88 0 0 0 2.58 3.35l-5.73 5.75-3.4 3.41a29.47 29.47 0 0 1 -7.53-13.05l4.65-1.23z" fill="#37374b"/><path d="m191.46 174.26 2.09 7.84a16 16 0 0 0 -7.29 4.21l-5.75-5.74-3.41-3.4a29.47 29.47 0 0 1 13.05-7.53l1.23 4.65z" fill="#623540"/><path d="m204.05 221.25-2.05-7.85a16 16 0 0 0 3.93-1.61 15.77 15.77 0 0 0 3.36-2.6l5.71 5.81 3.41 3.39a29.22 29.22 0 0 1 -13 7.53l-1.23-4.64z" fill="#254940"/><path d="m174.26 191.46s0 0 0 0z" fill="#603449"/><g fill="#010101"><path d="m21.68 191.65-3.78 14.7h-1.72l-3.77-14.7h1.38l3.21 12.52 3.26-12.52z"/><path d="m22.84 192.78h1.37v1.29h-1.37zm.09 3.07h1.19v10.5h-1.19z"/><path d="m26.1 199.36c0-2.82 1.65-3.7 3.19-3.7s3.21.86 3.21 3.7v3.46c0 2.83-1.67 3.7-3.21 3.7s-3.19-.89-3.19-3.7zm5.22.57c0-2.55-1-3.19-2-3.19s-2 .64-2 3.19v2.32c0 2.53.88 3.19 2 3.19s2-.66 2-3.19z"/><path d="m34.44 191.65h1.18v14.7h-1.18z"/><path d="m37.41 199.36c0-2.82 1.65-3.7 3.2-3.7s3.19.86 3.19 3.7v2.26h-5.2v.94c0 2.28.91 2.88 2 2.88s1.93-.53 2-2.5h1.18c-.05 2.74-1.69 3.58-3.2 3.58s-3.2-.89-3.2-3.7zm5.21.19c0-2.24-1-2.81-2-2.81s-2 .57-2 2.82v1.14h4z"/><path d="m47.69 202.35c0 2.81.54 3.1 2 3.11h.25v1.08h-.54c-1.77 0-2.89-.51-2.88-3.84v-5.79h-1.6v-1.06h1.6v-3.21h1.17v3.21h2.23v1.06h-2.23z"/><path d="m92 330.54h-4.13l-1.2 4.46h-1.37l3.78-14.7h1.69l3.79 14.7h-1.37zm-.2-1.38-1.87-7.16-1.86 7.17z"/><path d="m102.13 333.94v1.06h-6.28v-.92l4.93-8.49h-4.69v-1.09h6v.93l-4.92 8.5z"/><path d="m110.24 324.51v10.49h-.89l-.14-1.37a2.58 2.58 0 0 1 -2.47 1.56c-1.42 0-2.91-.87-2.91-3.69v-7h1.17v6.42c0 2.55 1 3.2 2 3.2s2-.6 2-2.94v-6.68z"/><path d="m113.26 326.15a2.93 2.93 0 0 1 2.7-1.83v1.07c-1.46 0-2.58 1-2.59 3.35v6.26h-1.18v-10.5h.89z"/><path d="m117.13 328c0-2.81 1.65-3.7 3.19-3.7s3.2.87 3.2 3.7v2.27h-5.21v.93c0 2.28.91 2.88 2 2.89s1.94-.53 2-2.5h1.17c0 2.74-1.68 3.57-3.2 3.57s-3.19-.88-3.19-3.7zm5.21.2c0-2.24-1-2.82-2-2.82s-2 .57-2 2.82v1.15h4z"/><path d="m67.08 61.68c0-3.89 2.17-5.08 4.27-5.08s4.05 1.1 4.19 4.73v.35h-1.37v-.32c-.15-2.61-1.39-3.44-2.8-3.44s-2.87.9-2.87 3.94v4.52c0 3.05 1.35 4 2.87 4s2.62-.81 2.8-3.39v-.38h1.37v.33c-.12 3.65-2.19 4.76-4.19 4.76s-4.27-1.2-4.27-5.08z"/><path d="m78.29 62.63a2.94 2.94 0 0 1 2.71-1.83v1.06c-1.45 0-2.58 1-2.59 3.35v6.27h-1.18v-10.48h.89z"/><path d="m82.53 57.92h1.36v1.28h-1.36zm.09 3.08h1.18v10.5h-1.18z"/><path d="m87 62.35a2.74 2.74 0 0 1 5.07.33 2.6 2.6 0 0 1 2.6-1.88c1.42 0 2.91.86 2.91 3.69v7h-1.21v-6.43c0-2.55-1-3.19-2-3.19s-1.86.48-2 2.3v7.31h-1.2v-6.42c0-2.55-1-3.19-2-3.19s-2 .58-2 2.85v6.76h-1.23v-10.48h.9z"/><path d="m100.4 68.54a1.9 1.9 0 0 0 2 2c1.15 0 2-.49 2-1.92s-.82-1.89-2.11-2.26-2.87-.91-2.87-2.84 1.42-2.75 3-2.75a2.92 2.92 0 0 1 3 3v.23h-1.17v-.21a1.8 1.8 0 0 0 -1.86-2c-1 0-1.83.4-1.83 1.62s1.32 1.64 2 1.86c2.23.59 3 1.72 3 3.25 0 2.19-1.47 3.05-3.22 3.05a3.06 3.06 0 0 1 -3.22-3.07v-.23h1.18z"/><path d="m107.24 64.49c0-2.81 1.65-3.69 3.19-3.69s3.22.86 3.22 3.69v3.51c0 2.83-1.67 3.69-3.22 3.69s-3.19-.88-3.19-3.69zm5.23.57c0-2.55-1-3.19-2-3.19s-2 .64-2 3.19v2.32c0 2.53.88 3.2 2 3.2s2-.67 2-3.2z"/><path d="m116.56 62.35a2.58 2.58 0 0 1 2.44-1.55c1.42 0 2.91.86 2.91 3.69v7h-1.18v-6.43c0-2.55-1-3.19-2-3.19s-2 .6-2 2.94v6.67h-1.18v-10.48h.89z"/><path d="m270.73 61.68c0-3.89 2.17-5.08 4.27-5.08s4.3 1.17 4.3 5.08v4.89c0 3.91-2.24 5.08-4.3 5.08s-4.27-1.2-4.27-5.08zm7.17.18c0-3-1.41-3.94-2.9-3.94s-2.87.9-2.87 3.94v4.52c0 3.05 1.35 4 2.87 4s2.9-.9 2.9-4z"/><path d="m282.39 62.63a2.94 2.94 0 0 1 2.7-1.83v1.06c-1.45 0-2.58 1-2.59 3.35v6.27h-1.17v-10.48h.89z"/><path d="m292.76 61v10.5h-.89l-.12-1.37a2.55 2.55 0 0 1 -2.46 1.54c-1.42 0-2.94-.87-2.94-3.69v-3.49c0-2.83 1.52-3.69 2.94-3.69a2.56 2.56 0 0 1 2.45 1.49l.13-1.31zm-5.23 6.4c0 2.53.92 3.2 2 3.2s2-.67 2-3.2v-2.34c0-2.55-.93-3.19-2-3.19s-2 .64-2 3.19z"/><path d="m295.79 62.35a2.59 2.59 0 0 1 2.47-1.55c1.42 0 2.91.86 2.91 3.69v7h-1.17v-6.43c0-2.55-1-3.19-2-3.19s-2 .6-2 2.94v6.67h-1.18v-10.48h.9z"/><path d="m303 64.49c0-2.83 1.49-3.69 2.91-3.69a2.6 2.6 0 0 1 2.48 1.51l.13-1.33h.9v10.48c0 2.77-1.67 3.63-3.2 3.63a2.92 2.92 0 0 1 -3.05-2.37h1.22a1.77 1.77 0 0 0 1.82 1.3c1.1 0 2-.58 2-2.78v-1.18a2.42 2.42 0 0 1 -2.32 1.42c-1.42 0-2.91-.86-2.91-3.69zm5.23.57c0-2.54-.91-3.19-2-3.19s-2 .65-2 3.19v2.2c0 2.54.93 3.2 2 3.2s2-.66 2-3.2z"/><path d="m311.23 64.49c0-2.81 1.66-3.69 3.2-3.69s3.2.86 3.2 3.69v2.27h-5.21v.93c0 2.28.91 2.88 2 2.89s1.93-.53 2-2.5h1.18c-.05 2.74-1.69 3.57-3.2 3.57s-3.19-.88-3.19-3.69zm5.21.2c0-2.24-1-2.82-2-2.82s-2 .57-2 2.82v1.15h4z"/><path d="m353.66 204v1.33h-6.21v-14.73h1.37v13.4z"/><path d="m355.72 191.73h1.36v1.27h-1.36zm.09 3.07h1.19v10.5h-1.18z"/><path d="m360.17 196.17a2.73 2.73 0 0 1 5.06.32 2.62 2.62 0 0 1 2.6-1.88c1.42 0 2.91.87 2.91 3.7v7h-1.18v-6.42c0-2.55-1-3.19-2-3.19s-1.86.48-2 2.29v7.32h-1.18v-6.42c0-2.55-1-3.19-2-3.19s-2 .57-2 2.85v6.76h-1.17v-10.51h.79z"/><path d="m372.54 198.31c0-2.82 1.65-3.7 3.19-3.7s3.2.86 3.2 3.7v2.26h-5.21v.94c0 2.28.91 2.88 2 2.88s1.94-.53 2-2.5h1.17c0 2.74-1.69 3.58-3.2 3.58s-3.19-.89-3.19-3.7zm5.21.19c0-2.24-1-2.81-2-2.81s-2 .57-2 2.82v1.14h4z"/><path d="m288.54 320.31v14.69h-1.34v-11.34l-3.57 11.34h-.94l-3.57-11.35v11.35h-1.34v-14.7h1.63l3.75 12 3.75-12z"/><path d="m291 321.44h1.36v1.29h-1.36zm.09 3.07h1.18v10.49h-1.27z"/><path d="m295.39 325.88a2.58 2.58 0 0 1 2.47-1.55c1.42 0 2.91.86 2.91 3.69v7h-1.18v-6.42c0-2.55-1-3.19-2-3.19s-2 .6-2 2.94v6.65h-1.18v-10.5h.89z"/><path d="m304.65 331c0 2.8.54 3.09 2 3.11h.25v1.07h-.52c-1.77 0-2.88-.5-2.88-3.83v-5.8h-1.6v-1.06h1.6v-3.19h1.18v3.21h2.22v1.06h-2.22z"/><path d="m189.5 33.7c2.2 0 4.63.92 4.63 4v.81a3.33 3.33 0 0 1 -2.08 3.25l2.33 6.66h-2.46l-1.92-5.96h-1.56v5.94h-2.33v-14.7zm2.36 4.3a1.83 1.83 0 0 0 -2-2h-1.44v4.27h1.44a1.85 1.85 0 0 0 2-2z"/><path d="m195.25 41.41c0-2.82 1.77-3.7 3.34-3.7s3.36.86 3.36 3.7v2.47h-4.72v.63c0 1.78.55 2.27 1.38 2.28s1.32-.41 1.38-1.85h2c0 2.78-1.8 3.63-3.36 3.63s-3.34-.88-3.34-3.7zm4.72.22c0-1.68-.65-2.13-1.37-2.14s-1.38.45-1.38 2.16v.76h2.78z"/><path d="m209.88 33.7v14.7h-1.39l-.25-1.09a2.55 2.55 0 0 1 -2.32 1.26c-1.33 0-2.75-.88-2.75-3.7v-3.46c0-2.83 1.42-3.7 2.75-3.7a2.31 2.31 0 0 1 2 1v-5zm-4.74 10.19c0 2.28.52 2.9 1.4 2.9s1.38-.62 1.37-2.9v-1.5c0-2.31-.55-2.9-1.38-2.9s-1.39.59-1.39 2.9z"/><path d="m179.86 354.1c0-3.89 2.2-5.08 4.3-5.08s4.13 1.13 4.21 4.87v.42h-2.32v-.31c-.09-1.92-.85-2.67-1.88-2.67s-1.91.79-1.91 3v4.58c0 2.19.8 3 1.91 3s1.77-.74 1.88-2.65v-.39h2.32v.41c-.07 3.75-2.19 4.89-4.21 4.89s-4.3-1.19-4.3-5.08z"/><path d="m196.15 353.4v10.6c-.05 2.7-1.79 3.55-3.33 3.55a3.09 3.09 0 0 1 -3.26-2.65h2a1.18 1.18 0 0 0 1.23.86c.79 0 1.38-.44 1.39-2v-.79a2.28 2.28 0 0 1 -2 1c-1.33 0-2.75-.87-2.75-3.69v-6.8h2v5.82c0 2.3.56 2.9 1.39 2.9s1.39-.6 1.4-2.9v-5.9z"/><path d="m204.13 353.41v10.49h-1.39l-.24-1.07a2.45 2.45 0 0 1 -2.27 1.24c-1.33 0-2.82-.87-2.82-3.69v-3.47c0-2.82 1.49-3.69 2.82-3.69a2.49 2.49 0 0 1 2.26 1.2l.25-1zm-4.75 6c0 2.28.52 2.89 1.4 2.89s1.38-.61 1.37-2.89v-1.51c0-2.3-.55-2.89-1.38-2.89s-1.39.59-1.39 2.89z"/><path d="m207.35 354.48a2.52 2.52 0 0 1 2.29-1.26c1.33 0 2.75.87 2.75 3.69v7h-2v-6c0-2.3-.55-2.89-1.39-2.89s-1.39.49-1.39 2.38v6.52h-2v-10.51h1.39z"/><path d="m338.24 114.19-3.53 8.89v5.81h-2.41v-5.8l-3.49-8.9h2.43l2.26 6.23 2.3-6.23z"/><path d="m337.55 121.9c0-2.82 1.77-3.7 3.34-3.7s3.36.86 3.36 3.7v2.47h-4.72v.63c0 1.78.55 2.27 1.38 2.28s1.32-.41 1.38-1.85h2c0 2.78-1.8 3.63-3.35 3.63s-3.35-.88-3.35-3.7zm4.72.22c0-1.68-.64-2.13-1.37-2.14s-1.38.45-1.38 2.16v.76h2.75z"/><path d="m345.71 114.19h2v14.7h-2z"/><path d="m349.21 114.19h2v14.7h-2z"/><path d="m352.57 121.9c0-2.82 1.77-3.7 3.34-3.7s3.36.86 3.36 3.7v3.46c0 2.84-1.79 3.7-3.36 3.7s-3.34-.88-3.34-3.7zm4.74 1c0-2.31-.58-2.9-1.39-2.9s-1.39.59-1.39 2.9v1.5c0 2.28.5 2.9 1.4 2.9s1.39-.62 1.38-2.9z"/><path d="m372.11 118.39-2.22 10.5h-2.39l-1.5-6.66-1.49 6.66h-2.39l-2.22-10.5h2l1.58 7.86 1.71-7.86h1.67l1.71 7.86 1.58-7.86z"/><path d="m329 272.83c0-3.88 2.14-5.08 4.24-5.08s4.16 1.16 4.2 5v.25h-2.24v-.15c-.05-2-.88-2.81-1.93-2.81s-1.91.8-1.91 3v4.58c0 2.19.8 3 1.91 3s1.93-.75 1.93-2.9v-.95h-1.87v-2.26h4.15v3.29c0 3.9-2.16 5.08-4.21 5.08s-4.24-1.2-4.24-5.08z"/><path d="m340.73 273.49a3 3 0 0 1 2.65-1.54v1.77c-1.47 0-2.41.81-2.43 2.94v6h-2v-10.5h1.39z"/><path d="m344.29 275.65c0-2.82 1.77-3.7 3.34-3.7s3.36.86 3.36 3.7v2.47h-4.72v.63c0 1.78.55 2.27 1.38 2.28s1.32-.41 1.38-1.85h2c0 2.78-1.8 3.63-3.35 3.63s-3.35-.88-3.35-3.7zm4.73.22c0-1.68-.65-2.13-1.38-2.14s-1.37.45-1.38 2.16v.76h2.74z"/><path d="m352.29 275.65c0-2.82 1.77-3.7 3.35-3.7s3.35.86 3.35 3.7v2.47h-4.72v.63c0 1.78.55 2.27 1.39 2.28s1.31-.41 1.37-1.85h2c0 2.78-1.8 3.63-3.35 3.63s-3.35-.88-3.35-3.7zm4.73.22c0-1.68-.65-2.13-1.38-2.14s-1.37.45-1.38 2.16v.76h2.74z"/><path d="m362.08 273.22a2.53 2.53 0 0 1 2.29-1.27c1.33 0 2.75.87 2.75 3.7v7h-2v-6c0-2.31-.56-2.9-1.39-2.9s-1.39.5-1.4 2.38v6.53h-2v-10.5h1.39z"/><path d="m19.23 114.19v14.7h-2.23v-9.25l-2.66 9.25h-1.48l-2.66-9.25v9.25h-2.26v-14.7h2.86l2.79 9.8 2.79-9.8z"/><path d="m27.27 118.39v10.5h-1.4l-.23-1.07a2.48 2.48 0 0 1 -2.27 1.24c-1.34 0-2.82-.88-2.82-3.7v-3.46c0-2.83 1.48-3.7 2.82-3.7a2.49 2.49 0 0 1 2.26 1.2l.24-1zm-4.75 6c0 2.28.52 2.9 1.4 2.9s1.38-.62 1.37-2.9v-1.5c0-2.31-.55-2.9-1.38-2.9s-1.39.59-1.39 2.9z"/><path d="m28.7 121.9c0-2.82 1.42-3.7 2.75-3.7a2.57 2.57 0 0 1 2.32 1.24l.25-1.06h1.4v10.46c0 2.79-1.78 3.66-3.34 3.66a3.08 3.08 0 0 1 -3.26-2.65h2a1.17 1.17 0 0 0 1.23.86c.8 0 1.38-.44 1.39-2.05v-.78a2.26 2.26 0 0 1 -2 1c-1.33 0-2.75-.87-2.75-3.7zm4.74 1c0-2.29-.52-2.9-1.37-2.9s-1.39.61-1.4 2.9v1.43c0 2.3.53 2.9 1.39 2.9s1.38-.6 1.38-2.9z"/><path d="m36.84 121.9c0-2.82 1.78-3.7 3.35-3.7s3.35.86 3.35 3.7v2.47h-4.72v.63c0 1.78.56 2.27 1.39 2.28s1.32-.41 1.37-1.85h2c0 2.78-1.8 3.63-3.35 3.63s-3.34-.89-3.34-3.7zm4.73.22c0-1.68-.65-2.13-1.38-2.14s-1.37.45-1.38 2.16v.76h2.76z"/><path d="m46.63 119.47a2.52 2.52 0 0 1 2.29-1.27c1.33 0 2.76.87 2.76 3.7v7h-2v-6c0-2.31-.55-2.9-1.39-2.9s-1.39.5-1.39 2.38v6.53h-1.9v-10.5h1.39z"/><path d="m55.92 124.76c0 2.14.35 2.53 1.51 2.54h.28v1.78h-.8c-1.68 0-3-.66-2.95-3.78v-5.14h-1.3v-1.77h1.34v-3.21h2v3.21h1.79v1.77h-1.87z"/><path d="m65.42 118.39v10.5h-1.42l-.24-1.07a2.46 2.46 0 0 1 -2.27 1.24c-1.33 0-2.81-.88-2.81-3.7v-3.46c0-2.83 1.48-3.7 2.81-3.7a2.48 2.48 0 0 1 2.26 1.2l.25-1zm-4.74 6c0 2.28.52 2.9 1.4 2.9s1.38-.62 1.37-2.9v-1.5c0-2.31-.55-2.9-1.39-2.9s-1.38.59-1.38 2.9z"/><path d="m45.15 266.05c2 0 4.2.95 4.2 3.47v.75a3 3 0 0 1 -1.78 2.88 3.25 3.25 0 0 1 2.11 3.23v.62c0 2.42-1.72 3.72-4.41 3.72h-3.82v-14.7zm2.16 10.23a1.86 1.86 0 0 0 -2.1-2h-1.44v4.2h1.44a1.85 1.85 0 0 0 2.1-2zm-.23-6.15a1.76 1.76 0 0 0 -2-1.81h-1.31v3.84h1.34a1.75 1.75 0 0 0 2-1.82z"/><path d="m51.11 266.05h2v14.7h-2z"/><path d="m61.22 270.25v10.5h-1.39l-.28-1.08a2.5 2.5 0 0 1 -2.28 1.27c-1.34 0-2.76-.87-2.76-3.7v-7h2v6c0 2.31.55 2.9 1.39 2.9s1.39-.5 1.39-2.38v-6.53z"/><path d="m62.59 273.76c0-2.81 1.77-3.7 3.34-3.7s3.36.87 3.36 3.7v2.47h-4.72v.63c0 1.79.55 2.27 1.38 2.28s1.32-.4 1.38-1.84h2c0 2.78-1.8 3.62-3.36 3.62s-3.34-.88-3.34-3.7zm4.72.23c0-1.69-.65-2.14-1.37-2.15s-1.38.45-1.38 2.16v.77h2.75z"/></g><path d="m195.09 314.38c0-4.27 2.41-5.58 4.72-5.58s4.5 1.22 4.62 5.28v.42h-2v-.37c-.13-2.5-1.23-3.36-2.57-3.36s-2.63.93-2.63 3.79v5c0 2.88 1.18 3.81 2.63 3.81s2.41-.85 2.57-3.32v-.42h2v.4c-.11 4.07-2.41 5.31-4.62 5.31s-4.72-1.32-4.72-5.59z" fill="#fff"/><path d="m305.7 129.07-4 9.64v6.52h-2.1v-6.51l-3.92-9.65h2.12l2.85 7.32 2.9-7.32z" fill="#231f20"/><path d="m100.78 127.64v16.16h-2v-11.32l-3.4 11.32h-1.32l-3.43-11.32v11.32h-2v-16.16h2.47l3.59 12 3.59-12z" fill="#fff"/><path d="m196.9 68.34c2.36 0 5 1 5 4.27v.79a3.63 3.63 0 0 1 -2.61 3.65l2.84 7.45h-2.16l-2.52-6.83h-2.24v6.83h-2v-16.16zm3 4.56a2.4 2.4 0 0 0 -2.7-2.6h-2v5.41h2a2.41 2.41 0 0 0 2.7-2.6z" fill="#fff"/><path d="m297.53 255.08c0-4.27 2.36-5.59 4.67-5.59s4.58 1.27 4.64 5.46v.24h-2v-.19c-.08-2.67-1.28-3.56-2.65-3.56s-2.63.93-2.63 3.8v5c0 2.87 1.18 3.8 2.63 3.8s2.65-.89 2.65-3.73v-1.31h-2.53v-2h4.52v3.42c0 4.29-2.38 5.58-4.64 5.58s-4.67-1.31-4.67-5.58z" fill="#fff"/><path d="m94 248.3c2.24 0 4.61 1 4.61 3.81v.72a3.34 3.34 0 0 1 -2.15 3.26 3.61 3.61 0 0 1 2.54 3.64v.65c0 2.65-1.89 4.08-4.84 4.08h-4.16v-16.16zm2.93 11.35c0-1.69-1.09-2.55-2.84-2.55h-2v5.39h2c1.74 0 2.84-.84 2.84-2.55zm-.3-7c0-1.7-1.31-2.35-2.67-2.35h-1.9v5h1.86c1.43 0 2.67-.68 2.67-2.34z" fill="#fff"/></svg>