<?xml version="1.0" encoding="utf-8"?>
<!-- Generator: Adobe Illustrator 12.0.1, SVG Export Plug-In . SVG Version: 6.00 Build 51448)  -->
<!DOCTYPE svg PUBLIC "-//W3C//DTD SVG 1.1//EN" "http://www.w3.org/Graphics/SVG/1.1/DTD/svg11.dtd" [
	<!ENTITY ns_svg "http://www.w3.org/2000/svg">
	<!ENTITY ns_xlink "http://www.w3.org/1999/xlink">
]>
<svg  version="1.1" id="Layer_1" xmlns="&ns_svg;" xmlns:xlink="&ns_xlink;" width="600" height="600" viewBox="0 0 600 600"
	 overflow="visible" enable-background="new 0 0 600 600" xml:space="preserve">
<rect fill="#E8E8E8" width="600" height="600"/>
<ellipse fill="#FFFFFF" stroke="#000000" cx="378.8037" cy="105.793" rx="21.0859" ry="8.6606"/>
<g>
	<path fill="#AE676B" stroke="#000000" d="M313.8184,230.4014c20.3398-2.7197,42.0479-4.1899,64.5879-4.1899
		s44.2461,1.4702,64.585,4.1895v41.9561c-20.3389-2.7192-42.0449-4.1895-64.585-4.1895s-44.248,1.4702-64.5879,4.1899V230.4014z"/>
	<path fill="#8E6FA1" stroke="#000000" d="M169.4517,312.2549c0-18.9028,14.8032-36.3813,39.8955-50.5786v41.9556
		c-25.0923,14.1973-39.8955,31.6758-39.8955,50.5791V312.2549z"/>
	<path fill="#927830" stroke="#000000" d="M546.5996,261.1895c25.6191,14.2827,40.7627,31.9458,40.7627,51.0654v41.9561
		c0-19.1201-15.1436-36.7822-40.7627-51.0654V261.1895z"/>
	<path fill="#A86D4B" stroke="#000000" d="M442.9912,230.4009c41.8975,5.6011,77.9902,16.5049,103.6084,30.7886v41.9561
		c-25.6182-14.2837-61.7109-25.1875-103.6084-30.7886V230.4009z"/>
	<path fill="#A66885" stroke="#000000" d="M209.3472,261.6763c25.6665-14.522,62.1006-25.6104,104.4712-31.2749v41.9561
		c-42.3706,5.6646-78.8047,16.7529-104.4712,31.2744V261.6763z"/>
	<path fill="#657BAB" stroke="#000000" d="M169.4517,312.2549c0,19.1182,15.1445,36.7822,40.7632,51.0654v41.9561
		c-25.6187-14.2832-40.7632-31.9473-40.7632-51.0654V312.2549z"/>
</g>
<g>
	<g>
		<path fill="#E8E8E8" stroke="#000000" stroke-width="0.9231" d="M399.875,190.4692c-8.8027,9.7861-33.2969,9.667-42.1406-0.0078
			c0-13.792,0-27.584,0-41.376c8.8398,9.6621,33.3535,9.814,42.1406,0.0098C399.875,162.8867,399.875,176.6777,399.875,190.4692z"/>
		<path fill="#FFFFFF" stroke="#000000" stroke-width="0.9231" d="M399.875,149.0952c-8.7871,9.8042-33.3008,9.6523-42.1406-0.0098
			c0-13.7915,0-27.5825,0-41.374c8.832,9.6484,33.373,9.8335,42.1406,0.0117C399.875,121.5137,399.875,135.3047,399.875,149.0952z"
			/>
		<path fill="#CBCBCB" stroke="#000000" stroke-width="0.9231" d="M399.875,231.8428c-8.8203,9.7686-33.29,9.6826-42.1406-0.0049
			c0-13.792,0-27.5845,0-41.3765c8.8438,9.6748,33.3379,9.7939,42.1406,0.0078C399.875,204.2603,399.875,218.0518,399.875,231.8428z
			"/>
		<path fill="#B3B3B3" stroke="#000000" stroke-width="0.9231" d="M399.875,273.2158c-8.8379,9.7476-33.2852,9.6987-42.1406-0.002
			c0-13.792,0-27.584,0-41.376c8.8506,9.6875,33.3203,9.7734,42.1406,0.0049C399.875,245.6338,399.875,259.4248,399.875,273.2158z"
			/>
		<path fill="#969696" stroke="#000000" stroke-width="0.9231" d="M399.875,314.5898c-8.8555,9.7285-33.2793,9.7129-42.1406,0
			c0-13.792,0-27.584,0-41.376c8.8555,9.7007,33.3027,9.7495,42.1406,0.002C399.875,287.0073,399.875,300.7979,399.875,314.5898z"/>
		<path fill="#7C7C7C" stroke="#000000" stroke-width="0.9231" d="M399.875,355.9648c-8.8721,9.708-33.2764,9.7285-42.1406,0
			c0-13.792,0-27.583,0-41.375c8.8613,9.7129,33.2852,9.7285,42.1406,0C399.875,328.3818,399.875,342.1729,399.875,355.9648z"/>
		<path fill="#616161" stroke="#000000" stroke-width="0.9231" d="M399.875,397.3398c-8.8916,9.6885-33.2695,9.7393-42.1426,0.002
			c0.0039-13.792,0.002-27.585,0.002-41.377c8.8643,9.7285,33.2686,9.708,42.1406,0
			C399.875,369.7568,399.875,383.5479,399.875,397.3398z"/>
		<path fill="#464646" stroke="#000000" stroke-width="0.9231" d="M399.875,438.7119c-8.9072,9.668-33.2637,9.7588-42.1406,0.0059
			c0-13.792,0.002-27.584-0.002-41.376c8.873,9.7373,33.251,9.6865,42.1426-0.002
			C399.875,411.1309,399.875,424.9209,399.875,438.7119z"/>
		<path fill="#303030" stroke="#000000" stroke-width="0.9231" d="M399.875,480.084c-8.9238,9.6553-33.2578,9.7754-42.1406,0.0078
			c0-13.791,0-27.583,0-41.374c8.877,9.7529,33.2334,9.6621,42.1406-0.0059C399.875,452.5029,399.875,466.293,399.875,480.084z"/>
		<path fill="#1C1C1C" stroke="#000000" stroke-width="0.9231" d="M399.875,521.458c-8.9443,9.6338-33.2471,9.7891-42.1406,0.0117
			c0-13.793,0-27.585,0-41.3779c8.8828,9.7676,33.2168,9.6475,42.1406-0.0078C399.875,493.875,399.875,507.667,399.875,521.458z"/>
		<path stroke="#000000" stroke-width="0.9231" d="M399.875,562.833c-8.9551,9.6133-33.251,9.8057-42.1406,0.0117
			c0-13.792,0-27.583,0-41.375c8.8936,9.7773,33.1963,9.6221,42.1406-0.0117C399.875,535.25,399.875,549.041,399.875,562.833z"/>
	</g>
</g>
<g>
	<path fill="none" stroke="#7C7C7C" stroke-width="9.891" stroke-linecap="square" stroke-linejoin="bevel" d="M378.4062,312.2549"
		/>
	<path fill="none" stroke="#7C7C7C" stroke-width="9.891" stroke-linecap="square" stroke-linejoin="bevel" d="M378.4062,354.2109"
		/>
</g>
<g>
	<path fill="#2E7CD6" stroke="#000000" d="M12.7334,354.2109c0,33.459,26.5029,64.3701,71.333,89.3672v-41.9561
		c-44.8301-24.998-71.333-55.9082-71.333-89.3672V354.2109z"/>
	<path fill="#2E7CD6" stroke="#000000" d="M64.9746,312.2549c0,28.6777,22.7148,55.1738,61.1445,76.5986v41.957l-42.0527,12.7676
		v-41.9561c-44.8301-24.998-71.333-55.9082-71.333-89.3672H64.9746z"/>
	<path fill="#487BC7" stroke="#000000" d="M117.2129,312.2549c0,23.8994,18.9268,45.9775,50.9517,63.834v41.9561l-42.0454,12.7656
		v-41.957c-38.4297-21.4248-61.1445-47.9209-61.1445-76.5986H117.2129z"/>
	<path fill="#597BB9" stroke="#000000" d="M169.4517,312.2549c0,19.1182,15.1445,36.7822,40.7632,51.0654v41.9561l-42.0503,12.7686
		v-41.9561c-32.0249-17.8564-50.9517-39.9346-50.9517-63.834H169.4517z"/>
	<path fill="#657BAB" stroke="#000000" d="M221.6909,312.2549c0,14.3389,11.3574,27.5869,30.5718,38.2988v41.957l-42.0479,12.7656
		v-41.9561c-25.6187-14.2832-40.7632-31.9473-40.7632-51.0654H221.6909z"/>
	<path fill="#6F7A9C" stroke="#000000" d="M294.3101,379.7441v-41.957c-12.8091-7.1416-20.3813-15.9736-20.3813-25.5322h-52.2378
		c0,14.3389,11.3574,27.5869,30.5718,38.2988v41.957L294.3101,379.7441z"/>
	<path fill="#787A8E" stroke="#000000" d="M294.3101,379.7441l42.0483-12.7666v-41.957
		c-6.4043-3.5703-10.1904-7.9863-10.1904-12.7656h-52.2393c0,9.5586,7.5723,18.3906,20.3813,25.5322V379.7441z"/>
	<path fill="#7C7C7C" stroke="#000000" d="M361.4521,317.4053v41.9531l-25.0938,7.6191v-41.957
		c-6.4043-3.5703-10.1904-7.9863-10.1904-12.7656l31.457-0.0195C357.625,314.3604,359.875,316.2354,361.4521,317.4053z"/>
	<line fill="none" stroke="#000000" x1="361.4492" y1="317.4033" x2="84.0664" y2="401.6221"/>
</g>
<g>
	<path fill="#2D8788" stroke="#000000" d="M442.9951,394.1074c-20.3389,2.7197-42.0469,4.1895-64.5889,4.1895
		c-22.5381,0-44.2451-1.4697-64.584-4.1885v41.9561c20.3389,2.7188,42.0459,4.1885,64.584,4.1885
		c22.542,0,44.25-1.4697,64.5889-4.1904V394.1074z"/>
	<path fill="#42886D" stroke="#000000" d="M547.4678,362.832c-25.667,14.5225-62.1016,25.6113-104.4727,31.2754v41.9551
		c42.3711-5.6641,78.8057-16.752,104.4727-31.2734V362.832z"/>
	<path fill="#72823D" stroke="#000000" d="M587.3623,312.2549c0,18.9023-14.8037,36.3818-39.8945,50.5771v41.957
		c25.0908-14.1973,39.8945-31.6758,39.8945-50.5781V312.2549z"/>
	<path fill="#3584A2" stroke="#000000" d="M313.8223,394.1084c-41.8965-5.6016-77.9893-16.5039-103.6074-30.7881v41.9561
		c25.6182,14.2832,61.7109,25.1875,103.6074,30.7881V394.1084z"/>
</g>
<g id="Labels">
	<g id="Hue_Labels">
		<g>
			<g>
				<path d="M305.5195,189.0806c0.8809-0.1802,2.1602-0.3003,3.3398-0.3003c1.8613,0,3.0801,0.3599,3.9199,1.1201
					c0.6602,0.5801,1.0605,1.5,1.0605,2.5601c0,1.7598-1.1396,2.9399-2.54,3.4199v0.0601c1.0205,0.3599,1.6396,1.3198,1.9795,2.7197
					c0.4414,1.8804,0.7607,3.1802,1.0205,3.7002H312.5c-0.2207-0.3799-0.5195-1.54-0.8799-3.2202
					c-0.3994-1.8599-1.1396-2.5596-2.7197-2.6196h-1.6406v5.8398h-1.7402V189.0806z M307.2598,195.2002h1.7803
					c1.8604,0,3.04-1.02,3.04-2.5601c0-1.7397-1.2598-2.5-3.0996-2.5c-0.8398,0-1.4199,0.0801-1.7207,0.1602V195.2002z"/>
				<path d="M317.2783,197.8203c0.04,2.3799,1.54,3.3599,3.2998,3.3599c1.2598,0,2.04-0.2197,2.6797-0.48l0.3203,1.2402
					c-0.6191,0.2798-1.6992,0.6201-3.2402,0.6201c-2.959,0-4.7598-1.98-4.7598-4.8804c0-2.9399,1.7402-5.2397,4.5605-5.2397
					c3.1602,0,3.9795,2.7798,3.9795,4.5601c0,0.3599-0.0205,0.6396-0.0596,0.8398L317.2783,197.8203z M322.418,196.5605
					c0.0205-1.1001-0.459-2.8604-2.4199-2.8604c-1.7998,0-2.5596,1.6401-2.6992,2.8604H322.418z"/>
				<path d="M334.6582,188.1602v11.7002c0,0.8599,0.0195,1.8398,0.0801,2.5h-1.5801l-0.0801-1.6802h-0.0391
					c-0.541,1.0801-1.7012,1.9004-3.2812,1.9004c-2.3398,0-4.1602-1.98-4.1602-4.9204c-0.0195-3.2397,2-5.1997,4.3408-5.1997
					c1.5,0,2.5,0.6997,2.9199,1.46h0.04v-5.7603H334.6582z M332.8984,196.6201c0-0.2397-0.0195-0.5195-0.0801-0.7598
					c-0.2598-1.1001-1.2207-2.02-2.54-2.02c-1.8193,0-2.8994,1.6001-2.8994,3.7202c0,1.98,0.9795,3.5996,2.8594,3.5996
					c1.1797,0,2.2598-0.7998,2.5801-2.0996c0.0605-0.2402,0.0801-0.48,0.0801-0.7603V196.6201z"/>
			</g>
			<g>
				<path d="M182.52,194.0806c0.8799-0.1802,2.1602-0.3003,3.3398-0.3003c1.8604,0,3.0801,0.3599,3.9199,1.1201
					c0.6602,0.5801,1.0601,1.5,1.0601,2.5601c0,1.7598-1.1396,2.9399-2.54,3.4199v0.0601c1.02,0.3599,1.6401,1.3198,1.98,2.7197
					c0.4404,1.8804,0.7603,3.1802,1.02,3.7002H189.5c-0.2202-0.3799-0.52-1.54-0.8799-3.2202
					c-0.3999-1.8599-1.1401-2.5596-2.7202-2.6196h-1.6401v5.8398H182.52V194.0806z M184.2598,200.2002h1.7803
					c1.8599,0,3.04-1.02,3.04-2.5601c0-1.7397-1.2603-2.5-3.1001-2.5c-0.8398,0-1.4199,0.0801-1.7202,0.1602V200.2002z"/>
				<path d="M194.2783,202.8203c0.04,2.3799,1.54,3.3599,3.2998,3.3599c1.2603,0,2.04-0.2197,2.6802-0.48l0.3198,1.2402
					c-0.6196,0.2798-1.6997,0.6201-3.2397,0.6201c-2.96,0-4.7603-1.98-4.7603-4.8804c0-2.9399,1.7402-5.2397,4.5601-5.2397
					c3.1602,0,3.98,2.7798,3.98,4.5601c0,0.3599-0.02,0.6396-0.0596,0.8398L194.2783,202.8203z M199.4185,201.5605
					c0.02-1.1001-0.46-2.8604-2.4199-2.8604c-1.8003,0-2.5601,1.6401-2.7002,2.8604H199.4185z"/>
				<path d="M211.6582,193.1602v11.7002c0,0.8599,0.02,1.8398,0.0801,2.5h-1.5801l-0.0801-1.6802h-0.0396
					c-0.54,1.0801-1.7002,1.9004-3.2803,1.9004c-2.3398,0-4.1602-1.98-4.1602-4.9204c-0.02-3.2397,2-5.1997,4.3403-5.1997
					c1.5,0,2.5,0.6997,2.9199,1.46h0.04v-5.7603H211.6582z M209.8984,201.6201c0-0.2397-0.02-0.5195-0.0801-0.7598
					c-0.2598-1.1001-1.2202-2.02-2.54-2.02c-1.8198,0-2.8999,1.6001-2.8999,3.7202c0,1.98,0.98,3.5996,2.8599,3.5996
					c1.1802,0,2.2603-0.7998,2.5801-2.0996c0.0601-0.2402,0.0801-0.48,0.0801-0.7603V201.6201z"/>
				<path d="M218.6582,201.3203v1.2803h-4.9399v-1.2803H218.6582z"/>
				<path d="M220.7778,194.0605c0.8398-0.1602,1.9399-0.2803,3.3398-0.2803c1.7202,0,2.98,0.3999,3.7803,1.1201
					c0.7397,0.6401,1.1997,1.6201,1.1997,2.8198c0,1.2202-0.3599,2.1802-1.0601,2.8804c-0.9199,0.98-2.4199,1.48-4.1196,1.48
					c-0.52,0-1-0.02-1.4004-0.1201v5.3999h-1.7397V194.0605z M222.5176,200.5405c0.3804,0.0996,0.8804,0.1396,1.4404,0.1396
					c2.1196,0,3.3799-1.04,3.3799-2.8599c0-1.7998-1.2603-2.6602-3.1802-2.6602c-0.7598,0-1.3398,0.0801-1.6401,0.1401V200.5405z"/>
				<path d="M239.1602,204.7202c0,1,0.02,1.8804,0.0801,2.6401h-1.5601l-0.1001-1.5801h-0.04
					c-0.4399,0.7803-1.48,1.8003-3.2002,1.8003c-1.5195,0-3.3398-0.8604-3.3398-4.2402v-5.6602h1.7603v5.3403
					c0,1.8398,0.5796,3.0996,2.1597,3.0996c1.1802,0,2-0.8198,2.3203-1.6196c0.0996-0.2402,0.1597-0.5601,0.1597-0.8999v-5.9204
					h1.7603V204.7202z"/>
				<path d="M242.1001,200.7002c0-1.1396-0.02-2.1196-0.0801-3.02h1.54l0.0801,1.9004h0.0601
					c0.4399-1.3003,1.52-2.1201,2.6997-2.1201c0.1802,0,0.3203,0.02,0.48,0.0601v1.6396c-0.1997-0.02-0.3799-0.04-0.6196-0.04
					c-1.2402,0-2.1201,0.9404-2.3604,2.2402c-0.0396,0.2598-0.0596,0.54-0.0596,0.8398v5.1602h-1.7603L242.1001,200.7002z"/>
				<path d="M248.6982,200.8403c0-1.2397-0.02-2.2397-0.0801-3.1602h1.5801l0.1001,1.6602h0.04
					c0.6997-1.2002,1.8599-1.8799,3.4199-1.8799c2.3599,0,4.1201,1.98,4.1201,4.9199c0,3.48-2.1401,5.2002-4.3999,5.2002
					c-1.3003,0-2.4004-0.5601-2.9805-1.52h-0.0396v5.2598h-1.7603V200.8403z M250.4585,203.4204c0,0.2397,0.02,0.5,0.0796,0.7197
					c0.3003,1.2202,1.3804,2.0601,2.6201,2.0601c1.8599,0,2.9399-1.52,2.9399-3.7397c0-1.9399-1-3.6001-2.8599-3.6001
					c-1.2002,0-2.3398,0.8398-2.6802,2.1602c-0.04,0.2397-0.0996,0.5-0.0996,0.7197V203.4204z"/>
				<path d="M260.0781,193.1602h1.7603v14.2002h-1.7603V193.1602z"/>
				<path d="M265.7578,202.8203c0.04,2.3799,1.54,3.3599,3.2998,3.3599c1.2603,0,2.04-0.2197,2.6802-0.48l0.3198,1.2402
					c-0.6196,0.2798-1.6997,0.6201-3.2397,0.6201c-2.96,0-4.7603-1.98-4.7603-4.8804c0-2.9399,1.7402-5.2397,4.5601-5.2397
					c3.1602,0,3.98,2.7798,3.98,4.5601c0,0.3599-0.02,0.6396-0.0596,0.8398L265.7578,202.8203z M270.8979,201.5605
					c0.02-1.1001-0.46-2.8604-2.4199-2.8604c-1.8003,0-2.5601,1.6401-2.7002,2.8604H270.8979z"/>
			</g>
			<g>
				<path d="M118.52,248.0605c0.8398-0.1602,1.9399-0.2803,3.3398-0.2803c1.7202,0,2.98,0.3999,3.7803,1.1201
					c0.7397,0.6401,1.1997,1.6201,1.1997,2.8198c0,1.2202-0.3599,2.1802-1.0601,2.8804c-0.9199,0.98-2.4199,1.48-4.1196,1.48
					c-0.52,0-1-0.02-1.4004-0.1201v5.3999H118.52V248.0605z M120.2598,254.5405c0.3804,0.0996,0.8804,0.1396,1.4404,0.1396
					c2.1196,0,3.3799-1.04,3.3799-2.8599c0-1.7998-1.2603-2.6602-3.1802-2.6602c-0.7598,0-1.3398,0.0801-1.6401,0.1401V254.5405z"/>
				<path d="M136.9023,258.7202c0,1,0.02,1.8804,0.0801,2.6401h-1.5601l-0.1001-1.5801h-0.04
					c-0.4399,0.7803-1.48,1.8003-3.2002,1.8003c-1.5195,0-3.3398-0.8604-3.3398-4.2402v-5.6602h1.7603v5.3403
					c0,1.8398,0.5796,3.0996,2.1597,3.0996c1.1802,0,2-0.8198,2.3203-1.6196c0.0996-0.2402,0.1597-0.5601,0.1597-0.8999v-5.9204
					h1.7603V258.7202z"/>
				<path d="M139.8423,254.7002c0-1.1396-0.02-2.1196-0.0801-3.02h1.54l0.0801,1.9004h0.0601
					c0.4399-1.3003,1.52-2.1201,2.6997-2.1201c0.1802,0,0.3203,0.02,0.48,0.0601v1.6396c-0.1997-0.02-0.3799-0.04-0.6196-0.04
					c-1.2402,0-2.1201,0.9404-2.3604,2.2402c-0.0396,0.2598-0.0596,0.54-0.0596,0.8398v5.1602h-1.7603L139.8423,254.7002z"/>
				<path d="M146.4404,254.8403c0-1.2397-0.02-2.2397-0.0801-3.1602h1.5801l0.1001,1.6602h0.04
					c0.6997-1.2002,1.8599-1.8799,3.4199-1.8799c2.3599,0,4.1201,1.98,4.1201,4.9199c0,3.48-2.1401,5.2002-4.3999,5.2002
					c-1.3003,0-2.4004-0.5601-2.9805-1.52h-0.0396v5.2598h-1.7603V254.8403z M148.2007,257.4204c0,0.2397,0.02,0.5,0.0796,0.7197
					c0.3003,1.2202,1.3804,2.0601,2.6201,2.0601c1.8599,0,2.9399-1.52,2.9399-3.7397c0-1.9399-1-3.6001-2.8599-3.6001
					c-1.2002,0-2.3398,0.8398-2.6802,2.1602c-0.04,0.2397-0.0996,0.5-0.0996,0.7197V257.4204z"/>
				<path d="M157.8203,247.1602h1.7603v14.2002h-1.7603V247.1602z"/>
				<path d="M163.5,256.8203c0.04,2.3799,1.54,3.3599,3.2998,3.3599c1.2603,0,2.04-0.2197,2.6802-0.48l0.3198,1.2402
					c-0.6196,0.2798-1.6997,0.6201-3.2397,0.6201c-2.96,0-4.7603-1.98-4.7603-4.8804c0-2.9399,1.7402-5.2397,4.5601-5.2397
					c3.1602,0,3.98,2.7798,3.98,4.5601c0,0.3599-0.02,0.6396-0.0596,0.8398L163.5,256.8203z M168.6401,255.5605
					c0.02-1.1001-0.46-2.8604-2.4199-2.8604c-1.8003,0-2.5601,1.6401-2.7002,2.8604H168.6401z"/>
			</g>
			<g>
				<path d="M440.5195,179.3604v-5.7202l-4.2793-7.7598h2l1.8994,3.7202c0.5,1.0195,0.9199,1.8398,1.3408,2.7798h0.0391
					c0.3604-0.8799,0.8408-1.7603,1.3604-2.7798l1.9404-3.7202h1.96l-4.5,7.7397v5.7402H440.5195z"/>
				<path d="M447.8633,174.8203c0.04,2.3799,1.54,3.3599,3.2998,3.3599c1.2598,0,2.04-0.2197,2.6807-0.48l0.3193,1.2402
					c-0.6201,0.2798-1.7002,0.6201-3.2402,0.6201c-2.96,0-4.7598-1.98-4.7598-4.8804c0-2.9399,1.7402-5.2397,4.5605-5.2397
					c3.1592,0,3.9795,2.7798,3.9795,4.5601c0,0.3599-0.0195,0.6396-0.0596,0.8398L447.8633,174.8203z M453.0029,173.5605
					c0.0205-1.1001-0.46-2.8604-2.4199-2.8604c-1.7998,0-2.5596,1.6401-2.6992,2.8604H453.0029z"/>
				<path d="M456.8828,165.1602h1.7598v14.2002h-1.7598V165.1602z"/>
				<path d="M461.5625,165.1602h1.7598v14.2002h-1.7598V165.1602z"/>
				<path d="M470.1826,179.5806c-2.6006,0-4.6406-1.9204-4.6406-4.98c0-3.2402,2.1406-5.1401,4.7998-5.1401
					c2.7803,0,4.6602,2.02,4.6602,4.96c0,3.6001-2.5,5.1602-4.7998,5.1602H470.1826z M470.2422,178.2603
					c1.6797,0,2.9404-1.5801,2.9404-3.7798c0-1.6401-0.8203-3.7002-2.9004-3.7002c-2.0596,0-2.96,1.9199-2.96,3.7603
					c0,2.1196,1.2002,3.7197,2.9004,3.7197H470.2422z"/>
				<path d="M477.7852,169.6802l1.2998,4.9004c0.2598,1.0796,0.5205,2.0996,0.7002,3.0996h0.0596
					c0.2207-0.98,0.54-2.02,0.8604-3.0796l1.5801-4.9204h1.4795l1.5,4.8403c0.3604,1.1396,0.6406,2.1797,0.8604,3.1597h0.0596
					c0.1602-0.98,0.4209-2,0.7402-3.1396l1.3799-4.8604h1.7402l-3.1201,9.6802h-1.5996l-1.4805-4.6201
					c-0.3398-1.1001-0.6201-2.0601-0.8594-3.1997h-0.04c-0.2402,1.1597-0.54,2.1797-0.8799,3.2197l-1.5605,4.6001h-1.5996
					l-2.9199-9.6802H477.7852z"/>
				<path d="M495.8848,173.3203v1.2803h-4.9404v-1.2803H495.8848z"/>
				<path d="M498.0039,166.0806c0.8809-0.1802,2.1602-0.3003,3.3408-0.3003c1.8594,0,3.0801,0.3599,3.9199,1.1201
					c0.6602,0.5801,1.0596,1.5,1.0596,2.5601c0,1.7598-1.1396,2.9399-2.54,3.4199v0.0601c1.0205,0.3599,1.6406,1.3198,1.9805,2.7197
					c0.4395,1.8804,0.7598,3.1802,1.0195,3.7002h-1.7998c-0.2197-0.3799-0.5195-1.54-0.8799-3.2202
					c-0.4004-1.8599-1.1396-2.5596-2.7197-2.6196h-1.6406v5.8398h-1.7402V166.0806z M499.7441,172.2002h1.7803
					c1.8604,0,3.04-1.02,3.04-2.5601c0-1.7397-1.2598-2.5-3.0996-2.5c-0.8408,0-1.4209,0.0801-1.7207,0.1602V172.2002z"/>
				<path d="M509.7627,174.8203c0.04,2.3799,1.54,3.3599,3.2998,3.3599c1.2598,0,2.04-0.2197,2.6807-0.48l0.3193,1.2402
					c-0.6201,0.2798-1.7002,0.6201-3.2402,0.6201c-2.96,0-4.7598-1.98-4.7598-4.8804c0-2.9399,1.7402-5.2397,4.5605-5.2397
					c3.1602,0,3.9795,2.7798,3.9795,4.5601c0,0.3599-0.0195,0.6396-0.0596,0.8398L509.7627,174.8203z M514.9023,173.5605
					c0.0205-1.1001-0.46-2.8604-2.4199-2.8604c-1.7998,0-2.5596,1.6401-2.6992,2.8604H514.9023z"/>
				<path d="M527.1426,165.1602v11.7002c0,0.8599,0.0195,1.8398,0.0801,2.5h-1.5801l-0.0801-1.6802h-0.04
					c-0.54,1.0801-1.7002,1.9004-3.2803,1.9004c-2.3398,0-4.1602-1.98-4.1602-4.9204c-0.0195-3.2397,2-5.1997,4.3398-5.1997
					c1.5,0,2.5,0.6997,2.9199,1.46h0.04v-5.7603H527.1426z M525.3818,173.6201c0-0.2397-0.0195-0.5195-0.0791-0.7598
					c-0.2607-1.1001-1.2207-2.02-2.54-2.02c-1.8203,0-2.9004,1.6001-2.9004,3.7202c0,1.98,0.9795,3.5996,2.8604,3.5996
					c1.1797,0,2.2598-0.7998,2.5801-2.0996c0.0596-0.2402,0.0791-0.48,0.0791-0.7603V173.6201z"/>
			</g>
			<g>
				<path d="M520.5195,218.3604v-5.7202l-4.2793-7.7598h2l1.8994,3.7202c0.5,1.0195,0.9199,1.8398,1.3408,2.7798h0.0391
					c0.3604-0.8799,0.8408-1.7603,1.3604-2.7798l1.9404-3.7202h1.96l-4.5,7.7397v5.7402H520.5195z"/>
				<path d="M527.8633,213.8203c0.04,2.3799,1.54,3.3599,3.2998,3.3599c1.2598,0,2.04-0.2197,2.6807-0.48l0.3193,1.2402
					c-0.6201,0.2798-1.7002,0.6201-3.2402,0.6201c-2.96,0-4.7598-1.98-4.7598-4.8804c0-2.9399,1.7402-5.2397,4.5605-5.2397
					c3.1592,0,3.9795,2.7798,3.9795,4.5601c0,0.3599-0.0195,0.6396-0.0596,0.8398L527.8633,213.8203z M533.0029,212.5605
					c0.0205-1.1001-0.46-2.8604-2.4199-2.8604c-1.7998,0-2.5596,1.6401-2.6992,2.8604H533.0029z"/>
				<path d="M536.8828,204.1602h1.7598v14.2002h-1.7598V204.1602z"/>
				<path d="M541.5625,204.1602h1.7598v14.2002h-1.7598V204.1602z"/>
				<path d="M550.1826,218.5806c-2.6006,0-4.6406-1.9204-4.6406-4.98c0-3.2402,2.1406-5.1401,4.7998-5.1401
					c2.7803,0,4.6602,2.02,4.6602,4.96c0,3.6001-2.5,5.1602-4.7998,5.1602H550.1826z M550.2422,217.2603
					c1.6797,0,2.9404-1.5801,2.9404-3.7798c0-1.6401-0.8203-3.7002-2.9004-3.7002c-2.0596,0-2.96,1.9199-2.96,3.7603
					c0,2.1196,1.2002,3.7197,2.9004,3.7197H550.2422z"/>
				<path d="M557.7852,208.6802l1.2998,4.9004c0.2598,1.0796,0.5205,2.0996,0.7002,3.0996h0.0596
					c0.2207-0.98,0.54-2.02,0.8604-3.0796l1.5801-4.9204h1.4795l1.5,4.8403c0.3604,1.1396,0.6406,2.1797,0.8604,3.1597h0.0596
					c0.1602-0.98,0.4209-2,0.7402-3.1396l1.3799-4.8604h1.7402l-3.1201,9.6802h-1.5996l-1.4805-4.6201
					c-0.3398-1.1001-0.6201-2.0601-0.8594-3.1997h-0.04c-0.2402,1.1597-0.54,2.1797-0.8799,3.2197l-1.5605,4.6001h-1.5996
					l-2.9199-9.6802H557.7852z"/>
			</g>
			<g>
				<path d="M462.8838,334.1846c-0.7803,0.2998-2.3398,0.7393-4.1602,0.7393c-2.04,0-3.7197-0.5195-5.04-1.7793
					c-1.1592-1.1201-1.8799-2.9199-1.8799-5.0205c0-4.0195,2.7803-6.96,7.2998-6.96c1.5605,0,2.8008,0.3398,3.3809,0.6201
					l-0.4404,1.4199c-0.7197-0.3398-1.6201-0.5801-2.9795-0.5801c-3.2803,0-5.4209,2.04-5.4209,5.4199
					c0,3.4199,2.04,5.4404,5.2002,5.4404c1.1406,0,1.9199-0.1602,2.3203-0.3604v-4.0195h-2.7197v-1.4004h4.4395V334.1846z"/>
				<path d="M465.5234,328.124c0-1.1396-0.0205-2.1201-0.0801-3.0195h1.54l0.0791,1.8994h0.0605
					c0.4395-1.2998,1.5195-2.1201,2.7002-2.1201c0.1797,0,0.3193,0.0205,0.4795,0.0605v1.6396
					c-0.2002-0.0195-0.3799-0.04-0.6201-0.04c-1.2393,0-2.1201,0.9404-2.3594,2.2402c-0.04,0.2598-0.0605,0.54-0.0605,0.8398v5.1602
					h-1.7598L465.5234,328.124z"/>
				<path d="M472.9258,330.2441c0.04,2.3799,1.54,3.3604,3.2998,3.3604c1.2598,0,2.04-0.2207,2.6807-0.4805l0.3193,1.2402
					c-0.6201,0.2803-1.7002,0.6201-3.2402,0.6201c-2.96,0-4.7598-1.9805-4.7598-4.8799c0-2.9404,1.7402-5.2402,4.5605-5.2402
					c3.1592,0,3.9795,2.7803,3.9795,4.5596c0,0.3604-0.0195,0.6406-0.0596,0.8408L472.9258,330.2441z M478.0654,328.9844
					c0.0205-1.1006-0.46-2.8604-2.4199-2.8604c-1.7998,0-2.5596,1.6406-2.6992,2.8604H478.0654z"/>
				<path d="M482.9453,330.2441c0.04,2.3799,1.54,3.3604,3.2998,3.3604c1.2598,0,2.04-0.2207,2.6807-0.4805l0.3193,1.2402
					c-0.6201,0.2803-1.7002,0.6201-3.2402,0.6201c-2.96,0-4.7598-1.9805-4.7598-4.8799c0-2.9404,1.7402-5.2402,4.5605-5.2402
					c3.1592,0,3.9795,2.7803,3.9795,4.5596c0,0.3604-0.0195,0.6406-0.0596,0.8408L482.9453,330.2441z M488.085,328.9844
					c0.0205-1.1006-0.46-2.8604-2.4199-2.8604c-1.7998,0-2.5596,1.6406-2.6992,2.8604H488.085z"/>
				<path d="M491.9648,327.7246c0-1.0205-0.0195-1.8203-0.0801-2.6201h1.5605l0.0996,1.5801h0.04
					c0.4795-0.9004,1.5996-1.8008,3.2002-1.8008c1.3398,0,3.4199,0.8008,3.4199,4.1201v5.7803h-1.7598v-5.5801
					c0-1.5596-0.5801-2.8799-2.2402-2.8799c-1.1406,0-2.04,0.8203-2.3604,1.7998c-0.0801,0.2197-0.1201,0.54-0.1201,0.8203v5.8398
					h-1.7598V327.7246z"/>
				<path d="M507.1445,328.7441v1.2803h-4.9404v-1.2803H507.1445z"/>
				<path d="M512.2637,334.7842v-5.7197l-4.2793-7.7607h2l1.8994,3.7207c0.5,1.0195,0.9199,1.8398,1.3408,2.7793h0.0391
					c0.3604-0.8799,0.8408-1.7598,1.3604-2.7793l1.9404-3.7207h1.96l-4.5,7.7402v5.7402H512.2637z"/>
				<path d="M519.6074,330.2441c0.04,2.3799,1.54,3.3604,3.2998,3.3604c1.2598,0,2.04-0.2207,2.6807-0.4805l0.3193,1.2402
					c-0.6201,0.2803-1.7002,0.6201-3.2402,0.6201c-2.96,0-4.7598-1.9805-4.7598-4.8799c0-2.9404,1.7402-5.2402,4.5605-5.2402
					c3.1592,0,3.9795,2.7803,3.9795,4.5596c0,0.3604-0.0195,0.6406-0.0596,0.8408L519.6074,330.2441z M524.7471,328.9844
					c0.0205-1.1006-0.46-2.8604-2.4199-2.8604c-1.7998,0-2.5596,1.6406-2.6992,2.8604H524.7471z"/>
				<path d="M528.627,320.584h1.7598v14.2002h-1.7598V320.584z"/>
				<path d="M533.3066,320.584h1.7598v14.2002h-1.7598V320.584z"/>
				<path d="M541.9268,335.0039c-2.6006,0-4.6406-1.9199-4.6406-4.9795c0-3.2402,2.1406-5.1406,4.7998-5.1406
					c2.7803,0,4.6602,2.0205,4.6602,4.96c0,3.6006-2.5,5.1602-4.7998,5.1602H541.9268z M541.9863,333.6846
					c1.6797,0,2.9404-1.5801,2.9404-3.7803c0-1.6396-0.8203-3.7002-2.9004-3.7002c-2.0596,0-2.96,1.9199-2.96,3.7598
					c0,2.1201,1.2002,3.7207,2.9004,3.7207H541.9863z"/>
				<path d="M549.5293,325.1045l1.2998,4.8994c0.2598,1.0801,0.5205,2.1006,0.7002,3.1006h0.0596
					c0.2207-0.9805,0.54-2.0205,0.8604-3.0801l1.5801-4.9199h1.4795l1.5,4.8398c0.3604,1.1396,0.6406,2.1797,0.8604,3.1602h0.0596
					c0.1602-0.9805,0.4209-2,0.7402-3.1406l1.3799-4.8594h1.7402l-3.1201,9.6797h-1.5996l-1.4805-4.6201
					c-0.3398-1.0996-0.6201-2.0596-0.8594-3.2002h-0.04c-0.2402,1.1602-0.54,2.1807-0.8799,3.2207l-1.5605,4.5996h-1.5996
					l-2.9199-9.6797H549.5293z"/>
			</g>
			<g>
				<path d="M538.0508,456.1729c-0.7803,0.2998-2.3398,0.7393-4.1602,0.7393c-2.04,0-3.7197-0.5195-5.04-1.7793
					c-1.1592-1.1201-1.8799-2.9199-1.8799-5.0205c0-4.0195,2.7803-6.96,7.2998-6.96c1.5605,0,2.8008,0.3398,3.3809,0.6201
					l-0.4404,1.4199c-0.7197-0.3398-1.6201-0.5801-2.9795-0.5801c-3.2803,0-5.4209,2.04-5.4209,5.4199
					c0,3.4199,2.04,5.4404,5.2002,5.4404c1.1406,0,1.9199-0.1602,2.3203-0.3604v-4.0195h-2.7197v-1.4004h4.4395V456.1729z"/>
				<path d="M540.6904,450.1123c0-1.1396-0.0205-2.1201-0.0801-3.0195h1.54l0.0791,1.8994h0.0605
					c0.4395-1.2998,1.5195-2.1201,2.7002-2.1201c0.1797,0,0.3193,0.0205,0.4795,0.0605v1.6396
					c-0.2002-0.0195-0.3799-0.04-0.6201-0.04c-1.2393,0-2.1201,0.9404-2.3594,2.2402c-0.04,0.2598-0.0605,0.54-0.0605,0.8398v5.1602
					h-1.7598L540.6904,450.1123z"/>
				<path d="M548.0928,452.2324c0.04,2.3799,1.54,3.3604,3.2998,3.3604c1.2598,0,2.04-0.2207,2.6807-0.4805l0.3193,1.2402
					c-0.6201,0.2803-1.7002,0.6201-3.2402,0.6201c-2.96,0-4.7598-1.9805-4.7598-4.8799c0-2.9404,1.7402-5.2402,4.5605-5.2402
					c3.1592,0,3.9795,2.7803,3.9795,4.5596c0,0.3604-0.0195,0.6406-0.0596,0.8408L548.0928,452.2324z M553.2324,450.9727
					c0.0205-1.1006-0.46-2.8604-2.4199-2.8604c-1.7998,0-2.5596,1.6406-2.6992,2.8604H553.2324z"/>
				<path d="M558.1123,452.2324c0.04,2.3799,1.54,3.3604,3.2998,3.3604c1.2598,0,2.04-0.2207,2.6807-0.4805l0.3193,1.2402
					c-0.6201,0.2803-1.7002,0.6201-3.2402,0.6201c-2.96,0-4.7598-1.9805-4.7598-4.8799c0-2.9404,1.7402-5.2402,4.5605-5.2402
					c3.1592,0,3.9795,2.7803,3.9795,4.5596c0,0.3604-0.0195,0.6406-0.0596,0.8408L558.1123,452.2324z M563.252,450.9727
					c0.0205-1.1006-0.46-2.8604-2.4199-2.8604c-1.7998,0-2.5596,1.6406-2.6992,2.8604H563.252z"/>
				<path d="M567.1318,449.7129c0-1.0205-0.0195-1.8203-0.0801-2.6201h1.5605l0.0996,1.5801h0.04
					c0.4795-0.9004,1.5996-1.8008,3.2002-1.8008c1.3398,0,3.4199,0.8008,3.4199,4.1201v5.7803h-1.7598v-5.5801
					c0-1.5596-0.5801-2.8799-2.2402-2.8799c-1.1406,0-2.04,0.8203-2.3604,1.7998c-0.0801,0.2197-0.1201,0.54-0.1201,0.8203v5.8398
					h-1.7598V449.7129z"/>
			</g>
			<g>
				<path d="M249.7812,504.1611c0.7598-0.1797,1.98-0.2998,3.1802-0.2998c1.7397,0,2.8599,0.2998,3.6797,0.9805
					c0.7002,0.5195,1.1401,1.3193,1.1401,2.3799c0,1.3193-0.8799,2.46-2.2803,2.96v0.0596
					c1.2803,0.2998,2.7803,1.3604,2.7803,3.3604c0,1.1602-0.46,2.04-1.1602,2.7002c-0.9199,0.8594-2.4399,1.2598-4.6396,1.2598
					c-1.2002,0-2.1201-0.0801-2.7002-0.1602V504.1611z M251.521,509.6816h1.5801c1.8203,0,2.8999-0.9805,2.8999-2.2803
					c0-1.5596-1.1797-2.2002-2.9399-2.2002c-0.7998,0-1.2598,0.0605-1.54,0.1201V509.6816z M251.521,516.1211
					c0.3604,0.0605,0.8403,0.0801,1.4604,0.0801c1.7998,0,3.46-0.6602,3.46-2.6201c0-1.8193-1.5801-2.5996-3.48-2.5996h-1.4404
					V516.1211z"/>
				<path d="M260.5806,503.2412h1.7603v14.2002h-1.7603V503.2412z"/>
				<path d="M273.3604,514.8018c0,1,0.02,1.8799,0.0801,2.6396h-1.5601l-0.1001-1.5801h-0.04
					c-0.4399,0.7803-1.48,1.7998-3.2002,1.7998c-1.5195,0-3.3398-0.8594-3.3398-4.2393v-5.6602h1.7603v5.3398
					c0,1.8398,0.5796,3.0996,2.1597,3.0996c1.1802,0,2-0.8193,2.3203-1.6201c0.0996-0.2393,0.1597-0.5596,0.1597-0.8994v-5.9199
					h1.7603V514.8018z"/>
				<path d="M277.2803,512.9014c0.04,2.3799,1.54,3.3604,3.2998,3.3604c1.2603,0,2.04-0.2207,2.6802-0.4805l0.3198,1.2402
					c-0.6196,0.2803-1.6997,0.6201-3.2397,0.6201c-2.96,0-4.7603-1.9805-4.7603-4.8799c0-2.9404,1.7402-5.2402,4.5601-5.2402
					c3.1602,0,3.98,2.7803,3.98,4.5596c0,0.3604-0.02,0.6406-0.0596,0.8408L277.2803,512.9014z M282.4204,511.6416
					c0.02-1.1006-0.46-2.8604-2.4199-2.8604c-1.8003,0-2.5601,1.6406-2.7002,2.8604H282.4204z"/>
				<path d="M290.3804,511.4014v1.2803h-4.9399v-1.2803H290.3804z"/>
				<path d="M302.7793,516.8418c-0.7793,0.2998-2.3394,0.7393-4.1592,0.7393c-2.04,0-3.7202-0.5195-5.04-1.7793
					c-1.1602-1.1201-1.8799-2.9199-1.8799-5.0205c0-4.0195,2.7798-6.96,7.2998-6.96c1.5601,0,2.7998,0.3398,3.3799,0.6201
					l-0.4404,1.4199c-0.7197-0.3398-1.6196-0.5801-2.9795-0.5801c-3.2798,0-5.4199,2.04-5.4199,5.4199
					c0,3.4199,2.04,5.4404,5.1997,5.4404c1.1401,0,1.9204-0.1602,2.3208-0.3604v-4.0195h-2.7207v-1.4004h4.4395V516.8418z"/>
				<path d="M305.4189,510.7812c0-1.1396-0.0205-2.1201-0.0801-3.0195h1.54l0.0801,1.8994h0.0605
					c0.4395-1.2998,1.5195-2.1201,2.6992-2.1201c0.1797,0,0.3203,0.0205,0.4805,0.0605v1.6396
					c-0.2002-0.0195-0.3809-0.04-0.6201-0.04c-1.2402,0-2.1201,0.9404-2.3604,2.2402c-0.04,0.2598-0.0596,0.54-0.0596,0.8398v5.1602
					h-1.7607L305.4189,510.7812z"/>
				<path d="M312.8223,512.9014c0.0391,2.3799,1.5391,3.3604,3.2988,3.3604c1.2607,0,2.041-0.2207,2.6807-0.4805l0.3203,1.2402
					c-0.6201,0.2803-1.7002,0.6201-3.2402,0.6201c-2.96,0-4.7607-1.9805-4.7607-4.8799c0-2.9404,1.7402-5.2402,4.5605-5.2402
					c3.1602,0,3.9805,2.7803,3.9805,4.5596c0,0.3604-0.0205,0.6406-0.0605,0.8408L312.8223,512.9014z M317.9619,511.6416
					c0.0195-1.1006-0.46-2.8604-2.4199-2.8604c-1.7998,0-2.5596,1.6406-2.7002,2.8604H317.9619z"/>
				<path d="M322.8418,512.9014c0.04,2.3799,1.54,3.3604,3.2998,3.3604c1.2598,0,2.04-0.2207,2.6807-0.4805l0.3193,1.2402
					c-0.6201,0.2803-1.7002,0.6201-3.2402,0.6201c-2.96,0-4.7598-1.9805-4.7598-4.8799c0-2.9404,1.7402-5.2402,4.5605-5.2402
					c3.1602,0,3.9795,2.7803,3.9795,4.5596c0,0.3604-0.0195,0.6406-0.0596,0.8408L322.8418,512.9014z M327.9814,511.6416
					c0.0205-1.1006-0.46-2.8604-2.4199-2.8604c-1.7998,0-2.5596,1.6406-2.6992,2.8604H327.9814z"/>
				<path d="M331.8613,510.3818c0-1.0205-0.0195-1.8203-0.0801-2.6201h1.5605l0.0996,1.5801h0.04
					c0.4795-0.9004,1.5996-1.8008,3.2002-1.8008c1.3398,0,3.4199,0.8008,3.4199,4.1201v5.7803h-1.7598v-5.5801
					c0-1.5596-0.5801-2.8799-2.2402-2.8799c-1.1406,0-2.04,0.8203-2.3604,1.7998c-0.0801,0.2197-0.1201,0.54-0.1201,0.8203v5.8398
					h-1.7598V510.3818z"/>
			</g>
			<g>
				<path d="M227.6138,463.6631c0.7598-0.1797,1.98-0.2998,3.1802-0.2998c1.7397,0,2.8599,0.2998,3.6797,0.9805
					c0.7002,0.5195,1.1401,1.3193,1.1401,2.3799c0,1.3193-0.8799,2.46-2.2803,2.96v0.0596
					c1.2803,0.2998,2.7803,1.3604,2.7803,3.3604c0,1.1602-0.46,2.04-1.1602,2.7002c-0.9199,0.8594-2.4399,1.2598-4.6396,1.2598
					c-1.2002,0-2.1201-0.0801-2.7002-0.1602V463.6631z M229.3535,469.1836h1.5801c1.8203,0,2.8999-0.9805,2.8999-2.2803
					c0-1.5596-1.1797-2.2002-2.9399-2.2002c-0.7998,0-1.2598,0.0605-1.54,0.1201V469.1836z M229.3535,475.623
					c0.3604,0.0605,0.8403,0.0801,1.4604,0.0801c1.7998,0,3.46-0.6602,3.46-2.6201c0-1.8193-1.5801-2.5996-3.48-2.5996h-1.4404
					V475.623z"/>
				<path d="M238.4131,462.7432h1.7603v14.2002h-1.7603V462.7432z"/>
				<path d="M251.1929,474.3037c0,1,0.02,1.8799,0.0801,2.6396h-1.5601l-0.1001-1.5801h-0.04
					c-0.4399,0.7803-1.48,1.7998-3.2002,1.7998c-1.5195,0-3.3398-0.8594-3.3398-4.2393v-5.6602h1.7603v5.3398
					c0,1.8398,0.5796,3.0996,2.1597,3.0996c1.1802,0,2-0.8193,2.3203-1.6201c0.0996-0.2393,0.1597-0.5596,0.1597-0.8994v-5.9199
					h1.7603V474.3037z"/>
				<path d="M255.1128,472.4033c0.04,2.3799,1.54,3.3604,3.2998,3.3604c1.2603,0,2.04-0.2207,2.6802-0.4805l0.3198,1.2402
					c-0.6196,0.2803-1.6997,0.6201-3.2397,0.6201c-2.96,0-4.7603-1.9805-4.7603-4.8799c0-2.9404,1.7402-5.2402,4.5601-5.2402
					c3.1602,0,3.98,2.7803,3.98,4.5596c0,0.3604-0.02,0.6406-0.0596,0.8408L255.1128,472.4033z M260.2529,471.1436
					c0.02-1.1006-0.46-2.8604-2.4199-2.8604c-1.8003,0-2.5601,1.6406-2.7002,2.8604H260.2529z"/>
			</g>
			<g>
				<path d="M105.6191,473.6426c0.8398-0.1602,1.9399-0.2803,3.3398-0.2803c1.7202,0,2.98,0.4004,3.7803,1.1201
					c0.7397,0.6396,1.1997,1.6201,1.1997,2.8203c0,1.2197-0.3599,2.1797-1.0601,2.8799c-0.9199,0.9795-2.4199,1.4795-4.1196,1.4795
					c-0.52,0-1-0.0195-1.4004-0.1201v5.4004h-1.7397V473.6426z M107.3589,480.1221c0.3804,0.1006,0.8804,0.1406,1.4404,0.1406
					c2.1196,0,3.3799-1.04,3.3799-2.8604c0-1.7998-1.2603-2.6602-3.1802-2.6602c-0.7598,0-1.3398,0.0801-1.6401,0.1406V480.1221z"/>
				<path d="M124.0015,484.3027c0,1,0.02,1.8799,0.0801,2.6396h-1.5601l-0.1001-1.5801h-0.04
					c-0.4399,0.7803-1.48,1.7998-3.2002,1.7998c-1.5195,0-3.3398-0.8594-3.3398-4.2393v-5.6602h1.7603v5.3398
					c0,1.8398,0.5796,3.0996,2.1597,3.0996c1.1802,0,2-0.8193,2.3203-1.6201c0.0996-0.2393,0.1597-0.5596,0.1597-0.8994v-5.9199
					h1.7603V484.3027z"/>
				<path d="M126.9414,480.2822c0-1.1396-0.02-2.1201-0.0801-3.0195h1.54l0.0801,1.8994h0.0601
					c0.4399-1.2998,1.52-2.1201,2.6997-2.1201c0.1802,0,0.3203,0.0205,0.48,0.0605v1.6396c-0.1997-0.0195-0.3799-0.04-0.6196-0.04
					c-1.2402,0-2.1201,0.9404-2.3604,2.2402c-0.0396,0.2598-0.0596,0.54-0.0596,0.8398v5.1602h-1.7603L126.9414,480.2822z"/>
				<path d="M133.5396,480.4229c0-1.2402-0.02-2.2402-0.0801-3.1602h1.5801l0.1001,1.6602h0.04
					c0.6997-1.2002,1.8599-1.8809,3.4199-1.8809c2.3599,0,4.1201,1.9805,4.1201,4.9199c0,3.4805-2.1401,5.2002-4.3999,5.2002
					c-1.3003,0-2.4004-0.5596-2.9805-1.5195h-0.0396v5.2598h-1.7603V480.4229z M135.2998,483.002c0,0.2402,0.02,0.5,0.0796,0.7207
					c0.3003,1.2197,1.3804,2.0596,2.6201,2.0596c1.8599,0,2.9399-1.5195,2.9399-3.7402c0-1.9395-1-3.5996-2.8599-3.5996
					c-1.2002,0-2.3398,0.8398-2.6802,2.1602c-0.04,0.2402-0.0996,0.5-0.0996,0.7197V483.002z"/>
				<path d="M144.9194,472.7422h1.7603v14.2002h-1.7603V472.7422z"/>
				<path d="M150.5991,482.4023c0.04,2.3799,1.54,3.3604,3.2998,3.3604c1.2603,0,2.04-0.2207,2.6802-0.4805l0.3198,1.2402
					c-0.6196,0.2803-1.6997,0.6201-3.2397,0.6201c-2.96,0-4.7603-1.9805-4.7603-4.8799c0-2.9404,1.7402-5.2402,4.5601-5.2402
					c3.1602,0,3.98,2.7803,3.98,4.5596c0,0.3604-0.02,0.6406-0.0596,0.8408L150.5991,482.4023z M155.7393,481.1426
					c0.02-1.1006-0.46-2.8604-2.4199-2.8604c-1.8003,0-2.5601,1.6406-2.7002,2.8604H155.7393z"/>
				<path d="M163.6992,480.9023v1.2803h-4.9399v-1.2803H163.6992z"/>
				<path d="M165.8188,473.6621c0.7598-0.1797,1.98-0.2998,3.1802-0.2998c1.7397,0,2.8599,0.2998,3.6797,0.9805
					c0.7002,0.5195,1.1401,1.3193,1.1401,2.3799c0,1.3193-0.8799,2.46-2.2803,2.96v0.0596
					c1.2803,0.2998,2.7803,1.3604,2.7803,3.3604c0,1.1602-0.46,2.04-1.1602,2.7002c-0.9199,0.8594-2.4399,1.2598-4.6396,1.2598
					c-1.2002,0-2.1201-0.0801-2.7002-0.1602V473.6621z M167.5586,479.1826h1.5801c1.8203,0,2.8999-0.9805,2.8999-2.2803
					c0-1.5596-1.1797-2.2002-2.9399-2.2002c-0.7998,0-1.2598,0.0605-1.54,0.1201V479.1826z M167.5586,485.6221
					c0.3604,0.0605,0.8403,0.0801,1.4604,0.0801c1.7998,0,3.46-0.6602,3.46-2.6201c0-1.8193-1.5801-2.5996-3.48-2.5996h-1.4404
					V485.6221z"/>
				<path d="M176.6182,472.7422h1.7603v14.2002h-1.7603V472.7422z"/>
				<path d="M189.3979,484.3027c0,1,0.02,1.8799,0.0801,2.6396h-1.5601l-0.1001-1.5801h-0.04
					c-0.4399,0.7803-1.48,1.7998-3.2002,1.7998c-1.5195,0-3.3398-0.8594-3.3398-4.2393v-5.6602h1.7603v5.3398
					c0,1.8398,0.5796,3.0996,2.1597,3.0996c1.1802,0,2-0.8193,2.3203-1.6201c0.0996-0.2393,0.1597-0.5596,0.1597-0.8994v-5.9199
					h1.7603V484.3027z"/>
				<path d="M193.3179,482.4023c0.04,2.3799,1.54,3.3604,3.2998,3.3604c1.2603,0,2.04-0.2207,2.6802-0.4805l0.3198,1.2402
					c-0.6196,0.2803-1.6997,0.6201-3.2397,0.6201c-2.96,0-4.7603-1.9805-4.7603-4.8799c0-2.9404,1.7402-5.2402,4.5601-5.2402
					c3.1602,0,3.98,2.7803,3.98,4.5596c0,0.3604-0.02,0.6406-0.0596,0.8408L193.3179,482.4023z M198.458,481.1426
					c0.02-1.1006-0.46-2.8604-2.4199-2.8604c-1.8003,0-2.5601,1.6406-2.7002,2.8604H198.458z"/>
			</g>
		</g>
		<g>
			<line fill="none" stroke="#000000" x1="155" y1="267.3604" x2="191" y2="299.3604"/>
			<line fill="none" stroke="#000000" x1="229" y1="218.3604" x2="258" y2="264.3604"/>
			<line fill="none" stroke="#000000" x1="328" y1="209.3604" x2="344" y2="246.3604"/>
			<line fill="none" stroke="#000000" x1="480" y1="189.3604" x2="490" y2="264.3604"/>
			<line fill="none" stroke="#000000" x1="545" y1="229.3604" x2="567" y2="298.3604"/>
			<line fill="none" stroke="#000000" x1="242.5938" y1="452.9443" x2="254.5933" y2="407.9463"/>
			<line fill="none" stroke="#000000" x1="307.0908" y1="487.4424" x2="364.0879" y2="421.4463"/>
			<line fill="none" stroke="#000000" x1="532.668" y1="340.3613" x2="559.0752" y2="355.5107"/>
			<line fill="none" stroke="#000000" x1="507.334" y1="399.0273" x2="542.5791" y2="434.9453"/>
			<line fill="none" stroke="#000000" x1="149" y1="463.3604" x2="151" y2="404.3604"/>
		</g>
	</g>
	<g id="Chroma_Labels">
		<g>
			<path d="M348.374,349.248c-2.54,0-4.2803-2.3809-4.3193-6.6807c0-4.3799,1.8994-6.7607,4.5391-6.7607
				c2.7207,0,4.3008,2.4414,4.3008,6.5801c0,4.4199-1.6602,6.8613-4.5,6.8613H348.374z M348.4541,347.8867
				c1.7803,0,2.6396-2.0996,2.6396-5.4199c0-3.1992-0.7998-5.2988-2.6396-5.2988c-1.6006,0-2.6396,2.0391-2.6396,5.2988
				c-0.041,3.3809,1,5.4199,2.6191,5.4199H348.4541z"/>
		</g>
		<g>
			<path d="M312.9004,359.0273v-1.0801l1.3789-1.3398c3.3203-3.1602,4.8408-4.8398,4.8408-6.8008
				c0-1.3193-0.6201-2.5391-2.5596-2.5391c-1.1807,0-2.1602,0.5996-2.7607,1.0996l-0.5596-1.2402
				c0.8799-0.7402,2.1797-1.3203,3.6797-1.3203c2.7803,0,3.96,1.9209,3.96,3.7812c0,2.3994-1.7393,4.3398-4.4795,6.9795
				l-1.0205,0.96v0.04h5.8203v1.46H312.9004z"/>
		</g>
		<g>
			<path d="M258.3403,337.0273v-3.54h-6.04v-1.1396l5.8003-8.3203h1.8999v8.0996h1.8198v1.3604h-1.8198v3.54H258.3403z
				 M258.3403,332.127v-4.3594c0-0.6807,0.02-1.3604,0.0601-2.04h-0.0601c-0.3999,0.7598-0.7197,1.3193-1.0801,1.9395
				l-3.1797,4.4199v0.04H258.3403z"/>
		</g>
		<g>
			<path d="M212.3208,331.9131c-0.3599-0.0195-0.8198,0.0205-1.3198,0.1006c-2.7798,0.4395-4.2202,2.46-4.52,4.6201h0.04
				c0.6201-0.8408,1.7202-1.5205,3.1602-1.5205c2.2998,0,3.9199,1.6797,3.9199,4.2002c0,2.3994-1.6201,4.5996-4.3403,4.5996
				c-2.7598,0-4.5796-2.1602-4.5796-5.54c0-2.5596,0.8999-4.5801,2.1997-5.8799c1.0801-1.0596,2.52-1.7197,4.1602-1.9199
				c0.52-0.0801,0.96-0.0996,1.2798-0.0996V331.9131z M209.3008,342.5537c1.5,0,2.52-1.2607,2.52-3.1201
				c0-1.8604-1.0601-2.9805-2.6797-2.9805c-1.0601,0-2.0601,0.6406-2.54,1.6006c-0.1001,0.1992-0.1802,0.4395-0.1802,0.7598
				c0.02,2.1396,1.02,3.7402,2.8599,3.7402H209.3008z"/>
		</g>
		<g>
			<path d="M159.2603,337.4746c2.52,0,3.8003,1.5596,3.8003,3.2002c0,1.0996-0.5601,2.2998-2.1602,3.0391v0.0605
				c1.6201,0.6396,2.6201,1.7998,2.6201,3.3604c0,2.2793-1.9399,3.7793-4.4199,3.7793c-2.7202,0-4.3604-1.5996-4.3604-3.5
				c0-1.6396,0.9805-2.8193,2.5601-3.5v-0.0596c-1.46-0.6797-2.0796-1.7998-2.0796-2.9199c0-2.0605,1.7397-3.46,4.0195-3.46
				H159.2603z M159.1606,349.6348c1.5796,0,2.5996-0.9805,2.5996-2.3203c0-1.5605-1.0996-2.3398-2.8599-2.8398
				c-1.52,0.4395-2.3398,1.46-2.3398,2.7002c-0.0601,1.2998,0.9399,2.46,2.5801,2.46H159.1606z M159.2007,338.7344
				c-1.4604,0-2.2603,0.96-2.2603,2.0801c-0.02,1.2998,0.98,2,2.48,2.3994c1.1201-0.3799,1.98-1.1797,1.98-2.3594
				c0-1.04-0.6201-2.1201-2.1797-2.1201H159.2007z"/>
		</g>
		<g>
			<path d="M102.3872,345.333h-0.04l-2.2603,1.2207l-0.3398-1.3408l2.8398-1.5195h1.5v13h-1.6997V345.333z"/>
			<path d="M112.9668,356.9131c-2.54,0-4.2803-2.3799-4.3198-6.6797c0-4.3799,1.8999-6.7598,4.5396-6.7598
				c2.7202,0,4.3003,2.4395,4.3003,6.5801c0,4.4199-1.6602,6.8594-4.5,6.8594H112.9668z M113.0469,355.5537
				c1.7798,0,2.6396-2.1006,2.6396-5.4199c0-3.2002-0.7998-5.3008-2.6396-5.3008c-1.6001,0-2.6401,2.04-2.6401,5.3008
				c-0.04,3.3799,1,5.4199,2.6201,5.4199H113.0469z"/>
		</g>
		<g>
			<path d="M53.7212,353.333h-0.04l-2.2603,1.2207l-0.3398-1.3408l2.8398-1.5195h1.5v13h-1.6997V353.333z"/>
			<path d="M60.1606,364.6934v-1.0801l1.3799-1.3398c3.3203-3.1602,4.8403-4.8398,4.8403-6.7998c0-1.3203-0.6201-2.54-2.5601-2.54
				c-1.1802,0-2.1602,0.5996-2.7603,1.0996l-0.5601-1.2402c0.8804-0.7393,2.1802-1.3193,3.6802-1.3193
				c2.7803,0,3.96,1.9199,3.96,3.7793c0,2.4004-1.7397,4.3408-4.48,6.9805l-1.02,0.96v0.04h5.8203v1.46H60.1606z"/>
		</g>
	</g>
	<g id="Value_Labels">
		<g>
			<path d="M415.9941,121.0005h-0.0391l-2.2598,1.2197l-0.3398-1.3398l2.8398-1.52h1.5v13h-1.7012V121.0005z"/>
			<path d="M426.5742,132.5806c-2.5391,0-4.2793-2.3804-4.3203-6.6802c0-4.3799,1.9004-6.7603,4.541-6.7603
				c2.7207,0,4.2988,2.4404,4.2988,6.5801c0,4.4199-1.6582,6.8604-4.5,6.8604H426.5742z M426.6543,131.2202
				c1.7812,0,2.6406-2.1001,2.6406-5.4199c0-3.1997-0.8008-5.2998-2.6406-5.2998c-1.5996,0-2.6387,2.04-2.6387,5.2998
				c-0.041,3.3799,1,5.4199,2.6191,5.4199H426.6543z"/>
		</g>
		<g>
			<path d="M416.5352,202.1406c2.5215,0,3.8008,1.5596,3.8008,3.2002c0,1.0996-0.5605,2.2998-2.1602,3.0391v0.0605
				c1.6191,0.6396,2.6191,1.7998,2.6191,3.3604c0,2.2793-1.9395,3.7793-4.4199,3.7793c-2.7188,0-4.3594-1.5996-4.3594-3.5
				c0-1.6396,0.9805-2.8193,2.5605-3.5v-0.0596c-1.4609-0.6797-2.0801-1.7998-2.0801-2.9199c0-2.0605,1.7402-3.46,4.0195-3.46
				H416.5352z M416.4355,214.3008c1.5801,0,2.5996-0.9805,2.5996-2.3203c0-1.5605-1.0996-2.3398-2.8594-2.8398
				c-1.5195,0.4395-2.3398,1.46-2.3398,2.7002c-0.0605,1.2998,0.9395,2.46,2.5801,2.46H416.4355z M416.4766,203.4004
				c-1.4609,0-2.2598,0.96-2.2598,2.0801c-0.0215,1.2998,0.9785,2,2.4785,2.3994c1.1211-0.3799,1.9805-1.1797,1.9805-2.3594
				c0-1.04-0.6191-2.1201-2.1797-2.1201H416.4766z"/>
		</g>
		<g>
			<path d="M416.3164,550.5801c-2.541,0-4.2812-2.3799-4.3203-6.6797c0-4.3799,1.9004-6.7598,4.5391-6.7598
				c2.7207,0,4.3008,2.4395,4.3008,6.5801c0,4.4199-1.6602,6.8594-4.5,6.8594H416.3164z M416.3965,549.2207
				c1.7793,0,2.6387-2.1006,2.6387-5.4199c0-3.2002-0.7988-5.3008-2.6387-5.3008c-1.6016,0-2.6406,2.04-2.6406,5.3008
				c-0.0391,3.3799,1,5.4199,2.6191,5.4199H416.3965z"/>
		</g>
		<g>
			<path d="M412.1758,468.3604v-1.0801l1.3809-1.3398c3.3184-3.1602,4.8398-4.8398,4.8398-6.7998c0-1.3203-0.6211-2.54-2.5605-2.54
				c-1.1797,0-2.1602,0.5996-2.7598,1.0996l-0.5605-1.2402c0.8809-0.7393,2.1797-1.3193,3.6797-1.3193
				c2.7812,0,3.9609,1.9199,3.9609,3.7793c0,2.4004-1.7402,4.3408-4.4805,6.9805l-1.0195,0.96v0.04h5.8203v1.46H412.1758z"/>
		</g>
		<g>
			<path d="M419.5957,289.5801c-0.3594-0.0195-0.8203,0.0205-1.3203,0.1006c-2.7793,0.4395-4.2188,2.46-4.5195,4.6201h0.0391
				c0.6211-0.8408,1.7207-1.5205,3.1602-1.5205c2.3008,0,3.9199,1.6797,3.9199,4.2002c0,2.3994-1.6191,4.5996-4.3398,4.5996
				c-2.7598,0-4.5801-2.1602-4.5801-5.54c0-2.5596,0.9004-4.5801,2.2012-5.8799c1.0801-1.0596,2.5195-1.7197,4.1602-1.9199
				c0.5195-0.0801,0.959-0.0996,1.2793-0.0996V289.5801z M416.5762,300.2207c1.5,0,2.5195-1.2607,2.5195-3.1201
				c0-1.8604-1.0605-2.9805-2.6797-2.9805c-1.0605,0-2.0605,0.6406-2.541,1.6006c-0.0996,0.1992-0.1797,0.4395-0.1797,0.7598
				c0.0215,2.1396,1.0215,3.7402,2.8613,3.7402H416.5762z"/>
		</g>
		<g>
			<path d="M417.6152,384.3604v-3.54h-6.0391v-1.1396l5.7988-8.3203h1.9004v8.0996h1.8203v1.3604h-1.8203v3.54H417.6152z
				 M417.6152,379.46v-4.3594c0-0.6807,0.0215-1.3604,0.0605-2.04h-0.0605c-0.3984,0.7598-0.7188,1.3193-1.0801,1.9395
				l-3.1797,4.4199v0.04H417.6152z"/>
		</g>
		<g>
			<path d="M419.9355,331.3408h-4.959l-0.5,3.2998c0.2988-0.04,0.5801-0.0801,1.0586-0.0801c1.0215,0,2,0.2197,2.8008,0.7002
				c1.0195,0.5596,1.8594,1.6992,1.8594,3.3799c0,2.54-2.0195,4.4395-4.8398,4.4395c-1.4199,0-2.5996-0.3994-3.2402-0.7998
				l0.4414-1.3398c0.5391,0.3203,1.5996,0.7197,2.7988,0.7197c1.6406,0,3.0801-1.0801,3.0605-2.8398
				c0-1.7197-1.1406-2.9004-3.7207-2.9004c-0.7598,0-1.3398,0.0605-1.8203,0.1406l0.8418-6.2002h6.2188V331.3408z"/>
		</g>
	</g>
</g>
<g id="Legend">
	<g>
		<g>
			<g>
				<g>
					<line fill="none" stroke="#14315D" stroke-width="1.5" x1="137.793" y1="147.6104" x2="137.793" y2="190.5737"/>
					<path fill="#14315D" d="M137.793,196.6084c-1.0537-2.8398-2.8511-6.3628-4.7544-8.5459l4.7544,1.7192l4.7544-1.7192
						C140.644,190.2456,138.8462,193.7686,137.793,196.6084z"/>
				</g>
			</g>
			<g>
				<g>
					<line fill="none" stroke="#14315D" stroke-width="1.5" x1="137.793" y1="34.5737" x2="137.793" y2="138.1104"/>
					<path fill="#14315D" d="M137.793,28.5391c1.0537,2.8398,2.8511,6.3628,4.7544,8.5459l-4.7544-1.7192l-4.7544,1.7192
						C134.9419,34.9019,136.7397,31.3789,137.793,28.5391z"/>
				</g>
			</g>
		</g>
		<g>
			<g>
				<g>
					<path fill="none" stroke="#0B3A18" stroke-width="1.5" d="M143.4951,83.6719c7.5166,0.2417,14.7109,0.9556,21.4058,2.0698"/>
					<path fill="#0B3A18" d="M170.8535,86.7324c-2.9741,0.5732-6.7446,1.7681-9.2104,3.2866l2.4766-4.4072l-0.9155-4.9722
						C165.0454,82.875,168.2256,85.2275,170.8535,86.7324z"/>
				</g>
			</g>
			<g>
				<g>
					<path fill="none" stroke="#0B3A18" stroke-width="1.5" d="M206.0825,103.5732c2.541,3.0298,3.9209,6.2817,3.9209,9.6665
						c0,16.3789-32.3296,29.6592-72.2104,29.6592s-72.2104-13.2803-72.2104-29.6592c0-15.6523,29.5122-28.4692,66.9258-29.5806"/>
					<path fill="#0B3A18" d="M202.2046,98.9497c2.6323,1.4985,6.2734,3.0425,9.1348,3.4927l-4.748,1.7378l-2.5376,4.3726
						C204.1084,105.6567,203.2227,101.8018,202.2046,98.9497z"/>
				</g>
			</g>
		</g>
		<g>
			<g>
				<line fill="none" stroke="#591D24" stroke-width="1.5" x1="125.7925" y1="116.4033" x2="38.2915" y2="139.4658"/>
				<path fill="#591D24" d="M32.4561,141.0039c2.4775-1.7427,5.4258-4.3789,7.0522-6.7754l-0.4512,5.0356l2.8745,4.1587
					C39.3354,142.1392,35.4702,141.2983,32.4561,141.0039z"/>
				<path fill="#591D24" d="M131.6279,114.8652c-2.4775,1.7427-5.4258,4.3789-7.0522,6.7754l0.4512-5.0356l-2.8745-4.1587
					C124.7485,113.73,128.6138,114.5708,131.6279,114.8652z"/>
			</g>
		</g>
	</g>
	<g>
		<g>
			<path fill="#591D24" d="M35.2129,159.9873c-0.6201,0.3198-1.9199,0.6401-3.5601,0.6401c-3.7998,0-6.6396-2.4004-6.6396-6.8403
				c0-4.2397,2.8599-7.0801,7.0396-7.0801c1.6602,0,2.7402,0.3604,3.2002,0.6001l-0.4399,1.4199
				c-0.6401-0.3198-1.5801-0.5601-2.7002-0.5601c-3.1597,0-5.2598,2.02-5.2598,5.5601c0,3.3203,1.8999,5.4204,5.1602,5.4204
				c1.0796,0,2.1597-0.2202,2.8599-0.5601L35.2129,159.9873z"/>
			<path fill="#591D24" d="M37.2939,146.207h1.7603v6.04h0.0396c0.2803-0.5,0.7202-0.96,1.2603-1.2397
				c0.52-0.3203,1.1401-0.5,1.7998-0.5c1.3003,0,3.3804,0.7998,3.3804,4.1401v5.7598h-1.7603v-5.5601
				c0-1.5801-0.5801-2.8799-2.2397-2.8799c-1.1401,0-2.02,0.7998-2.3604,1.7598c-0.0996,0.2402-0.1196,0.5-0.1196,0.8403v5.8398
				h-1.7603V146.207z"/>
			<path fill="#591D24" d="M48.4141,153.7471c0-1.1396-0.02-2.1196-0.0801-3.02h1.54l0.0801,1.9004h0.0601
				c0.4399-1.3003,1.52-2.1201,2.6997-2.1201c0.1802,0,0.3203,0.02,0.48,0.0601v1.6396c-0.1997-0.02-0.3799-0.04-0.6196-0.04
				c-1.2402,0-2.1201,0.9404-2.3604,2.2402c-0.04,0.2598-0.0596,0.54-0.0596,0.8398v5.1602H48.394L48.4141,153.7471z"/>
			<path fill="#591D24" d="M58.7563,160.6274c-2.6001,0-4.6401-1.9204-4.6401-4.98c0-3.2402,2.1401-5.1401,4.8003-5.1401
				c2.7798,0,4.6602,2.02,4.6602,4.96c0,3.6001-2.5,5.1602-4.8003,5.1602H58.7563z M58.8164,159.3071
				c1.6802,0,2.9399-1.5801,2.9399-3.7798c0-1.6401-0.8198-3.7002-2.8999-3.7002c-2.0601,0-2.96,1.9199-2.96,3.7603
				c0,2.1196,1.2002,3.7197,2.8999,3.7197H58.8164z"/>
			<path fill="#591D24" d="M65.7964,153.3472c0-1.02-0.04-1.8198-0.0801-2.6201h1.54l0.0801,1.5601h0.0601
				c0.54-0.9199,1.4399-1.7798,3.0601-1.7798c1.2998,0,2.2998,0.7998,2.7197,1.9399h0.04c0.3003-0.5601,0.7002-0.96,1.1001-1.2603
				c0.5801-0.4399,1.2002-0.6797,2.1201-0.6797c1.2998,0,3.1997,0.8398,3.1997,4.1997v5.7002h-1.7197v-5.48
				c0-1.8799-0.7002-2.98-2.1001-2.98c-1.02,0-1.7798,0.7397-2.1001,1.5801c-0.0801,0.2598-0.1401,0.5801-0.1401,0.8799v6h-1.7197
				v-5.7998c0-1.5601-0.6802-2.6602-2.02-2.6602c-1.0801,0-1.8999,0.8799-2.1802,1.7598c-0.0996,0.2603-0.1396,0.5601-0.1396,0.8604
				v5.8398h-1.7202V153.3472z"/>
			<path fill="#591D24" d="M89.2964,158.0874c0,0.8398,0.04,1.6597,0.1401,2.3198h-1.5801l-0.1597-1.2202h-0.0601
				c-0.52,0.7603-1.5801,1.4404-2.96,1.4404c-1.96,0-2.96-1.3804-2.96-2.7803c0-2.3398,2.0796-3.6201,5.8198-3.6001v-0.1997
				c0-0.8003-0.2202-2.2603-2.2002-2.2402c-0.9199,0-1.8599,0.2603-2.54,0.7202l-0.3999-1.1802
				c0.8003-0.5,1.98-0.8398,3.2002-0.8398c2.98,0,3.6997,2.02,3.6997,3.96V158.0874z M87.5767,155.4673
				c-1.9199-0.04-4.1001,0.2998-4.1001,2.1802c0,1.1597,0.7603,1.6797,1.6401,1.6797c1.2798,0,2.1001-0.7998,2.3799-1.6201
				c0.0601-0.1797,0.0801-0.3799,0.0801-0.5596V155.4673z"/>
		</g>
		<g>
			<path fill="#14315D" d="M89.5229,52.6572l-4.4199-13.48h1.8999l2.1001,6.6401c0.5601,1.8198,1.0601,3.48,1.4399,5.04h0.04
				c0.3799-1.5601,0.9199-3.2603,1.54-5.02l2.2798-6.6602h1.8604l-4.8203,13.48H89.5229z"/>
			<path fill="#14315D" d="M103.7651,50.3374c0,0.8398,0.04,1.6597,0.1401,2.3198h-1.5801l-0.1597-1.2202h-0.0601
				c-0.52,0.7603-1.5801,1.4404-2.96,1.4404c-1.96,0-2.96-1.3804-2.96-2.7803c0-2.3398,2.0796-3.6201,5.8198-3.6001v-0.1997
				c0-0.8003-0.2202-2.2603-2.2002-2.2402c-0.9199,0-1.8599,0.2603-2.54,0.7202l-0.3999-1.1802
				c0.8003-0.5,1.98-0.8398,3.2002-0.8398c2.98,0,3.6997,2.02,3.6997,3.96V50.3374z M102.0454,47.7173
				c-1.9199-0.04-4.1001,0.2998-4.1001,2.1802c0,1.1597,0.7603,1.6797,1.6401,1.6797c1.2798,0,2.1001-0.7998,2.3799-1.6201
				c0.0601-0.1797,0.0801-0.3799,0.0801-0.5596V47.7173z"/>
			<path fill="#14315D" d="M106.585,38.457h1.7603v14.2002h-1.7603V38.457z"/>
			<path fill="#14315D" d="M119.3647,50.0171c0,1,0.02,1.8804,0.0801,2.6401h-1.5601l-0.1001-1.5801h-0.04
				c-0.4399,0.7803-1.48,1.8003-3.1997,1.8003c-1.52,0-3.3403-0.8604-3.3403-4.2402v-5.6602h1.7603v5.3403
				c0,1.8398,0.5801,3.0996,2.1597,3.0996c1.1802,0,2-0.8198,2.3203-1.6196c0.1001-0.2402,0.1597-0.5601,0.1597-0.8999v-5.9204
				h1.7603V50.0171z"/>
			<path fill="#14315D" d="M123.2847,48.1172c0.04,2.3799,1.54,3.3599,3.2998,3.3599c1.2603,0,2.04-0.2197,2.6802-0.48
				l0.3198,1.2402c-0.6196,0.2798-1.6997,0.6201-3.2397,0.6201c-2.96,0-4.7603-1.98-4.7603-4.8804
				c0-2.9399,1.7402-5.2397,4.5601-5.2397c3.1602,0,3.98,2.7798,3.98,4.5601c0,0.3599-0.02,0.6396-0.0601,0.8398L123.2847,48.1172z
				 M128.4248,46.8574c0.02-1.1001-0.46-2.8604-2.4199-2.8604c-1.8003,0-2.5601,1.6401-2.7002,2.8604H128.4248z"/>
		</g>
		<g>
			<path fill="#0B3A18" d="M179.8027,79.6772v5.6401h6.52v-5.6401h1.7603v13.48h-1.7603v-6.3198h-6.52v6.3198h-1.7598v-13.48
				H179.8027z"/>
			<path fill="#0B3A18" d="M199.1431,90.5171c0,1,0.02,1.8804,0.0801,2.6401h-1.5601l-0.1001-1.5801h-0.04
				c-0.4399,0.7803-1.48,1.8003-3.1997,1.8003c-1.52,0-3.3403-0.8604-3.3403-4.2402v-5.6602h1.7603v5.3403
				c0,1.8398,0.5801,3.0996,2.1597,3.0996c1.1802,0,2-0.8198,2.3203-1.6196c0.1001-0.2402,0.1597-0.5601,0.1597-0.8999v-5.9204
				h1.7603V90.5171z"/>
			<path fill="#0B3A18" d="M203.0625,88.6172c0.04,2.3799,1.54,3.3599,3.2998,3.3599c1.2603,0,2.04-0.2197,2.6802-0.48
				l0.3198,1.2402c-0.6196,0.2798-1.6997,0.6201-3.2397,0.6201c-2.96,0-4.7603-1.98-4.7603-4.8804
				c0-2.9399,1.7402-5.2397,4.5601-5.2397c3.1602,0,3.98,2.7798,3.98,4.5601c0,0.3599-0.02,0.6396-0.0596,0.8398L203.0625,88.6172z
				 M208.2026,87.3574c0.02-1.1001-0.46-2.8604-2.4199-2.8604c-1.8003,0-2.5601,1.6401-2.7002,2.8604H208.2026z"/>
		</g>
	</g>
</g>
<g>
	<path d="M289.4136,45.084c-0.1504-2.8203-0.3301-6.2402-0.3301-8.7305h-0.0601c-0.7202,2.3403-1.5303,4.8901-2.5503,7.6802
		l-3.5698,9.8101h-1.98l-3.2998-9.6299c-0.9604-2.8799-1.7402-5.46-2.3101-7.8604h-0.0601c-0.0601,2.52-0.21,5.8804-0.3901,8.9404
		l-0.54,8.6699h-2.4897l1.4097-20.2202h3.3301l3.4502,9.7803c0.8398,2.4897,1.5,4.71,2.04,6.8101h0.0601
		c0.54-2.04,1.2598-4.2603,2.1597-6.8101l3.6001-9.7803h3.3301l1.2603,20.2202h-2.5801L289.4136,45.084z"/>
	<path d="M308.6406,50.0039c0,1.5,0.0303,2.8198,0.1201,3.96h-2.3398l-0.1504-2.3701h-0.0596
		c-0.6602,1.1699-2.2197,2.7002-4.7998,2.7002c-2.2803,0-5.0103-1.29-5.0103-6.3604v-8.4897h2.6401v8.0098
		c0,2.7603,0.8701,4.6504,3.2402,4.6504c1.7695,0,3-1.23,3.4795-2.4302c0.1504-0.3599,0.2402-0.8398,0.2402-1.3501v-8.8799h2.6396
		V50.0039z"/>
	<path d="M313.0215,43.374c0-1.5303-0.0303-2.7305-0.1201-3.9302h2.3398l0.1494,2.3701h0.0605
		c0.7197-1.3501,2.4004-2.7002,4.7998-2.7002c2.0098,0,5.1299,1.2002,5.1299,6.1802v8.6699h-2.6396v-8.3701
		c0-2.3398-0.8701-4.3198-3.3604-4.3198c-1.71,0-3.0596,1.23-3.54,2.6997c-0.1201,0.3301-0.1797,0.8101-0.1797,1.23v8.7603h-2.6396
		V43.374z"/>
	<path d="M329.3105,51.2939c0.8096,0.48,2.1904,1.02,3.5098,1.02c1.8906,0,2.79-0.9302,2.79-2.1602
		c0-1.2598-0.75-1.9502-2.6699-2.6699c-2.6396-0.96-3.8701-2.3701-3.8701-4.1099c0-2.3403,1.9199-4.2603,5.0098-4.2603
		c1.4707,0,2.7607,0.3901,3.54,0.8999l-0.6299,1.8901c-0.5693-0.3301-1.6201-0.8398-2.9697-0.8398
		c-1.5596,0-2.4004,0.8999-2.4004,1.98c0,1.23,0.8408,1.77,2.7305,2.4897c2.4902,0.9302,3.8096,2.1899,3.8096,4.3804
		c0,2.5796-2.0098,4.3799-5.3994,4.3799c-1.5898,0-3.0605-0.4199-4.0801-1.02L329.3105,51.2939z"/>
	<path d="M343.0508,47.1538c0.0596,3.5698,2.3096,5.04,4.9492,5.04c1.8906,0,3.0605-0.3301,4.0205-0.7202L352.5,53.334
		c-0.9297,0.4199-2.5498,0.9297-4.8594,0.9297c-4.4404,0-7.1406-2.9697-7.1406-7.3198c0-4.4102,2.6104-7.8599,6.8408-7.8599
		c4.7393,0,5.9697,4.1699,5.9697,6.8398c0,0.54-0.0303,0.96-0.0898,1.2598L343.0508,47.1538z M350.7607,45.2637
		c0.0293-1.6499-0.6904-4.29-3.6299-4.29c-2.7002,0-3.8408,2.46-4.0508,4.29H350.7607z"/>
	<path d="M356.5801,32.6636h2.6396v21.3003h-2.6396V32.6636z"/>
	<path d="M363.5996,32.6636h2.6396v21.3003h-2.6396V32.6636z"/>
	<path d="M391.168,53.334c-0.9297,0.48-2.8799,0.96-5.3398,0.96c-5.7002,0-9.96-3.6001-9.96-10.2603
		c0-6.3599,4.29-10.6201,10.5596-10.6201c2.4902,0,4.1104,0.54,4.8008,0.8999l-0.6602,2.1304
		c-0.96-0.48-2.3701-0.8403-4.0498-0.8403c-4.7402,0-7.8906,3.0303-7.8906,8.3403c0,4.98,2.8506,8.1299,7.7402,8.1299
		c1.6201,0,3.2402-0.3301,4.29-0.8398L391.168,53.334z"/>
	<path d="M399.8994,54.2939c-3.8994,0-6.96-2.8799-6.96-7.4702c0-4.8599,3.21-7.71,7.2002-7.71
		c4.1699,0,6.9902,3.0298,6.9902,7.4399c0,5.3999-3.75,7.7402-7.2002,7.7402H399.8994z M399.9902,52.314
		c2.5195,0,4.4092-2.3701,4.4092-5.6699c0-2.4604-1.2295-5.5503-4.3496-5.5503c-3.0898,0-4.4404,2.8799-4.4404,5.6401
		c0,3.1802,1.8008,5.5801,4.3506,5.5801H399.9902z"/>
	<path d="M410.459,32.6636h2.6396v21.3003h-2.6396V32.6636z"/>
	<path d="M423.3877,54.2939c-3.8994,0-6.96-2.8799-6.96-7.4702c0-4.8599,3.21-7.71,7.2002-7.71
		c4.1699,0,6.9902,3.0298,6.9902,7.4399c0,5.3999-3.75,7.7402-7.2002,7.7402H423.3877z M423.4785,52.314
		c2.5195,0,4.4092-2.3701,4.4092-5.6699c0-2.4604-1.2295-5.5503-4.3496-5.5503c-3.0898,0-4.4404,2.8799-4.4404,5.6401
		c0,3.1802,1.8008,5.5801,4.3506,5.5801H423.4785z"/>
	<path d="M433.9785,43.9736c0-1.71-0.0293-3.1797-0.1201-4.5298h2.3105l0.1201,2.8501h0.0898
		c0.6602-1.9502,2.2803-3.1802,4.0498-3.1802c0.2705,0,0.4805,0.0298,0.7197,0.0898v2.46
		c-0.2998-0.0298-0.5693-0.0596-0.9297-0.0596c-1.8604,0-3.1797,1.4097-3.54,3.3599c-0.0596,0.3901-0.0898,0.8101-0.0898,1.2598
		v7.7402h-2.6396L433.9785,43.9736z"/>
	<path d="M449.877,50.7837c1.1699,0.75,2.8496,1.3203,4.6494,1.3203c2.6709,0,4.2305-1.3804,4.2305-3.4502
		c0-1.8599-1.0801-2.9702-3.8096-3.9902c-3.3008-1.1997-5.3408-2.9399-5.3408-5.7598c0-3.1499,2.6104-5.4902,6.54-5.4902
		c2.04,0,3.5703,0.48,4.4404,0.9902l-0.7197,2.1299c-0.6299-0.3901-1.9805-0.96-3.8105-0.96c-2.7598,0-3.8096,1.6499-3.8096,3.0298
		c0,1.8901,1.2295,2.8203,4.0195,3.9004c3.4199,1.3501,5.1299,2.9697,5.1299,5.9399c0,3.1201-2.2793,5.8501-7.0498,5.8501
		c-1.9502,0-4.0801-0.6001-5.1602-1.3203L449.877,50.7837z"/>
	<path d="M465.6338,39.4438l3.1494,8.5801c0.3604,0.96,0.7207,2.1001,0.96,2.9697h0.0605c0.2695-0.8696,0.5693-1.98,0.9297-3.0298
		l2.8799-8.52h2.79l-3.96,10.3501c-1.8896,4.98-3.1797,7.5298-4.9795,9.1201c-1.3203,1.1099-2.5801,1.5601-3.2402,1.6797
		l-0.6602-2.2197c0.6602-0.1802,1.5303-0.6001,2.3096-1.29c0.7207-0.5703,1.5908-1.5903,2.2207-2.9399
		c0.1201-0.27,0.21-0.4502,0.21-0.6304c0-0.1499-0.0605-0.3599-0.21-0.6597l-5.3408-13.4102H465.6338z"/>
	<path d="M478.3252,51.2939c0.8096,0.48,2.1895,1.02,3.5098,1.02c1.8906,0,2.79-0.9302,2.79-2.1602
		c0-1.2598-0.75-1.9502-2.6699-2.6699c-2.6396-0.96-3.8701-2.3701-3.8701-4.1099c0-2.3403,1.9199-4.2603,5.0098-4.2603
		c1.4707,0,2.7607,0.3901,3.54,0.8999l-0.6299,1.8901c-0.5693-0.3301-1.6201-0.8398-2.9697-0.8398
		c-1.5596,0-2.4004,0.8999-2.4004,1.98c0,1.23,0.8408,1.77,2.7305,2.4897c2.4902,0.9302,3.8096,2.1899,3.8096,4.3804
		c0,2.5796-2.0098,4.3799-5.3994,4.3799c-1.5898,0-3.0605-0.4199-4.0801-1.02L478.3252,51.2939z"/>
	<path d="M493.7461,35.9639v3.48h3.7803v2.0098h-3.7803v7.8301c0,1.8003,0.5098,2.8203,1.9795,2.8203
		c0.7207,0,1.1406-0.0601,1.5303-0.1802l0.1201,2.0103c-0.5098,0.1797-1.3203,0.3599-2.3398,0.3599
		c-1.2305,0-2.2197-0.4199-2.8506-1.1099c-0.7197-0.8101-1.0195-2.1001-1.0195-3.8101v-7.9204h-2.25v-2.0098h2.25v-2.6699
		L493.7461,35.9639z"/>
	<path d="M501.8203,47.1538c0.0596,3.5698,2.3096,5.04,4.9492,5.04c1.8906,0,3.0605-0.3301,4.0205-0.7202l0.4795,1.8604
		c-0.9297,0.4199-2.5498,0.9297-4.8594,0.9297c-4.4404,0-7.1406-2.9697-7.1406-7.3198c0-4.4102,2.6104-7.8599,6.8408-7.8599
		c4.7393,0,5.9697,4.1699,5.9697,6.8398c0,0.54-0.0303,0.96-0.0898,1.2598L501.8203,47.1538z M509.5303,45.2637
		c0.0293-1.6499-0.6904-4.29-3.6299-4.29c-2.7002,0-3.8408,2.46-4.0508,4.29H509.5303z"/>
	<path d="M515.3496,43.374c0-1.5303-0.0605-2.7305-0.1201-3.9302h2.3096l0.1201,2.3398h0.0898
		c0.8105-1.3799,2.1602-2.6699,4.5898-2.6699c1.9502,0,3.4502,1.2002,4.0801,2.9102h0.0605
		c0.4502-0.8403,1.0498-1.4399,1.6494-1.8901c0.8701-0.6602,1.8008-1.02,3.1807-1.02c1.9502,0,4.7998,1.2598,4.7998,6.2998v8.5503
		h-2.5801v-8.2202c0-2.8198-1.0498-4.4697-3.1504-4.4697c-1.5293,0-2.6699,1.1099-3.1494,2.3696
		c-0.1201,0.3901-0.21,0.8701-0.21,1.3203v9h-2.5801v-8.7002c0-2.3398-1.0205-3.9897-3.0303-3.9897
		c-1.6201,0-2.8496,1.3198-3.2695,2.6396c-0.1504,0.3901-0.2109,0.8403-0.2109,1.29v8.7603h-2.5791V43.374z"/>
</g>
</svg>
