<svg viewBox="0 0 283.46 283.46" xmlns="http://www.w3.org/2000/svg"><path d="m147.07 132.49c.73 1.6 1.54 3.19 2.44 4.75a53 53 0 0 0 2.9 4.49 54.47 54.47 0 0 1 88.56 0 54.47 54.47 0 0 0 -49.62-85.94 54.47 54.47 0 0 1 -44.28 76.7z" fill="#fced00"/><path d="m243.87 200.7a54.48 54.48 0 0 0 -2.9-59 54.47 54.47 0 0 1 -88.56 0c-1 1.44-2 2.93-2.9 4.49s-1.71 3.15-2.44 4.76a54.46 54.46 0 0 1 44.28 76.69 54.48 54.48 0 0 0 52.52-26.94z" fill="#00a550"/><path d="m223.93 126.28a54.49 54.49 0 0 0 -71.52 15.45 54.47 54.47 0 0 0 88.56 0 54.33 54.33 0 0 0 -17.04-15.45z" fill="#8cc540"/><path d="m147.07 151c-1.76-.17-3.54-.26-5.34-.26s-3.58.09-5.34.26a54.46 54.46 0 0 1 -44.28 76.69 54.47 54.47 0 0 0 99.24 0 54.46 54.46 0 0 1 -44.28-76.69z" fill="#00aeef"/><path d="m147.07 151a54.46 54.46 0 0 0 44.28 76.69 54.46 54.46 0 0 0 -44.28-76.69z" fill="#009b90"/><path d="m136.39 151q-1.09-2.41-2.44-4.76c-.9-1.56-1.87-3.05-2.9-4.49a54.46 54.46 0 0 1 -88.55 0 54.47 54.47 0 0 0 49.61 85.94 54.48 54.48 0 0 1 44.28-76.69z" fill="#2e3091"/><path d="m136.39 151a54.48 54.48 0 0 0 -44.28 76.69 54.46 54.46 0 0 0 44.28-76.69z" fill="#0c72ba"/><path d="m59.54 126.28a54.48 54.48 0 0 1 71.51 15.45 53 53 0 0 0 2.9-4.49c.9-1.56 1.71-3.15 2.44-4.75a54.49 54.49 0 0 1 -44.28-76.7 54.47 54.47 0 0 0 -49.61 85.94 54.22 54.22 0 0 1 17.04-15.45z" fill="#ec008c"/><path d="m59.54 157.18a54.46 54.46 0 0 0 71.51-15.45 54.46 54.46 0 0 0 -88.55 0 54.1 54.1 0 0 0 17.04 15.45z" fill="#90298d"/><path d="m136.39 132.49c1.76.17 3.54.26 5.34.26s3.58-.09 5.34-.26a54.46 54.46 0 0 1 44.28-76.7 54.48 54.48 0 0 0 -99.24 0 54.46 54.46 0 0 1 44.28 76.7z" fill="#ec2124"/><path d="m147.07 132.49a54.47 54.47 0 0 0 44.28-76.7 54.46 54.46 0 0 0 -44.28 76.7z" fill="#f69320"/><path d="m136.39 132.49a54.46 54.46 0 0 0 -44.28-76.7 54.49 54.49 0 0 0 44.28 76.7z" fill="#eb1a5b"/><path d="m260.06 110 17.09-4.54a141.28 141.28 0 0 0 -36.27-62.81l-12.49 12.51a122.47 122.47 0 0 1 31.67 54.84z" fill="#fcee1f"/><path d="m23.41 173.49-17.09 4.51a141.28 141.28 0 0 0 36.26 62.81l12.5-12.54a122.27 122.27 0 0 1 -31.67-54.78z" fill="#2d368f"/><path d="m110 23.41-4.59-17.09a141.32 141.32 0 0 0 -62.79 36.25l12.54 12.5a122.33 122.33 0 0 1 54.84-31.66z" fill="#eb1a5b"/><path d="m173.5 260.06 4.55 17.09a141.42 141.42 0 0 0 62.8-36.25l-12.55-12.51a122.34 122.34 0 0 1 -54.8 31.67z" fill="#009b90"/><path d="m228.3 55.07 12.54-12.5a141.28 141.28 0 0 0 -62.84-36.25l-4.5 17.09a122.38 122.38 0 0 1 54.8 31.66z" fill="#f69320"/><path d="m228.39 55.16 12.49-12.54-12.58 12.45z" fill="#f69320"/><path d="m55.17 228.4-12.54 12.5-.05-.05a141.31 141.31 0 0 0 62.84 36.3l4.58-17.09a122.33 122.33 0 0 1 -54.83-31.66z" fill="#0c72ba"/><path d="m55.17 228.4-.09-.09-12.5 12.54.05.05z" fill="#0c72ba"/><path d="m23.41 110a122.33 122.33 0 0 1 31.66-54.8l-12.5-12.58a141.37 141.37 0 0 0 -36.27 62.85s0 0 0-.06z" fill="#e90e8b"/><path d="m55.07 55.16.09-.09-12.54-12.5z" fill="#e90e8b"/><path d="m228.39 228.31 12.5 12.54a141.21 141.21 0 0 0 36.26-62.79l-17.1-4.55a122.38 122.38 0 0 1 -31.66 54.8z" fill="#03a550"/><path d="m228.3 228.39 12.55 12.51-12.5-12.54z" fill="#03a550"/><g fill="#8cc540"><path d="m281.89 141.74a140.25 140.25 0 0 0 -4.73-36.25l-17.07 4.6a123.05 123.05 0 0 1 0 63.3l17.07 4.61s0 0 0 .06a140.3 140.3 0 0 0 4.73-36.32z"/><path d="m260.09 110.09 17.07-4.6v-.06l-17.1 4.57z"/><path d="m260.09 173.39v.12l17.1 4.55s0 0 0-.06z"/></g><path d="m23.37 173.38a123.19 123.19 0 0 1 0-63.3l-17.07-4.61a141.4 141.4 0 0 0 0 72.57s0 0 0-.06z" fill="#90298d"/><path d="m23.37 173.38-17.07 4.62s0 0 0 .06l17.09-4.55s-.01-.09-.02-.13z" fill="#90298d"/><path d="m23.41 110-17.09-4.59s0 0 0 .06l17.08 4.61z" fill="#90298d"/><path d="m110.08 23.38a123.05 123.05 0 0 1 63.3 0l4.62-17.08a141.4 141.4 0 0 0 -72.57 0h.06z" fill="#eb2227"/><path d="m110.08 23.38-4.61-17.08h-.06l4.59 17.11z" fill="#eb2227"/><path d="m173.5 23.41 4.5-17.09-4.6 17.08z" fill="#eb2227"/><path d="m141.73 264.23a122.7 122.7 0 0 1 -31.64-4.14l-4.61 17.08h-.06a141.25 141.25 0 0 0 72.57 0l-4.61-17.08a122.72 122.72 0 0 1 -31.65 4.14z" fill="#29abe2"/><path d="m173.38 260.09 4.62 17.08h.06l-4.55-17.09z" fill="#29abe2"/><path d="m110.09 260.09h-.12l-4.55 17.09h.06z" fill="#29abe2"/></svg>