<svg id="Layer_1" data-name="Layer 1" xmlns="http://www.w3.org/2000/svg" viewBox="0 0 283.46 283.46">
  <g>
    <g>
      <path d="M147.07,132.49c.73,1.6,1.54,3.19,2.44,4.75a53,53,0,0,0,2.9,4.49,54.47,54.47,0,0,1,88.56,0,54.47,54.47,0,0,0-49.62-85.94,54.47,54.47,0,0,1-44.28,76.7Z" fill="#fced00"/>
      <path d="M243.87,200.7a54.48,54.48,0,0,0-2.9-59,54.47,54.47,0,0,1-88.56,0c-1,1.44-2,2.93-2.9,4.49s-1.71,3.15-2.44,4.76a54.46,54.46,0,0,1,44.28,76.69A54.48,54.48,0,0,0,243.87,200.7Z" fill="#00a550"/>
      <path d="M223.93,126.28a54.49,54.49,0,0,0-71.52,15.45,54.47,54.47,0,0,0,88.56,0A54.33,54.33,0,0,0,223.93,126.28Z" fill="#8cc540"/>
      <path d="M147.07,151c-1.76-.17-3.54-.26-5.34-.26s-3.58.09-5.34.26a54.46,54.46,0,0,1-44.28,76.69,54.47,54.47,0,0,0,99.24,0A54.46,54.46,0,0,1,147.07,151Z" fill="#00aeef"/>
      <path d="M147.07,151a54.46,54.46,0,0,0,44.28,76.69A54.46,54.46,0,0,0,147.07,151Z" fill="#009b90"/>
      <path d="M136.39,151q-1.09-2.41-2.44-4.76c-.9-1.56-1.87-3.05-2.9-4.49a54.46,54.46,0,0,1-88.55,0,54.47,54.47,0,0,0,49.61,85.94A54.48,54.48,0,0,1,136.39,151Z" fill="#2e3091"/>
      <path d="M136.39,151a54.48,54.48,0,0,0-44.28,76.69A54.46,54.46,0,0,0,136.39,151Z" fill="#0c72ba"/>
      <path d="M59.54,126.28a54.48,54.48,0,0,1,71.51,15.45,53,53,0,0,0,2.9-4.49c.9-1.56,1.71-3.15,2.44-4.75a54.49,54.49,0,0,1-44.28-76.7A54.47,54.47,0,0,0,42.5,141.73,54.22,54.22,0,0,1,59.54,126.28Z" fill="#ec008c"/>
      <path d="M59.54,157.18a54.46,54.46,0,0,0,71.51-15.45,54.46,54.46,0,0,0-88.55,0A54.1,54.1,0,0,0,59.54,157.18Z" fill="#90298d"/>
      <path d="M136.39,132.49c1.76.17,3.54.26,5.34.26s3.58-.09,5.34-.26a54.46,54.46,0,0,1,44.28-76.7,54.48,54.48,0,0,0-99.24,0,54.46,54.46,0,0,1,44.28,76.7Z" fill="#ec2124"/>
      <path d="M147.07,132.49a54.47,54.47,0,0,0,44.28-76.7,54.46,54.46,0,0,0-44.28,76.7Z" fill="#f69320"/>
      <path d="M136.39,132.49a54.46,54.46,0,0,0-44.28-76.7,54.49,54.49,0,0,0,44.28,76.7Z" fill="#eb1a5b"/>
    </g>
    <g>
      <path d="M240.84,42.57h0v0Z" fill="#fcee1f"/>
      <path d="M277.16,105.49v0Z" fill="#fcee1f"/>
      <path d="M260.06,110l17.09-4.54a141.28,141.28,0,0,0-36.27-62.81L228.39,55.16A122.47,122.47,0,0,1,260.06,110Z" fill="#fcee1f"/>
      <path d="M23.41,173.49,6.32,178a141.28,141.28,0,0,0,36.26,62.81l12.5-12.54A122.27,122.27,0,0,1,23.41,173.49Z" fill="#2d368f"/>
      <path d="M110,23.41,105.41,6.32A141.32,141.32,0,0,0,42.62,42.57l12.54,12.5A122.33,122.33,0,0,1,110,23.41Z" fill="#eb1a5b"/>
      <path d="M240.89,240.85h0v0Z" fill="#009b90"/>
      <path d="M173.5,260.06l4.55,17.09a141.42,141.42,0,0,0,62.8-36.25L228.3,228.39A122.34,122.34,0,0,1,173.5,260.06Z" fill="#009b90"/>
      <path d="M178,277.17h0Z" fill="#009b90"/>
      <path d="M228.3,55.07l12.54-12.5A141.28,141.28,0,0,0,178,6.32L173.5,23.41A122.38,122.38,0,0,1,228.3,55.07Z" fill="#f69320"/>
      <path d="M178,6.3Z" fill="#f69320"/>
      <path d="M240.88,42.61l0,0,0,0Z" fill="#f69320"/>
      <path d="M228.39,55.16l12.49-12.54,0,0v0L228.3,55.07Z" fill="#f69320"/>
      <path d="M55.17,228.4,42.63,240.9l-.05-.05h0a141.31,141.31,0,0,0,62.84,36.3L110,260.06A122.33,122.33,0,0,1,55.17,228.4Z" fill="#0c72ba"/>
      <path d="M55.17,228.4l-.09-.09-12.5,12.54.05.05Z" fill="#0c72ba"/>
      <path d="M23.41,110a122.33,122.33,0,0,1,31.66-54.8L42.57,42.62l0,0h0A141.37,141.37,0,0,0,6.3,105.47h0s0,0,0-.06Z" fill="#e90e8b"/>
      <path d="M55.07,55.16l.09-.09L42.62,42.57l0,0Z" fill="#e90e8b"/>
      <path d="M240.85,240.9l0,0,0,0Z" fill="#03a550"/>
      <path d="M228.39,228.31l12.5,12.54a141.21,141.21,0,0,0,36.26-62.79l-17.1-4.55A122.38,122.38,0,0,1,228.39,228.31Z" fill="#03a550"/>
      <path d="M228.3,228.39l12.55,12.51,0,0v0l-12.5-12.54Z" fill="#03a550"/>
      <path d="M277.15,105.43h0v0Z" fill="#8cc540"/>
      <path d="M281.89,141.74a140.25,140.25,0,0,0-4.73-36.25l-17.07,4.6a123.05,123.05,0,0,1,0,63.3L277.16,178s0,0,0,.06h0A140.3,140.3,0,0,0,281.89,141.74Z" fill="#8cc540"/>
      <path d="M260.09,110.09l17.07-4.6v-.06L260.06,110Z" fill="#8cc540"/>
      <path d="M260.09,173.39l0,.12,17.1,4.55s0,0,0-.06Z" fill="#8cc540"/>
      <path d="M23.37,173.38a123.19,123.19,0,0,1,0-63.3L6.3,105.47a141.4,141.4,0,0,0,0,72.57h0s0,0,0-.06Z" fill="#90298d"/>
      <path d="M23.37,173.38,6.3,178s0,0,0,.06l17.09-4.55S23.38,173.42,23.37,173.38Z" fill="#90298d"/>
      <path d="M23.41,110,6.32,105.41s0,0,0,.06l17.08,4.61Z" fill="#90298d"/>
      <path d="M178,6.31h0Z" fill="#eb2227"/>
      <path d="M110.08,23.38a123.05,123.05,0,0,1,63.3,0L178,6.3a141.4,141.4,0,0,0-72.57,0h0l.06,0Z" fill="#eb2227"/>
      <path d="M110.08,23.38,105.47,6.3l-.06,0L110,23.41Z" fill="#eb2227"/>
      <path d="M173.5,23.41,178,6.32H178l-4.6,17.08Z" fill="#eb2227"/>
      <path d="M141.73,264.23a122.7,122.7,0,0,1-31.64-4.14l-4.61,17.08-.06,0h0a141.25,141.25,0,0,0,72.57,0l-4.61-17.08A122.72,122.72,0,0,1,141.73,264.23Z" fill="#29abe2"/>
      <path d="M178.05,277.15Z" fill="#29abe2"/>
      <path d="M173.38,260.09,178,277.17h.06l-4.55-17.09Z" fill="#29abe2"/>
      <path d="M110.09,260.09l-.12,0-4.55,17.09.06,0Z" fill="#29abe2"/>
    </g>
  </g>
</svg>
