<svg height="252pt" viewBox="0 0 539 252" width="539pt" xmlns="http://www.w3.org/2000/svg"><g fill="#fff"><path d="m0 0h539v252h-539zm88.72 29.66c-7.68 12.93-10.29 28.46-9.29 43.34-19.14 0-38.29 0-57.43 0v3h57.53c.52 4.02 1.33 7.99 2.06 11.97-4.76 4.24-9.63 8.37-14 13.02-15.2.02-30.39.01-45.59.01v4c13.92 0 27.83-.01 41.75 0-6.49 7.21-12.38 15.09-16.33 23.99-8.47.02-16.95.01-25.42.01v4h23.75c-2.41 7.72-3.52 16.15-1.04 24-7.57-.01-15.14 0-22.71 0v4c8.09-.01 16.18.02 24.27-.02 6.42 12.39 18.67 21.17 32.25 24-18.84.05-37.68 0-56.52.02v4h80.78c1.08 6.01 2.76 11.93 3.4 18.01.47 9.2-6.98 16.99-15.31 19.71-6.05 2.23-12.79 1.45-18.58-1.16 5.55-.97 11.77-3.42 14.14-8.96 3.04-7.15-1.49-15.9-8.56-18.51-6.35-2-13.41 1.97-15.83 8-3.72 8.99 1.64 20.11 10.73 23.3 13.41 4.91 31.32-1.9 35.53-16.21 2.2-8.09-1.29-16.21-2.52-24.18 65-.02 130 .03 195-.02-4.94 1.97-10.37 4.81-12.26 10.15-1.67 4.97 1.24 10.02 5.19 12.92-1.46-.03-2.91-.06-4.36-.08-5.38-8.25-16.03-11.06-25.36-11.09-9.21.28-19.99 2.63-25.11 11.1-4.96.04-9.92.01-14.88.02v6c4.69 0 9.39-.01 14.09.01 1.69 6.54 8.09 10.3 14.26 11.78 8.94 2.14 18.57 1.8 27.26-1.23 4.94-1.65 9.37-5.33 10.62-10.56h14.72l.1-1.59c9.33 1.41 19.39.97 27.94-3.38 4.94-2.44 8.54-8.23 6.78-13.77-2.01-5.41-7.55-8.26-12.58-10.29 65.6.07 131.21.01 196.81.03 0-38.67 0-77.33 0-116-137.7 0-275.4 0-413.11 0 1.41-6.2 2.08-12.63 1.27-18.96-1.52-12.63-7.58-24.18-14.87-34.41-3.32 2.92-6.31 6.22-8.57 10.03z"/><path d="m90.98 41.98c2.04-3.56 5.72-7.31 10.24-6.02 4.01 3.84 6.09 9.54 5.62 15.06-.55 8.28-5.07 15.6-10.03 21.99-4.56-.02-9.13 0-13.69-.02.53-10.67 2.3-21.71 7.86-31.01z"/><path d="m83.05 76.01c3.75-.02 7.49-.01 11.24-.01-3.24 3.56-6.67 6.95-10.24 10.17-.58-3.36-.92-6.75-1-10.16z"/><path d="m109.95 76c131.35-.01 262.7 0 394.05 0v25c-136.86 0-273.72 0-410.57 0 7.13-7.09 13.27-15.39 16.52-25z"/><path d="m509 76h10v25c-3.34 0-6.67 0-10 0 0-8.33 0-16.67 0-25z"/><path d="m88.35 105h415.65v24c-136.98 0-273.96 0-410.95 0-1.5-8.01-3.67-15.91-4.7-24z"/><path d="m509 105h10v24c-3.34 0-6.67 0-10 0 0-8 0-16 0-24z"/><path d="m63.08 128.99c6.33-8.33 14.31-15.21 22.55-21.57 1.51 7.19 3.02 14.38 4.52 21.58-9.02 0-18.04.01-27.07-.01z"/><path d="m60.26 132.99c7.27.01 14.54.02 21.81 0-8.37 4.73-14.64 14.11-13.03 24.01-5.06 0-10.11 0-15.17 0-1.11-8.48 1.83-16.95 6.39-24.01z"/><path d="m111.93 132.99c130.69.02 261.38 0 392.07.01v24c-126.48 0-252.96 0-379.44 0 .43-9.57-4.53-18.93-12.63-24.01z"/><path d="m509 133h10v24c-3.34 0-6.67 0-10 0 0-8 0-16 0-24z"/><path d="m95.72 141.36c3.68-.25 7.55.1 10.68 2.23 4.73 2.87 7.39 8.09 8.41 13.38-5.26.06-10.52.02-15.79.03-1.1-5.21-2.23-10.42-3.3-15.64z"/><path d="m76.3 156.97c.22-8.74 8.73-14.09 16.6-15.11 1.08 5.04 2.11 10.09 3.17 15.14-6.59-.02-13.18.03-19.77-.03z"/><path d="m54.73 161.01c5.23-.02 10.45-.01 15.67 0 3.02 5.69 9.02 8.95 15.19 10.09-3.63-2.6-6.99-5.77-8.56-10.06 6.62-.08 13.25-.02 19.87-.04 1.37 6.55 2.75 13.09 4.09 19.65-17.16 8.03-40.57-1.18-46.26-19.64z"/><path d="m99.87 161c4.98.01 9.95-.02 14.93.02-.46 7.47-5.38 13.62-11.11 17.98-1.27-6-2.55-12-3.82-18z"/><path d="m123.87 161h380.13v24c-133.07 0-266.14-.01-399.21.01-.05-.6-.16-1.79-.21-2.39 8.7-4.59 16.65-11.83 19.29-21.62z"/><path d="m509 161h10v24c-3.34 0-6.67 0-10 0 0-8 0-16 0-24z"/><path d="m98.3 184.15c1.03-.73 2.67-.72 3.82-.24.44 1.87-3.41 1.7-3.82.24z"/><path d="m304.49 190.65c3.79-1.73 8.26-1.54 12.22-.47 5.17 1.53 8.06 6.61 9.97 11.29 1.22 3.11 2.38 7.13-.18 9.9-3.46 3.48-8.86 3.47-13.41 3.1-6.42-1.44-11.25-7.38-12.56-13.67-.75-3.7.1-8.52 3.96-10.15z"/><path d="m253.31 205.3c3.97-2.46 9.06-2.28 13.42-1.11 3.9 1.07 6.45 4.45 8.37 7.78-8.31.05-16.63.04-24.95.01.4-2.46.95-5.18 3.16-6.68z"/><path d="m251.36 218.03c8.76-.06 17.53-.03 26.29-.02.35 2.32.83 4.93-.79 6.92-3.08 3.73-8.41 3.82-12.84 3.66-5.88-.63-10.18-5.54-12.66-10.56z"/></g><path d="m88.72 29.66c2.26-3.81 5.25-7.11 8.57-10.03 7.29 10.23 13.35 21.78 14.87 34.41.81 6.33.14 12.76-1.27 18.96h413.11v116c-65.6-.02-131.21.04-196.81-.03 5.03 2.03 10.57 4.88 12.58 10.29 1.76 5.54-1.84 11.33-6.78 13.77-8.55 4.35-18.61 4.79-27.94 3.38l-.1 1.59c-4.9 0-9.81 0-14.72 0-1.25 5.23-5.68 8.91-10.62 10.56-8.69 3.03-18.32 3.37-27.26 1.23-6.17-1.48-12.57-5.24-14.26-11.78-4.7-.02-9.4-.01-14.09-.01 0-2 0-4 0-6 4.96-.01 9.92.02 14.88-.02 5.12-8.47 15.9-10.82 25.11-11.1 9.33.03 19.98 2.84 25.36 11.09 1.45.02 2.9.05 4.36.08-3.95-2.9-6.86-7.95-5.19-12.92 1.89-5.34 7.32-8.18 12.26-10.15-65 .05-130 0-195 .02 1.23 7.97 4.72 16.09 2.52 24.18-4.21 14.31-22.12 21.12-35.53 16.21-9.09-3.19-14.45-14.31-10.73-23.3 2.42-6.03 9.48-10 15.83-8 7.07 2.61 11.6 11.36 8.56 18.51-2.37 5.54-8.59 7.99-14.14 8.96 5.79 2.61 12.53 3.39 18.58 1.16 8.33-2.72 15.78-10.51 15.31-19.71-.64-6.08-2.32-12-3.4-18.01-26.93 0-53.85 0-80.78 0 0-1.34 0-2.67 0-4 18.84-.02 37.68.03 56.52-.02-13.58-2.83-25.83-11.61-32.25-24-8.09.04-16.18.01-24.27.02 0-1.34 0-2.67 0-4 7.57 0 15.14-.01 22.71 0-2.48-7.85-1.37-16.28 1.04-24-7.92 0-15.83 0-23.75 0 0-1.34 0-2.67 0-4 8.47 0 16.95.01 25.42-.01 3.95-8.9 9.84-16.78 16.33-23.99-13.92-.01-27.83 0-41.75 0 0-1.33 0-2.67 0-4 15.2 0 30.39.01 45.59-.01 4.37-4.65 9.24-8.78 14-13.02-.73-3.98-1.54-7.95-2.06-11.97-19.18 0-38.35 0-57.53 0 0-.75 0-2.25 0-3h57.43c-1-14.88 1.61-30.41 9.29-43.34m2.26 12.32c-5.56 9.3-7.33 20.34-7.86 31.01 4.56.02 9.13 0 13.69.02 4.96-6.39 9.48-13.71 10.03-21.99.47-5.52-1.61-11.22-5.62-15.06-4.52-1.29-8.2 2.46-10.24 6.02m-7.93 34.03c.08 3.41.42 6.8 1 10.16 3.57-3.22 7-6.61 10.24-10.17-3.75 0-7.49-.01-11.24.01m26.9-.01c-3.25 9.61-9.39 17.91-16.52 25h410.57c0-8.33 0-16.67 0-25-131.35 0-262.7-.01-394.05 0m399.05 0v25h10c0-8.33 0-16.67 0-25-3.34 0-6.67 0-10 0m-420.65 29c1.03 8.09 3.2 15.99 4.7 24h410.95c0-8 0-16 0-24-138.55 0-277.1 0-415.65 0m420.65 0v24h10c0-8 0-16 0-24-3.34 0-6.67 0-10 0m-445.92 23.99c9.03.02 18.05.01 27.07.01-1.5-7.2-3.01-14.39-4.52-21.58-8.24 6.36-16.22 13.24-22.55 21.57m-2.82 4c-4.56 7.06-7.5 15.53-6.39 24.01h15.17c-1.61-9.9 4.66-19.28 13.03-24.01-7.27.02-14.54.01-21.81 0m51.67 0c8.1 5.08 13.06 14.44 12.63 24.01h379.44c0-8 0-16 0-24-130.69-.01-261.38.01-392.07-.01m397.07.01v24h10c0-8 0-16 0-24-3.34 0-6.67 0-10 0m-413.28 8.36c1.07 5.22 2.2 10.43 3.3 15.64 5.27-.01 10.53.03 15.79-.03-1.02-5.29-3.68-10.51-8.41-13.38-3.13-2.13-7-2.48-10.68-2.23m-19.42 15.61c6.59.06 13.18.01 19.77.03-1.06-5.05-2.09-10.1-3.17-15.14-7.87 1.02-16.38 6.37-16.6 15.11m-21.57 4.04c5.69 18.46 29.1 27.67 46.26 19.64-1.34-6.56-2.72-13.1-4.09-19.65-6.62.02-13.25-.04-19.87.04 1.57 4.29 4.93 7.46 8.56 10.06-6.17-1.14-12.17-4.4-15.19-10.09-5.22-.01-10.44-.02-15.67 0m45.14-.01c1.27 6 2.55 12 3.82 18 5.73-4.36 10.65-10.51 11.11-17.98-4.98-.04-9.95-.01-14.93-.02m24 0c-2.64 9.79-10.59 17.03-19.29 21.62.05.6.16 1.79.21 2.39 133.07-.02 266.14-.01 399.21-.01 0-8 0-16 0-24-126.71 0-253.42 0-380.13 0m385.13 0v24h10c0-8 0-16 0-24-3.34 0-6.67 0-10 0m-410.7 23.15c.41 1.46 4.26 1.63 3.82-.24-1.15-.48-2.79-.49-3.82.24m206.19 6.5c-3.86 1.63-4.71 6.45-3.96 10.15 1.31 6.29 6.14 12.23 12.56 13.67 4.55.37 9.95.38 13.41-3.1 2.56-2.77 1.4-6.79.18-9.9-1.91-4.68-4.8-9.76-9.97-11.29-3.96-1.07-8.43-1.26-12.22.47m-51.18 14.65c-2.21 1.5-2.76 4.22-3.16 6.68 8.32.03 16.64.04 24.95-.01-1.92-3.33-4.47-6.71-8.37-7.78-4.36-1.17-9.45-1.35-13.42 1.11m-1.95 12.73c2.48 5.02 6.78 9.93 12.66 10.56 4.43.16 9.76.07 12.84-3.66 1.62-1.99 1.14-4.6.79-6.92-8.76-.01-17.53-.04-26.29.02z"/></svg>