<svg id="Layer_1" data-name="Layer 1" xmlns="http://www.w3.org/2000/svg" viewBox="0 0 420.94 595.28">
  <g>
    <g id="KzPyu6">
      <g>
        <path d="M74.51,270.17l8.75-7.36C80.15,256,77.58,249,73.91,242.56c-9.46-16.49-13.56-34.57-17.23-52.9a133,133,0,0,0-6.08-20.3c-2.14-5.74-7.46-6.68-12.11-2.42a22.86,22.86,0,0,0-7.73,16.26c-.67,15.64,1.15,30.93,7.58,45.37,8,17.92,11,37.09,14.65,56.13.73,3.85,1.33,7.73,2.29,11.52C58.5,309,58.78,322,60,335c1.87,20.23,4.84,40.35,7.14,60.55,2.63,23.13,9.34,45.14,17,67.05,5.74,16.52,10,33.55,15,50.35.47,1.6.88,3.22,1.38,5,20.57,3.48,41.28-2.44,61.74.55l0,1.6c-10.07.63-20.12,1.49-30.2,1.81s-20.09.06-31.08.06l1.6,6.41,27.15-3,.19,1.41c-4.47.6-9,1.1-13.42,1.84-3.6.6-7.12,1.6-10.72,2.2a5.72,5.72,0,0,1-3.55-.6,30.55,30.55,0,0,1-4-3.34c-4.21-19.33-8.46-38.39-15.56-56.74-12.79-33.1-19.32-67.57-22.86-102.83C56,330.33,53.14,293.06,43.12,256.94a272.7,272.7,0,0,0-9.33-27.49,97.29,97.29,0,0,1-6.53-47.68c.84-7.45,3.76-14,10.3-18.43,7.24-4.89,13.56-3.41,16.63,4.72a180,180,0,0,1,7.29,24.61c3.88,17.53,8.58,34.65,17.16,50.63C86,256.91,92.3,271,99.17,284.89c1,1.92,2.44,3.58,4.16,6.06,2.59-4.77,2.37-9,1.79-13.08-1.41-9.77-2.9-19.56-4.92-29.22-5-24.07-6-48.46-6.4-72.93-.29-15.85-1-31.7-1.13-47.56,0-8.91,3.07-17.06,10-22.85,8.06-6.72,16.74-7.82,23.11-1.08,3.24,3.44,5.24,8.52,6.58,13.2,4.1,14.3,3.41,29.17,4.67,43.83,1.47,17.25,4.07,34.41,6.52,51.56,2.1,14.76,4.66,29.46,7.06,44.19.4,2.45,1.06,4.86,1.59,7.29l1.6,0c.78-4.07,2.26-8.15,2.2-12.21-.19-12.48-1.17-25-1.47-37.44-.34-13.8-1.12-27.67-.19-41.4,1.5-22,1.37-44,.8-66-.22-8.74.4-17.51,1-26.24C157.05,67.58,168,62,181,67c9.9,3.74,15.17,11.15,16.52,21.41,1.16,8.88,2.26,17.77,2.95,26.7,1.54,19.89,3.39,39.79,4,59.72.52,17-.58,34-.86,51-.11,7.09,0,14.19.09,21.28a61.6,61.6,0,0,0,.69,8.36c.51,3.28.83,6.95,4.93,7.91,2.4.56,6.49-3.56,7.27-7.51,1.32-6.58,2.39-13.21,3.42-19.85q6.48-42,12.88-84c1.81-12,3.25-24,5.3-36a104.14,104.14,0,0,1,4.72-17.77c2.08-5.79,7.87-8.74,13.87-8.06,11.61,1.32,19.71,8,22.91,19.24a97,97,0,0,1,3.66,36c-1.74,18.2-2.94,36.46-5.1,54.6-1.87,15.73-4.92,31.31-7.13,47-3,21.24-6.47,42.44-6.09,64,.26,15.1,5.49,28.45,14.45,40.38,2.17,2.89,5.28,5.07,8.11,7.71,8.16-7.77,13.76-16.56,18.94-25.61,3.52-6.15,6.54-12.59,10-18.77,8.81-15.71,19.36-30.18,32.54-42.48A83,83,0,0,1,366.36,260a29.93,29.93,0,0,1,23.8-2.3c10.89,3.39,16,21.57,7.91,29.32-.4.39-.69.89-1.1,1.27-17.37,16.1-26.13,37.24-35,58.53-9.25,22.31-15,45.67-21.84,68.7a73.61,73.61,0,0,1-19.25,32.22q-24.3,24-47.87,48.71c-9.77,10.22-20,20.25-24.57,33.15-6.94,3.72-13.05,1.13-19.15.15-10.58-1.71-21.1-2.6-31.63.22a5.06,5.06,0,0,1-1.62-.14l-.2-1.13c3.34-.67,6.67-1.83,10-1.93,10.63-.3,21.27-.22,31.62,2.91,3.43,1,6.6.89,8.52-3,8.1-16.56,21-29.37,33.54-42.41,14.75-15.34,30-30.23,44.46-45.79a44.61,44.61,0,0,0,9.28-15.68c6.42-18.88,11.71-38.14,18.07-57,6.42-19.06,12.83-38.16,23.72-55.39A149.5,149.5,0,0,1,394,286.79c5.53-5.77,6.13-13.37,2.07-20-2.5-4.09-6.05-7-10.82-7-5.14.05-10.69.17-15.32,2.07a62.28,62.28,0,0,0-22.18,15.78,226.85,226.85,0,0,0-35,51c-4.65,9.08-10.78,17.4-16.17,26.11a30.63,30.63,0,0,1-12.82,11.31c-3.83,1.91-7.59,4-11.47,5.79a15.87,15.87,0,0,1-4.14.7l-.48-1.57c5.65-3,11.3-6.08,17.52-9.41-8.8-6.46-14.21-15-19-25-5.58.92-11.45,1.64-17.19,2.88-59.5,12.9-113.8,37.54-163.47,72.59a33.25,33.25,0,0,1-3.28,2.11,2,2,0,0,1-1.77-.24c26.64-21.12,56-37.53,87.09-51.11s63.45-23.75,97-29c-1-7.63-2.31-14.92-3-22.27-1.32-14.05.74-27.95,2.75-41.79,3.73-25.64,8.09-51.21,11.48-76.9,2.58-19.6,4.68-39.3,4-59.15-.34-9.93-1.21-19.76-6-28.78-3.5-6.63-9.21-10.09-16.43-11.21-6.34-1-10.29,1.16-11.89,7.4-2.07,8.1-3.63,16.34-5,24.6-4.08,24.64-8.12,49.3-11.87,74-2.38,15.67-4.14,31.44-6.35,47.13a58.08,58.08,0,0,1-2.86,12.49c-2.7,7.11-10.27,9.63-15.29,5.38-3-2.55-4.13-6.11-4.11-10q.08-18.75.17-37.51c0-2,0-4,0-6.73l-10.88,1-.13-.8,11.63-2.53c0-3.62-.13-7.49,0-11.34a358.56,358.56,0,0,0-2.71-62.56c-1.81-13.48-2.47-27.12-3.82-40.67-.37-3.69-1.42-7.31-2-11C190.42,72,175.58,66.12,165,71.44c-2.06,1-3.95,4.23-4.24,6.64-1.11,9-2.57,18.23-2,27.24,1.56,24.68.58,49.24-1.09,73.84-.92,13.58-.14,27.13,1,40.73,1.07,12.58,0,25.34-.23,38a45.22,45.22,0,0,1-.88,6.08c-.34,2.19-1.16,4.06-3.75,4.11s-4.77-1.16-5.36-3.92c-.74-3.46-1.21-7-1.8-10.47q-4.89-29.24-9.8-58.46c-2.6-15.3-4.26-30.7-3.85-46.22.29-10.75-1.44-21.19-3.78-31.57a25.94,25.94,0,0,0-3.26-7.67c-4.19-6.85-12.46-8.13-18.8-3.07-8,6.4-11.64,14.85-11.31,25,.25,7.65.72,15.29,1.1,22.93q1.56,31,3.12,62.06c.94,18.31,4.49,36.2,8.27,54.1,1.27,6.05.73,12.65,0,18.89-.65,5.66-4.18,6.72-8.52,2.9a27.27,27.27,0,0,1-5.3-7.11c-3.71-6.64-7.17-13.42-10.72-20.11l-9.45,4.68Z"/>
        <path d="M236.85,495.79c-4.53-2.7-9.29-5.09-13.56-8.16-17.37-12.53-29.17-29.1-32-50.47-2.62-19.93,3-38.49,14.36-55.07C220.17,361,240.19,348,265,342.09a10.19,10.19,0,0,1,2.19.31c-3.2,1.13-5.48,1.92-7.75,2.73-24.56,8.78-43.57,24.18-55.34,47.65-19.85,39.54-5.94,77,28.53,98.82,1.64,1,3.31,2,5,3Z"/>
        <path d="M229.7,276.05c-1,1.79-1.72,4-3.19,5.32-35.56,31.75-73.77,59.47-119,76.07-9,3.32-18.64,5.16-28,7.6-1,.27-2.18,0-4.2,0,1.52-.83,2.22-1.45,3-1.6,25.08-4.77,47.85-15.36,69.69-28.07a432.28,432.28,0,0,0,77.43-57.78c.94-.88,1.92-1.71,2.89-2.57Z"/>
        <path d="M74.4,270.06l-.17,1.9,8-2,.22.89-27.35,9.29,1.43-2.36-2.85-2.28c.44-.27.73-.58.88-.52,5.79,2.41,10.34-.81,15.12-3.2a34.33,34.33,0,0,1,4.87-1.62Z"/>
        <path d="M107.8,220.55h7.62l.29.93c-1.76.26-3.52.5-5.27.77s-3.67.57-5.53.86c.16-3.5,2.32-4.59,5.2-5.2a60.56,60.56,0,0,1,24.83.05C126.31,219,117.41,216.83,107.8,220.55Z"/>
        <path d="M237.42,160c11.45-4.43,31-1.32,34.6,6.53-5.22-5.72-11.12-6.14-16.91-6.46S243.74,160,237.42,160Z"/>
        <path d="M165.33,135.38l30.32,2.05.56,2.41-30.92-3.71Z"/>
        <path d="M163.22,145.09c10.4-2.66,21.16-1,31.92,0Z"/>
        <path d="M160.36,203.36c12.39-5.16,24.94-5.13,37.58-.58-6.17-.72-12.35-2.09-18.51-2C173.06,200.91,166.71,202.45,160.36,203.36Z"/>
        <path d="M100.69,161.52l29.82-2C120.23,163.29,110.39,161.65,100.69,161.52Z"/>
        <path d="M161.69,525.82l-26.32,2.11c8.49-3.4,17.34-3.42,26.2-3.32Z"/>
        <path d="M271,155.67a38.67,38.67,0,0,0-30.47-2.06C248.49,147.93,263.42,148.93,271,155.67Z"/>
        <path d="M255.37,276.61,230.7,269l.36-1.17C239.43,269.89,248,271.41,255.37,276.61Z"/>
        <path d="M107.38,228.53,135,222.47C129.6,226.42,114.44,229.6,107.38,228.53Z"/>
        <path d="M137.61,272.14,116,283.52C119.88,278.29,128.13,273.77,137.61,272.14Z"/>
        <path d="M101.64,158.47l27.56-2.76C124.18,158.52,111.12,160,101.64,158.47Z"/>
        <path d="M167.18,529.25c7.95-4.21,16-2.88,23.78-3.24l.16,1.31Z"/>
        <path d="M230.71,212.4c7.45-3.47,15.28-2.89,23.17-1.69Z"/>
        <path d="M186.13,214.15H159.65c9.24-4.53,18.2.65,26.92-1.56Z"/>
        <path d="M129.6,222.47l-25.93,4.31-.23-1.29,25.66-4.19Z"/>
        <path d="M232.44,199.86c7.27-2.9,10.71-3,18.31,0Z"/>
        <path d="M246.2,201.73l16.91,3.74-.29,1.52-16.88-3.57Z"/>
        <path d="M238.61,214.87c5.78-2.48,11.59-2.18,17.43,0Z"/>
      </g>
    </g>
    <g>
      <rect x="241.8" y="100.88" width="42.63" height="40.35" rx="20.18" fill="#ee342e"/>
      <text transform="translate(256.73 128.32)" font-size="18.95" fill="#fff" font-family="OpenSans-Bold, Open Sans" font-weight="700">0</text>
    </g>
    <g>
      <rect x="233.98" y="159.19" width="42.63" height="40.35" rx="20.18" fill="#f5832b"/>
      <text transform="translate(248.52 186.63)" font-size="18.95" fill="#fff" font-family="OpenSans-Bold, Open Sans" font-weight="700">1</text>
    </g>
    <g>
      <rect x="224.62" y="224.37" width="42.63" height="40.35" rx="20.18" fill="#eee824"/>
      <text transform="translate(239.77 251.81)" font-size="18.95" fill="#fff" font-family="OpenSans-Bold, Open Sans" font-weight="700">2</text>
    </g>
    <g>
      <rect x="158.02" y="221.73" width="42.63" height="40.35" rx="20.18" fill="#87c540"/>
      <text transform="translate(173.33 248.88)" font-size="18.95" fill="#fff" font-family="OpenSans-Bold, Open Sans" font-weight="700">3</text>
    </g>
    <g>
      <rect x="104.01" y="231.63" width="42.63" height="40.35" rx="20.18" fill="#64bc46"/>
      <text transform="translate(118.51 259.08)" font-size="18.95" fill="#fff" font-family="OpenSans-Bold, Open Sans" font-weight="700">4</text>
    </g>
    <g>
      <rect x="55.43" y="273.63" width="42.63" height="40.35" rx="20.18" fill="#68c073"/>
      <text transform="translate(71.17 300.78)" font-size="18.95" fill="#fff" font-family="OpenSans-Bold, Open Sans" font-weight="700">5</text>
    </g>
    <g>
      <rect x="37.79" y="219.94" width="42.63" height="40.35" rx="20.18" fill="#5ec8d8"/>
      <text transform="translate(53.06 247.57)" font-size="18.95" fill="#fff" font-family="OpenSans-Bold, Open Sans" font-weight="700">6</text>
    </g>
    <g>
      <rect x="20.32" y="168.85" width="42.63" height="40.35" rx="20.18" fill="#3976bb"/>
      <text transform="translate(34.81 196.29)" font-size="18.95" fill="#fff" font-family="OpenSans-Bold, Open Sans" font-weight="700">7</text>
    </g>
    <g>
      <rect x="92.61" y="108.13" width="42.63" height="40.35" rx="20.18" fill="#2356a7"/>
      <text transform="translate(107.85 135.57)" font-size="18.95" fill="#fff" font-family="OpenSans-Bold, Open Sans" font-weight="700">8</text>
    </g>
    <g>
      <rect x="154.88" y="75.63" width="42.63" height="40.35" rx="20.18" fill="#5450a2"/>
      <text transform="translate(170.3 103.07)" font-size="18.95" fill="#fff" font-family="OpenSans-Bold, Open Sans" font-weight="700">9</text>
    </g>
    <g>
      <rect x="158.02" y="152.15" width="42.63" height="40.35" rx="20.18" fill="#9f59a3"/>
      <text transform="translate(169.2 179.59)" font-size="18.95" fill="#fff" font-family="OpenSans-Bold, Open Sans" font-weight="700">10</text>
    </g>
    <g>
      <rect x="96.09" y="169.03" width="42.63" height="40.35" rx="20.18" fill="#ee328a"/>
      <text transform="translate(106.27 196.47)" font-size="18.95" fill="#fff" font-family="OpenSans-Bold, Open Sans" font-weight="700">11</text>
    </g>
  </g>
</svg>
