<svg enable-background="new 0 0 420.9 595.3" viewBox="0 0 420.9 595.3" xmlns="http://www.w3.org/2000/svg"><path d="m74.5 270.2 8.8-7.4c-3.1-6.8-5.7-13.8-9.3-20.3-9.5-16.5-13.6-34.6-17.2-52.9-1.5-6.9-3.5-13.7-6.1-20.3-2.1-5.7-7.5-6.7-12.1-2.4-4.7 4.1-7.5 10-7.7 16.3-.7 15.6 1.1 30.9 7.6 45.4 8 17.9 11 37.1 14.7 56.1.7 3.9 1.3 7.7 2.3 11.5 3 12.8 3.3 25.8 4.5 38.8 1.9 20.2 4.8 40.4 7.1 60.5 2.6 23.1 9.3 45.1 17 67 5.7 16.5 10 33.5 15 50.3.5 1.6.9 3.2 1.4 5 20.6 3.5 41.3-2.4 61.7.5v1.6c-10.1.6-20.1 1.5-30.2 1.8s-20 .3-31 .3l1.6 6.4 27.2-3 .2 1.4c-4.5.6-9 1.1-13.4 1.8-3.6.6-7.1 1.6-10.7 2.2-1.2.2-2.5 0-3.6-.6-1.4-1-2.8-2.1-4-3.3-4.2-19.3-8.5-38.4-15.6-56.7-12.8-33.2-19.4-67.6-22.9-102.9-3.8-37-6.7-74.3-16.7-110.4-2.6-9.3-5.7-18.5-9.3-27.5-6.1-15.1-8.4-31.5-6.5-47.7.8-7.4 3.8-14 10.3-18.4 7.2-4.9 13.6-3.4 16.6 4.7 3 8 5.4 16.2 7.3 24.6 3.9 17.5 8.6 34.7 17.2 50.6 7.4 13.6 13.7 27.7 20.5 41.6 1 1.9 2.4 3.6 4.2 6.1 2.6-4.8 2.4-9 1.8-13.1-1.4-9.8-2.9-19.6-4.9-29.2-5-24.1-6-48.5-6.4-72.9-.3-15.9-1-31.7-1.1-47.6 0-8.9 3.1-17.1 10-22.9 8.1-6.7 16.7-7.8 23.1-1.1 3.2 3.4 5.2 8.5 6.6 13.2 4.1 14.3 3.4 29.2 4.7 43.8 1.5 17.2 4.1 34.4 6.5 51.6 2.1 14.8 4.7 29.5 7.1 44.2.4 2.5 1.1 4.9 1.6 7.3h1.6c.8-4.1 2.3-8.1 2.2-12.2-.2-12.5-1.2-25-1.5-37.4-.3-13.8-1.1-27.7-.2-41.4 1.5-22 1.4-44 .8-66-.2-8.7.4-17.5 1-26.2.9-13.4 11.9-19 24.9-14 9.9 3.7 15.2 11.2 16.5 21.4 1.2 8.9 2.3 17.8 2.9 26.7 1.5 19.9 3.4 39.8 4 59.7.5 17-.6 34-.9 51-.1 7.1 0 14.2.1 21.3 0 2.8.3 5.6.7 8.4.5 3.3.8 7 4.9 7.9 2.4.6 6.5-3.6 7.3-7.5 1.3-6.6 2.4-13.2 3.4-19.9 4.3-28 8.6-56 12.9-84 1.8-12 3.2-24 5.3-36 1-6.1 2.6-12 4.7-17.8s7.9-8.7 13.9-8.1c11.6 1.3 19.7 8 22.9 19.2 3.5 11.7 4.7 23.9 3.7 36-1.7 18.2-2.9 36.5-5.1 54.6-1.9 15.7-4.9 31.3-7.1 47-3 21.2-6.5 42.4-6.1 64 .3 15.1 5.5 28.5 14.5 40.4 2.2 2.9 5.3 5.1 8.1 7.7 8.2-7.8 13.8-16.6 18.9-25.6 3.5-6.1 6.5-12.6 10-18.8 8.8-15.7 19.4-30.2 32.5-42.5 5.2-4.8 11-8.9 17.3-12.3 7.3-4 15.9-4.9 23.8-2.3 10.9 3.4 16 21.6 7.9 29.3-.4.4-.7.9-1.1 1.3-17.4 16.1-26.1 37.2-35 58.5-9.2 22.3-15 45.7-21.8 68.7-3.5 12.2-10.2 23.3-19.2 32.2-16.2 16-32.2 32.2-47.9 48.7-9.8 10.2-20 20.2-24.6 33.2-6.9 3.7-13.1 1.1-19.1.2-10.6-1.7-21.1-2.6-31.6.2-.5 0-1.1 0-1.6-.1l-.2-1.1c3.3-.7 6.7-1.8 10-1.9 10.6-.3 21.3-.2 31.6 2.9 3.4 1 6.6.9 8.5-3 8.1-16.6 21-29.4 33.5-42.4 14.8-15.3 30-30.2 44.5-45.8 4.1-4.5 7.3-9.9 9.3-15.7 6.4-18.9 11.7-38.1 18.1-57 6.4-19.1 12.8-38.2 23.7-55.4 5.5-8.5 11.9-16.4 19-23.6 5.5-5.8 6.1-13.4 2.1-20-2.5-4.1-6-7-10.8-7-5.1 0-10.7.2-15.3 2.1-8.5 3.6-16 8.9-22.2 15.8-13.9 15.3-25.7 32.5-35 51-4.6 9.1-10.8 17.4-16.2 26.1-3.1 4.9-7.6 8.8-12.8 11.3-3.8 1.9-7.6 4-11.5 5.8-1.3.4-2.7.7-4.1.7l-.5-1.6c5.6-3 11.3-6.1 17.5-9.4-8.8-6.5-14.2-15-19-25-5.6.9-11.4 1.6-17.2 2.9-59.8 13-114.1 37.6-163.8 72.6-1.1.8-2.1 1.5-3.3 2.1-.6.2-1.3.1-1.8-.2 26.6-21.1 56-37.5 87.1-51.1s63.4-23.8 97-29c-1-7.6-2.3-14.9-3-22.3-1.3-14 .7-28 2.8-41.8 3.7-25.6 8.1-51.2 11.5-76.9 2.6-19.6 4.7-39.3 4-59.1-.3-9.9-1.2-19.8-6-28.8-3.5-6.6-9.2-10.1-16.4-11.2-6.3-1-10.3 1.2-11.9 7.4-2.1 8.1-3.6 16.3-5 24.6-4.1 24.6-8.1 49.3-11.9 74-2.4 15.7-4.1 31.4-6.4 47.1-.5 4.3-1.4 8.4-2.9 12.5-2.7 7.1-10.3 9.6-15.3 5.4-3-2.5-4.1-6.1-4.1-10 .1-12.5.1-25 .2-37.5 0-2 0-4 0-6.7l-10.9 1-.1-.8 11.6-2.5c0-3.6-.1-7.5 0-11.3.9-20.9 0-41.8-2.7-62.6-1.8-13.5-2.5-27.1-3.8-40.7-.4-3.7-1.4-7.3-2-11-1.8-10.6-16.6-16.5-27.2-11.2-2.1 1-3.9 4.2-4.2 6.6-1.1 9-2.6 18.2-2 27.2 1.6 24.7.6 49.2-1.1 73.8-.9 13.6-.1 27.1 1 40.7 1.1 12.6 0 25.3-.2 38-.2 2-.4 4.1-.9 6.1-.3 2.2-1.2 4.1-3.8 4.1s-4.8-1.2-5.4-3.9c-.7-3.5-1.2-7-1.8-10.5-3.3-19.5-6.5-39-9.8-58.5-2.6-15.3-4.3-30.7-3.9-46.2.3-10.8-1.4-21.2-3.8-31.6-.7-2.7-1.8-5.3-3.3-7.7-4.2-6.8-12.5-8.1-18.8-3.1-8 6.4-11.6 14.8-11.3 25 .2 7.6.7 15.3 1.1 22.9 1 20.7 2.1 41.4 3.1 62.1.9 18.3 4.5 36.2 8.3 54.1 1.3 6 .7 12.6 0 18.9-.7 5.7-4.2 6.7-8.5 2.9-2.1-2.1-3.9-4.5-5.3-7.1-3.7-6.6-7.2-13.4-10.7-20.1l-9.4 4.7z"/><path d="m236.9 495.8c-4.5-2.7-9.3-5.1-13.6-8.2-17.4-12.5-29.2-29.1-32-50.5-2.6-19.9 3-38.5 14.4-55.1 14.5-21.1 34.5-34.1 59.3-40 .7 0 1.5.1 2.2.3-3.2 1.1-5.5 1.9-7.8 2.7-24.6 8.8-43.6 24.2-55.3 47.6-19.9 39.5-5.9 77 28.5 98.8 1.6 1 3.3 2 5 3z"/><path d="m229.7 276c-1 1.8-1.7 4-3.2 5.3-35.6 31.8-73.8 59.5-119 76.1-9 3.3-18.6 5.2-28 7.6-1 .3-2.2 0-4.2 0 1.5-.8 2.2-1.5 3-1.6 25.1-4.8 47.8-15.4 69.7-28.1 27.9-16.3 53.9-35.7 77.4-57.8.9-.9 1.9-1.7 2.9-2.6z"/><path d="m74.4 270.1-.2 1.9 8-2 .2.9-27.3 9.3 1.4-2.4-2.8-2.3c.4-.3.7-.6.9-.5 5.8 2.4 10.3-.8 15.1-3.2 1.6-.7 3.2-1.2 4.9-1.6z"/><path d="m107.8 220.6h7.6l.3.9c-1.8.3-3.5.5-5.3.8s-3.7.6-5.5.9c.2-3.5 2.3-4.6 5.2-5.2 8.2-1.7 16.6-1.7 24.8.1-8.6.9-17.5-1.3-27.1 2.5z"/><path d="m237.4 160c11.4-4.4 31-1.3 34.6 6.5-5.2-5.7-11.1-6.1-16.9-6.5s-11.4 0-17.7 0z"/><path d="m165.3 135.4 30.3 2.1.6 2.4-30.9-3.7z"/><path d="m163.2 145.1c10.4-2.7 21.2-1 31.9 0z"/><path d="m160.4 203.4c12.4-5.2 24.9-5.1 37.6-.6-6.2-.7-12.4-2.1-18.5-2-6.4.1-12.8 1.6-19.1 2.6z"/><path d="m100.7 161.5 29.8-2c-10.3 3.8-20.1 2.1-29.8 2z"/><path d="m161.7 525.8-26.3 2.1c8.5-3.4 17.3-3.4 26.2-3.3z"/><path d="m271 155.7c-9.4-4.8-20.5-5.6-30.5-2.1 8-5.7 22.9-4.7 30.5 2.1z"/><path d="m255.4 276.6-24.7-7.6.4-1.2c8.3 2.1 16.9 3.6 24.3 8.8z"/><path d="m107.4 228.5 27.6-6.1c-5.4 4-20.6 7.2-27.6 6.1z"/><path d="m137.6 272.1-21.6 11.4c3.9-5.2 12.1-9.7 21.6-11.4z"/><path d="m101.6 158.5 27.6-2.8c-5 2.8-18.1 4.3-27.6 2.8z"/><path d="m167.2 529.2c7.9-4.2 16-2.9 23.8-3.2l.2 1.3z"/><path d="m230.7 212.4c7.4-3.5 15.3-2.9 23.2-1.7z"/><path d="m186.1 214.1h-26.5c9.2-4.5 18.2.6 26.9-1.6z"/><path d="m129.6 222.5-25.9 4.3-.2-1.3 25.7-4.2z"/><path d="m232.4 199.9c7.3-2.9 10.7-3 18.3 0z"/><path d="m246.2 201.7 16.9 3.7-.3 1.5-16.9-3.6z"/><path d="m238.6 214.9c5.8-2.5 11.6-2.2 17.4 0z"/><circle cx="180.8" cy="241.8" fill="#87bd46" r="18.7"/><path d="m177.4 241.6c0 2.5 1.1 4.6 3.7 4.6 1.9 0 2.9-1.3 3.1-3h2.9c-.6 7.1-10.1 7.3-12.2 1.3-1.1-3-.4-7.7 3.4-9.4 2.4-1 6.3-.8 8 2.2.4.6.6 1.4.6 2.1h-2.9c-.4-3.3-6.6-3.9-6.6 2.2z" fill="#fff"/><circle cx="126.8" cy="251.8" fill="#62b94f" r="18.7"/><path d="m118.6 251.6c0 5 4.4 5.3 5.8 3.7.5-.6.9-1.4.9-2.2h2.9c-.7 8-12.7 7.3-12.7-1.5 0-9.1 11.8-9.3 12.6-2.3h-2.9c-.4-3.2-6.6-3.8-6.6 2.3z" fill="#fff"/><path d="m132.4 258.4v-3.1l-1.9.4v-1.8l1.9-.4v-3l-1.9.4v-1.8l1.9-.4v-3l.8-.1v3l2.1-.5v-3.3l.8-.1v3.3l1.9-.4v1.8l-1.9.4v3l1.9-.4v1.8l-1.9.4v2.8l-.8.2v-2.8l-2.1.5v3.2zm.8-5.1 2.1-.5v-3l-2.1.5z" fill="#fff"/><circle cx="75.3" cy="297.6" fill="#69b86f" r="18.7"/><path d="m81.7 294.6c1.1 3 .7 9.8-5.7 9.8h-5.9v-13.6c5.3 0 9.9-.8 11.6 3.8zm-2.8 5.2c.4-1.2.4-2.5.1-3.8-.7-3-3.3-2.6-5.9-2.6v8.6c2.8 0 4.9.4 5.8-2.2z" fill="#fff"/><ellipse cx="56.7" cy="238.5" fill="#5dbed2" rx="18.7" ry="18.7" transform="matrix(.04531439 -.999 .999 .04531439 -184.1929 284.3425)"/><path d="m57.4 233.2c3 3 2.7 11.9-4.4 11.9h-5.9v-13.6c5.6 0 8.2-.4 10.3 1.7zm-2.3 8.5c1.5-1.5 1.3-5 .2-6.4s-3.2-1.2-5.2-1.2v8.6c2.5-.1 3.9.2 5-1z" fill="#fff"/><path d="m63.3 245.1v-3.1l-1.9.4v-1.8l1.9-.4v-3l-1.9.4v-1.8l1.9-.4v-3l.8-.1v2.9l2.1-.5v-3.3l.8-.1v3.3l1.9-.4v1.8l-1.9.4v2.9l1.9-.4v1.8l-1.9.4v2.9l-.8.1v-2.8l-2.1.5v3.1zm.8-5.1 2.1-.5v-3l-2.1.5z" fill="#fff"/><circle cx="41.5" cy="188.3" fill="#2d75af" r="18.7"/><path d="m46.2 181.2v2.5h-7.2v2.9h6.6v2.3h-6.6v3.4h7.3v2.5h-10.3v-13.6z" fill="#fff"/><circle cx="112.6" cy="131.2" fill="#2e559b" r="18.7"/><path d="m117.4 124.1v2.5h-6.6v3.2h5.7v2.3h-5.7v5.6h-3v-13.6z" fill="#fff"/><circle cx="178.3" cy="98.7" fill="#504f9a" r="18.7"/><path d="m178.4 91.6v2.5h-6.6v3.2h5.7v2.3h-5.7v5.6h-3v-13.6z" fill="#fff"/><path d="m182.2 105.3v-3.1l-1.9.4v-1.8l1.9-.4v-3l-1.9.4v-1.8l1.9-.4v-3l.8-.1v3l2.1-.5v-3.3l.8-.1v3.3l1.9-.4v1.8l-1.9.4v3l1.9-.4v1.8l-1.9.4v2.8l-.8.2v-2.8l-2.1.3v3.1zm.8-5.1 2.1-.5v-3l-2.1.5z" fill="#fff"/><circle cx="179.2" cy="172.9" fill="#9f569a" r="18.7"/><path d="m172.2 172.6c0-9.2 11.8-9.1 12.4-2.4h-2.9c-.1-.7-.5-1.3-1-1.7-1.6-1.1-3.7-.6-4.8.9-.3.4-.5.9-.5 1.4-.6 2.5.1 6.3 3.5 6.3.8.1 1.7-.2 2.3-.8s.9-1.4.9-2.2h-3v-2.1h5.7v7.4h-1.8l-.3-1.5c-3 3.7-10.5 1.6-10.5-5.3z" fill="#fff"/><circle cx="257.4" cy="121.7" fill="#e63a30" r="18.7"/><path d="m258.7 114.9 5.1 13.6h-3.1l-1-3h-5.1l-1.1 3h-3l5.1-13.6zm.2 8.4-1.7-5-1.8 5z" fill="#fff"/><circle cx="251.7" cy="179.6" fill="#eb8238" r="18.7"/><path d="m248.1 172.9 5.1 13.6h-3.1l-1-3h-5.1l-1.1 3h-3l5.1-13.6zm.1 8.3-1.7-5-1.8 5z" fill="#fff"/><path d="m256.4 186.5v-3.1l-1.9.4v-1.8l1.9-.4v-3l-1.9.4v-1.8l1.9-.4v-3l.8-.1v3l2.1-.5v-3.3l.8-.1v3.3l1.9-.4v1.8l-1.9.4v3l1.9-.4v1.8l-1.9.4v2.8l-.8.1v-2.8l-2.1.5v3.1zm.8-5.1 2.1-.5v-3l-2.1.5z" fill="#fff"/><circle cx="243" cy="241.8" fill="#ecdf32" r="18.7"/><path d="m247.9 238.3c.1 1.2-.7 2.4-1.8 2.8 3.8 1.1 3.6 7.4-2.3 7.4h-6.6v-13.5c6.2 0 10.7-.9 10.7 3.3zm-3.4 1.8c.5-.5.7-1.3.4-2-.6-1-1.8-.8-4.7-.8v3.2c3.1 0 3.6.1 4.3-.4zm.9 5.2c.5-.9.2-2.1-.8-2.6-.4-.2-.8-.3-1.2-.2h-3.3v3.7c3.2 0 4.7.3 5.3-.9z" fill="#fff"/><circle cx="116.5" cy="191.5" fill="#e62a89" r="18.7"/><g fill="#fff"><path d="m113.8 197.9c-1.5.6-3.3.5-4.8-.1-5.3-2.3-5.1-10.9 0-13.1 3.4-1.5 8.1 0 8.5 4.2h-2.9c-.2-1.4-1.5-2.4-2.9-2.3-1.7 0-3.2 1.2-3.5 2.9-.5 2-.2 4.8 1.8 5.9 1.2.6 4.6.9 5-2.6h-3v-2.2h5.7v7.3h-1.7l-.3-1.5c-.5.7-1.2 1.2-1.9 1.5z"/><path d="m122.3 198v-3.1l-1.9.4v-1.8l1.9-.4v-3l-1.9.4v-1.8l1.9-.4v-3l.8-.1v3l2.1-.5v-3.3l.8-.1v3.3l1.9-.4v1.9l-1.9.4v2.9l1.9-.4v1.8l-1.9.4v2.8l-.8.1v-2.8l-2.1.5v3.1zm.8-5.1 2.1-.5v-3l-2.1.5z"/></g></svg>