<?xml version="1.0" standalone="no"?>
<svg class="rounded-xl w-full max-h-3xl -z3" id="tuner" version="1.1" baseProfile="full" viewBox="0 0 400 300" xmlns="http://www.w3.org/2000/svg" data-v-89090d92=""><rect width="100%" height="100%" fill="hsla(-209.99914264851526,100%,40%,1)" data-v-89090d92="" style="transition: all 300ms ease 0s;"/><line stroke="white" stroke-linecap="round" stroke-width="2" x1="0" y1="300" x2="0" y2="291.2" data-v-89090d92=""/><line stroke="white" stroke-linecap="round" stroke-width="2" x1="4" y1="300" x2="4" y2="266.4" data-v-89090d92=""/><line stroke="white" stroke-linecap="round" stroke-width="2" x1="8" y1="300" x2="8" y2="247.2" data-v-89090d92=""/><line stroke="white" stroke-linecap="round" stroke-width="2" x1="12" y1="300" x2="12" y2="254.4" data-v-89090d92=""/><line stroke="white" stroke-linecap="round" stroke-width="2" x1="16" y1="300" x2="16" y2="281.6" data-v-89090d92=""/><line stroke="white" stroke-linecap="round" stroke-width="2" x1="20" y1="300" x2="20" y2="194.39999999999998" data-v-89090d92=""/><line stroke="white" stroke-linecap="round" stroke-width="2" x1="24" y1="300" x2="24" y2="156" data-v-89090d92=""/><line stroke="white" stroke-linecap="round" stroke-width="2" x1="28" y1="300" x2="28" y2="148" data-v-89090d92=""/><line stroke="white" stroke-linecap="round" stroke-width="2" x1="32" y1="300" x2="32" y2="166.4" data-v-89090d92=""/><line stroke="white" stroke-linecap="round" stroke-width="2" x1="36" y1="300" x2="36" y2="217.6" data-v-89090d92=""/><line stroke="white" stroke-linecap="round" stroke-width="2" x1="40" y1="300" x2="40" y2="232" data-v-89090d92=""/><line stroke="white" stroke-linecap="round" stroke-width="2" x1="44" y1="300" x2="44" y2="208.8" data-v-89090d92=""/><line stroke="white" stroke-linecap="round" stroke-width="2" x1="48" y1="300" x2="48" y2="189.6" data-v-89090d92=""/><line stroke="white" stroke-linecap="round" stroke-width="2" x1="52" y1="300" x2="52" y2="160.79999999999998" data-v-89090d92=""/><line stroke="white" stroke-linecap="round" stroke-width="2" x1="56" y1="300" x2="56" y2="157.6" data-v-89090d92=""/><line stroke="white" stroke-linecap="round" stroke-width="2" x1="60" y1="300" x2="60" y2="181.6" data-v-89090d92=""/><line stroke="white" stroke-linecap="round" stroke-width="2" x1="64" y1="300" x2="64" y2="246.4" data-v-89090d92=""/><line stroke="white" stroke-linecap="round" stroke-width="2" x1="68" y1="300" x2="68" y2="275.2" data-v-89090d92=""/><line stroke="white" stroke-linecap="round" stroke-width="2" x1="72" y1="300" x2="72" y2="267.2" data-v-89090d92=""/><line stroke="white" stroke-linecap="round" stroke-width="2" x1="76" y1="300" x2="76" y2="216.8" data-v-89090d92=""/><line stroke="white" stroke-linecap="round" stroke-width="2" x1="80" y1="300" x2="80" y2="191.2" data-v-89090d92=""/><line stroke="white" stroke-linecap="round" stroke-width="2" x1="84" y1="300" x2="84" y2="192.8" data-v-89090d92=""/><line stroke="white" stroke-linecap="round" stroke-width="2" x1="88" y1="300" x2="88" y2="222.39999999999998" data-v-89090d92=""/><line stroke="white" stroke-linecap="round" stroke-width="2" x1="92" y1="300" x2="92" y2="292" data-v-89090d92=""/><line stroke="white" stroke-linecap="round" stroke-width="2" x1="96" y1="300" x2="96" y2="300" data-v-89090d92=""/><line stroke="white" stroke-linecap="round" stroke-width="2" x1="100" y1="300" x2="100" y2="271.2" data-v-89090d92=""/><line stroke="white" stroke-linecap="round" stroke-width="2" x1="104" y1="300" x2="104" y2="214.39999999999998" data-v-89090d92=""/><line stroke="white" stroke-linecap="round" stroke-width="2" x1="108" y1="300" x2="108" y2="194.39999999999998" data-v-89090d92=""/><line stroke="white" stroke-linecap="round" stroke-width="2" x1="112" y1="300" x2="112" y2="200.8" data-v-89090d92=""/><line stroke="white" stroke-linecap="round" stroke-width="2" x1="116" y1="300" x2="116" y2="236" data-v-89090d92=""/><line stroke="white" stroke-linecap="round" stroke-width="2" x1="120" y1="300" x2="120" y2="300" data-v-89090d92=""/><line stroke="white" stroke-linecap="round" stroke-width="2" x1="124" y1="300" x2="124" y2="286.4" data-v-89090d92=""/><line stroke="white" stroke-linecap="round" stroke-width="2" x1="128" y1="300" x2="128" y2="271.2" data-v-89090d92=""/><line stroke="white" stroke-linecap="round" stroke-width="2" x1="132" y1="300" x2="132" y2="236" data-v-89090d92=""/><line stroke="white" stroke-linecap="round" stroke-width="2" x1="136" y1="300" x2="136" y2="220.8" data-v-89090d92=""/><line stroke="white" stroke-linecap="round" stroke-width="2" x1="140" y1="300" x2="140" y2="231.2" data-v-89090d92=""/><line stroke="white" stroke-linecap="round" stroke-width="2" x1="144" y1="300" x2="144" y2="273.6" data-v-89090d92=""/><line stroke="white" stroke-linecap="round" stroke-width="2" x1="148" y1="300" x2="148" y2="300" data-v-89090d92=""/><line stroke="white" stroke-linecap="round" stroke-width="2" x1="152" y1="300" x2="152" y2="300" data-v-89090d92=""/><line stroke="white" stroke-linecap="round" stroke-width="2" x1="156" y1="300" x2="156" y2="268" data-v-89090d92=""/><line stroke="white" stroke-linecap="round" stroke-width="2" x1="160" y1="300" x2="160" y2="226.39999999999998" data-v-89090d92=""/><line stroke="white" stroke-linecap="round" stroke-width="2" x1="164" y1="300" x2="164" y2="216" data-v-89090d92=""/><line stroke="white" stroke-linecap="round" stroke-width="2" x1="168" y1="300" x2="168" y2="232" data-v-89090d92=""/><line stroke="white" stroke-linecap="round" stroke-width="2" x1="172" y1="300" x2="172" y2="282.4" data-v-89090d92=""/><line stroke="white" stroke-linecap="round" stroke-width="2" x1="176" y1="300" x2="176" y2="300" data-v-89090d92=""/><line stroke="white" stroke-linecap="round" stroke-width="2" x1="180" y1="300" x2="180" y2="300" data-v-89090d92=""/><line stroke="white" stroke-linecap="round" stroke-width="2" x1="184" y1="300" x2="184" y2="282.4" data-v-89090d92=""/><line stroke="white" stroke-linecap="round" stroke-width="2" x1="188" y1="300" x2="188" y2="247.2" data-v-89090d92=""/><line stroke="white" stroke-linecap="round" stroke-width="2" x1="192" y1="300" x2="192" y2="241.6" data-v-89090d92=""/><line stroke="white" stroke-linecap="round" stroke-width="2" x1="196" y1="300" x2="196" y2="262.4" data-v-89090d92=""/><line stroke="white" stroke-linecap="round" stroke-width="2" x1="200" y1="300" x2="200" y2="300" data-v-89090d92=""/><line stroke="white" stroke-linecap="round" stroke-width="2" x1="204" y1="300" x2="204" y2="300" data-v-89090d92=""/><line stroke="white" stroke-linecap="round" stroke-width="2" x1="208" y1="300" x2="208" y2="300" data-v-89090d92=""/><line stroke="white" stroke-linecap="round" stroke-width="2" x1="212" y1="300" x2="212" y2="266.4" data-v-89090d92=""/><line stroke="white" stroke-linecap="round" stroke-width="2" x1="216" y1="300" x2="216" y2="237.6" data-v-89090d92=""/><line stroke="white" stroke-linecap="round" stroke-width="2" x1="220" y1="300" x2="220" y2="236.8" data-v-89090d92=""/><line stroke="white" stroke-linecap="round" stroke-width="2" x1="224" y1="300" x2="224" y2="263.2" data-v-89090d92=""/><line stroke="white" stroke-linecap="round" stroke-width="2" x1="228" y1="300" x2="228" y2="300" data-v-89090d92=""/><line stroke="white" stroke-linecap="round" stroke-width="2" x1="232" y1="300" x2="232" y2="300" data-v-89090d92=""/><line stroke="white" stroke-linecap="round" stroke-width="2" x1="236" y1="300" x2="236" y2="300" data-v-89090d92=""/><line stroke="white" stroke-linecap="round" stroke-width="2" x1="240" y1="300" x2="240" y2="279.2" data-v-89090d92=""/><line stroke="white" stroke-linecap="round" stroke-width="2" x1="244" y1="300" x2="244" y2="256" data-v-89090d92=""/><line stroke="white" stroke-linecap="round" stroke-width="2" x1="248" y1="300" x2="248" y2="260" data-v-89090d92=""/><line stroke="white" stroke-linecap="round" stroke-width="2" x1="252" y1="300" x2="252" y2="292" data-v-89090d92=""/><line stroke="white" stroke-linecap="round" stroke-width="2" x1="256" y1="300" x2="256" y2="300" data-v-89090d92=""/><line stroke="white" stroke-linecap="round" stroke-width="2" x1="260" y1="300" x2="260" y2="300" data-v-89090d92=""/><line stroke="white" stroke-linecap="round" stroke-width="2" x1="264" y1="300" x2="264" y2="300" data-v-89090d92=""/><line stroke="white" stroke-linecap="round" stroke-width="2" x1="268" y1="300" x2="268" y2="268.8" data-v-89090d92=""/><line stroke="white" stroke-linecap="round" stroke-width="2" x1="272" y1="300" x2="272" y2="250.4" data-v-89090d92=""/><line stroke="white" stroke-linecap="round" stroke-width="2" x1="276" y1="300" x2="276" y2="259.2" data-v-89090d92=""/><line stroke="white" stroke-linecap="round" stroke-width="2" x1="280" y1="300" x2="280" y2="298.4" data-v-89090d92=""/><line stroke="white" stroke-linecap="round" stroke-width="2" x1="284" y1="300" x2="284" y2="300" data-v-89090d92=""/><line stroke="white" stroke-linecap="round" stroke-width="2" x1="288" y1="300" x2="288" y2="300" data-v-89090d92=""/><line stroke="white" stroke-linecap="round" stroke-width="2" x1="292" y1="300" x2="292" y2="300" data-v-89090d92=""/><line stroke="white" stroke-linecap="round" stroke-width="2" x1="296" y1="300" x2="296" y2="284" data-v-89090d92=""/><line stroke="white" stroke-linecap="round" stroke-width="2" x1="300" y1="300" x2="300" y2="271.2" data-v-89090d92=""/><line stroke="white" stroke-linecap="round" stroke-width="2" x1="304" y1="300" x2="304" y2="284.8" data-v-89090d92=""/><line stroke="white" stroke-linecap="round" stroke-width="2" x1="308" y1="300" x2="308" y2="300" data-v-89090d92=""/><line stroke="white" stroke-linecap="round" stroke-width="2" x1="312" y1="300" x2="312" y2="300" data-v-89090d92=""/><line stroke="white" stroke-linecap="round" stroke-width="2" x1="316" y1="300" x2="316" y2="300" data-v-89090d92=""/><line stroke="white" stroke-linecap="round" stroke-width="2" x1="320" y1="300" x2="320" y2="300" data-v-89090d92=""/><line stroke="white" stroke-linecap="round" stroke-width="2" x1="324" y1="300" x2="324" y2="272" data-v-89090d92=""/><line stroke="white" stroke-linecap="round" stroke-width="2" x1="328" y1="300" x2="328" y2="264" data-v-89090d92=""/><line stroke="white" stroke-linecap="round" stroke-width="2" x1="332" y1="300" x2="332" y2="281.6" data-v-89090d92=""/><line stroke="white" stroke-linecap="round" stroke-width="2" x1="336" y1="300" x2="336" y2="300" data-v-89090d92=""/><line stroke="white" stroke-linecap="round" stroke-width="2" x1="340" y1="300" x2="340" y2="300" data-v-89090d92=""/><line stroke="white" stroke-linecap="round" stroke-width="2" x1="344" y1="300" x2="344" y2="300" data-v-89090d92=""/><line stroke="white" stroke-linecap="round" stroke-width="2" x1="348" y1="300" x2="348" y2="300" data-v-89090d92=""/><line stroke="white" stroke-linecap="round" stroke-width="2" x1="352" y1="300" x2="352" y2="290.4" data-v-89090d92=""/><line stroke="white" stroke-linecap="round" stroke-width="2" x1="356" y1="300" x2="356" y2="287.2" data-v-89090d92=""/><line stroke="white" stroke-linecap="round" stroke-width="2" x1="360" y1="300" x2="360" y2="300" data-v-89090d92=""/><line stroke="white" stroke-linecap="round" stroke-width="2" x1="364" y1="300" x2="364" y2="300" data-v-89090d92=""/><line stroke="white" stroke-linecap="round" stroke-width="2" x1="368" y1="300" x2="368" y2="300" data-v-89090d92=""/><line stroke="white" stroke-linecap="round" stroke-width="2" x1="372" y1="300" x2="372" y2="300" data-v-89090d92=""/><line stroke="white" stroke-linecap="round" stroke-width="2" x1="376" y1="300" x2="376" y2="300" data-v-89090d92=""/><line stroke="white" stroke-linecap="round" stroke-width="2" x1="380" y1="300" x2="380" y2="278.4" data-v-89090d92=""/><line stroke="white" stroke-linecap="round" stroke-width="2" x1="384" y1="300" x2="384" y2="279.2" data-v-89090d92=""/><line stroke="white" stroke-linecap="round" stroke-width="2" x1="388" y1="300" x2="388" y2="300" data-v-89090d92=""/><line stroke="white" stroke-linecap="round" stroke-width="2" x1="392" y1="300" x2="392" y2="300" data-v-89090d92=""/><line stroke="white" stroke-linecap="round" stroke-width="2" x1="396" y1="300" x2="396" y2="300" data-v-89090d92=""/><g style="transform: translateX(-200px);" data-v-89090d92=""><line stroke="gray" opacity="0.7" stroke-linecap="round" stroke-width="1" x1="200" x2="200" y1="20" y2="80" data-v-89090d92=""/><text style="user-select: none; transition: all 300ms ease 0s;" fill="gray" font-family="Commissioner, sans-serif" font-size="6px" text-anchor="middle" dominant-baseline="middle" x="200" y="10" data-v-89090d92="">-50</text></g><g style="transform: translateX(-160px);" data-v-89090d92=""><line stroke="gray" opacity="0.7" stroke-linecap="round" stroke-width="1" x1="200" x2="200" y1="20" y2="80" data-v-89090d92=""/><text style="user-select: none; transition: all 300ms ease 0s;" fill="gray" font-family="Commissioner, sans-serif" font-size="6px" text-anchor="middle" dominant-baseline="middle" x="200" y="10" data-v-89090d92="">-40</text></g><g style="transform: translateX(-120px);" data-v-89090d92=""><line stroke="gray" opacity="0.7" stroke-linecap="round" stroke-width="1" x1="200" x2="200" y1="20" y2="80" data-v-89090d92=""/><text style="user-select: none; transition: all 300ms ease 0s;" fill="gray" font-family="Commissioner, sans-serif" font-size="6px" text-anchor="middle" dominant-baseline="middle" x="200" y="10" data-v-89090d92="">-30</text></g><g style="transform: translateX(-80px);" data-v-89090d92=""><line stroke="gray" opacity="0.7" stroke-linecap="round" stroke-width="1" x1="200" x2="200" y1="20" y2="80" data-v-89090d92=""/><text style="user-select: none; transition: all 300ms ease 0s;" fill="gray" font-family="Commissioner, sans-serif" font-size="6px" text-anchor="middle" dominant-baseline="middle" x="200" y="10" data-v-89090d92="">-20</text></g><g style="transform: translateX(-40px);" data-v-89090d92=""><line stroke="gray" opacity="0.7" stroke-linecap="round" stroke-width="1" x1="200" x2="200" y1="20" y2="80" data-v-89090d92=""/><text style="user-select: none; transition: all 300ms ease 0s;" fill="gray" font-family="Commissioner, sans-serif" font-size="6px" text-anchor="middle" dominant-baseline="middle" x="200" y="10" data-v-89090d92="">-10</text></g><g style="transform: translateX(0px);" data-v-89090d92=""><line stroke="gray" opacity="0.7" stroke-linecap="round" stroke-width="1" x1="200" x2="200" y1="20" y2="80" data-v-89090d92=""/><text style="user-select: none; transition: all 300ms ease 0s;" fill="gray" font-family="Commissioner, sans-serif" font-size="6px" text-anchor="middle" dominant-baseline="middle" x="200" y="10" data-v-89090d92="">0</text></g><g style="transform: translateX(40px);" data-v-89090d92=""><line stroke="gray" opacity="0.7" stroke-linecap="round" stroke-width="1" x1="200" x2="200" y1="20" y2="80" data-v-89090d92=""/><text style="user-select: none; transition: all 300ms ease 0s;" fill="gray" font-family="Commissioner, sans-serif" font-size="6px" text-anchor="middle" dominant-baseline="middle" x="200" y="10" data-v-89090d92="">10</text></g><g style="transform: translateX(80px);" data-v-89090d92=""><line stroke="gray" opacity="0.7" stroke-linecap="round" stroke-width="1" x1="200" x2="200" y1="20" y2="80" data-v-89090d92=""/><text style="user-select: none; transition: all 300ms ease 0s;" fill="gray" font-family="Commissioner, sans-serif" font-size="6px" text-anchor="middle" dominant-baseline="middle" x="200" y="10" data-v-89090d92="">20</text></g><g style="transform: translateX(120px);" data-v-89090d92=""><line stroke="gray" opacity="0.7" stroke-linecap="round" stroke-width="1" x1="200" x2="200" y1="20" y2="80" data-v-89090d92=""/><text style="user-select: none; transition: all 300ms ease 0s;" fill="gray" font-family="Commissioner, sans-serif" font-size="6px" text-anchor="middle" dominant-baseline="middle" x="200" y="10" data-v-89090d92="">30</text></g><g style="transform: translateX(160px);" data-v-89090d92=""><line stroke="gray" opacity="0.7" stroke-linecap="round" stroke-width="1" x1="200" x2="200" y1="20" y2="80" data-v-89090d92=""/><text style="user-select: none; transition: all 300ms ease 0s;" fill="gray" font-family="Commissioner, sans-serif" font-size="6px" text-anchor="middle" dominant-baseline="middle" x="200" y="10" data-v-89090d92="">40</text></g><g style="transform: translateX(200px);" data-v-89090d92=""><line stroke="gray" opacity="0.7" stroke-linecap="round" stroke-width="1" x1="200" x2="200" y1="20" y2="80" data-v-89090d92=""/><text style="user-select: none; transition: all 300ms ease 0s;" fill="gray" font-family="Commissioner, sans-serif" font-size="6px" text-anchor="middle" dominant-baseline="middle" x="200" y="10" data-v-89090d92="">50</text></g><g class="meter" data-v-89090d92="" style="transform: translateX(0px);"><line stroke="black" stroke-linecap="round" stroke-width="2" x1="200" x2="200" y1="20" y2="80" data-v-89090d92=""/><text style="user-select: none; transition: all 300ms ease 0s;" fill="black" font-family="Commissioner, sans-serif" font-size="12px" text-anchor="middle" dominant-baseline="middle" x="200" y="94" data-v-89090d92="">0</text></g><text style="user-select: none; transition: all 300ms ease 0s;" fill="black" font-family="Commissioner, sans-serif" font-size="3rem" font-weight="bold" text-anchor="middle" dominant-baseline="middle" x="200" y="140" data-v-89090d92="">D3</text><text style="user-select: none; transition: all 300ms ease 0s;" fill="black" font-family="Commissioner, sans-serif" font-size="1rem" font-weight="bold" text-anchor="middle" dominant-baseline="middle" x="200" y="180" data-v-89090d92="">146.83 Hz</text></svg>