<?xml version="1.0" encoding="utf-8"?>
<!-- Generator: Adobe Illustrator 24.3.0, SVG Export Plug-In . SVG Version: 6.00 Build 0)  -->
<svg version="1.1" id="Layer_1" xmlns="http://www.w3.org/2000/svg" xmlns:xlink="http://www.w3.org/1999/xlink" x="0px" y="0px"
	 viewBox="0 0 357 425.6" style="enable-background:new 0 0 357 425.6;" xml:space="preserve">
<style type="text/css">
	.st0{fill:none;stroke:#231F20;stroke-width:1.42;}
	.st1{enable-background:new    ;}
	.st2{fill:#231F20;}
	.st3{fill:none;stroke:#242526;stroke-width:1.5;stroke-linecap:round;stroke-linejoin:round;}
	.st4{fill:none;stroke:#ABB1B8;stroke-width:2.25;stroke-linecap:round;stroke-linejoin:round;}
	.st5{fill:none;stroke:#F2A33B;stroke-width:2.25;stroke-linecap:round;stroke-linejoin:round;}
	.st6{fill:none;stroke:#FBD230;stroke-width:2.25;stroke-linecap:round;stroke-linejoin:round;}
	.st7{fill:none;stroke:#EB5B44;stroke-width:2.25;stroke-linecap:round;stroke-linejoin:round;}
	.st8{fill:none;stroke:#00A850;stroke-width:2.25;stroke-linecap:round;stroke-linejoin:round;}
	.st9{fill:none;stroke:#00AEEA;stroke-width:2.25;stroke-linecap:round;stroke-linejoin:round;}
	.st10{fill:none;stroke:#242526;stroke-width:2.25;stroke-linecap:round;stroke-linejoin:round;}
	.st11{fill:none;stroke:#575E60;stroke-width:2.25;stroke-linecap:round;stroke-linejoin:round;}
	.st12{fill:none;stroke:#ABB1B8;stroke-width:0.75;stroke-linecap:round;stroke-linejoin:round;}
	.st13{fill:none;stroke:#F2A33B;stroke-width:0.75;stroke-linecap:round;stroke-linejoin:round;}
	.st14{fill:none;stroke:#FBD230;stroke-width:0.75;stroke-linecap:round;stroke-linejoin:round;}
	.st15{fill:none;stroke:#EB5B44;stroke-width:0.75;stroke-linecap:round;stroke-linejoin:round;}
	.st16{fill:none;stroke:#00A850;stroke-width:0.75;stroke-linecap:round;stroke-linejoin:round;}
	.st17{fill:none;stroke:#00AEEA;stroke-width:0.75;stroke-linecap:round;stroke-linejoin:round;}
	.st18{fill:none;stroke:#242526;stroke-width:0.75;stroke-linecap:round;stroke-linejoin:round;}
	.st19{fill:#BBC0C6;stroke:#231F20;stroke-width:2.45;}
	.st20{fill:none;stroke:#575E60;stroke-width:1.45;stroke-miterlimit:3;}
	.st21{fill:#E94644;stroke:#231F20;stroke-width:2.45;}
	.st22{fill:#F2A33B;stroke:#231F20;stroke-width:2.45;}
	.st23{fill:#FBD230;stroke:#231F20;stroke-width:2.45;}
	.st24{fill:#00A850;stroke:#231F20;stroke-width:2.45;}
	.st25{fill:#00AEEA;stroke:#231F20;stroke-width:2.45;}
	.st26{fill:#231F20;stroke:#231F20;stroke-width:2.45;}
</style>
<path id="path5012" class="st0" d="M20.6,161.5c48.3-18.1,58.6-17.9,105.6,0c44.2,17.8,59,18.4,105,0s61.7-17.5,105.4,0
	c-44.1,18.1-62,17.7-105.4,0s-58.5-18-105.3,0S69,180,20.6,161.5L20.6,161.5z"/>
<path id="path5012-5" class="st0" d="M99.7,210.8c33.2-18.1,46.6-17.6,79.1,0.2s43.8,18,78.9,0s42.6-18.4,78.9,0
	c-36.2,18.1-43.9,17.9-79.1,0c-33.1-17.8-44.2-18.4-78.6,0S132.4,228.2,99.7,210.8c-32.7-17.5-47.1-17.5-78.6,0
	C53.1,227.5,66.5,228.9,99.7,210.8L99.7,210.8z"/>
<path id="path5012-5-2" class="st0" d="M201.2,358.5c-19.3-17.8-26.4-17.9-44.9,0s-26.4,18.2-45.5,0s-26.2-18-45.1,0
	c-18.6,17.7-26.3,17.7-45.1,0c20.1-17.8,25.1-17.9,45.2,0c18.9,17.8,26.7,17.9,45,0c18.5-18.1,26.5-17.5,45.2,0
	S182.4,376.3,201.2,358.5c18.9-17.8,26.5-17.9,45.1,0s27.2,17.6,45.2,0s27.2-17.8,45.1,0c-18.2,18-26.6,17.9-45.1,0s-27.3-18-45.2,0
	S220.3,376,201.2,358.5L201.2,358.5z"/>
<path id="path5012-5-2-3" class="st0" d="M125.9,309.3c22.5,17.8,30.5,18.2,52.7,0s30.9-18,52.7,0s30.5,18,52.6,0
	c21.7-17.7,30.7-17.7,52.6,0c-23.4,17.8-29.3,17.9-52.7,0c-22.1-17.8-31.1-17.9-52.4,0c-21.5,18.1-31.2,17.8-52.7,0
	C156.9,291.3,148,291.5,125.9,309.3s-30.9,17.9-52.6,0s-31.8-17.6-52.7,0c21.1,17.6,31.1,18,52.7,0
	C94.3,291.3,103.7,291.8,125.9,309.3z"/>
<path id="path5012-5-2-3-1" class="st0" d="M336.5,260c-25.1,18-36.4,17.5-63.1,0c-27-17.8-36.1-18.3-62.9,0s-37.5,18-63.7,0
	s-36.6-18-63.1,0c-26,17.7-36.8,17.7-63.1,0c28.1-17.8,35.2-17.9,63.3,0c26.5,17.8,37.3,17.9,62.9,0c25.9-18.1,37.8-17.8,63.7,0
	c26.1,18,36.4,17.8,62.9,0S310.5,242.1,336.5,260L336.5,260z"/>
<path id="path5012-5-2-3-1-6" class="st0" d="M336.5,112.3c-65.5,18.1-91.6,18.1-158,0c-65-17.7-92.1-17.7-157.9,0
	c70.3,17.8,88,17.9,158.4,0C245.4,94.5,272.4,94.4,336.5,112.3L336.5,112.3z"/>
<path id="path5012-5-2-3-1-6-8" class="st0" d="M336.5,63.2C207,81.1,154.7,82.3,20.6,63.2C154.7,43.8,204.2,45.1,336.5,63.2z"/>
<g id="text4155" class="st1">
	<path class="st2" d="M176.2,102v3.9h-0.4V102h-0.4v-0.4h0.8V102z"/>
	<path class="st2" d="M178.6,101.4h0.4l-1.8,4.5h-0.4L178.6,101.4z"/>
	<path class="st2" d="M180.9,101.6c0.6,0,1.2,0.3,1.2,1.3v0c0,1.3-2,1.4-2.1,2.6h2.1v0.4h-2.6v-0.2c0-1.6,2.2-1.6,2.2-2.8
		c0-0.7-0.4-0.9-0.8-0.9h-0.1c-0.4,0-0.8,0.2-0.9,0.8h-0.4l0-0.1C179.7,101.9,180.3,101.6,180.9,101.6L180.9,101.6z"/>
</g>
<g id="text4166" class="st1">
	<path class="st2" d="M121.9,151.2v3.9h-0.4v-3.9h-0.4v-0.4h0.8V151.2z"/>
	<path class="st2" d="M124.3,150.5h0.4l-1.8,4.5h-0.4L124.3,150.5z"/>
	<path class="st2" d="M126.6,150.7c0.5,0,1.2,0.3,1.2,1.1v0.1c0,0.5-0.3,0.8-0.7,0.9c0.4,0.1,0.7,0.5,0.7,1v0.1
		c0,0.8-0.6,1.2-1.3,1.2h-0.1c-0.5,0-1.2-0.3-1.3-1.2l0,0h0.4c0.1,0.7,0.5,0.9,0.9,0.9h0.1c0.4,0,0.8-0.3,0.8-0.8v0
		c0-0.5-0.4-0.8-0.9-0.8h-0.4v-0.4h0.4c0.4,0,0.9-0.2,0.9-0.8v0c0-0.5-0.5-0.7-0.8-0.7h-0.1c-0.4,0-0.8,0.2-0.9,0.8h-0.4l0,0
		c0.1-0.8,0.8-1.2,1.3-1.2H126.6z"/>
</g>
<g id="text4177" class="st1">
	<path class="st2" d="M229,150.7c0.6,0,1.2,0.3,1.2,1.3v0c0,1.3-2,1.4-2.1,2.6h2.1v0.4h-2.6v-0.2c0-1.6,2.2-1.6,2.2-2.8
		c0-0.7-0.4-0.9-0.8-0.9h-0.1c-0.4,0-0.8,0.2-0.9,0.8h-0.4l0-0.1C227.7,151,228.4,150.7,229,150.7L229,150.7z"/>
	<path class="st2" d="M232.5,150.5h0.4l-1.8,4.5h-0.4L232.5,150.5z"/>
	<path class="st2" d="M234.8,150.7c0.5,0,1.2,0.3,1.2,1.1v0.1c0,0.5-0.3,0.8-0.7,0.9c0.4,0.1,0.7,0.5,0.7,1v0.1
		c0,0.8-0.6,1.2-1.3,1.2h-0.1c-0.5,0-1.2-0.3-1.3-1.2l0,0h0.4c0.1,0.7,0.5,0.9,0.9,0.9h0.1c0.4,0,0.8-0.3,0.8-0.8v0
		c0-0.5-0.4-0.8-0.9-0.8h-0.4v-0.4h0.4c0.4,0,0.9-0.2,0.9-0.8v0c0-0.5-0.5-0.7-0.8-0.7h-0.1c-0.4,0-0.8,0.2-0.9,0.8h-0.4l0,0
		c0.1-0.8,0.8-1.2,1.3-1.2H234.8z"/>
</g>
<g id="text4188" class="st1">
	<path class="st2" d="M96.7,200.3v3.9h-0.4v-3.9h-0.4v-0.4h0.8V200.3z"/>
	<path class="st2" d="M99.1,199.6h0.4l-1.8,4.5h-0.4L99.1,199.6z"/>
	<path class="st2" d="M102.7,203.2h-0.4v1h-0.4v-1H100v-0.5l1.3-2.8h0.4l-1.3,2.9h1.4v-1.9h0.4v1.9h0.4V203.2z"/>
</g>
<g id="text4199" class="st1">
	<path class="st2" d="M255.6,199.8c0.5,0,1.2,0.3,1.2,1.1v0.1c0,0.5-0.3,0.8-0.7,0.9c0.4,0.1,0.7,0.5,0.7,1v0.1
		c0,0.8-0.6,1.2-1.3,1.2h-0.1c-0.5,0-1.2-0.3-1.3-1.2l0,0h0.4c0.1,0.7,0.5,0.9,0.9,0.9h0.1c0.4,0,0.8-0.3,0.8-0.8v0
		c0-0.5-0.4-0.8-0.9-0.8h-0.4v-0.4h0.4c0.4,0,0.9-0.2,0.9-0.8v0c0-0.5-0.5-0.7-0.8-0.7h-0.1c-0.4,0-0.8,0.2-0.9,0.8h-0.4l0,0
		c0.1-0.8,0.8-1.2,1.3-1.2H255.6z"/>
	<path class="st2" d="M259.1,199.6h0.4l-1.8,4.5h-0.4L259.1,199.6z"/>
	<path class="st2" d="M262.8,203.2h-0.4v1h-0.4v-1h-1.9v-0.5l1.3-2.8h0.4l-1.3,2.9h1.4v-1.9h0.4v1.9h0.4V203.2z"/>
</g>
<g id="text4210" class="st1">
	<path class="st2" d="M80.7,249.4v3.9h-0.4v-3.9h-0.4V249h0.8V249.4z"/>
	<path class="st2" d="M83.1,248.7h0.4l-1.8,4.5h-0.4L83.1,248.7z"/>
	<path class="st2" d="M86.4,249v0.4h-1.7v1.3h0.5c0.1,0,0.4,0,0.7,0c0.6,0.1,0.9,0.6,0.9,1.1v0.3c0,0.8-0.6,1.2-1.2,1.2h-0.1
		c-0.5,0-1.2-0.3-1.3-1.2l0,0h0.4c0.1,0.7,0.5,0.9,0.9,0.9h0.1c0.4,0,0.8-0.3,0.8-0.8v-0.3c0-0.6-0.4-0.8-0.9-0.8h-1.1V249H86.4z"/>
</g>
<g id="text4221" class="st1">
	<path class="st2" d="M144.2,248.9c0.6,0,1.2,0.3,1.2,1.3v0c0,1.3-2,1.4-2.1,2.6h2.1v0.4h-2.6V253c0-1.6,2.2-1.6,2.2-2.8
		c0-0.7-0.4-0.9-0.8-0.9h-0.1c-0.4,0-0.8,0.2-0.9,0.8h-0.4l0-0.1C143,249.3,143.6,249,144.2,248.9L144.2,248.9z"/>
	<path class="st2" d="M147.8,248.7h0.4l-1.8,4.5h-0.4L147.8,248.7z"/>
	<path class="st2" d="M151.1,249v0.4h-1.7v1.3h0.5c0.1,0,0.4,0,0.7,0c0.6,0.1,0.9,0.6,0.9,1.1v0.3c0,0.8-0.6,1.2-1.2,1.2H150
		c-0.5,0-1.2-0.3-1.3-1.2l0,0h0.4c0.1,0.7,0.5,0.9,0.9,0.9h0.1c0.4,0,0.8-0.3,0.8-0.8v-0.3c0-0.6-0.4-0.8-0.9-0.8h-1.1V249H151.1z"
		/>
</g>
<g id="text4232" class="st1">
	<path class="st2" d="M207.5,248.9c0.5,0,1.2,0.3,1.2,1.1v0.1c0,0.5-0.3,0.8-0.7,0.9c0.4,0.1,0.7,0.5,0.7,1v0.1
		c0,0.8-0.6,1.2-1.3,1.2h-0.1c-0.5,0-1.2-0.3-1.3-1.2l0,0h0.4c0.1,0.7,0.5,0.9,0.9,0.9h0.1c0.4,0,0.8-0.3,0.8-0.8v0
		c0-0.5-0.4-0.8-0.9-0.8H207v-0.4h0.4c0.4,0,0.9-0.2,0.9-0.8v0c0-0.5-0.5-0.7-0.8-0.7h-0.1c-0.4,0-0.8,0.2-0.9,0.8h-0.4l0,0
		c0.1-0.8,0.8-1.2,1.3-1.2H207.5z"/>
	<path class="st2" d="M211.1,248.7h0.4l-1.8,4.5h-0.4L211.1,248.7z"/>
	<path class="st2" d="M214.4,249v0.4h-1.7v1.3h0.5c0.1,0,0.4,0,0.7,0c0.6,0.1,0.9,0.6,0.9,1.1v0.3c0,0.8-0.6,1.2-1.2,1.2h-0.1
		c-0.5,0-1.2-0.3-1.3-1.2l0,0h0.4c0.1,0.7,0.5,0.9,0.9,0.9h0.1c0.4,0,0.8-0.3,0.8-0.8v-0.3c0-0.6-0.4-0.8-0.9-0.8h-1.1V249H214.4z"
		/>
</g>
<g id="text4243" class="st1">
	<path class="st2" d="M272.6,252.3h-0.4v1h-0.4v-1h-1.9v-0.5l1.3-2.8h0.4l-1.3,2.9h1.4V250h0.4v1.9h0.4V252.3z"/>
	<path class="st2" d="M274.9,248.7h0.4l-1.8,4.5h-0.4L274.9,248.7z"/>
	<path class="st2" d="M278.2,249v0.4h-1.7v1.3h0.5c0.1,0,0.4,0,0.7,0c0.6,0.1,0.9,0.6,0.9,1.1v0.3c0,0.8-0.6,1.2-1.2,1.2h-0.1
		c-0.5,0-1.2-0.3-1.3-1.2l0,0h0.4c0.1,0.7,0.5,0.9,0.9,0.9h0.1c0.4,0,0.8-0.3,0.8-0.8v-0.3c0-0.6-0.4-0.8-0.9-0.8H276V249H278.2z"/>
</g>
<g id="text4254" class="st1">
	<path class="st2" d="M69.7,298.5v3.9h-0.4v-3.9h-0.4v-0.4h0.8V298.5z"/>
	<path class="st2" d="M72.1,297.9h0.4l-1.8,4.5h-0.4L72.1,297.9z"/>
	<path class="st2" d="M73,299.6c0-1.2,0.7-1.6,1.4-1.6c0.6,0,1.2,0.3,1.3,1.2h-0.4c0-0.6-0.4-0.8-0.8-0.8c-0.5,0-0.9,0.3-0.9,1.2
		v0.7c0.1-0.3,0.4-0.5,0.8-0.5h0.3c0.9,0,1.1,0.7,1.1,1.3c0,0.6-0.3,1.3-1.2,1.3h-0.3c-0.8,0-1.2-0.6-1.2-1.3V299.6z M74.5,302
		c0.6,0,0.8-0.5,0.8-0.9c0-0.4-0.2-0.9-0.8-0.9h-0.2c-0.6,0-0.8,0.5-0.8,0.9c0,0.4,0.2,0.9,0.8,0.9H74.5z"/>
</g>
<g id="text4265" class="st1">
	<path class="st2" d="M283,298.1v0.4h-1.7v1.3h0.5c0.1,0,0.4,0,0.7,0c0.6,0.1,0.9,0.6,0.9,1.1v0.3c0,0.8-0.6,1.2-1.2,1.2H282
		c-0.5,0-1.2-0.3-1.3-1.2l0,0h0.4c0.1,0.7,0.5,0.9,0.9,0.9h0.1c0.4,0,0.8-0.3,0.8-0.8v-0.3c0-0.6-0.4-0.8-0.9-0.8h-1.1v-2.1H283z"/>
	<path class="st2" d="M285.6,297.9h0.4l-1.8,4.5h-0.4L285.6,297.9z"/>
	<path class="st2" d="M286.6,299.6c0-1.2,0.7-1.6,1.3-1.6c0.6,0,1.2,0.3,1.3,1.2h-0.4c0-0.6-0.4-0.8-0.8-0.8c-0.5,0-0.9,0.3-0.9,1.2
		v0.7c0.1-0.3,0.4-0.5,0.8-0.5h0.3c0.9,0,1.1,0.7,1.1,1.3c0,0.6-0.3,1.3-1.2,1.3h-0.3c-0.8,0-1.2-0.6-1.2-1.3V299.6z M288,302
		c0.6,0,0.8-0.5,0.8-0.9c0-0.4-0.2-0.9-0.8-0.9h-0.2c-0.6,0-0.8,0.5-0.8,0.9c0,0.4,0.2,0.9,0.8,0.9H288z"/>
</g>
<g id="text4276-6" class="st1">
	<path class="st2" d="M63,347.6v3.9h-0.4v-3.9h-0.4v-0.4H63V347.6z"/>
	<path class="st2" d="M65.4,347h0.4l-1.8,4.5h-0.4L65.4,347z"/>
	<path class="st2" d="M68.8,347.2v0.3l-1.7,3.9h-0.4l1.7-3.9h-2v-0.4H68.8z"/>
</g>
<g id="text4287-0" class="st1">
	<path class="st2" d="M108.8,347.2c0.6,0,1.2,0.3,1.2,1.3v0c0,1.3-2,1.4-2.1,2.6h2.1v0.4h-2.6v-0.2c0-1.6,2.2-1.6,2.2-2.8
		c0-0.7-0.4-0.9-0.8-0.9h-0.1c-0.4,0-0.8,0.2-0.9,0.8h-0.4l0-0.1C107.6,347.5,108.2,347.2,108.8,347.2L108.8,347.2z"/>
	<path class="st2" d="M112.4,347h0.4l-1.8,4.5h-0.4L112.4,347z"/>
	<path class="st2" d="M115.8,347.2v0.3l-1.7,3.9h-0.4l1.7-3.9h-2v-0.4H115.8z"/>
</g>
<g id="text4298-8" class="st1">
	<path class="st2" d="M155.2,347.2c0.5,0,1.2,0.3,1.2,1.1v0.1c0,0.5-0.3,0.8-0.7,0.9c0.4,0.1,0.7,0.5,0.7,1v0.1
		c0,0.8-0.6,1.2-1.3,1.2h-0.1c-0.5,0-1.2-0.3-1.3-1.2l0,0h0.4c0.1,0.7,0.5,0.9,0.9,0.9h0.1c0.4,0,0.8-0.3,0.8-0.8v0
		c0-0.5-0.4-0.8-0.9-0.8h-0.4v-0.4h0.4c0.4,0,0.9-0.2,0.9-0.8v0c0-0.5-0.5-0.7-0.8-0.7h-0.1c-0.4,0-0.8,0.2-0.9,0.8h-0.4l0,0
		c0.1-0.8,0.8-1.2,1.3-1.2H155.2z"/>
	<path class="st2" d="M158.8,347h0.4l-1.8,4.5H157L158.8,347z"/>
	<path class="st2" d="M162.2,347.2v0.3l-1.7,3.9h-0.4l1.7-3.9h-2v-0.4H162.2z"/>
</g>
<g id="text4309-9" class="st1">
	<path class="st2" d="M200.5,350.5h-0.4v1h-0.4v-1h-1.9v-0.5l1.3-2.8h0.4l-1.3,2.9h1.4v-1.9h0.4v1.9h0.4V350.5z"/>
	<path class="st2" d="M202.8,347h0.4l-1.8,4.5H201L202.8,347z"/>
	<path class="st2" d="M206.2,347.2v0.3l-1.7,3.9h-0.4l1.7-3.9h-2v-0.4H206.2z"/>
</g>
<g id="text4320-9" class="st1">
	<path class="st2" d="M245.7,347.2v0.4H244v1.3h0.5c0.1,0,0.4,0,0.7,0c0.6,0.1,0.9,0.6,0.9,1.1v0.3c0,0.8-0.6,1.2-1.2,1.2h-0.1
		c-0.5,0-1.2-0.3-1.3-1.2l0,0h0.4c0.1,0.7,0.5,0.9,0.9,0.9h0.1c0.4,0,0.8-0.3,0.8-0.8v-0.3c0-0.6-0.4-0.8-0.9-0.8h-1.1v-2.1H245.7z"
		/>
	<path class="st2" d="M248.3,347h0.4l-1.8,4.5h-0.4L248.3,347z"/>
	<path class="st2" d="M251.8,347.2v0.3l-1.7,3.9h-0.4l1.7-3.9h-2v-0.4H251.8z"/>
</g>
<g id="text4331-9" class="st1">
	<path class="st2" d="M288.1,348.7c0-1.2,0.7-1.6,1.4-1.6c0.6,0,1.2,0.3,1.3,1.2h-0.4c0-0.6-0.4-0.8-0.8-0.8c-0.5,0-0.9,0.3-0.9,1.2
		v0.7c0.1-0.3,0.4-0.5,0.8-0.5h0.3c0.9,0,1.1,0.7,1.1,1.3c0,0.6-0.3,1.3-1.2,1.3h-0.3c-0.8,0-1.2-0.6-1.2-1.3V348.7z M289.6,351.1
		c0.6,0,0.8-0.5,0.8-0.9c0-0.4-0.2-0.9-0.8-0.9h-0.2c-0.6,0-0.8,0.5-0.8,0.9c0,0.4,0.2,0.9,0.8,0.9H289.6z"/>
	<path class="st2" d="M293.1,347h0.4l-1.8,4.5h-0.4L293.1,347z"/>
	<path class="st2" d="M296.5,347.2v0.3l-1.7,3.9h-0.4l1.7-3.9h-2v-0.4H296.5z"/>
</g>
<g id="text4480" class="st1">
	<path class="st2" d="M175.4,399.6v3.6H175v-3.6h-0.3v-0.4h0.7V399.6z"/>
	<path class="st2" d="M177.5,399h0.4l-1.6,4.2h-0.4L177.5,399z"/>
	<path class="st2" d="M179.6,399.2c0.5,0,1.1,0.3,1.1,1.2v0c0,1.2-1.8,1.3-1.9,2.4h1.8v0.4h-2.3V403c0-1.4,1.9-1.5,1.9-2.6
		c0-0.6-0.4-0.8-0.7-0.8h0c-0.3,0-0.7,0.2-0.8,0.8h-0.4l0,0C178.5,399.5,179,399.2,179.6,399.2L179.6,399.2z"/>
</g>
<g id="text4491" class="st1">
	<path class="st2" d="M122.4,399.6v3.6H122v-3.6h-0.3v-0.4h0.7V399.6z"/>
	<path class="st2" d="M124.6,399h0.4l-1.6,4.2h-0.4L124.6,399z"/>
	<path class="st2" d="M126.6,399.2c0.4,0,1.1,0.3,1.1,1v0.1c0,0.4-0.3,0.7-0.6,0.8c0.4,0.1,0.6,0.5,0.6,0.9v0.1
		c0,0.7-0.6,1.1-1.1,1.1h-0.1c-0.5,0-1.1-0.3-1.1-1.2l0,0h0.4c0.1,0.6,0.5,0.8,0.8,0.8h0.1c0.4,0,0.7-0.2,0.7-0.7v0
		c0-0.5-0.3-0.7-0.8-0.7h-0.3V401h0.3c0.4,0,0.8-0.2,0.8-0.7v0c0-0.5-0.4-0.7-0.7-0.7h-0.1c-0.3,0-0.7,0.2-0.8,0.8h-0.4l0,0
		C125.5,399.5,126,399.2,126.6,399.2L126.6,399.2z"/>
</g>
<g id="text4502" class="st1">
	<path class="st2" d="M229.7,399.2c0.5,0,1.1,0.3,1.1,1.2v0c0,1.2-1.8,1.3-1.9,2.4h1.8v0.4h-2.3V403c0-1.4,1.9-1.5,1.9-2.6
		c0-0.6-0.4-0.8-0.7-0.8h0c-0.3,0-0.7,0.2-0.8,0.8h-0.4l0,0C228.6,399.5,229.1,399.2,229.7,399.2L229.7,399.2z"/>
	<path class="st2" d="M232.8,399h0.4l-1.6,4.2h-0.4L232.8,399z"/>
	<path class="st2" d="M234.9,399.2c0.4,0,1.1,0.3,1.1,1v0.1c0,0.4-0.3,0.7-0.6,0.8c0.4,0.1,0.6,0.5,0.6,0.9v0.1
		c0,0.7-0.6,1.1-1.1,1.1h-0.1c-0.5,0-1.1-0.3-1.1-1.2l0,0h0.4c0.1,0.6,0.5,0.8,0.8,0.8h0.1c0.4,0,0.7-0.2,0.7-0.7v0
		c0-0.5-0.3-0.7-0.8-0.7h-0.3V401h0.3c0.4,0,0.8-0.2,0.8-0.7v0c0-0.5-0.4-0.7-0.7-0.7h-0.1c-0.3,0-0.7,0.2-0.8,0.8h-0.4l0,0
		C233.8,399.5,234.3,399.2,234.9,399.2L234.9,399.2z"/>
</g>
<g id="text4513" class="st1">
	<path class="st2" d="M96.4,399.6v3.6h-0.4v-3.6h-0.3v-0.4h0.7V399.6z"/>
	<path class="st2" d="M98.6,399H99l-1.6,4.2h-0.4L98.6,399z"/>
	<path class="st2" d="M101.8,402.3h-0.4v0.9H101v-0.9h-1.6v-0.4l1.2-2.6h0.4l-1.2,2.7h1.3v-1.7h0.4v1.7h0.4V402.3z"/>
</g>
<g id="text4524" class="st1">
	<path class="st2" d="M255.7,399.2c0.4,0,1.1,0.3,1.1,1v0.1c0,0.4-0.3,0.7-0.6,0.8c0.4,0.1,0.6,0.5,0.6,0.9v0.1
		c0,0.7-0.6,1.1-1.1,1.1h-0.1c-0.5,0-1.1-0.3-1.1-1.2l0,0h0.4c0.1,0.6,0.5,0.8,0.8,0.8h0.1c0.4,0,0.7-0.2,0.7-0.7v0
		c0-0.5-0.3-0.7-0.8-0.7h-0.3V401h0.3c0.4,0,0.8-0.2,0.8-0.7v0c0-0.5-0.4-0.7-0.7-0.7h-0.1c-0.3,0-0.7,0.2-0.8,0.8h-0.4l0,0
		C254.6,399.5,255.2,399.2,255.7,399.2L255.7,399.2z"/>
	<path class="st2" d="M258.9,399h0.4l-1.6,4.2h-0.4L258.9,399z"/>
	<path class="st2" d="M262.1,402.3h-0.4v0.9h-0.4v-0.9h-1.6v-0.4l1.2-2.6h0.4l-1.2,2.7h1.3v-1.7h0.4v1.7h0.4V402.3z"/>
</g>
<g id="text4535" class="st1">
	<path class="st2" d="M81,399.6v3.6h-0.4v-3.6h-0.3v-0.4H81V399.6z"/>
	<path class="st2" d="M83.1,399h0.4l-1.6,4.2h-0.4L83.1,399z"/>
	<path class="st2" d="M86,399.2v0.4h-1.5v1.2h0.5c0.1,0,0.4,0,0.6,0c0.5,0.1,0.8,0.5,0.8,1v0.3c0,0.7-0.6,1.1-1.1,1.1h-0.1
		c-0.5,0-1.1-0.3-1.1-1.1l0,0h0.4c0.1,0.6,0.5,0.8,0.8,0.8h0.1c0.4,0,0.7-0.2,0.7-0.8v-0.2c0-0.5-0.3-0.7-0.8-0.7h-1v-1.9H86z"/>
</g>
<g id="text4546" class="st1">
	<path class="st2" d="M143.6,399.2c0.5,0,1.1,0.3,1.1,1.2v0c0,1.2-1.8,1.3-1.9,2.4h1.8v0.4h-2.3V403c0-1.4,1.9-1.5,1.9-2.6
		c0-0.6-0.4-0.8-0.7-0.8h0c-0.3,0-0.7,0.2-0.8,0.8h-0.4l0,0C142.5,399.5,143.1,399.2,143.6,399.2L143.6,399.2z"/>
	<path class="st2" d="M146.8,399h0.4l-1.6,4.2h-0.4L146.8,399z"/>
	<path class="st2" d="M149.7,399.2v0.4h-1.5v1.2h0.5c0.1,0,0.4,0,0.6,0c0.5,0.1,0.8,0.5,0.8,1v0.3c0,0.7-0.6,1.1-1.1,1.1h-0.1
		c-0.5,0-1.1-0.3-1.1-1.1l0,0h0.4c0.1,0.6,0.5,0.8,0.8,0.8h0.1c0.4,0,0.7-0.2,0.7-0.8v-0.2c0-0.5-0.3-0.7-0.8-0.7h-1v-1.9H149.7z"/>
</g>
<g id="text4557" class="st1">
	<path class="st2" d="M208.7,399.2c0.4,0,1.1,0.3,1.1,1v0.1c0,0.4-0.3,0.7-0.6,0.8c0.4,0.1,0.6,0.5,0.6,0.9v0.1
		c0,0.7-0.6,1.1-1.1,1.1h-0.1c-0.5,0-1.1-0.3-1.1-1.2l0,0h0.4c0.1,0.6,0.5,0.8,0.8,0.8h0.1c0.4,0,0.7-0.2,0.7-0.7v0
		c0-0.5-0.3-0.7-0.8-0.7h-0.3V401h0.3c0.4,0,0.8-0.2,0.8-0.7v0c0-0.5-0.4-0.7-0.7-0.7h-0.1c-0.3,0-0.7,0.2-0.8,0.8h-0.4l0,0
		C207.6,399.5,208.2,399.2,208.7,399.2L208.7,399.2z"/>
	<path class="st2" d="M211.9,399h0.4l-1.6,4.2h-0.4L211.9,399z"/>
	<path class="st2" d="M214.8,399.2v0.4h-1.5v1.2h0.5c0.1,0,0.4,0,0.6,0c0.5,0.1,0.8,0.5,0.8,1v0.3c0,0.7-0.6,1.1-1.1,1.1h-0.1
		c-0.5,0-1.1-0.3-1.1-1.1l0,0h0.4c0.1,0.6,0.5,0.8,0.8,0.8h0.1c0.4,0,0.7-0.2,0.7-0.8v-0.2c0-0.5-0.3-0.7-0.8-0.7h-1v-1.9H214.8z"/>
</g>
<g id="text4568" class="st1">
	<path class="st2" d="M272.1,402.3h-0.4v0.9h-0.4v-0.9h-1.6v-0.4l1.2-2.6h0.4l-1.2,2.7h1.3v-1.7h0.4v1.7h0.4V402.3z"/>
	<path class="st2" d="M274.1,399h0.4l-1.6,4.2h-0.4L274.1,399z"/>
	<path class="st2" d="M277.1,399.2v0.4h-1.5v1.2h0.5c0.1,0,0.4,0,0.6,0c0.5,0.1,0.8,0.5,0.8,1v0.3c0,0.7-0.6,1.1-1.1,1.1h-0.1
		c-0.5,0-1.1-0.3-1.1-1.1l0,0h0.4c0.1,0.6,0.5,0.8,0.8,0.8h0.1c0.4,0,0.7-0.2,0.7-0.8v-0.2c0-0.5-0.3-0.7-0.8-0.7h-1v-1.9H277.1z"/>
</g>
<g id="text4579" class="st1">
	<path class="st2" d="M70.8,399.6v3.6h-0.4v-3.6H70v-0.4h0.7V399.6z"/>
	<path class="st2" d="M72.9,399h0.4l-1.6,4.2h-0.4L72.9,399z"/>
	<path class="st2" d="M73.7,400.6c0-1.1,0.6-1.4,1.2-1.4c0.5,0,1.1,0.3,1.1,1.1h-0.4c0-0.6-0.4-0.8-0.7-0.8c-0.4,0-0.8,0.2-0.8,1.1
		v0.6c0.1-0.3,0.4-0.5,0.7-0.5h0.2c0.8,0,1,0.7,1,1.2c0,0.5-0.2,1.2-1,1.2h-0.2c-0.7,0-1-0.5-1.1-1.2V400.6z M75,402.9
		c0.5,0,0.7-0.4,0.7-0.8c0-0.4-0.2-0.8-0.7-0.8h-0.2c-0.5,0-0.7,0.4-0.7,0.8c0,0.4,0.2,0.8,0.7,0.8H75z"/>
</g>
<g id="text4590" class="st1">
	<path class="st2" d="M282,399.2v0.4h-1.5v1.2h0.5c0.1,0,0.4,0,0.6,0c0.5,0.1,0.8,0.5,0.8,1v0.3c0,0.7-0.6,1.1-1.1,1.1h-0.1
		c-0.5,0-1.1-0.3-1.1-1.1l0,0h0.4c0.1,0.6,0.5,0.8,0.8,0.8h0.1c0.4,0,0.7-0.2,0.7-0.8v-0.2c0-0.5-0.3-0.7-0.8-0.7h-1v-1.9H282z"/>
	<path class="st2" d="M284.3,399h0.4l-1.6,4.2h-0.4L284.3,399z"/>
	<path class="st2" d="M285.2,400.6c0-1.1,0.6-1.4,1.2-1.4c0.5,0,1.1,0.3,1.1,1.1h-0.4c0-0.6-0.4-0.8-0.7-0.8c-0.4,0-0.8,0.2-0.8,1.1
		v0.6c0.1-0.3,0.4-0.5,0.7-0.5h0.2c0.8,0,1,0.7,1,1.2c0,0.5-0.2,1.2-1,1.2h-0.2c-0.7,0-1-0.5-1.1-1.2V400.6z M286.4,402.9
		c0.5,0,0.7-0.4,0.7-0.8c0-0.4-0.2-0.8-0.7-0.8h-0.2c-0.5,0-0.7,0.4-0.7,0.8c0,0.4,0.2,0.8,0.7,0.8H286.4z"/>
</g>
<g id="text4601" class="st1">
	<path class="st2" d="M60.3,399.6v3.6h-0.4v-3.6h-0.3v-0.4h0.7V399.6z"/>
	<path class="st2" d="M62.4,399h0.4l-1.6,4.2h-0.4L62.4,399z"/>
	<path class="st2" d="M65.4,399.2v0.3l-1.5,3.6h-0.4l1.5-3.6h-1.8v-0.4H65.4z"/>
</g>
<g id="text4612" class="st1">
	<path class="st2" d="M108.8,399.2c0.5,0,1.1,0.3,1.1,1.2v0c0,1.2-1.8,1.3-1.9,2.4h1.8v0.4h-2.3V403c0-1.4,1.9-1.5,1.9-2.6
		c0-0.6-0.4-0.8-0.7-0.8h0c-0.3,0-0.7,0.2-0.8,0.8h-0.4l0,0C107.7,399.5,108.2,399.2,108.8,399.2L108.8,399.2z"/>
	<path class="st2" d="M111.9,399h0.4l-1.6,4.2h-0.4L111.9,399z"/>
	<path class="st2" d="M114.9,399.2v0.3l-1.5,3.6H113l1.5-3.6h-1.8v-0.4H114.9z"/>
</g>
<g id="text4623" class="st1">
	<path class="st2" d="M153.6,399.2c0.4,0,1.1,0.3,1.1,1v0.1c0,0.4-0.3,0.7-0.6,0.8c0.4,0.1,0.6,0.5,0.6,0.9v0.1
		c0,0.7-0.6,1.1-1.1,1.1h-0.1c-0.5,0-1.1-0.3-1.1-1.2l0,0h0.4c0.1,0.6,0.5,0.8,0.8,0.8h0.1c0.4,0,0.7-0.2,0.7-0.7v0
		c0-0.5-0.3-0.7-0.8-0.7h-0.3V401h0.3c0.4,0,0.8-0.2,0.8-0.7v0c0-0.5-0.4-0.7-0.7-0.7h-0.1c-0.3,0-0.7,0.2-0.8,0.8h-0.4l0,0
		C152.5,399.5,153,399.2,153.6,399.2L153.6,399.2z"/>
	<path class="st2" d="M156.8,399h0.4l-1.6,4.2h-0.4L156.8,399z"/>
	<path class="st2" d="M159.8,399.2v0.3l-1.5,3.6h-0.4l1.5-3.6h-1.8v-0.4H159.8z"/>
</g>
<g id="text4634" class="st1">
	<path class="st2" d="M199.7,402.3h-0.4v0.9H199v-0.9h-1.6v-0.4l1.2-2.6h0.4l-1.2,2.7h1.3v-1.7h0.4v1.7h0.4V402.3z"/>
	<path class="st2" d="M201.8,399h0.4l-1.6,4.2h-0.4L201.8,399z"/>
	<path class="st2" d="M204.8,399.2v0.3l-1.5,3.6h-0.4l1.5-3.6h-1.8v-0.4H204.8z"/>
</g>
<g id="text4645" class="st1">
	<path class="st2" d="M245,399.2v0.4h-1.5v1.2h0.5c0.1,0,0.4,0,0.6,0c0.5,0.1,0.8,0.5,0.8,1v0.3c0,0.7-0.6,1.1-1.1,1.1h-0.1
		c-0.5,0-1.1-0.3-1.1-1.1l0,0h0.4c0.1,0.6,0.5,0.8,0.8,0.8h0.1c0.4,0,0.7-0.2,0.7-0.8v-0.2c0-0.5-0.3-0.7-0.8-0.7h-1v-1.9H245z"/>
	<path class="st2" d="M247.3,399h0.4l-1.6,4.2h-0.4L247.3,399z"/>
	<path class="st2" d="M250.3,399.2v0.3l-1.5,3.6h-0.4l1.5-3.6h-1.8v-0.4H250.3z"/>
</g>
<g id="text4656" class="st1">
	<path class="st2" d="M290.6,400.6c0-1.1,0.6-1.4,1.2-1.4c0.5,0,1.1,0.3,1.1,1.1h-0.4c0-0.6-0.4-0.8-0.7-0.8c-0.4,0-0.8,0.2-0.8,1.1
		v0.6c0.1-0.3,0.4-0.5,0.7-0.5h0.2c0.8,0,1,0.7,1,1.2c0,0.5-0.2,1.2-1,1.2h-0.2c-0.7,0-1-0.5-1.1-1.2V400.6z M291.9,402.9
		c0.5,0,0.7-0.4,0.7-0.8c0-0.4-0.2-0.8-0.7-0.8h-0.2c-0.5,0-0.7,0.4-0.7,0.8c0,0.4,0.2,0.8,0.7,0.8H291.9z"/>
	<path class="st2" d="M295,399h0.4l-1.6,4.2h-0.4L295,399z"/>
	<path class="st2" d="M298.1,399.2v0.3l-1.5,3.6h-0.4l1.5-3.6h-1.8v-0.4H298.1z"/>
</g>
<g id="text4667" class="st1">
	<path class="st2" d="M336,399.6v3.6h-0.4v-3.6h-0.3v-0.4h0.7V399.6z"/>
</g>
<g id="text4678" class="st1">
	<path class="st2" d="M20.6,400.6c0-1.1,0.6-1.4,1.2-1.4c0.6,0,1.2,0.3,1.2,1.4v1.2c0,1.1-0.6,1.4-1.2,1.4c-0.6,0-1.2-0.3-1.2-1.4
		V400.6z M22.5,400.7c0-0.9-0.4-1.1-0.8-1.1c-0.4,0-0.8,0.3-0.8,1.1v1c0,0.9,0.4,1.1,0.8,1.1c0.4,0,0.8-0.3,0.8-1.1V400.7z"/>
</g>
<g id="shape101-1">
	<path id="path3763" class="st3" d="M20.7,395.7h315.9"/>
</g>
<g id="shape81-273">
	<path id="path4379" class="st4" d="M178.6,384.4v10"/>
</g>
<g id="shape88-276">
	<path id="path4384" class="st5" d="M99.7,384.4v10"/>
</g>
<g id="shape89-279">
	<path id="path4389" class="st5" d="M257.6,384.4v10"/>
</g>
<g id="shape97-282">
	<path id="path4394" class="st6" d="M147,384.4v10"/>
</g>
<g id="shape98-285">
	<path id="path4399" class="st6" d="M83.9,384.4v10"/>
</g>
<g id="shape99-288">
	<path id="path4404" class="st6" d="M273.4,384.4v10"/>
</g>
<g id="shape100-291">
	<path id="path4409" class="st6" d="M210.2,384.4v10"/>
</g>
<g id="shape102-294">
	<path id="path4414" class="st7" d="M231.3,384.4v10"/>
</g>
<g id="shape103-297">
	<path id="path4419" class="st7" d="M126,384.4v10"/>
</g>
<g id="shape104-300">
	<path id="path4424" class="st8" d="M73.3,384.4v10"/>
</g>
<g id="shape105-303">
	<path id="path4429" class="st8" d="M283.9,384.4v10"/>
</g>
<g id="shape106-306">
	<path id="path4434" class="st9" d="M291.4,384.4v10"/>
</g>
<g id="shape107-309">
	<path id="path4439" class="st9" d="M65.8,384.4v10"/>
</g>
<g id="shape108-312">
	<path id="path4444" class="st10" d="M20.7,384.4v10"/>
</g>
<g id="shape109-315">
	<path id="path4449" class="st11" d="M336.5,384.4v10"/>
</g>
<g id="shape110-318">
	<path id="path4454" class="st9" d="M246.2,384.4v10"/>
</g>
<g id="shape111-321">
	<path id="path4459" class="st9" d="M201.2,384.4v10"/>
</g>
<g id="shape112-324">
	<path id="path4464" class="st9" d="M156,384.4v10"/>
</g>
<g id="shape113-327">
	<path id="path4469" class="st9" d="M110.9,384.4v10"/>
</g>
<g id="shape44-108">
	<path id="path4016" class="st12" d="M178.6,112.2v271"/>
</g>
<g id="shape46-114">
	<path id="path4026" class="st13" d="M257.6,210.8v172.4"/>
</g>
<g id="shape47-117">
	<path id="path4031" class="st14" d="M147.1,260v123.2"/>
</g>
<g id="shape49-123">
	<path id="path4041" class="st14" d="M273.4,260v123.2"/>
</g>
<g id="shape50-126">
	<path id="path4046" class="st14" d="M210.2,260v123.2"/>
</g>
<g id="shape51-129">
	<path id="path4051" class="st15" d="M231.3,161.5v221.7"/>
</g>
<g id="shape53-135">
	<path id="path4061" class="st16" d="M73.3,309.3v73.9"/>
</g>
<g id="shape54-138">
	<path id="path4066" class="st16" d="M284,309.3v73.9"/>
</g>
<g id="shape55-141">
	<path id="path4071" class="st17" d="M291.5,358.6v24.6"/>
</g>
<g id="shape57-147">
	<path id="path4081" class="st18" d="M20.6,63v320.2"/>
</g>
<g id="shape73-153">
	<path id="path4091" class="st17" d="M246.3,358.5v24.6"/>
</g>
<g id="shape74-156">
	<path id="path4096" class="st17" d="M201.2,358.6v24.6"/>
</g>
<g id="shape75-159">
	<path id="path4101" class="st17" d="M156,358.6v24.6"/>
</g>
<g id="shape76-162">
	<path id="path4106" class="st17" d="M110.9,358.6v24.6"/>
</g>
<g id="shape43-267">
	<path id="path4369" class="st3" d="M20.7,383h315.9"/>
</g>
<path id="path6856-7" class="st19" d="M182.7,112.3c0,2.3-1.8,4.1-4.1,4.1s-4.1-1.8-4.1-4.1l0,0l0,0c0-2.3,1.8-4.1,4.1-4.1
	S182.7,110,182.7,112.3z"/>
<g id="shape45-111">
	<path id="path4021" class="st13" d="M99.6,210.8v172.4"/>
</g>
<g id="shape48-120">
	<path id="path4036" class="st14" d="M83.8,260v123.2"/>
</g>
<g id="shape52-132">
	<path id="path4056" class="st15" d="M126,161.5v221.7"/>
</g>
<g id="shape56-144">
	<path id="path4076" class="st17" d="M65.8,358.6v24.6"/>
</g>
<path id="path4400" class="st20" d="M336.6,63v332.5"/>
<path id="path6856-2" class="st21" d="M130,161.5c0.1,2.3-1.6,4.2-3.9,4.3c-2.3,0.1-4.2-1.6-4.3-3.9c0-0.1,0-0.3,0-0.4v-0.1
	c0.1-2.3,2-4,4.3-3.9C128.2,157.7,129.9,159.4,130,161.5z"/>
<path id="path6856-3" class="st22" d="M103.8,210.8c0.1,2.3-1.6,4.2-3.9,4.3c-2.3,0.1-4.2-1.6-4.3-3.9c0-0.1,0-0.3,0-0.4v-0.1
	c0.1-2.3,2-4,4.3-3.9C102,207,103.7,208.6,103.8,210.8z"/>
<path id="path6856-6" class="st23" d="M88,259.9c0.1,2.3-1.6,4.2-3.9,4.3c-2.3,0.1-4.2-1.6-4.3-3.9c0-0.1,0-0.3,0-0.4v0
	c0.1-2.3,2-4,4.3-3.9C86.2,256.1,87.9,257.7,88,259.9L88,259.9z"/>
<path id="path6856" class="st24" d="M77.5,309.3c-0.1,2.3-2,4-4.3,3.9c-2.1-0.1-3.8-1.8-3.9-3.9v0c0.1-2.3,2-4,4.3-3.9
	C75.7,305.5,77.4,307.2,77.5,309.3z"/>
<path id="path6856-8" class="st25" d="M69.9,358.4c0.1,2.3-1.6,4.2-3.9,4.3c-2.3,0.1-4.2-1.6-4.3-3.9c0-0.1,0-0.3,0-0.4v0
	c0.1-2.3,2-4,4.3-3.9C68.1,354.6,69.8,356.3,69.9,358.4L69.9,358.4z"/>
<path id="path6856-78" class="st26" d="M339.2,63.2c0,1.5-1.2,2.7-2.7,2.7c-1.5,0-2.7-1.2-2.7-2.7c0-1.5,1.2-2.7,2.7-2.7
	C338,60.5,339.2,61.7,339.2,63.2C339.2,63.2,339.2,63.2,339.2,63.2z"/>
<g class="st1">
	<g>
		<path class="st2" d="M132.5,27.6c0,1.4,0.9,1.9,1.8,1.9c1,0,1.8-0.5,1.8-1.7c0-1.2-0.8-1.5-1.8-1.8c-0.8-0.2-2.3-0.6-2.3-2.3
			c0-1.8,1.2-2.3,2.4-2.3c1.2,0,2.4,0.7,2.4,2.8h-0.8c0-1.4-0.8-2-1.6-2c-0.8,0-1.6,0.5-1.6,1.5c0,1.3,1.2,1.5,1.8,1.6
			c1.6,0.4,2.3,1.2,2.3,2.5c0,1.9-1.2,2.5-2.6,2.5c-1.2,0-2.5-0.7-2.6-2.7H132.5z"/>
	</g>
</g>
<g class="st1">
	<g>
		<path class="st2" d="M141.9,22.2h-1.8v8h-0.8v-8h-1.8v-0.8h4.5V22.2z"/>
	</g>
</g>
<g class="st1">
	<g>
		<path class="st2" d="M145.2,21.4c1.3,0,2.6,0.5,2.6,2.3v0.4c0,1.2-0.8,1.8-1.6,2l1.7,4.1H147l-1.6-3.9h-1.5v3.9h-0.8v-8.8H145.2z
			 M147,23.8c0-1.3-0.9-1.6-1.7-1.6h-1.3v3.3h1.3c0.8,0,1.7-0.3,1.7-1.6V23.8z"/>
	</g>
	<g>
		<path class="st2" d="M149.3,21.4h0.8v8.8h-0.8V21.4z"/>
	</g>
	<g>
		<path class="st2" d="M156.5,21.4v8.8h-0.8l-3.3-6.9v6.9h-0.8v-8.8h0.8l3.3,6.9v-6.9H156.5z"/>
	</g>
	<g>
		<path class="st2" d="M158.1,24.4c0-2.3,1.3-3,2.5-3c1.2,0,2.5,0.7,2.5,2.9v0.1h-0.8v-0.1c-0.1-1.7-0.9-2.2-1.7-2.2
			c-0.9,0-1.7,0.5-1.7,2.4v2.7c0,1.8,0.8,2.4,1.7,2.4c0.9,0,1.7-0.5,1.7-2.3v-0.9h-1.6v-0.8h2.4v1.8c0,2.3-1.3,3-2.5,3
			c-1.3,0-2.5-0.7-2.5-3V24.4z"/>
	</g>
</g>
<g class="st1">
	<g>
		<path class="st2" d="M168.4,24.4c0-2.3,1.3-3,2.6-3c1.2,0,2.6,0.7,2.6,3v2.9c0,2.3-1.3,3-2.6,3c-1.3,0-2.6-0.7-2.6-3V24.4z
			 M172.7,24.5c0-1.8-0.8-2.4-1.7-2.4c-0.9,0-1.7,0.5-1.7,2.4v2.7c0,1.8,0.8,2.4,1.7,2.4c0.9,0,1.7-0.5,1.7-2.4V24.5z"/>
	</g>
</g>
<g class="st1">
	<g>
		<path class="st2" d="M179.8,21.4l-2.3,8.8h-1l-2.3-8.8h0.8l1.9,7.5l1.9-7.5H179.8z"/>
	</g>
</g>
<g class="st1">
	<g>
		<path class="st2" d="M181.7,22.2v3.1h2.9v0.8h-2.9v3.3h3v0.8h-3.8v-8.8h3.8v0.8H181.7z"/>
	</g>
</g>
<g class="st1">
	<g>
		<path class="st2" d="M187.9,21.4c1.3,0,2.6,0.5,2.6,2.3v0.4c0,1.2-0.8,1.8-1.6,2l1.7,4.1h-0.9l-1.6-3.9h-1.5v3.9h-0.8v-8.8H187.9z
			 M189.8,23.8c0-1.3-0.9-1.6-1.7-1.6h-1.3v3.3h1.3c0.8,0,1.7-0.3,1.7-1.6V23.8z"/>
	</g>
</g>
<g class="st1">
	<g>
		<path class="st2" d="M195.6,22.2h-1.8v8H193v-8h-1.8v-0.8h4.5V22.2z"/>
	</g>
</g>
<g class="st1">
	<g>
		<path class="st2" d="M196.4,24.4c0-2.3,1.3-3,2.6-3c1.2,0,2.6,0.7,2.6,3v2.9c0,2.3-1.3,3-2.6,3c-1.3,0-2.6-0.7-2.6-3V24.4z
			 M200.7,24.5c0-1.8-0.8-2.4-1.7-2.4c-0.9,0-1.7,0.5-1.7,2.4v2.7c0,1.8,0.8,2.4,1.7,2.4c0.9,0,1.7-0.5,1.7-2.4V24.5z"/>
	</g>
</g>
<g class="st1">
	<g>
		<path class="st2" d="M207.7,21.4v8.8h-0.8l-3.3-6.9v6.9h-0.8v-8.8h0.8l3.3,6.9v-6.9H207.7z"/>
	</g>
	<g>
		<path class="st2" d="M210.1,22.2v3.1h2.9v0.8h-2.9v3.3h3v0.8h-3.8v-8.8h3.8v0.8H210.1z"/>
	</g>
	<g>
		<path class="st2" d="M214.8,27.6c0,1.4,0.9,1.9,1.8,1.9c1,0,1.8-0.5,1.8-1.7c0-1.2-0.8-1.5-1.8-1.8c-0.8-0.2-2.3-0.6-2.3-2.3
			c0-1.8,1.2-2.3,2.4-2.3c1.2,0,2.4,0.7,2.4,2.8h-0.8c0-1.4-0.8-2-1.6-2c-0.8,0-1.6,0.5-1.6,1.5c0,1.3,1.2,1.5,1.8,1.6
			c1.6,0.4,2.3,1.2,2.3,2.5c0,1.9-1.2,2.5-2.6,2.5c-1.2,0-2.5-0.7-2.6-2.7H214.8z"/>
	</g>
</g>
</svg>
