<svg enable-background="new 0 0 337.667 282.667" height="282.667" viewBox="0 0 337.667 282.667" width="337.667" xmlns="http://www.w3.org/2000/svg"><path d="m30.816 257.756 45.601-78.982 45.599 78.982z" fill="#fff" opacity=".15" stroke="#008eaf"/><path d="m122.885 257.756 45.599-78.982 45.599 78.982z" fill="#fff" opacity=".15" stroke="#008eaf"/><path d="m214.528 257.756 45.599-78.982 45.6 78.982z" fill="#fff" opacity=".15" stroke="#008eaf"/><path d="m76.892 177.973 45.599-78.98 45.601 78.98z" fill="#fff" opacity=".15" stroke="#008eaf"/><path d="m168.658 177.973 45.6-78.98 45.6 78.98z" fill="#fff" opacity=".15" stroke="#008eaf"/><path d="m122.921 98.396 45.6-78.98 45.597 78.98z" fill="#fff" opacity=".15" stroke="#008eaf"/><g stroke="#000"><circle cx="168.317" cy="18.147" r="6.044"/><circle cx="214.102" cy="98.498" r="6.045"/><circle cx="259.858" cy="178.241" r="6.045"/><circle cx="305.727" cy="257.757" r="6.045"/><circle cx="214.102" cy="257.757" r="6.045"/><circle cx="123.237" cy="257.757" r="6.044"/><circle cx="30.816" cy="257.757" r="6.045"/><circle cx="76.892" cy="178.241" r="6.045"/><circle cx="168.317" cy="178.241" r="6.045"/><circle cx="123.237" cy="98.498" r="6.044"/></g><path d="m0 0h337.667v282.667h-337.667z" fill="none"/></svg>