<svg height="693" width="570" xmlns="http://www.w3.org/2000/svg" xmlns:xlink="http://www.w3.org/1999/xlink"><defs><path id="a" d="m0 0h14v72h-14z" fill="none" stroke="#000"/><path id="b" d="m0 0h8v47h-8z" stroke="#000"/></defs><text font-family="Arial" font-size="9" x="35" y="37">GM Standard</text><text font-family="Arial" font-size="9" x="50" y="61">Drum Map</text><path d="m112 150h308v72h-308z" fill="none" stroke="#000"/><use x="112" xlink:href="#a" y="150"/><use x="126" xlink:href="#a" y="150"/><use x="140" xlink:href="#a" y="150"/><use x="154" xlink:href="#a" y="150"/><use x="168" xlink:href="#a" y="150"/><use x="182" xlink:href="#a" y="150"/><use x="196" xlink:href="#a" y="150"/><use x="210" xlink:href="#a" y="150"/><use x="224" xlink:href="#a" y="150"/><use x="238" xlink:href="#a" y="150"/><use x="252" xlink:href="#a" y="150"/><use x="266" xlink:href="#a" y="150"/><use x="280" xlink:href="#a" y="150"/><use x="294" xlink:href="#a" y="150"/><use x="308" xlink:href="#a" y="150"/><use x="322" xlink:href="#a" y="150"/><use x="336" xlink:href="#a" y="150"/><use x="350" xlink:href="#a" y="150"/><use x="364" xlink:href="#a" y="150"/><use x="378" xlink:href="#a" y="150"/><use x="392" xlink:href="#a" y="150"/><use x="406" xlink:href="#a" y="150"/><use x="122" xlink:href="#b" y="150"/><use x="136" xlink:href="#b" y="150"/><use x="164" xlink:href="#b" y="150"/><use x="178" xlink:href="#b" y="150"/><use x="192" xlink:href="#b" y="150"/><use x="220" xlink:href="#b" y="150"/><use x="234" xlink:href="#b" y="150"/><use x="262" xlink:href="#b" y="150"/><use x="276" xlink:href="#b" y="150"/><use x="290" xlink:href="#b" y="150"/><use x="318" xlink:href="#b" y="150"/><use x="332" xlink:href="#b" y="150"/><use x="360" xlink:href="#b" y="150"/><use x="374" xlink:href="#b" y="150"/><use x="388" xlink:href="#b" y="150"/><path d="m181 482h210v72h-210z" fill="none" stroke="#000"/><use x="181" xlink:href="#a" y="482"/><use x="195" xlink:href="#a" y="482"/><use x="209" xlink:href="#a" y="482"/><use x="223" xlink:href="#a" y="482"/><use x="237" xlink:href="#a" y="482"/><use x="251" xlink:href="#a" y="482"/><use x="265" xlink:href="#a" y="482"/><use x="279" xlink:href="#a" y="482"/><use x="293" xlink:href="#a" y="482"/><use x="307" xlink:href="#a" y="482"/><use x="321" xlink:href="#a" y="482"/><use x="335" xlink:href="#a" y="482"/><use x="349" xlink:href="#a" y="482"/><use x="363" xlink:href="#a" y="482"/><use x="377" xlink:href="#a" y="482"/><use x="191" xlink:href="#b" y="482"/><use x="205" xlink:href="#b" y="482"/><use x="233" xlink:href="#b" y="482"/><use x="247" xlink:href="#b" y="482"/><use x="261" xlink:href="#b" y="482"/><use x="289" xlink:href="#b" y="482"/><use x="303" xlink:href="#b" y="482"/><use x="331" xlink:href="#b" y="482"/><use x="345" xlink:href="#b" y="482"/><use x="359" xlink:href="#b" y="482"/><text font-family="Arial" font-size="9" x="116" y="216">0</text><text font-family="Arial" font-size="9" x="215" y="216">1</text><text font-family="Arial" font-size="9" x="312" y="216">2</text><text font-family="Arial" font-size="9" x="410" y="216">3</text><text font-family="Arial" font-size="9" x="185" y="547">3</text><text font-family="Arial" font-size="9" x="283" y="547">4</text><text font-family="Arial" font-size="9" x="381" y="547">5</text><path d="m200 130h24v22" fill="none" stroke="#00f"/><path d="m202 117h36v35" fill="none" stroke="#00f"/><path d="m407 32h-141v120" fill="none" stroke="#00f"/><path d="m407 45h-127v107" fill="none" stroke="#00f"/><path d="m407 59h-113v93" fill="none" stroke="#00f"/><path d="m407 70h-85v82" fill="none" stroke="#00f"/><path d="m407 83h-71v69" fill="none" stroke="#00f"/><path d="m407 97h-43v55" fill="none" stroke="#00f"/><path d="m407 109h-29v43" fill="none" stroke="#00f"/><path d="m407 124h-15v28" fill="none" stroke="#00f"/><path d="m171 260h32v-40" fill="none" stroke="#00f"/><path d="m137 272h80v-52" fill="none" stroke="#00f"/><path d="m150 286h81v-66" fill="none" stroke="#00f"/><path d="m140 299h105v-79" fill="none" stroke="#00f"/><path d="m143 311h116v-91" fill="none" stroke="#00f"/><path d="m147 324h126v-104" fill="none" stroke="#00f"/><path d="m119 337h168v-117" fill="none" stroke="#00f"/><path d="m138 351h163v-131" fill="none" stroke="#00f"/><path d="m130 363h185v-143" fill="none" stroke="#00f"/><path d="m123 376h206v-156" fill="none" stroke="#00f"/><path d="m413 300h-70v-80" fill="none" stroke="#00f"/><path d="m413 287h-57v-67" fill="none" stroke="#00f"/><path d="m413 274h-42v-54" fill="none" stroke="#00f"/><path d="m413 260h-28v-40" fill="none" stroke="#00f"/><path d="m413 248h-14v-28" fill="none" stroke="#00f"/><path d="m125 407h140v77" fill="none" stroke="#00f"/><path d="m138 420h113v64" fill="none" stroke="#00f"/><path d="m141 433h96v51" fill="none" stroke="#00f"/><path d="m154 446h55v38" fill="none" stroke="#00f"/><path d="m136 460h59v24" fill="none" stroke="#00f"/><path d="m375 423h-82v61" fill="none" stroke="#00f"/><path d="m375 436h-68v48" fill="none" stroke="#00f"/><path d="m375 449h-40v35" fill="none" stroke="#00f"/><path d="m375 462h-26v22" fill="none" stroke="#00f"/><path d="m123 569h65v-17" fill="none" stroke="#00f"/><path d="m147 582h55v-30" fill="none" stroke="#00f"/><path d="m132 595h84v-43" fill="none" stroke="#00f"/><path d="m139 608h91v-56" fill="none" stroke="#00f"/><path d="m135 622h109v-70" fill="none" stroke="#00f"/><path d="m115 634h143v-82" fill="none" stroke="#00f"/><path d="m139 647h133v-95" fill="none" stroke="#00f"/><path d="m138 660h148v-108" fill="none" stroke="#00f"/><path d="m375 629h-75v-77" fill="none" stroke="#00f"/><path d="m375 616h-62v-64" fill="none" stroke="#00f"/><path d="m375 603h-48v-51" fill="none" stroke="#00f"/><path d="m375 590h-33v-38" fill="none" stroke="#00f"/><path d="m375 577h-19v-25" fill="none" stroke="#00f"/><g font-family="Arial" font-size="9"><text x="120" y="133">37 Side Stick (C#)</text><text x="120" y="120">39 Hand Clap (D#)</text><text x="413" y="34">42 Closed Hi-Hat (F#)</text><text x="413" y="47">44 Pedal Hi-Hat (G#)</text><text x="413" y="60">46 Open Hi-Hat (A#)</text><text x="413" y="73">49 Crash Cymbal 1 (C#)</text><text x="413" y="86">51 Ride Cymbal 1 (D#)</text><text x="413" y="99">54 Tambourine (F#)</text><text x="413" y="112">56 Cowbell (G#)</text><text x="413" y="126">58 Vibraslap (A#)</text><text x="50" y="262">35 Accoustic Bass Drum (B)</text><text x="50" y="275">36 Bass Drum 1 (C)</text><text x="50" y="288">38 Accoustic Snare (D)</text><text x="50" y="301">40 Electric Snare (E)</text><text x="50" y="314">41 Low Floor Tom (F)</text><text x="50" y="327">43 High Floor Tom (G)</text><text x="50" y="340">45 Low Tom (A)</text><text x="50" y="353">47 Low-Mid Tom (B)</text><text x="50" y="366">48 Hi-Mid Tom (C)</text><text x="50" y="379">50 High Tom (D)</text><text x="421" y="303">52 Chinese Cymbal (E)</text><text x="421" y="290">53 Ride Bell (F)</text><text x="421" y="277">55 Splash Cymbal (G)</text><text x="421" y="264">57 Crash Cymbal 2 (A)</text><text x="421" y="251">59 Ride Cymbal 2 (B)</text><text x="50" y="462">61 Low Bongo (C#)</text><text x="50" y="449">63 Open Hi Conga (D#)</text><text x="50" y="436">66 Low Timbale (F#)</text><text x="50" y="423">68 Low Agogo (G#)</text><text x="50" y="410">70 Maracas (A#)</text><text x="381" y="426">73 Short Guiro (C#)</text><text x="381" y="439">75 Claves (D#)</text><text x="381" y="452">78 Mute Cuica (F#)</text><text x="381" y="465">80 Mute Triangle (G#)</text><text x="50" y="572">60 Hi Bongo (C)</text><text x="50" y="585">62 Mute Hi Conga (D)</text><text x="50" y="598">64 Low Conga (E)</text><text x="50" y="611">65 High Timbale (F)</text><text x="50" y="624">67 High Agogo (G)</text><text x="50" y="637">69 Cabasa (A)</text><text x="50" y="650">71 Short Whistle (B)</text><text x="50" y="663">72 Long Whistle (C)</text><text x="381" y="632">74 Long Guiro (D)</text><text x="381" y="619">76 Hi Wood Block (E)</text><text x="381" y="606">77 Low Wood Block (F)</text><text x="381" y="593">79 Open Cuica (G)</text><text x="381" y="580">81 Open Triangle (A)</text></g></svg>