<svg id="Layer_1" data-name="Layer 1" xmlns="http://www.w3.org/2000/svg" viewBox="0 0 419.27 427.47">
  <g>
    <circle cx="400.69" cy="187.01" r="26.71" fill="#ee342e"/>
    <path d="M403,177.32l7.64,20.43H406l-1.55-4.55h-7.64l-1.6,4.55h-4.52l7.72-20.43Zm.26,12.53-2.58-7.49h-.06L398,189.85Z" fill="#fff"/>
  </g>
  <g>
    <circle cx="92.71" cy="187.01" r="26.71" fill="#f5832b"/>
    <path d="M88.22,177.67l7.64,20.43H91.2l-1.55-4.55H82l-1.6,4.55H75.89l7.72-20.43Zm.26,12.53-2.58-7.5h-.05l-2.66,7.5Z" fill="#fff"/>
    <path d="M100.73,198.1v-4.7l-2.84.58v-2.67l2.84-.57v-4.46l-2.84.57v-2.66l2.84-.63V179.1l1.17-.2v4.43l3.15-.71v-5l1.2-.2v5l2.86-.6v2.72l-2.86.57v4.43l2.86-.54v2.66l-2.86.6v4.21l-1.2.23v-4.18l-3.15.74v4.73Zm1.17-7.64,3.15-.72v-4.46l-3.15.77Z" fill="#fff"/>
  </g>
  <g>
    <circle cx="215.9" cy="187.01" r="26.71" fill="#87c540"/>
    <path d="M219.93,182.38a4.49,4.49,0,0,0-1-1.13,4.54,4.54,0,0,0-1.36-.76,4.74,4.74,0,0,0-1.59-.27,5.29,5.29,0,0,0-2.58.58,4.89,4.89,0,0,0-1.71,1.58,6.75,6.75,0,0,0-1,2.24,11.23,11.23,0,0,0-.3,2.61,10.43,10.43,0,0,0,.3,2.5,6.76,6.76,0,0,0,1,2.19,4.93,4.93,0,0,0,1.71,1.56,5.29,5.29,0,0,0,2.58.58,4.15,4.15,0,0,0,3.22-1.25,5.91,5.91,0,0,0,1.42-3.32H225a10.48,10.48,0,0,1-.88,3.46,8.31,8.31,0,0,1-1.89,2.63,7.91,7.91,0,0,1-2.75,1.66,10.09,10.09,0,0,1-3.46.57,10.55,10.55,0,0,1-4.22-.81,9.19,9.19,0,0,1-3.16-2.25,9.9,9.9,0,0,1-2-3.36,12.56,12.56,0,0,1-.68-4.16,12.93,12.93,0,0,1,.68-4.25,10.17,10.17,0,0,1,2-3.42,8.9,8.9,0,0,1,3.16-2.29,10.39,10.39,0,0,1,4.22-.83,10.1,10.1,0,0,1,3.19.49,8.53,8.53,0,0,1,2.69,1.41,7.72,7.72,0,0,1,2,2.31,8.21,8.21,0,0,1,1,3.14h-4.35A3.52,3.52,0,0,0,219.93,182.38Z" fill="#fff"/>
  </g>
  <g>
    <circle cx="339.1" cy="187.01" r="26.71" fill="#00a99d"/>
    <path d="M338.87,177.05a10.48,10.48,0,0,1,3.67.63,8,8,0,0,1,2.95,1.89,8.81,8.81,0,0,1,1.95,3.14,12.69,12.69,0,0,1,.7,4.44,14.2,14.2,0,0,1-.57,4.12,9,9,0,0,1-1.73,3.26,8.11,8.11,0,0,1-2.89,2.16,9.74,9.74,0,0,1-4.08.79h-8.81V177.05Zm-.32,16.65a5.76,5.76,0,0,0,1.89-.31,4.08,4.08,0,0,0,1.63-1,5.22,5.22,0,0,0,1.15-1.9,8.53,8.53,0,0,0,.43-2.86,11.93,11.93,0,0,0-.3-2.79,5.51,5.51,0,0,0-1-2.13,4.33,4.33,0,0,0-1.82-1.36,7.13,7.13,0,0,0-2.79-.47h-3.2V193.7Z" fill="#fff"/>
  </g>
  <g>
    <circle cx="31.12" cy="187.01" r="26.71" fill="#00aeef"/>
    <path d="M24.82,177.57a10.48,10.48,0,0,1,3.67.63,8,8,0,0,1,3,1.89,8.77,8.77,0,0,1,1.95,3.15,12.6,12.6,0,0,1,.7,4.43,14.2,14.2,0,0,1-.57,4.12,9,9,0,0,1-1.73,3.26,8.11,8.11,0,0,1-2.89,2.16,9.74,9.74,0,0,1-4.08.79H16V177.57Zm-.32,16.65a5.76,5.76,0,0,0,1.89-.31,4.08,4.08,0,0,0,1.63-1,5.22,5.22,0,0,0,1.15-1.9,8.49,8.49,0,0,0,.43-2.86,11.93,11.93,0,0,0-.3-2.79,5.51,5.51,0,0,0-1-2.13,4.33,4.33,0,0,0-1.82-1.36,7.13,7.13,0,0,0-2.79-.47H20.5v12.87Z" fill="#fff"/>
    <path d="M40.3,198v-4.69l-2.83.57v-2.66l2.83-.57v-4.47l-2.83.58v-2.67l2.83-.62V179l1.17-.2v4.44l3.15-.72v-5l1.2-.2v4.95l2.86-.6v2.72l-2.86.57v4.44l2.86-.55v2.66l-2.86.61v4.2l-1.2.23v-4.18l-3.15.75v4.72Zm1.17-7.64,3.15-.71v-4.47l-3.15.77Z" fill="#fff"/>
  </g>
  <g>
    <circle cx="154.31" cy="187.01" r="26.71" fill="#2e3192"/>
    <path d="M162,176.8v3.78h-9.87v4.72h8.56v3.49h-8.56v8.44h-4.49V176.8Z" fill="#fff"/>
  </g>
  <g>
    <circle cx="277.5" cy="187.01" r="26.71" fill="#ec008c"/>
    <path d="M279.67,197.25a7.49,7.49,0,0,1-2.94.61,10.48,10.48,0,0,1-4.22-.81,9,9,0,0,1-3.17-2.25,9.87,9.87,0,0,1-2-3.36,12.27,12.27,0,0,1-.69-4.16,12.71,12.71,0,0,1,.69-4.25,10.15,10.15,0,0,1,2-3.42,9.07,9.07,0,0,1,3.17-2.29,10.32,10.32,0,0,1,4.22-.83,10.06,10.06,0,0,1,3,.47,8.77,8.77,0,0,1,2.66,1.39,7.37,7.37,0,0,1,2,2.26,7.67,7.67,0,0,1,.95,3.09h-4.29a4.33,4.33,0,0,0-1.55-2.57,4.44,4.44,0,0,0-2.77-.86,5.26,5.26,0,0,0-2.58.58,4.84,4.84,0,0,0-1.72,1.58,6.74,6.74,0,0,0-.95,2.24,11.23,11.23,0,0,0-.31,2.61,10.38,10.38,0,0,0,.31,2.5,6.74,6.74,0,0,0,.95,2.19,4.88,4.88,0,0,0,1.72,1.56,5.26,5.26,0,0,0,2.58.59,4.4,4.4,0,0,0,4.86-4.41h-4.52v-3.35h8.58v11h-2.86l-.46-2.32A6.67,6.67,0,0,1,279.67,197.25Z" fill="#fff"/>
  </g>
  <g>
    <circle cx="185.44" cy="133.58" r="26.71" fill="#ee342e"/>
    <path d="M187.79,123.89l7.64,20.43h-4.67l-1.54-4.55h-7.64l-1.6,4.55h-4.53l7.73-20.43Zm.25,12.53-2.57-7.5h-.06l-2.66,7.5Z" fill="#fff"/>
  </g>
  <g>
    <circle cx="308.63" cy="133.58" r="26.71" fill="#fff200"/>
    <path d="M310.82,123.47a12.86,12.86,0,0,1,2.66.25,5.91,5.91,0,0,1,2.06.85,3.81,3.81,0,0,1,1.33,1.56,5.4,5.4,0,0,1,.48,2.4,4.55,4.55,0,0,1-.7,2.58,5.07,5.07,0,0,1-2.08,1.68,4.94,4.94,0,0,1,2.82,1.91,6.25,6.25,0,0,1,.33,6,5.14,5.14,0,0,1-1.62,1.84,7.13,7.13,0,0,1-2.32,1.06,10.35,10.35,0,0,1-2.67.35h-9.9V123.47Zm-.57,8.27a3.16,3.16,0,0,0,2-.58,2.15,2.15,0,0,0,.78-1.86,2.41,2.41,0,0,0-.26-1.17,1.88,1.88,0,0,0-.69-.71,2.55,2.55,0,0,0-1-.36,6.34,6.34,0,0,0-1.16-.1H305.7v4.78Zm.26,8.66a6.41,6.41,0,0,0,1.26-.12,3.24,3.24,0,0,0,1.06-.43,2.13,2.13,0,0,0,.72-.82,3.26,3.26,0,0,0-.61-3.56,3.77,3.77,0,0,0-2.35-.67H305.7v5.6Z" fill="#fff"/>
  </g>
  <g>
    <circle cx="0.65" cy="133.58" r="26.71" fill="#87c540"/>
    <path d="M4.68,128.94a4.71,4.71,0,0,0-1-1.13,4.71,4.71,0,0,0-1.35-.76,4.74,4.74,0,0,0-1.59-.27,5.29,5.29,0,0,0-2.58.59,4.89,4.89,0,0,0-1.72,1.57,7.1,7.1,0,0,0-.95,2.25,11.21,11.21,0,0,0-.3,2.6,10.45,10.45,0,0,0,.3,2.51,6.81,6.81,0,0,0,.95,2.18A5,5,0,0,0-1.85,140a5.29,5.29,0,0,0,2.58.59A4.17,4.17,0,0,0,4,139.37a5.81,5.81,0,0,0,1.41-3.32H9.71a10.18,10.18,0,0,1-.89,3.46,8.29,8.29,0,0,1-1.88,2.64,8.33,8.33,0,0,1-2.75,1.66,10.09,10.09,0,0,1-3.46.57,10.35,10.35,0,0,1-4.22-.82,9.07,9.07,0,0,1-3.17-2.24,10.18,10.18,0,0,1-2-3.37,12.23,12.23,0,0,1-.69-4.16,12.76,12.76,0,0,1,.69-4.25,10.52,10.52,0,0,1,2-3.42,9,9,0,0,1,3.17-2.28A10.19,10.19,0,0,1,.73,123a10.44,10.44,0,0,1,3.19.48,8.77,8.77,0,0,1,2.69,1.42,7.81,7.81,0,0,1,2,2.3,8.31,8.31,0,0,1,1,3.15H5.19A3.83,3.83,0,0,0,4.68,128.94Z" fill="#fff"/>
  </g>
  <g>
    <circle cx="430.98" cy="133.58" r="26.71" fill="#00a651"/>
    <path d="M428.29,128.89a4.47,4.47,0,0,0-1-1.13,4.67,4.67,0,0,0-2.94-1,5.26,5.26,0,0,0-2.58.59,4.81,4.81,0,0,0-1.72,1.57,6.88,6.88,0,0,0-.95,2.25,10.64,10.64,0,0,0-.31,2.6,9.9,9.9,0,0,0,.31,2.5,6.74,6.74,0,0,0,.95,2.19,4.88,4.88,0,0,0,1.72,1.56,5.26,5.26,0,0,0,2.58.59,4.14,4.14,0,0,0,3.21-1.26A5.78,5.78,0,0,0,429,136h4.35a10.18,10.18,0,0,1-.89,3.46,8.16,8.16,0,0,1-1.89,2.64,8,8,0,0,1-2.74,1.65,9.89,9.89,0,0,1-3.46.58,10.48,10.48,0,0,1-4.22-.82,9.07,9.07,0,0,1-3.17-2.24,10,10,0,0,1-2-3.37,12.23,12.23,0,0,1-.69-4.16,12.71,12.71,0,0,1,.69-4.25,10.25,10.25,0,0,1,2-3.42,9.19,9.19,0,0,1,3.17-2.29,10.32,10.32,0,0,1,4.22-.83,10.19,10.19,0,0,1,3.19.49,8.67,8.67,0,0,1,2.69,1.42,7.68,7.68,0,0,1,2,2.3,8.43,8.43,0,0,1,1,3.15h-4.35A3.68,3.68,0,0,0,428.29,128.89Z" fill="#fff"/>
  </g>
  <g>
    <circle cx="123.84" cy="133.58" r="26.71" fill="#00a99d"/>
    <path d="M123.62,123.62a10.71,10.71,0,0,1,3.67.62,8,8,0,0,1,3,1.89,8.77,8.77,0,0,1,1.95,3.15,12.93,12.93,0,0,1,.7,4.44,13.79,13.79,0,0,1-.58,4.11,9,9,0,0,1-1.73,3.27,8.17,8.17,0,0,1-2.89,2.16,9.82,9.82,0,0,1-4.07.78H114.8V123.62Zm-.32,16.65a5.77,5.77,0,0,0,1.89-.32,4.24,4.24,0,0,0,1.63-1A5.3,5.3,0,0,0,128,137a8.61,8.61,0,0,0,.42-2.87,11.78,11.78,0,0,0-.3-2.78,5.77,5.77,0,0,0-1-2.14,4.48,4.48,0,0,0-1.82-1.36,7.32,7.32,0,0,0-2.79-.47h-3.21v12.88Z" fill="#fff"/>
  </g>
  <g>
    <circle cx="247.04" cy="133.58" r="26.71" fill="#0072bc"/>
    <path d="M254.56,123.74v3.77H243.77v4.38h9.91v3.49h-9.91v5h11v3.78H239.28V123.74Z" fill="#fff"/>
  </g>
  <g>
    <circle cx="369.38" cy="133.58" r="26.71" fill="#92278f"/>
    <path d="M370.85,123.68v3.77H361v4.72h8.55v3.49H361v8.44h-4.49V123.68Z" fill="#fff"/>
    <path d="M376.54,144.1v-4.69l-2.83.57v-2.66l2.83-.57v-4.46l-2.83.57V130.2l2.83-.63v-4.46l1.18-.2v4.43l3.14-.72v-5l1.21-.2v5l2.86-.6v2.72l-2.86.57v4.43l2.86-.54v2.66l-2.86.6v4.21l-1.21.23v-4.18l-3.14.74v4.72Zm1.18-7.63,3.14-.72v-4.46l-3.14.77Z" fill="#fff"/>
  </g>
  <g>
    <circle cx="62.25" cy="133.58" r="26.71" fill="#ec008c"/>
    <path d="M64.42,143.81a7.55,7.55,0,0,1-3,.62,10.38,10.38,0,0,1-4.22-.82,9,9,0,0,1-3.16-2.24,9.9,9.9,0,0,1-2-3.36,12.33,12.33,0,0,1-.69-4.17,12.76,12.76,0,0,1,.69-4.25,10.18,10.18,0,0,1,2-3.42,9,9,0,0,1,3.16-2.28,10.22,10.22,0,0,1,4.22-.83,9.77,9.77,0,0,1,3,.47,8.55,8.55,0,0,1,2.66,1.39,7.53,7.53,0,0,1,2.91,5.35h-4.3a4.26,4.26,0,0,0-1.54-2.58,4.51,4.51,0,0,0-2.78-.86,5.22,5.22,0,0,0-2.57.59A4.9,4.9,0,0,0,57.18,129a6.9,6.9,0,0,0-1,2.25,11.21,11.21,0,0,0-.3,2.6,10.45,10.45,0,0,0,.3,2.51,6.62,6.62,0,0,0,1,2.18,4.88,4.88,0,0,0,1.72,1.56,5.12,5.12,0,0,0,2.57.59,4.39,4.39,0,0,0,4.87-4.41H61.82v-3.34H70.4v11H67.54l-.46-2.32A6.74,6.74,0,0,1,64.42,143.81Z" fill="#fff"/>
  </g>
  <g>
    <circle cx="402.03" cy="80.14" r="26.71" fill="#f5832b"/>
    <path d="M397.54,70.8l7.64,20.43h-4.67L399,86.68h-7.64l-1.6,4.55h-4.52l7.72-20.43Zm.26,12.53-2.58-7.5h-.06l-2.66,7.5Z" fill="#fff"/>
    <path d="M410,91.23v-4.7l-2.83.58V84.45l2.83-.58V79.41l-2.83.57V77.32l2.83-.63V72.23l1.18-.2v4.43l3.14-.71v-5l1.2-.2v4.95l2.87-.6v2.72l-2.87.57v4.43l2.87-.54v2.66l-2.87.6v4.21l-1.2.23V85.59l-3.14.74v4.73Zm1.18-7.64,3.14-.72V78.41l-3.14.77Z" fill="#fff"/>
  </g>
  <g>
    <circle cx="94.05" cy="80.14" r="26.71" fill="#fff200"/>
    <path d="M96.24,70a12.83,12.83,0,0,1,2.66.26,5.72,5.72,0,0,1,2.06.84,4,4,0,0,1,1.33,1.56,5.42,5.42,0,0,1,.47,2.41,4.42,4.42,0,0,1-.7,2.57A5.05,5.05,0,0,1,100,79.36a4.92,4.92,0,0,1,2.82,1.9,5.68,5.68,0,0,1,.93,3.28,5.6,5.6,0,0,1-.6,2.67,5.18,5.18,0,0,1-1.62,1.85,7.13,7.13,0,0,1-2.32,1.06,10.4,10.4,0,0,1-2.67.34h-9.9V70Zm-.57,8.27a3.22,3.22,0,0,0,2-.57,2.14,2.14,0,0,0,.77-1.86,2.36,2.36,0,0,0-.25-1.17,1.84,1.84,0,0,0-.69-.72,3,3,0,0,0-1-.36,7.16,7.16,0,0,0-1.16-.1h-4.2V78.3ZM95.93,87a5.7,5.7,0,0,0,1.25-.13,2.88,2.88,0,0,0,1.06-.43A2.12,2.12,0,0,0,99,85.6a2.84,2.84,0,0,0,.27-1.32A2.65,2.65,0,0,0,98.36,82,3.85,3.85,0,0,0,96,81.36H91.12V87Z" fill="#fff"/>
  </g>
  <g>
    <circle cx="217.24" cy="80.14" r="26.71" fill="#00a651"/>
    <path d="M214.56,75.46a4.49,4.49,0,0,0-1-1.13,4.54,4.54,0,0,0-1.36-.76,4.74,4.74,0,0,0-1.59-.27,5.29,5.29,0,0,0-2.58.58,4.89,4.89,0,0,0-1.71,1.58,6.75,6.75,0,0,0-1,2.24,11.23,11.23,0,0,0-.3,2.61,10.43,10.43,0,0,0,.3,2.5,6.76,6.76,0,0,0,1,2.19A4.93,4.93,0,0,0,208,86.56a5.29,5.29,0,0,0,2.58.58,4.15,4.15,0,0,0,3.22-1.25,5.84,5.84,0,0,0,1.41-3.32h4.35a10.48,10.48,0,0,1-.88,3.46,8.31,8.31,0,0,1-1.89,2.63,7.91,7.91,0,0,1-2.75,1.66,10.09,10.09,0,0,1-3.46.57,10.52,10.52,0,0,1-4.22-.81,9.09,9.09,0,0,1-3.16-2.25,9.9,9.9,0,0,1-2-3.36,12.56,12.56,0,0,1-.68-4.16,12.93,12.93,0,0,1,.68-4.25,10.17,10.17,0,0,1,2-3.42,8.82,8.82,0,0,1,3.16-2.29,10.35,10.35,0,0,1,4.22-.83,10.14,10.14,0,0,1,3.19.49,8.53,8.53,0,0,1,2.69,1.41,7.72,7.72,0,0,1,2,2.31,8.21,8.21,0,0,1,1,3.14h-4.35A3.68,3.68,0,0,0,214.56,75.46Z" fill="#fff"/>
    <path d="M225.74,90.43V85.74l-2.83.57V83.65l2.83-.57V78.62l-2.83.57V76.53l2.83-.63V71.44l1.18-.2v4.43l3.15-.72V70l1.2-.2v5l2.86-.6v2.72l-2.86.57v4.43l2.86-.54v2.66l-2.86.6v4.21l-1.2.23V84.8l-3.15.74v4.72Zm1.18-7.63,3.15-.72V77.62l-3.15.77Z" fill="#fff"/>
  </g>
  <g>
    <circle cx="340.43" cy="80.14" r="26.71" fill="#00aeef"/>
    <path d="M334.13,70.7a10.5,10.5,0,0,1,3.68.63,8,8,0,0,1,2.95,1.89,8.61,8.61,0,0,1,1.94,3.15,12.67,12.67,0,0,1,.71,4.43,14.19,14.19,0,0,1-.58,4.12,9,9,0,0,1-1.73,3.26,7.94,7.94,0,0,1-2.89,2.16,9.67,9.67,0,0,1-4.08.79h-8.81V70.7Zm-.31,16.65a5.76,5.76,0,0,0,1.89-.31,4.24,4.24,0,0,0,1.63-1,5.11,5.11,0,0,0,1.14-1.91,8.24,8.24,0,0,0,.43-2.86,11.93,11.93,0,0,0-.3-2.79,5.65,5.65,0,0,0-1-2.13A4.48,4.48,0,0,0,335.81,75a7.36,7.36,0,0,0-2.79-.47h-3.21V87.35Z" fill="#fff"/>
    <path d="M349.61,91.13V86.44l-2.83.57V84.35l2.83-.57V79.31l-2.83.58V77.23l2.83-.63V72.13l1.18-.2v4.44l3.15-.72v-5l1.2-.21v5l2.86-.61v2.72l-2.86.57v4.44L358,82v2.67l-2.86.6v4.2l-1.2.23V85.5l-3.15.74V91Zm1.18-7.64,3.15-.71V78.31l-3.15.78Z" fill="#fff"/>
  </g>
  <g>
    <circle cx="32.46" cy="80.14" r="26.71" fill="#0072bc"/>
    <path d="M40,70.3v3.78H29.19v4.38h9.9V82h-9.9v5h11v3.78H24.7V70.3Z" fill="#fff"/>
  </g>
  <g>
    <circle cx="155.64" cy="80.14" r="26.71" fill="#92278f"/>
    <path d="M157.11,70.24V74h-9.87v4.72h8.56v3.49h-8.56v8.44h-4.49V70.24Z" fill="#fff"/>
    <path d="M162.81,90.67V86l-2.83.57V83.89l2.83-.57V78.85l-2.83.58V76.77l2.83-.63V71.67l1.17-.2v4.44l3.15-.72v-5l1.2-.2v5l2.86-.6v2.72l-2.86.57v4.44l2.86-.55v2.66l-2.86.61V89l-1.2.23V85l-3.15.75V90.5ZM164,83l3.15-.71V77.85l-3.15.77Z" fill="#fff"/>
  </g>
  <g>
    <circle cx="278.84" cy="80.14" r="26.71" fill="#e11156"/>
    <path d="M276.63,90.56a7.53,7.53,0,0,1-2.95.61,10.55,10.55,0,0,1-4.22-.81,9.19,9.19,0,0,1-3.16-2.25,9.72,9.72,0,0,1-2-3.36,12.31,12.31,0,0,1-.69-4.16,12.77,12.77,0,0,1,.69-4.26,10,10,0,0,1,2-3.41,8.9,8.9,0,0,1,3.16-2.29,10.22,10.22,0,0,1,4.22-.83,9.77,9.77,0,0,1,3.05.47,8.55,8.55,0,0,1,2.66,1.39A7.53,7.53,0,0,1,282.3,77H278a4.29,4.29,0,0,0-1.54-2.58,4.5,4.5,0,0,0-2.78-.85,5.22,5.22,0,0,0-2.57.58,4.9,4.9,0,0,0-1.72,1.57,6.9,6.9,0,0,0-1,2.25,11.23,11.23,0,0,0-.3,2.61,10.43,10.43,0,0,0,.3,2.5,6.76,6.76,0,0,0,1,2.19,5,5,0,0,0,1.72,1.56,5.22,5.22,0,0,0,2.57.58,4.85,4.85,0,0,0,3.45-1.13A4.93,4.93,0,0,0,278.55,83H274V79.67h8.58v11h-2.86l-.46-2.31A6.74,6.74,0,0,1,276.63,90.56Z" fill="#fff"/>
    <path d="M289.33,90.71V86l-2.83.57V83.93l2.83-.57V78.9l-2.83.57V76.81l2.83-.63V71.71l1.18-.2V76l3.14-.72v-5l1.21-.2v5l2.86-.6v2.71l-2.86.58V82.1l2.86-.54v2.66l-2.86.6V89l-1.21.22V85.08l-3.14.74v4.72Zm1.18-7.64,3.14-.71V77.89l-3.14.78Z" fill="#fff"/>
  </g>
  <g>
    <circle cx="196.35" cy="26.71" r="26.71" fill="#f5832b"/>
    <path d="M191.86,17.36l7.64,20.43h-4.66l-1.55-4.55h-7.64l-1.6,4.55h-4.52l7.72-20.43Zm.26,12.54-2.58-7.5h0l-2.66,7.5Z" fill="#fff"/>
    <path d="M204.37,37.79V33.1l-2.84.57V31l2.84-.57V26l-2.84.57V23.89l2.84-.63V18.79l1.17-.2V23l3.15-.72v-5l1.2-.2v4.95l2.86-.6v2.71l-2.86.58v4.43l2.86-.54V31.3l-2.86.6v4.21l-1.2.22V32.16l-3.15.74v4.72Zm1.17-7.64,3.15-.71V25l-3.15.78Z" fill="#fff"/>
  </g>
  <g>
    <circle cx="319.55" cy="26.71" r="26.71" fill="#87c540"/>
    <path d="M323.57,22.07a4.67,4.67,0,0,0-1-1.13,5,5,0,0,0-1.36-.76,4.74,4.74,0,0,0-1.59-.27,5.29,5.29,0,0,0-2.58.59,5,5,0,0,0-1.71,1.57,6.9,6.9,0,0,0-1,2.25,11.21,11.21,0,0,0-.3,2.6,10.45,10.45,0,0,0,.3,2.51,6.62,6.62,0,0,0,1,2.18A4.93,4.93,0,0,0,317,33.17a5.18,5.18,0,0,0,2.58.59,4.16,4.16,0,0,0,3.22-1.26,5.88,5.88,0,0,0,1.42-3.32h4.34a10.54,10.54,0,0,1-.88,3.47,8.43,8.43,0,0,1-1.89,2.63,8.07,8.07,0,0,1-2.75,1.66,10.09,10.09,0,0,1-3.46.57,10.38,10.38,0,0,1-4.22-.82,9,9,0,0,1-3.16-2.24,10,10,0,0,1-2-3.36,12.58,12.58,0,0,1-.68-4.17,13,13,0,0,1,.68-4.25,10.37,10.37,0,0,1,2-3.42A9,9,0,0,1,315.4,17a10.22,10.22,0,0,1,4.22-.83,10.39,10.39,0,0,1,3.19.48A8.77,8.77,0,0,1,325.5,18a7.81,7.81,0,0,1,2,2.3,8.14,8.14,0,0,1,1,3.15h-4.35A3.51,3.51,0,0,0,323.57,22.07Z" fill="#fff"/>
  </g>
  <g>
    <circle cx="10.72" cy="26.71" r="26.71" fill="#00a651"/>
    <path d="M8,22a4.51,4.51,0,0,0-1-1.13,4.61,4.61,0,0,0-2.94-1,5.29,5.29,0,0,0-2.58.59A4.86,4.86,0,0,0-.2,22a6.9,6.9,0,0,0-1,2.25,11.15,11.15,0,0,0-.3,2.6,10.45,10.45,0,0,0,.3,2.51,6.62,6.62,0,0,0,1,2.18,4.93,4.93,0,0,0,1.71,1.56,5.29,5.29,0,0,0,2.58.59,4.17,4.17,0,0,0,3.22-1.26,5.84,5.84,0,0,0,1.41-3.32h4.35a10.42,10.42,0,0,1-.88,3.46,8.47,8.47,0,0,1-1.89,2.64,8.33,8.33,0,0,1-2.75,1.66,10.09,10.09,0,0,1-3.46.57,10.35,10.35,0,0,1-4.22-.82A8.94,8.94,0,0,1-3.29,34.4a10,10,0,0,1-2-3.37,12.23,12.23,0,0,1-.68-4.16,12.75,12.75,0,0,1,.68-4.25,10.37,10.37,0,0,1,2-3.42A8.91,8.91,0,0,1-.13,16.92a10.19,10.19,0,0,1,4.22-.84,10.44,10.44,0,0,1,3.19.49A8.77,8.77,0,0,1,10,18a7.81,7.81,0,0,1,2,2.3,8.31,8.31,0,0,1,1,3.15H8.55A3.67,3.67,0,0,0,8,22Z" fill="#fff"/>
    <path d="M19.22,37V32.31l-2.83.57V30.22l2.83-.57V25.18l-2.83.58V23.1l2.83-.63V18l1.18-.2v4.44l3.14-.72v-5l1.21-.2v5l2.86-.6v2.72L24.75,24v4.44l2.86-.55V30.5l-2.86.61v4.2l-1.21.23V31.36l-3.14.75v4.72Zm1.18-7.64,3.14-.71V24.18L20.4,25Z" fill="#fff"/>
  </g>
  <circle cx="442.74" cy="26.71" r="26.71" fill="#00a99d"/>
  <g>
    <circle cx="134.76" cy="26.71" r="26.71" fill="#00aeef"/>
    <path d="M128.46,17.27a10.58,10.58,0,0,1,3.68.63,8,8,0,0,1,2.94,1.89A8.72,8.72,0,0,1,137,22.93a12.69,12.69,0,0,1,.7,4.44,14.2,14.2,0,0,1-.57,4.12,9.1,9.1,0,0,1-1.73,3.26,8.11,8.11,0,0,1-2.89,2.16,9.74,9.74,0,0,1-4.08.79h-8.81V17.27Zm-.32,16.65a5.76,5.76,0,0,0,1.89-.31,4.08,4.08,0,0,0,1.63-1,5.3,5.3,0,0,0,1.15-1.9,8.53,8.53,0,0,0,.43-2.86,11.93,11.93,0,0,0-.3-2.79,5.51,5.51,0,0,0-1-2.13,4.25,4.25,0,0,0-1.82-1.36,7.13,7.13,0,0,0-2.79-.47h-3.2V33.92Z" fill="#fff"/>
    <path d="M143.94,37.7V33l-2.83.58V30.92l2.83-.58V25.88l-2.83.57V23.79l2.83-.63V18.7l1.17-.2v4.43l3.15-.71v-5l1.2-.2V22l2.86-.6v2.72l-2.86.57v4.43l2.86-.54V31.2l-2.86.6V36l-1.2.23V32.06l-3.15.74v4.73Zm1.17-7.64,3.15-.72V24.88l-3.15.77Z" fill="#fff"/>
  </g>
  <g>
    <circle cx="257.95" cy="26.71" r="26.71" fill="#2e3192"/>
    <path d="M265.65,16.5v3.77h-9.87V25h8.56v3.49h-8.56v8.45h-4.49V16.5Z" fill="#fff"/>
  </g>
  <g>
    <circle cx="381.14" cy="26.71" r="26.71" fill="#ec008c"/>
    <path d="M383.31,37a7.49,7.49,0,0,1-2.94.61,10.32,10.32,0,0,1-4.22-.82A9.07,9.07,0,0,1,373,34.5a10,10,0,0,1-2-3.36,12.33,12.33,0,0,1-.69-4.17,12.76,12.76,0,0,1,.69-4.25,10.37,10.37,0,0,1,2-3.41A8.94,8.94,0,0,1,376.15,17a10.16,10.16,0,0,1,4.22-.83,9.71,9.71,0,0,1,3,.47,8.44,8.44,0,0,1,2.66,1.39,7.37,7.37,0,0,1,2,2.26,7.58,7.58,0,0,1,1,3.09h-4.29a4.32,4.32,0,0,0-1.55-2.58,4.5,4.5,0,0,0-2.77-.86,5.26,5.26,0,0,0-2.58.59,4.9,4.9,0,0,0-1.72,1.57,7.1,7.1,0,0,0-.95,2.25,11.21,11.21,0,0,0-.31,2.6,10.46,10.46,0,0,0,.31,2.51,7,7,0,0,0,.95,2.19,5,5,0,0,0,1.72,1.56,5.26,5.26,0,0,0,2.58.58,4.39,4.39,0,0,0,4.86-4.4h-4.52V26.06h8.58v11h-2.86L386,34.79A6.67,6.67,0,0,1,383.31,37Z" fill="#fff"/>
  </g>
  <g>
    <circle cx="72.32" cy="26.71" r="26.71" fill="#e11156"/>
    <path d="M70.11,37.12a7.55,7.55,0,0,1-3,.62,10.38,10.38,0,0,1-4.22-.82,9,9,0,0,1-3.16-2.24,9.85,9.85,0,0,1-2-3.37,12.23,12.23,0,0,1-.69-4.16,12.71,12.71,0,0,1,.69-4.25,10.08,10.08,0,0,1,2-3.42,9.15,9.15,0,0,1,3.16-2.29,10.39,10.39,0,0,1,4.22-.83,9.78,9.78,0,0,1,3,.48,8.53,8.53,0,0,1,2.66,1.38,7.77,7.77,0,0,1,2,2.26,7.51,7.51,0,0,1,.94,3.09H71.48A4.31,4.31,0,0,0,69.94,21a4.53,4.53,0,0,0-2.78-.86,5.22,5.22,0,0,0-2.57.59,4.81,4.81,0,0,0-1.72,1.57,6.9,6.9,0,0,0-1,2.25,11.15,11.15,0,0,0-.3,2.6,10.37,10.37,0,0,0,.3,2.5,6.76,6.76,0,0,0,1,2.19,4.88,4.88,0,0,0,1.72,1.56,5.22,5.22,0,0,0,2.57.59,4.89,4.89,0,0,0,3.45-1.13A5,5,0,0,0,72,29.58H67.51V26.24h8.58v11H73.23L72.77,35A6.74,6.74,0,0,1,70.11,37.12Z" fill="#fff"/>
    <path d="M82.81,37.28V32.59L80,33.16V30.5l2.83-.57V25.46L80,26V23.37l2.83-.63V18.28l1.18-.2v4.43l3.14-.71v-5l1.21-.2v4.95l2.86-.6v2.72l-2.86.57v4.44l2.86-.55v2.66l-2.86.61v4.2l-1.21.23V31.64L84,32.39v4.72ZM84,29.64l3.14-.72V24.46L84,25.23Z" fill="#fff"/>
  </g>
  <g>
    <circle cx="204.41" cy="400.75" r="26.71" fill="#f5832b"/>
    <path d="M199.92,391.41l7.64,20.43H202.9l-1.55-4.55h-7.63l-1.61,4.55h-4.52l7.73-20.43Zm.26,12.53-2.57-7.5h-.06l-2.66,7.5Z" fill="#fff"/>
    <path d="M212.43,411.84v-4.69l-2.83.57v-2.66l2.83-.58V400l-2.83.57v-2.66l2.83-.63v-4.46l1.17-.2v4.43l3.15-.71v-5l1.2-.2v5l2.86-.6v2.72l-2.86.57v4.43l2.86-.54v2.66l-2.86.6v4.21l-1.2.23V406.2l-3.15.74v4.73Zm1.17-7.64,3.15-.72V399l-3.15.77Z" fill="#fff"/>
  </g>
  <g>
    <circle cx="327.61" cy="400.75" r="26.71" fill="#87c540"/>
    <path d="M331.63,396.12a4.49,4.49,0,0,0-1-1.13,4.54,4.54,0,0,0-1.36-.76,4.74,4.74,0,0,0-1.59-.27,5.22,5.22,0,0,0-2.57.58,4.84,4.84,0,0,0-1.72,1.58,6.84,6.84,0,0,0-1,2.24,11.23,11.23,0,0,0-.3,2.61,10.37,10.37,0,0,0,.3,2.5,6.76,6.76,0,0,0,1,2.19,4.88,4.88,0,0,0,1.72,1.56,5.22,5.22,0,0,0,2.57.59,4.14,4.14,0,0,0,3.22-1.26,5.85,5.85,0,0,0,1.42-3.32h4.35a10.42,10.42,0,0,1-.89,3.46,8.31,8.31,0,0,1-1.89,2.63,7.91,7.91,0,0,1-2.75,1.66,10.09,10.09,0,0,1-3.46.58,10.55,10.55,0,0,1-4.22-.82,8.93,8.93,0,0,1-3.16-2.25,9.72,9.72,0,0,1-2-3.36,12.27,12.27,0,0,1-.69-4.16,12.71,12.71,0,0,1,.69-4.25,10,10,0,0,1,2-3.42,9,9,0,0,1,3.16-2.29,10.39,10.39,0,0,1,4.22-.83,10.1,10.1,0,0,1,3.19.49,8.53,8.53,0,0,1,2.69,1.41,7.58,7.58,0,0,1,2,2.31,8,8,0,0,1,1,3.14h-4.34A3.69,3.69,0,0,0,331.63,396.12Z" fill="#fff"/>
  </g>
  <g>
    <circle cx="19.63" cy="400.75" r="26.71" fill="#00a651"/>
    <path d="M16.94,396.07a4.3,4.3,0,0,0-1-1.13,4.42,4.42,0,0,0-1.36-.76,4.66,4.66,0,0,0-1.59-.27,5.25,5.25,0,0,0-2.57.58,4.84,4.84,0,0,0-1.72,1.58,6.75,6.75,0,0,0-1,2.24,11.23,11.23,0,0,0-.3,2.61,10.43,10.43,0,0,0,.3,2.5,6.76,6.76,0,0,0,1,2.19,4.88,4.88,0,0,0,1.72,1.56,5.25,5.25,0,0,0,2.57.58,4.14,4.14,0,0,0,3.22-1.25,5.78,5.78,0,0,0,1.42-3.32H22a10.48,10.48,0,0,1-.89,3.46,8,8,0,0,1-1.89,2.63,7.87,7.87,0,0,1-2.74,1.66,10.14,10.14,0,0,1-3.47.57,10.55,10.55,0,0,1-4.22-.81,9.28,9.28,0,0,1-3.16-2.25,9.87,9.87,0,0,1-2-3.36A12.31,12.31,0,0,1,3,400.92a12.67,12.67,0,0,1,.69-4.25,10.15,10.15,0,0,1,2-3.42A9,9,0,0,1,8.77,391a10.39,10.39,0,0,1,4.22-.83,10.21,10.21,0,0,1,3.2.49A8.64,8.64,0,0,1,18.88,392a7.72,7.72,0,0,1,2,2.31,8.38,8.38,0,0,1,1,3.14H17.46A3.69,3.69,0,0,0,16.94,396.07Z" fill="#fff"/>
    <path d="M28.13,411.05v-4.7l-2.83.57v-2.66l2.83-.57v-4.46l-2.83.57v-2.66l2.83-.63v-4.46l1.17-.2v4.43l3.15-.71v-5l1.2-.2v4.95l2.86-.6v2.72l-2.86.57v4.43l2.86-.54v2.66l-2.86.6v4.21l-1.2.23v-4.18l-3.15.74v4.72Zm1.17-7.64,3.15-.72v-4.46L29.3,399Z" fill="#fff"/>
  </g>
  <g>
    <circle cx="142.82" cy="400.75" r="26.71" fill="#00aeef"/>
    <path d="M136.52,391.31a10.54,10.54,0,0,1,3.68.63,8.12,8.12,0,0,1,3,1.89,8.89,8.89,0,0,1,1.94,3.15,12.68,12.68,0,0,1,.7,4.43,14.2,14.2,0,0,1-.57,4.12,9,9,0,0,1-1.73,3.26A8,8,0,0,1,140.6,411a9.74,9.74,0,0,1-4.08.79h-8.81V391.31ZM136.21,408a5.75,5.75,0,0,0,1.88-.31,4.28,4.28,0,0,0,1.64-1,5.39,5.39,0,0,0,1.14-1.91,8.24,8.24,0,0,0,.43-2.86,11.93,11.93,0,0,0-.3-2.79,5.51,5.51,0,0,0-1-2.13,4.42,4.42,0,0,0-1.82-1.36,7.32,7.32,0,0,0-2.79-.47h-3.2V408Z" fill="#fff"/>
    <path d="M152,411.74v-4.69l-2.83.57V405l2.83-.57v-4.47l-2.83.58v-2.66l2.83-.63v-4.47l1.17-.2V397l3.15-.72v-5l1.2-.21v5l2.86-.61v2.72l-2.86.57v4.44l2.86-.54v2.66l-2.86.6v4.2l-1.2.23v-4.17l-3.15.74v4.72Zm1.17-7.64,3.15-.71v-4.47l-3.15.78Z" fill="#fff"/>
  </g>
  <g>
    <circle cx="266.01" cy="400.75" r="26.71" fill="#2e3192"/>
    <path d="M273.71,390.54v3.78h-9.87V399h8.56v3.49h-8.56V411h-4.49V390.54Z" fill="#fff"/>
  </g>
  <g>
    <circle cx="389.2" cy="400.75" r="26.71" fill="#ec008c"/>
    <path d="M391.37,411a7.5,7.5,0,0,1-2.94.62,10.52,10.52,0,0,1-4.22-.82,8.84,8.84,0,0,1-3.16-2.25,9.9,9.9,0,0,1-2-3.36,12.27,12.27,0,0,1-.69-4.16,12.71,12.71,0,0,1,.69-4.25,10.17,10.17,0,0,1,2-3.42,8.94,8.94,0,0,1,3.16-2.29,10.35,10.35,0,0,1,4.22-.83,10,10,0,0,1,3,.47,8.82,8.82,0,0,1,2.67,1.39,7.77,7.77,0,0,1,2,2.26,7.67,7.67,0,0,1,.94,3.09h-4.29a4.28,4.28,0,0,0-1.55-2.57,4.5,4.5,0,0,0-2.77-.86,5.29,5.29,0,0,0-2.58.58,4.9,4.9,0,0,0-1.71,1.58,6.94,6.94,0,0,0-1,2.24,11.23,11.23,0,0,0-.3,2.61,10.37,10.37,0,0,0,.3,2.5,6.76,6.76,0,0,0,1,2.19,4.84,4.84,0,0,0,1.71,1.56,5.29,5.29,0,0,0,2.58.59,4.37,4.37,0,0,0,4.86-4.41h-4.52V400.1h8.59v11h-2.87l-.45-2.32A6.7,6.7,0,0,1,391.37,411Z" fill="#fff"/>
  </g>
  <g>
    <circle cx="81.22" cy="400.75" r="26.71" fill="#e11156"/>
    <path d="M79,411.17a7.57,7.57,0,0,1-3,.61,10.52,10.52,0,0,1-4.22-.81,9.09,9.09,0,0,1-3.16-2.25,9.9,9.9,0,0,1-2-3.36A12.56,12.56,0,0,1,66,401.2a13,13,0,0,1,.68-4.26,10.22,10.22,0,0,1,2-3.41,8.82,8.82,0,0,1,3.16-2.29,10.19,10.19,0,0,1,4.22-.83,9.82,9.82,0,0,1,3.05.47,8.55,8.55,0,0,1,2.66,1.39,7.48,7.48,0,0,1,2.9,5.35H80.39A4.3,4.3,0,0,0,78.84,395a4.48,4.48,0,0,0-2.77-.85,5.29,5.29,0,0,0-2.58.58,4.89,4.89,0,0,0-1.71,1.58,6.75,6.75,0,0,0-1,2.24,11.23,11.23,0,0,0-.3,2.61,10.43,10.43,0,0,0,.3,2.5,6.76,6.76,0,0,0,1,2.19,4.93,4.93,0,0,0,1.71,1.56,5.29,5.29,0,0,0,2.58.58,4.37,4.37,0,0,0,4.86-4.4H76.41v-3.35H85v11H82.13L81.68,409A6.74,6.74,0,0,1,79,411.17Z" fill="#fff"/>
    <path d="M91.72,411.32v-4.69l-2.83.57v-2.66l2.83-.57v-4.46l-2.83.57v-2.66l2.83-.63v-4.47l1.17-.2v4.44l3.15-.72v-5l1.2-.2v4.95l2.86-.6v2.71l-2.86.58v4.43l2.86-.54v2.66l-2.86.6v4.21l-1.2.22v-4.17l-3.15.74v4.72Zm1.17-7.64L96,403V398.5l-3.15.78Z" fill="#fff"/>
  </g>
  <g>
    <circle cx="297.14" cy="347.32" r="26.71" fill="#ee342e"/>
    <path d="M299.49,337.63l7.64,20.43h-4.66l-1.55-4.55h-7.64l-1.6,4.55h-4.52l7.72-20.43Zm.26,12.53-2.58-7.5h-.06l-2.66,7.5Z" fill="#fff"/>
  </g>
  <g>
    <circle cx="-10.84" cy="347.32" r="26.71" fill="#f5832b"/>
    <path d="M-2.83,358.4v-4.69l-2.83.57v-2.66l2.83-.57v-4.46l-2.83.57V344.5l2.83-.63V339.4l1.18-.2v4.44l3.15-.72v-5l1.2-.2v4.95l2.86-.6v2.71l-2.86.58v4.43l2.86-.54v2.66l-2.86.6v4.21l-1.2.22v-4.17l-3.15.74v4.72Zm1.18-7.64,3.15-.71v-4.47l-3.15.78Z" fill="#fff"/>
  </g>
  <g>
    <circle cx="420.34" cy="347.32" r="26.71" fill="#fff200"/>
    <path d="M422.52,337.21a13,13,0,0,1,2.67.25,6,6,0,0,1,2.06.85,4,4,0,0,1,1.33,1.56,5.55,5.55,0,0,1,.47,2.4,4.55,4.55,0,0,1-.7,2.58,5.17,5.17,0,0,1-2.08,1.69,4.88,4.88,0,0,1,2.82,1.9,6.25,6.25,0,0,1,.33,5.95,5.26,5.26,0,0,1-1.62,1.85,7.06,7.06,0,0,1-2.31,1.05,10.43,10.43,0,0,1-2.68.35h-9.9V337.21Zm-.57,8.27a3.21,3.21,0,0,0,2-.58,2.16,2.16,0,0,0,.77-1.85,2.43,2.43,0,0,0-.26-1.18,1.93,1.93,0,0,0-.68-.71,3.07,3.07,0,0,0-1-.36,6.26,6.26,0,0,0-1.16-.1H417.4v4.78Zm.26,8.67a6.4,6.4,0,0,0,1.26-.13,3.24,3.24,0,0,0,1.06-.43,2.16,2.16,0,0,0,.73-.82,2.8,2.8,0,0,0,.27-1.31,2.66,2.66,0,0,0-.89-2.25,3.76,3.76,0,0,0-2.34-.67h-4.9v5.61Z" fill="#fff"/>
  </g>
  <g>
    <circle cx="112.35" cy="347.32" r="26.71" fill="#87c540"/>
    <path d="M116.38,342.68a4.67,4.67,0,0,0-1-1.13,4.74,4.74,0,0,0-1.36-.75,4.51,4.51,0,0,0-1.59-.28,5.29,5.29,0,0,0-2.58.59,5,5,0,0,0-1.71,1.57,6.9,6.9,0,0,0-1,2.25,11.21,11.21,0,0,0-.3,2.6,10.45,10.45,0,0,0,.3,2.51,6.76,6.76,0,0,0,1,2.19,5.13,5.13,0,0,0,1.71,1.56,5.29,5.29,0,0,0,2.58.58,4.16,4.16,0,0,0,3.22-1.26,5.81,5.81,0,0,0,1.41-3.32h4.35a10.47,10.47,0,0,1-.88,3.47,8.43,8.43,0,0,1-1.89,2.63,8.07,8.07,0,0,1-2.75,1.66,10.09,10.09,0,0,1-3.46.57,10.35,10.35,0,0,1-4.22-.82,8.94,8.94,0,0,1-3.16-2.24,10,10,0,0,1-2-3.36,12.58,12.58,0,0,1-.68-4.17,13,13,0,0,1,.68-4.25,10.37,10.37,0,0,1,2-3.42,8.91,8.91,0,0,1,3.16-2.28,10.19,10.19,0,0,1,4.22-.83,10.44,10.44,0,0,1,3.19.48,8.77,8.77,0,0,1,2.69,1.42,7.81,7.81,0,0,1,2,2.3,8.31,8.31,0,0,1,1,3.15h-4.35A3.67,3.67,0,0,0,116.38,342.68Z" fill="#fff"/>
  </g>
  <g>
    <circle cx="235.55" cy="347.32" r="26.71" fill="#00a99d"/>
    <path d="M235.32,337.36A10.48,10.48,0,0,1,239,338a8,8,0,0,1,2.95,1.89,8.64,8.64,0,0,1,1.95,3.14,12.69,12.69,0,0,1,.7,4.44,14.25,14.25,0,0,1-.57,4.12,9.12,9.12,0,0,1-1.74,3.26A8.22,8.22,0,0,1,239.4,357a9.9,9.9,0,0,1-4.08.79H226.5V337.36ZM235,354a6,6,0,0,0,1.89-.31,4.19,4.19,0,0,0,1.63-1.05,5.3,5.3,0,0,0,1.15-1.9,8.53,8.53,0,0,0,.43-2.86,11.93,11.93,0,0,0-.3-2.79,5.51,5.51,0,0,0-1-2.13,4.25,4.25,0,0,0-1.82-1.36,7.12,7.12,0,0,0-2.79-.48H231V354Z" fill="#fff"/>
  </g>
  <g>
    <circle cx="358.74" cy="347.32" r="26.71" fill="#0072bc"/>
    <path d="M366.26,337.48v3.78H355.48v4.37h9.9v3.49h-9.9v5h11v3.78H351V337.48Z" fill="#fff"/>
  </g>
  <g>
    <circle cx="50.76" cy="347.32" r="26.71" fill="#2e3192"/>
    <path d="M58.46,337.11v3.77H48.59v4.72h8.56v3.5H48.59v8.44H44.1V337.11Z" fill="#fff"/>
  </g>
  <g>
    <circle cx="173.95" cy="347.32" r="26.71" fill="#ec008c"/>
    <path d="M176.12,357.56a7.5,7.5,0,0,1-3,.61,10.55,10.55,0,0,1-4.22-.81,9.28,9.28,0,0,1-3.16-2.25,9.87,9.87,0,0,1-2-3.36,12.31,12.31,0,0,1-.69-4.16,12.77,12.77,0,0,1,.69-4.26,10.2,10.2,0,0,1,2-3.41,9,9,0,0,1,3.16-2.29,10.22,10.22,0,0,1,4.22-.83,9.77,9.77,0,0,1,3.05.47,8.55,8.55,0,0,1,2.66,1.39,7.53,7.53,0,0,1,2.91,5.35H177.5a4.32,4.32,0,0,0-1.55-2.58,4.51,4.51,0,0,0-2.78-.86,5.22,5.22,0,0,0-2.57.59,4.9,4.9,0,0,0-1.72,1.57,6.9,6.9,0,0,0-1,2.25,11.23,11.23,0,0,0-.3,2.61,10.43,10.43,0,0,0,.3,2.5,6.76,6.76,0,0,0,1,2.19,5,5,0,0,0,1.72,1.56,5.22,5.22,0,0,0,2.57.58A4.39,4.39,0,0,0,178,350h-4.52v-3.35h8.58v11h-2.86l-.46-2.31A6.74,6.74,0,0,1,176.12,357.56Z" fill="#fff"/>
  </g>
  <g>
    <circle cx="82.56" cy="293.89" r="26.71" fill="#ee342e"/>
    <path d="M84.91,284.2l7.64,20.42H87.88l-1.54-4.54H78.7l-1.6,4.54H72.58L80.3,284.2Zm.25,12.53-2.57-7.5h-.06l-2.66,7.5Z" fill="#fff"/>
  </g>
  <g>
    <circle cx="205.75" cy="293.89" r="26.71" fill="#fff200"/>
    <path d="M207.94,283.77a12.76,12.76,0,0,1,2.66.26,5.56,5.56,0,0,1,2.06.85,3.81,3.81,0,0,1,1.33,1.56,5.37,5.37,0,0,1,.48,2.4,4.5,4.5,0,0,1-.7,2.57,5.09,5.09,0,0,1-2.08,1.69,4.92,4.92,0,0,1,2.82,1.9,6.27,6.27,0,0,1,.33,6,5.23,5.23,0,0,1-1.62,1.84,7.13,7.13,0,0,1-2.32,1.06,10.34,10.34,0,0,1-2.67.34h-9.9V283.77Zm-.57,8.27a3.22,3.22,0,0,0,2-.57,2.15,2.15,0,0,0,.78-1.86,2.36,2.36,0,0,0-.26-1.17,1.84,1.84,0,0,0-.69-.72,2.93,2.93,0,0,0-1-.36,7.36,7.36,0,0,0-1.16-.1h-4.21V292Zm.26,8.67a5.73,5.73,0,0,0,1.26-.13,3,3,0,0,0,1.06-.42,2.41,2.41,0,0,0,.73-.82A2.81,2.81,0,0,0,211,298a2.63,2.63,0,0,0-.89-2.24,3.77,3.77,0,0,0-2.35-.68h-4.89v5.61Z" fill="#fff"/>
  </g>
  <g>
    <circle cx="328.94" cy="293.89" r="26.71" fill="#00a651"/>
    <path d="M326.26,289.2a4.49,4.49,0,0,0-1-1.13,4.54,4.54,0,0,0-1.36-.76,4.74,4.74,0,0,0-1.59-.27,5.22,5.22,0,0,0-2.57.58A4.84,4.84,0,0,0,318,289.2a6.84,6.84,0,0,0-1,2.24,11.23,11.23,0,0,0-.3,2.61,10.37,10.37,0,0,0,.3,2.5,6.76,6.76,0,0,0,1,2.19,4.88,4.88,0,0,0,1.72,1.56,5.22,5.22,0,0,0,2.57.59,4.16,4.16,0,0,0,3.22-1.26,5.85,5.85,0,0,0,1.42-3.32h4.35a10.42,10.42,0,0,1-.89,3.46,8.31,8.31,0,0,1-1.89,2.63,7.91,7.91,0,0,1-2.75,1.66,10.09,10.09,0,0,1-3.46.58,10.55,10.55,0,0,1-4.22-.82,8.93,8.93,0,0,1-3.16-2.25,9.72,9.72,0,0,1-2-3.36,12.27,12.27,0,0,1-.69-4.16,12.71,12.71,0,0,1,.69-4.25,10,10,0,0,1,2-3.42,9,9,0,0,1,3.16-2.29,10.39,10.39,0,0,1,4.22-.83,10.1,10.1,0,0,1,3.19.49,8.53,8.53,0,0,1,2.69,1.41,7.58,7.58,0,0,1,2,2.31,8,8,0,0,1,1,3.14h-4.34A3.69,3.69,0,0,0,326.26,289.2Z" fill="#fff"/>
    <path d="M337.45,304.18v-4.7l-2.84.58v-2.67l2.84-.57v-4.46l-2.84.57v-2.66l2.84-.63v-4.46l1.17-.2v4.43l3.15-.71v-5l1.2-.2v4.95l2.86-.6v2.72l-2.86.57v4.43l2.86-.54v2.66l-2.86.6v4.21l-1.2.23v-4.18l-3.15.74V304Zm1.17-7.64,3.15-.72v-4.46l-3.15.77Z" fill="#fff"/>
  </g>
  <g>
    <circle cx="20.97" cy="293.89" r="26.71" fill="#00a99d"/>
    <path d="M20.74,283.92a10.48,10.48,0,0,1,3.67.63,8,8,0,0,1,2.95,1.89,8.77,8.77,0,0,1,1.95,3.15A12.91,12.91,0,0,1,30,294a13.86,13.86,0,0,1-.58,4.12,8.87,8.87,0,0,1-1.73,3.26,7.94,7.94,0,0,1-2.89,2.16,9.66,9.66,0,0,1-4.07.79H11.92V283.92Zm-.32,16.65a5.76,5.76,0,0,0,1.89-.31,4.24,4.24,0,0,0,1.63-1,5.26,5.26,0,0,0,1.15-1.91,8.5,8.5,0,0,0,.42-2.86,11.93,11.93,0,0,0-.3-2.79,5.65,5.65,0,0,0-1-2.13,4.48,4.48,0,0,0-1.82-1.36,7.32,7.32,0,0,0-2.79-.47h-3.2v12.87Z" fill="#fff"/>
  </g>
  <g>
    <circle cx="144.16" cy="293.89" r="26.71" fill="#0072bc"/>
    <path d="M151.68,284v3.78H140.9v4.38h9.9v3.49h-9.9v5h11v3.77H136.4V284Z" fill="#fff"/>
  </g>
  <g>
    <circle cx="267.35" cy="293.89" r="26.71" fill="#92278f"/>
    <path d="M268.82,284v3.78h-9.88v4.72h8.56V296h-8.56v8.44h-4.49V284Z" fill="#fff"/>
    <path d="M274.51,304.41v-4.69l-2.83.57v-2.66l2.83-.57v-4.47l-2.83.58v-2.66l2.83-.63v-4.47l1.17-.2v4.44l3.15-.72v-5l1.2-.21v5l2.86-.61v2.72l-2.86.57v4.44l2.86-.54v2.66l-2.86.6v4.2l-1.2.23v-4.17l-3.15.74v4.72Zm1.17-7.64,3.15-.71v-4.47l-3.15.78Z" fill="#fff"/>
  </g>
  <g>
    <circle cx="390.54" cy="293.89" r="26.71" fill="#e11156"/>
    <path d="M388.33,304.3a7.5,7.5,0,0,1-2.95.61,10.55,10.55,0,0,1-4.22-.81,9.28,9.28,0,0,1-3.16-2.25,9.87,9.87,0,0,1-2-3.36,12.31,12.31,0,0,1-.69-4.16,12.67,12.67,0,0,1,.69-4.25,10.15,10.15,0,0,1,2-3.42,9,9,0,0,1,3.16-2.29,10.39,10.39,0,0,1,4.22-.83,10.07,10.07,0,0,1,3.05.47,8.77,8.77,0,0,1,2.66,1.39,7.5,7.5,0,0,1,2,2.26,7.67,7.67,0,0,1,.95,3.09h-4.29a4.35,4.35,0,0,0-1.55-2.58,4.5,4.5,0,0,0-2.78-.85,5.22,5.22,0,0,0-2.57.58,4.84,4.84,0,0,0-1.72,1.58,6.75,6.75,0,0,0-1,2.24,11.23,11.23,0,0,0-.3,2.61,10.43,10.43,0,0,0,.3,2.5,6.76,6.76,0,0,0,1,2.19,4.88,4.88,0,0,0,1.72,1.56,5.22,5.22,0,0,0,2.57.58,4.39,4.39,0,0,0,4.87-4.4h-4.52v-3.35h8.58v11h-2.86l-.46-2.32A6.74,6.74,0,0,1,388.33,304.3Z" fill="#fff"/>
    <path d="M401,304.46v-4.7l-2.84.57v-2.66l2.84-.57v-4.46l-2.84.57v-2.66l2.84-.63v-4.46l1.17-.2v4.43l3.15-.71v-5l1.2-.2v5l2.86-.6v2.72l-2.86.57v4.43l2.86-.54V298l-2.86.6v4.21l-1.2.23v-4.18l-3.15.74v4.72Zm1.17-7.64,3.15-.72v-4.46l-3.15.77Z" fill="#fff"/>
  </g>
  <g>
    <circle cx="308.05" cy="240.45" r="26.71" fill="#f5832b"/>
    <path d="M303.56,231.11l7.64,20.42h-4.66L305,247h-7.64l-1.61,4.54h-4.52L299,231.11Zm.26,12.53-2.57-7.5h-.06l-2.66,7.5Z" fill="#fff"/>
    <path d="M316.07,251.53v-4.69l-2.83.57v-2.66l2.83-.57v-4.46l-2.83.57v-2.66l2.83-.63v-4.46l1.17-.2v4.43l3.15-.72v-5l1.2-.2v5l2.86-.6v2.72l-2.86.57v4.43l2.86-.54V245l-2.86.6v4.21l-1.2.23V245.9l-3.15.74v4.72Zm1.17-7.63,3.15-.72v-4.46l-3.15.77Z" fill="#fff"/>
  </g>
  <g>
    <circle cx="0.08" cy="240.45" r="26.71" fill="#fff200"/>
    <path d="M2.27,230.34a12.83,12.83,0,0,1,2.66.26,5.72,5.72,0,0,1,2.06.84A4,4,0,0,1,8.32,233a5.55,5.55,0,0,1,.47,2.4,4.48,4.48,0,0,1-.7,2.58A5.12,5.12,0,0,1,6,239.67a4.89,4.89,0,0,1,2.81,1.9,5.68,5.68,0,0,1,.93,3.28,5.6,5.6,0,0,1-.6,2.67,5.25,5.25,0,0,1-1.61,1.85,7.35,7.35,0,0,1-2.32,1.06,10.88,10.88,0,0,1-2.68.34h-9.9V230.34Zm-.58,8.27a3.25,3.25,0,0,0,2-.57,2.2,2.2,0,0,0,.77-1.86A2.32,2.32,0,0,0,4.18,235a1.93,1.93,0,0,0-.68-.71,3.07,3.07,0,0,0-1-.36,6.26,6.26,0,0,0-1.16-.1H-2.86v4.78ZM2,247.28a5.73,5.73,0,0,0,1.26-.13,3.24,3.24,0,0,0,1.06-.43,2.12,2.12,0,0,0,.73-.81,2.87,2.87,0,0,0,.27-1.32,2.63,2.63,0,0,0-.89-2.25A3.76,3.76,0,0,0,2,241.67h-4.9v5.61Z" fill="#fff"/>
  </g>
  <circle cx="431.25" cy="240.45" r="26.71" fill="#87c540"/>
  <g>
    <circle cx="122.42" cy="240.45" r="26.71" fill="#00a651"/>
    <path d="M119.74,235.76a4.67,4.67,0,0,0-1-1.13,5,5,0,0,0-1.36-.76,4.74,4.74,0,0,0-1.59-.27,5.22,5.22,0,0,0-2.57.59,4.9,4.9,0,0,0-1.72,1.57,6.9,6.9,0,0,0-1,2.25,11.21,11.21,0,0,0-.3,2.6,10.45,10.45,0,0,0,.3,2.51,6.76,6.76,0,0,0,1,2.19,4.94,4.94,0,0,0,1.72,1.55,5.12,5.12,0,0,0,2.57.59,4.16,4.16,0,0,0,3.22-1.26,5.88,5.88,0,0,0,1.42-3.32h4.35a10.73,10.73,0,0,1-.89,3.47A8.43,8.43,0,0,1,122,249a8.07,8.07,0,0,1-2.75,1.66,10.09,10.09,0,0,1-3.46.57,10.38,10.38,0,0,1-4.22-.82,9,9,0,0,1-3.16-2.24,10,10,0,0,1-2-3.36,12.58,12.58,0,0,1-.68-4.17,13,13,0,0,1,.68-4.25,10.37,10.37,0,0,1,2-3.42,9,9,0,0,1,3.16-2.28,10.22,10.22,0,0,1,4.22-.83,10.39,10.39,0,0,1,3.19.48,8.77,8.77,0,0,1,2.69,1.42,7.81,7.81,0,0,1,2,2.3,8.14,8.14,0,0,1,1,3.15h-4.35A3.51,3.51,0,0,0,119.74,235.76Z" fill="#fff"/>
    <path d="M130.93,250.74v-4.69l-2.84.57V244l2.84-.57v-4.47l-2.84.58v-2.66l2.84-.63v-4.47l1.17-.2V236l3.15-.72v-5l1.2-.2V235l2.86-.61v2.72l-2.86.57v4.44l2.86-.54v2.66l-2.86.6v4.2l-1.2.23v-4.17l-3.15.74v4.72Zm1.17-7.64,3.15-.71v-4.47l-3.15.78Z" fill="#fff"/>
  </g>
  <g>
    <circle cx="246.46" cy="240.45" r="26.71" fill="#00aeef"/>
    <path d="M240.16,231a10.54,10.54,0,0,1,3.68.63,8,8,0,0,1,2.95,1.89,8.93,8.93,0,0,1,1.94,3.14,12.69,12.69,0,0,1,.7,4.44,14.2,14.2,0,0,1-.57,4.12,9,9,0,0,1-1.73,3.26,8,8,0,0,1-2.89,2.16,9.71,9.71,0,0,1-4.08.79h-8.81V231Zm-.31,16.65a5.85,5.85,0,0,0,1.89-.31,4.23,4.23,0,0,0,1.63-1,5.34,5.34,0,0,0,1.14-1.9,8.24,8.24,0,0,0,.43-2.86,11.93,11.93,0,0,0-.3-2.79,5.51,5.51,0,0,0-1-2.13,4.33,4.33,0,0,0-1.82-1.36,7.12,7.12,0,0,0-2.78-.47h-3.21v12.87Z" fill="#fff"/>
    <path d="M255.64,251.44v-4.69l-2.83.57v-2.66l2.83-.57v-4.47l-2.83.57v-2.66l2.83-.63v-4.46l1.17-.2v4.43L260,236v-5l1.2-.2v4.95l2.86-.6v2.72l-2.86.57v4.44l2.86-.55v2.66l-2.86.6v4.21L260,250V245.8l-3.15.75v4.72Zm1.17-7.64,3.15-.72v-4.46l-3.15.77Z" fill="#fff"/>
  </g>
  <g>
    <circle cx="369.65" cy="240.45" r="26.71" fill="#2e3192"/>
    <path d="M377.35,230.24V234h-9.87v4.73H376v3.49h-8.56v8.44H363V230.24Z" fill="#fff"/>
  </g>
  <g>
    <circle cx="60.82" cy="240.45" r="26.71" fill="#92278f"/>
    <path d="M62.29,230.55v3.78H52.42v4.72H61v3.49H52.42V251H47.93V230.55Z" fill="#fff"/>
    <path d="M68,251v-4.69l-2.83.57V244.2l2.83-.58v-4.46l-2.83.57v-2.66l2.83-.63V232l1.17-.2v4.43l3.15-.71v-5l1.2-.2v5l2.86-.6v2.72l-2.86.57v4.44l2.86-.55v2.66l-2.86.6v4.21l-1.2.23v-4.18l-3.15.74v4.73Zm1.17-7.64,3.15-.72v-4.46l-3.15.77Z" fill="#fff"/>
  </g>
  <g>
    <circle cx="184.02" cy="240.45" r="26.71" fill="#e11156"/>
    <path d="M181.81,250.86a7.51,7.51,0,0,1-2.95.62,10.38,10.38,0,0,1-4.22-.82,9,9,0,0,1-3.16-2.24,10,10,0,0,1-2-3.37,12.23,12.23,0,0,1-.69-4.16,12.76,12.76,0,0,1,.69-4.25,10.35,10.35,0,0,1,2-3.42,9,9,0,0,1,3.16-2.28,10.22,10.22,0,0,1,4.22-.83,9.77,9.77,0,0,1,3,.47,8.53,8.53,0,0,1,2.66,1.38,7.67,7.67,0,0,1,2,2.27,7.58,7.58,0,0,1,.95,3.09h-4.3a4.26,4.26,0,0,0-1.54-2.58,4.51,4.51,0,0,0-2.78-.86,5.22,5.22,0,0,0-2.57.59,4.81,4.81,0,0,0-1.72,1.57,6.9,6.9,0,0,0-1,2.25,11.21,11.21,0,0,0-.3,2.6,10.45,10.45,0,0,0,.3,2.51,6.62,6.62,0,0,0,1,2.18,4.88,4.88,0,0,0,1.72,1.56,5.22,5.22,0,0,0,2.57.59,4.39,4.39,0,0,0,4.87-4.41h-4.52V240h8.58v11h-2.86l-.46-2.32A6.74,6.74,0,0,1,181.81,250.86Z" fill="#fff"/>
    <path d="M194.51,251v-4.69l-2.83.57v-2.66l2.83-.57V239.2l-2.83.58v-2.66l2.83-.63V232l1.18-.2v4.44l3.15-.72v-5l1.2-.2v4.95l2.86-.6v2.72L200,238v4.44l2.86-.55v2.67l-2.86.6v4.2l-1.2.23v-4.18l-3.15.75v4.72Zm1.18-7.64,3.15-.71V238.2l-3.15.77Z" fill="#fff"/>
  </g>
</svg>
