<svg height="591.40625" width="793.78125" xmlns="http://www.w3.org/2000/svg"><g transform="translate(28.0625 -169.53125)"><path d="m115.34375 169.53125c-.45034 0-.92466.0709-1.375.25-4.86675 1.80307-8.75789 4.69018-11.6875 8.65625-2.928749 3.96436-5.207881 8.436-6.875 13.4375-1.667109 5.00151-2.8381 10.13522-3.46875 15.40625-.477491 3.98986-.75894 7.7503-.875 11.25h-62.5v-.0625h-4v541.46875h4v1h368.59375 368.5625v-3.4375-3.4375h-368.5625-368.59375v-34.28125h368.59375 368.5625v-3.4375-3.40625h-368.5625-368.59375v-34.3125h368.59375 368.5625v-3.40625-3.4375h-368.5625-368.59375v-34.28125h368.59375 368.5625v-3.4375-3.4375h-368.5625-368.59375v-34.28125h368.59375 368.5625v-3.40625-3.4375h-368.5625-368.59375v-199.5625h94.0625c.8514 3.34973 2.11607 8.3841 4.46875 17.875.63115 3.32638 1.07252 5.78856 1.34375 7.375.26951 1.56936.37165 3.79331.28125 6.625-.0887 2.84874-.39675 5.56052-.9375 8.1875-.54075 2.60993-1.356 4.7232-2.4375 6.34375-1.71096 2.2517-4.07441 4.35366-7.09375 6.28125-3.01932 1.94465-6.26218 3.28354-9.6875 4-3.42361.71645-6.75584.65122-10-.21875-3.244166-.85292-5.760278-2.88391-7.5625-6.125 4.41556.17059 7.865504-.7116 10.34375-2.65625 2.47858-1.9276 4.12723-4.29618 4.9375-7.09375.81199-2.79756.84487-5.79303.125-9-.72156-3.18991-1.9965-5.90454-3.84375-8.15625-1.84742-2.25169-4.192736-3.8062-7.03125-4.625-2.83868-.80175-6.016716-.30818-9.53125 1.5-3.153919 1.5182-5.687512 4.04848-7.625 7.5625-1.937489 3.51402-2.90625 6.93781-2.90625 10.28125 0 5.30515 1.599591 9.82958 4.84375 13.53125 3.244158 3.70166 7.255081 6.42763 12.03125 8.21875 3.874983 1.53526 7.85046 2.3125 11.90625 2.3125 1.17021 0 3.36236-.22406 6.5625-.71875 3.19845-.51175 6.7198-2.18251 10.59375-5.03125 3.87566-2.83169 6.98349-6.47954 9.28125-11 2.29776-4.50341 3.26617-9.56111 2.90625-15.15625-.35994-5.85101-.92158-10.61083-1.6875-14.3125-.63549-3.06451-1.8773-8.74414-3.46875-16h268.71875 368.5625v-3.40625-3.4375h-368.5625-268.78125c.29653-.22787.65986-.44913 1.09375-.625 1.6666-.6755 2.94136-1.27174 3.84375-1.8125 8.10954-4.59551 14.02391-11.66606 17.71875-21.21875 1.02303-3.5812 1.67155-7.13437 1.96875-10.625h244.15625 368.5625v-3.4375-3.4375h-368.5625-244.09375c-.30054-3.96536-1.24525-7.90607-2.90625-11.78125-2.02824-4.73029-4.74573-8.96476-8.125-12.75-3.37926-3.78526-7.40782-6.7745-12.09375-8.9375-.7648-.30136-1.54656-.56252-2.34375-.8125h269.5625 368.5625v-3.40625-3.4375h-368.5625-286.75l-4.53125-22.21875c0-.18082.39033-.70617 1.15625-1.5625.76592-.85463 1.63392-1.75891 2.625-2.75l2.90625-2.90625c.94674-.94504 1.60881-1.60711 1.96875-1.96875.82074-.94343 1.56355-1.90368 2.28125-2.875h280.34375 368.5625v-3.4375-3.4375h-368.5625-276c.6287-1.07006 1.25756-2.15932 1.875-3.21875 3.69485-7.20885 6.15874-14.61871 7.375-22.1875.47428-2.95227.82789-5.89555 1.0625-8.875h265.6875 368.5625v-3.4375-3.40625h-368.5625-265.375c.0414-2.4044.0187-4.82771-.0937-7.25-.18083-5.13628-.84289-10.28641-1.96875-15.46875-1.12755-5.18062-2.87998-10.06072-5.3125-14.65625-.36164-.54075-.90513-1.57673-1.625-3.0625-.72157-1.4875-1.55497-2.91542-2.5-4.3125-.94674-1.39708-1.86243-2.46763-2.71875-3.1875-.85634-.72157-1.58759-1.0625-2.21875-1.0625zm2.15625 24.6875c.87872-.0676 1.74564-.0237 2.625.15625 1.75702.36165 3.19975 1.68579 4.28125 3.9375 1.53184 2.52464 2.10993 5.61766 1.75 9.3125-.36164 3.69484-1.04017 7.02672-2.03125 10-.095.2946-.21101.60467-.3125.90625h-24.125c.44069-1.76399.9419-3.50417 1.53125-5.21875 1.4863-4.32601 3.20362-8.23598 5.1875-11.75.71987-1.0815 1.89256-2.32167 3.46875-3.71875 1.5779-1.39708 3.24299-2.43135 5-3.0625.87851-.31558 1.74628-.4949 2.625-.5625zm-107.46875 24.3125c-1.6395929.0966-3.3798805 1.83194-6.34375 6.09375-5.9949892 7.93715-14.595317 26.52565-18.03125 36.21875-5.152605 20.33505-6.842535 45.06395-5.125 68.9375.841522 7.92825 2.532316 25.58259 5.125 39.71875 4.277456 33.60207 5.15625 47.73889 5.15625 61.875-.876011 22.96895-6.848809 41.50368-16.3125 53.875-1.718393 1.76478-2.5625 3.53295-2.5625 4.4375s.844107 2.67273 2.5625 4.4375c9.463691 12.37132 15.436489 30.89127 16.3125 53 0 14.99638-.878794 29.11498-5.15625 61.8125-2.592684 15.0407-4.283478 32.71323-5.125 39.78125-1.717535 24.73379-.02761 49.47575 5.125 68.90625 4.277456 15.90088 19.751417 43.3125 24.0625 43.3125 1.717534 0 3.4375-1.78887 3.4375-3.5625 0-.89571-1.719966-3.51811-3.4375-6.1875-10.30607232-14.99633-14.6262161-30.03104-16.34375-53 0-14.13615.8787945-27.40216 5.15625-60.96875 1.71753379-13.23156 3.437354-29.13596 4.3125-35.34375 3.4359325-42.3995-3.41667742-78.62643-20.59375-105.125-2.593549-3.53846-4.3125-7.0625-4.3125-7.0625s1.718951-3.55525 4.3125-7.09375c17.17707258-26.49853 24.0296825-62.72718 20.59375-106.03125-.875146-5.30324-2.59496621-21.18526-4.3125-35.3125-4.2774555-32.6709-5.15625-45.95761-5.15625-60.09375 1.7175339-22.96897 6.03767768-38.00367 16.34375-53 3.435068-5.30329 4.311289-7.04771 2.59375-8.8125-.810483-.55428-1.535981-.85639-2.28125-.8125zm18.53125 6.84375h62.53125c.185433 4.79759.715724 9.50064 1.65625 14.09375 1.171571 5.72308 2.530495 11.55345 4.0625 17.5-1.036378.89146-2.054373 1.7781-3.0625 2.6875h-65.1875zm69.78125 0h22.875c-.22264.53079-.44989 1.04686-.6875 1.59375-1.48579 3.42532-3.22347 6.77365-5.25 10.0625-2.02824 3.28886-4.23683 6.36713-6.625 9.25-2.38817 2.88456-4.98811 5.05686-7.78125 6.5-1.532009-4.14518-2.500775-8.34505-2.90625-12.625-.405475-4.28164-.353245-8.76638.1875-13.40625.05399-.46356.124073-.91461.1875-1.375zm-69.78125 41.15625h58.03125c-4.350941 4.41827-8.412058 9.00956-12.15625 13.8125-4.950221 6.34998-9.40235 13.1877-13.34375 20.46875h-32.53125zm72.59375 16.125 3.78125 18.15625h-22.28125c1.719733-2.02303 3.503401-4.00744 5.375-5.9375 4.325487-4.46076 8.709272-8.52391 13.125-12.21875zm-72.59375 25h29.03125c-.04438.0925-.08077.18862-.125.28125-2.523273 6.39859-3.78125 13.23198-3.78125 20.53125v7.78125c0 1.60376.303013 3.50506.875 5.6875h-26zm48.71875 0h27.53125c-.83838.59523-1.79903 1.28269-2.3125 1.625-.81111.54075-1.64384 1.11884-2.5 1.75-.855981.63116-1.382366 1.03792-1.5625 1.21875-3.334404 2.43251-6.223214 5.32305-8.65625 8.65625-1.982523 3.1541-3.529886 6.621-4.65625 10.40625-1.020964 3.43054-1.419142 6.97308-1.21875 10.625h-19.25c.03861-6.00445 1.077967-11.74819 3.15625-17.1875 2.117796-5.54226 4.954386-10.79284 8.46875-15.75.324326-.4573.668768-.89064 1-1.34375zm37.78125 17.4375c6.84893 0 12.52614 2.34532 17.03125 7.03125 2.87538 2.98965 5.0893 6.25391 6.625 9.8125h-20.1875zm-4.71875.53125c1.00876 5.19067 2.14147 10.96497 3.1875 16.3125h-18.9375c.854506-3.20579 2.433543-6.21292 4.78125-9 2.88354-3.42532 6.55233-5.87108 10.96875-7.3125zm-81.78125 23.1875h28.34375c.687702 1.69177 1.497945 3.49128 2.40625 5.40625 3.739882 7.88608 8.702091 14.61569 14.875 20.15625 4.055363 3.64105 8.514672 6.53593 13.40625 8.71875h-59.03125zm36.65625 0h19.75c1.514977 5.55041 4.601362 10.25805 9.28125 14.125 3.334217 2.79245 7.20859 4.66182 11.625 5.5625 1.0798 0 1.48826-.47432 1.21875-1.375-.27123-.90068-.94975-1.34375-2.03125-1.34375-4.5957-2.43423-7.739131-5.62767-9.40625-9.59375-1.025106-2.43768-1.624971-4.90288-1.78125-7.375h21.03125c1.80824 9.22044 3.5223 18.10578 5.4375 27.78125l.8125 3.78125c0 .35993-.69838.71567-2.09375 1.03125-1.39708.31558-2.92544.60547-4.59375.875-1.66661.27122-3.26251.50839-4.75.6875-.74374.0904-.83335.0798-1.25.125h-4.4375c-4.229747-.33943-8.419227-1.33854-12.5625-3.03125-5.181645-2.11865-9.753705-5.05516-13.71875-8.75-3.965045-3.69313-7.143249-8.02973-9.53125-13.03125-1.446554-3.0295-2.429697-6.19141-3-9.46875zm54.75 0h20.8125c1.08264 5.90047.53143 11.70745-1.65625 17.4375-2.25341 5.9022-6.57016 10.06577-12.96875 12.5z" fill-rule="evenodd"/><g transform="matrix(1.7967812 0 0 1.7967812 -68.612364 500.57522)"><path d="m62.511677 127.84048c0-.83977 4.041963-4.29526 8.982141-7.67885 10.621365-7.27471 18.291956-15.2339 22.753427-23.609504 10.231245-19.207279 6.990215-39.234197-6.645392-41.063116-7.541825-1.01157-17.090176 4.491435-17.090176 9.84959 0 1.98778.508501 2.147884 6.037438 1.900912 6.764925-.302182 11.341654 6.282702 7.680759 11.050886-5.784567 7.53419-19.718197 3.205925-19.718197-6.12515 0-8.178104 4.976735-14.686661 13.736031-17.963933 18.744999-7.013402 36.588252 5.915889 35.025872 25.379878-1.28058 15.953347-15.170703 30.852697-42.135847 45.197347-6.39814 3.40362-8.626056 4.19445-8.626056 3.06194z"/><path d="m135 65.625c0 3.796958-2.93813 6.875-6.5625 6.875s-6.5625-3.078042-6.5625-6.875 2.93813-6.875 6.5625-6.875 6.5625 3.078042 6.5625 6.875z" transform="matrix(.8552381 0 0 .8552381 13.155357 9.995238)"/><path d="m135 65.625c0 3.796958-2.93813 6.875-6.5625 6.875s-6.5625-3.078042-6.5625-6.875 2.93813-6.875 6.5625-6.875 6.5625 3.078042 6.5625 6.875z" transform="matrix(.8552381 0 0 .8552381 13.542857 29.875)"/></g></g></svg>