<?xml version="1.0" encoding="utf-8"?>
<!-- Generator: Adobe Illustrator 24.3.0, SVG Export Plug-In . SVG Version: 6.00 Build 0)  -->
<svg version="1.1" id="Layer_1" xmlns="http://www.w3.org/2000/svg" xmlns:xlink="http://www.w3.org/1999/xlink" x="0px" y="0px"
	 viewBox="0 0 283.5 283.5" style="enable-background:new 0 0 283.5 283.5;" xml:space="preserve">
<style type="text/css">
	.st0{fill:#EC008C;}
	.st1{fill:#FCED00;}
	.st2{fill:#EC2124;}
	.st3{fill:#00AEEF;}
	.st4{fill:#2E3091;}
	.st5{fill:#00A550;}
	.st6{fill:#231F20;}
	.st7{enable-background:new    ;}
</style>
<g>
	<g>
		<path class="st0" d="M104.4,130.9L104.4,130.9c0-26.8,14.2-51.4,37.4-64.8C106,45.5,60.3,57.7,39.7,93.5s-8.3,81.4,27.4,102.1
			C67.1,168.9,81.3,144.2,104.4,130.9z"/>
		<path class="st1" d="M253.8,130.8c0-41.3-33.4-74.7-74.7-74.7c-13.1,0-26,3.5-37.4,10c23.1,13.3,37.4,38,37.4,64.7
			c23.1,13.3,37.4,38,37.4,64.7C239.6,182.1,253.8,157.5,253.8,130.8z"/>
		<path class="st2" d="M104.4,130.8L104.4,130.8c23.1-13.3,51.6-13.3,74.7,0c0-26.7-14.2-51.4-37.4-64.7
			C118.6,79.4,104.4,104.1,104.4,130.8z"/>
		<path class="st3" d="M141.7,195.5c-23.1,13.3-51.6,13.3-74.7,0c0.5,41.3,34.3,74.3,75.6,73.9c40.6-0.5,73.4-33.3,73.9-73.9v-0.1
			C193.4,208.8,164.9,208.8,141.7,195.5L141.7,195.5z"/>
		<path class="st4" d="M141.7,195.5c-23.1-13.3-37.3-38-37.4-64.6c-23.1,13.4-37.3,38-37.3,64.7C90.2,208.9,118.6,208.9,141.7,195.5
			L141.7,195.5z"/>
		<path class="st5" d="M179.1,130.8c0,26.7-14.2,51.4-37.4,64.7c23.1,13.4,51.7,13.4,74.8,0C216.5,168.8,202.3,144.1,179.1,130.8z"
			/>
		<path class="st6" d="M104.4,130.9c0,26.7,14.3,51.3,37.4,64.6c23.1-13.3,37.4-38,37.4-64.7C156,117.4,127.5,117.5,104.4,130.9z"/>
		<polygon class="st6" points="219.2,102.5 213.7,115.9 213.7,124.9 210.7,124.9 210.7,115.9 205.3,102.5 208.3,102.5 212.2,112.7 
			216.2,102.5 		"/>
		<polygon class="st6" points="77.8,103.4 77.8,125.8 75,125.8 75,110.1 70.3,125.8 68.5,125.8 63.7,110.1 63.7,125.8 61,125.8 
			61,103.4 64.4,103.4 69.4,119.9 74.3,103.4 		"/>
		<path class="st6" d="M135.9,228.9c0-5.9,3.3-7.7,6.5-7.7c3.1,0,6.2,1.7,6.4,7.3v0.6H146l0-0.5c-0.2-3.5-1.7-4.7-3.6-4.7
			c-2,0-3.6,1.3-3.6,5.3v6.9c0,4,1.6,5.3,3.6,5.3c1.8,0,3.3-1.2,3.6-4.6l0-0.6h2.8v0.6c-0.1,5.6-3.3,7.4-6.4,7.4
			c-3.2,0-6.5-1.8-6.5-7.7V228.9z"/>
	</g>
	<path d="M43.1,33.7c0,3.7,2.4,5,4.5,5c2.6,0,4.5-1.3,4.5-4.3c0-2.9-1.9-3.9-4.6-4.7c-2.2-0.6-5.8-1.6-5.8-6c0-4.5,3.1-6,6.1-6
		c2.9,0,6.1,1.8,6.1,7h-2c0-3.5-2.1-5-4.1-5c-2.1,0-4,1.2-4,3.8c0.1,3.3,3.1,3.7,4.5,4.1c4.1,1.1,5.8,3.1,5.8,6.5
		c0,4.9-3,6.5-6.6,6.5c-3,0-6.5-1.8-6.5-7H43.1z"/>
	<g class="st7">
		<path d="M66.6,24.4v16h-1.4L65,38.3c-0.8,1.7-2.2,2.4-3.8,2.4c-2.2,0-4.4-1.3-4.4-5.6V24.4h1.8v9.8c0,3.9,1.5,4.9,3.1,4.9
			c1.6,0,3.1-0.9,3.1-4.5V24.4H66.6z"/>
		<path d="M71.3,26.2c0.7-1.5,2.1-2.1,3.5-2.1c2.2,0,4.4,1.3,4.4,5.6V35c0,4.3-2.3,5.6-4.4,5.6c-1.6,0-3-0.7-3.8-2.4l-0.2,2.1h-1.4
			V18h1.8V26.2z M77.5,30.6c0-3.9-1.5-4.9-3.1-4.9c-1.7,0-3.1,1-3.1,4.9v3.5c0,3.9,1.3,4.9,3.1,4.9c1.7,0,3.1-1,3.1-4.9V30.6z"/>
		<path d="M86,34.3c0,4.3,0.8,4.7,3,4.7h0.4v1.6h-0.8c-2.7,0-4.4-0.8-4.4-5.8V26h-2.4v-1.6h2.4v-4.9H86v4.9h3.4V26H86V34.3z"/>
	</g>
	<path d="M93.8,26.9c0.8-1.8,2.4-2.8,4.1-2.8v1.6c-2.2,0-3.9,1.5-3.9,5.1v9.6h-1.8v-16h1.4L93.8,26.9z"/>
	<path d="M109.6,24.4v16h-1.4l-0.2-2.1c-0.8,1.7-2.2,2.3-3.7,2.3c-2.2,0-4.5-1.3-4.5-5.6v-5.3c0-4.3,2.3-5.6,4.5-5.6
		c1.6,0,3,0.7,3.7,2.3l0.2-2H109.6z M101.6,34.2c0,3.9,1.4,4.9,3.1,4.9c1.7,0,3.1-1,3.1-4.9v-3.5c0-3.9-1.4-4.9-3.1-4.9
		c-1.6,0-3.1,1-3.1,4.9V34.2z"/>
	<path d="M112.4,29.7c0-4.3,2.5-5.6,4.9-5.6c2.3,0,4.7,1.2,4.9,5.3V30h-1.8c-0.1-3.4-1.5-4.3-3.1-4.3c-1.7,0-3.1,1-3.1,4.9v3.5
		c0,3.9,1.3,4.9,3.1,4.9c1.6,0,3-0.9,3.1-4.3h1.8v0.5c-0.1,4.1-2.6,5.4-4.9,5.4c-2.3,0-4.9-1.3-4.9-5.6V29.7z"/>
	<g class="st7">
		<path d="M128.1,34.3c0,4.3,0.8,4.7,3,4.7h0.4v1.6h-0.8c-2.7,0-4.4-0.8-4.4-5.8V26h-2.4v-1.6h2.4v-4.9h1.8v4.9h3.4V26h-3.4V34.3z"
			/>
		<path d="M134.3,19.7h2.1v2h-2.1V19.7z M134.5,24.4h1.8v16h-1.8V24.4z"/>
	</g>
	<polygon points="151.1,24.4 146.1,40.4 144.1,40.4 139.2,24.4 141,24.4 145.1,37.7 149.2,24.4 	"/>
	<g class="st7">
		<path d="M152.2,29.7c0-4.3,2.5-5.6,4.9-5.6c2.3,0,4.9,1.3,4.9,5.6v3.5H154v1.4c0,3.5,1.4,4.4,3.1,4.4c1.5,0,2.9-0.8,3.1-3.8h1.8
			c-0.1,4.2-2.6,5.4-4.9,5.4c-2.3,0-4.9-1.3-4.9-5.6V29.7z M160.2,30c0-3.4-1.5-4.3-3.1-4.3c-1.6,0-3.1,0.9-3.1,4.3v1.7h6.1V30z"/>
		<path d="M176,26.5c0.8-1.6,2.2-2.4,3.8-2.4c1.6,0,3.3,0.7,4,2.9c0.7-2,2.2-2.9,4-2.9c2.2,0,4.4,1.3,4.4,5.6v10.7h-1.8v-9.8
			c0-3.9-1.5-4.9-3.1-4.9c-1.5,0-2.8,0.7-3,3.5v11.1h-1.8v-9.8c0-3.9-1.5-4.9-3.1-4.9c-1.6,0-3.1,0.9-3.1,4.3v10.3h-1.8v-16h1.4
			L176,26.5z"/>
		<path d="M194.8,29.7c0-4.3,2.5-5.6,4.9-5.6c2.3,0,4.9,1.3,4.9,5.6V35c0,4.3-2.5,5.6-4.9,5.6c-2.3,0-4.9-1.3-4.9-5.6V29.7z
			 M202.8,30.6c0-3.9-1.5-4.9-3.1-4.9c-1.7,0-3.1,1-3.1,4.9v3.5c0,3.9,1.3,4.9,3.1,4.9c1.7,0,3.1-1,3.1-4.9V30.6z"/>
		<path d="M217,18v22.4h-1.4l-0.2-2.1c-0.8,1.7-2.2,2.4-3.8,2.4c-2.2,0-4.4-1.3-4.4-5.6v-5.3c0-4.3,2.3-5.6,4.4-5.6
			c1.5,0,2.8,0.6,3.5,2.1V18H217z M209,34.2c0,3.9,1.4,4.9,3.1,4.9c1.7,0,3.1-1,3.1-4.9v-3.5c0-3.9-1.4-4.9-3.1-4.9
			c-1.6,0-3.1,1-3.1,4.9V34.2z"/>
		<path d="M219.8,29.7c0-4.3,2.5-5.6,4.9-5.6c2.3,0,4.9,1.3,4.9,5.6v3.5h-7.9v1.4c0,3.5,1.4,4.4,3.1,4.4c1.5,0,2.9-0.8,3.1-3.8h1.8
			c-0.1,4.2-2.6,5.4-4.9,5.4c-2.3,0-4.9-1.3-4.9-5.6V29.7z M227.7,30c0-3.4-1.5-4.3-3.1-4.3c-1.6,0-3.1,0.9-3.1,4.3v1.7h6.1V30z"/>
		<rect x="232.4" y="18" width="1.8" height="22.4"/>
	</g>
</g>
</svg>
