<svg id="Layer_1" data-name="Layer 1" xmlns="http://www.w3.org/2000/svg" viewBox="0 0 558.76 603.37"><defs><style>.cls-1{fill:#00a550;}.cls-2{fill:#2e3091;}.cls-3{fill:#00aeef;}.cls-4{fill:#ec2124;}.cls-5{fill:#fced00;}.cls-6{fill:#ec008c;}.cls-7{fill:#fff;}.cls-8{fill:#231f20;}.cls-9{fill:#8cc540;}.cls-10{fill:#009b90;}.cls-11{fill:#0b72ba;}.cls-12{fill:#90298d;}.cls-13{fill:#f69320;}.cls-14{fill:#eb1a5b;}.cls-15{fill:#fcee1f;}.cls-16{fill:#2d368f;}.cls-17{fill:#e90e8b;}.cls-18{fill:#03a550;}.cls-19{fill:#eb2227;}.cls-20{fill:#29abe2;}</style></defs><title>colors-exp_1</title><path class="cls-1" d="M231.28,144.15h0A74.69,74.69,0,0,1,194,208.82v.08a74.7,74.7,0,0,1-37.36,64.71,74.72,74.72,0,1,0,74.66-129.46Z"/><path class="cls-2" d="M119.25,208.9a74.69,74.69,0,0,1-37.44-64.67,74.73,74.73,0,0,0,74.81,129.38A74.7,74.7,0,0,1,119.25,208.9Z"/><path class="cls-3" d="M194,208.9v-.08a74.61,74.61,0,0,1-74.73.08,74.7,74.7,0,0,0,37.37,64.71A74.7,74.7,0,0,0,194,208.9Z"/><path class="cls-4" d="M156.62,144.19a74.68,74.68,0,0,1,74.66,0,74.74,74.74,0,0,0-149.47,0v.08a74.7,74.7,0,0,1,74.81,0Z"/><path class="cls-5" d="M156.62,144.19A74.68,74.68,0,0,1,194,208.82a74.69,74.69,0,0,0,37.3-64.67h0a74.68,74.68,0,0,0-74.66,0Z"/><path class="cls-6" d="M119.25,208.9h0a74.68,74.68,0,0,1,37.37-64.71,74.7,74.7,0,0,0-74.81,0A74.69,74.69,0,0,0,119.25,208.9Z"/><path class="cls-7" d="M156.62,144.19a74.68,74.68,0,0,0-37.37,64.71h0a74.61,74.61,0,0,0,74.73-.08A74.68,74.68,0,0,0,156.62,144.19Z"/><path class="cls-7" d="M156.27,93.73c3.35.1,7,1.59,6.88,6.26l0,1.23a5,5,0,0,1-3.31,4.86l3.27,10.25-3.75-.11-2.72-9.12-2.38-.07-.26,9-3.54-.1.63-22.39Zm3.41,6.65a2.8,2.8,0,0,0-3-3.21l-2.2-.06-.18,6.5,2.2.06a2.82,2.82,0,0,0,3.15-3Z"/><path class="cls-7" d="M218.09,226.1c.17-5.92,3.48-7.65,6.68-7.56s6.3,1.94,6.19,7.78v.34l-3.46-.1v-.22c0-3.11-1.22-4.31-2.82-4.36s-3,1.13-3,4.45l-.2,7c-.1,3.34,1.09,4.58,2.78,4.63s3-1.05,3.07-4.34l0-1.44-2.85-.08.1-3.44,6.33.18-.15,5c-.16,6-3.5,7.65-6.63,7.56s-6.41-2-6.25-7.92Z"/><path class="cls-7" d="M94,218.82c3.11.09,6.36,1.62,6.25,5.46l0,1.14a4.6,4.6,0,0,1-2.84,4.31,5,5,0,0,1,3.08,5l0,1c-.11,3.68-2.79,5.59-6.88,5.47l-5.83-.16.64-22.39Zm2.84,15.67c.06-2-1.16-3.06-3.11-3.11l-2.19-.06-.18,6.39,2.19.06c1.93.06,3.23-.88,3.28-2.93Zm-.07-9.38c.06-2-1.39-2.8-2.93-2.84l-2-.06-.17,5.85,2,.05c1.6,0,3-.71,3.08-2.68Z"/><path class="cls-6" d="M373,144.23s0,0,0-.08a74.71,74.71,0,0,1,37.37-64.71A74.72,74.72,0,1,0,335.71,208.9h0A74.67,74.67,0,0,1,373,144.23Z"/><path class="cls-5" d="M522.47,144.15a74.72,74.72,0,0,0-112.1-64.71,74.71,74.71,0,0,1,37.37,64.71,74.66,74.66,0,0,1,37.43,64.67A74.69,74.69,0,0,0,522.47,144.15Z"/><path class="cls-4" d="M373,144.15s0,0,0,.08a74.68,74.68,0,0,1,74.73-.08,74.71,74.71,0,0,0-37.37-64.71A74.71,74.71,0,0,0,373,144.15Z"/><path class="cls-3" d="M410.37,208.86a74.61,74.61,0,0,1-74.66,0,74.74,74.74,0,0,0,149.47,0s0-.05,0-.08a74.62,74.62,0,0,1-74.8,0Z"/><path class="cls-2" d="M410.37,208.86A74.66,74.66,0,0,1,373,144.23a74.67,74.67,0,0,0-37.3,64.67h0a74.61,74.61,0,0,0,74.66,0Z"/><path class="cls-1" d="M447.74,144.15h0a74.68,74.68,0,0,1-37.37,64.71,74.62,74.62,0,0,0,74.8,0A74.66,74.66,0,0,0,447.74,144.15Z"/><path class="cls-8" d="M373,144.23a74.66,74.66,0,0,0,37.36,64.63,74.68,74.68,0,0,0,37.37-64.71h0a74.68,74.68,0,0,0-74.73.08Z"/><path class="cls-8" d="M488.11,115.87l-5.39,13.55v8.85h-3.67v-8.84l-5.32-13.56h3.7l3.46,9.49,3.5-9.49Z"/><path class="cls-8" d="M346.54,116.72v22.4H343.1V125l-4.05,14.09h-2.22L332.78,125v14.09h-3.44v-22.4h4.35l4.25,14.94,4.25-14.94Z"/><path class="cls-8" d="M404.24,242.27c0-5.92,3.35-7.75,6.55-7.75s6.3,1.73,6.43,7.43v.64h-3.55l0-.55c-.14-2.93-1.29-4.07-2.86-4.07s-2.91,1.21-2.91,4.53v7c0,3.33,1.22,4.54,2.91,4.54s2.7-1.12,2.86-4l0-.6h3.55V250c-.11,5.72-3.35,7.46-6.43,7.46s-6.55-1.83-6.55-7.75Z"/><path class="cls-5" d="M284.72,429.5q1.09,2.42,2.44,4.76c.9,1.56,1.87,3.05,2.9,4.49a54.47,54.47,0,0,1,88.56,0A54.47,54.47,0,0,0,329,352.81a54.46,54.46,0,0,1-44.28,76.69Z"/><path class="cls-1" d="M381.52,497.72a54.5,54.5,0,0,0-2.9-59,54.47,54.47,0,0,1-88.56,0,53,53,0,0,0-2.9,4.49c-.9,1.56-1.71,3.15-2.44,4.75A54.47,54.47,0,0,1,329,524.69,54.48,54.48,0,0,0,381.52,497.72Z"/><path class="cls-9" d="M361.58,423.3a54.48,54.48,0,0,0-71.52,15.45,54.47,54.47,0,0,0,88.56,0A54.33,54.33,0,0,0,361.58,423.3Z"/><path class="cls-3" d="M284.72,448c-1.76-.17-3.54-.26-5.34-.26s-3.58.09-5.34.26a54.46,54.46,0,0,1-44.28,76.7,54.48,54.48,0,0,0,99.24,0A54.46,54.46,0,0,1,284.72,448Z"/><path class="cls-10" d="M284.72,448A54.46,54.46,0,0,0,329,524.69,54.47,54.47,0,0,0,284.72,448Z"/><path class="cls-2" d="M274,448c-.73-1.6-1.54-3.19-2.44-4.75a53,53,0,0,0-2.9-4.49,54.47,54.47,0,0,1-88.56,0,54.47,54.47,0,0,0,49.62,85.94A54.47,54.47,0,0,1,274,448Z"/><path class="cls-11" d="M274,448a54.47,54.47,0,0,0-44.28,76.7A54.46,54.46,0,0,0,274,448Z"/><path class="cls-6" d="M197.18,423.3a54.48,54.48,0,0,1,71.52,15.45c1-1.44,2-2.93,2.9-4.49s1.71-3.15,2.44-4.76a54.46,54.46,0,0,1-44.28-76.69,54.47,54.47,0,0,0-49.62,85.94A54.43,54.43,0,0,1,197.18,423.3Z"/><path class="cls-12" d="M197.18,454.2a54.49,54.49,0,0,0,71.52-15.45,54.47,54.47,0,0,0-88.56,0A54.43,54.43,0,0,0,197.18,454.2Z"/><path class="cls-4" d="M274,429.5c1.76.17,3.54.26,5.34.26s3.58-.09,5.34-.26A54.46,54.46,0,0,1,329,352.81a54.47,54.47,0,0,0-99.24,0A54.46,54.46,0,0,1,274,429.5Z"/><path class="cls-13" d="M284.72,429.5A54.46,54.46,0,0,0,329,352.81a54.46,54.46,0,0,0-44.28,76.69Z"/><path class="cls-14" d="M274,429.5a54.46,54.46,0,0,0-44.28-76.69A54.46,54.46,0,0,0,274,429.5Z"/><path class="cls-15" d="M378.49,339.58h0v0Z"/><path class="cls-15" d="M414.81,402.5v0Z"/><path class="cls-15" d="M397.71,407l17.09-4.55a141.28,141.28,0,0,0-36.27-62.81L366,352.17A122.38,122.38,0,0,1,397.71,407Z"/><path class="cls-16" d="M161.05,470.51,144,475.06a141.42,141.42,0,0,0,36.26,62.81l12.5-12.54A122.48,122.48,0,0,1,161.05,470.51Z"/><path class="cls-14" d="M247.61,320.42l-4.55-17.09a141.21,141.21,0,0,0-62.79,36.26l12.54,12.5A122.44,122.44,0,0,1,247.61,320.42Z"/><path class="cls-10" d="M378.54,537.87Z"/><path class="cls-10" d="M311.15,557.07l4.55,17.1a141.57,141.57,0,0,0,62.8-36.26L366,525.41A122.33,122.33,0,0,1,311.15,557.07Z"/><path class="cls-10" d="M315.64,574.18h0Z"/><path class="cls-13" d="M366,352.08l12.54-12.5a141.28,141.28,0,0,0-62.8-36.25l-4.55,17.09A122.45,122.45,0,0,1,366,352.08Z"/><path class="cls-13" d="M315.63,303.31Z"/><path class="cls-13" d="M378.53,339.63l0,0,0,0Z"/><path class="cls-13" d="M366,352.17l12.5-12.54,0,0v0L366,352.08Z"/><path class="cls-11" d="M192.82,525.41l-12.55,12.5,0,0h0a141.56,141.56,0,0,0,62.84,36.3l4.55-17.1A122.27,122.27,0,0,1,192.82,525.41Z"/><path class="cls-11" d="M192.82,525.41l-.09-.08-12.5,12.54,0,0Z"/><path class="cls-17" d="M161.06,407a122.29,122.29,0,0,1,31.66-54.79l-12.5-12.55.05,0h0A141.33,141.33,0,0,0,144,402.49h0a.64.64,0,0,0,0-.07Z"/><path class="cls-17" d="M192.72,352.18l.09-.09-12.54-12.5-.05,0Z"/><path class="cls-18" d="M378.5,537.91l0,0,0,0Z"/><path class="cls-18" d="M366,525.32l12.5,12.55a141.57,141.57,0,0,0,36.26-62.8l-17.1-4.55A122.33,122.33,0,0,1,366,525.32Z"/><path class="cls-18" d="M366,525.41l12.55,12.5,0,0h0L366,525.32Z"/><path class="cls-9" d="M414.8,402.44h0v0Z"/><path class="cls-9" d="M419.54,438.75a140.25,140.25,0,0,0-4.73-36.25l-17.07,4.61a123.3,123.3,0,0,1,0,63.29L414.81,475s0,0,0,.06h0A140.3,140.3,0,0,0,419.54,438.75Z"/><path class="cls-9" d="M397.74,407.11l17.07-4.61v-.06L397.71,407Z"/><path class="cls-9" d="M397.74,470.4l0,.12,17.1,4.55s0,0,0-.06Z"/><path class="cls-12" d="M161,470.39a123.19,123.19,0,0,1,0-63.3L144,402.49a141.4,141.4,0,0,0,0,72.57h0a.14.14,0,0,1,0-.06Z"/><path class="cls-12" d="M161,470.39,144,475a.14.14,0,0,0,0,.06l17.08-4.55Z"/><path class="cls-12" d="M161.06,407,144,402.42a.64.64,0,0,1,0,.07l17.08,4.6Z"/><path class="cls-19" d="M315.69,303.33h0Z"/><path class="cls-19" d="M247.73,320.39a123.05,123.05,0,0,1,63.3,0l4.6-17.08a141.25,141.25,0,0,0-72.57,0h0l.06,0Z"/><path class="cls-19" d="M247.73,320.39l-4.61-17.08-.06,0,4.55,17.09Z"/><path class="cls-19" d="M311.14,320.42l4.55-17.09h-.06L311,320.39Z"/><path class="cls-20" d="M279.38,561.24a122.7,122.7,0,0,1-31.64-4.13l-4.61,17.07h-.06a141.4,141.4,0,0,0,72.57,0L311,557.1A122.35,122.35,0,0,1,279.38,561.24Z"/><path class="cls-20" d="M315.7,574.17Z"/><path class="cls-20" d="M311,557.1l4.61,17.08h.06l-4.55-17.1Z"/><path class="cls-20" d="M247.74,557.11l-.12,0-4.55,17.1h.06Z"/><path d="M88.86,47H82.58l-1.83,6.81H78.67l5.76-22.4H87l5.77,22.4H90.69Zm-.31-2.11L85.72,33.91,82.89,44.84Z"/><path d="M104.33,31.36v22.4H103l-.19-2.11A3.94,3.94,0,0,1,99,54c-2.17,0-4.44-1.32-4.44-5.63V43.1c0-4.31,2.27-5.63,4.44-5.63a3.74,3.74,0,0,1,3.54,2.11V31.36Zm-8,16.15c0,3.85,1.41,4.86,3.1,4.86s3.08-1,3.07-4.86V44c0-3.88-1.42-4.86-3.08-4.86s-3.09,1-3.09,4.86Z"/><path d="M116.91,31.36v22.4h-1.36l-.2-2.11A3.92,3.92,0,0,1,111.57,54c-2.17,0-4.43-1.32-4.43-5.63V43.1c0-4.31,2.26-5.63,4.43-5.63a3.74,3.74,0,0,1,3.54,2.11V31.36Zm-8,16.15c0,3.85,1.41,4.86,3.11,4.86s3.07-1,3.06-4.86V44c0-3.88-1.41-4.86-3.07-4.86s-3.1,1-3.1,4.86Z"/><path d="M120,33.08h2.07v2H120Zm.14,4.68H122v16h-1.8Z"/><path d="M128.4,47.67c0,4.27.83,4.71,3,4.74h.39V54H131c-2.7,0-4.4-.77-4.39-5.84V39.37h-2.44V37.76h2.44v-4.9h1.79v4.9h3.4v1.61h-3.4Z"/><path d="M134.63,33.08h2.08v2h-2.08Zm.14,4.68h1.8v16h-1.8Z"/><path d="M151.33,37.76l-4.91,16h-2.06l-4.92-16h1.82L145.39,51l4.12-13.25Z"/><path d="M152.51,43.1c0-4.29,2.52-5.63,4.87-5.63s4.87,1.31,4.87,5.63v3.45h-7.94V48c0,3.47,1.39,4.39,3.08,4.39,1.51,0,3-.8,3.07-3.81h1.79c-.07,4.19-2.57,5.45-4.87,5.45s-4.87-1.34-4.87-5.63Zm7.94.3c0-3.41-1.54-4.29-3.07-4.29s-3.07.87-3.07,4.3v1.74h6.14Z"/><path d="M176.25,39.84a4.17,4.17,0,0,1,7.72.5,4,4,0,0,1,4-2.87c2.17,0,4.43,1.32,4.43,5.63V53.76h-1.79V44c0-3.88-1.47-4.86-3.1-4.86-1.48,0-2.83.73-3,3.5V53.76h-1.8V44c0-3.88-1.46-4.86-3.09-4.86s-3.07.88-3.08,4.34V53.76h-1.79v-16H176Z"/><path d="M195.1,43.1c0-4.29,2.52-5.63,4.87-5.63s4.9,1.31,4.9,5.63v5.28c0,4.32-2.55,5.63-4.9,5.63s-4.87-1.34-4.87-5.63Zm8,.87c0-3.88-1.48-4.86-3.1-4.86s-3.07,1-3.07,4.86v3.54c0,3.85,1.34,4.86,3.08,4.86s3.1-1,3.09-4.86Z"/><path d="M217.26,31.36v22.4H215.9l-.2-2.11A3.92,3.92,0,0,1,211.92,54c-2.16,0-4.43-1.32-4.43-5.63V43.1c0-4.31,2.27-5.63,4.43-5.63a3.73,3.73,0,0,1,3.54,2.11V31.36Zm-8,16.15c0,3.85,1.41,4.86,3.11,4.86s3.07-1,3.06-4.86V44c0-3.88-1.41-4.86-3.07-4.86s-3.1,1-3.1,4.86Z"/><path d="M220.06,43.1c0-4.29,2.52-5.63,4.87-5.63s4.87,1.31,4.87,5.63v3.45h-7.93V48c0,3.47,1.38,4.39,3.07,4.39,1.51,0,2.95-.8,3.07-3.81h1.79c-.06,4.19-2.57,5.45-4.87,5.45s-4.87-1.34-4.87-5.63Zm7.94.3c0-3.41-1.54-4.29-3.07-4.29s-3.07.87-3.07,4.3v1.74H228Z"/><path d="M232.71,31.36h1.8v22.4h-1.8Z"/><path d="M311.73,47c0,3.7,2.4,5,4.47,5,2.64,0,4.47-1.3,4.47-4.27s-1.93-3.92-4.61-4.69c-2.16-.62-5.76-1.58-5.76-6s3.11-6,6.08-6,6.13,1.79,6.13,7h-2c0-3.55-2.07-5-4.11-5a3.66,3.66,0,0,0-4,3.85c.07,3.27,3.13,3.74,4.54,4.14,4.09,1.12,5.83,3.12,5.83,6.47,0,4.87-3,6.46-6.56,6.46-3,0-6.48-1.75-6.5-7Z"/><path d="M335.2,37.76v16h-1.36l-.21-2.08A3.92,3.92,0,0,1,329.87,54c-2.17,0-4.44-1.32-4.44-5.63V37.76h1.8v9.78c0,3.89,1.47,4.86,3.1,4.86s3.08-.9,3.08-4.47V37.76Z"/><path d="M340,39.58a3.72,3.72,0,0,1,3.53-2.11c2.17,0,4.44,1.32,4.44,5.63v5.28c0,4.31-2.27,5.63-4.44,5.63a3.94,3.94,0,0,1-3.78-2.36l-.19,2.11h-1.36V31.36H340ZM346.14,44c0-3.88-1.46-4.86-3.09-4.86S340,40.09,340,44v3.54c0,3.85,1.35,4.86,3.07,4.86s3.1-1,3.1-4.86Z"/><path d="M354.68,47.67c0,4.27.82,4.71,3,4.74h.38V54h-.79c-2.71,0-4.4-.77-4.4-5.84V39.37h-2.43V37.76h2.43v-4.9h1.8v4.9h3.39v1.61h-3.39Z"/><path d="M362.45,40.26a4.47,4.47,0,0,1,4.11-2.79v1.61c-2.21,0-3.93,1.55-3.94,5.11v9.57h-1.79v-16h1.36Z"/><path d="M378.25,37.76v16h-1.36l-.18-2.09A3.88,3.88,0,0,1,373,54c-2.16,0-4.48-1.32-4.48-5.63V43.1c0-4.31,2.32-5.63,4.48-5.63a3.91,3.91,0,0,1,3.74,2.28l.19-2Zm-8,9.75c0,3.85,1.41,4.86,3.11,4.86s3.07-1,3.06-4.86V44c0-3.88-1.41-4.86-3.07-4.86s-3.1,1-3.1,4.86Z"/><path d="M381.06,43.1c0-4.29,2.52-5.63,4.87-5.63s4.74,1.24,4.86,5.33v.57H389c-.08-3.38-1.55-4.26-3.1-4.26s-3.07,1-3.07,4.86v3.54c0,3.85,1.34,4.86,3.08,4.86s3-.9,3.09-4.26h1.76v.52c-.1,4.12-2.56,5.38-4.86,5.38s-4.87-1.34-4.87-5.63Z"/><path d="M396.76,47.67c0,4.27.82,4.71,3,4.74h.38V54h-.8c-2.7,0-4.39-.77-4.39-5.84V39.37h-2.43V37.76H395v-4.9h1.8v4.9h3.39v1.61h-3.39Z"/><path d="M403,33.08h2.08v2H403Zm.14,4.68h1.8v16h-1.8Z"/><path d="M419.69,37.76l-4.92,16h-2.06l-4.91-16h1.82L413.74,51l4.13-13.25Z"/><path d="M420.87,43.1c0-4.29,2.51-5.63,4.86-5.63s4.88,1.31,4.88,5.63v3.45h-7.94V48c0,3.47,1.39,4.39,3.08,4.39,1.51,0,2.94-.8,3.07-3.81h1.79C430.54,52.75,428,54,425.73,54s-4.86-1.34-4.86-5.63Zm7.93.3c0-3.41-1.53-4.29-3.06-4.29s-3.07.87-3.08,4.3v1.74h6.14Z"/><path d="M444.6,39.84a4.17,4.17,0,0,1,7.72.5,4,4,0,0,1,4-2.87c2.17,0,4.44,1.32,4.44,5.63V53.76h-1.8V44c0-3.88-1.46-4.86-3.1-4.86-1.47,0-2.82.73-3,3.5V53.76H451V44c0-3.88-1.47-4.86-3.1-4.86s-3.07.88-3.07,4.34V53.76H443v-16h1.36Z"/><path d="M463.46,43.1c0-4.29,2.52-5.63,4.86-5.63s4.9,1.31,4.9,5.63v5.28c0,4.32-2.55,5.63-4.9,5.63s-4.86-1.34-4.86-5.63Zm8,.87c0-3.88-1.49-4.86-3.1-4.86s-3.07,1-3.07,4.86v3.54c0,3.85,1.34,4.86,3.08,4.86s3.09-1,3.09-4.86Z"/><path d="M485.61,31.36v22.4h-1.36l-.19-2.11A3.94,3.94,0,0,1,480.28,54c-2.17,0-4.44-1.32-4.44-5.63V43.1c0-4.31,2.27-5.63,4.44-5.63a3.74,3.74,0,0,1,3.54,2.11V31.36Zm-8,16.15c0,3.85,1.41,4.86,3.1,4.86s3.08-1,3.07-4.86V44c0-3.88-1.42-4.86-3.08-4.86s-3.09,1-3.09,4.86Z"/><path d="M488.42,43.1c0-4.29,2.51-5.63,4.86-5.63s4.88,1.31,4.88,5.63v3.45h-7.94V48c0,3.47,1.39,4.39,3.08,4.39,1.51,0,2.94-.8,3.07-3.81h1.79c-.07,4.19-2.57,5.45-4.88,5.45s-4.86-1.34-4.86-5.63Zm7.93.3c0-3.41-1.53-4.29-3.06-4.29s-3.07.87-3.08,4.3v1.74h6.14Z"/><path d="M501.06,31.36h1.8v22.4h-1.8Z"/></svg>