<svg id="circle-of-tones" xmlns="http://www.w3.org/2000/svg" xmlns:xlink="http://www.w3.org/1999/xlink" viewBox="0 0 340.16 340.16">
  <defs>
    <clipPath id="clip-path">
      <circle id="mask" cx="170.08" cy="170.08" r="107.71" fill="none"/>
    </clipPath>
  </defs>
  <g id="scales">
    <g clip-path="url(#clip-path)">
      <g id="penta">
        <circle cx="267.26" cy="73.16" r="96.51" fill="#bcbec0" stroke="#6d6e71" stroke-miterlimit="10" stroke-width="0.71"/>
        <circle cx="37.47" cy="205.66" r="96.51" fill="#bcbec0" stroke="#6d6e71" stroke-miterlimit="10" stroke-width="0.71"/>
        <circle cx="286.81" cy="236.65" r="67.29" fill="#bcbec0" stroke="#6d6e71" stroke-miterlimit="10" stroke-width="0.71"/>
        <circle cx="170.07" cy="302.6" r="65.73" fill="#bcbec0" stroke="#6d6e71" stroke-miterlimit="10" stroke-width="0.71"/>
        <circle cx="103.76" cy="55.15" r="65.89" fill="#bcbec0" stroke="#6d6e71" stroke-miterlimit="10" stroke-width="0.71"/>
      </g>
      <g id="major">
        <circle cx="236.34" cy="55.31" r="66.29" fill="#e6e7e8" stroke="#808285" stroke-miterlimit="10" stroke-width="0.71"/>
        <circle cx="286.81" cy="236.65" r="67.29" fill="#e6e7e8" stroke="#808285" stroke-miterlimit="10" stroke-width="0.71"/>
        <circle cx="170.07" cy="302.6" r="65.73" fill="#e6e7e8" stroke="#808285" stroke-miterlimit="10" stroke-width="0.71"/>
        <circle cx="37.45" cy="170.11" r="66.03" fill="#e6e7e8" stroke="#808285" stroke-miterlimit="10" stroke-width="0.71"/>
        <circle cx="103.76" cy="55.15" r="65.89" fill="#e6e7e8" stroke="#808285" stroke-miterlimit="10" stroke-width="0.71"/>
        <circle cx="287.47" cy="138.15" r="32.63" fill="#e6e7e8" stroke="#808285" stroke-miterlimit="10" stroke-width="0.71"/>
        <circle cx="80.79" cy="259.2" r="36.08" fill="#e6e7e8" stroke="#808285" stroke-miterlimit="10" stroke-width="0.71"/>
      </g>
      <g id="fifths">
        <path id="path7583-6" d="M169.9,62.46,116.63,263.59" fill="none" stroke="#a7a9ac" stroke-miterlimit="10" stroke-width="0.71"/>
        <path id="path7583-4-7" d="M115.39,76.88,169.82,277.7" fill="none" stroke="#a7a9ac" stroke-miterlimit="10" stroke-width="0.71"/>
        <path id="path7583-34-2" d="M116.63,263.59C263.09,115.66,263.32,116,263.32,116" fill="none" stroke="#a7a9ac" stroke-miterlimit="10" stroke-width="0.71"/>
        <path id="path7583-8-7" d="M169.82,277.7,223.09,76.57" fill="none" stroke="#a7a9ac" stroke-miterlimit="10" stroke-width="0.71"/>
        <path id="path7583-2-0" d="M76.74,116.22,224.33,263.28,169.9,62.46" fill="none" stroke="#a7a9ac" stroke-miterlimit="10" stroke-width="0.71"/>
        <path id="path7583-25-1" d="M223.09,76.57,76.39,224.11" fill="none" stroke="#a7a9ac" stroke-miterlimit="10" stroke-width="0.71"/>
        <path id="path7583-35-3" d="M263.09,115.66,62.27,170.09" fill="none" stroke="#a7a9ac" stroke-miterlimit="10" stroke-width="0.71"/>
        <path id="path7583-45-8" d="M76.39,224.11c200.82-54.43,201.09-54.71,201.09-54.71L76.74,116.22" fill="none" stroke="#a7a9ac" stroke-miterlimit="10" stroke-width="0.71"/>
        <path id="path7583-26-0" d="M62.27,170.09,263,225C115.41,78.32,115.39,76.88,115.39,76.88" fill="none" stroke="#a7a9ac" stroke-miterlimit="10" stroke-width="0.71"/>
      </g>
      <circle cx="255.87" cy="83.51" r="32.8" fill="#f6f6f6" stroke="#939598" stroke-miterlimit="10" stroke-width="0.71"/>
      <circle cx="287.66" cy="138" r="32.8" fill="#f6f6f6" stroke="#939598" stroke-miterlimit="10" stroke-width="0.71"/>
      <circle cx="287.94" cy="201.09" r="32.8" fill="#f6f6f6" stroke="#939598" stroke-miterlimit="10" stroke-width="0.71"/>
      <circle cx="256.65" cy="255.87" r="32.8" fill="#f6f6f6" stroke="#939598" stroke-miterlimit="10" stroke-width="0.71"/>
      <circle cx="202.16" cy="287.66" r="32.8" fill="#f6f6f6" stroke="#939598" stroke-miterlimit="10" stroke-width="0.71"/>
      <circle cx="139.07" cy="287.94" r="32.8" fill="#f6f6f6" stroke="#939598" stroke-miterlimit="10" stroke-width="0.71"/>
      <circle cx="84.29" cy="256.65" r="32.8" fill="#f6f6f6" stroke="#939598" stroke-miterlimit="10" stroke-width="0.71"/>
      <circle cx="52.5" cy="202.16" r="32.8" fill="#f6f6f6" stroke="#939598" stroke-miterlimit="10" stroke-width="0.71"/>
      <circle cx="52.21" cy="139.07" r="32.8" fill="#f6f6f6" stroke="#939598" stroke-miterlimit="10" stroke-width="0.71"/>
      <circle cx="83.51" cy="84.29" r="32.8" fill="#f6f6f6" stroke="#939598" stroke-miterlimit="10" stroke-width="0.71"/>
      <circle cx="138" cy="52.5" r="32.8" fill="#f6f6f6" stroke="#939598" stroke-miterlimit="10" stroke-width="0.71"/>
      <circle cx="201.09" cy="52.21" r="32.8" fill="#f6f6f6" stroke="#939598" stroke-miterlimit="10" stroke-width="0.71"/>
    </g>
  </g>
  <g id="circles">
    <circle id="c1" cx="170.08" cy="36.32" r="25.99" fill="#ee342e"/>
    <circle id="c2" cx="236.96" cy="54.24" r="25.99" fill="#f7941d"/>
    <circle id="c3" cx="285.92" cy="103.2" r="25.99" fill="#fff200"/>
    <circle id="c4" cx="303.84" cy="170.08" r="25.99" fill="#87c540"/>
    <circle id="c5" cx="285.92" cy="236.96" r="25.99" fill="#00a651"/>
    <circle id="c6" cx="236.96" cy="285.92" r="25.99" fill="#00a99d"/>
    <circle id="c7" cx="170.08" cy="303.84" r="25.99" fill="#00aeef"/>
    <circle id="c8" cx="103.2" cy="285.92" r="25.99" fill="#0072bc"/>
    <circle id="c9" cx="54.24" cy="236.96" r="25.99" fill="#2e3192"/>
    <circle id="c10" cx="36.32" cy="170.08" r="25.99" fill="#92278f"/>
    <circle id="c11" cx="54.24" cy="103.2" r="25.99" fill="#ec008c"/>
    <circle id="c12" cx="103.2" cy="54.24" r="25.99" fill="#e11156"/>
  </g>
  <g>
    <path d="M163.2,44l1-2.75c.36-1,.71-1.87,1-2.74L167.39,33l1-2.7c.3-.81.61-1.62.92-2.44h1.56c.3.82.61,1.64.91,2.44s.65,1.7,1,2.71l2.09,5.57c.33.89.68,1.8,1,2.75s.69,1.84,1,2.7h-1.19c-.36-1-.74-2-1.13-3.06s-.76-2.05-1.1-3l-3.35-9H170l-3.35,8.92-1.15,3c-.39,1.06-.78,2.08-1.15,3.08Zm2.5-4.43.06-1h8.72l0,1Z" fill="#feefed"/>
    <g>
      <path d="M222.43,62.24l1-2.75c.36-1,.71-1.87,1-2.74l2.11-5.55,1-2.7c.31-.8.61-1.62.92-2.43h1.56c.31.82.61,1.63.92,2.43s.64,1.71,1,2.71l2.08,5.57,1,2.75c.36.94.7,1.84,1,2.71H235c-.36-1-.74-2-1.13-3.07s-.76-2-1.1-3l-3.35-9h-.15l-3.36,8.91-1.15,3-1.15,3.08Zm2.5-4.44.06-1h8.72l0,1Z" fill="#feefed"/>
      <path d="M237.39,58.48v-.89h13.09v.89H237.39Zm1.35-6.38v-.89h13.09v.89H238.74Zm1.1,10.14c.17-.78.33-1.53.47-2.25s.33-1.55.53-2.51l1.09-5.15c.14-.67.27-1.27.39-1.82l.32-1.57c.11-.5.22-1,.33-1.55h1c-.12.52-.23,1-.33,1.54s-.22,1-.33,1.59-.24,1.15-.39,1.82l-1.09,5.14c-.19,1-.37,1.78-.52,2.5s-.31,1.47-.47,2.26Zm5.28,0c.16-.78.32-1.53.47-2.25s.32-1.55.52-2.51l1.09-5.15c.15-.67.27-1.27.39-1.82s.22-1.07.33-1.57.21-1,.33-1.55h.95c-.12.52-.22,1-.33,1.54s-.22,1-.33,1.59-.24,1.15-.39,1.82l-1.08,5.14c-.2,1-.37,1.78-.53,2.5s-.31,1.47-.47,2.26Z" fill="#feefed"/>
    </g>
    <path d="M285.76,111.06h-4.7V94.89h5.64a8.27,8.27,0,0,1,2.19.26,4.22,4.22,0,0,1,1.53.76,3,3,0,0,1,.9,1.22,4.11,4.11,0,0,1,.3,1.62,4.3,4.3,0,0,1-.36,1.81,3.77,3.77,0,0,1-1,1.29,4.42,4.42,0,0,1-1.42.8v.16a4.62,4.62,0,0,1,1.5.55,3.45,3.45,0,0,1,1.24,1.22,3.91,3.91,0,0,1,.49,2.08,4.65,4.65,0,0,1-.31,1.72,3.53,3.53,0,0,1-1.05,1.4,5.24,5.24,0,0,1-1.94.94A11.19,11.19,0,0,1,285.76,111.06Zm-3.57-1h3.62a8.76,8.76,0,0,0,3-.42,3.24,3.24,0,0,0,1.61-1.19,3.28,3.28,0,0,0,.49-1.82,2.72,2.72,0,0,0-1.24-2.54,6.67,6.67,0,0,0-3.45-.75H282v-1h4.34a5,5,0,0,0,2.4-.49,3.14,3.14,0,0,0,1.34-1.28,3.57,3.57,0,0,0,.42-1.7,2.61,2.61,0,0,0-1-2.28,4.87,4.87,0,0,0-2.86-.7h-4.43v14.15Z" fill="#6d6e71"/>
    <path d="M304.09,178.58a8.73,8.73,0,0,1-3.4-.63,7.2,7.2,0,0,1-2.57-1.77,7.83,7.83,0,0,1-1.62-2.66,9.49,9.49,0,0,1-.56-3.28,9.06,9.06,0,0,1,1-4.34,7.5,7.5,0,0,1,2.79-2.93,7.74,7.74,0,0,1,4-1.05,10.12,10.12,0,0,1,1.58.12,10,10,0,0,1,1.43.33,12.42,12.42,0,0,1,1.23.44,8.71,8.71,0,0,1,1,.46l-.14,1.15a11.23,11.23,0,0,0-1.73-.82,9.84,9.84,0,0,0-1.66-.46,9,9,0,0,0-1.62-.15,6.68,6.68,0,0,0-3.48.9,6.27,6.27,0,0,0-2.36,2.53,8.06,8.06,0,0,0-.86,3.84,9,9,0,0,0,.44,2.83,6.67,6.67,0,0,0,1.33,2.3,6.19,6.19,0,0,0,2.2,1.56,7.56,7.56,0,0,0,3,.57,11.7,11.7,0,0,0,1.19-.07,9.46,9.46,0,0,0,1.18-.23,6.81,6.81,0,0,0,2.21-1l.14,1.16a5.39,5.39,0,0,1-1,.55,7.77,7.77,0,0,1-1.18.39,10.2,10.2,0,0,1-1.25.22A11.15,11.15,0,0,1,304.09,178.58Z" fill="#feefed"/>
    <g>
      <path d="M278.91,245.53a8.73,8.73,0,0,1-3.4-.63,7.2,7.2,0,0,1-2.57-1.77,7.83,7.83,0,0,1-1.62-2.66,9.53,9.53,0,0,1-.56-3.28,9.06,9.06,0,0,1,1-4.34,7.5,7.5,0,0,1,2.79-2.93,7.75,7.75,0,0,1,4-1,10.12,10.12,0,0,1,3,.45,12.42,12.42,0,0,1,1.23.44,7.22,7.22,0,0,1,1,.46l-.14,1.15a11.23,11.23,0,0,0-1.73-.82,9.84,9.84,0,0,0-1.66-.46,9,9,0,0,0-1.62-.15,6.68,6.68,0,0,0-3.48.9,6.27,6.27,0,0,0-2.36,2.53,8.06,8.06,0,0,0-.86,3.84,9,9,0,0,0,.44,2.83,6.67,6.67,0,0,0,1.33,2.3,6.19,6.19,0,0,0,2.2,1.56,7.56,7.56,0,0,0,3,.57,9.39,9.39,0,0,0,1.19-.08,7.91,7.91,0,0,0,1.18-.22,6.81,6.81,0,0,0,2.21-1l.14,1.16a5.39,5.39,0,0,1-1,.55,7.77,7.77,0,0,1-1.18.39,10.2,10.2,0,0,1-1.25.22A11.15,11.15,0,0,1,278.91,245.53Z" fill="#feefed"/>
      <path d="M285.44,241.57v-.9h13.09v.9H285.44Zm1.35-6.39v-.88h13.09v.88H286.79Zm1.1,10.14c.17-.78.33-1.53.47-2.25l.53-2.5,1.09-5.16c.14-.67.27-1.27.38-1.82s.23-1.06.33-1.57.22-1,.33-1.54h1c-.11.52-.22,1-.32,1.54s-.22,1-.33,1.58-.25,1.15-.39,1.82l-1.09,5.15c-.19.94-.37,1.77-.52,2.49s-.31,1.47-.48,2.26Zm5.27,0q.25-1.17.48-2.25c.14-.71.32-1.55.52-2.5l1.09-5.16c.14-.67.27-1.27.39-1.82s.22-1.06.33-1.57.21-1,.32-1.54h1c-.12.52-.23,1-.33,1.54s-.22,1-.33,1.58-.24,1.15-.39,1.82l-1.09,5.15c-.19.94-.37,1.77-.52,2.49s-.31,1.47-.47,2.26Z" fill="#feefed"/>
    </g>
    <path d="M231,294V277.85h5.26a9.28,9.28,0,0,1,3.34.55,6.44,6.44,0,0,1,2.45,1.58,6.81,6.81,0,0,1,1.52,2.52,10.31,10.31,0,0,1,.51,3.36,10.6,10.6,0,0,1-.46,3.19,7,7,0,0,1-1.43,2.6,6.61,6.61,0,0,1-2.56,1.74,10.45,10.45,0,0,1-3.85.63H231Zm1.13-1h3.66a8,8,0,0,0,4.19-.94,5.43,5.43,0,0,0,2.24-2.57,10.32,10.32,0,0,0,.28-6.53,5.73,5.73,0,0,0-1.24-2.2,5.32,5.32,0,0,0-2.12-1.42,8.77,8.77,0,0,0-3.06-.49h-4V293Z" fill="#feefed"/>
    <g>
      <path d="M156,312.42V296.26h5.26a9.61,9.61,0,0,1,3.35.54,6.48,6.48,0,0,1,2.44,1.58,6.81,6.81,0,0,1,1.52,2.52,10.31,10.31,0,0,1,.51,3.36,10.56,10.56,0,0,1-.46,3.19,7,7,0,0,1-1.43,2.6,6.43,6.43,0,0,1-2.56,1.74,10.45,10.45,0,0,1-3.85.63H156Zm1.13-1h3.67a8,8,0,0,0,4.18-.94,5.35,5.35,0,0,0,2.24-2.56,9.34,9.34,0,0,0,.68-3.67,9.48,9.48,0,0,0-.4-2.87,5.92,5.92,0,0,0-1.23-2.2,5.52,5.52,0,0,0-2.13-1.41,8.53,8.53,0,0,0-3.06-.5h-4v14.15Z" fill="#feefed"/>
      <path d="M170.8,308.67v-.89h13.08v.89H170.8Zm1.35-6.38v-.89h13.08v.89H172.15Zm1.09,10.13c.17-.77.33-1.52.48-2.24s.32-1.55.52-2.51l1.09-5.16c.14-.66.27-1.26.39-1.81s.22-1.07.33-1.57.21-1,.32-1.55h1c-.12.52-.23,1-.33,1.54s-.22,1-.33,1.59-.24,1.15-.39,1.82l-1.09,5.14c-.19.95-.37,1.78-.52,2.5s-.31,1.47-.47,2.25Zm5.28,0,.47-2.24c.15-.72.32-1.55.53-2.51l1.08-5.16c.15-.66.28-1.26.39-1.81s.22-1.07.33-1.57.21-1,.33-1.55h.95c-.11.52-.22,1-.33,1.54s-.21,1-.33,1.59-.24,1.15-.38,1.82l-1.09,5.14c-.2.95-.37,1.78-.52,2.5s-.31,1.47-.48,2.25Z" fill="#feefed"/>
    </g>
    <path d="M97.64,294.52V278.35h9.67v1H98.16l.6-.89v15.87l-.57-.87h9.11v1Zm.89-7.71v-1h8.28v1H98.53Z" fill="#feefed"/>
    <path d="M49.72,245.53V229.36h9.46v1H50.34l.51-.9v16Zm.89-7.67v-1h8.07v1H50.61Z" fill="#feefed"/>
    <g>
      <path d="M23.25,178.58V162.42h9.46v1H23.86l.51-.9v16Zm.89-7.67v-1h8.07v1H24.14Z" fill="#feefed"/>
      <path d="M34.28,174.83v-.89H47.37v.89H34.28Zm1.35-6.38v-.89H48.72v.89H35.63Zm1.1,10.13c.17-.77.33-1.52.47-2.24s.33-1.55.53-2.51l1.09-5.16c.14-.66.27-1.26.38-1.81s.23-1.07.33-1.57.22-1,.33-1.55h1c-.12.52-.23,1-.33,1.54s-.22,1-.33,1.59-.24,1.15-.39,1.82l-1.09,5.14c-.19.95-.37,1.78-.52,2.5s-.31,1.47-.47,2.25Zm5.28,0,.47-2.24c.14-.72.32-1.55.52-2.51l1.09-5.16c.14-.66.27-1.26.39-1.81s.22-1.07.33-1.57.21-1,.33-1.55h1c-.12.52-.23,1-.33,1.54s-.22,1-.33,1.59-.24,1.15-.39,1.82L44,173.83c-.2.95-.37,1.78-.53,2.5s-.31,1.47-.47,2.25Z" fill="#feefed"/>
    </g>
    <path d="M54.36,111.28a10.12,10.12,0,0,1-3.71-.64A7.34,7.34,0,0,1,48,108.87a7.47,7.47,0,0,1-1.62-2.66,9.49,9.49,0,0,1-.55-3.28,9.13,9.13,0,0,1,1-4.31,7.5,7.5,0,0,1,2.8-3,8,8,0,0,1,4.17-1.06,11,11,0,0,1,1.65.12,15.13,15.13,0,0,1,1.5.33c.46.14.89.28,1.28.44a8.33,8.33,0,0,1,1,.46l-.13,1.15a12.42,12.42,0,0,0-1.81-.82,11.24,11.24,0,0,0-1.74-.46,10.8,10.8,0,0,0-1.69-.14,7.27,7.27,0,0,0-2.77.5,6.16,6.16,0,0,0-3.57,3.74,8.58,8.58,0,0,0-.5,3,9.07,9.07,0,0,0,.44,2.86,6.25,6.25,0,0,0,1.34,2.32,6,6,0,0,0,2.31,1.56,9.1,9.1,0,0,0,3.34.55c.41,0,.82,0,1.24-.06a11.53,11.53,0,0,0,1.27-.2,10.5,10.5,0,0,0,1.25-.35,7.7,7.7,0,0,0,1.17-.52l.15,1.17a9.94,9.94,0,0,1-1,.36q-.56.18-1.23.33c-.45.1-.92.17-1.41.24A12.83,12.83,0,0,1,54.36,111.28Zm4-1v-7.18h1.11v7.17Z" fill="#feefed"/>
    <g>
      <path d="M97.06,62.45a10.08,10.08,0,0,1-3.71-.63A7.49,7.49,0,0,1,90.68,60a7.39,7.39,0,0,1-1.62-2.66,9.43,9.43,0,0,1-.55-3.27,9,9,0,0,1,1-4.31,7.35,7.35,0,0,1,2.79-2.95,8.07,8.07,0,0,1,4.18-1.07,9.85,9.85,0,0,1,1.65.13,10.86,10.86,0,0,1,1.49.33,12.75,12.75,0,0,1,1.28.43,9.52,9.52,0,0,1,1,.46l-.13,1.16a11.44,11.44,0,0,0-1.81-.82A11.24,11.24,0,0,0,98.21,47a9.74,9.74,0,0,0-1.69-.15,7.52,7.52,0,0,0-2.78.5,6.16,6.16,0,0,0-2.16,1.46,6.46,6.46,0,0,0-1.41,2.28,8.6,8.6,0,0,0-.49,3A8.84,8.84,0,0,0,90.12,57a6.45,6.45,0,0,0,1.33,2.32,6.19,6.19,0,0,0,2.32,1.55,9.09,9.09,0,0,0,3.34.56,10.43,10.43,0,0,0,1.24-.07,11.47,11.47,0,0,0,1.27-.19,10.54,10.54,0,0,0,1.25-.36,6.83,6.83,0,0,0,1.17-.52l.15,1.17a9.94,9.94,0,0,1-1,.36q-.57.18-1.23.33t-1.41.24A12.83,12.83,0,0,1,97.06,62.45Zm4-1V54.26h1.12v7.17Z" fill="#feefed"/>
      <path d="M104.32,58.48v-.89H117.4v.89H104.32Zm1.35-6.38v-.89h13.08v.89H105.67Zm1.1,10.14c.16-.78.32-1.53.47-2.25s.32-1.55.52-2.51l1.09-5.15c.15-.67.27-1.27.39-1.82s.22-1.07.33-1.57.21-1,.33-1.55h.95c-.12.52-.22,1-.33,1.54s-.22,1-.33,1.59-.24,1.15-.38,1.82l-1.09,5.14c-.2,1-.37,1.78-.53,2.5s-.3,1.47-.47,2.26Zm5.27,0c.16-.78.32-1.53.47-2.25s.32-1.55.53-2.51l1.08-5.15c.15-.67.28-1.27.39-1.82s.22-1.07.33-1.57.22-1,.33-1.55h1c-.11.52-.22,1-.33,1.54s-.21,1-.33,1.59-.24,1.15-.38,1.82L114,57.48c-.2,1-.37,1.78-.52,2.5s-.31,1.47-.48,2.26Z" fill="#feefed"/>
    </g>
  </g>
</svg>
