<?xml version="1.0" encoding="utf-8"?>
<!-- Generator: Adobe Illustrator 24.3.0, SVG Export Plug-In . SVG Version: 6.00 Build 0)  -->
<svg version="1.1" id="circle-of-tones" xmlns="http://www.w3.org/2000/svg" xmlns:xlink="http://www.w3.org/1999/xlink" x="0px"
	 y="0px" viewBox="0 0 360 360" style="enable-background:new 0 0 360 360;" xml:space="preserve">
<style type="text/css">
	.st0{opacity:0.68;}
	.st1{clip-path:url(#SVGID_2_);}
	.st2{opacity:0.5;}
	.st3{fill:#BCBEC0;stroke:#808285;stroke-width:0.7087;stroke-miterlimit:10;}
	.st4{opacity:0.9;}
	.st5{fill:#F1F2F2;stroke:#808285;stroke-width:0.7087;stroke-miterlimit:10;}
	.st6{fill:none;stroke:#A7A9AC;stroke-width:0.7087;stroke-miterlimit:10;}
	.st7{fill:#EE342E;}
	.st8{fill:#F7941D;}
	.st9{fill:#FFF200;}
	.st10{fill:#87C540;}
	.st11{fill:#00A651;}
	.st12{fill:#00A99D;}
	.st13{fill:#00AEEF;}
	.st14{fill:#0072BC;}
	.st15{fill:#2E3192;}
	.st16{fill:#92278F;}
	.st17{fill:#EC008C;}
	.st18{fill:#E11156;}
	.st19{fill:#FFFFFF;}
	.st20{fill:#9DA4AB;}
</style>
<g>
	<g id="scales" class="st0">
		<g>
			<defs>
				<circle id="SVGID_1_" cx="180" cy="180" r="98.8"/>
			</defs>
			<clipPath id="SVGID_2_">
				<use xlink:href="#SVGID_1_"  style="overflow:visible;"/>
			</clipPath>
			<g class="st1">
				<g class="st2">
					<circle class="st3" cx="269.1" cy="91.1" r="88.5"/>
					<circle class="st3" cx="58.4" cy="212.6" r="88.5"/>
				</g>
				<g class="st4">
					<circle class="st5" cx="240.8" cy="74.8" r="60.8"/>
					<circle class="st5" cx="287" cy="241" r="61.7"/>
					<circle class="st5" cx="180" cy="301.5" r="60.3"/>
					<circle class="st5" cx="58.4" cy="180" r="60.5"/>
					<circle class="st5" cx="119.2" cy="74.6" r="60.4"/>
					<circle class="st5" cx="287.6" cy="150.7" r="29.9"/>
					<circle class="st5" cx="98.1" cy="261.7" r="33.1"/>
				</g>
				<g id="fifths">
					<path id="path7583-6" class="st6" d="M179.8,81.3L131,265.7"/>
					<path id="path7583-4-7" class="st6" d="M129.9,94.6l49.9,184.1"/>
					<path id="path7583-34-2" class="st6" d="M131,265.7c134.3-135.6,134.5-135.3,134.5-135.3"/>
					<path id="path7583-8-7" class="st6" d="M179.8,278.7l48.9-184.4"/>
					<path id="path7583-2-0" class="st6" d="M94.4,130.6l135.3,134.8L179.8,81.3"/>
					<path id="path7583-25-1" class="st6" d="M228.6,94.3L94.1,229.5"/>
					<path id="path7583-35-3" class="st6" d="M265.3,130.1L81.2,180"/>
					<path id="path7583-45-8" class="st6" d="M94.1,229.5c184.1-49.9,184.4-50.2,184.4-50.2C94.1,130.5,94.4,130.6,94.4,130.6"/>
					<path id="path7583-26-0" class="st6" d="M81.2,180l184,50.4C129.9,95.9,129.9,94.6,129.9,94.6"/>
				</g>
			</g>
		</g>
	</g>
	<g id="notes">
		<g id="circles">
			<circle id="c1" class="st7" cx="180" cy="57.4" r="23.8"/>
			
				<ellipse id="c2" transform="matrix(0.1602 -0.9871 0.9871 0.1602 129.8276 300.1741)" class="st8" cx="241.3" cy="73.8" rx="23.8" ry="23.8"/>
			<circle id="c3" class="st9" cx="286.2" cy="118.7" r="23.8"/>
			<circle id="c4" class="st10" cx="302.6" cy="180" r="23.8"/>
			<circle id="c5" class="st11" cx="286.2" cy="241.3" r="23.8"/>
			<circle id="c6" class="st12" cx="241.3" cy="286.2" r="23.8"/>
			<circle id="c7" class="st13" cx="180" cy="302.6" r="23.8"/>
			<circle id="c8" class="st14" cx="118.7" cy="286.2" r="23.8"/>
			<circle id="c9" class="st15" cx="73.8" cy="241.3" r="23.8"/>
			<circle id="c10" class="st16" cx="57.4" cy="180" r="23.8"/>
			<circle id="c11" class="st17" cx="73.8" cy="118.7" r="23.8"/>
			<circle id="c12" class="st18" cx="118.7" cy="73.8" r="23.8"/>
		</g>
		<g id="letters">
			<path class="st19" d="M181.7,60.7h-3.6l-1,4h-1.8l3.5-14.6h2.3l3.5,14.6h-1.8L181.7,60.7z M181.5,58.9l-1.5-6.5l-1.6,6.5H181.5z"
				/>
			<g>
				<path class="st19" d="M238.2,77.8h-3.6l-1,4h-1.8l3.5-14.6h2.3l3.5,14.6h-1.8L238.2,77.8z M237.9,76l-1.5-6.5l-1.6,6.5H237.9z"
					/>
				<path class="st19" d="M252.2,73.6l-0.5,2.3h2.4l-0.5,1.8h-2.5l-1,4.1h-1.9l1-4.1h-2.4l-1,4.1h-1.9l1-4.1h-2.4l0.5-1.8h2.4
					l0.5-2.3h-2.4l0.5-1.8h2.4l1.1-4.5h1.9l-1.1,4.5h2.3l1.2-4.5h1.9l-1.1,4.5h2.4l-0.5,1.8H252.2z M250.2,73.6h-2.3l-0.5,2.3h2.4
					L250.2,73.6z"/>
			</g>
			<path class="st20" d="M287.8,111.1c2,0,4.2,0.9,4.2,3.4v0.7c0.1,1.3-0.7,2.5-1.9,2.9c1.4,0.4,2.4,1.8,2.3,3.3v0.6
				c0,2.4-1.7,3.7-4.4,3.7h-3.7v-14.6H287.8z M290.5,121.3c0-1.5-1-2.3-2.5-2.3h-1.8v4.9h1.8c1.6,0,2.5-0.8,2.5-2.3L290.5,121.3z
				 M290.2,115c0-1.5-1.2-2.1-2.4-2.1h-1.7v4.5h1.7c1.3,0,2.4-0.6,2.4-2.1V115z"/>
			<path class="st19" d="M297.7,178c0-3.9,2.2-5,4.2-5s4,1.1,4.2,4.8v0.4h-1.8v-0.3c-0.1-2.2-1.1-3-2.3-3s-2.4,0.8-2.4,3.4v4.5
				c0,2.6,1.1,3.4,2.4,3.4s2.2-0.8,2.3-3v-0.4h1.8v0.4c-0.1,3.7-2.2,4.8-4.2,4.8s-4.2-1.2-4.2-5V178z"/>
			<g>
				<path class="st19" d="M273.8,241.1c0-3.8,2.2-5,4.2-5s4.1,1.1,4.2,4.8v0.4h-1.8v-0.3c-0.1-2.2-1.1-3-2.3-3s-2.4,0.8-2.4,3.4v4.5
					c0,2.6,1.1,3.4,2.4,3.4s2.2-0.8,2.3-3v-0.4h1.8v0.4c-0.1,3.7-2.2,4.8-4.2,4.8s-4.2-1.2-4.2-5V241.1z"/>
				<path class="st19" d="M293,242.6l-0.5,2.3h2.5l-0.5,1.8H292l-1,4.1h-1.9l1-4.1h-2.4l-1,4.1h-1.9l1-4.1h-2.4l0.5-1.8h2.4l0.5-2.3
					h-2.4l0.5-1.8h2.4l1.1-4.5h1.9l-1.1,4.5h2.4l1.1-4.5h1.9l-1.1,4.5h2.5l-0.5,1.8H293z M291.1,242.6h-2.4l-0.5,2.3h2.4
					L291.1,242.6z"/>
			</g>
			<path class="st19" d="M242.4,278.8c2,0,4.2,1.1,4.2,5v4.5c0,4-2.2,5-4.2,5h-3.8v-14.5H242.4z M244.8,284c0-2.6-1.1-3.4-2.4-3.4
				h-2v11h2c1.3,0,2.4-0.8,2.4-3.4V284z"/>
			<path class="st19" d="M118.2,280.4v4.5h4.3v1.8h-4.3v4.8h4.5v1.8h-6.3v-14.6h6.3v1.8H118.2z"/>
			<path class="st19" d="M73.9,238.1v4.7h4.1v1.8h-4.1v6.4H72v-14.6h6.1v1.8L73.9,238.1z"/>
			<g>
				<path class="st19" d="M50.4,176.6v4.7h4.1v1.8h-4.1v6.3h-1.8v-14.6h6.1v1.8H50.4z"/>
				<path class="st19" d="M65.6,181.1l-0.5,2.3h2.4l-0.5,1.8h-2.5l-1,4.1h-1.9l1-4.1h-2.4l-1,4.1h-1.9l1-4.1H56l0.5-1.8h2.4l0.5-2.3
					H57l0.5-1.8h2.4l1.1-4.5h1.9l-1.1,4.5h2.3l1.1-4.5h1.9l-1.1,4.5h2.5l-0.5,1.8H65.6z M63.7,181.1h-2.4l-0.5,2.3h2.4L63.7,181.1z"
					/>
			</g>
			<g>
				<path class="st19" d="M173.2,293.9c2,0,4.2,1.1,4.2,5v4.5c0,4-2.2,5-4.2,5h-3.8v-14.5H173.2z M175.6,299.1
					c0-2.6-1.1-3.4-2.4-3.4h-2v11h2c1.3,0,2.4-0.8,2.4-3.4V299.1z"/>
				<path class="st19" d="M188.7,300.2l-0.5,2.3h2.4l-0.5,1.8h-2.5l-1,4.1h-1.9l1-4.1h-2.4l-1,4.1h-1.9l1-4.1h-2.4l0.5-1.8h2.4
					l0.5-2.3h-2.4l0.5-1.8h2.4l1.1-4.5h1.9l-1.1,4.5h2.3l1.1-4.5h1.9l-1.1,4.5h2.4l-0.5,1.8H188.7z M186.8,300.2h-2.4l-0.5,2.3h2.4
					L186.8,300.2z"/>
			</g>
			<path class="st19" d="M70.7,115.9c0-3.8,2.1-5,4.2-5s4.1,1.1,4.2,4.9v0.2h-1.8v-0.2c-0.1-2.4-1.2-3.2-2.4-3.2s-2.4,0.8-2.4,3.4
				v4.5c0,2.6,1.1,3.4,2.4,3.4s2.4-0.8,2.4-3.4v-1.2H75v-1.8h4.1v3.1c0,3.9-2.2,5-4.2,5c-2,0-4.2-1.2-4.2-5L70.7,115.9z"/>
			<g id="_12">
				<path class="st19" d="M108.1,72.4c0-3.8,2.1-5,4.2-5c2.1,0,4.1,1.1,4.2,4.9v0.2h-1.8v-0.2c-0.1-2.4-1.2-3.2-2.4-3.2
					s-2.4,0.8-2.4,3.4v4.5c0,2.6,1.1,3.4,2.4,3.4c1.3,0,2.4-0.8,2.4-3.4v-1.2h-2.3v-1.8h4.1v3.1c0,3.9-2.1,5-4.2,5
					c-2,0-4.2-1.2-4.2-5V72.4z"/>
				<path class="st19" d="M127.8,73.9l-0.5,2.3h2.4l-0.5,1.8h-2.5l-1,4.1h-1.9l1-4.1h-2.4l-1,4.1h-1.9l1-4.1h-2.4l0.5-1.8h2.4
					l0.5-2.3h-2.4l0.5-1.8h2.4l1.1-4.5h1.9l-1.1,4.5h2.3l1.1-4.5h1.9l-1.1,4.5h2.4l-0.5,1.8H127.8z M125.9,73.9h-2.4l-0.5,2.3h2.4
					L125.9,73.9z"/>
			</g>
		</g>
	</g>
</g>
</svg>
