<svg id="circle-of-tones" xmlns="http://www.w3.org/2000/svg" xmlns:xlink="http://www.w3.org/1999/xlink" viewBox="0 0 388.42 359.87">
  <defs>
    <clipPath id="clip-path" transform="translate(40.37 7.64)">
      <circle cx="170.08" cy="170.08" r="98.76" style="fill: none"/>
    </clipPath>
  </defs>
  <title>circle</title>
  <g id="scales">
    <g style="clip-path: url(#clip-path)">
      <g style="opacity: 0.5">
        <circle cx="299.55" cy="88.86" r="88.49" style="fill: #bcbec0;stroke: #808285;stroke-miterlimit: 10;stroke-width: 0.7086614370346069px"/>
        <circle cx="88.86" cy="210.35" r="88.49" style="fill: #bcbec0;stroke: #808285;stroke-miterlimit: 10;stroke-width: 0.7086614370346069px"/>
      </g>
      <g style="opacity: 0.9">
        <circle cx="271.21" cy="72.5" r="60.78" style="fill: #f1f2f2;stroke: #808285;stroke-miterlimit: 10;stroke-width: 0.7086614370346069px"/>
        <circle cx="317.48" cy="238.76" r="61.7" style="fill: #f1f2f2;stroke: #808285;stroke-miterlimit: 10;stroke-width: 0.7086614370346069px"/>
        <circle cx="210.44" cy="299.23" r="60.27" style="fill: #f1f2f2;stroke: #808285;stroke-miterlimit: 10;stroke-width: 0.7086614370346069px"/>
        <circle cx="88.85" cy="177.75" r="60.54" style="fill: #f1f2f2;stroke: #808285;stroke-miterlimit: 10;stroke-width: 0.7086614370346069px"/>
        <circle cx="149.65" cy="72.35" r="60.41" style="fill: #f1f2f2;stroke: #808285;stroke-miterlimit: 10;stroke-width: 0.7086614370346069px"/>
        <circle cx="318.08" cy="148.45" r="29.92" style="fill: #f1f2f2;stroke: #808285;stroke-miterlimit: 10;stroke-width: 0.7086614370346069px"/>
        <circle cx="128.59" cy="259.43" r="33.08" style="fill: #f1f2f2;stroke: #808285;stroke-miterlimit: 10;stroke-width: 0.7086614370346069px"/>
      </g>
      <g id="fifths">
        <path id="path7583-6" d="M169.91,71.41,121.07,255.82" transform="translate(40.37 7.64)" style="fill: none;stroke: #a7a9ac;stroke-miterlimit: 10;stroke-width: 0.7086614370346069px"/>
        <path id="path7583-4-7" d="M119.94,84.63l49.9,184.12" transform="translate(40.37 7.64)" style="fill: none;stroke: #a7a9ac;stroke-miterlimit: 10;stroke-width: 0.7086614370346069px"/>
        <path id="path7583-34-2" d="M121.07,255.82c134.29-135.64,134.5-135.28,134.5-135.28" transform="translate(40.37 7.64)" style="fill: none;stroke: #a7a9ac;stroke-miterlimit: 10;stroke-width: 0.7086614370346069px"/>
        <path id="path7583-8-7" d="M169.84,268.75,218.69,84.34" transform="translate(40.37 7.64)" style="fill: none;stroke: #a7a9ac;stroke-miterlimit: 10;stroke-width: 0.7086614370346069px"/>
        <path id="path7583-2-0" d="M84.5,120.69,219.82,255.53,169.91,71.41" transform="translate(40.37 7.64)" style="fill: none;stroke: #a7a9ac;stroke-miterlimit: 10;stroke-width: 0.7086614370346069px"/>
        <path id="path7583-25-1" d="M218.69,84.34,84.18,219.62" transform="translate(40.37 7.64)" style="fill: none;stroke: #a7a9ac;stroke-miterlimit: 10;stroke-width: 0.7086614370346069px"/>
        <path id="path7583-35-3" d="M255.36,120.18,71.23,170.09" transform="translate(40.37 7.64)" style="fill: none;stroke: #a7a9ac;stroke-miterlimit: 10;stroke-width: 0.7086614370346069px"/>
        <path id="path7583-45-8" d="M84.18,219.62c184.13-49.9,184.38-50.17,184.38-50.17C84.15,120.61,84.5,120.69,84.5,120.69" transform="translate(40.37 7.64)" style="fill: none;stroke: #a7a9ac;stroke-miterlimit: 10;stroke-width: 0.7086614370346069px"/>
        <path id="path7583-26-0" d="M71.23,170.09l184,50.36C120,86,119.94,84.63,119.94,84.63" transform="translate(40.37 7.64)" style="fill: none;stroke: #a7a9ac;stroke-miterlimit: 10;stroke-width: 0.7086614370346069px"/>
      </g>
    </g>
  </g>
  <g id="notes">
    <g id="circles">
      <circle id="c1" cx="210.45" cy="55.08" r="23.83" style="fill: #ee342e"/>
      <circle id="c2" cx="271.77" cy="71.51" r="23.83" style="fill: #f7941d"/>
      <circle id="c3" cx="316.66" cy="116.4" r="23.83" style="fill: #fff200"/>
      <circle id="c4" cx="333.09" cy="177.72" r="23.83" style="fill: #87c540"/>
      <circle id="c5" cx="316.66" cy="239.04" r="23.83" style="fill: #00a651"/>
      <circle id="c6" cx="271.77" cy="283.93" r="23.83" style="fill: #00a99d"/>
      <circle id="c7" cx="210.45" cy="300.36" r="23.83" style="fill: #00aeef"/>
      <circle id="c8" cx="149.13" cy="283.93" r="23.83" style="fill: #0072bc"/>
      <circle id="c9" cx="104.24" cy="239.04" r="23.83" style="fill: #2e3192"/>
      <circle id="c10" cx="87.81" cy="177.72" r="23.83" style="fill: #92278f"/>
      <circle id="c11" cx="104.24" cy="116.4" r="23.83" style="fill: #ec008c"/>
      <circle id="c12" cx="149.13" cy="71.51" r="23.83" style="fill: #e11156"/>
    </g>
    <g id="letters">
      <path d="M171.78,50.77h-3.57l-1,4h-1.83l3.47-14.56h2.3l3.48,14.56h-1.83Zm-.25-1.84L170,42.39l-1.55,6.54Z" transform="translate(40.37 7.64)" style="fill: #fff"/>
      <g>
        <path d="M228.26,67.91H224.7l-1,4h-1.83l3.47-14.56h2.31l3.47,14.56h-1.83ZM228,66.07l-1.54-6.53-1.55,6.53Z" transform="translate(40.37 7.64)" style="fill: #fff"/>
        <path d="M242.24,63.7,241.73,66h2.44l-.49,1.78h-2.47l-1,4.12h-1.92l1-4.12h-2.35l-1,4.12H234l1-4.12h-2.37l.52-1.78h2.37l.51-2.34h-2.36l.52-1.78h2.37l1.1-4.54h1.92l-1.1,4.54h2.34L242,57.38h1.92l-1.11,4.54h2.44l-.52,1.78Zm-1.92,0H238L237.46,66h2.35Z" transform="translate(40.37 7.64)" style="fill: #fff"/>
      </g>
      <path d="M277.9,101.17c2,0,4.16.94,4.16,3.43v.65a3,3,0,0,1-1.94,2.94,3.24,3.24,0,0,1,2.28,3.28v.58c0,2.39-1.7,3.68-4.36,3.68h-3.68V101.17Zm2.64,10.22c0-1.52-1-2.29-2.55-2.29h-1.8V114H278c1.56,0,2.55-.76,2.55-2.3Zm-.27-6.33c0-1.53-1.18-2.11-2.4-2.11h-1.68v4.46h1.68c1.29,0,2.4-.61,2.4-2.11Z" transform="translate(40.37 7.64)" style="fill: #9da4ab"/>
      <path d="M287.77,168.12c0-3.85,2.17-5,4.25-5s4.05,1.1,4.16,4.75v.38h-1.83l0-.33c-.12-2.25-1.1-3-2.31-3s-2.37.84-2.37,3.42v4.51c0,2.59,1.06,3.43,2.37,3.43s2.17-.77,2.31-3l0-.38h1.83v.37c-.1,3.66-2.17,4.78-4.16,4.78s-4.25-1.19-4.25-5Z" transform="translate(40.37 7.64)" style="fill: #fff"/>
      <g>
        <path d="M263.88,231.19c0-3.84,2.16-5,4.24-5s4.06,1.11,4.16,4.76v.38h-1.83V231c-.12-2.24-1.11-3-2.32-3s-2.37.84-2.37,3.42v4.51c0,2.59,1.07,3.43,2.37,3.43s2.18-.77,2.32-3v-.38h1.83v.36c-.09,3.67-2.17,4.78-4.16,4.78s-4.24-1.18-4.24-5Z" transform="translate(40.37 7.64)" style="fill: #fff"/>
        <path d="M283.12,232.67l-.51,2.34h2.45l-.5,1.78h-2.47l-1,4.12h-1.91l1-4.12h-2.36l-1,4.12h-1.91l1-4.12h-2.38l.52-1.78h2.37l.52-2.34h-2.37l.52-1.78h2.38l1.1-4.54h1.91l-1.1,4.54h2.35l1.11-4.54h1.91l-1.11,4.54h2.45l-.52,1.78Zm-1.91,0h-2.36l-.51,2.34h2.35Z" transform="translate(40.37 7.64)" style="fill: #fff"/>
      </g>
      <path d="M232.48,268.88c2,0,4.22,1.07,4.22,5v4.49c0,4-2.18,5-4.22,5h-3.83V268.88Zm2.39,5.19c0-2.58-1.12-3.42-2.39-3.42h-2v11h2c1.27,0,2.39-.84,2.39-3.43Z" transform="translate(40.37 7.64)" style="fill: #fff"/>
      <path d="M108.31,270.45v4.46h4.26v1.78h-4.26v4.76h4.47v1.78h-6.3V268.67h6.3v1.78Z" transform="translate(40.37 7.64)" style="fill: #fff"/>
      <path d="M63.93,228.15v4.67H68v1.77h-4.1v6.35H62.1V226.38h6.14v1.77Z" transform="translate(40.37 7.64)" style="fill: #fff"/>
      <g>
        <path d="M40.5,166.66v4.66h4.1v1.78H40.5v6.34H38.67V164.88h6.14v1.78Z" transform="translate(40.37 7.64)" style="fill: #fff"/>
        <path d="M55.65,171.2l-.51,2.34h2.45l-.5,1.78H54.62l-1,4.12H51.71l1-4.12H50.35l-1,4.12H47.44l1-4.12H46.06l.52-1.78H49l.51-2.34H47.11l.51-1.78H50l1.1-4.54H53l-1.1,4.54h2.34l1.11-4.54h1.92l-1.12,4.54h2.45l-.52,1.78Zm-1.91,0H51.38l-.51,2.34h2.36Z" transform="translate(40.37 7.64)" style="fill: #fff"/>
      </g>
      <g>
        <path d="M163.28,284c2,0,4.22,1.08,4.22,5v4.49c0,3.95-2.19,5-4.22,5h-3.84V284Zm2.39,5.2c0-2.58-1.13-3.42-2.39-3.42h-2v11h2c1.26,0,2.39-.83,2.39-3.43Z" transform="translate(40.37 7.64)" style="fill: #fff"/>
        <path d="M178.82,290.33l-.51,2.34h2.44l-.49,1.78h-2.47l-1,4.12h-1.92l1-4.12h-2.35l-1,4.12H170.6l1-4.12h-2.37l.52-1.78h2.37l.51-2.34h-2.36l.52-1.77h2.37l1.1-4.55h1.92l-1.1,4.55h2.34l1.11-4.55h1.92l-1.11,4.55h2.44l-.51,1.77Zm-1.92,0h-2.35l-.51,2.34h2.35Z" transform="translate(40.37 7.64)" style="fill: #fff"/>
      </g>
      <path d="M60.75,106c0-3.85,2.12-5,4.2-5s4.13,1.14,4.18,4.92v.21H67.34v-.15c-.07-2.4-1.16-3.2-2.39-3.2s-2.37.84-2.37,3.42v4.51c0,2.59,1.07,3.43,2.37,3.43s2.39-.8,2.39-3.37v-1.19H65.06v-1.78h4.08v3.08c0,3.87-2.15,5-4.19,5s-4.2-1.19-4.2-5Z" transform="translate(40.37 7.64)" style="fill: #fff"/>
      <g id="_12" data-name="12">
        <path d="M98.14,62.49c0-3.85,2.12-5,4.2-5s4.13,1.14,4.18,4.91v.22h-1.79v-.15c-.07-2.4-1.16-3.21-2.39-3.21s-2.37.84-2.37,3.42v4.51c0,2.59,1.06,3.43,2.37,3.43s2.39-.8,2.39-3.37V66h-2.29V64.25h4.08v3.08c0,3.87-2.14,5-4.18,5s-4.2-1.19-4.2-5Z" transform="translate(40.37 7.64)" style="fill: #fff"/>
        <path d="M117.88,64l-.51,2.34h2.45l-.5,1.78h-2.47l-1,4.12h-1.91l1-4.12h-2.36l-1,4.12h-1.91l1-4.12h-2.38l.52-1.78h2.37L111.7,64h-2.37l.52-1.77h2.38l1.1-4.55h1.91l-1.1,4.55h2.34l1.12-4.55h1.91l-1.11,4.55h2.45L120.33,64ZM116,64h-2.36l-.51,2.34h2.35Z" transform="translate(40.37 7.64)" style="fill: #fff"/>
      </g>
    </g>
  </g>
</svg>
