<?xml version="1.0" encoding="UTF-8" standalone="no"?>
<svg id="chord-form" version="1.1" baseProfile="full" viewBox="0 0 1260 800" xmlns="http://www.w3.org/2000/svg" data-v-7f291682=""><line x1="0" x2="1200" y1="400" y2="400" stroke="gray" stroke-width="1" data-v-7f291682=""/><g data-v-7f291682=""><polyline stroke="hsla(90,100%,40%,1)" points="0,350.7557020524807,2,342.34343509765813,4,334.5023637925488,6,327.31144683022814,8,320.84137217934176,10,315.1563026738313,12,310.31227892518007,14,306.3580796996479,16,303.3325144244818,18,301.2654662177681,20,300.17775001901884,22,300.07995724384904,24,300.9731638658408,26,302.8481946030668,28,305.6870261283833,30,309.46096555617083,32,314.13276804516255,34,319.656558223983,36,325.9767121560079,38,333.0315113698229,40,340.7499148425683,42,349.0558932012493,44,357.8677691261374,46,367.0960875753309,48,376.6521433350453,50,386.43977198961386,52,396.36037125867745,54,406.3185815289028,56,416.21336886742665,58,425.9473704731097,60,435.42476906569283,62,444.5501283230834,64,453.2336901299168,66,461.38934080678445,68,468.936754580129,70,475.7999298547024,72,481.9114077263105,74,487.2109548325476,76,491.64520533893557,78,495.17062304060266,80,497.7524077072637,82,499.36447518723526,84,499.9913298307698,86,499.6264984345083,88,498.273684855634,90,495.9460897335707,92,492.6671516855297,94,488.46924633243015,96,483.3935826856469,98,477.4912720987749,100,470.8204913022237,102,463.44739350497537,104,455.44446176407473,106,446.89228468871113,108,437.8750833225972,110,428.48154866295624,112,418.8070218574402,114,408.94449720108474,116,398.9932576301402,118,389.05352001985733,120,379.22082794673236,122,369.59495839847244,124,360.2706114354277,126,351.3395887920647,128,342.89182484702974,130,335.0098149134376,132,327.77292993167976,134,321.25231079737347,136,315.51221344312836,138,310.61078200357497,140,306.59513042759664,142,303.5061040121953,144,301.3739941949368,146,300.2198942428993,148,300.05542581087263,150,300.88209387465065,152,302.6918763075788,154,305.46654880712305,156,309.178696445381,158,313.791506368509,160,319.2596841115803,162,325.5281657488512,164,332.5351742489827,166,340.21183363804494,168,348.48018693732877,170,357.26075639028545,172,366.46522986615105,174,376.00083261926477,176,385.775905731977,178,395.6912965737187,180,405.6494162304065,182,415.55226506572103,184,425.30012252218575,186,434.79708216870415,188,443.9496492794792,190,452.6656585483646,192,460.8593897777828,194,468.4495868703001,196,475.3614803876411,198,481.5254683509985,200,486.88097953934516,202,491.3752140538638,204,494.9626763763391,206,497.6088828016401,208,499.2869673184417,210,499.9802557395519,212,499.68208398007295,214,498.39536364656675,216,496.1328701235771,218,492.9167582213698,220,488.77941381971823,222,483.76123950611174,224,477.91324598109827,226,471.291645816741,228,463.9629480786062,230,456.0011057440793,232,447.4826502993992,234,438.4939480756216,236,429.12350670177096,238,419.4635031985317,240,409.6112126986044,242,399.6636091338928,244,389.71858261418,246,379.8762784214104,248,370.2335383875736,250,360.88598822966964,252,351.925657314107,254,343.44277515048793,256,335.5207631502027,258,328.2376514717425,260,321.6672544663917,262,315.87272865331664,264,310.91260901471355,266,306.8366463900885,268,303.6840200879998,270,301.486823263829,272,300.26656796522934,274,300.03537558373375,276,300.79557420023593,278,302.5395693635064,280,305.25006611512606,282,308.900499481168,284,313.4541100142908,286,318.86598414824107,288,325.08295842859434,290,332.04242863394285,292,339.67582465961345,294,347.9080984230158,296,356.65566431931313,298,365.83443826458523,300,375.35207920518457,302,385.112678692913,304,395.02241507770594,306,404.98075904466134,308,414.8897095142106,310,424.65174019195547,312,434.16854854319325,314,443.34651213227573,316,452.0946143658149,318,460.3267100018236,320,467.9604624548748,322,474.9191466112669,324,481.1358736256323,326,486.5474820884737,328,491.10081116182505,330,494.75095004765683,332,497.4611422640096,334,499.2048258349017,336,499.96470889193245,338,499.7332000890499,340,498.512630693475,342,496.3151251873587,344,493.1621986569215,346,489.08560071245483,348,484.12555320773777,350,478.3307699797465,352,471.760135188571,354,464.47680763904225,356,456.55397466466087,358,448.0715559399321,360,439.11108687897604,362,429.7634275930769,364,420.12060851919455,366,410.27749725904926,368,400.333212819554,370,390.3856239546908,372,380.533379525083,374,370.87345301282306,376,361.5031187753212,378,352.5145527755251,380,343.99626130512377,382,336.03402258696013,384,328.7061256048863,386,322.0847618589741,388,316.237024470784,390,311.21912355031924,392,307.0820670261985,394,303.8664647704286,396,301.6040693591206,398,300.31766285584047,400,300.01979227992064,402,300.71350254569234,404,302.39180806995813,406,305.03808051085025,408,308.62607715118963,410,313.1205941103178,412,318.4768139578003,414,324.6406086439482,416,331.5527300263867,418,339.14313198938567,420,347.3370430812699,422,356.05389073888887,424,365.20589730125715,426,374.7029521596764,428,384.4508743368479,430,394.3537567612184,432,404.31187853707326,434,414.22724001084833,436,424.00225255387875,438,433.53848290556033,440,442.74211676872494,442,451.5225368638036,444,459.7907138185113,446,467.4671715713733,448,474.4739551866261,450,480.742190905995,452,486.21010411597206,454,490.82263355463135,456,494.53448751899475,458,497.3090318699542,460,499.1183272625775,462,499.9446799356976,464,499.77989506433886,466,498.62548073846665,468,496.4930617785796,470,493.40373449328695,472,489.38779328216594,474,484.4856782148395,476,478.7457303813933,478,472.2243443727488,480,464.98776966715155,482,457.1055662727289,484,448.6576347545249,486,439.72717221354134,488,430.4020139842706,490,420.77606334572306,492,410.94407936531417,494,401.002801564982,496,391.05233747749475,498,381.19060611962436,500,371.515404914992,502,362.121975402156,504,353.10490834415987,506,344.55289341321827,508,336.5501500604641,510,329.1772649980396,512,322.50671918677165,514,316.6042424911167,516,311.529272177701,518,307.3316538152692,520,304.05301460357896,522,301.72572722385905,524,300.37322719439044,526,300.00871206843476,528,300.63588259085924,530,302.2484232260873,532,304.8303527055736,534,308.35637170329966,536,312.7906002723107,538,318.0904153501985,540,324.20214309311456,542,331.0655476818596,544,338.6131679530472,546,346.7690002320198,548,355.4527169610114,550,364.5789163979662,552,374.0556987562037,554,383.78976715552443,556,393.6845901881808,558,403.64280469817703,560,413.56413260201185,562,423.3509468820221,564,432.90691350600133,566,442.1351130740295,568,450.9468415150416,570,459.25325986517,572,466.9708487711597,574,474.0254245799893,576,480.3453339335519,578,485.86846974162455,580,490.54038374122763,582,494.3140302916299,584,497.15237766999724,586,499.0273845307745,588,499.9201697688838,590,499.8220605264429,592,498.734029739217,594,496.6666719191128,596,493.6408051234139,598,489.6863154364041,600,484.84201514522493,602,479.15668580088806,604,472.6863705699163,606,465.4946581395493,608,457.6539682331106,610,449.241531911147,612,440.34077413919533,614,431.03923724311176,616,421.4305866377776,618,411.6094118737731,620,401.67234534788696,622,391.7202125053878,624,381.8486760692587,626,372.1571713460356,628,362.7432383731358,630,353.6973665437797,632,345.1113795261727,634,337.0697153534761,636,329.6515798637596,638,322.9316728347107,640,316.976041729031,642,311.84338755910807,644,307.5853955666002,646,304.2438664030396,648,301.85193755020225,650,300.4332584895461,652,300.0021151572863,654,300.5626369951971,656,302.10942126082716,658,304.62666262981804,660,308.0901646643232,662,312.46526329373944,664,317.7076976889414,666,323.7670760839387,668,330.58201235537564,670,338.0853571930416,672,346.20334409629396,674,354.8542258635907,676,363.9528120184541,678,373.4088731425142,680,383.1293867909456,682,393.0164685007921,684,402.9728049250102,686,412.90041701938816,688,422.69933486325687,690,432.27314654807697,692,441.52760395349367,694,450.36951574972306,696,458.71192003650935,698,466.4726563301891,700,473.5735749020828,702,479.9448745246347,704,485.5233719021748,706,490.25407437682327,708,494.0893443146151,710,496.99154326007795,712,498.9320017170837,714,499.8911439045681,716,499.85975027584345,718,498.8379097815831,720,496.83613822075097,722,493.873677189227,724,489.9804743023126,726,485.1949475177338,728,479.5640920792177,730,473.14461005833346,732,465.9997630730337,734,458.2004055810169,736,449.8232212296544,738,440.95256730920613,740,431.6757924523653,742,422.0841490485564,744,412.2742238520814,746,402.3425768781495,748,392.3869381683476,750,382.50831104502385,752,372.80165167334474,754,363.3647558327527,756,354.2925793892017,758,345.6723266752412,760,337.5915125498399,762,330.1295947483427,764,323.36008198826767,766,317.3511424904475,768,312.16182026228785,770,307.84357709339116,772,304.4390116116056,774,301.98240740274116,776,300.497830080201,778,300.00000184226036,780,300.493935762454,782,301.97465753601415,784,304.42770755618517,786,307.8283838892511,788,312.1431133697324,790,317.32910742313845,792,323.3354271234807,794,330.10158951692813,796,337.56092476333515,798,345.6401000363655,800,354.2577589631636,802,363.3290373571448,804,372.7647107048118,806,382.46901172797436,808,392.3486599333739,810,402.30419703059624,812,412.23536581513156,814,422.04670507646654,816,431.63865301113117,818,440.91684480713747,820,449.78993157098034,822,458.16856233170756,824,465.97034351852653,826,473.1179059482746,828,479.54083063460575,830,485.17443945903074,832,489.963385167499,834,493.86043966217534,836,496.8263600491018,838,498.8320668378495,840,499.85771040023434,842,499.8929979101392,844,498.93759017401237,846,497.0010673505408,848,494.10259838078616,850,490.2705987218293,852,485.5436561728576,854,479.9683890369299,856,473.599569968482,858,466.50133224860656,860,458.7436100299878,862,450.40333556910457,864,441.5625242926588,866,432.3102021611284,868,422.7374642310563,870,412.93848549212447,872,403.01270313502016,874,393.0555265943888,876,383.1672279740245,878,373.44735427105456,880,363.9893356677519,882,354.8891653855562,884,346.2357097092872,886,338.1161079499135,888,330.61020017453944,890,323.79192743889996,892,317.72994897121634,894,312.4838312018037,896,308.1052982622738,898,304.6386711477963,900,302.1172720612183,902,300.5667920950581,904,300.00237747610754,906,300.4296960741174,908,301.84444483957924,910,304.23258864699073,912,307.57073580459786,914,311.82527155153423,916,316.95422386467226,918,322.90672963449316,920,329.62430070719233,922,337.03929190880035,924,345.0786557299045,926,353.66334300346267,928,362.7061990092387,930,372.12030125104536,932,381.8109249157647,934,391.68043413363745,936,401.63396038338976,938,411.5705225796295,940,421.39234150643966,942,431.00274089476056,944,440.30494511966714,946,449.20745078771245,948,457.62259652833524,950,465.46564278441843,952,472.65947533068925,954,479.1327539264274,956,484.82168805724467,958,489.6689908057692,960,493.62705859531144,962,496.65683544337367,964,498.72769053046346,966,499.8197182102567,968,499.92169607771916,970,499.03282439616186,972,497.16164725224314,974,494.32703736975384,976,490.55667568667195,978,485.88852931480307,980,480.36863829680857,982,474.0512299013655,984,467.0004860851304,986,459.2841805970263,988,450.9798721278816,990,442.17130952176836,992,432.94316318027825,994,423.3890158343118,996,413.602922858656,998,403.68116915933354,1000,393.7236656636439,1002,383.82840370603776,1004,374.09277633655967,1006,364.6148202116117,1008,355.4877740123242,1010,346.80214939138483,1012,338.6434780324604,1014,331.09391682491787,1016,324.2276876978997,1018,318.11244418682566,1020,312.8101396944482,1022,308.3717414751092,1024,304.8421470651107,1026,302.2566866430541,1028,300.64021238766884,1030,300.0092365449582,1032,300.3698552506032,1034,301.71863313489746,1036,304.0419881584934,1038,307.3169454913953,1040,311.5110278354489,1042,316.583063822163,1044,322.48197862806535,1046,329.149628912483,1048,336.52048201784237,1050,344.52031429466945,1052,353.07033092842096,1054,362.08644856684333,1056,371.4771446869821,1058,381.1521532548347,1060,391.0141019129566,1062,400.96365030740776,1064,410.9051605576525,1066,420.73776293745954,1068,430.36543871129925,1070,439.69123828301616,1072,448.6234253435473,1074,457.0740471058116,1076,464.95742671364167,1078,472.1977868867771,1080,478.72206203543476,1082,484.46472509630195,1084,489.3705759636051,1086,493.3897427937755,1088,496.4827764829755,1090,498.61913019799545,1092,499.777291100765,1094,499.9459744309416,1096,499.12350737930933,1098,497.31787072595137,1100,494.54724702587447,1102,490.83901137571934,1104,486.22955148052426,1106,480.7652840753176,1108,474.5000785372453,1110,467.49550310196497,1112,459.8227044100779,1114,451.55543557836666,1116,442.7768203891002,1118,433.5753657814637,1120,424.0395187463788,1122,414.26599378601185,1124,404.35099494169515,1126,394.39208614433414,1128,384.4895524688247,1130,374.7408337526478,1132,365.2426066887138,1134,356.0883784297447,1136,347.3703310094597,1138,339.1742047251828,1140,331.58072301111827,1142,324.66635136141906,1144,318.4990530684639,1146,313.13961033056796,1148,308.64230238314144,1150,305.0503586254654,1152,302.40032756563267,1154,300.718178935768,1156,300.0205788906304,1158,300.3145521830515,1160,301.59709225094406,1162,303.855690130698,1164,307.06760199945694,1166,311.2014624359052,1168,316.21522744313427,1170,322.0607032901539,1172,328.67921063299724,1174,336.0039321019122,1176,343.96446039708684,1178,352.4800991248984,1180,361.4669861262302,1182,370.8367294616581,1184,380.4949768852416,1186,390.34665292080723,1188,400.29405986197213,1190,410.2393095819775,1192,420.0822545512774,1194,429.72604658440946,1196,439.07575181390257,1198,448.0372197752558" stroke-width="2" fill="none" data-v-7f291682=""/><circle cx="1200" cy="400" transform="translate(0,48.0372197752558)" r="6" fill="hsla(90,100%,40%,1)" data-v-7f291682=""/></g><g data-v-7f291682=""><polyline stroke="hsla(210,100%,40%,1)" points="0,486.2330263615863,2,479.2156967923928,4,470.95196409716783,6,461.57185228227735,8,451.22164028732595,10,440.06599522772143,12,428.2805952447337,14,416.0502200390772,16,403.56654348578206,18,391.0275029346469,20,378.6296382974203,22,366.56802123118104,24,355.03175132456147,26,344.2037441379038,28,334.25365168965493,30,325.338031667672,32,317.59630059077995,34,311.1517985726375,36,306.105692578368,38,302.5369472970086,40,300.50171441887846,42,300.03203620553694,44,301.13535973080167,46,303.7942486512488,48,307.96716564333644,50,313.58794621403115,52,320.56835951317225,54,328.7985736600931,56,338.1496915417201,58,348.47475242945603,60,359.60932773610807,62,371.3794217872858,64,383.5998404533772,66,396.0790664171767,68,408.61923289606887,70,421.0237818236339,72,433.09753637019827,74,444.651207184836,76,455.5016028037399,78,465.4787198423185,80,474.4255753998438,82,482.2022659420582,84,488.6848952069505,86,493.7716957293208,88,497.3830647472936,90,499.46225893355205,92,499.97631122224914,94,498.9173067572693,96,496.30190822705765,98,492.1709711565248,100,486.58999441793264,102,479.64658518053403,104,471.44999309217957,106,462.1285879238074,108,451.8288620848087,110,440.7148413121779,112,428.9602012236509,114,416.7498927916358,116,404.2752743668265,118,391.73413967611236,120,379.3230624685008,122,367.2373222915481,124,355.66639587780804,126,344.7937482905791,128,334.7897321424883,130,325.811242001191,132,317.9997646930783,134,311.4795263910916,136,306.35209531660536,138,302.69814798170654,140,300.5750949628757,142,300.01659873816845,144,301.0312708239112,146,303.60314607038254,148,307.69205126513793,150,313.2331539804569,152,320.1394718298178,154,328.3023387722038,156,337.5939139933008,158,347.8681752453385,160,358.9615017044499,162,370.70053999384754,164,382.90133632784193,166,395.37043861870313,168,407.9123837931272,170,420.32983318838825,172,432.42812870673407,174,444.0154434819561,176,454.9102062937289,178,464.94099573220797,180,473.95049797497654,182,481.79673890906906,184,488.35493870114374,186,493.5229358407563,188,497.2194155373922,190,499.38630068745204,192,499.98923382403973,194,499.0189068789243,196,496.4905872623115,198,492.4437653689273,200,486.942606366562,202,480.0734667650409,204,471.9438977300513,206,462.6827992169004,208,452.4341317697828,210,441.36163914341955,212,429.6383502934081,214,417.44797166648704,216,404.9837901704156,218,392.441192250587,220,380.01752684021585,222,367.9075489688171,224,356.30327073440935,226,345.38652972001387,228,335.32909314699447,230,326.2886921140152,232,318.40778623502706,234,311.81170743443374,236,306.60320922687833,238,302.8642436586181,240,300.6535536299433,242,300.0061911644815,244,300.93216076530217,246,303.41709068940656,248,307.42158064942646,250,312.88272675152405,252,319.71460171298907,254,327.8102387510595,256,337.0424614338878,258,347.2642206719007,260,358.3157402083114,262,370.0231321767583,264,382.2029397799043,266,394.66204372090357,268,407.2051366396218,270,419.63486181438583,272,431.75636973332496,274,443.3774654815202,276,454.3160474002002,278,464.4005882829996,280,473.47119074009447,282,481.38666244691774,284,488.02053729806113,286,493.26947106699964,288,497.05105939827627,290,499.30534258618053,292,499.99712623872847,294,499.1155256279938,296,496.67421699667057,298,492.71190898627646,300,487.2908444685238,302,480.4963200706589,304,472.43471684721214,306,463.2326750146352,308,453.03676363583145,310,442.00635618280216,312,430.3150083381652,314,418.1459249425457,316,405.6920552530413,318,393.1486250881739,320,380.7122478617687,322,368.5801109599918,324,356.94234385491905,326,345.98205860498246,328,335.87112216436776,330,326.76985044277444,332,318.8199124599061,334,312.1483249915368,336,306.8590216763274,338,303.03503943135024,340,300.73701014721985,342,300.0008140080529,344,300.8380345409329,346,303.2356911754748,348,307.1557674028448,350,312.5366821562757,352,319.2942210291348,354,327.32123855590623,356,336.49298380542774,358,346.6629190924587,360,357.6720757342015,362,369.34795862833994,364,381.50543855378623,366,393.95391736120354,368,406.4975270152381,370,418.9396517950755,372,431.08301318310356,374,442.73730527847067,376,453.71915601367596,378,463.85636084826035,380,472.9881873689196,382,480.9724916425653,384,487.68170782053005,386,493.0113141591759,388,496.87764222415916,390,499.21938870252006,392,499.99998806926925,394,499.2070622592405,396,496.8531836610849,398,492.97538851899424,400,487.6346912049039,402,480.9146755188743,404,472.9218919702701,406,463.7805586555724,408,453.6367273661802,410,442.6489599963605,412,430.98941593724044,414,418.84296534634694,416,406.40003398380867,418,393.85640259984615,420,381.4086867494548,422,369.25425360054794,424,357.5835830893022,426,346.5796600290608,428,336.4169592517077,430,327.2536457970083,432,319.2361226347632,434,312.4893621280846,436,307.11923707645167,438,303.21089453700483,440,300.8254603162342,442,300.00046753939273,444,300.74899008582395,446,303.0591596114168,448,306.8946248977363,450,312.19503760327666,452,318.87744558577117,454,326.8358946320776,456,335.94670104266993,458,346.0643007568639,460,357.0305406631338,462,368.67359924676646,464,380.8088677388823,466,393.24609516351916,468,405.7903521774462,470,418.242740885646,472,430.4080929308112,474,442.0949950775308,476,453.1202085604399,478,463.3089209732371,480,472.50256307467816,482,480.5542473318212,484,487.3384673141423,486,492.74876333499867,488,496.6993513986723,490,499.1284433605773,492,499.9978191716913,494,499.2937093029219,496,497.02727790457357,498,493.2341907121403,500,487.97412927770563,502,481.3294130424648,504,473.40539859076625,506,464.32523366962823,508,454.2339927782814,510,443.2887305074199,512,431.662991581428,514,419.539057811679,516,407.10769074622834,518,394.56372736781975,520,382.1060609156758,522,369.92994297619805,524,358.2269561785524,526,347.18059093555695,528,336.96599502933896,530,327.74213990831805,532,319.6563958211935,534,312.83480168742403,536,307.38440274188713,538,303.39161883998486,540,300.91889968729845,542,300.00514403461625,544,300.66484011154625,546,302.8875048780567,548,306.6381662714721,550,311.85817064134153,552,318.46475119805007,554,326.3542313959097,556,335.4036406276183,558,345.4683957799806,560,356.39185384243115,562,368.0008158114323,564,380.11326237778053,566,392.5386127364651,568,405.08212471566713,570,417.54491223341165,572,429.7316429298549,574,441.4505671915843,576,452.5179452660622,578,462.7582961981447,580,472.01224833159847,582,480.1319505554223,584,486.9912093358564,586,492.4812663677023,588,496.5161958911436,590,499.03251113556564,592,499.9906301019069,594,499.3753611494533,596,497.1964909689274,598,493.48830254607816,600,488.30878363621855,602,481.74005910391645,604,473.88521238479416,606,464.8666726556802,608,454.8285298253324,610,443.9270133541102,612,432.3349743464048,614,420.2341673200183,616,407.81498994000845,618,395.2720871180238,620,382.8043352774293,622,370.60714509484274,624,358.87173532980745,626,347.7841790432342,628,337.518201876761,630,328.2342691165472,632,320.0807108763931,634,313.1842476506407,636,307.6542276467721,638,303.5772032485409,640,301.01732355973115,642,300.0148533298602,644,300.5856874196852,646,302.7207356108784,648,306.3864044257898,650,311.52537273354847,652,318.05615862750653,654,325.8772973229027,656,334.863829880169,658,344.875870693952,660,355.7546719133045,662,367.32964216824695,664,379.41865746449963,666,391.83226606166363,668,404.37364158598047,670,416.84620094423883,672,429.05369721059907,674,440.8047505749719,676,451.9130399363294,678,462.2045142234219,680,471.51831084766076,682,479.7056225579737,684,486.6392034931826,686,492.2091169187791,688,496.32818491562966,690,498.9315968535752,692,499.97840573904676,694,499.45201369115165,696,497.3608143414961,698,493.73744549026014,700,488.6393581635652,702,482.1465930447398,704,474.36028898740074,706,465.4048483754018,708,455.4196735394981,710,444.56308635192437,712,433.00533042654087,714,420.9282589022912,716,408.52113581852876,718,395.980684716699,720,383.50347470642646,722,371.2858258882804,724,359.5192767159389,726,348.3903939872121,728,338.07355201394546,730,328.73000866401026,732,320.50904645422264,734,313.5384350122432,736,307.9286982169476,738,303.76763842642475,740,301.1206130820806,742,300.0295926065924,744,300.5115359921979,746,302.55886019959144,748,306.1396152351111,750,311.19702574423826,752,317.6516884293244,754,325.40305992133983,756,334.3272959567364,758,344.2854792326016,760,355.1197158466048,762,366.66011208213564,764,378.7250879427284,766,391.1255694704226,768,403.6649384302505,770,416.146642168397,772,428.3750214607709,774,440.1561868727066,776,451.3055230023876,778,461.64760290833755,780,471.0207754715198,782,479.2757498291347,784,486.28283906721674,786,491.9323286793295,788,496.1353279304527,790,498.8258221659799,792,499.9611517338163,794,499.52366307183564,796,497.5202397556167,798,493.982143570473,800,488.96547348526434,802,482.54899441331514,804,474.8326529745477,806,465.93973375463264,808,456.00866728149634,810,445.1969175017553,812,433.6740260980403,814,421.6205527469497,816,409.22761362814384,818,396.6894845162225,820,384.20344403085915,822,371.9652188686792,824,360.16885457744223,826,348.9992052704615,828,338.6308127445825,830,329.2293336113956,832,320.9409138220139,834,313.89697202062644,836,308.20780064454397,838,303.9629147933593,840,301.22898550462196,842,300.04936112331995,844,300.44238955944155,846,302.40205300077383,848,305.89727962433113,850,310.8731461916573,852,317.251360951302,854,324.932575289465,856,333.79463763686874,858,343.6978906176481,860,354.4870175852491,862,365.9922592353407,864,378.03333300807526,866,390.41931932770683,868,402.9560509014104,870,415.44627109879053,872,427.69418821231574,874,439.50560302161585,876,450.6954250267657,878,461.08879834103203,880,470.5196672328308,882,478.8414282116728,884,485.9221339856864,886,491.65091557381896,888,495.9378498826198,890,498.7149645954222,892,499.9388689542177,894,499.5903056870193,896,497.67459561969395,898,494.2221136639986,900,489.28711319533886,902,482.9472429659213,904,475.3012523339304,906,466.47073189166304,908,456.59484337938454,910,445.8284749172774,912,434.341027720638,914,422.31250496517487,916,409.93362722155007,918,397.39845085879915,920,384.90345384129733,922,372.6467530126545,924,360.8204362358175,926,349.61058226533834,928,339.1923588786997,930,329.7316760034013,932,321.37722133235116,934,314.25984063876615,936,308.4915208886751,938,304.1628046862155,940,301.3423268289557,942,300.07415788554226,944,300.37825159998556,946,302.2499841996841,948,305.65967806613054,950,310.55375036930724,952,316.8551963328289,954,324.4658670960837,956,333.26473457298346,958,343.1131344090807,960,353.85660895857063,962,365.3268328347368,964,377.34193768285616,966,389.71355116304517,968,402.2470146616686,970,414.74587756877065,972,427.01196174438076,974,438.85303175080827,976,450.0827767018377,978,460.52571913229764,980,470.01555607441907,982,478.4031402958393,984,485.5571063946856,986,491.36489175937743,988,495.7353354138324,990,498.59914094279065,992,499.9115585212371,994,499.6519381840933,996,497.824206592543,998,494.4573436985924,1000,489.6042611129675,1002,483.3408970265374,1004,475.76556555791734,1006,466.9989596421901,1008,457.1781723442333,1010,446.4577268265503,1012,435.0055870729349,1014,423.0033347018048,1016,410.63914108111885,1018,398.10754807825555,1020,385.60497647801895,1022,373.3296632242815,1024,361.473988911759,1026,350.2244942151244,1028,339.75696408028216,1030,330.2380924237011,1032,321.8174841413945,1034,314.6270226117266,1036,308.77953207063047,1038,304.3677285361588,1040,301.4606313531871,1042,300.1039816458015,1044,300.3191862463755,1046,302.10283293671205,1048,305.42682251359906,1050,310.23885434512545,1052,316.46405327598677,1054,324.0034547005804,1056,332.7381887792618,1058,342.53124002439796,1060,353.2285216807173,1062,364.6624332798083,1064,376.6516822232852,1066,389.0083004817193,1068,401.5378653807149,1070,414.0439884309766,1072,426.3283763779287,1074,438.1985058893742,1076,449.4682719002932,1078,459.96020561972335,1080,469.5073816923402,1082,477.9609081307103,1084,485.18777465776225,1086,491.07458669676055,1088,495.5280047600321,1090,498.47835703485896,1092,499.87922180878843,1094,499.7084992539774,1096,497.96889629493694,1098,494.68782184046955,1100,489.91690128329884,1102,483.7303674475376,1104,476.2265692429092,1106,467.52381685681297,1108,457.758624830345,1110,447.0846415736176,1112,435.6691019317718,1114,423.69300720306956,1116,411.3441197143618,1118,398.8159776158272,1120,386.3072232893231,1122,374.01391514820017,1124,362.1294797268046,1126,350.84024584928903,1128,340.3239877461989,1130,330.7480183763203,1132,322.26168010071643,1134,314.99849946757877,1136,309.07243996829703,1138,304.5774633862472,1140,301.5838931257366,1142,300.13883090374526,1144,300.2650692656394,1146,301.96060661463855,1148,305.1987246810679,1150,309.9288053918009,1152,316.07667975657955,1154,323.54436550459315,1156,332.2150267447941,1158,341.95223673712775,1160,352.60345914902524,1162,363.99981146199724,1164,375.96260135424205,1166,388.3036027629778,1168,400.82940164716103,1170,413.3413927782232,1172,425.6434665022849,1174,437.5420583647341,1176,448.85061812571723,1178,459.3910683509473,1180,468.9957105824486,1182,477.51475396378646,1184,484.81415735499417,1186,490.7793897833307,1188,495.31586835146163,1190,498.3526189479379,1192,499.8419033304929,1194,499.76010786234906,1196,498.1086574479293,1198,494.9135364949" stroke-width="2" fill="none" data-v-7f291682=""/><circle cx="1200" cy="400" transform="translate(0,94.91353649489996)" r="6" fill="hsla(210,100%,40%,1)" data-v-7f291682=""/></g><g data-v-7f291682=""><polyline stroke="hsla(300,100%,40%,1)" points="0,486.7155651273049,2,493.15814934275016,4,497.5283547699965,6,499.7298703111811,8,499.713174712668,10,497.47897979456775,12,493.0765230055505,14,486.604603014486,16,478.205848750379,18,468.06762481338137,20,456.41668741375605,22,443.50842739068526,24,429.63516168085323,26,415.1013710701104,28,400.23169283184035,30,385.35837066951876,32,370.8091845949014,34,356.91064325672704,36,343.96904433304604,38,332.2736968046646,40,322.08568734427445,42,313.6295404948291,44,307.09502667146984,46,302.6261542533915,48,300.3230898191839,50,300.23695358290064,52,302.369643824982,54,306.67384740568855,56,313.053075618659,58,321.36674228712536,60,331.42827449518256,62,343.0171889259259,64,355.8710461831984,66,369.7076821052279,68,384.2180856436373,70,399.07798777133166,72,413.9599042288465,74,428.5313217859524,76,442.46675869552985,78,455.45910417061464,80,467.21678773136955,82,477.4806921736015,84,486.0212560163248,86,492.64794413356464,88,497.214716798267,90,499.6190878119462,92,499.80806936525283,94,497.7771004603173,96,493.57189256120466,98,487.2851205309727,100,479.05693590201236,102,469.0703515544818,104,457.5474910365027,106,444.74601265371354,108,430.9480368825625,110,416.4632139262475,112,401.6107620056262,114,386.72248320371915,116,372.13099093044787,118,358.15785419754144,120,345.1166541201155,122,333.29479418933613,124,322.9566043981383,126,314.3328159037992,128,307.61348076484376,130,302.9490245251177,132,300.44333843719096,134,300.15164310385785,136,302.0804846678813,138,306.18788350542616,140,312.3808245824147,142,320.5231367837191,144,330.4331888084537,146,341.88931754661985,148,354.6390514944414,150,368.3977124665168,152,382.85777435972057,154,397.70056464039715,156,412.59298567867216,158,427.20683655952985,160,441.2155476989643,162,454.3062533614057,164,466.19045904582083,166,476.6014628267926,168,485.3098257864738,170,492.1207110366706,172,496.88225151113625,174,499.48951182451,176,499.88390709831606,178,498.05666511629613,180,494.0484277494039,182,487.94907319186655,184,479.89301973213037,186,470.06105900457385,188,458.669868908572,190,445.97373219656106,192,432.2564831268842,194,417.8204240373946,196,402.98952481357253,198,388.09063054549785,200,373.4566267852352,202,359.41440043838315,204,346.273415730003,206,334.32742814087874,208,323.84313153563664,210,315.0515800679496,212,308.15007120692064,214,303.2903130035681,216,300.58235821701595,218,300.0852817149131,220,301.8105277770351,222,305.7192145030835,224,311.725201798261,226,319.6946142950827,228,329.44911337313613,230,340.7737282419293,232,353.4143151521602,234,367.09229937245306,236,381.50222305968896,238,396.32205304635215,240,411.22518818750467,242,425.87717661127175,244,439.95511608469076,246,453.1443661081944,248,465.1504112288696,250,475.7086608214448,252,484.58298367991597,254,491.57599539216545,256,496.53215603387815,258,499.34105484812227,260,499.94078899461056,262,498.31789941214413,264,494.5081515309755,266,488.59633499310314,268,480.7148423796524,270,471.0373669457881,272,459.7810878114217,274,447.1940721714086,276,433.5573568146339,278,419.1757497762543,280,404.36619459266717,282,389.4595256611796,284,374.78877659357954,286,360.6772630720906,288,347.441671623913,290,335.37368975995594,292,324.74313883664615,294,315.78646563172066,296,308.7028862096926,298,303.650363418698,300,300.74024534639034,302,300.03788201004386,304,301.55862714637965,306,305.2689663963847,308,311.0856333939084,310,318.8804397519838,312,328.47952311982647,314,339.66816192524186,316,352.19977963884753,318,365.7931453006988,320,380.14868672995976,322,394.9457649234402,324,409.85374194302364,326,424.5440740491606,328,438.6884920946501,330,451.97239318694704,332,464.1003142186632,334,474.8014909258312,336,483.8400895257497,338,491.0132683886386,340,496.162944160534,342,499.17374505675315,344,499.97873573648576,346,498.5601757210691,348,494.9494211401437,350,489.22747203204165,352,481.52042937981497,354,472.0012524176947,356,460.8797258798845,358,448.40410065822823,360,434.85329223633425,362,420.5259349136114,364,405.7435591217587,366,390.8319405857923,368,376.1242398074501,370,361.94758832319224,372,348.61730596796747,374,336.4310653573839,376,325.65742828597547,378,316.5373331294947,380,309.27427255283726,382,304.0283107336777,384,300.9171760381337,386,300.0094320161607,388,301.32569762213967,390,304.83622742553996,392,310.46365596034997,394,318.0816940941502,396,327.5224546123828,398,338.57527476786476,400,350.9929855001982,402,364.50192384925873,404,378.80041730061436,406,393.57043598662625,408,408.48346228383195,410,423.20631354489603,412,437.4145258533671,414,450.7892425956835,416,463.035710201447,418,473.8801253014635,420,483.08043506897286,422,490.4338820022656,424,495.7758809728003,426,498.9873976168132,428,499.99765615523893,430,498.7839846565642,432,495.37313015509386,434,489.84096797441197,436,482.31141205948666,438,472.95039964339696,440,461.96800787404175,442,449.6062679845226,444,436.1397531072589,446,421.87222466598564,448,407.116787213491,450,392.2045780326068,452,377.46423413174773,454,363.22513511102943,456,349.80530950006795,458,337.5005049837796,460,326.58686244557896,462,317.3048980149782,464,309.8622540993772,466,304.42492029800957,468,301.1127252085404,470,300.0000001603976,472,301.1112675182138,474,304.4220372648053,476,309.85800998309657,478,317.29938707113035,480,326.58020724964706,482,337.4940447142083,484,349.7981517728217,486,363.2174391761113,488,377.45617110024443,490,392.19480601922373,492,407.1085321745004,494,421.8641489769104,496,436.1320363435096,498,449.5977569053151,500,461.9603145277915,502,472.9436950379013,504,482.30584541255837,506,489.83666296612523,508,495.3701826613829,510,498.78246023615645,512,499.9975885650279,514,498.9887885078982,516,495.778699265463,518,490.4380651595448,520,483.0858900482722,522,473.88570243801894,524,463.0421346879838,526,450.7976858908447,528,437.4222006399525,530,423.214363536275,532,408.49170841981595,534,393.57869488436893,536,378.80999648989183,538,364.5110875373194,540,351.00152986651284,542,338.5830098588437,544,327.52920830934073,546,318.0881914526953,548,310.46802152157363,550,304.839239239913,552,301.32728884788304,554,300.0095671185935,556,300.9158520122814,558,304.025557172322,560,309.27079217606274,562,316.5327748618689,564,325.6518933987994,566,336.42349915180955,568,348.6102062146561,570,361.93993504907155,572,376.1147215218019,574,390.82218003224233,576,405.7337733964342,578,420.5163416418216,580,434.8441048020748,582,448.39552333780586,584,460.87194950384566,586,471.9944499497052,588,481.5147519997664,590,489.2230461250061,592,494.9463450059958,594,498.55851791323084,596,499.9785331282411,598,499.17480639689444,600,496.16521436520657,602,491.017329035404,604,483.8446001059135,606,474.80698330102393,608,464.10666614545914,610,451.9794634790219,612,438.69753049550036,614,424.5535759859747,616,409.86349607187805,618,394.9555542986601,620,380.15829362910694,622,365.80235604525706,624,352.20838943313487,626,339.67597921738854,628,328.4863741430679,630,318.88617203430226,632,311.0901194367676,634,305.2721065620306,636,301.56008296836353,638,300.03811012988155,640,300.7392405658837,642,303.64773970880907,644,308.6995097146887,646,315.78200295302446,648,324.7366845254382,650,335.3662101130856,652,347.43333300513825,654,360.668251009408,656,374.7792914564211,658,389.44977843557876,660,404.35640204059297,662,419.1661297055513,664,433.5481231465986,666,447.18543031175005,668,459.7720066764465,670,471.0304678000258,672,480.7090554670334,674,488.59249665131887,676,494.50544632335806,678,498.31610867923683,680,499.9405038966818,682,499.3420030213221,684,496.5343162668507,686,491.5793197620397,688,484.58821211312,690,475.715064167367,692,465.15784706304663,694,453.15266896186813,696,439.9641013816263,698,425.88664449874994,700,411.23492806213875,702,396.33184831067075,704,381.51185587318116,706,367.10155547471845,708,353.42298866717493,710,340.78162634026495,712,329.45497882473694,714,319.69954629170024,716,311.72909055238046,718,305.7219735202805,720,301.81209581470813,722,300.08562377740645,724,300.58130239720805,726,303.28820785076994,728,308.1461957635408,730,315.04640886710825,732,323.8367794588085,734,334.32003657041764,736,346.26514895674507,738,359.40544233350425,740,373.4471766363489,742,388.08089848394116,744,402.9782021000423,746,417.81077896681603,748,432.24720502954665,750,445.96502736895206,752,458.66316675915647,754,470.0540645980322,756,479.88804207570286,758,487.9451342099149,760,494.04561493476496,762,498.05504114319984,764,499.88343444558177,766,499.4905004966658,768,496.8846795179441,770,492.1245242361492,772,485.3149395096037,774,476.60776333315096,776,466.1978060993197,778,454.3144836620288,780,441.2244781251176,782,427.21626856017105,784,412.60270946541146,786,397.71036393831497,788,382.86743122977293,790,368.4055644423955,792,354.6464272252829,794,341.8960529799867,796,330.43913422137615,798,320.5281598637905,800,312.38554914282014,802,306.19074986499504,804,302.08247414332106,806,300.1521831822698,808,300.44241695959494,810,302.94666213235286,812,307.60972985280614,814,314.32775990100265,816,322.95035587641246,818,333.28749200138213,820,345.10718524052515,822,358.1489518131104,824,372.1215775255553,826,386.7127681730091,828,401.60248707416775,830,416.4535457148939,832,430.94016708025595,834,444.7386112418636,836,457.54072256608043,838,469.06436662762104,840,479.0509331212915,842,487.28033692777757,844,493.56843453336637,846,497.7750447757236,848,499.80746188678717,850,499.6199420512626,852,497.2170136098083,854,492.6516325801984,856,486.02625393024414,858,477.48688852880645,860,467.2240447073246,862,455.467260273299,864,442.47563261586293,866,428.53925369042435,868,413.9680991430258,870,399.086263422346,872,384.22625798277545,874,369.7155693605777,876,355.8798422557385,878,343.0239900388939,880,331.4354092984576,882,321.37279829904867,884,313.05791803768454,886,306.6773686653729,888,302.3717654747458,890,300.2376284325979,892,300.32230300775865,894,302.62392313204646,896,307.0914008652391,898,313.6246007787818,900,322.07954344957784,902,332.2664854863167,904,343.96218965276057,906,356.90179822151714,908,370.8012691451821,910,385.3501839099461,912,400.223416853622,914,415.093189930665,916,429.62579997104643,918,443.500975616566,920,456.4085941159737,922,468.0604437834747,924,478.199739794582,926,486.5997020093797,928,493.0729388210346,930,497.47679228029597,932,499.71243237462215,934,499.7305898063805,936,497.5305200952892,938,493.1617121972166,940,486.7204464111141,942,478.3503276176982,944,468.2375256243717,946,456.6069713366414,948,443.7187261368094,950,429.8568226785765,952,415.33234581190504,954,400.4653876551627,956,385.5880782558314,958,371.0327820731327,960,357.12027042512216,962,344.16276389619935,964,332.4458215293288,966,322.231432316786,968,313.7475587949973,970,307.1811695599734,972,302.6792747739381,974,300.34213255642186,976,300.2212491207085,978,302.3193372980896,980,306.59070394965227,982,312.93862087091287,984,321.2235186646991,986,331.2605782521277,988,342.8253015215032,990,355.66282375008126,992,369.4865020616206,994,383.98736132739305,996,398.84582991647903,998,413.72845835091687,1000,428.3072615262385,1002,442.2564490943612,1004,455.2644888301838,1006,467.0447080340233,1008,477.33273841514756,1010,485.90185115786454,1012,492.5603182478349,1014,497.15967969072926,1016,499.59857422163543,1018,499.8222688710513,1020,497.82551736669734,1022,493.6530026556895,1024,487.3981811995044,1026,479.19889748426726,1028,469.23915747654934,1030,457.73845509043304,1032,444.9535227753003,1034,431.17017534135,1036,416.6921718099108,1038,401.8444233715635,1040,386.9541464413466,1042,372.3540379190538,1044,358.3702236207918,1046,345.3108804800696,1048,333.46794335452466,1050,323.1058006649505,1052,314.45281452275276,1054,307.70317275385884,1056,303.0056247522649,1058,300.4654444780251,1060,300.13913111401797,1062,302.03394258544495,1064,306.1072090405673,1066,312.2691633572872,1068,320.38244397703613,1070,330.26550007705396,1072,341.7005277121769,1074,354.43090528156165,1076,368.176079236794,1078,382.6290870167926,1080,397.4669366266301,1082,412.36262980280753,1084,426.9818816838873,1086,441.0025114886599,1088,454.1111554715724,1090,466.01510249773935,1092,476.452011991626,1094,485.187661832601,1096,492.03013169894456,1098,496.82485034909155,1100,499.4658143819787,1102,499.8948219236535,1104,498.102245310272,1106,494.1275895547018,1108,488.0593296757966,1110,480.0333519457588,1112,470.2265337996355,1114,458.8589570292806,1116,446.1811416198566,1118,432.47615629167615,1120,418.0503308069591,1122,403.2215831933903,1124,388.32118050090935,1126,373.68201246306757,1128,359.6266987756644,1130,346.4706647453898,1132,334.5038445874809,1134,323.99380263544055,1136,315.17430528306795,1138,308.2415175029289,1140,303.350031339666,1142,300.6076459369136,1144,300.0759645719346,1146,301.76652745226147,1148,305.6420777555961,1150,311.6156414968529,1152,319.55557258029313,1154,329.284764238045,1156,340.585590539397,1158,353.2090025538225,1160,366.87170930008267,1162,381.272610450421,1164,396.09004983535965,1166,410.9929384611586,1168,425.6528447268852,1170,439.74217543926386,1172,452.9475529689088,1174,464.97526074475866,1176,475.55677660562935,1178,484.45890386853245,1180,491.48186355417636,1182,496.4708828563785,1184,499.31417805063995,1186,499.9485569623939,1188,498.3600390750563,1190,494.5842734501093,1192,488.7044708515925,1194,480.8516861889253,1196,471.20165404685486,1198,459.967042961331" stroke-width="2" fill="none" data-v-7f291682=""/><circle cx="1200" cy="400" transform="translate(0,59.96704296133098)" r="6" fill="hsla(300,100%,40%,1)" data-v-7f291682=""/></g><polyline stroke="hsl(318, 27%, 60%)" points="0,523.704293541372 2,514.717281232801 4,502.9826826597131 6,488.6131694236866 8,471.7761871793357 10,452.70127769612054 12,431.66939717546427 14,409.012902753211 16,385.1049066606429 18,360.3605939657964 20,335.2240757301952 22,310.1564058657153 24,285.6400768712555 26,262.1533098110811 28,240.17237064987862 30,220.15736789336157 32,202.53825323084388 34,187.7190000533476 36,176.05144906742197 38,167.8421554714961 40,163.33731660572118 42,162.71746990161532 44,166.0981555284089 46,173.51649047997117 48,184.94239879756566 50,200.2646717865456 52,219.29837459683174 54,241.79100259468447 56,267.4161360278057 58,295.788865189691 60,326.46237129698346 62,358.9467390362952 64,392.70457676649244 66,427.17608932918904 68,461.7740731198352 70,495.90169944966794 72,528.9688483253552 74,560.393483803336 76,589.6135668382053 78,616.1084470535358 80,639.394770838477 82,659.0474333028949 84,674.6974810540452 86,686.0461382973937 88,692.8714664011945 90,695.0274364790689 92,692.4515322730317 94,685.1636535500168 96,673.2673834739091 98,656.9473637862724 100,636.4674216221687 102,612.1643302399912 104,584.4419458927571 106,553.7668852662321 108,520.6519822899685 110,485.65960390138156 112,449.37798508671733 114,412.4168731964396 116,375.3995229274146 118,338.9455138935112 120,303.66054453534866 122,270.12707487935666 124,238.8936117113741 126,210.46615298644306 128,185.2950377543618 130,163.7700814397462 132,146.21603306194905 134,132.88348029232293 136,123.94479342761502 138,119.49681349070767 140,119.55104997288697 142,124.04583953408286 144,132.8384538273017 146,145.71235785990174 148,162.38652857045196 150,182.51296032162432 152,205.68912249711713 154,231.46945221972402 156,259.36559611735396 158,288.8665181733773 160,319.43673351499456 162,350.5349591041044 164,381.62696962264545 166,412.1837350835407 168,441.7023965169298 170,469.7113006153443 172,495.77561008402137 174,519.5057879257308 176,540.570019124022 178,558.6889574222228 180,573.6483419547869 182,585.2980771666566 184,593.5480809554599 186,598.3810770140343 188,599.8389337254434 190,598.0256914323776 192,593.1051067287067 194,585.2889177866191 196,574.8415924635252 198,562.0598642654237 200,547.2802126911424 202,530.8630812572878 204,513.1799898363934 206,494.61911015941917 208,475.5642306238612 210,456.3934749509211 212,437.47050548040175 214,419.1336483166219 216,401.69901851100866 218,385.44323218686986 220,370.60746843696916 222,357.3880029780123 224,345.94171851376865 226,336.3727898318375 228,328.7411545987368 230,323.0635261000238 232,319.3047516865865 234,317.3979548825083 236,317.22893898833826 238,318.64979990350196 240,321.4899545160524 242,325.54697690964605 244,330.60585946417297 246,336.4377352190113 248,342.8055302658696 250,349.47737580263845 252,356.2232427070121 254,362.82900929371294 256,369.09538061796866 258,374.8429269917654 260,379.92378366931365 262,384.2137602422191 264,387.6237003255933 266,390.0950251040952 268,391.6039991072739 270,392.15905202400296 272,391.804025509976 274,390.60691323666254 276,388.66897841507006 278,386.11590742276024 280,383.0874514478877 282,379.74668758926543 284,376.26342390593146 286,372.8127182873313 288,369.57568945078367 290,366.7214609800793 292,364.416089734988 294,362.8100896827303 296,362.0327675256763 298,362.19671066955965 300,363.3831690200987 302,365.6468807736157 304,369.0157590712978 306,373.4824004556813 308,379.0121065439504 310,385.53853612674135 312,392.96308000118495 314,401.1605990000633 316,409.9864492577037 318,419.26848039069625 320,428.82139704660324 322,438.44502249469895 324,447.931959423575 326,457.07361474261677 328,465.6604254208429 330,473.4931936773784 332,480.3813689425789 334,486.1546417522697 336,490.66382009400957 338,493.7815079090387 340,495.41258500122876 342,495.48968425216475 344,493.9789689343401 346,490.88146760899866 348,486.2307417507262 350,480.09492416806376 352,472.57478559752076 354,463.7992986126432 356,453.92668434997313 358,443.13857569061906 360,431.6364548495118 362,419.6373211350283 364,407.36960619473945 366,395.06335520604506 368,382.9549796422422 370,371.27286407295855 372,360.233698676154 374,350.0418236486776 376,340.8797030749726 378,332.9082467532802 380,326.25872122688065 382,321.0348249632031 384,317.30500946355 386,315.10550803431073 388,314.44036431708275 390,315.2747396783792 392,317.5457110558177 394,321.1552211238192 396,325.9797076325883 398,331.86832614269946 400,338.64746898502267 402,346.13010191382534 404,354.1141173408426 406,362.3890751530489 408,370.7462668012018 410,378.9758676515743 412,386.8807557484078 414,394.27281658597866 416,400.98847421164237 418,406.8796598906954 420,411.8261648996975 422,415.7420263417024 424,418.5653613633596 426,420.27000980555033 428,420.8654897437945 430,420.3913872147909 432,418.9211313269303 434,416.5575701133449 436,413.4329016898171 438,409.6997770859621 440,405.5355849590009 442,401.129272387719 444,396.67945701159414 446,392.39855584877574 448,388.48536729785343 450,385.14180654187845 452,382.55178383349096 454,380.8836632977384 456,380.2864980617327 458,380.87383761059766 460,382.7357303712903 462,385.92317719744227 464,390.4510169025984 466,396.29649619999543 468,403.39613916456614 470,411.6464755393306 472,420.90715373119093 474,431.0027105571756 476,441.72394892492974 478,452.83265241711626 480,464.07053999147683 482,475.15385831875847 484,485.79425384148885 486,495.69337472465133 488,504.55753648318733 490,512.0993127255241 492,518.0504307115058 494,522.1606598448144 496,524.2116517255779 498,524.0225537370798 500,521.4498487204892 502,516.3950834825221 504,508.81615234748443 506,498.7147900489716 508,486.1543255001284 510,471.248455741616 512,454.16729933322756 514,435.1320888106939 516,414.4156621893923 518,392.33344634263375 520,369.24496556752695 522,345.541372638076 524,321.6423180609267 526,297.98698889483643 528,275.0240782601507 530,253.20492667068038 532,232.978456946583 534,214.76986827509265 536,198.98499950408967 538,185.99312172750277 540,176.12257264692582 542,169.6537015753195 544,166.80721637393424 546,167.74469656277176 548,172.55890475405712 550,181.2763262792208 552,193.84773880213677 554,210.1535656700277 556,230.0040828280805 558,253.13675765047958 560,279.2267786205057 562,307.8845375553233 564,338.67206928258133 566,371.09722496230415 568,404.63917244536486 570,438.7381071476532 572,472.8172132228165 574,506.298171803816 576,538.5970525960483 578,569.1431075815908 580,597.3967368749009 582,622.841504184858 584,645.0155365096994 586,663.503100848182 588,677.9511176597939 590,688.0776177870147 592,693.6710048471198 594,694.6005509817969 596,690.8158292205824 598,682.3494243793766 600,669.31601314665 602,651.9140739402085 604,630.4161830606239 606,605.1683140962534 608,576.5891642039021 610,545.1480087442791 612,511.3732789811005 614,475.82698054910475 616,439.10907264966403 618,401.83705329045705 620,364.6349742544232 622,328.1297136454876 624,292.92880083220103 626,259.61732960665836 628,228.74781439296467 630,200.81780769462915 632,176.28220983933338 634,155.52606956614744 636,138.8658904788952 638,126.5469862131331 640,118.7326058546459 642,115.5059805977773 644,116.8705927009741 646,122.74660496694247 648,132.97502650143025 650,147.32484133618016 652,165.4916067899311 654,187.10818532750778 656,211.7525425974173 658,238.95231175934876 660,268.2012386182207 662,298.9610351675377 664,330.6744783000396 666,362.78477245735235 668,394.72766061780266 670,425.96202593730624 672,455.9660967739265 674,484.2514730898814 676,510.3712982781415 678,533.929496045173 680,554.5882015352881 682,572.0640940800879 684,586.1463246850435 686,596.6888537002069 688,603.6157318920066 690,606.9198075690192 692,606.663856755587 694,602.9741984027428 696,596.0368357596318 698,586.0967463191992 700,573.4478611277867 702,558.4233158800453 704,541.3955167627566 706,522.7604782269435 708,502.93200652128814 710,482.33625595226727 712,461.3923109683615 714,440.5189490985595 716,420.1099766467526 718,400.5405680185626 720,382.1517087418855 722,365.24512685491385 724,350.0810534154595 726,336.8735493557159 728,325.78383985670393 730,316.921027589452 732,310.34558898606485 734,306.0588771636777 736,304.017068403347 738,304.12564806913514 740,306.24358217079475 742,310.19464013909 744,315.76396194432164 746,322.7122160445569 748,330.77375843300536 750,339.67036415821417 752,349.11650686182554 754,358.8218803521247 756,368.50791742164097 758,377.9029401177577 760,386.75684333120955 762,394.84474797367824 764,401.96860437657784 766,407.9672124575358 768,412.71143821048247 770,416.1147434979374 772,418.1289725819801 774,418.74635760859877 776,418.0011591819083 778,415.9620884126267 780,412.7391893590914 782,408.4666759253199 784,403.31325608881343 786,397.47107650689554 788,391.145872529958 790,384.5604940315138 792,377.9430060825798 794,371.5213055687504 796,365.52029874032803 798,360.150403470629 800,355.6087815912481 802,352.06878163545497 804,349.6798378226806 806,348.5609286648769 808,348.79974417446516 810,350.4477766647044 812,353.519121765978 814,357.9950177244189 816,363.81662251568747 818,370.8938213247421 820,379.1005608423647 822,388.28273301349714 824,398.2607756215241 826,408.82987939174524 828,419.77413045335595 830,430.85731878532016 832,441.8444660697688 834,452.4960229246654 836,462.5748832597262 838,471.8593482588298 840,480.13762902614786 842,487.2226959612367 844,492.9484142668203 846,497.17816512703826 848,499.8073398919045 850,500.76368696474924 852,500.012030733968 854,497.5525969065933 856,493.4204615355949 858,487.68611139506106 860,480.45467232256146 862,471.86285507774437 864,462.071489916597 866,451.2687751792596 868,439.66161427549247 870,427.471020013261 872,414.93314933011135 874,402.2766989765824 876,389.7424952565287 878,377.56014265098054 880,365.9444121990403 882,355.1033918962777 884,345.21576173265817 886,336.44439218910543 888,328.9198155319051 890,322.74452046692005 892,317.99112093319263 894,314.69806002086943 896,312.8712947472068 898,312.48538559057675 900,313.483928706135 902,315.780520547296 904,319.26581946279845 906,323.8022261872976 908,329.2405573641459 910,335.41124747421424 912,342.1351803788579 914,349.2309664473741 916,356.5136510572688 918,363.8061561098583 920,370.93634866446337 922,377.7464887049295 924,384.098831760304 926,389.87362727818066 928,394.971496708973 930,399.3287695347426 932,402.900578622738 934,405.6708645787841 936,407.65600136735407 938,408.89503946306155 940,409.4551147465095 942,409.427226398001 944,408.9207223440244 946,408.06440632403786 948,407.00100073127516 950,405.87621583230225 952,404.8470174754232 954,404.0640086776739 956,403.67450088605955 958,403.81490728798263 960,404.6039379790043 962,406.14643217430984 964,408.5154497426484 966,411.7647016900879 968,415.91626953438504 970,420.9598715249059 972,426.85288377056196 974,433.52220167698397 976,440.86070150921813 978,448.7335857451903 980,456.9748983208799 982,465.3929910681177 984,473.7811111445151 986,481.9096506085315 988,489.5405090632172 990,496.4332742146402 992,502.341223763136 994,507.0283153457982 996,510.272959367678 998,511.86697120884276 1000,511.6351883028498 1002,509.42574982693634 1004,505.12283072466084 1006,498.6584878878251 1008,489.9986847717051 1010,479.1617273757997 1012,466.2093833532302 1014,451.25693121745195 1016,434.465403000654 1018,416.0422611361324 1020,396.24063353916455 1022,375.35440735508024 1024,353.7143171763741 1026,331.68007834244577 1028,309.63633394450034 1030,287.9857840590923 1032,267.140862167298 1034,247.51583108797402 1036,229.51369203903468 1038,213.52909739911757 1040,199.92580562998262 1042,189.04108338701832 1044,181.17138849523272 1046,176.56334232926466 1048,175.41524788596607 1050,177.8649693047454 1052,183.9871987271605 1054,193.79307602128253 1056,207.2209582185088 1058,224.14883775725775 1060,244.38175470769184 1062,267.660026172661 1064,293.664051821505 1066,322.0152267764661 1068,352.28574806905027 1070,384.0007267910467 1072,416.6523294336529 1074,449.7034582767474 1076,482.6017778507288 1078,514.7870795232931 1080,545.696380354405 1082,574.7882630298199 1084,601.5402323052547 1086,625.4668409791959 1088,646.12193671458 1090,663.1125897305938 1092,676.1085249011794 1094,684.84213551752 1096,689.1225353731909 1098,688.8305429155124 1100,683.929962691152 1102,674.4642007469106 1104,660.5583660337054 1106,642.4166904868323 1108,620.318033043387 1110,594.6134966213414 1112,565.7183401414852 1114,534.1073998107167 1116,500.3020817233186 1118,464.86749968896703 1120,428.397072842661 1122,391.5014921276023 1124,354.8016551694092 1126,318.91434445669074 1128,284.44023899068804 1130,251.95951687435794 1132,222.00813137691114 1134,195.080680532764 1136,171.61707626082466 1138,151.99318561435885 1140,136.51464747652085 1142,125.412828202078 1144,118.84008690603787 1146,116.86674439746798 1148,119.48310481980553 1150,126.59480551411917 1152,138.03257990250535 1154,153.5473086784061 1156,172.82119617482152 1158,195.47579147400177 1160,221.07226070005197 1162,249.1281120431163 1164,279.12025318905864 1166,310.4980036600416 1168,342.6974738171805 1170,375.144271507641 1172,407.27023010419094 1174,438.521251211405 1176,468.37185512843337 1178,496.33007134437815 1180,521.9445602628552 1182,544.8223662818231 1184,564.6233122908757 1186,581.0745996665319 1188,593.96996728849 1190,603.1762019800246 1192,608.6286287333628 1194,610.3378406356838 1196,608.3860633086867 1198,602.9177992314867" stroke-width="12" fill="none" data-v-7f291682=""/><circle cx="1200" cy="400" transform="translate(0,202.91779923148675)" r="12" fill="hsl(318, 27%, 60%)" data-v-7f291682=""/></svg>