<?xml version="1.0" encoding="utf-8"?>
<!-- Generator: Adobe Illustrator 24.3.0, SVG Export Plug-In . SVG Version: 6.00 Build 0)  -->
<svg version="1.1" id="fretboard" xmlns="http://www.w3.org/2000/svg" xmlns:xlink="http://www.w3.org/1999/xlink" x="0px" y="0px"
	 viewBox="0 0 340 340.9" style="enable-background:new 0 0 340 340.9;" xml:space="preserve">
<style type="text/css">
	.st0{fill:#808080;}
	.st1{enable-background:new    ;}
	.st2{fill:#0066CC;}
	.st3{fill:#FFFFFF;}
	.st4{fill:#0000CC;}
	.st5{fill:#6600CC;}
	.st6{fill:#CC00CC;}
	.st7{fill:#CC0066;}
	.st8{fill:#CC0000;}
	.st9{fill:#CC6600;}
	.st10{fill:#CCCC00;}
	.st11{fill:#66CC00;}
	.st12{fill:#00CC00;}
	.st13{fill:#00CC66;}
	.st14{fill:#00CCCC;}
</style>
<path d="M50,370.5c-0.3,0-0.5-0.2-0.5-0.5V42.2c0-0.3,0.2-0.5,0.5-0.5s0.5,0.2,0.5,0.5V370C50.5,370.2,50.3,370.5,50,370.5z"/>
<path d="M90,370.5c-0.3,0-0.5-0.2-0.5-0.5V42.2c0-0.3,0.2-0.5,0.5-0.5s0.5,0.2,0.5,0.5V370C90.5,370.2,90.3,370.5,90,370.5z"/>
<path d="M130,370.5c-0.3,0-0.5-0.2-0.5-0.5V42.2c0-0.3,0.2-0.5,0.5-0.5s0.5,0.2,0.5,0.5V370C130.5,370.2,130.3,370.5,130,370.5z"/>
<path d="M170,370.5c-0.3,0-0.5-0.2-0.5-0.5V42.2c0-0.3,0.2-0.5,0.5-0.5s0.5,0.2,0.5,0.5V370C170.5,370.2,170.3,370.5,170,370.5z"/>
<path d="M210,370.5c-0.3,0-0.5-0.2-0.5-0.5V42.2c0-0.3,0.2-0.5,0.5-0.5s0.5,0.2,0.5,0.5V370C210.5,370.2,210.3,370.5,210,370.5z"/>
<path d="M250,370.5c-0.3,0-0.5-0.2-0.5-0.5V42.2c0-0.3,0.2-0.5,0.5-0.5s0.5,0.2,0.5,0.5V370C250.5,370.2,250.3,370.5,250,370.5z"/>
<path d="M295,43.2H10c-0.6,0-1-0.4-1-1s0.4-1,1-1h285c0.6,0,1,0.4,1,1S295.6,43.2,295,43.2z"/>
<circle cx="150" cy="176.3" r="4"/>
<circle cx="150" cy="270.8" r="4"/>
<g>
	<path class="st0" d="M280,98.9H20c-0.3,0-0.5-0.2-0.5-0.5s0.2-0.5,0.5-0.5h260c0.3,0,0.5,0.2,0.5,0.5S280.3,98.9,280,98.9z"/>
	<path d="M21.8,88.5l-0.3-0.9c0.4-0.2,2.1-1.1,2.6-1.3l0,1C23.6,87.5,22.1,88.3,21.8,88.5z M23.5,93.2c0-0.4,0-6,0-6.4l0.6-0.5
		l0.5,0c0,0.4,0,6.5,0,6.9H23.5z"/>
	<g class="st1">
		<path d="M272.8,93.3c-0.2,0-0.4,0-0.7,0s-0.4-0.1-0.6-0.1c-0.2,0-0.4-0.1-0.6-0.2c-0.2-0.1-0.3-0.1-0.5-0.2l0.1-1
			c0.2,0.1,0.4,0.2,0.5,0.3c0.2,0.1,0.4,0.1,0.6,0.2c0.2,0.1,0.4,0.1,0.5,0.1c0.2,0,0.3,0,0.5,0c0.5,0,0.9-0.1,1.1-0.3
			c0.2-0.2,0.3-0.5,0.3-0.8c0-0.4-0.2-0.7-0.5-0.9c-0.3-0.2-0.7-0.3-1.3-0.3c-0.1,0-0.6,0-0.7,0v-0.9c0.1,0,0.5,0,0.7,0
			c0.4,0,0.7,0,0.9-0.1c0.2-0.1,0.4-0.2,0.5-0.4s0.2-0.4,0.2-0.6c0-0.3-0.1-0.6-0.4-0.7c-0.2-0.2-0.5-0.2-0.9-0.2
			c-0.2,0-0.3,0-0.5,0c-0.2,0-0.3,0.1-0.5,0.1s-0.3,0.1-0.5,0.2c-0.2,0.1-0.3,0.2-0.5,0.3l-0.1-1c0.1-0.1,0.3-0.2,0.5-0.2
			s0.4-0.1,0.6-0.2c0.2-0.1,0.4-0.1,0.6-0.1s0.4,0,0.6,0c0.5,0,0.9,0.1,1.2,0.2c0.3,0.1,0.6,0.3,0.8,0.6s0.3,0.6,0.3,0.9
			c0,0.3-0.1,0.5-0.2,0.8s-0.3,0.4-0.5,0.5s-0.4,0.2-0.6,0.3v0.1c0.2,0,0.4,0.1,0.5,0.2c0.2,0.1,0.3,0.2,0.5,0.3
			c0.1,0.1,0.3,0.3,0.4,0.5c0.1,0.2,0.1,0.4,0.1,0.7c0,0.4-0.1,0.7-0.3,1s-0.5,0.5-0.8,0.7C273.8,93.2,273.3,93.3,272.8,93.3z"/>
		<path d="M279,93.3c-0.6,0-1.1-0.1-1.5-0.4c-0.4-0.3-0.7-0.6-0.9-1.2c-0.2-0.5-0.3-1.1-0.3-1.9c0-0.6,0.1-1.2,0.2-1.6
			c0.1-0.5,0.3-0.8,0.6-1.1c0.2-0.3,0.5-0.5,0.9-0.7s0.7-0.2,1.2-0.2c0.2,0,0.4,0,0.5,0s0.3,0.1,0.5,0.1c0.2,0,0.3,0.1,0.5,0.1
			c0.2,0.1,0.3,0.1,0.4,0.2l-0.1,1c-0.1-0.1-0.3-0.2-0.4-0.2c-0.1-0.1-0.3-0.1-0.4-0.2c-0.1,0-0.3-0.1-0.4-0.1c-0.1,0-0.3,0-0.4,0
			c-0.4,0-0.8,0.1-1,0.3s-0.5,0.5-0.6,0.9c-0.1,0.4-0.2,0.9-0.2,1.5c0,0.6,0.1,1,0.2,1.4s0.3,0.6,0.5,0.8c0.2,0.2,0.5,0.3,0.8,0.3
			c0.3,0,0.6-0.1,0.8-0.2c0.2-0.1,0.4-0.3,0.5-0.5c0.1-0.2,0.1-0.5,0.1-0.7c0-0.2,0-0.5-0.1-0.7c-0.1-0.2-0.2-0.4-0.4-0.5
			c-0.2-0.1-0.5-0.2-0.8-0.2c-0.1,0-0.3,0-0.4,0s-0.3,0.1-0.4,0.1s-0.3,0.1-0.4,0.2c-0.1,0.1-0.3,0.2-0.4,0.4
			c-0.1-0.1-0.1-0.2-0.2-0.3s0-0.2,0-0.3c0-0.1,0.1-0.2,0.1-0.3l0.2,0c0.1-0.1,0.2-0.2,0.4-0.3s0.3-0.2,0.4-0.2s0.3-0.1,0.5-0.1
			c0.2,0,0.3,0,0.5,0c0.4,0,0.8,0.1,1.1,0.3c0.3,0.2,0.6,0.4,0.7,0.8c0.2,0.3,0.3,0.7,0.3,1.1c0,0.4-0.1,0.8-0.3,1.2
			c-0.2,0.4-0.4,0.7-0.8,0.9C280,93.2,279.5,93.3,279,93.3z"/>
		<path d="M282.9,93.3c-0.2,0-0.3,0-0.4-0.1s-0.2-0.2-0.3-0.3c-0.1-0.1-0.1-0.2-0.1-0.4c0-0.2,0.1-0.4,0.2-0.5
			c0.1-0.1,0.3-0.2,0.6-0.2c0.2,0,0.3,0,0.4,0.1s0.2,0.1,0.3,0.3c0.1,0.1,0.1,0.2,0.1,0.4c0,0.2-0.1,0.4-0.2,0.5
			C283.4,93.3,283.2,93.3,282.9,93.3z"/>
		<path d="M287.6,93.2c0-0.3,0-1.6,0-1.9l0-0.2c0,0,0-3.9,0-4.2l0.8-0.2c-0.2,0.3-3,4.3-3.2,4.5l0-0.4c0,0,4.5,0,4.6,0v1
			c-0.2,0-5.5,0-5.5,0v-0.7c0.1-0.2,3.1-4.4,3.2-4.6h1.1c0,0.4,0,6.5,0,6.9H287.6z"/>
		<path d="M293.1,93.3c-0.6,0-1.1-0.1-1.5-0.3c-0.4-0.2-0.7-0.4-0.9-0.7s-0.3-0.7-0.3-1c0-0.4,0.1-0.7,0.2-0.9
			c0.1-0.2,0.3-0.4,0.5-0.6c0.2-0.1,0.4-0.2,0.6-0.3v-0.1c-0.2-0.1-0.4-0.1-0.6-0.3s-0.3-0.3-0.4-0.5c-0.1-0.2-0.2-0.4-0.2-0.7
			c0-0.4,0.1-0.7,0.3-0.9c0.2-0.3,0.5-0.5,0.8-0.6c0.4-0.1,0.8-0.2,1.3-0.2c0.5,0,0.9,0.1,1.3,0.2c0.4,0.1,0.6,0.3,0.8,0.6
			c0.2,0.3,0.3,0.6,0.3,0.9c0,0.3-0.1,0.5-0.2,0.7c-0.1,0.2-0.3,0.4-0.4,0.5s-0.4,0.2-0.6,0.3v0.1c0.2,0,0.4,0.1,0.6,0.3
			c0.2,0.1,0.4,0.3,0.5,0.6s0.2,0.5,0.2,0.9c0,0.4-0.1,0.7-0.3,1c-0.2,0.3-0.5,0.5-0.9,0.7C294.2,93.2,293.7,93.3,293.1,93.3z
			 M293.1,92.4c0.3,0,0.6-0.1,0.9-0.2c0.2-0.1,0.4-0.2,0.5-0.4c0.1-0.2,0.2-0.4,0.2-0.6c0-0.3-0.1-0.5-0.2-0.7
			c-0.1-0.2-0.3-0.3-0.5-0.4s-0.5-0.1-0.8-0.1c-0.3,0-0.5,0-0.8,0.1c-0.2,0.1-0.4,0.2-0.5,0.4s-0.2,0.4-0.2,0.7
			c0,0.2,0.1,0.4,0.2,0.6c0.1,0.2,0.3,0.3,0.5,0.4C292.5,92.3,292.8,92.4,293.1,92.4z M293.1,89.1c0.4,0,0.7-0.1,1-0.3
			s0.3-0.4,0.3-0.7c0-0.3-0.1-0.6-0.4-0.7s-0.5-0.2-0.9-0.2c-0.4,0-0.7,0.1-0.9,0.2c-0.2,0.2-0.4,0.4-0.4,0.7c0,0.2,0.1,0.4,0.2,0.5
			c0.1,0.2,0.2,0.3,0.4,0.4S292.9,89.1,293.1,89.1z"/>
		<path d="M298.9,93.2c0-0.4,0-4.6,0-5l0.9-0.1l0,0.9h0.1c0.1-0.2,0.2-0.3,0.4-0.5c0.2-0.1,0.3-0.3,0.6-0.4s0.5-0.1,0.7-0.1
			c0.4,0,0.7,0.1,0.9,0.3s0.4,0.5,0.4,0.9l0.1,0c0,0.1,0,0.2,0,0.3c0,0.1,0,0.2,0,0.3c0,0.2,0,3,0,3.3H302c0-0.4,0-3,0-3
			c0-0.4-0.1-0.6-0.2-0.8s-0.3-0.3-0.6-0.3c-0.2,0-0.4,0-0.5,0.1s-0.3,0.2-0.4,0.3c-0.1,0.1-0.2,0.3-0.3,0.4c0,0,0,2.9,0,3.2H298.9z
			 M305.1,93.2c0-0.4,0-3,0-3c0-0.4-0.1-0.6-0.2-0.8s-0.3-0.3-0.6-0.3c-0.2,0-0.4,0-0.5,0.1s-0.3,0.2-0.4,0.3
			c-0.1,0.1-0.2,0.3-0.3,0.4l-0.2-0.9h0.1c0.1-0.2,0.3-0.3,0.4-0.5c0.2-0.2,0.4-0.3,0.6-0.4c0.2-0.1,0.5-0.1,0.7-0.1
			c0.5,0,0.9,0.2,1.1,0.5s0.4,0.7,0.4,1.3c0,0.2,0,3,0,3.3H305.1z"/>
		<path d="M307.6,93.2c0-0.4,0-4.6,0-5l0.9-0.1l0,0.9h0.1c0.1-0.2,0.2-0.3,0.4-0.5s0.3-0.3,0.6-0.4c0.2-0.1,0.5-0.1,0.7-0.1
			c0.4,0,0.7,0.1,0.9,0.3s0.4,0.5,0.4,0.9l0.1,0c0,0.1,0,0.2,0,0.3c0,0.1,0,0.2,0,0.3c0,0.2,0,3,0,3.3h-1.1c0-0.4,0-3,0-3
			c0-0.4-0.1-0.6-0.2-0.8c-0.1-0.2-0.3-0.3-0.6-0.3c-0.2,0-0.4,0-0.5,0.1c-0.2,0.1-0.3,0.2-0.4,0.3c-0.1,0.1-0.2,0.3-0.3,0.4
			c0,0,0,2.9,0,3.2H307.6z M313.8,93.2c0-0.4,0-3,0-3c0-0.4-0.1-0.6-0.2-0.8c-0.1-0.2-0.3-0.3-0.6-0.3c-0.2,0-0.4,0-0.5,0.1
			c-0.2,0.1-0.3,0.2-0.4,0.3c-0.1,0.1-0.2,0.3-0.3,0.4l-0.2-0.9h0.1c0.1-0.2,0.3-0.3,0.4-0.5s0.4-0.3,0.6-0.4
			c0.2-0.1,0.5-0.1,0.7-0.1c0.5,0,0.9,0.2,1.1,0.5c0.2,0.3,0.3,0.7,0.3,1.3c0,0.2,0,3,0,3.3H313.8z"/>
	</g>
</g>
<g>
	<path class="st0" d="M280,151.8H20c-0.3,0-0.5-0.2-0.5-0.5s0.2-0.5,0.5-0.5h260c0.3,0,0.5,0.2,0.5,0.5S280.3,151.8,280,151.8z"/>
	<path d="M21.7,146.2v-0.8c0.2-0.2,1-0.8,1.2-1c0.5-0.4,0.9-0.8,1.2-1.1s0.6-0.7,0.8-1c0.2-0.3,0.3-0.6,0.3-1c0-0.4-0.1-0.7-0.3-0.9
		c-0.2-0.2-0.5-0.3-1-0.3c-0.2,0-0.3,0-0.5,0s-0.3,0.1-0.5,0.1c-0.2,0.1-0.3,0.1-0.5,0.2c-0.2,0.1-0.3,0.2-0.5,0.3l-0.1-1.1
		c0.2-0.1,0.3-0.2,0.5-0.2c0.2-0.1,0.4-0.1,0.6-0.2c0.2-0.1,0.4-0.1,0.6-0.1c0.2,0,0.4,0,0.6,0c0.5,0,0.9,0.1,1.2,0.2
		c0.3,0.2,0.6,0.4,0.8,0.7c0.2,0.3,0.3,0.7,0.3,1.1c0,0.4-0.1,0.7-0.2,1.1c-0.2,0.4-0.4,0.7-0.7,1.1s-0.7,0.8-1.2,1.2l-1.1,0.9
		l-0.2-0.2c0,0,3.2,0,3.5,0v1H21.7z"/>
	<g class="st1">
		<path d="M271,146.2c0.2-0.4,2.7-5.9,2.8-6.1l0.2,0.2c0,0-3.4,0-3.8,0v-1h4.7v0.8c-0.2,0.4-2.6,5.7-2.8,6.1H271z"/>
		<path d="M278.6,146.3c-0.5,0-0.9-0.1-1.3-0.3c-0.4-0.2-0.6-0.4-0.9-0.8c-0.2-0.3-0.4-0.7-0.5-1.1s-0.2-0.9-0.2-1.4
			c0-0.7,0.1-1.3,0.3-1.9s0.5-1,0.9-1.2s0.9-0.5,1.5-0.5c0.5,0,0.9,0.1,1.2,0.3c0.3,0.2,0.6,0.4,0.9,0.7c0.2,0.3,0.4,0.7,0.5,1.1
			c0.1,0.4,0.2,0.9,0.2,1.4c0,0.7-0.1,1.4-0.3,1.9c-0.2,0.5-0.5,0.9-0.9,1.2C279.7,146.1,279.2,146.3,278.6,146.3z M278.6,145.4
			c0.4,0,0.7-0.1,0.9-0.3c0.2-0.2,0.4-0.5,0.5-0.9c0.1-0.4,0.2-0.8,0.2-1.3c0-0.5-0.1-1-0.2-1.4c-0.1-0.4-0.3-0.7-0.5-0.9
			s-0.6-0.3-0.9-0.3c-0.4,0-0.7,0.1-0.9,0.3c-0.2,0.2-0.4,0.5-0.5,0.9s-0.2,0.8-0.2,1.4c0,0.5,0.1,1,0.2,1.4s0.3,0.7,0.5,0.9
			C277.9,145.2,278.2,145.4,278.6,145.4z"/>
		<path d="M283,146.3c-0.2,0-0.3,0-0.4-0.1s-0.2-0.2-0.3-0.3c-0.1-0.1-0.1-0.2-0.1-0.4c0-0.2,0.1-0.4,0.2-0.5
			c0.1-0.1,0.3-0.2,0.6-0.2c0.2,0,0.3,0,0.4,0.1s0.2,0.1,0.3,0.3c0.1,0.1,0.1,0.2,0.1,0.4c0,0.2-0.1,0.4-0.2,0.5
			C283.4,146.2,283.2,146.3,283,146.3z"/>
		<path d="M286.8,146.3c-0.2,0-0.4,0-0.5,0c-0.2,0-0.3-0.1-0.5-0.1c-0.2,0-0.3-0.1-0.5-0.1c-0.2-0.1-0.3-0.1-0.4-0.2l0.1-1
			c0.1,0.1,0.3,0.2,0.4,0.2c0.1,0.1,0.3,0.1,0.4,0.2c0.1,0,0.3,0.1,0.4,0.1c0.1,0,0.3,0,0.4,0c0.4,0,0.8-0.1,1-0.3
			c0.3-0.2,0.5-0.5,0.6-0.9c0.1-0.4,0.2-0.9,0.2-1.5c0-0.6-0.1-1-0.2-1.4s-0.3-0.6-0.5-0.8c-0.2-0.2-0.5-0.3-0.8-0.3
			c-0.3,0-0.6,0.1-0.8,0.2s-0.4,0.3-0.5,0.5s-0.1,0.5-0.1,0.7c0,0.2,0,0.5,0.1,0.7c0.1,0.2,0.2,0.4,0.4,0.5s0.5,0.2,0.8,0.2
			c0.1,0,0.3,0,0.4,0c0.1,0,0.3-0.1,0.4-0.1s0.3-0.1,0.4-0.2s0.3-0.2,0.4-0.4c0.1,0.1,0.1,0.2,0.2,0.3c0,0.1,0,0.2,0,0.3
			c0,0.1-0.1,0.2-0.1,0.3l-0.2,0c-0.1,0.1-0.2,0.2-0.4,0.3s-0.3,0.2-0.4,0.2c-0.1,0.1-0.3,0.1-0.5,0.1s-0.3,0-0.5,0
			c-0.4,0-0.8-0.1-1.1-0.3s-0.6-0.4-0.7-0.8c-0.2-0.3-0.3-0.7-0.3-1.1c0-0.4,0.1-0.8,0.3-1.2c0.2-0.4,0.4-0.7,0.8-0.9
			s0.8-0.3,1.4-0.3c0.6,0,1.1,0.1,1.5,0.4s0.7,0.6,0.9,1.2c0.2,0.5,0.3,1.1,0.3,1.9c0,0.6-0.1,1.2-0.2,1.6c-0.1,0.5-0.3,0.8-0.6,1.2
			c-0.2,0.3-0.5,0.5-0.9,0.7S287.3,146.3,286.8,146.3z"/>
		<path d="M290.6,146.2v-0.8c0.2-0.2,1-0.8,1.2-1c0.5-0.4,0.9-0.8,1.2-1.1s0.6-0.7,0.8-1c0.2-0.3,0.3-0.6,0.3-1
			c0-0.4-0.1-0.7-0.3-0.9c-0.2-0.2-0.5-0.3-1-0.3c-0.2,0-0.3,0-0.5,0c-0.2,0-0.3,0.1-0.5,0.1c-0.2,0.1-0.3,0.1-0.5,0.2
			c-0.2,0.1-0.3,0.2-0.5,0.3l-0.1-1.1c0.2-0.1,0.3-0.2,0.5-0.2c0.2-0.1,0.4-0.1,0.6-0.2c0.2-0.1,0.4-0.1,0.6-0.1c0.2,0,0.4,0,0.6,0
			c0.5,0,0.9,0.1,1.2,0.2c0.3,0.2,0.6,0.4,0.8,0.7c0.2,0.3,0.3,0.7,0.3,1.1c0,0.4-0.1,0.7-0.2,1.1c-0.2,0.4-0.4,0.7-0.7,1.1
			c-0.3,0.4-0.7,0.8-1.2,1.2l-1.1,0.9l-0.2-0.2c0,0,3.2,0,3.5,0v1H290.6z"/>
		<path d="M298.4,146.2c0-0.4,0-4.6,0-5l0.9-0.1l0,0.9h0.1c0.1-0.2,0.2-0.3,0.4-0.5s0.3-0.3,0.6-0.4c0.2-0.1,0.5-0.1,0.7-0.1
			c0.4,0,0.7,0.1,0.9,0.3c0.2,0.2,0.4,0.5,0.4,0.9l0.1,0c0,0.1,0,0.2,0,0.3c0,0.1,0,0.2,0,0.3c0,0.2,0,3,0,3.3h-1.1c0-0.4,0-3,0-3
			c0-0.4-0.1-0.6-0.2-0.8c-0.1-0.2-0.3-0.3-0.6-0.3c-0.2,0-0.3,0-0.5,0.1c-0.1,0.1-0.3,0.2-0.4,0.3c-0.1,0.1-0.2,0.3-0.3,0.4
			c0,0,0,2.9,0,3.2H298.4z M304.6,146.2c0-0.4,0-3,0-3c0-0.4-0.1-0.6-0.2-0.8c-0.1-0.2-0.3-0.3-0.6-0.3c-0.2,0-0.4,0-0.5,0.1
			c-0.2,0.1-0.3,0.2-0.4,0.3c-0.1,0.1-0.2,0.3-0.3,0.4l-0.2-0.9h0.1c0.1-0.2,0.3-0.3,0.4-0.5s0.4-0.3,0.6-0.4s0.5-0.1,0.7-0.1
			c0.5,0,0.9,0.2,1.1,0.5c0.2,0.3,0.4,0.7,0.4,1.3c0,0.2,0,3,0,3.3H304.6z"/>
		<path d="M307.1,146.2c0-0.4,0-4.6,0-5l0.9-0.1l0,0.9h0.1c0.1-0.2,0.2-0.3,0.4-0.5c0.2-0.1,0.3-0.3,0.6-0.4s0.5-0.1,0.7-0.1
			c0.4,0,0.7,0.1,0.9,0.3s0.4,0.5,0.4,0.9l0.1,0c0,0.1,0,0.2,0,0.3c0,0.1,0,0.2,0,0.3c0,0.2,0,3,0,3.3h-1.1c0-0.4,0-3,0-3
			c0-0.4-0.1-0.6-0.2-0.8s-0.3-0.3-0.6-0.3c-0.2,0-0.4,0-0.5,0.1s-0.3,0.2-0.4,0.3c-0.1,0.1-0.2,0.3-0.3,0.4c0,0,0,2.9,0,3.2H307.1z
			 M313.3,146.2c0-0.4,0-3,0-3c0-0.4-0.1-0.6-0.2-0.8s-0.3-0.3-0.6-0.3c-0.2,0-0.4,0-0.5,0.1s-0.3,0.2-0.4,0.3
			c-0.1,0.1-0.2,0.3-0.3,0.4l-0.2-0.9h0.1c0.1-0.2,0.3-0.3,0.4-0.5c0.2-0.2,0.4-0.3,0.6-0.4c0.2-0.1,0.5-0.1,0.7-0.1
			c0.5,0,0.9,0.2,1.1,0.5s0.4,0.7,0.4,1.3c0,0.2,0,3,0,3.3H313.3z"/>
	</g>
</g>
<g>
	<path class="st0" d="M280,201.8H20c-0.3,0-0.5-0.2-0.5-0.5s0.2-0.5,0.5-0.5h260c0.3,0,0.5,0.2,0.5,0.5S280.3,201.8,280,201.8z"/>
	<path d="M24,196.3c-0.2,0-0.4,0-0.7,0s-0.4-0.1-0.6-0.1c-0.2,0-0.4-0.1-0.6-0.2c-0.2-0.1-0.3-0.1-0.5-0.2l0.1-1
		c0.2,0.1,0.4,0.2,0.5,0.3c0.2,0.1,0.4,0.1,0.6,0.2c0.2,0.1,0.4,0.1,0.5,0.1c0.2,0,0.3,0,0.5,0c0.5,0,0.9-0.1,1.1-0.3
		c0.2-0.2,0.3-0.5,0.3-0.8c0-0.4-0.2-0.7-0.5-0.9s-0.7-0.3-1.3-0.3c-0.1,0-0.6,0-0.7,0v-0.9c0.1,0,0.5,0,0.7,0c0.4,0,0.7,0,0.9-0.1
		c0.2-0.1,0.4-0.2,0.5-0.4c0.1-0.2,0.2-0.4,0.2-0.6c0-0.3-0.1-0.6-0.4-0.7c-0.2-0.2-0.5-0.2-0.9-0.2c-0.2,0-0.3,0-0.5,0
		c-0.2,0-0.3,0.1-0.5,0.1s-0.3,0.1-0.5,0.2c-0.2,0.1-0.3,0.2-0.5,0.3l-0.1-1c0.1-0.1,0.3-0.2,0.5-0.2s0.4-0.1,0.6-0.2
		c0.2-0.1,0.4-0.1,0.6-0.1c0.2,0,0.4,0,0.6,0c0.5,0,0.9,0.1,1.2,0.2c0.3,0.1,0.6,0.3,0.8,0.6s0.3,0.6,0.3,0.9c0,0.3-0.1,0.5-0.2,0.8
		c-0.1,0.2-0.3,0.4-0.5,0.5s-0.4,0.2-0.6,0.3v0.1c0.2,0,0.4,0.1,0.5,0.2c0.2,0.1,0.3,0.2,0.5,0.3c0.1,0.1,0.3,0.3,0.4,0.5
		c0.1,0.2,0.1,0.4,0.1,0.7c0,0.4-0.1,0.7-0.3,1s-0.5,0.5-0.8,0.7C25,196.2,24.6,196.3,24,196.3z"/>
	<g class="st1">
		<path d="M270.5,191.5l-0.3-0.9c0.4-0.2,2.1-1.1,2.6-1.3l0,1C272.4,190.5,270.9,191.3,270.5,191.5z M272.3,196.2c0-0.4,0-6,0-6.4
			l0.6-0.5l0.5,0c0,0.4,0,6.5,0,6.9H272.3z"/>
		<path d="M277.7,196.3c-0.5,0-0.9-0.1-1.3-0.3c-0.4-0.2-0.6-0.4-0.9-0.8c-0.2-0.3-0.4-0.7-0.5-1.1c-0.1-0.4-0.2-0.9-0.2-1.4
			c0-0.7,0.1-1.3,0.3-1.9s0.5-1,0.9-1.2s0.9-0.5,1.5-0.5c0.5,0,0.9,0.1,1.2,0.3s0.6,0.4,0.9,0.7c0.2,0.3,0.4,0.7,0.5,1.1
			c0.1,0.4,0.2,0.9,0.2,1.4c0,0.7-0.1,1.4-0.3,1.9s-0.5,0.9-0.9,1.2C278.8,196.1,278.3,196.3,277.7,196.3z M277.7,195.4
			c0.4,0,0.7-0.1,0.9-0.3c0.2-0.2,0.4-0.5,0.5-0.9c0.1-0.4,0.2-0.8,0.2-1.3c0-0.5-0.1-1-0.2-1.4c-0.1-0.4-0.3-0.7-0.5-0.9
			c-0.2-0.2-0.6-0.3-0.9-0.3c-0.4,0-0.7,0.1-0.9,0.3c-0.2,0.2-0.4,0.5-0.5,0.9s-0.2,0.8-0.2,1.4c0,0.5,0.1,1,0.2,1.4
			c0.1,0.4,0.3,0.7,0.5,0.9C277,195.2,277.3,195.4,277.7,195.4z"/>
		<path d="M283.7,196.3c-0.2,0-0.4,0-0.7,0c-0.2,0-0.4-0.1-0.6-0.1c-0.2,0-0.4-0.1-0.6-0.2s-0.3-0.1-0.5-0.2l0.1-1
			c0.2,0.1,0.4,0.2,0.5,0.3c0.2,0.1,0.4,0.1,0.6,0.2c0.2,0.1,0.4,0.1,0.5,0.1s0.3,0,0.5,0c0.5,0,0.9-0.1,1.1-0.3
			c0.2-0.2,0.3-0.5,0.3-0.8c0-0.4-0.2-0.7-0.5-0.9s-0.7-0.3-1.3-0.3c-0.1,0-0.6,0-0.7,0v-0.9c0.1,0,0.5,0,0.7,0c0.4,0,0.7,0,0.9-0.1
			c0.2-0.1,0.4-0.2,0.5-0.4c0.1-0.2,0.2-0.4,0.2-0.6c0-0.3-0.1-0.6-0.4-0.7c-0.2-0.2-0.5-0.2-0.9-0.2c-0.2,0-0.3,0-0.5,0
			c-0.2,0-0.3,0.1-0.5,0.1s-0.3,0.1-0.5,0.2c-0.2,0.1-0.3,0.2-0.5,0.3l-0.1-1c0.1-0.1,0.3-0.2,0.5-0.2c0.2-0.1,0.4-0.1,0.6-0.2
			c0.2-0.1,0.4-0.1,0.6-0.1c0.2,0,0.4,0,0.6,0c0.5,0,0.9,0.1,1.2,0.2s0.6,0.3,0.8,0.6s0.3,0.6,0.3,0.9c0,0.3-0.1,0.5-0.2,0.8
			c-0.1,0.2-0.3,0.4-0.5,0.5c-0.2,0.1-0.4,0.2-0.6,0.3v0.1c0.2,0,0.4,0.1,0.5,0.2c0.2,0.1,0.3,0.2,0.5,0.3c0.1,0.1,0.3,0.3,0.4,0.5
			c0.1,0.2,0.1,0.4,0.1,0.7c0,0.4-0.1,0.7-0.3,1s-0.5,0.5-0.8,0.7C284.7,196.2,284.2,196.3,283.7,196.3z"/>
		<path d="M287.7,196.3c-0.2,0-0.3,0-0.4-0.1c-0.1-0.1-0.2-0.2-0.3-0.3c-0.1-0.1-0.1-0.2-0.1-0.4c0-0.2,0.1-0.4,0.2-0.5
			c0.1-0.1,0.3-0.2,0.6-0.2c0.2,0,0.3,0,0.4,0.1s0.2,0.1,0.3,0.3c0.1,0.1,0.1,0.2,0.1,0.4c0,0.2-0.1,0.4-0.2,0.5
			S288,196.3,287.7,196.3z"/>
		<path d="M292.3,196.2c0-0.3,0-1.6,0-1.9l0-0.2c0,0,0-3.9,0-4.2l0.8-0.2c-0.2,0.3-3,4.3-3.2,4.5l0-0.4c0,0,4.5,0,4.6,0v1
			c-0.2,0-5.5,0-5.5,0v-0.7c0.1-0.2,3.1-4.4,3.2-4.6h1.1c0,0.4,0,6.5,0,6.9H292.3z"/>
		<path d="M295.2,196.2v-0.8c0.2-0.2,1-0.8,1.2-1c0.5-0.4,0.9-0.8,1.2-1.1s0.6-0.7,0.8-1c0.2-0.3,0.3-0.6,0.3-1
			c0-0.4-0.1-0.7-0.3-0.9c-0.2-0.2-0.5-0.3-1-0.3c-0.2,0-0.3,0-0.5,0s-0.3,0.1-0.5,0.1c-0.2,0.1-0.3,0.1-0.5,0.2
			c-0.2,0.1-0.3,0.2-0.5,0.3l-0.1-1.1c0.2-0.1,0.3-0.2,0.5-0.2c0.2-0.1,0.4-0.1,0.6-0.2c0.2-0.1,0.4-0.1,0.6-0.1c0.2,0,0.4,0,0.6,0
			c0.5,0,0.9,0.1,1.2,0.2c0.3,0.2,0.6,0.4,0.8,0.7c0.2,0.3,0.3,0.7,0.3,1.1c0,0.4-0.1,0.7-0.2,1.1c-0.2,0.4-0.4,0.7-0.7,1.1
			s-0.7,0.8-1.2,1.2l-1.1,0.9l-0.2-0.2c0,0,3.2,0,3.5,0v1H295.2z"/>
		<path d="M303,196.2c0-0.4,0-4.6,0-5l0.9-0.1l0,0.9h0.1c0.1-0.2,0.2-0.3,0.4-0.5s0.3-0.3,0.6-0.4c0.2-0.1,0.5-0.1,0.7-0.1
			c0.4,0,0.7,0.1,0.9,0.3c0.2,0.2,0.4,0.5,0.4,0.9l0.1,0c0,0.1,0,0.2,0,0.3c0,0.1,0,0.2,0,0.3c0,0.2,0,3,0,3.3h-1.1c0-0.4,0-3,0-3
			c0-0.4-0.1-0.6-0.2-0.8c-0.1-0.2-0.3-0.3-0.6-0.3c-0.2,0-0.3,0-0.5,0.1c-0.1,0.1-0.3,0.2-0.4,0.3c-0.1,0.1-0.2,0.3-0.3,0.4
			c0,0,0,2.9,0,3.2H303z M309.3,196.2c0-0.4,0-3,0-3c0-0.4-0.1-0.6-0.2-0.8c-0.1-0.2-0.3-0.3-0.6-0.3c-0.2,0-0.4,0-0.5,0.1
			c-0.2,0.1-0.3,0.2-0.4,0.3c-0.1,0.1-0.2,0.3-0.3,0.4l-0.2-0.9h0.1c0.1-0.2,0.3-0.3,0.4-0.5s0.4-0.3,0.6-0.4s0.5-0.1,0.7-0.1
			c0.5,0,0.9,0.2,1.1,0.5c0.2,0.3,0.4,0.7,0.4,1.3c0,0.2,0,3,0,3.3H309.3z"/>
		<path d="M311.8,196.2c0-0.4,0-4.6,0-5l0.9-0.1l0,0.9h0.1c0.1-0.2,0.2-0.3,0.4-0.5c0.2-0.1,0.3-0.3,0.6-0.4s0.5-0.1,0.7-0.1
			c0.4,0,0.7,0.1,0.9,0.3s0.4,0.5,0.4,0.9l0.1,0c0,0.1,0,0.2,0,0.3c0,0.1,0,0.2,0,0.3c0,0.2,0,3,0,3.3h-1.1c0-0.4,0-3,0-3
			c0-0.4-0.1-0.6-0.2-0.8s-0.3-0.3-0.6-0.3c-0.2,0-0.4,0-0.5,0.1s-0.3,0.2-0.4,0.3c-0.1,0.1-0.2,0.3-0.3,0.4c0,0,0,2.9,0,3.2H311.8z
			 M318,196.2c0-0.4,0-3,0-3c0-0.4-0.1-0.6-0.2-0.8s-0.3-0.3-0.6-0.3c-0.2,0-0.4,0-0.5,0.1s-0.3,0.2-0.4,0.3
			c-0.1,0.1-0.2,0.3-0.3,0.4l-0.2-0.9h0.1c0.1-0.2,0.3-0.3,0.4-0.5c0.2-0.2,0.4-0.3,0.6-0.4c0.2-0.1,0.5-0.1,0.7-0.1
			c0.5,0,0.9,0.2,1.1,0.5s0.4,0.7,0.4,1.3c0,0.2,0,3,0,3.3H318z"/>
	</g>
</g>
<g>
	<path class="st0" d="M280,249H20c-0.3,0-0.5-0.2-0.5-0.5s0.2-0.5,0.5-0.5h260c0.3,0,0.5,0.2,0.5,0.5S280.3,249,280,249z"/>
	<path d="M24.7,243.4c0-0.3,0-1.6,0-1.9l0-0.2c0,0,0-3.9,0-4.2l0.8-0.2c-0.2,0.3-3,4.3-3.2,4.5l0-0.4c0,0,4.5,0,4.6,0v1
		c-0.2,0-5.5,0-5.5,0v-0.7c0.1-0.2,3.1-4.4,3.2-4.6h1.1c0,0.4,0,6.5,0,6.9H24.7z"/>
	<g class="st1">
		<path d="M270.5,238.7l-0.3-0.9c0.4-0.2,2.1-1.1,2.6-1.3l0,1C272.4,237.7,270.9,238.5,270.5,238.7z M272.3,243.4c0-0.4,0-6,0-6.4
			l0.6-0.5l0.5,0c0,0.4,0,6.5,0,6.9H272.3z"/>
		<path d="M277.1,243.5c-0.2,0-0.4,0-0.7,0s-0.4-0.1-0.6-0.1c-0.2,0-0.4-0.1-0.6-0.2c-0.2-0.1-0.3-0.1-0.5-0.2l0.1-1
			c0.2,0.1,0.4,0.2,0.5,0.3c0.2,0.1,0.4,0.1,0.6,0.2c0.2,0.1,0.4,0.1,0.5,0.1c0.2,0,0.3,0,0.5,0c0.5,0,0.9-0.1,1.1-0.3
			s0.3-0.5,0.3-0.8c0-0.4-0.2-0.7-0.5-0.9c-0.3-0.2-0.7-0.3-1.3-0.3c-0.1,0-0.6,0-0.7,0v-0.9c0.1,0,0.5,0,0.7,0c0.4,0,0.7,0,0.9-0.1
			c0.2-0.1,0.4-0.2,0.5-0.4c0.1-0.2,0.2-0.4,0.2-0.6c0-0.3-0.1-0.6-0.4-0.7c-0.2-0.2-0.5-0.2-0.9-0.2c-0.2,0-0.3,0-0.5,0
			c-0.2,0-0.3,0.1-0.5,0.1s-0.3,0.1-0.5,0.2c-0.2,0.1-0.3,0.2-0.5,0.3l-0.1-1c0.1-0.1,0.3-0.2,0.5-0.2s0.4-0.1,0.6-0.2
			c0.2-0.1,0.4-0.1,0.6-0.1c0.2,0,0.4,0,0.6,0c0.5,0,0.9,0.1,1.2,0.2c0.3,0.1,0.6,0.3,0.8,0.6s0.3,0.6,0.3,0.9
			c0,0.3-0.1,0.5-0.2,0.8c-0.1,0.2-0.3,0.4-0.5,0.5s-0.4,0.2-0.7,0.3v0.1c0.2,0,0.4,0.1,0.5,0.2c0.2,0.1,0.3,0.2,0.5,0.3
			c0.1,0.1,0.3,0.3,0.4,0.5c0.1,0.2,0.1,0.4,0.1,0.7c0,0.4-0.1,0.7-0.3,1s-0.5,0.5-0.8,0.7C278.2,243.4,277.7,243.5,277.1,243.5z"/>
		<path d="M283.6,243.4c0-0.3,0-1.6,0-1.9l0-0.2c0,0,0-3.9,0-4.2l0.8-0.2c-0.2,0.3-3,4.3-3.2,4.5l0-0.4c0,0,4.5,0,4.6,0v1
			c-0.2,0-5.5,0-5.5,0v-0.7c0.1-0.2,3.1-4.4,3.2-4.6h1.1c0,0.4,0,6.5,0,6.9H283.6z"/>
		<path d="M287.3,243.5c-0.2,0-0.3,0-0.4-0.1s-0.2-0.2-0.3-0.3c-0.1-0.1-0.1-0.2-0.1-0.4c0-0.2,0.1-0.4,0.2-0.5
			c0.1-0.1,0.3-0.2,0.6-0.2c0.2,0,0.3,0,0.4,0.1s0.2,0.1,0.3,0.3c0.1,0.1,0.1,0.2,0.1,0.4c0,0.2-0.1,0.4-0.2,0.5
			C287.8,243.4,287.6,243.5,287.3,243.5z"/>
		<path d="M291.7,243.5c-0.5,0-0.9-0.1-1.3-0.3c-0.4-0.2-0.6-0.4-0.9-0.8c-0.2-0.3-0.4-0.7-0.5-1.1s-0.2-0.9-0.2-1.4
			c0-0.7,0.1-1.3,0.3-1.9s0.5-1,0.9-1.2s0.9-0.5,1.5-0.5c0.5,0,0.9,0.1,1.2,0.3c0.3,0.2,0.6,0.4,0.9,0.7c0.2,0.3,0.4,0.7,0.5,1.1
			c0.1,0.4,0.2,0.9,0.2,1.4c0,0.7-0.1,1.4-0.3,1.9c-0.2,0.5-0.5,0.9-0.9,1.2C292.8,243.3,292.3,243.5,291.7,243.5z M291.7,242.6
			c0.4,0,0.7-0.1,0.9-0.3c0.2-0.2,0.4-0.5,0.5-0.9c0.1-0.4,0.2-0.8,0.2-1.3c0-0.5-0.1-1-0.2-1.4c-0.1-0.4-0.3-0.7-0.5-0.9
			s-0.6-0.3-0.9-0.3c-0.4,0-0.7,0.1-0.9,0.3c-0.2,0.2-0.4,0.5-0.5,0.9s-0.2,0.8-0.2,1.4c0,0.5,0.1,1,0.2,1.4s0.3,0.7,0.5,0.9
			C291,242.4,291.3,242.6,291.7,242.6z"/>
		<path d="M297.8,243.5c-0.2,0-0.4,0-0.5,0c-0.2,0-0.3-0.1-0.5-0.1c-0.2,0-0.3-0.1-0.5-0.1c-0.2-0.1-0.3-0.1-0.4-0.2l0.1-1
			c0.1,0.1,0.3,0.2,0.4,0.2c0.1,0.1,0.3,0.1,0.4,0.2c0.1,0,0.3,0.1,0.4,0.1c0.1,0,0.3,0,0.4,0c0.4,0,0.8-0.1,1-0.3
			c0.3-0.2,0.5-0.5,0.6-0.9c0.1-0.4,0.2-0.9,0.2-1.5c0-0.6-0.1-1-0.2-1.4c-0.1-0.4-0.3-0.6-0.5-0.8c-0.2-0.2-0.5-0.3-0.8-0.3
			c-0.3,0-0.6,0.1-0.8,0.2s-0.4,0.3-0.5,0.5c-0.1,0.2-0.1,0.5-0.1,0.7c0,0.2,0,0.5,0.1,0.7s0.2,0.4,0.4,0.5c0.2,0.1,0.5,0.2,0.8,0.2
			c0.1,0,0.3,0,0.4,0s0.3-0.1,0.4-0.1s0.3-0.1,0.4-0.2c0.1-0.1,0.3-0.2,0.4-0.4c0.1,0.1,0.1,0.2,0.2,0.3c0,0.1,0,0.2,0,0.3
			c0,0.1-0.1,0.2-0.1,0.3l-0.2,0c-0.1,0.1-0.2,0.2-0.4,0.3c-0.1,0.1-0.3,0.2-0.4,0.2s-0.3,0.1-0.5,0.1c-0.2,0-0.3,0-0.5,0
			c-0.4,0-0.8-0.1-1.1-0.3s-0.6-0.4-0.7-0.8c-0.2-0.3-0.3-0.7-0.3-1.1c0-0.4,0.1-0.8,0.3-1.2c0.2-0.4,0.4-0.7,0.8-0.9
			c0.4-0.2,0.8-0.3,1.4-0.3c0.6,0,1.1,0.1,1.5,0.4c0.4,0.3,0.7,0.6,0.9,1.2c0.2,0.5,0.3,1.1,0.3,1.9c0,0.6-0.1,1.2-0.2,1.6
			c-0.1,0.5-0.3,0.8-0.6,1.2s-0.5,0.5-0.9,0.7C298.6,243.4,298.2,243.5,297.8,243.5z"/>
		<path d="M303.8,243.4c0-0.4,0-4.6,0-5l0.9-0.1l0,0.9h0.1c0.1-0.2,0.2-0.3,0.4-0.5s0.3-0.3,0.6-0.4c0.2-0.1,0.5-0.1,0.7-0.1
			c0.4,0,0.7,0.1,0.9,0.3c0.2,0.2,0.4,0.5,0.4,0.9l0.1,0c0,0.1,0,0.2,0,0.3c0,0.1,0,0.2,0,0.3c0,0.2,0,3,0,3.3h-1.1c0-0.4,0-3,0-3
			c0-0.4-0.1-0.6-0.2-0.8c-0.1-0.2-0.3-0.3-0.6-0.3c-0.2,0-0.3,0-0.5,0.1c-0.1,0.1-0.3,0.2-0.4,0.3c-0.1,0.1-0.2,0.3-0.3,0.4
			c0,0,0,2.9,0,3.2H303.8z M310,243.4c0-0.4,0-3,0-3c0-0.4-0.1-0.6-0.2-0.8c-0.1-0.2-0.3-0.3-0.6-0.3c-0.2,0-0.4,0-0.5,0.1
			c-0.2,0.1-0.3,0.2-0.4,0.3c-0.1,0.1-0.2,0.3-0.3,0.4l-0.2-0.9h0.1c0.1-0.2,0.3-0.3,0.4-0.5s0.4-0.3,0.6-0.4s0.5-0.1,0.7-0.1
			c0.5,0,0.9,0.2,1.1,0.5c0.2,0.3,0.4,0.7,0.4,1.3c0,0.2,0,3,0,3.3H310z"/>
		<path d="M312.5,243.4c0-0.4,0-4.6,0-5l0.9-0.1l0,0.9h0.1c0.1-0.2,0.2-0.3,0.4-0.5c0.2-0.1,0.3-0.3,0.6-0.4s0.5-0.1,0.7-0.1
			c0.4,0,0.7,0.1,0.9,0.3s0.4,0.5,0.4,0.9l0.1,0c0,0.1,0,0.2,0,0.3c0,0.1,0,0.2,0,0.3c0,0.2,0,3,0,3.3h-1.1c0-0.4,0-3,0-3
			c0-0.4-0.1-0.6-0.2-0.8s-0.3-0.3-0.6-0.3c-0.2,0-0.4,0-0.5,0.1s-0.3,0.2-0.4,0.3c-0.1,0.1-0.2,0.3-0.3,0.4c0,0,0,2.9,0,3.2H312.5z
			 M318.7,243.4c0-0.4,0-3,0-3c0-0.4-0.1-0.6-0.2-0.8s-0.3-0.3-0.6-0.3c-0.2,0-0.4,0-0.5,0.1s-0.3,0.2-0.4,0.3
			c-0.1,0.1-0.2,0.3-0.3,0.4l-0.2-0.9h0.1c0.1-0.2,0.3-0.3,0.4-0.5c0.2-0.2,0.4-0.3,0.6-0.4c0.2-0.1,0.5-0.1,0.7-0.1
			c0.5,0,0.9,0.2,1.1,0.5s0.4,0.7,0.4,1.3c0,0.2,0,3,0,3.3H318.7z"/>
	</g>
</g>
<g>
	<path class="st0" d="M280,293.6H20c-0.3,0-0.5-0.2-0.5-0.5s0.2-0.5,0.5-0.5h260c0.3,0,0.5,0.2,0.5,0.5S280.3,293.6,280,293.6z"/>
	<path d="M24,288c-0.2,0-0.4,0-0.7,0c-0.2,0-0.4-0.1-0.6-0.1c-0.2,0-0.4-0.1-0.6-0.2c-0.2-0.1-0.3-0.1-0.5-0.2l0.1-1
		c0.2,0.1,0.4,0.2,0.5,0.3c0.2,0.1,0.4,0.1,0.5,0.2c0.2,0.1,0.4,0.1,0.5,0.1s0.3,0,0.5,0c0.5,0,0.9-0.1,1.2-0.4
		c0.2-0.2,0.4-0.6,0.4-1c0-0.3-0.1-0.6-0.2-0.8c-0.1-0.2-0.3-0.3-0.5-0.4c-0.2-0.1-0.5-0.1-0.8-0.1c-0.2,0-0.5,0-0.7,0.1
		c-0.2,0.1-0.5,0.2-0.7,0.3l-0.5,0c0,0,0-3.3,0-3.7h4.1v1c-0.4,0-3.4,0-3.4,0l0.4-0.4c0,0.3,0,2.1,0,2.1h0.1
		c0.2-0.1,0.4-0.2,0.6-0.2c0.2,0,0.4-0.1,0.6-0.1c0.4,0,0.7,0.1,1.1,0.2c0.3,0.2,0.6,0.4,0.8,0.7c0.2,0.3,0.3,0.7,0.3,1.2
		c0,0.5-0.1,0.9-0.3,1.2c-0.2,0.4-0.5,0.6-0.9,0.8C25,287.9,24.5,288,24,288z"/>
	<g class="st1">
		<path d="M270.5,283.2l-0.3-0.9c0.4-0.2,2.1-1.1,2.6-1.3l0,1C272.4,282.2,270.9,283,270.5,283.2z M272.3,287.9c0-0.4,0-6,0-6.4
			l0.6-0.5l0.5,0c0,0.4,0,6.5,0,6.9H272.3z"/>
		<path d="M277.6,288c-0.6,0-1.1-0.1-1.5-0.4c-0.4-0.3-0.7-0.6-0.9-1.2c-0.2-0.5-0.3-1.1-0.3-1.9c0-0.6,0.1-1.2,0.2-1.6
			c0.1-0.5,0.3-0.8,0.6-1.1c0.2-0.3,0.5-0.5,0.9-0.7c0.3-0.2,0.7-0.2,1.2-0.2c0.2,0,0.4,0,0.5,0c0.2,0,0.3,0.1,0.5,0.1
			c0.2,0,0.3,0.1,0.5,0.1s0.3,0.1,0.4,0.2l-0.1,1c-0.1-0.1-0.3-0.2-0.4-0.2c-0.1-0.1-0.3-0.1-0.4-0.2c-0.1,0-0.3-0.1-0.4-0.1
			c-0.1,0-0.3,0-0.4,0c-0.4,0-0.8,0.1-1,0.3s-0.5,0.5-0.6,0.9c-0.1,0.4-0.2,0.9-0.2,1.5c0,0.6,0.1,1,0.2,1.4s0.3,0.6,0.5,0.8
			c0.2,0.2,0.5,0.3,0.8,0.3c0.3,0,0.6-0.1,0.8-0.2c0.2-0.1,0.4-0.3,0.5-0.5s0.1-0.5,0.1-0.7c0-0.2,0-0.5-0.1-0.7
			c-0.1-0.2-0.2-0.4-0.4-0.5s-0.5-0.2-0.8-0.2c-0.1,0-0.3,0-0.4,0s-0.3,0.1-0.4,0.1s-0.3,0.1-0.4,0.2c-0.1,0.1-0.3,0.2-0.4,0.4
			c-0.1-0.1-0.1-0.2-0.2-0.3c0-0.1,0-0.2,0-0.3c0-0.1,0.1-0.2,0.1-0.3l0.2,0c0.1-0.1,0.2-0.2,0.4-0.3c0.1-0.1,0.3-0.2,0.4-0.2
			c0.2-0.1,0.3-0.1,0.5-0.1c0.2,0,0.3,0,0.5,0c0.4,0,0.8,0.1,1.1,0.3s0.6,0.4,0.7,0.8c0.2,0.3,0.3,0.7,0.3,1.1
			c0,0.4-0.1,0.8-0.3,1.2c-0.2,0.4-0.4,0.7-0.8,0.9C278.6,287.9,278.1,288,277.6,288z"/>
		<path d="M283.2,288c-0.2,0-0.4,0-0.7,0c-0.2,0-0.4-0.1-0.6-0.1c-0.2,0-0.4-0.1-0.6-0.2s-0.3-0.1-0.5-0.2l0.1-1
			c0.2,0.1,0.4,0.2,0.5,0.3c0.2,0.1,0.4,0.1,0.6,0.2c0.2,0.1,0.4,0.1,0.5,0.1s0.3,0,0.5,0c0.5,0,0.9-0.1,1.1-0.3
			c0.2-0.2,0.3-0.5,0.3-0.8c0-0.4-0.2-0.7-0.5-0.9s-0.7-0.3-1.3-0.3c-0.1,0-0.6,0-0.7,0v-0.9c0.1,0,0.5,0,0.7,0c0.4,0,0.7,0,0.9-0.1
			c0.2-0.1,0.4-0.2,0.5-0.4c0.1-0.2,0.2-0.4,0.2-0.6c0-0.3-0.1-0.6-0.4-0.7c-0.2-0.2-0.5-0.2-0.9-0.2c-0.2,0-0.3,0-0.5,0
			c-0.2,0-0.3,0.1-0.5,0.1s-0.3,0.1-0.5,0.2c-0.2,0.1-0.3,0.2-0.5,0.3l-0.1-1c0.1-0.1,0.3-0.2,0.5-0.2c0.2-0.1,0.4-0.1,0.6-0.2
			c0.2-0.1,0.4-0.1,0.6-0.1c0.2,0,0.4,0,0.6,0c0.5,0,0.9,0.1,1.2,0.2s0.6,0.3,0.8,0.6s0.3,0.6,0.3,0.9c0,0.3-0.1,0.5-0.2,0.8
			c-0.1,0.2-0.3,0.4-0.5,0.5c-0.2,0.1-0.4,0.2-0.6,0.3v0.1c0.2,0,0.4,0.1,0.5,0.2c0.2,0.1,0.3,0.2,0.5,0.3c0.1,0.1,0.3,0.3,0.4,0.5
			c0.1,0.2,0.1,0.4,0.1,0.7c0,0.4-0.1,0.7-0.3,1s-0.5,0.5-0.8,0.7C284.2,288,283.8,288,283.2,288z"/>
		<path d="M287.3,288c-0.2,0-0.3,0-0.4-0.1s-0.2-0.2-0.3-0.3c-0.1-0.1-0.1-0.2-0.1-0.4c0-0.2,0.1-0.4,0.2-0.5
			c0.1-0.1,0.3-0.2,0.6-0.2c0.2,0,0.3,0,0.4,0.1s0.2,0.1,0.3,0.3c0.1,0.1,0.1,0.2,0.1,0.4c0,0.2-0.1,0.4-0.2,0.5
			C287.7,288,287.5,288,287.3,288z"/>
		<path d="M291.6,288c-0.5,0-0.9-0.1-1.3-0.3c-0.4-0.2-0.6-0.4-0.9-0.8c-0.2-0.3-0.4-0.7-0.5-1.1c-0.1-0.4-0.2-0.9-0.2-1.4
			c0-0.7,0.1-1.3,0.3-1.9s0.5-1,0.9-1.2c0.4-0.3,0.9-0.5,1.5-0.5c0.5,0,0.9,0.1,1.2,0.3s0.6,0.4,0.9,0.7c0.2,0.3,0.4,0.7,0.5,1.1
			c0.1,0.4,0.2,0.9,0.2,1.4c0,0.7-0.1,1.4-0.3,1.9s-0.5,0.9-0.9,1.2C292.7,287.9,292.2,288,291.6,288z M291.6,287.1
			c0.4,0,0.7-0.1,0.9-0.3c0.2-0.2,0.4-0.5,0.5-0.9c0.1-0.4,0.2-0.8,0.2-1.3c0-0.5-0.1-1-0.2-1.4c-0.1-0.4-0.3-0.7-0.5-0.9
			c-0.2-0.2-0.6-0.3-0.9-0.3c-0.4,0-0.7,0.1-0.9,0.3c-0.2,0.2-0.4,0.5-0.5,0.9s-0.2,0.8-0.2,1.4c0,0.5,0.1,1,0.2,1.4
			c0.1,0.4,0.3,0.7,0.5,0.9C290.9,287,291.2,287.1,291.6,287.1z"/>
		<path d="M297.6,288c-0.2,0-0.4,0-0.7,0s-0.4-0.1-0.6-0.1c-0.2,0-0.4-0.1-0.6-0.2c-0.2-0.1-0.3-0.1-0.5-0.2l0.1-1
			c0.2,0.1,0.4,0.2,0.5,0.3c0.2,0.1,0.4,0.1,0.5,0.2c0.2,0.1,0.4,0.1,0.5,0.1s0.3,0,0.5,0c0.5,0,0.9-0.1,1.2-0.4
			c0.2-0.2,0.4-0.6,0.4-1c0-0.3-0.1-0.6-0.2-0.8c-0.1-0.2-0.3-0.3-0.5-0.4c-0.2-0.1-0.5-0.1-0.8-0.1c-0.2,0-0.5,0-0.7,0.1
			c-0.2,0.1-0.5,0.2-0.7,0.3l-0.5,0c0,0,0-3.3,0-3.7h4.1v1c-0.4,0-3.4,0-3.4,0l0.4-0.4c0,0.3,0,2.1,0,2.1h0.1
			c0.2-0.1,0.4-0.2,0.6-0.2c0.2,0,0.4-0.1,0.6-0.1c0.4,0,0.7,0.1,1.1,0.2c0.3,0.2,0.6,0.4,0.8,0.7c0.2,0.3,0.3,0.7,0.3,1.2
			c0,0.5-0.1,0.9-0.3,1.2c-0.2,0.4-0.5,0.6-0.9,0.8C298.7,287.9,298.2,288,297.6,288z"/>
		<path d="M303.4,287.9c0-0.4,0-4.6,0-5l0.9-0.1l0,0.9h0.1c0.1-0.2,0.2-0.3,0.4-0.5c0.2-0.1,0.3-0.3,0.6-0.4s0.5-0.1,0.7-0.1
			c0.4,0,0.7,0.1,0.9,0.3s0.4,0.5,0.4,0.9l0.1,0c0,0.1,0,0.2,0,0.3c0,0.1,0,0.2,0,0.3c0,0.2,0,3,0,3.3h-1.1c0-0.4,0-3,0-3
			c0-0.4-0.1-0.6-0.2-0.8s-0.3-0.3-0.6-0.3c-0.2,0-0.4,0-0.5,0.1s-0.3,0.2-0.4,0.3c-0.1,0.1-0.2,0.3-0.3,0.4c0,0,0,2.9,0,3.2H303.4z
			 M309.6,287.9c0-0.4,0-3,0-3c0-0.4-0.1-0.6-0.2-0.8s-0.3-0.3-0.6-0.3c-0.2,0-0.4,0-0.5,0.1s-0.3,0.2-0.4,0.3
			c-0.1,0.1-0.2,0.3-0.3,0.4l-0.2-0.9h0.1c0.1-0.2,0.3-0.3,0.4-0.5c0.2-0.2,0.4-0.3,0.6-0.4c0.2-0.1,0.5-0.1,0.7-0.1
			c0.5,0,0.9,0.2,1.1,0.5s0.4,0.7,0.4,1.3c0,0.2,0,3,0,3.3H309.6z"/>
		<path d="M312.1,287.9c0-0.4,0-4.6,0-5l0.9-0.1l0,0.9h0.1c0.1-0.2,0.2-0.3,0.4-0.5c0.2-0.1,0.3-0.3,0.6-0.4s0.5-0.1,0.7-0.1
			c0.4,0,0.7,0.1,0.9,0.3s0.4,0.5,0.4,0.9l0.1,0c0,0.1,0,0.2,0,0.3c0,0.1,0,0.2,0,0.3c0,0.2,0,3,0,3.3h-1.1c0-0.4,0-3,0-3
			c0-0.4-0.1-0.6-0.2-0.8s-0.3-0.3-0.6-0.3c-0.2,0-0.4,0-0.5,0.1s-0.3,0.2-0.4,0.3c-0.1,0.1-0.2,0.3-0.3,0.4c0,0,0,2.9,0,3.2H312.1z
			 M318.3,287.9c0-0.4,0-3,0-3c0-0.4-0.1-0.6-0.2-0.8s-0.3-0.3-0.6-0.3c-0.2,0-0.4,0-0.5,0.1s-0.3,0.2-0.4,0.3
			c-0.1,0.1-0.2,0.3-0.3,0.4l-0.2-0.9h0.1c0.1-0.2,0.3-0.3,0.4-0.5c0.2-0.2,0.4-0.3,0.6-0.4c0.2-0.1,0.5-0.1,0.7-0.1
			c0.5,0,0.9,0.2,1.1,0.5s0.4,0.7,0.4,1.3c0,0.2,0,3,0,3.3H318.3z"/>
	</g>
</g>
<g>
	<path class="st0" d="M280,335.6H20c-0.3,0-0.5-0.2-0.5-0.5s0.2-0.5,0.5-0.5h260c0.3,0,0.5,0.2,0.5,0.5S280.3,335.6,280,335.6z"/>
	<path d="M24.4,330.1c-0.6,0-1.1-0.1-1.5-0.4c-0.4-0.3-0.7-0.6-0.9-1.2c-0.2-0.5-0.3-1.1-0.3-1.9c0-0.6,0.1-1.2,0.2-1.6
		c0.1-0.5,0.3-0.8,0.6-1.1c0.2-0.3,0.5-0.5,0.9-0.7c0.3-0.2,0.7-0.2,1.2-0.2c0.2,0,0.4,0,0.5,0c0.2,0,0.3,0.1,0.5,0.1
		c0.2,0,0.3,0.1,0.5,0.1c0.2,0.1,0.3,0.1,0.4,0.2l-0.1,1c-0.1-0.1-0.3-0.2-0.4-0.2c-0.1-0.1-0.3-0.1-0.4-0.2c-0.1,0-0.3-0.1-0.4-0.1
		c-0.1,0-0.3,0-0.4,0c-0.4,0-0.8,0.1-1,0.3s-0.5,0.5-0.6,0.9s-0.2,0.9-0.2,1.5c0,0.6,0.1,1,0.2,1.4s0.3,0.6,0.5,0.8
		c0.2,0.2,0.5,0.3,0.8,0.3c0.3,0,0.6-0.1,0.8-0.2c0.2-0.1,0.4-0.3,0.5-0.5c0.1-0.2,0.1-0.5,0.1-0.7c0-0.2,0-0.5-0.1-0.7
		c-0.1-0.2-0.2-0.4-0.4-0.5c-0.2-0.1-0.5-0.2-0.8-0.2c-0.1,0-0.3,0-0.4,0s-0.3,0.1-0.4,0.1s-0.3,0.1-0.4,0.2
		c-0.1,0.1-0.3,0.2-0.4,0.4c-0.1-0.1-0.1-0.2-0.2-0.3c0-0.1,0-0.2,0-0.3c0-0.1,0.1-0.2,0.1-0.3l0.2,0c0.1-0.1,0.2-0.2,0.4-0.3
		c0.1-0.1,0.3-0.2,0.4-0.2c0.2-0.1,0.3-0.1,0.5-0.1c0.2,0,0.3,0,0.5,0c0.4,0,0.8,0.1,1.1,0.3c0.3,0.2,0.6,0.4,0.7,0.8
		c0.2,0.3,0.3,0.7,0.3,1.1c0,0.4-0.1,0.8-0.3,1.2c-0.2,0.4-0.4,0.7-0.8,0.9S25,330.1,24.4,330.1z"/>
	<g class="st1">
		<path d="M270.5,325.3l-0.3-0.9c0.4-0.2,2.1-1.1,2.6-1.3l0,1C272.4,324.3,270.9,325.1,270.5,325.3z M272.3,330c0-0.4,0-6,0-6.4
			l0.6-0.5l0.5,0c0,0.4,0,6.5,0,6.9H272.3z"/>
		<path d="M277.2,330.1c-0.2,0-0.4,0-0.5,0c-0.2,0-0.3-0.1-0.5-0.1c-0.2,0-0.3-0.1-0.5-0.1c-0.2-0.1-0.3-0.1-0.4-0.2l0.1-1
			c0.1,0.1,0.3,0.2,0.4,0.2c0.1,0.1,0.3,0.1,0.4,0.2c0.1,0,0.3,0.1,0.4,0.1c0.1,0,0.3,0,0.4,0c0.4,0,0.8-0.1,1-0.3
			c0.3-0.2,0.5-0.5,0.6-0.9c0.1-0.4,0.2-0.9,0.2-1.5c0-0.6-0.1-1-0.2-1.4c-0.1-0.4-0.3-0.6-0.5-0.8c-0.2-0.2-0.5-0.3-0.8-0.3
			c-0.3,0-0.6,0.1-0.8,0.2s-0.4,0.3-0.5,0.5s-0.1,0.5-0.1,0.7c0,0.2,0,0.5,0.1,0.7c0.1,0.2,0.2,0.4,0.4,0.5s0.5,0.2,0.8,0.2
			c0.1,0,0.3,0,0.4,0c0.1,0,0.3-0.1,0.4-0.1s0.3-0.1,0.4-0.2s0.3-0.2,0.4-0.4c0.1,0.1,0.1,0.2,0.2,0.3c0,0.1,0,0.2,0,0.3
			c0,0.1-0.1,0.2-0.1,0.3l-0.2,0c-0.1,0.1-0.2,0.2-0.4,0.3c-0.1,0.1-0.3,0.2-0.4,0.2s-0.3,0.1-0.5,0.1c-0.2,0-0.3,0-0.5,0
			c-0.4,0-0.8-0.1-1.1-0.3c-0.3-0.2-0.6-0.4-0.7-0.8s-0.3-0.7-0.3-1.1c0-0.4,0.1-0.8,0.3-1.2c0.2-0.4,0.4-0.7,0.8-0.9
			s0.8-0.3,1.4-0.3c0.6,0,1.1,0.1,1.5,0.4s0.7,0.6,0.9,1.2c0.2,0.5,0.3,1.1,0.3,1.9c0,0.6-0.1,1.2-0.2,1.6c-0.1,0.5-0.3,0.8-0.6,1.2
			c-0.2,0.3-0.5,0.5-0.9,0.7S277.6,330.1,277.2,330.1z"/>
		<path d="M283.8,330.1c-0.5,0-0.9-0.1-1.3-0.3c-0.4-0.2-0.6-0.4-0.9-0.8c-0.2-0.3-0.4-0.7-0.5-1.1c-0.1-0.4-0.2-0.9-0.2-1.4
			c0-0.7,0.1-1.3,0.3-1.9s0.5-1,0.9-1.2c0.4-0.3,0.9-0.5,1.5-0.5c0.5,0,0.9,0.1,1.2,0.3s0.6,0.4,0.9,0.7c0.2,0.3,0.4,0.7,0.5,1.1
			c0.1,0.4,0.2,0.9,0.2,1.4c0,0.7-0.1,1.4-0.3,1.9s-0.5,0.9-0.9,1.2C284.9,329.9,284.4,330.1,283.8,330.1z M283.8,329.1
			c0.4,0,0.7-0.1,0.9-0.3c0.2-0.2,0.4-0.5,0.5-0.9c0.1-0.4,0.2-0.8,0.2-1.3c0-0.5-0.1-1-0.2-1.4c-0.1-0.4-0.3-0.7-0.5-0.9
			c-0.2-0.2-0.6-0.3-0.9-0.3c-0.4,0-0.7,0.1-0.9,0.3c-0.2,0.2-0.4,0.5-0.5,0.9s-0.2,0.8-0.2,1.4c0,0.5,0.1,1,0.2,1.4
			c0.1,0.4,0.3,0.7,0.5,0.9C283.1,329,283.4,329.1,283.8,329.1z"/>
		<path d="M288.1,330.1c-0.2,0-0.3,0-0.4-0.1c-0.1-0.1-0.2-0.2-0.3-0.3c-0.1-0.1-0.1-0.2-0.1-0.4c0-0.2,0.1-0.4,0.2-0.5
			c0.1-0.1,0.3-0.2,0.6-0.2c0.2,0,0.3,0,0.4,0.1s0.2,0.1,0.3,0.3c0.1,0.1,0.1,0.2,0.1,0.4c0,0.2-0.1,0.4-0.2,0.5
			S288.4,330.1,288.1,330.1z"/>
		<path d="M292.1,330.1c-0.2,0-0.4,0-0.7,0s-0.4-0.1-0.6-0.1c-0.2,0-0.4-0.1-0.6-0.2c-0.2-0.1-0.3-0.1-0.5-0.2l0.1-1
			c0.2,0.1,0.4,0.2,0.5,0.3c0.2,0.1,0.4,0.1,0.6,0.2c0.2,0.1,0.4,0.1,0.5,0.1c0.2,0,0.3,0,0.5,0c0.5,0,0.9-0.1,1.1-0.3
			c0.2-0.2,0.3-0.5,0.3-0.8c0-0.4-0.2-0.7-0.5-0.9c-0.3-0.2-0.7-0.3-1.3-0.3c-0.1,0-0.6,0-0.7,0V326c0.1,0,0.5,0,0.7,0
			c0.4,0,0.7,0,0.9-0.1c0.2-0.1,0.4-0.2,0.5-0.4s0.2-0.4,0.2-0.6c0-0.3-0.1-0.6-0.4-0.7c-0.2-0.2-0.5-0.2-0.9-0.2
			c-0.2,0-0.3,0-0.5,0c-0.2,0-0.3,0.1-0.5,0.1s-0.3,0.1-0.5,0.2c-0.2,0.1-0.3,0.2-0.5,0.3l-0.1-1c0.1-0.1,0.3-0.2,0.5-0.2
			s0.4-0.1,0.6-0.2c0.2-0.1,0.4-0.1,0.6-0.1s0.4,0,0.6,0c0.5,0,0.9,0.1,1.2,0.2c0.3,0.1,0.6,0.3,0.8,0.6s0.3,0.6,0.3,0.9
			c0,0.3-0.1,0.5-0.2,0.8s-0.3,0.4-0.5,0.5s-0.4,0.2-0.6,0.3v0.1c0.2,0,0.4,0.1,0.5,0.2c0.2,0.1,0.3,0.2,0.5,0.3
			c0.1,0.1,0.3,0.3,0.4,0.5c0.1,0.2,0.1,0.4,0.1,0.7c0,0.4-0.1,0.7-0.3,1s-0.5,0.5-0.8,0.7C293.2,330,292.7,330.1,292.1,330.1z"/>
		<path d="M298.2,330.1c-0.6,0-1.1-0.1-1.5-0.3c-0.4-0.2-0.7-0.4-0.9-0.7s-0.3-0.7-0.3-1c0-0.4,0.1-0.7,0.2-0.9
			c0.1-0.2,0.3-0.4,0.5-0.6c0.2-0.1,0.4-0.2,0.6-0.3v-0.1c-0.2-0.1-0.4-0.1-0.6-0.3s-0.3-0.3-0.4-0.5c-0.1-0.2-0.2-0.4-0.2-0.7
			c0-0.4,0.1-0.7,0.3-0.9c0.2-0.3,0.5-0.5,0.8-0.6c0.4-0.1,0.8-0.2,1.3-0.2c0.5,0,0.9,0.1,1.3,0.2c0.4,0.1,0.6,0.3,0.8,0.6
			c0.2,0.3,0.3,0.6,0.3,0.9c0,0.3-0.1,0.5-0.2,0.7c-0.1,0.2-0.3,0.4-0.4,0.5s-0.4,0.2-0.6,0.3v0.1c0.2,0,0.4,0.1,0.6,0.3
			c0.2,0.1,0.4,0.3,0.5,0.6s0.2,0.5,0.2,0.9c0,0.4-0.1,0.7-0.3,1c-0.2,0.3-0.5,0.5-0.8,0.7C299.2,330,298.7,330.1,298.2,330.1z
			 M298.2,329.1c0.3,0,0.6-0.1,0.8-0.2c0.2-0.1,0.4-0.2,0.5-0.4c0.1-0.2,0.2-0.4,0.2-0.6c0-0.3-0.1-0.5-0.2-0.7
			c-0.1-0.2-0.3-0.3-0.5-0.4s-0.5-0.1-0.8-0.1c-0.3,0-0.5,0-0.8,0.1c-0.2,0.1-0.4,0.2-0.5,0.4c-0.1,0.2-0.2,0.4-0.2,0.7
			c0,0.2,0.1,0.4,0.2,0.6c0.1,0.2,0.3,0.3,0.5,0.4C297.5,329.1,297.8,329.1,298.2,329.1z M298.2,325.9c0.4,0,0.7-0.1,1-0.3
			c0.2-0.2,0.3-0.4,0.3-0.7c0-0.3-0.1-0.6-0.4-0.7s-0.5-0.2-0.9-0.2c-0.4,0-0.7,0.1-0.9,0.2c-0.2,0.2-0.4,0.4-0.4,0.7
			c0,0.2,0,0.4,0.1,0.5c0.1,0.2,0.2,0.3,0.4,0.4S297.9,325.9,298.2,325.9z"/>
		<path d="M303.9,330c0-0.4,0-4.6,0-5l0.9-0.1l0,0.9h0.1c0.1-0.2,0.2-0.3,0.4-0.5s0.3-0.3,0.6-0.4c0.2-0.1,0.5-0.1,0.7-0.1
			c0.4,0,0.7,0.1,0.9,0.3c0.2,0.2,0.4,0.5,0.4,0.9l0.1,0c0,0.1,0,0.2,0,0.3c0,0.1,0,0.2,0,0.3c0,0.2,0,3,0,3.3H307c0-0.4,0-3,0-3
			c0-0.4-0.1-0.6-0.2-0.8c-0.1-0.2-0.3-0.3-0.6-0.3c-0.2,0-0.3,0-0.5,0.1c-0.1,0.1-0.3,0.2-0.4,0.3c-0.1,0.1-0.2,0.3-0.3,0.4
			c0,0,0,2.9,0,3.2H303.9z M310.1,330c0-0.4,0-3,0-3c0-0.4-0.1-0.6-0.2-0.8c-0.1-0.2-0.3-0.3-0.6-0.3c-0.2,0-0.4,0-0.5,0.1
			c-0.2,0.1-0.3,0.2-0.4,0.3c-0.1,0.1-0.2,0.3-0.3,0.4l-0.2-0.9h0.1c0.1-0.2,0.3-0.3,0.4-0.5s0.4-0.3,0.6-0.4s0.5-0.1,0.7-0.1
			c0.5,0,0.9,0.2,1.1,0.5c0.2,0.3,0.4,0.7,0.4,1.3c0,0.2,0,3,0,3.3H310.1z"/>
		<path d="M312.6,330c0-0.4,0-4.6,0-5l0.9-0.1l0,0.9h0.1c0.1-0.2,0.2-0.3,0.4-0.5c0.2-0.1,0.3-0.3,0.6-0.4s0.5-0.1,0.7-0.1
			c0.4,0,0.7,0.1,0.9,0.3s0.4,0.5,0.4,0.9l0.1,0c0,0.1,0,0.2,0,0.3c0,0.1,0,0.2,0,0.3c0,0.2,0,3,0,3.3h-1.1c0-0.4,0-3,0-3
			c0-0.4-0.1-0.6-0.2-0.8s-0.3-0.3-0.6-0.3c-0.2,0-0.4,0-0.5,0.1s-0.3,0.2-0.4,0.3c-0.1,0.1-0.2,0.3-0.3,0.4c0,0,0,2.9,0,3.2H312.6z
			 M318.8,330c0-0.4,0-3,0-3c0-0.4-0.1-0.6-0.2-0.8s-0.3-0.3-0.6-0.3c-0.2,0-0.4,0-0.5,0.1s-0.3,0.2-0.4,0.3
			c-0.1,0.1-0.2,0.3-0.3,0.4l-0.2-0.9h0.1c0.1-0.2,0.3-0.3,0.4-0.5c0.2-0.2,0.4-0.3,0.6-0.4c0.2-0.1,0.5-0.1,0.7-0.1
			c0.5,0,0.9,0.2,1.1,0.5s0.4,0.7,0.4,1.3c0,0.2,0,3,0,3.3H318.8z"/>
	</g>
</g>
<g>
	<circle class="st2" cx="50" cy="30.2" r="12"/>
	<g class="st1">
		<path class="st3" d="M44.7,34.1c0-0.4,0-6.7,0-7.1h4.5v1c-0.3,0-4,0-4,0l0.7-0.8c0,0.4,0,6.4,0,6.8l-0.6-0.8c0,0,3.7,0,4,0v1H44.7
			z M45.6,30.9v-1c0,0,3.2,0,3.5,0v1C48.8,30.9,45.6,30.9,45.6,30.9z"/>
		<path class="st3" d="M50.3,34.1v-0.8c0.2-0.2,1-0.8,1.2-1c0.5-0.4,0.9-0.8,1.2-1.1s0.6-0.7,0.8-1c0.2-0.3,0.3-0.6,0.3-1
			c0-0.4-0.1-0.7-0.3-0.9c-0.2-0.2-0.5-0.3-1-0.3c-0.2,0-0.3,0-0.5,0s-0.3,0.1-0.5,0.1c-0.2,0.1-0.3,0.1-0.5,0.2
			c-0.2,0.1-0.3,0.2-0.5,0.3l-0.1-1.1c0.2-0.1,0.3-0.2,0.5-0.2c0.2-0.1,0.4-0.1,0.6-0.2c0.2-0.1,0.4-0.1,0.6-0.1c0.2,0,0.4,0,0.6,0
			c0.5,0,0.9,0.1,1.2,0.2c0.3,0.2,0.6,0.4,0.8,0.7c0.2,0.3,0.3,0.7,0.3,1.1c0,0.4-0.1,0.7-0.2,1.1c-0.2,0.4-0.4,0.7-0.7,1.1
			s-0.7,0.8-1.2,1.2l-1.1,0.9l-0.2-0.2c0,0,3.2,0,3.5,0v1H50.3z"/>
	</g>
	<g>
		<circle class="st4" cx="50" cy="86.4" r="12"/>
		<g class="st1">
			<path class="st3" d="M45,90.2c0-0.4,0-6.7,0-7.1h4.5v1c-0.3,0-3.8,0-3.8,0l0.5-0.8c0,0.4,0,6.6,0,7H45z M45.9,87.1v-1
				c0,0,3.1,0,3.4,0v1C49,87.1,45.9,87.1,45.9,87.1z"/>
			<path class="st3" d="M50.4,90.2v-0.8c0.2-0.2,1-0.8,1.2-1c0.5-0.4,0.9-0.8,1.2-1.1s0.6-0.7,0.8-1c0.2-0.3,0.3-0.6,0.3-1
				c0-0.4-0.1-0.7-0.3-0.9c-0.2-0.2-0.5-0.3-1-0.3c-0.2,0-0.3,0-0.5,0s-0.3,0.1-0.5,0.1c-0.2,0.1-0.3,0.1-0.5,0.2
				c-0.2,0.1-0.3,0.2-0.5,0.3l-0.1-1.1c0.2-0.1,0.3-0.2,0.5-0.2c0.2-0.1,0.4-0.1,0.6-0.2c0.2-0.1,0.4-0.1,0.6-0.1c0.2,0,0.4,0,0.6,0
				c0.5,0,0.9,0.1,1.2,0.2c0.3,0.2,0.6,0.4,0.8,0.7c0.2,0.3,0.3,0.7,0.3,1.1c0,0.4-0.1,0.7-0.2,1.1c-0.2,0.4-0.4,0.7-0.7,1.1
				s-0.7,0.8-1.2,1.2l-1.1,0.9l-0.2-0.2c0,0,3.2,0,3.5,0v1H50.4z"/>
		</g>
	</g>
	<g>
		<circle class="st5" cx="50" cy="139.3" r="12"/>
		<g class="st1">
			<path class="st3" d="M42.2,143.2c0-0.4,0-6.7,0-7.1h4.5v1c-0.3,0-3.8,0-3.8,0l0.5-0.8c0,0.4,0,6.6,0,7H42.2z M43.1,140.1v-1
				c0,0,3.1,0,3.4,0v1C46.2,140.1,43.1,140.1,43.1,140.1z"/>
			<path class="st3" d="M47.3,141.7v-0.8c0.3,0,5.7,0,6,0v0.8C53,141.7,47.6,141.7,47.3,141.7z M47.8,138.9v-0.8c0.3,0,5.7,0,6,0
				v0.8C53.5,138.9,48.2,138.9,47.8,138.9z M48.3,143.2c0.1-0.3,1.2-6.4,1.3-6.6h0.8c0,0.2-1.2,6.3-1.3,6.6H48.3z M50.7,143.2
				c0.1-0.3,1.2-6.4,1.3-6.6h0.8c0,0.2-1.2,6.3-1.3,6.6H50.7z"/>
			<path class="st3" d="M54.5,143.2v-0.8c0.2-0.2,1-0.8,1.2-1c0.5-0.4,0.9-0.8,1.2-1.1s0.6-0.7,0.8-1c0.2-0.3,0.3-0.6,0.3-1
				c0-0.4-0.1-0.7-0.3-0.9c-0.2-0.2-0.5-0.3-1-0.3c-0.2,0-0.3,0-0.5,0s-0.3,0.1-0.5,0.1c-0.2,0.1-0.3,0.1-0.5,0.2
				c-0.2,0.1-0.3,0.2-0.5,0.3l-0.1-1.1c0.2-0.1,0.3-0.2,0.5-0.2c0.2-0.1,0.4-0.1,0.6-0.2c0.2-0.1,0.4-0.1,0.6-0.1c0.2,0,0.4,0,0.6,0
				c0.5,0,0.9,0.1,1.2,0.2c0.3,0.2,0.6,0.4,0.8,0.7c0.2,0.3,0.3,0.7,0.3,1.1c0,0.4-0.1,0.7-0.2,1.1c-0.2,0.4-0.4,0.7-0.7,1.1
				s-0.7,0.8-1.2,1.2l-1.1,0.9l-0.2-0.2c0,0,3.2,0,3.5,0v1H54.5z"/>
		</g>
	</g>
	<g>
		<circle class="st6" cx="50" cy="189.3" r="12"/>
		<g class="st1">
			<path class="st3" d="M47.6,193.3c-0.6,0-1.2-0.1-1.6-0.3c-0.5-0.2-0.9-0.4-1.2-0.8s-0.6-0.7-0.7-1.2c-0.2-0.4-0.2-0.9-0.2-1.5
				c0-0.7,0.1-1.4,0.4-1.9c0.3-0.6,0.7-1,1.3-1.3c0.5-0.3,1.2-0.5,1.9-0.5c0.2,0,0.5,0,0.7,0c0.2,0,0.5,0.1,0.7,0.1
				c0.2,0.1,0.4,0.1,0.6,0.2c0.2,0.1,0.3,0.1,0.5,0.2l-0.1,1.1c-0.3-0.2-0.5-0.3-0.8-0.4s-0.5-0.2-0.8-0.2c-0.2,0-0.5-0.1-0.7-0.1
				c-0.4,0-0.7,0.1-1,0.2c-0.3,0.1-0.6,0.3-0.8,0.5c-0.2,0.2-0.4,0.5-0.5,0.8c-0.1,0.3-0.2,0.7-0.2,1.1c0,0.4,0.1,0.7,0.2,1.1
				c0.1,0.3,0.3,0.6,0.5,0.9c0.2,0.2,0.5,0.4,0.8,0.6c0.3,0.1,0.7,0.2,1.2,0.2c0.2,0,0.4,0,0.6,0c0.2,0,0.4-0.1,0.5-0.1
				c0.2,0,0.4-0.1,0.5-0.2c0.2-0.1,0.3-0.1,0.5-0.2l0.1,1.1c-0.1,0-0.3,0.1-0.4,0.1s-0.4,0.1-0.6,0.1c-0.2,0-0.4,0.1-0.7,0.1
				C48.1,193.3,47.8,193.3,47.6,193.3z M48.9,192.9c0-0.4,0-3.1,0-3.3H50c0,0.3,0,3,0,3.3L48.9,192.9z"/>
			<path class="st3" d="M51.1,193.2v-0.8c0.2-0.2,1-0.8,1.2-1c0.5-0.4,0.9-0.8,1.2-1.1s0.6-0.7,0.8-1c0.2-0.3,0.3-0.6,0.3-1
				c0-0.4-0.1-0.7-0.3-0.9c-0.2-0.2-0.5-0.3-1-0.3c-0.2,0-0.3,0-0.5,0s-0.3,0.1-0.5,0.1c-0.2,0.1-0.3,0.1-0.5,0.2
				c-0.2,0.1-0.3,0.2-0.5,0.3l-0.1-1.1c0.2-0.1,0.3-0.2,0.5-0.2c0.2-0.1,0.4-0.1,0.6-0.2c0.2-0.1,0.4-0.1,0.6-0.1c0.2,0,0.4,0,0.6,0
				c0.5,0,0.9,0.1,1.2,0.2c0.3,0.2,0.6,0.4,0.8,0.7c0.2,0.3,0.3,0.7,0.3,1.1c0,0.4-0.1,0.7-0.2,1.1c-0.2,0.4-0.4,0.7-0.7,1.1
				s-0.7,0.8-1.2,1.2l-1.1,0.9l-0.2-0.2c0,0,3.2,0,3.5,0v1H51.1z"/>
		</g>
	</g>
	<g>
		<circle class="st7" cx="50" cy="236.5" r="12"/>
		<g class="st1">
			<path class="st3" d="M44.8,240.5c-0.6,0-1.2-0.1-1.6-0.3c-0.5-0.2-0.9-0.4-1.2-0.8s-0.6-0.7-0.7-1.2c-0.2-0.4-0.2-0.9-0.2-1.5
				c0-0.7,0.1-1.4,0.4-1.9c0.3-0.6,0.7-1,1.3-1.3c0.5-0.3,1.2-0.5,1.9-0.5c0.2,0,0.5,0,0.7,0c0.2,0,0.5,0.1,0.7,0.1
				c0.2,0.1,0.4,0.1,0.6,0.2c0.2,0.1,0.3,0.1,0.5,0.2l-0.1,1.1c-0.3-0.2-0.5-0.3-0.8-0.4s-0.5-0.2-0.8-0.2c-0.2,0-0.5-0.1-0.7-0.1
				c-0.4,0-0.7,0.1-1,0.2c-0.3,0.1-0.6,0.3-0.8,0.5c-0.2,0.2-0.4,0.5-0.5,0.8c-0.1,0.3-0.2,0.7-0.2,1.1c0,0.4,0.1,0.7,0.2,1.1
				c0.1,0.3,0.3,0.6,0.5,0.9c0.2,0.2,0.5,0.4,0.8,0.6c0.3,0.1,0.7,0.2,1.2,0.2c0.2,0,0.4,0,0.6,0c0.2,0,0.4-0.1,0.5-0.1
				c0.2,0,0.4-0.1,0.5-0.2c0.2-0.1,0.3-0.1,0.5-0.2l0.1,1.1c-0.1,0-0.3,0.1-0.4,0.1s-0.4,0.1-0.6,0.1c-0.2,0-0.4,0.1-0.7,0.1
				C45.3,240.5,45.1,240.5,44.8,240.5z M46.1,240.1c0-0.4,0-3.1,0-3.3h1.1c0,0.3,0,3,0,3.3L46.1,240.1z"/>
			<path class="st3" d="M48,238.9v-0.8c0.3,0,5.7,0,6,0v0.8C53.7,238.9,48.3,238.9,48,238.9z M48.6,236.1v-0.8c0.3,0,5.7,0,6,0v0.8
				C54.3,236.1,48.9,236.1,48.6,236.1z M49,240.4c0.1-0.3,1.2-6.4,1.3-6.6h0.8c0,0.2-1.2,6.3-1.3,6.6H49z M51.4,240.4
				c0.1-0.3,1.2-6.4,1.3-6.6h0.8c0,0.2-1.2,6.3-1.3,6.6H51.4z"/>
			<path class="st3" d="M55.2,240.4v-0.8c0.2-0.2,1-0.8,1.2-1c0.5-0.4,0.9-0.8,1.2-1.1s0.6-0.7,0.8-1c0.2-0.3,0.3-0.6,0.3-1
				c0-0.4-0.1-0.7-0.3-0.9c-0.2-0.2-0.5-0.3-1-0.3c-0.2,0-0.3,0-0.5,0s-0.3,0.1-0.5,0.1c-0.2,0.1-0.3,0.1-0.5,0.2
				c-0.2,0.1-0.3,0.2-0.5,0.3l-0.1-1.1c0.2-0.1,0.3-0.2,0.5-0.2c0.2-0.1,0.4-0.1,0.6-0.2c0.2-0.1,0.4-0.1,0.6-0.1c0.2,0,0.4,0,0.6,0
				c0.5,0,0.9,0.1,1.2,0.2c0.3,0.2,0.6,0.4,0.8,0.7c0.2,0.3,0.3,0.7,0.3,1.1c0,0.4-0.1,0.7-0.2,1.1c-0.2,0.4-0.4,0.7-0.7,1.1
				s-0.7,0.8-1.2,1.2l-1.1,0.9l-0.2-0.2c0,0,3.2,0,3.5,0v1H55.2z"/>
		</g>
	</g>
	<g>
		<circle class="st8" cx="50" cy="281.1" r="12"/>
		<g class="st1">
			<path class="st3" d="M43.9,284.9c0.1-0.4,2.4-6.8,2.5-7.1h1.5c0.1,0.4,2.3,6.8,2.5,7.1h-1.2c-0.1-0.4-2-6.1-2-6.1h-0.1
				c0,0-1.9,5.7-2,6.1H43.9z M45.3,283.2l0.1-0.9h3.5l0.1,0.9H45.3z"/>
			<path class="st3" d="M51.1,284.9v-0.8c0.2-0.2,1-0.8,1.2-1c0.5-0.4,0.9-0.8,1.2-1.1s0.6-0.7,0.8-1c0.2-0.3,0.3-0.6,0.3-1
				c0-0.4-0.1-0.7-0.3-0.9c-0.2-0.2-0.5-0.3-1-0.3c-0.2,0-0.3,0-0.5,0s-0.3,0.1-0.5,0.1c-0.2,0.1-0.3,0.1-0.5,0.2
				c-0.2,0.1-0.3,0.2-0.5,0.3l-0.1-1.1c0.2-0.1,0.3-0.2,0.5-0.2c0.2-0.1,0.4-0.1,0.6-0.2c0.2-0.1,0.4-0.1,0.6-0.1c0.2,0,0.4,0,0.6,0
				c0.5,0,0.9,0.1,1.2,0.2c0.3,0.2,0.6,0.4,0.8,0.7c0.2,0.3,0.3,0.7,0.3,1.1c0,0.4-0.1,0.7-0.2,1.1c-0.2,0.4-0.4,0.7-0.7,1.1
				s-0.7,0.8-1.2,1.2l-1.1,0.9l-0.2-0.2c0,0,3.2,0,3.5,0v1H51.1z"/>
		</g>
	</g>
	<g>
		<circle class="st9" cx="50" cy="323.1" r="12"/>
		<g class="st1">
			<path class="st3" d="M43.7,327c-0.3,0-2.2,0-2.3,0c0-0.4,0-6.7,0-7.1c0.4,0,2.2,0,2.7,0c0.4,0,0.8,0,1.1,0.1
				c0.3,0.1,0.6,0.2,0.7,0.3c0.2,0.1,0.3,0.3,0.4,0.5c0.1,0.2,0.1,0.4,0.1,0.7c0,0.3-0.1,0.6-0.2,0.8s-0.3,0.4-0.5,0.6
				c-0.2,0.1-0.4,0.3-0.7,0.3v0.1c0.3,0.1,0.5,0.1,0.7,0.3c0.2,0.1,0.4,0.3,0.5,0.5s0.2,0.5,0.2,0.9c0,0.3,0,0.6-0.1,0.8
				c-0.1,0.2-0.3,0.5-0.5,0.6c-0.2,0.2-0.5,0.3-0.9,0.4S44.3,327,43.7,327z M42.5,326h1.3c0.4,0,0.7,0,1-0.1
				c0.2-0.1,0.4-0.2,0.5-0.4c0.1-0.2,0.2-0.4,0.2-0.6c0-0.4-0.1-0.6-0.4-0.8c-0.3-0.2-0.6-0.3-1.1-0.3h-1.7v-0.9h1.6
				c0.3,0,0.6-0.1,0.8-0.2c0.2-0.1,0.4-0.2,0.5-0.4c0.1-0.2,0.1-0.4,0.1-0.6c0-0.3-0.1-0.6-0.3-0.8c-0.2-0.2-0.5-0.2-1-0.2h-1.5
				C42.5,321.1,42.5,325.8,42.5,326z"/>
			<path class="st3" d="M50.5,327.1c-0.2,0-0.4,0-0.6-0.1c-0.2-0.1-0.4-0.1-0.5-0.3c-0.2-0.1-0.3-0.3-0.4-0.4h-0.1l-0.1,0.7h-0.9
				c0-0.4,0-6.9,0-7.3l1.1-0.1c0,0.4,0,3,0,3H49c0.1-0.1,0.2-0.2,0.3-0.3s0.3-0.2,0.5-0.2s0.4-0.1,0.6-0.1c0.4,0,0.8,0.1,1.1,0.3
				c0.3,0.2,0.5,0.5,0.7,0.9c0.2,0.4,0.2,0.8,0.2,1.3c0,0.5-0.1,0.9-0.2,1.3c-0.2,0.4-0.4,0.7-0.7,1S50.9,327.1,50.5,327.1z
				 M50.1,326.2c0.3,0,0.6-0.1,0.8-0.2s0.3-0.4,0.4-0.6s0.1-0.5,0.1-0.8c0-0.3,0-0.6-0.1-0.8c-0.1-0.3-0.2-0.5-0.4-0.6
				c-0.2-0.2-0.5-0.2-0.8-0.2c-0.2,0-0.3,0-0.4,0.1c-0.1,0-0.3,0.1-0.4,0.2c-0.1,0.1-0.2,0.2-0.3,0.3v2c0.1,0.1,0.2,0.3,0.3,0.4
				c0.1,0.1,0.2,0.2,0.4,0.2C49.7,326.1,49.9,326.2,50.1,326.2z"/>
			<path class="st3" d="M53.5,327v-0.8c0.2-0.2,1-0.8,1.2-1c0.5-0.4,0.9-0.8,1.2-1.1s0.6-0.7,0.8-1c0.2-0.3,0.3-0.6,0.3-1
				c0-0.4-0.1-0.7-0.3-0.9c-0.2-0.2-0.5-0.3-1-0.3c-0.2,0-0.3,0-0.5,0s-0.3,0.1-0.5,0.1c-0.2,0.1-0.3,0.1-0.5,0.2
				c-0.2,0.1-0.3,0.2-0.5,0.3l-0.1-1.1c0.2-0.1,0.3-0.2,0.5-0.2c0.2-0.1,0.4-0.1,0.6-0.2c0.2-0.1,0.4-0.1,0.6-0.1c0.2,0,0.4,0,0.6,0
				c0.5,0,0.9,0.1,1.2,0.2c0.3,0.2,0.6,0.4,0.8,0.7c0.2,0.3,0.3,0.7,0.3,1.1c0,0.4-0.1,0.7-0.2,1.1c-0.2,0.4-0.4,0.7-0.7,1.1
				s-0.7,0.8-1.2,1.2l-1.1,0.9l-0.2-0.2c0,0,3.2,0,3.5,0v1H53.5z"/>
		</g>
	</g>
</g>
<g>
	<circle class="st8" cx="90" cy="30.2" r="12"/>
	<g class="st1">
		<path class="st3" d="M83.9,34.1c0.1-0.4,2.4-6.8,2.5-7.1h1.5c0.1,0.4,2.3,6.8,2.5,7.1h-1.2c-0.1-0.4-2-6.1-2-6.1h-0.1
			c0,0-1.9,5.7-2,6.1H83.9z M85.3,32.4l0.1-0.9h3.5l0.1,0.9H85.3z"/>
		<path class="st3" d="M91.1,34.1v-0.8c0.2-0.2,1-0.8,1.2-1c0.5-0.4,0.9-0.8,1.2-1.1s0.6-0.7,0.8-1c0.2-0.3,0.3-0.6,0.3-1
			c0-0.4-0.1-0.7-0.3-0.9c-0.2-0.2-0.5-0.3-1-0.3c-0.2,0-0.3,0-0.5,0s-0.3,0.1-0.5,0.1c-0.2,0.1-0.3,0.1-0.5,0.2
			c-0.2,0.1-0.3,0.2-0.5,0.3L91,27.7c0.2-0.1,0.3-0.2,0.5-0.2c0.2-0.1,0.4-0.1,0.6-0.2c0.2-0.1,0.4-0.1,0.6-0.1c0.2,0,0.4,0,0.6,0
			c0.5,0,0.9,0.1,1.2,0.2c0.3,0.2,0.6,0.4,0.8,0.7c0.2,0.3,0.3,0.7,0.3,1.1c0,0.4-0.1,0.7-0.2,1.1c-0.2,0.4-0.4,0.7-0.7,1.1
			s-0.7,0.8-1.2,1.2l-1.1,0.9l-0.2-0.2c0,0,3.2,0,3.5,0v1H91.1z"/>
	</g>
	<g>
		<circle class="st9" cx="90" cy="86.4" r="12"/>
		<g class="st1">
			<path class="st3" d="M83.7,90.2c-0.3,0-2.2,0-2.3,0c0-0.4,0-6.7,0-7.1c0.4,0,2.2,0,2.7,0c0.4,0,0.8,0,1.1,0.1
				c0.3,0.1,0.6,0.2,0.7,0.3c0.2,0.1,0.3,0.3,0.4,0.5c0.1,0.2,0.1,0.4,0.1,0.7c0,0.3-0.1,0.6-0.2,0.8s-0.3,0.4-0.5,0.6
				c-0.2,0.1-0.4,0.3-0.7,0.3v0.1c0.3,0.1,0.5,0.1,0.7,0.3c0.2,0.1,0.4,0.3,0.5,0.5s0.2,0.5,0.2,0.9c0,0.3,0,0.6-0.1,0.8
				c-0.1,0.2-0.3,0.5-0.5,0.6c-0.2,0.2-0.5,0.3-0.9,0.4S84.3,90.2,83.7,90.2z M82.5,89.2h1.3c0.4,0,0.7,0,1-0.1
				c0.2-0.1,0.4-0.2,0.5-0.4c0.1-0.2,0.2-0.4,0.2-0.6c0-0.4-0.1-0.6-0.4-0.8c-0.3-0.2-0.6-0.3-1.1-0.3h-1.7v-0.9h1.6
				c0.3,0,0.6-0.1,0.8-0.2c0.2-0.1,0.4-0.2,0.5-0.4c0.1-0.2,0.1-0.4,0.1-0.6c0-0.3-0.1-0.6-0.3-0.8c-0.2-0.2-0.5-0.2-1-0.2h-1.5
				C82.5,84.3,82.5,89,82.5,89.2z"/>
			<path class="st3" d="M90.5,90.3c-0.2,0-0.4,0-0.6-0.1c-0.2-0.1-0.4-0.1-0.5-0.3c-0.2-0.1-0.3-0.3-0.4-0.4h-0.1l-0.1,0.7h-0.9
				c0-0.4,0-6.9,0-7.3l1.1-0.1c0,0.4,0,3,0,3H89c0.1-0.1,0.2-0.2,0.3-0.3s0.3-0.2,0.5-0.2s0.4-0.1,0.6-0.1c0.4,0,0.8,0.1,1.1,0.3
				c0.3,0.2,0.5,0.5,0.7,0.9c0.2,0.4,0.2,0.8,0.2,1.3c0,0.5-0.1,0.9-0.2,1.3c-0.2,0.4-0.4,0.7-0.7,1S90.9,90.3,90.5,90.3z
				 M90.1,89.4c0.3,0,0.6-0.1,0.8-0.2s0.3-0.4,0.4-0.6s0.1-0.5,0.1-0.8c0-0.3,0-0.6-0.1-0.8c-0.1-0.3-0.2-0.5-0.4-0.6
				c-0.2-0.2-0.5-0.2-0.8-0.2c-0.2,0-0.3,0-0.4,0.1c-0.1,0-0.3,0.1-0.4,0.2c-0.1,0.1-0.2,0.2-0.3,0.3v2c0.1,0.1,0.2,0.3,0.3,0.4
				c0.1,0.1,0.2,0.2,0.4,0.2C89.7,89.4,89.9,89.4,90.1,89.4z"/>
			<path class="st3" d="M93.5,90.2v-0.8c0.2-0.2,1-0.8,1.2-1c0.5-0.4,0.9-0.8,1.2-1.1s0.6-0.7,0.8-1c0.2-0.3,0.3-0.6,0.3-1
				c0-0.4-0.1-0.7-0.3-0.9c-0.2-0.2-0.5-0.3-1-0.3c-0.2,0-0.3,0-0.5,0s-0.3,0.1-0.5,0.1c-0.2,0.1-0.3,0.1-0.5,0.2
				c-0.2,0.1-0.3,0.2-0.5,0.3l-0.1-1.1c0.2-0.1,0.3-0.2,0.5-0.2c0.2-0.1,0.4-0.1,0.6-0.2c0.2-0.1,0.4-0.1,0.6-0.1c0.2,0,0.4,0,0.6,0
				c0.5,0,0.9,0.1,1.2,0.2c0.3,0.2,0.6,0.4,0.8,0.7c0.2,0.3,0.3,0.7,0.3,1.1c0,0.4-0.1,0.7-0.2,1.1c-0.2,0.4-0.4,0.7-0.7,1.1
				s-0.7,0.8-1.2,1.2l-1.1,0.9l-0.2-0.2c0,0,3.2,0,3.5,0v1H93.5z"/>
		</g>
	</g>
	<g>
		<circle class="st10" cx="90" cy="139.3" r="12"/>
		<g class="st1">
			<path class="st3" d="M86.8,143.2c-0.3,0-2.2,0-2.3,0c0-0.4,0-6.7,0-7.1c0.4,0,2.2,0,2.7,0c0.4,0,0.8,0,1.1,0.1
				c0.3,0.1,0.6,0.2,0.7,0.3c0.2,0.1,0.3,0.3,0.4,0.5c0.1,0.2,0.1,0.4,0.1,0.7c0,0.3-0.1,0.6-0.2,0.8s-0.3,0.4-0.5,0.6
				c-0.2,0.1-0.4,0.3-0.7,0.3v0.1c0.3,0.1,0.5,0.1,0.7,0.3c0.2,0.1,0.4,0.3,0.5,0.5s0.2,0.5,0.2,0.9c0,0.3,0,0.6-0.1,0.8
				c-0.1,0.2-0.3,0.5-0.5,0.6c-0.2,0.2-0.5,0.3-0.9,0.4S87.4,143.2,86.8,143.2z M85.6,142.2h1.3c0.4,0,0.7,0,1-0.1
				c0.2-0.1,0.4-0.2,0.5-0.4c0.1-0.2,0.2-0.4,0.2-0.6c0-0.4-0.1-0.6-0.4-0.8c-0.3-0.2-0.6-0.3-1.1-0.3h-1.7v-0.9H87
				c0.3,0,0.6-0.1,0.8-0.2c0.2-0.1,0.4-0.2,0.5-0.4c0.1-0.2,0.1-0.4,0.1-0.6c0-0.3-0.1-0.6-0.3-0.8c-0.2-0.2-0.5-0.2-1-0.2h-1.5
				C85.6,137.3,85.6,142,85.6,142.2z"/>
			<path class="st3" d="M90.6,143.2v-0.8c0.2-0.2,1-0.8,1.2-1c0.5-0.4,0.9-0.8,1.2-1.1s0.6-0.7,0.8-1c0.2-0.3,0.3-0.6,0.3-1
				c0-0.4-0.1-0.7-0.3-0.9c-0.2-0.2-0.5-0.3-1-0.3c-0.2,0-0.3,0-0.5,0s-0.3,0.1-0.5,0.1c-0.2,0.1-0.3,0.1-0.5,0.2
				c-0.2,0.1-0.3,0.2-0.5,0.3l-0.1-1.1c0.2-0.1,0.3-0.2,0.5-0.2c0.2-0.1,0.4-0.1,0.6-0.2c0.2-0.1,0.4-0.1,0.6-0.1c0.2,0,0.4,0,0.6,0
				c0.5,0,0.9,0.1,1.2,0.2c0.3,0.2,0.6,0.4,0.8,0.7c0.2,0.3,0.3,0.7,0.3,1.1c0,0.4-0.1,0.7-0.2,1.1c-0.2,0.4-0.4,0.7-0.7,1.1
				s-0.7,0.8-1.2,1.2l-1.1,0.9l-0.2-0.2c0,0,3.2,0,3.5,0v1H90.6z"/>
		</g>
	</g>
	<g>
		<circle class="st11" cx="90" cy="189.3" r="12"/>
		<g class="st1">
			<path class="st3" d="M87.8,193.3c-0.6,0-1.1-0.1-1.5-0.3s-0.8-0.4-1.2-0.8c-0.3-0.3-0.6-0.7-0.7-1.2s-0.3-0.9-0.3-1.5
				c0-0.7,0.1-1.4,0.4-1.9c0.3-0.6,0.7-1,1.2-1.3c0.5-0.3,1.2-0.5,1.9-0.5c0.2,0,0.5,0,0.7,0c0.2,0,0.4,0.1,0.6,0.1
				c0.2,0.1,0.4,0.1,0.6,0.2c0.2,0.1,0.3,0.1,0.5,0.2l-0.1,1.1c-0.3-0.2-0.5-0.3-0.8-0.4c-0.2-0.1-0.5-0.2-0.7-0.2s-0.5-0.1-0.7-0.1
				c-0.5,0-0.9,0.1-1.3,0.3c-0.4,0.2-0.7,0.5-0.9,0.9c-0.2,0.4-0.3,0.9-0.3,1.4c0,0.4,0.1,0.7,0.2,1c0.1,0.3,0.3,0.6,0.5,0.9
				c0.2,0.2,0.5,0.4,0.8,0.6c0.3,0.1,0.7,0.2,1.1,0.2c0.2,0,0.3,0,0.5,0s0.3-0.1,0.5-0.1s0.3-0.1,0.5-0.2c0.2-0.1,0.3-0.2,0.5-0.3
				l0.1,1.1c-0.1,0.1-0.3,0.2-0.5,0.2c-0.2,0.1-0.3,0.1-0.5,0.2s-0.4,0.1-0.6,0.1C88.2,193.3,88,193.3,87.8,193.3z"/>
			<path class="st3" d="M93.2,193.3c-0.2,0-0.4,0-0.7,0s-0.4-0.1-0.6-0.1c-0.2,0-0.4-0.1-0.6-0.2c-0.2-0.1-0.3-0.1-0.5-0.2l0.1-1
				c0.2,0.1,0.4,0.2,0.5,0.3c0.2,0.1,0.4,0.1,0.6,0.2c0.2,0.1,0.4,0.1,0.5,0.1c0.2,0,0.3,0,0.5,0c0.5,0,0.9-0.1,1.1-0.3
				c0.2-0.2,0.3-0.5,0.3-0.8c0-0.4-0.2-0.7-0.5-0.9s-0.7-0.3-1.3-0.3c-0.1,0-0.6,0-0.7,0v-0.9c0.1,0,0.5,0,0.7,0
				c0.4,0,0.7,0,0.9-0.1c0.2-0.1,0.4-0.2,0.5-0.4c0.1-0.2,0.2-0.4,0.2-0.6c0-0.3-0.1-0.6-0.4-0.7c-0.2-0.2-0.5-0.2-0.9-0.2
				c-0.2,0-0.3,0-0.5,0c-0.2,0-0.3,0.1-0.5,0.1s-0.3,0.1-0.5,0.2c-0.2,0.1-0.3,0.2-0.5,0.3l-0.1-1c0.1-0.1,0.3-0.2,0.5-0.2
				s0.4-0.1,0.6-0.2c0.2-0.1,0.4-0.1,0.6-0.1c0.2,0,0.4,0,0.6,0c0.5,0,0.9,0.1,1.2,0.2c0.3,0.1,0.6,0.3,0.8,0.6s0.3,0.6,0.3,0.9
				c0,0.3-0.1,0.5-0.2,0.8c-0.1,0.2-0.3,0.4-0.5,0.5s-0.4,0.2-0.6,0.3v0.1c0.2,0,0.4,0.1,0.5,0.2c0.2,0.1,0.3,0.2,0.5,0.3
				c0.1,0.1,0.3,0.3,0.4,0.5c0.1,0.2,0.1,0.4,0.1,0.7c0,0.4-0.1,0.7-0.3,1s-0.5,0.5-0.8,0.7C94.3,193.2,93.8,193.3,93.2,193.3z"/>
		</g>
	</g>
	<g>
		<circle class="st12" cx="90" cy="236.5" r="12"/>
		<g class="st1">
			<path class="st3" d="M85,240.5c-0.6,0-1.1-0.1-1.5-0.3s-0.8-0.4-1.2-0.8c-0.3-0.3-0.6-0.7-0.7-1.2s-0.3-0.9-0.3-1.5
				c0-0.7,0.1-1.4,0.4-1.9c0.3-0.6,0.7-1,1.2-1.3c0.5-0.3,1.2-0.5,1.9-0.5c0.2,0,0.5,0,0.7,0c0.2,0,0.4,0.1,0.6,0.1
				c0.2,0.1,0.4,0.1,0.6,0.2c0.2,0.1,0.3,0.1,0.5,0.2l-0.1,1.1c-0.3-0.2-0.5-0.3-0.8-0.4c-0.2-0.1-0.5-0.2-0.7-0.2s-0.5-0.1-0.7-0.1
				c-0.5,0-0.9,0.1-1.3,0.3c-0.4,0.2-0.7,0.5-0.9,0.9c-0.2,0.4-0.3,0.9-0.3,1.4c0,0.4,0.1,0.7,0.2,1c0.1,0.3,0.3,0.6,0.5,0.9
				c0.2,0.2,0.5,0.4,0.8,0.6c0.3,0.1,0.7,0.2,1.1,0.2c0.2,0,0.3,0,0.5,0s0.3-0.1,0.5-0.1s0.3-0.1,0.5-0.2c0.2-0.1,0.3-0.2,0.5-0.3
				l0.1,1.1c-0.1,0.1-0.3,0.2-0.5,0.2c-0.2,0.1-0.3,0.1-0.5,0.2s-0.4,0.1-0.6,0.1C85.4,240.5,85.2,240.5,85,240.5z"/>
			<path class="st3" d="M87.8,238.9v-0.8c0.3,0,5.7,0,6,0v0.8C93.5,238.9,88.2,238.9,87.8,238.9z M88.4,236.1v-0.8c0.3,0,5.7,0,6,0
				v0.8C94.1,236.1,88.7,236.1,88.4,236.1z M88.8,240.4c0.1-0.3,1.2-6.4,1.3-6.6h0.8c0,0.2-1.2,6.3-1.3,6.6H88.8z M91.2,240.4
				c0.1-0.3,1.2-6.4,1.3-6.6h0.8c0,0.2-1.2,6.3-1.3,6.6H91.2z"/>
			<path class="st3" d="M97.3,240.5c-0.2,0-0.4,0-0.7,0s-0.4-0.1-0.6-0.1c-0.2,0-0.4-0.1-0.6-0.2c-0.2-0.1-0.3-0.1-0.5-0.2l0.1-1
				c0.2,0.1,0.4,0.2,0.5,0.3c0.2,0.1,0.4,0.1,0.6,0.2c0.2,0.1,0.4,0.1,0.5,0.1c0.2,0,0.3,0,0.5,0c0.5,0,0.9-0.1,1.1-0.3
				c0.2-0.2,0.3-0.5,0.3-0.8c0-0.4-0.2-0.7-0.5-0.9s-0.7-0.3-1.3-0.3c-0.1,0-0.6,0-0.7,0v-0.9c0.1,0,0.5,0,0.7,0
				c0.4,0,0.7,0,0.9-0.1c0.2-0.1,0.4-0.2,0.5-0.4c0.1-0.2,0.2-0.4,0.2-0.6c0-0.3-0.1-0.6-0.4-0.7c-0.2-0.2-0.5-0.2-0.9-0.2
				c-0.2,0-0.3,0-0.5,0c-0.2,0-0.3,0.1-0.5,0.1s-0.3,0.1-0.5,0.2c-0.2,0.1-0.3,0.2-0.5,0.3l-0.1-1c0.1-0.1,0.3-0.2,0.5-0.2
				s0.4-0.1,0.6-0.2c0.2-0.1,0.4-0.1,0.6-0.1c0.2,0,0.4,0,0.6,0c0.5,0,0.9,0.1,1.2,0.2c0.3,0.1,0.6,0.3,0.8,0.6s0.3,0.6,0.3,0.9
				c0,0.3-0.1,0.5-0.2,0.8c-0.1,0.2-0.3,0.4-0.5,0.5s-0.4,0.2-0.6,0.3v0.1c0.2,0,0.4,0.1,0.5,0.2c0.2,0.1,0.3,0.2,0.5,0.3
				c0.1,0.1,0.3,0.3,0.4,0.5c0.1,0.2,0.1,0.4,0.1,0.7c0,0.4-0.1,0.7-0.3,1s-0.5,0.5-0.8,0.7C98.4,240.4,97.9,240.5,97.3,240.5z"/>
		</g>
	</g>
	<g>
		<circle class="st13" cx="90" cy="281.1" r="12"/>
		<g class="st1">
			<path class="st3" d="M84.5,284.9c0-0.4,0-6.7,0-7.1c0.3,0,2.3,0,2.6,0c0.5,0,1,0.1,1.5,0.2c0.4,0.2,0.8,0.4,1.1,0.7
				c0.3,0.3,0.5,0.7,0.7,1.1c0.2,0.4,0.2,0.9,0.2,1.5c0,0.5-0.1,1-0.2,1.4c-0.1,0.4-0.3,0.8-0.6,1.1c-0.3,0.3-0.7,0.6-1.2,0.8
				c-0.5,0.2-1.1,0.3-1.7,0.3C86.5,284.9,84.7,284.9,84.5,284.9z M85.6,284h1.1c0.6,0,1.1-0.1,1.5-0.3c0.4-0.2,0.6-0.5,0.8-0.9
				s0.2-0.9,0.2-1.4c0-0.4,0-0.7-0.1-1.1c-0.1-0.3-0.2-0.6-0.4-0.8c-0.2-0.2-0.4-0.4-0.8-0.5s-0.7-0.2-1.1-0.2h-1.2
				C85.6,279,85.6,283.7,85.6,284z"/>
			<path class="st3" d="M93.7,285c-0.2,0-0.4,0-0.7,0s-0.4-0.1-0.6-0.1c-0.2,0-0.4-0.1-0.6-0.2c-0.2-0.1-0.3-0.1-0.5-0.2l0.1-1
				c0.2,0.1,0.4,0.2,0.5,0.3c0.2,0.1,0.4,0.1,0.6,0.2c0.2,0.1,0.4,0.1,0.5,0.1c0.2,0,0.3,0,0.5,0c0.5,0,0.9-0.1,1.1-0.3
				c0.2-0.2,0.3-0.5,0.3-0.8c0-0.4-0.2-0.7-0.5-0.9s-0.7-0.3-1.3-0.3c-0.1,0-0.6,0-0.7,0v-0.9c0.1,0,0.5,0,0.7,0
				c0.4,0,0.7,0,0.9-0.1c0.2-0.1,0.4-0.2,0.5-0.4c0.1-0.2,0.2-0.4,0.2-0.6c0-0.3-0.1-0.6-0.4-0.7c-0.2-0.2-0.5-0.2-0.9-0.2
				c-0.2,0-0.3,0-0.5,0c-0.2,0-0.3,0.1-0.5,0.1s-0.3,0.1-0.5,0.2c-0.2,0.1-0.3,0.2-0.5,0.3l-0.1-1c0.1-0.1,0.3-0.2,0.5-0.2
				s0.4-0.1,0.6-0.2c0.2-0.1,0.4-0.1,0.6-0.1c0.2,0,0.4,0,0.6,0c0.5,0,0.9,0.1,1.2,0.2c0.3,0.1,0.6,0.3,0.8,0.6s0.3,0.6,0.3,0.9
				c0,0.3-0.1,0.5-0.2,0.8c-0.1,0.2-0.3,0.4-0.5,0.5s-0.4,0.2-0.6,0.3v0.1c0.2,0,0.4,0.1,0.5,0.2c0.2,0.1,0.3,0.2,0.5,0.3
				c0.1,0.1,0.3,0.3,0.4,0.5c0.1,0.2,0.1,0.4,0.1,0.7c0,0.4-0.1,0.7-0.3,1s-0.5,0.5-0.8,0.7C94.8,285,94.3,285,93.7,285z"/>
		</g>
	</g>
	<g>
		<circle class="st14" cx="90" cy="323.1" r="12"/>
		<g class="st1">
			<path class="st3" d="M81.7,327c0-0.4,0-6.7,0-7.1h4.5v1c-0.3,0-4,0-4,0l0.7-0.8c0,0.4,0,6.4,0,6.8l-0.6-0.8c0,0,3.7,0,4,0v1H81.7
				z M82.6,323.8v-1c0,0,3.2,0,3.5,0v1C85.7,323.8,82.6,323.8,82.6,323.8z"/>
			<path class="st3" d="M90.2,327.1c-0.2,0-0.4,0-0.6-0.1c-0.2-0.1-0.4-0.1-0.5-0.3c-0.2-0.1-0.3-0.3-0.4-0.4h-0.1l-0.1,0.7h-0.9
				c0-0.4,0-6.9,0-7.3l1.1-0.1c0,0.4,0,3,0,3h0.1c0.1-0.1,0.2-0.2,0.3-0.3s0.3-0.2,0.5-0.2s0.4-0.1,0.6-0.1c0.4,0,0.8,0.1,1.1,0.3
				c0.3,0.2,0.5,0.5,0.7,0.9c0.2,0.4,0.2,0.8,0.2,1.3c0,0.5-0.1,0.9-0.2,1.3c-0.2,0.4-0.4,0.7-0.7,1S90.6,327.1,90.2,327.1z
				 M89.8,326.2c0.3,0,0.6-0.1,0.8-0.2s0.3-0.4,0.4-0.6s0.1-0.5,0.1-0.8c0-0.3,0-0.6-0.1-0.8c-0.1-0.3-0.2-0.5-0.4-0.6
				c-0.2-0.2-0.5-0.2-0.8-0.2c-0.2,0-0.3,0-0.4,0.1c-0.1,0-0.3,0.1-0.4,0.2c-0.1,0.1-0.2,0.2-0.3,0.3v2c0.1,0.1,0.2,0.3,0.3,0.4
				c0.1,0.1,0.2,0.2,0.4,0.2C89.5,326.1,89.6,326.2,89.8,326.2z"/>
			<path class="st3" d="M95.5,327.1c-0.2,0-0.4,0-0.7,0s-0.4-0.1-0.6-0.1c-0.2,0-0.4-0.1-0.6-0.2c-0.2-0.1-0.3-0.1-0.5-0.2l0.1-1
				c0.2,0.1,0.4,0.2,0.5,0.3c0.2,0.1,0.4,0.1,0.6,0.2c0.2,0.1,0.4,0.1,0.5,0.1c0.2,0,0.3,0,0.5,0c0.5,0,0.9-0.1,1.1-0.3
				c0.2-0.2,0.3-0.5,0.3-0.8c0-0.4-0.2-0.7-0.5-0.9s-0.7-0.3-1.3-0.3c-0.1,0-0.6,0-0.7,0V323c0.1,0,0.5,0,0.7,0c0.4,0,0.7,0,0.9-0.1
				c0.2-0.1,0.4-0.2,0.5-0.4c0.1-0.2,0.2-0.4,0.2-0.6c0-0.3-0.1-0.6-0.4-0.7c-0.2-0.2-0.5-0.2-0.9-0.2c-0.2,0-0.3,0-0.5,0
				c-0.2,0-0.3,0.1-0.5,0.1s-0.3,0.1-0.5,0.2c-0.2,0.1-0.3,0.2-0.5,0.3l-0.1-1c0.1-0.1,0.3-0.2,0.5-0.2s0.4-0.1,0.6-0.2
				c0.2-0.1,0.4-0.1,0.6-0.1c0.2,0,0.4,0,0.6,0c0.5,0,0.9,0.1,1.2,0.2c0.3,0.1,0.6,0.3,0.8,0.6s0.3,0.6,0.3,0.9
				c0,0.3-0.1,0.5-0.2,0.8c-0.1,0.2-0.3,0.4-0.5,0.5s-0.4,0.2-0.6,0.3v0.1c0.2,0,0.4,0.1,0.5,0.2c0.2,0.1,0.3,0.2,0.5,0.3
				c0.1,0.1,0.3,0.3,0.4,0.5c0.1,0.2,0.1,0.4,0.1,0.7c0,0.4-0.1,0.7-0.3,1s-0.5,0.5-0.8,0.7C96.5,327,96,327.1,95.5,327.1z"/>
		</g>
	</g>
</g>
<g>
	<circle class="st13" cx="130" cy="30.2" r="12"/>
	<g class="st1">
		<path class="st3" d="M124.5,34.1c0-0.4,0-6.7,0-7.1c0.3,0,2.3,0,2.6,0c0.5,0,1,0.1,1.5,0.2c0.4,0.2,0.8,0.4,1.1,0.7
			c0.3,0.3,0.5,0.7,0.7,1.1c0.2,0.4,0.2,0.9,0.2,1.5c0,0.5-0.1,1-0.2,1.4c-0.1,0.4-0.3,0.8-0.6,1.1c-0.3,0.3-0.7,0.6-1.2,0.8
			c-0.5,0.2-1.1,0.3-1.7,0.3C126.5,34.1,124.7,34.1,124.5,34.1z M125.6,33.1h1.1c0.6,0,1.1-0.1,1.5-0.3c0.4-0.2,0.6-0.5,0.8-0.9
			s0.2-0.9,0.2-1.4c0-0.4,0-0.7-0.1-1.1c-0.1-0.3-0.2-0.6-0.4-0.8c-0.2-0.2-0.4-0.4-0.8-0.5s-0.7-0.2-1.1-0.2h-1.2
			C125.6,28.2,125.6,32.9,125.6,33.1z"/>
		<path class="st3" d="M133.7,34.2c-0.2,0-0.4,0-0.7,0s-0.4-0.1-0.6-0.1c-0.2,0-0.4-0.1-0.6-0.2c-0.2-0.1-0.3-0.1-0.5-0.2l0.1-1
			c0.2,0.1,0.4,0.2,0.5,0.3c0.2,0.1,0.4,0.1,0.6,0.2c0.2,0.1,0.4,0.1,0.5,0.1c0.2,0,0.3,0,0.5,0c0.5,0,0.9-0.1,1.1-0.3
			c0.2-0.2,0.3-0.5,0.3-0.8c0-0.4-0.2-0.7-0.5-0.9s-0.7-0.3-1.3-0.3c-0.1,0-0.6,0-0.7,0v-0.9c0.1,0,0.5,0,0.7,0c0.4,0,0.7,0,0.9-0.1
			c0.2-0.1,0.4-0.2,0.5-0.4c0.1-0.2,0.2-0.4,0.2-0.6c0-0.3-0.1-0.6-0.4-0.7c-0.2-0.2-0.5-0.2-0.9-0.2c-0.2,0-0.3,0-0.5,0
			c-0.2,0-0.3,0.1-0.5,0.1s-0.3,0.1-0.5,0.2c-0.2,0.1-0.3,0.2-0.5,0.3l-0.1-1c0.1-0.1,0.3-0.2,0.5-0.2s0.4-0.1,0.6-0.2
			c0.2-0.1,0.4-0.1,0.6-0.1c0.2,0,0.4,0,0.6,0c0.5,0,0.9,0.1,1.2,0.2c0.3,0.1,0.6,0.3,0.8,0.6s0.3,0.6,0.3,0.9
			c0,0.3-0.1,0.5-0.2,0.8c-0.1,0.2-0.3,0.4-0.5,0.5s-0.4,0.2-0.6,0.3v0.1c0.2,0,0.4,0.1,0.5,0.2c0.2,0.1,0.3,0.2,0.5,0.3
			c0.1,0.1,0.3,0.3,0.4,0.5c0.1,0.2,0.1,0.4,0.1,0.7c0,0.4-0.1,0.7-0.3,1s-0.5,0.5-0.8,0.7C134.8,34.1,134.3,34.2,133.7,34.2z"/>
	</g>
	<g>
		<circle class="st14" cx="130" cy="86.4" r="12"/>
		<g class="st1">
			<path class="st3" d="M121.7,90.2c0-0.4,0-6.7,0-7.1h4.5v1c-0.3,0-4,0-4,0l0.7-0.8c0,0.4,0,6.4,0,6.8l-0.6-0.8c0,0,3.7,0,4,0v1
				H121.7z M122.6,87.1v-1c0,0,3.2,0,3.5,0v1C125.7,87.1,122.6,87.1,122.6,87.1z"/>
			<path class="st3" d="M130.2,90.3c-0.2,0-0.4,0-0.6-0.1c-0.2-0.1-0.4-0.1-0.5-0.3c-0.2-0.1-0.3-0.3-0.4-0.4h-0.1l-0.1,0.7h-0.9
				c0-0.4,0-6.9,0-7.3l1.1-0.1c0,0.4,0,3,0,3h0.1c0.1-0.1,0.2-0.2,0.3-0.3s0.3-0.2,0.5-0.2s0.4-0.1,0.6-0.1c0.4,0,0.8,0.1,1.1,0.3
				c0.3,0.2,0.5,0.5,0.7,0.9c0.2,0.4,0.2,0.8,0.2,1.3c0,0.5-0.1,0.9-0.2,1.3c-0.2,0.4-0.4,0.7-0.7,1S130.6,90.3,130.2,90.3z
				 M129.8,89.4c0.3,0,0.6-0.1,0.8-0.2s0.3-0.4,0.4-0.6s0.1-0.5,0.1-0.8c0-0.3,0-0.6-0.1-0.8c-0.1-0.3-0.2-0.5-0.4-0.6
				c-0.2-0.2-0.5-0.2-0.8-0.2c-0.2,0-0.3,0-0.4,0.1c-0.1,0-0.3,0.1-0.4,0.2c-0.1,0.1-0.2,0.2-0.3,0.3v2c0.1,0.1,0.2,0.3,0.3,0.4
				c0.1,0.1,0.2,0.2,0.4,0.2C129.5,89.4,129.6,89.4,129.8,89.4z"/>
			<path class="st3" d="M135.5,90.3c-0.2,0-0.4,0-0.7,0s-0.4-0.1-0.6-0.1c-0.2,0-0.4-0.1-0.6-0.2c-0.2-0.1-0.3-0.1-0.5-0.2l0.1-1
				c0.2,0.1,0.4,0.2,0.5,0.3c0.2,0.1,0.4,0.1,0.6,0.2c0.2,0.1,0.4,0.1,0.5,0.1c0.2,0,0.3,0,0.5,0c0.5,0,0.9-0.1,1.1-0.3
				c0.2-0.2,0.3-0.5,0.3-0.8c0-0.4-0.2-0.7-0.5-0.9s-0.7-0.3-1.3-0.3c-0.1,0-0.6,0-0.7,0v-0.9c0.1,0,0.5,0,0.7,0
				c0.4,0,0.7,0,0.9-0.1c0.2-0.1,0.4-0.2,0.5-0.4c0.1-0.2,0.2-0.4,0.2-0.6c0-0.3-0.1-0.6-0.4-0.7c-0.2-0.2-0.5-0.2-0.9-0.2
				c-0.2,0-0.3,0-0.5,0c-0.2,0-0.3,0.1-0.5,0.1s-0.3,0.1-0.5,0.2c-0.2,0.1-0.3,0.2-0.5,0.3l-0.1-1c0.1-0.1,0.3-0.2,0.5-0.2
				s0.4-0.1,0.6-0.2c0.2-0.1,0.4-0.1,0.6-0.1c0.2,0,0.4,0,0.6,0c0.5,0,0.9,0.1,1.2,0.2c0.3,0.1,0.6,0.3,0.8,0.6s0.3,0.6,0.3,0.9
				c0,0.3-0.1,0.5-0.2,0.8c-0.1,0.2-0.3,0.4-0.5,0.5s-0.4,0.2-0.6,0.3v0.1c0.2,0,0.4,0.1,0.5,0.2c0.2,0.1,0.3,0.2,0.5,0.3
				c0.1,0.1,0.3,0.3,0.4,0.5c0.1,0.2,0.1,0.4,0.1,0.7c0,0.4-0.1,0.7-0.3,1s-0.5,0.5-0.8,0.7C136.5,90.2,136,90.3,135.5,90.3z"/>
		</g>
	</g>
	<g>
		<circle class="st2" cx="130" cy="139.3" r="12"/>
		<g class="st1">
			<path class="st3" d="M124.7,143.2c0-0.4,0-6.7,0-7.1h4.5v1c-0.3,0-4,0-4,0l0.7-0.8c0,0.4,0,6.4,0,6.8l-0.6-0.8c0,0,3.7,0,4,0v1
				H124.7z M125.6,140v-1c0,0,3.2,0,3.5,0v1C128.8,140,125.6,140,125.6,140z"/>
			<path class="st3" d="M132.6,143.3c-0.2,0-0.4,0-0.7,0s-0.4-0.1-0.6-0.1c-0.2,0-0.4-0.1-0.6-0.2c-0.2-0.1-0.3-0.1-0.5-0.2l0.1-1
				c0.2,0.1,0.4,0.2,0.5,0.3c0.2,0.1,0.4,0.1,0.6,0.2c0.2,0.1,0.4,0.1,0.5,0.1c0.2,0,0.3,0,0.5,0c0.5,0,0.9-0.1,1.1-0.3
				c0.2-0.2,0.3-0.5,0.3-0.8c0-0.4-0.2-0.7-0.5-0.9s-0.7-0.3-1.3-0.3c-0.1,0-0.6,0-0.7,0v-0.9c0.1,0,0.5,0,0.7,0
				c0.4,0,0.7,0,0.9-0.1c0.2-0.1,0.4-0.2,0.5-0.4c0.1-0.2,0.2-0.4,0.2-0.6c0-0.3-0.1-0.6-0.4-0.7c-0.2-0.2-0.5-0.2-0.9-0.2
				c-0.2,0-0.3,0-0.5,0c-0.2,0-0.3,0.1-0.5,0.1s-0.3,0.1-0.5,0.2c-0.2,0.1-0.3,0.2-0.5,0.3l-0.1-1c0.1-0.1,0.3-0.2,0.5-0.2
				s0.4-0.1,0.6-0.2c0.2-0.1,0.4-0.1,0.6-0.1c0.2,0,0.4,0,0.6,0c0.5,0,0.9,0.1,1.2,0.2c0.3,0.1,0.6,0.3,0.8,0.6s0.3,0.6,0.3,0.9
				c0,0.3-0.1,0.5-0.2,0.8c-0.1,0.2-0.3,0.4-0.5,0.5s-0.4,0.2-0.6,0.3v0.1c0.2,0,0.4,0.1,0.5,0.2c0.2,0.1,0.3,0.2,0.5,0.3
				c0.1,0.1,0.3,0.3,0.4,0.5c0.1,0.2,0.1,0.4,0.1,0.7c0,0.4-0.1,0.7-0.3,1s-0.5,0.5-0.8,0.7C133.6,143.2,133.2,143.3,132.6,143.3z"
				/>
		</g>
	</g>
	<g>
		<circle class="st4" cx="130" cy="189.3" r="12"/>
		<g class="st1">
			<path class="st3" d="M125,193.2c0-0.4,0-6.7,0-7.1h4.5v1c-0.3,0-3.8,0-3.8,0l0.5-0.8c0,0.4,0,6.6,0,7H125z M125.9,190.1v-1
				c0,0,3.1,0,3.4,0v1C129,190.1,125.9,190.1,125.9,190.1z"/>
			<path class="st3" d="M132.7,193.3c-0.2,0-0.4,0-0.7,0s-0.4-0.1-0.6-0.1c-0.2,0-0.4-0.1-0.6-0.2c-0.2-0.1-0.3-0.1-0.5-0.2l0.1-1
				c0.2,0.1,0.4,0.2,0.5,0.3c0.2,0.1,0.4,0.1,0.6,0.2c0.2,0.1,0.4,0.1,0.5,0.1c0.2,0,0.3,0,0.5,0c0.5,0,0.9-0.1,1.1-0.3
				c0.2-0.2,0.3-0.5,0.3-0.8c0-0.4-0.2-0.7-0.5-0.9s-0.7-0.3-1.3-0.3c-0.1,0-0.6,0-0.7,0v-0.9c0.1,0,0.5,0,0.7,0
				c0.4,0,0.7,0,0.9-0.1c0.2-0.1,0.4-0.2,0.5-0.4c0.1-0.2,0.2-0.4,0.2-0.6c0-0.3-0.1-0.6-0.4-0.7c-0.2-0.2-0.5-0.2-0.9-0.2
				c-0.2,0-0.3,0-0.5,0c-0.2,0-0.3,0.1-0.5,0.1s-0.3,0.1-0.5,0.2c-0.2,0.1-0.3,0.2-0.5,0.3l-0.1-1c0.1-0.1,0.3-0.2,0.5-0.2
				s0.4-0.1,0.6-0.2c0.2-0.1,0.4-0.1,0.6-0.1c0.2,0,0.4,0,0.6,0c0.5,0,0.9,0.1,1.2,0.2c0.3,0.1,0.6,0.3,0.8,0.6s0.3,0.6,0.3,0.9
				c0,0.3-0.1,0.5-0.2,0.8c-0.1,0.2-0.3,0.4-0.5,0.5s-0.4,0.2-0.6,0.3v0.1c0.2,0,0.4,0.1,0.5,0.2c0.2,0.1,0.3,0.2,0.5,0.3
				c0.1,0.1,0.3,0.3,0.4,0.5c0.1,0.2,0.1,0.4,0.1,0.7c0,0.4-0.1,0.7-0.3,1s-0.5,0.5-0.8,0.7C133.7,193.2,133.3,193.3,132.7,193.3z"
				/>
		</g>
	</g>
	<g>
		<circle class="st5" cx="130" cy="236.5" r="12"/>
		<g class="st1">
			<path class="st3" d="M122.2,240.4c0-0.4,0-6.7,0-7.1h4.5v1c-0.3,0-3.8,0-3.8,0l0.5-0.8c0,0.4,0,6.6,0,7H122.2z M123.1,237.3v-1
				c0,0,3.1,0,3.4,0v1C126.2,237.3,123.1,237.3,123.1,237.3z"/>
			<path class="st3" d="M127.3,238.9v-0.8c0.3,0,5.7,0,6,0v0.8C133,238.9,127.6,238.9,127.3,238.9z M127.8,236.1v-0.8
				c0.3,0,5.7,0,6,0v0.8C133.5,236.1,128.2,236.1,127.8,236.1z M128.3,240.4c0.1-0.3,1.2-6.4,1.3-6.6h0.8c0,0.2-1.2,6.3-1.3,6.6
				H128.3z M130.7,240.4c0.1-0.3,1.2-6.4,1.3-6.6h0.8c0,0.2-1.2,6.3-1.3,6.6H130.7z"/>
			<path class="st3" d="M136.8,240.5c-0.2,0-0.4,0-0.7,0s-0.4-0.1-0.6-0.1c-0.2,0-0.4-0.1-0.6-0.2c-0.2-0.1-0.3-0.1-0.5-0.2l0.1-1
				c0.2,0.1,0.4,0.2,0.5,0.3c0.2,0.1,0.4,0.1,0.6,0.2c0.2,0.1,0.4,0.1,0.5,0.1c0.2,0,0.3,0,0.5,0c0.5,0,0.9-0.1,1.1-0.3
				c0.2-0.2,0.3-0.5,0.3-0.8c0-0.4-0.2-0.7-0.5-0.9s-0.7-0.3-1.3-0.3c-0.1,0-0.6,0-0.7,0v-0.9c0.1,0,0.5,0,0.7,0
				c0.4,0,0.7,0,0.9-0.1c0.2-0.1,0.4-0.2,0.5-0.4c0.1-0.2,0.2-0.4,0.2-0.6c0-0.3-0.1-0.6-0.4-0.7c-0.2-0.2-0.5-0.2-0.9-0.2
				c-0.2,0-0.3,0-0.5,0c-0.2,0-0.3,0.1-0.5,0.1s-0.3,0.1-0.5,0.2c-0.2,0.1-0.3,0.2-0.5,0.3l-0.1-1c0.1-0.1,0.3-0.2,0.5-0.2
				s0.4-0.1,0.6-0.2c0.2-0.1,0.4-0.1,0.6-0.1c0.2,0,0.4,0,0.6,0c0.5,0,0.9,0.1,1.2,0.2c0.3,0.1,0.6,0.3,0.8,0.6s0.3,0.6,0.3,0.9
				c0,0.3-0.1,0.5-0.2,0.8c-0.1,0.2-0.3,0.4-0.5,0.5s-0.4,0.2-0.6,0.3v0.1c0.2,0,0.4,0.1,0.5,0.2c0.2,0.1,0.3,0.2,0.5,0.3
				c0.1,0.1,0.3,0.3,0.4,0.5c0.1,0.2,0.1,0.4,0.1,0.7c0,0.4-0.1,0.7-0.3,1s-0.5,0.5-0.8,0.7C137.8,240.4,137.4,240.5,136.8,240.5z"
				/>
		</g>
	</g>
	<g>
		<circle class="st6" cx="130" cy="281.1" r="12"/>
		<g class="st1">
			<path class="st3" d="M127.6,285c-0.6,0-1.2-0.1-1.6-0.3c-0.5-0.2-0.9-0.4-1.2-0.8s-0.6-0.7-0.7-1.2c-0.2-0.4-0.2-0.9-0.2-1.5
				c0-0.7,0.1-1.4,0.4-1.9c0.3-0.6,0.7-1,1.3-1.3c0.5-0.3,1.2-0.5,1.9-0.5c0.2,0,0.5,0,0.7,0c0.2,0,0.5,0.1,0.7,0.1
				c0.2,0.1,0.4,0.1,0.6,0.2c0.2,0.1,0.3,0.1,0.5,0.2l-0.1,1.1c-0.3-0.2-0.5-0.3-0.8-0.4s-0.5-0.2-0.8-0.2c-0.2,0-0.5-0.1-0.7-0.1
				c-0.4,0-0.7,0.1-1,0.2c-0.3,0.1-0.6,0.3-0.8,0.5c-0.2,0.2-0.4,0.5-0.5,0.8c-0.1,0.3-0.2,0.7-0.2,1.1c0,0.4,0.1,0.7,0.2,1.1
				c0.1,0.3,0.3,0.6,0.5,0.9c0.2,0.2,0.5,0.4,0.8,0.6c0.3,0.1,0.7,0.2,1.2,0.2c0.2,0,0.4,0,0.6,0c0.2,0,0.4-0.1,0.5-0.1
				c0.2,0,0.4-0.1,0.5-0.2c0.2-0.1,0.3-0.1,0.5-0.2l0.1,1.1c-0.1,0-0.3,0.1-0.4,0.1s-0.4,0.1-0.6,0.1c-0.2,0-0.4,0.1-0.7,0.1
				C128.1,285,127.8,285,127.6,285z M128.9,284.6c0-0.4,0-3.1,0-3.3h1.1c0,0.3,0,3,0,3.3L128.9,284.6z"/>
			<path class="st3" d="M133.4,285c-0.2,0-0.4,0-0.7,0s-0.4-0.1-0.6-0.1c-0.2,0-0.4-0.1-0.6-0.2c-0.2-0.1-0.3-0.1-0.5-0.2l0.1-1
				c0.2,0.1,0.4,0.2,0.5,0.3c0.2,0.1,0.4,0.1,0.6,0.2c0.2,0.1,0.4,0.1,0.5,0.1c0.2,0,0.3,0,0.5,0c0.5,0,0.9-0.1,1.1-0.3
				c0.2-0.2,0.3-0.5,0.3-0.8c0-0.4-0.2-0.7-0.5-0.9s-0.7-0.3-1.3-0.3c-0.1,0-0.6,0-0.7,0v-0.9c0.1,0,0.5,0,0.7,0
				c0.4,0,0.7,0,0.9-0.1c0.2-0.1,0.4-0.2,0.5-0.4c0.1-0.2,0.2-0.4,0.2-0.6c0-0.3-0.1-0.6-0.4-0.7c-0.2-0.2-0.5-0.2-0.9-0.2
				c-0.2,0-0.3,0-0.5,0c-0.2,0-0.3,0.1-0.5,0.1s-0.3,0.1-0.5,0.2c-0.2,0.1-0.3,0.2-0.5,0.3l-0.1-1c0.1-0.1,0.3-0.2,0.5-0.2
				s0.4-0.1,0.6-0.2c0.2-0.1,0.4-0.1,0.6-0.1c0.2,0,0.4,0,0.6,0c0.5,0,0.9,0.1,1.2,0.2c0.3,0.1,0.6,0.3,0.8,0.6s0.3,0.6,0.3,0.9
				c0,0.3-0.1,0.5-0.2,0.8c-0.1,0.2-0.3,0.4-0.5,0.5s-0.4,0.2-0.6,0.3v0.1c0.2,0,0.4,0.1,0.5,0.2c0.2,0.1,0.3,0.2,0.5,0.3
				c0.1,0.1,0.3,0.3,0.4,0.5c0.1,0.2,0.1,0.4,0.1,0.7c0,0.4-0.1,0.7-0.3,1s-0.5,0.5-0.8,0.7C134.5,285,134,285,133.4,285z"/>
		</g>
	</g>
	<g>
		<circle class="st7" cx="130" cy="323.1" r="12"/>
		<g class="st1">
			<path class="st3" d="M120.8,327c0.1-0.4,2.4-6.8,2.5-7.1h1.5c0.1,0.4,2.3,6.8,2.5,7.1h-1.2c-0.1-0.4-2-6.1-2-6.1H124
				c0,0-1.9,5.7-2,6.1H120.8z M122.3,325.3l0.1-0.9h3.5l0.1,0.9H122.3z"/>
			<path class="st3" d="M130.9,327.1c-0.2,0-0.4,0-0.6-0.1c-0.2-0.1-0.4-0.1-0.5-0.3c-0.2-0.1-0.3-0.3-0.4-0.4h-0.1l-0.1,0.7h-0.9
				c0-0.4,0-6.9,0-7.3l1.1-0.1c0,0.4,0,3,0,3h0.1c0.1-0.1,0.2-0.2,0.3-0.3s0.3-0.2,0.5-0.2s0.4-0.1,0.6-0.1c0.4,0,0.8,0.1,1.1,0.3
				c0.3,0.2,0.5,0.5,0.7,0.9c0.2,0.4,0.2,0.8,0.2,1.3c0,0.5-0.1,0.9-0.2,1.3c-0.2,0.4-0.4,0.7-0.7,1S131.4,327.1,130.9,327.1z
				 M130.6,326.2c0.3,0,0.6-0.1,0.8-0.2s0.3-0.4,0.4-0.6s0.1-0.5,0.1-0.8c0-0.3,0-0.6-0.1-0.8c-0.1-0.3-0.2-0.5-0.4-0.6
				c-0.2-0.2-0.5-0.2-0.8-0.2c-0.2,0-0.3,0-0.4,0.1c-0.1,0-0.3,0.1-0.4,0.2c-0.1,0.1-0.2,0.2-0.3,0.3v2c0.1,0.1,0.2,0.3,0.3,0.4
				c0.1,0.1,0.2,0.2,0.4,0.2C130.2,326.1,130.4,326.2,130.6,326.2z"/>
			<path class="st3" d="M136.3,327.1c-0.2,0-0.4,0-0.7,0s-0.4-0.1-0.6-0.1c-0.2,0-0.4-0.1-0.6-0.2c-0.2-0.1-0.3-0.1-0.5-0.2l0.1-1
				c0.2,0.1,0.4,0.2,0.5,0.3c0.2,0.1,0.4,0.1,0.6,0.2c0.2,0.1,0.4,0.1,0.5,0.1c0.2,0,0.3,0,0.5,0c0.5,0,0.9-0.1,1.1-0.3
				c0.2-0.2,0.3-0.5,0.3-0.8c0-0.4-0.2-0.7-0.5-0.9s-0.7-0.3-1.3-0.3c-0.1,0-0.6,0-0.7,0V323c0.1,0,0.5,0,0.7,0c0.4,0,0.7,0,0.9-0.1
				c0.2-0.1,0.4-0.2,0.5-0.4c0.1-0.2,0.2-0.4,0.2-0.6c0-0.3-0.1-0.6-0.4-0.7c-0.2-0.2-0.5-0.2-0.9-0.2c-0.2,0-0.3,0-0.5,0
				c-0.2,0-0.3,0.1-0.5,0.1s-0.3,0.1-0.5,0.2c-0.2,0.1-0.3,0.2-0.5,0.3l-0.1-1c0.1-0.1,0.3-0.2,0.5-0.2s0.4-0.1,0.6-0.2
				c0.2-0.1,0.4-0.1,0.6-0.1c0.2,0,0.4,0,0.6,0c0.5,0,0.9,0.1,1.2,0.2c0.3,0.1,0.6,0.3,0.8,0.6s0.3,0.6,0.3,0.9
				c0,0.3-0.1,0.5-0.2,0.8c-0.1,0.2-0.3,0.4-0.5,0.5s-0.4,0.2-0.6,0.3v0.1c0.2,0,0.4,0.1,0.5,0.2c0.2,0.1,0.3,0.2,0.5,0.3
				c0.1,0.1,0.3,0.3,0.4,0.5c0.1,0.2,0.1,0.4,0.1,0.7c0,0.4-0.1,0.7-0.3,1s-0.5,0.5-0.8,0.7C137.3,327,136.8,327.1,136.3,327.1z"/>
		</g>
	</g>
</g>
<g>
	<circle class="st6" cx="170" cy="30.2" r="12"/>
	<g class="st1">
		<path class="st3" d="M167.6,34.2c-0.6,0-1.2-0.1-1.6-0.3c-0.5-0.2-0.9-0.4-1.2-0.8s-0.6-0.7-0.7-1.2c-0.2-0.4-0.2-0.9-0.2-1.5
			c0-0.7,0.1-1.4,0.4-1.9c0.3-0.6,0.7-1,1.3-1.3c0.5-0.3,1.2-0.5,1.9-0.5c0.2,0,0.5,0,0.7,0c0.2,0,0.5,0.1,0.7,0.1
			c0.2,0.1,0.4,0.1,0.6,0.2c0.2,0.1,0.3,0.1,0.5,0.2l-0.1,1.1c-0.3-0.2-0.5-0.3-0.8-0.4s-0.5-0.2-0.8-0.2c-0.2,0-0.5-0.1-0.7-0.1
			c-0.4,0-0.7,0.1-1,0.2c-0.3,0.1-0.6,0.3-0.8,0.5c-0.2,0.2-0.4,0.5-0.5,0.8c-0.1,0.3-0.2,0.7-0.2,1.1c0,0.4,0.1,0.7,0.2,1.1
			c0.1,0.3,0.3,0.6,0.5,0.9c0.2,0.2,0.5,0.4,0.8,0.6c0.3,0.1,0.7,0.2,1.2,0.2c0.2,0,0.4,0,0.6,0c0.2,0,0.4-0.1,0.5-0.1
			c0.2,0,0.4-0.1,0.5-0.2c0.2-0.1,0.3-0.1,0.5-0.2l0.1,1.1c-0.1,0-0.3,0.1-0.4,0.1s-0.4,0.1-0.6,0.1c-0.2,0-0.4,0.1-0.7,0.1
			C168.1,34.2,167.8,34.2,167.6,34.2z M168.9,33.8c0-0.4,0-3.1,0-3.3h1.1c0,0.3,0,3,0,3.3L168.9,33.8z"/>
		<path class="st3" d="M173.4,34.2c-0.2,0-0.4,0-0.7,0c-0.2,0-0.4-0.1-0.6-0.1c-0.2,0-0.4-0.1-0.6-0.2c-0.2-0.1-0.3-0.1-0.5-0.2
			l0.1-1c0.2,0.1,0.4,0.2,0.5,0.3c0.2,0.1,0.4,0.1,0.6,0.2c0.2,0.1,0.4,0.1,0.5,0.1c0.2,0,0.3,0,0.5,0c0.5,0,0.9-0.1,1.1-0.3
			c0.2-0.2,0.3-0.5,0.3-0.8c0-0.4-0.2-0.7-0.5-0.9S173.6,31,173,31c-0.1,0-0.6,0-0.7,0v-0.9c0.1,0,0.5,0,0.7,0c0.4,0,0.7,0,0.9-0.1
			c0.2-0.1,0.4-0.2,0.5-0.4s0.2-0.4,0.2-0.6c0-0.3-0.1-0.6-0.4-0.7c-0.2-0.2-0.5-0.2-0.9-0.2c-0.2,0-0.3,0-0.5,0
			c-0.2,0-0.3,0.1-0.5,0.1s-0.3,0.1-0.5,0.2c-0.2,0.1-0.3,0.2-0.5,0.3l-0.1-1c0.1-0.1,0.3-0.2,0.5-0.2c0.2-0.1,0.4-0.1,0.6-0.2
			c0.2-0.1,0.4-0.1,0.6-0.1s0.4,0,0.6,0c0.5,0,0.9,0.1,1.2,0.2c0.3,0.1,0.6,0.3,0.8,0.6s0.3,0.6,0.3,0.9c0,0.3-0.1,0.5-0.2,0.8
			c-0.1,0.2-0.3,0.4-0.5,0.5c-0.2,0.1-0.4,0.2-0.7,0.3v0.1c0.2,0,0.4,0.1,0.5,0.2c0.2,0.1,0.3,0.2,0.5,0.3c0.1,0.1,0.3,0.3,0.4,0.5
			c0.1,0.2,0.1,0.4,0.1,0.7c0,0.4-0.1,0.7-0.3,1s-0.5,0.5-0.8,0.7S174,34.2,173.4,34.2z"/>
	</g>
	<g>
		<circle class="st7" cx="170" cy="86.4" r="12"/>
		<g class="st1">
			<path class="st3" d="M160.8,90.2c0.1-0.4,2.4-6.8,2.5-7.1h1.5c0.1,0.4,2.3,6.8,2.5,7.1h-1.2c-0.1-0.4-2-6.1-2-6.1H164
				c0,0-1.9,5.7-2,6.1H160.8z M162.3,88.5l0.1-0.9h3.5l0.1,0.9H162.3z"/>
			<path class="st3" d="M170.9,90.3c-0.2,0-0.4,0-0.6-0.1c-0.2-0.1-0.4-0.1-0.5-0.3c-0.2-0.1-0.3-0.3-0.4-0.4h-0.1l-0.1,0.7h-0.9
				c0-0.4,0-6.9,0-7.3l1.1-0.1c0,0.4,0,3,0,3h0.1c0.1-0.1,0.2-0.2,0.3-0.3s0.3-0.2,0.5-0.2s0.4-0.1,0.6-0.1c0.4,0,0.8,0.1,1.1,0.3
				c0.3,0.2,0.5,0.5,0.7,0.9s0.2,0.8,0.2,1.3c0,0.5-0.1,0.9-0.2,1.3c-0.2,0.4-0.4,0.7-0.7,1S171.4,90.3,170.9,90.3z M170.6,89.4
				c0.3,0,0.6-0.1,0.8-0.2c0.2-0.2,0.3-0.4,0.4-0.6s0.1-0.5,0.1-0.8c0-0.3,0-0.6-0.1-0.8c-0.1-0.3-0.2-0.5-0.4-0.6
				c-0.2-0.2-0.5-0.2-0.8-0.2c-0.2,0-0.3,0-0.4,0.1c-0.1,0-0.3,0.1-0.4,0.2c-0.1,0.1-0.2,0.2-0.3,0.3v2c0.1,0.1,0.2,0.3,0.3,0.4
				c0.1,0.1,0.2,0.2,0.4,0.2C170.2,89.4,170.4,89.4,170.6,89.4z"/>
			<path class="st3" d="M176.3,90.3c-0.2,0-0.4,0-0.7,0c-0.2,0-0.4-0.1-0.6-0.1c-0.2,0-0.4-0.1-0.6-0.2c-0.2-0.1-0.3-0.1-0.5-0.2
				l0.1-1c0.2,0.1,0.4,0.2,0.5,0.3c0.2,0.1,0.4,0.1,0.6,0.2c0.2,0.1,0.4,0.1,0.5,0.1c0.2,0,0.3,0,0.5,0c0.5,0,0.9-0.1,1.1-0.3
				c0.2-0.2,0.3-0.5,0.3-0.8c0-0.4-0.2-0.7-0.5-0.9s-0.7-0.3-1.3-0.3c-0.1,0-0.6,0-0.7,0v-0.9c0.1,0,0.5,0,0.7,0
				c0.4,0,0.7,0,0.9-0.1c0.2-0.1,0.4-0.2,0.5-0.4s0.2-0.4,0.2-0.6c0-0.3-0.1-0.6-0.4-0.7c-0.2-0.2-0.5-0.2-0.9-0.2
				c-0.2,0-0.3,0-0.5,0c-0.2,0-0.3,0.1-0.5,0.1s-0.3,0.1-0.5,0.2c-0.2,0.1-0.3,0.2-0.5,0.3l-0.1-1c0.1-0.1,0.3-0.2,0.5-0.2
				c0.2-0.1,0.4-0.1,0.6-0.2c0.2-0.1,0.4-0.1,0.6-0.1s0.4,0,0.6,0c0.5,0,0.9,0.1,1.2,0.2c0.3,0.1,0.6,0.3,0.8,0.6s0.3,0.6,0.3,0.9
				c0,0.3-0.1,0.5-0.2,0.8c-0.1,0.2-0.3,0.4-0.5,0.5c-0.2,0.1-0.4,0.2-0.7,0.3v0.1c0.2,0,0.4,0.1,0.5,0.2c0.2,0.1,0.3,0.2,0.5,0.3
				c0.1,0.1,0.3,0.3,0.4,0.5c0.1,0.2,0.1,0.4,0.1,0.7c0,0.4-0.1,0.7-0.3,1s-0.5,0.5-0.8,0.7S176.8,90.3,176.3,90.3z"/>
		</g>
	</g>
	<g>
		<circle class="st8" cx="170" cy="139.3" r="12"/>
		<g class="st1">
			<path class="st3" d="M163.9,143.2c0.1-0.4,2.4-6.8,2.5-7.1h1.5c0.1,0.4,2.3,6.8,2.5,7.1h-1.2c-0.1-0.4-2-6.1-2-6.1h-0.1
				c0,0-1.9,5.7-2,6.1H163.9z M165.3,141.5l0.1-0.9h3.5l0.1,0.9H165.3z"/>
			<path class="st3" d="M173.4,143.3c-0.2,0-0.4,0-0.7,0s-0.4-0.1-0.6-0.1c-0.2,0-0.4-0.1-0.6-0.2c-0.2-0.1-0.3-0.1-0.5-0.2l0.1-1
				c0.2,0.1,0.4,0.2,0.5,0.3c0.2,0.1,0.4,0.1,0.6,0.2c0.2,0.1,0.4,0.1,0.5,0.1c0.2,0,0.3,0,0.5,0c0.5,0,0.9-0.1,1.1-0.3
				c0.2-0.2,0.3-0.5,0.3-0.8c0-0.4-0.2-0.7-0.5-0.9c-0.3-0.2-0.7-0.3-1.3-0.3c-0.1,0-0.6,0-0.7,0v-0.9c0.1,0,0.5,0,0.7,0
				c0.4,0,0.7,0,0.9-0.1c0.2-0.1,0.4-0.2,0.5-0.4s0.2-0.4,0.2-0.6c0-0.3-0.1-0.6-0.4-0.7c-0.2-0.2-0.5-0.2-0.9-0.2
				c-0.2,0-0.3,0-0.5,0c-0.2,0-0.3,0.1-0.5,0.1s-0.3,0.1-0.5,0.2c-0.2,0.1-0.3,0.2-0.5,0.3l-0.1-1c0.1-0.1,0.3-0.2,0.5-0.2
				s0.4-0.1,0.6-0.2c0.2-0.1,0.4-0.1,0.6-0.1s0.4,0,0.6,0c0.5,0,0.9,0.1,1.2,0.2c0.3,0.1,0.6,0.3,0.8,0.6s0.3,0.6,0.3,0.9
				c0,0.3-0.1,0.5-0.2,0.8s-0.3,0.4-0.5,0.5s-0.4,0.2-0.6,0.3v0.1c0.2,0,0.4,0.1,0.5,0.2c0.2,0.1,0.3,0.2,0.5,0.3
				c0.1,0.1,0.3,0.3,0.4,0.5c0.1,0.2,0.1,0.4,0.1,0.7c0,0.4-0.1,0.7-0.3,1s-0.5,0.5-0.8,0.7C174.4,143.2,174,143.3,173.4,143.3z"/>
		</g>
	</g>
	<g>
		<circle class="st9" cx="170" cy="189.3" r="12"/>
		<g class="st1">
			<path class="st3" d="M163.7,193.2c-0.3,0-2.2,0-2.3,0c0-0.4,0-6.7,0-7.1c0.4,0,2.2,0,2.7,0c0.4,0,0.8,0,1.1,0.1
				c0.3,0.1,0.6,0.2,0.7,0.3c0.2,0.1,0.3,0.3,0.4,0.5c0.1,0.2,0.1,0.4,0.1,0.7c0,0.3-0.1,0.6-0.2,0.8s-0.3,0.4-0.5,0.6
				c-0.2,0.1-0.4,0.3-0.7,0.3v0.1c0.3,0.1,0.5,0.1,0.7,0.3c0.2,0.1,0.4,0.3,0.5,0.5s0.2,0.5,0.2,0.9c0,0.3,0,0.6-0.1,0.8
				c-0.1,0.2-0.3,0.5-0.5,0.6c-0.2,0.2-0.5,0.3-0.9,0.4S164.3,193.2,163.7,193.2z M162.5,192.2h1.3c0.4,0,0.7,0,1-0.1
				c0.2-0.1,0.4-0.2,0.5-0.4c0.1-0.2,0.2-0.4,0.2-0.6c0-0.4-0.1-0.6-0.4-0.8c-0.3-0.2-0.6-0.3-1.1-0.3h-1.7v-0.9h1.6
				c0.3,0,0.6-0.1,0.8-0.2c0.2-0.1,0.4-0.2,0.5-0.4c0.1-0.2,0.1-0.4,0.1-0.6c0-0.3-0.1-0.6-0.3-0.8c-0.2-0.2-0.5-0.2-1-0.2h-1.5
				C162.5,187.3,162.5,192,162.5,192.2z"/>
			<path class="st3" d="M170.5,193.3c-0.2,0-0.4,0-0.6-0.1c-0.2-0.1-0.4-0.1-0.5-0.3c-0.2-0.1-0.3-0.3-0.4-0.4h-0.1l-0.1,0.7h-0.9
				c0-0.4,0-6.9,0-7.3l1.1-0.1c0,0.4,0,3,0,3h0.1c0.1-0.1,0.2-0.2,0.3-0.3s0.3-0.2,0.5-0.2s0.4-0.1,0.6-0.1c0.4,0,0.8,0.1,1.1,0.3
				c0.3,0.2,0.5,0.5,0.7,0.9s0.2,0.8,0.2,1.3c0,0.5-0.1,0.9-0.2,1.3c-0.2,0.4-0.4,0.7-0.7,1S170.9,193.3,170.5,193.3z M170.1,192.4
				c0.3,0,0.6-0.1,0.8-0.2c0.2-0.2,0.3-0.4,0.4-0.6s0.1-0.5,0.1-0.8c0-0.3,0-0.6-0.1-0.8c-0.1-0.3-0.2-0.5-0.4-0.6
				c-0.2-0.2-0.5-0.2-0.8-0.2c-0.2,0-0.3,0-0.4,0.1c-0.1,0-0.3,0.1-0.4,0.2c-0.1,0.1-0.2,0.2-0.3,0.3v2c0.1,0.1,0.2,0.3,0.3,0.4
				c0.1,0.1,0.2,0.2,0.4,0.2C169.7,192.3,169.9,192.4,170.1,192.4z"/>
			<path class="st3" d="M175.8,193.3c-0.2,0-0.4,0-0.7,0s-0.4-0.1-0.6-0.1c-0.2,0-0.4-0.1-0.6-0.2c-0.2-0.1-0.3-0.1-0.5-0.2l0.1-1
				c0.2,0.1,0.4,0.2,0.5,0.3c0.2,0.1,0.4,0.1,0.6,0.2c0.2,0.1,0.4,0.1,0.5,0.1c0.2,0,0.3,0,0.5,0c0.5,0,0.9-0.1,1.1-0.3
				s0.3-0.5,0.3-0.8c0-0.4-0.2-0.7-0.5-0.9c-0.3-0.2-0.7-0.3-1.3-0.3c-0.1,0-0.6,0-0.7,0v-0.9c0.1,0,0.5,0,0.7,0
				c0.4,0,0.7,0,0.9-0.1c0.2-0.1,0.4-0.2,0.5-0.4c0.1-0.2,0.2-0.4,0.2-0.6c0-0.3-0.1-0.6-0.4-0.7c-0.2-0.2-0.5-0.2-0.9-0.2
				c-0.2,0-0.3,0-0.5,0c-0.2,0-0.3,0.1-0.5,0.1s-0.3,0.1-0.5,0.2c-0.2,0.1-0.3,0.2-0.5,0.3l-0.1-1c0.1-0.1,0.3-0.2,0.5-0.2
				s0.4-0.1,0.6-0.2c0.2-0.1,0.4-0.1,0.6-0.1c0.2,0,0.4,0,0.6,0c0.5,0,0.9,0.1,1.2,0.2c0.3,0.1,0.6,0.3,0.8,0.6s0.3,0.6,0.3,0.9
				c0,0.3-0.1,0.5-0.2,0.8c-0.1,0.2-0.3,0.4-0.5,0.5s-0.4,0.2-0.7,0.3v0.1c0.2,0,0.4,0.1,0.5,0.2c0.2,0.1,0.3,0.2,0.5,0.3
				c0.1,0.1,0.3,0.3,0.4,0.5c0.1,0.2,0.1,0.4,0.1,0.7c0,0.4-0.1,0.7-0.3,1s-0.5,0.5-0.8,0.7C176.8,193.2,176.3,193.3,175.8,193.3z"
				/>
		</g>
	</g>
	<g>
		<circle class="st10" cx="170" cy="236.5" r="12"/>
		<g class="st1">
			<path class="st3" d="M166.8,240.4c-0.3,0-2.2,0-2.3,0c0-0.4,0-6.7,0-7.1c0.4,0,2.2,0,2.7,0c0.4,0,0.8,0,1.1,0.1
				c0.3,0.1,0.6,0.2,0.7,0.3c0.2,0.1,0.3,0.3,0.4,0.5c0.1,0.2,0.1,0.4,0.1,0.7c0,0.3-0.1,0.6-0.2,0.8s-0.3,0.4-0.5,0.6
				c-0.2,0.1-0.4,0.3-0.7,0.3v0.1c0.3,0.1,0.5,0.1,0.7,0.3c0.2,0.1,0.4,0.3,0.5,0.5s0.2,0.5,0.2,0.9c0,0.3,0,0.6-0.1,0.8
				c-0.1,0.2-0.3,0.5-0.5,0.6c-0.2,0.2-0.5,0.3-0.9,0.4S167.4,240.4,166.8,240.4z M165.6,239.4h1.3c0.4,0,0.7,0,1-0.1
				c0.2-0.1,0.4-0.2,0.5-0.4c0.1-0.2,0.2-0.4,0.2-0.6c0-0.4-0.1-0.6-0.4-0.8c-0.3-0.2-0.6-0.3-1.1-0.3h-1.7v-0.9h1.6
				c0.3,0,0.6-0.1,0.8-0.2c0.2-0.1,0.4-0.2,0.5-0.4c0.1-0.2,0.1-0.4,0.1-0.6c0-0.3-0.1-0.6-0.3-0.8c-0.2-0.2-0.5-0.2-1-0.2h-1.5
				C165.6,234.5,165.6,239.2,165.6,239.4z"/>
			<path class="st3" d="M172.9,240.5c-0.2,0-0.4,0-0.7,0s-0.4-0.1-0.6-0.1c-0.2,0-0.4-0.1-0.6-0.2c-0.2-0.1-0.3-0.1-0.5-0.2l0.1-1
				c0.2,0.1,0.4,0.2,0.5,0.3c0.2,0.1,0.4,0.1,0.6,0.2c0.2,0.1,0.4,0.1,0.5,0.1c0.2,0,0.3,0,0.5,0c0.5,0,0.9-0.1,1.1-0.3
				c0.2-0.2,0.3-0.5,0.3-0.8c0-0.4-0.2-0.7-0.5-0.9c-0.3-0.2-0.7-0.3-1.3-0.3c-0.1,0-0.6,0-0.7,0v-0.9c0.1,0,0.5,0,0.7,0
				c0.4,0,0.7,0,0.9-0.1c0.2-0.1,0.4-0.2,0.5-0.4s0.2-0.4,0.2-0.6c0-0.3-0.1-0.6-0.4-0.7c-0.2-0.2-0.5-0.2-0.9-0.2
				c-0.2,0-0.3,0-0.5,0c-0.2,0-0.3,0.1-0.5,0.1s-0.3,0.1-0.5,0.2c-0.2,0.1-0.3,0.2-0.5,0.3l-0.1-1c0.1-0.1,0.3-0.2,0.5-0.2
				s0.4-0.1,0.6-0.2c0.2-0.1,0.4-0.1,0.6-0.1s0.4,0,0.6,0c0.5,0,0.9,0.1,1.2,0.2c0.3,0.1,0.6,0.3,0.8,0.6s0.3,0.6,0.3,0.9
				c0,0.3-0.1,0.5-0.2,0.8s-0.3,0.4-0.5,0.5s-0.4,0.2-0.6,0.3v0.1c0.2,0,0.4,0.1,0.5,0.2c0.2,0.1,0.3,0.2,0.5,0.3
				c0.1,0.1,0.3,0.3,0.4,0.5c0.1,0.2,0.1,0.4,0.1,0.7c0,0.4-0.1,0.7-0.3,1s-0.5,0.5-0.8,0.7C173.9,240.4,173.5,240.5,172.9,240.5z"
				/>
		</g>
	</g>
	<g>
		<circle class="st11" cx="170" cy="281.1" r="12"/>
		<g class="st1">
			<path class="st3" d="M167.8,285c-0.6,0-1.1-0.1-1.5-0.3s-0.8-0.4-1.2-0.8c-0.3-0.3-0.6-0.7-0.7-1.2s-0.3-0.9-0.3-1.5
				c0-0.7,0.1-1.4,0.4-1.9c0.3-0.6,0.7-1,1.2-1.3c0.5-0.3,1.2-0.5,1.9-0.5c0.2,0,0.5,0,0.7,0c0.2,0,0.4,0.1,0.6,0.1
				c0.2,0.1,0.4,0.1,0.6,0.2c0.2,0.1,0.3,0.1,0.5,0.2l-0.1,1.1c-0.3-0.2-0.5-0.3-0.8-0.4c-0.2-0.1-0.5-0.2-0.7-0.2s-0.5-0.1-0.7-0.1
				c-0.5,0-0.9,0.1-1.3,0.3c-0.4,0.2-0.7,0.5-0.9,0.9c-0.2,0.4-0.3,0.9-0.3,1.4c0,0.4,0.1,0.7,0.2,1c0.1,0.3,0.3,0.6,0.5,0.9
				c0.2,0.2,0.5,0.4,0.8,0.6c0.3,0.1,0.7,0.2,1.1,0.2c0.2,0,0.3,0,0.5,0s0.3-0.1,0.5-0.1s0.3-0.1,0.5-0.2c0.2-0.1,0.3-0.2,0.5-0.3
				l0.1,1.1c-0.1,0.1-0.3,0.2-0.5,0.2c-0.2,0.1-0.3,0.1-0.5,0.2s-0.4,0.1-0.6,0.1C168.2,285,168,285,167.8,285z"/>
			<path class="st3" d="M174,284.9c0-0.3,0-1.6,0-1.9l0-0.2c0,0,0-3.9,0-4.2l0.8-0.2c-0.2,0.3-3,4.3-3.2,4.5l0-0.4c0,0,4.5,0,4.6,0
				v1c-0.2,0-5.5,0-5.5,0v-0.7c0.1-0.2,3.1-4.4,3.2-4.6h1.1c0,0.4,0,6.5,0,6.9H174z"/>
		</g>
	</g>
	<g>
		<circle class="st12" cx="170" cy="323.1" r="12"/>
		<g class="st1">
			<path class="st3" d="M161.4,327c0-0.4,0-6.7,0-7.1c0.3,0,2.3,0,2.6,0c0.5,0,1,0.1,1.5,0.2c0.4,0.2,0.8,0.4,1.1,0.7
				c0.3,0.3,0.5,0.7,0.7,1.1c0.2,0.4,0.2,0.9,0.2,1.5c0,0.5-0.1,1-0.2,1.4c-0.1,0.4-0.3,0.8-0.6,1.1c-0.3,0.3-0.7,0.6-1.2,0.8
				c-0.5,0.2-1.1,0.3-1.7,0.3C163.4,327,161.7,327,161.4,327z M162.6,326h1.1c0.6,0,1.1-0.1,1.5-0.3c0.4-0.2,0.6-0.5,0.8-0.9
				s0.2-0.9,0.2-1.4c0-0.4,0-0.7-0.1-1.1c-0.1-0.3-0.2-0.6-0.4-0.8c-0.2-0.2-0.4-0.4-0.8-0.5s-0.7-0.2-1.1-0.2h-1.2
				C162.6,321.1,162.6,325.8,162.6,326z"/>
			<path class="st3" d="M171.3,327.1c-0.2,0-0.4,0-0.6-0.1c-0.2-0.1-0.4-0.1-0.5-0.3c-0.2-0.1-0.3-0.3-0.4-0.4h-0.1l-0.1,0.7h-0.9
				c0-0.4,0-6.9,0-7.3l1.1-0.1c0,0.4,0,3,0,3h0.1c0.1-0.1,0.2-0.2,0.3-0.3s0.3-0.2,0.5-0.2s0.4-0.1,0.6-0.1c0.4,0,0.8,0.1,1.1,0.3
				c0.3,0.2,0.5,0.5,0.7,0.9c0.2,0.4,0.2,0.8,0.2,1.3c0,0.5-0.1,0.9-0.2,1.3c-0.2,0.4-0.4,0.7-0.7,1S171.8,327.1,171.3,327.1z
				 M170.9,326.2c0.3,0,0.6-0.1,0.8-0.2s0.3-0.4,0.4-0.6c0.1-0.3,0.1-0.5,0.1-0.8c0-0.3,0-0.6-0.1-0.8s-0.2-0.5-0.4-0.6
				c-0.2-0.2-0.5-0.2-0.8-0.2c-0.2,0-0.3,0-0.4,0.1c-0.1,0-0.3,0.1-0.4,0.2c-0.1,0.1-0.2,0.2-0.3,0.3v2c0.1,0.1,0.2,0.3,0.3,0.4
				c0.1,0.1,0.2,0.2,0.4,0.2C170.6,326.1,170.8,326.2,170.9,326.2z"/>
			<path class="st3" d="M177.3,327c0-0.3,0-1.6,0-1.9l0-0.2c0,0,0-3.9,0-4.2l0.8-0.2c-0.2,0.3-3,4.3-3.2,4.5l0-0.4c0,0,4.5,0,4.6,0
				v1c-0.2,0-5.5,0-5.5,0v-0.7c0.1-0.2,3.1-4.4,3.2-4.6h1.1c0,0.4,0,6.5,0,6.9H177.3z"/>
		</g>
	</g>
</g>
<g>
	<circle class="st10" cx="210" cy="30.2" r="12"/>
	<g class="st1">
		<path class="st3" d="M206.8,34.1c-0.3,0-2.2,0-2.3,0c0-0.4,0-6.7,0-7.1c0.4,0,2.2,0,2.7,0c0.4,0,0.8,0,1.1,0.1
			c0.3,0.1,0.6,0.2,0.7,0.3c0.2,0.1,0.3,0.3,0.4,0.5s0.1,0.4,0.1,0.7c0,0.3-0.1,0.6-0.2,0.8c-0.1,0.2-0.3,0.4-0.5,0.6
			c-0.2,0.1-0.4,0.3-0.7,0.3v0.1c0.3,0.1,0.5,0.1,0.7,0.3c0.2,0.1,0.4,0.3,0.5,0.5c0.1,0.2,0.2,0.5,0.2,0.9c0,0.3,0,0.6-0.1,0.8
			c-0.1,0.2-0.3,0.5-0.5,0.6c-0.2,0.2-0.5,0.3-0.9,0.4C207.8,34,207.3,34.1,206.8,34.1z M205.6,33.1h1.3c0.4,0,0.7,0,1-0.1
			c0.2-0.1,0.4-0.2,0.5-0.4c0.1-0.2,0.2-0.4,0.2-0.6c0-0.4-0.1-0.6-0.4-0.8c-0.3-0.2-0.6-0.3-1.1-0.3h-1.7V30h1.6
			c0.3,0,0.6-0.1,0.8-0.2c0.2-0.1,0.4-0.2,0.5-0.4c0.1-0.2,0.1-0.4,0.1-0.6c0-0.3-0.1-0.6-0.3-0.8c-0.2-0.2-0.5-0.2-1-0.2h-1.5
			C205.6,28.2,205.6,32.9,205.6,33.1z"/>
		<path class="st3" d="M212.9,34.2c-0.2,0-0.4,0-0.7,0s-0.4-0.1-0.6-0.1c-0.2,0-0.4-0.1-0.6-0.2c-0.2-0.1-0.3-0.1-0.5-0.2l0.1-1
			c0.2,0.1,0.4,0.2,0.5,0.3c0.2,0.1,0.4,0.1,0.6,0.2c0.2,0.1,0.4,0.1,0.5,0.1c0.2,0,0.3,0,0.5,0c0.5,0,0.9-0.1,1.1-0.3
			c0.2-0.2,0.3-0.5,0.3-0.8c0-0.4-0.2-0.7-0.5-0.9c-0.3-0.2-0.7-0.3-1.3-0.3c-0.1,0-0.6,0-0.7,0v-0.9c0.1,0,0.5,0,0.7,0
			c0.4,0,0.7,0,0.9-0.1c0.2-0.1,0.4-0.2,0.5-0.4s0.2-0.4,0.2-0.6c0-0.3-0.1-0.6-0.4-0.7c-0.2-0.2-0.5-0.2-0.9-0.2
			c-0.2,0-0.3,0-0.5,0c-0.2,0-0.3,0.1-0.5,0.1s-0.3,0.1-0.5,0.2c-0.2,0.1-0.3,0.2-0.5,0.3l-0.1-1c0.1-0.1,0.3-0.2,0.5-0.2
			s0.4-0.1,0.6-0.2c0.2-0.1,0.4-0.1,0.6-0.1s0.4,0,0.6,0c0.5,0,0.9,0.1,1.2,0.2c0.3,0.1,0.6,0.3,0.8,0.6s0.3,0.6,0.3,0.9
			c0,0.3-0.1,0.5-0.2,0.8s-0.3,0.4-0.5,0.5s-0.4,0.2-0.6,0.3v0.1c0.2,0,0.4,0.1,0.5,0.2c0.2,0.1,0.3,0.2,0.5,0.3
			c0.1,0.1,0.3,0.3,0.4,0.5c0.1,0.2,0.1,0.4,0.1,0.7c0,0.4-0.1,0.7-0.3,1s-0.5,0.5-0.8,0.7C213.9,34.1,213.5,34.2,212.9,34.2z"/>
	</g>
	<g>
		<circle class="st11" cx="210" cy="86.4" r="12"/>
		<g class="st1">
			<path class="st3" d="M207.8,90.3c-0.6,0-1.1-0.1-1.5-0.3c-0.5-0.2-0.8-0.4-1.2-0.8c-0.3-0.3-0.6-0.7-0.7-1.2s-0.3-0.9-0.3-1.5
				c0-0.7,0.1-1.4,0.4-1.9c0.3-0.6,0.7-1,1.2-1.3c0.5-0.3,1.2-0.5,1.9-0.5c0.2,0,0.5,0,0.7,0c0.2,0,0.4,0.1,0.6,0.1
				c0.2,0.1,0.4,0.1,0.6,0.2c0.2,0.1,0.3,0.1,0.5,0.2l-0.1,1.1c-0.3-0.2-0.5-0.3-0.8-0.4s-0.5-0.2-0.7-0.2S208,84,207.7,84
				c-0.5,0-0.9,0.1-1.3,0.3s-0.7,0.5-0.9,0.9c-0.2,0.4-0.3,0.9-0.3,1.4c0,0.4,0.1,0.7,0.2,1c0.1,0.3,0.3,0.6,0.5,0.9
				c0.2,0.2,0.5,0.4,0.8,0.6c0.3,0.1,0.7,0.2,1.1,0.2c0.2,0,0.3,0,0.5,0s0.3-0.1,0.5-0.1s0.3-0.1,0.5-0.2s0.3-0.2,0.5-0.3l0.1,1.1
				c-0.1,0.1-0.3,0.2-0.5,0.2c-0.2,0.1-0.3,0.1-0.5,0.2c-0.2,0-0.4,0.1-0.6,0.1C208.2,90.3,208,90.3,207.8,90.3z"/>
			<path class="st3" d="M214,90.2c0-0.3,0-1.6,0-1.9l0-0.2c0,0,0-3.9,0-4.2l0.8-0.2c-0.2,0.3-3,4.3-3.2,4.5l0-0.4c0,0,4.5,0,4.6,0v1
				c-0.2,0-5.5,0-5.5,0v-0.7c0.1-0.2,3.1-4.4,3.2-4.6h1.1c0,0.4,0,6.5,0,6.9H214z"/>
		</g>
	</g>
	<g>
		<circle class="st12" cx="210" cy="139.3" r="12"/>
		<g class="st1">
			<path class="st3" d="M205,143.3c-0.6,0-1.1-0.1-1.5-0.3s-0.8-0.4-1.2-0.8c-0.3-0.3-0.6-0.7-0.7-1.2s-0.3-0.9-0.3-1.5
				c0-0.7,0.1-1.4,0.4-1.9c0.3-0.6,0.7-1,1.2-1.3s1.2-0.5,1.9-0.5c0.2,0,0.5,0,0.7,0c0.2,0,0.4,0.1,0.6,0.1c0.2,0.1,0.4,0.1,0.6,0.2
				c0.2,0.1,0.3,0.1,0.5,0.2l-0.1,1.1c-0.3-0.2-0.5-0.3-0.8-0.4c-0.2-0.1-0.5-0.2-0.7-0.2c-0.2,0-0.5-0.1-0.7-0.1
				c-0.5,0-0.9,0.1-1.3,0.3c-0.4,0.2-0.7,0.5-0.9,0.9c-0.2,0.4-0.3,0.9-0.3,1.4c0,0.4,0.1,0.7,0.2,1c0.1,0.3,0.3,0.6,0.5,0.9
				c0.2,0.2,0.5,0.4,0.8,0.6c0.3,0.1,0.7,0.2,1.1,0.2c0.2,0,0.3,0,0.5,0c0.2,0,0.3-0.1,0.5-0.1c0.2,0,0.3-0.1,0.5-0.2
				s0.3-0.2,0.5-0.3l0.1,1.1c-0.1,0.1-0.3,0.2-0.5,0.2c-0.2,0.1-0.3,0.1-0.5,0.2s-0.4,0.1-0.6,0.1
				C205.4,143.3,205.2,143.3,205,143.3z"/>
			<path class="st3" d="M207.8,141.7v-0.8c0.3,0,5.7,0,6,0v0.8C213.5,141.7,208.2,141.7,207.8,141.7z M208.4,138.9v-0.8
				c0.3,0,5.7,0,6,0v0.8C214.1,138.9,208.7,138.9,208.4,138.9z M208.8,143.2c0.1-0.3,1.2-6.4,1.3-6.6h0.8c0,0.2-1.2,6.3-1.3,6.6
				H208.8z M211.2,143.2c0.1-0.3,1.2-6.4,1.3-6.6h0.8c0,0.2-1.2,6.3-1.3,6.6H211.2z"/>
			<path class="st3" d="M218.1,143.2c0-0.3,0-1.6,0-1.9l0-0.2c0,0,0-3.9,0-4.2l0.8-0.2c-0.2,0.3-3,4.3-3.2,4.5l0-0.4
				c0,0,4.5,0,4.6,0v1c-0.2,0-5.5,0-5.5,0v-0.7c0.1-0.2,3.1-4.4,3.2-4.6h1.1c0,0.4,0,6.5,0,6.9H218.1z"/>
		</g>
	</g>
	<g>
		<circle class="st13" cx="210" cy="189.3" r="12"/>
		<g class="st1">
			<path class="st3" d="M204.5,193.2c0-0.4,0-6.7,0-7.1c0.3,0,2.3,0,2.6,0c0.5,0,1,0.1,1.5,0.2s0.8,0.4,1.1,0.7
				c0.3,0.3,0.5,0.7,0.7,1.1c0.2,0.4,0.2,0.9,0.2,1.5c0,0.5-0.1,1-0.2,1.4c-0.1,0.4-0.3,0.8-0.6,1.1c-0.3,0.3-0.7,0.6-1.2,0.8
				c-0.5,0.2-1.1,0.3-1.7,0.3C206.5,193.2,204.7,193.2,204.5,193.2z M205.6,192.2h1.1c0.6,0,1.1-0.1,1.5-0.3
				c0.4-0.2,0.6-0.5,0.8-0.9s0.2-0.9,0.2-1.4c0-0.4,0-0.7-0.1-1.1c-0.1-0.3-0.2-0.6-0.4-0.8c-0.2-0.2-0.4-0.4-0.8-0.5
				c-0.3-0.1-0.7-0.2-1.1-0.2h-1.2C205.6,187.3,205.6,192,205.6,192.2z"/>
			<path class="st3" d="M214.5,193.2c0-0.3,0-1.6,0-1.9l0-0.2c0,0,0-3.9,0-4.2l0.8-0.2c-0.2,0.3-3,4.3-3.2,4.5l0-0.4
				c0,0,4.5,0,4.6,0v1c-0.2,0-5.5,0-5.5,0v-0.7c0.1-0.2,3.1-4.4,3.2-4.6h1.1c0,0.4,0,6.5,0,6.9H214.5z"/>
		</g>
	</g>
	<g>
		<circle class="st14" cx="210" cy="236.5" r="12"/>
		<g class="st1">
			<path class="st3" d="M201.7,240.4c0-0.4,0-6.7,0-7.1c0.3,0,2.3,0,2.6,0c0.5,0,1,0.1,1.5,0.2c0.4,0.2,0.8,0.4,1.1,0.7
				c0.3,0.3,0.5,0.7,0.7,1.1c0.2,0.4,0.2,0.9,0.2,1.5c0,0.5-0.1,1-0.2,1.4c-0.1,0.4-0.3,0.8-0.6,1.1c-0.3,0.3-0.7,0.6-1.2,0.8
				c-0.5,0.2-1.1,0.3-1.7,0.3C203.7,240.4,201.9,240.4,201.7,240.4z M202.8,239.4h1.2c0.6,0,1.1-0.1,1.5-0.3
				c0.4-0.2,0.6-0.5,0.8-0.9s0.2-0.9,0.2-1.4c0-0.4,0-0.7-0.1-1.1c-0.1-0.3-0.2-0.6-0.4-0.8c-0.2-0.2-0.4-0.4-0.8-0.5
				s-0.7-0.2-1.1-0.2h-1.2C202.8,234.5,202.8,239.2,202.8,239.4z"/>
			<path class="st3" d="M208.3,238.9v-0.8c0.3,0,5.7,0,6,0v0.8C214,238.9,208.7,238.9,208.3,238.9z M208.9,236.1v-0.8
				c0.3,0,5.7,0,6,0v0.8C214.6,236.1,209.2,236.1,208.9,236.1z M209.3,240.4c0.1-0.3,1.2-6.4,1.3-6.6h0.8c0,0.2-1.2,6.3-1.3,6.6
				H209.3z M211.8,240.4c0.1-0.3,1.2-6.4,1.3-6.6h0.8c0,0.2-1.2,6.3-1.3,6.6H211.8z"/>
			<path class="st3" d="M218.6,240.4c0-0.3,0-1.6,0-1.9l0-0.2c0,0,0-3.9,0-4.2l0.8-0.2c-0.2,0.3-3,4.3-3.2,4.5l0-0.4
				c0,0,4.5,0,4.6,0v1c-0.2,0-5.5,0-5.5,0v-0.7c0.1-0.2,3.1-4.4,3.2-4.6h1.1c0,0.4,0,6.5,0,6.9H218.6z"/>
		</g>
	</g>
	<g>
		<circle class="st2" cx="210" cy="281.1" r="12"/>
		<g class="st1">
			<path class="st3" d="M204.7,284.9c0-0.4,0-6.7,0-7.1h4.5v1c-0.3,0-4,0-4,0l0.7-0.8c0,0.4,0,6.4,0,6.8l-0.6-0.8c0,0,3.7,0,4,0v1
				H204.7z M205.6,281.8v-1c0,0,3.2,0,3.5,0v1C208.8,281.8,205.6,281.8,205.6,281.8z"/>
			<path class="st3" d="M213.2,284.9c0-0.3,0-1.6,0-1.9l0-0.2c0,0,0-3.9,0-4.2l0.8-0.2c-0.2,0.3-3,4.3-3.2,4.5l0-0.4
				c0,0,4.5,0,4.6,0v1c-0.2,0-5.5,0-5.5,0v-0.7c0.1-0.2,3.1-4.4,3.2-4.6h1.1c0,0.4,0,6.5,0,6.9H213.2z"/>
		</g>
	</g>
	<g>
		<circle class="st4" cx="210" cy="323.1" r="12"/>
		<g class="st1">
			<path class="st3" d="M205,327c0-0.4,0-6.7,0-7.1h4.5v1c-0.3,0-3.8,0-3.8,0l0.5-0.8c0,0.4,0,6.6,0,7H205z M205.9,323.9v-1
				c0,0,3.1,0,3.4,0v1C209,323.9,205.9,323.9,205.9,323.9z"/>
			<path class="st3" d="M213.3,327c0-0.3,0-1.6,0-1.9l0-0.2c0,0,0-3.9,0-4.2l0.8-0.2c-0.2,0.3-3,4.3-3.2,4.5l0-0.4c0,0,4.5,0,4.6,0
				v1c-0.2,0-5.5,0-5.5,0v-0.7c0.1-0.2,3.1-4.4,3.2-4.6h1.1c0,0.4,0,6.5,0,6.9H213.3z"/>
		</g>
	</g>
</g>
<g>
	<circle class="st2" cx="250" cy="30.2" r="12"/>
	<g class="st1">
		<path class="st3" d="M244.7,34.1c0-0.4,0-6.7,0-7.1h4.5v1c-0.3,0-4,0-4,0l0.7-0.8c0,0.4,0,6.4,0,6.8l-0.6-0.8c0,0,3.7,0,4,0v1
			H244.7z M245.6,30.9v-1c0,0,3.2,0,3.5,0v1C248.8,30.9,245.6,30.9,245.6,30.9z"/>
		<path class="st3" d="M253.2,34.1c0-0.3,0-1.6,0-1.9l0-0.2c0,0,0-3.9,0-4.2l0.8-0.2c-0.2,0.3-3,4.3-3.2,4.5l0-0.4c0,0,4.5,0,4.6,0
			v1c-0.2,0-5.5,0-5.5,0v-0.7c0.1-0.2,3.1-4.4,3.2-4.6h1.1c0,0.4,0,6.5,0,6.9H253.2z"/>
	</g>
	<g>
		<circle class="st4" cx="250" cy="86.4" r="12"/>
		<g class="st1">
			<path class="st3" d="M245,90.2c0-0.4,0-6.7,0-7.1h4.5v1c-0.3,0-3.8,0-3.8,0l0.5-0.8c0,0.4,0,6.6,0,7H245z M245.9,87.1v-1
				c0,0,3.1,0,3.4,0v1C249,87.1,245.9,87.1,245.9,87.1z"/>
			<path class="st3" d="M253.3,90.2c0-0.3,0-1.6,0-1.9l0-0.2c0,0,0-3.9,0-4.2l0.8-0.2c-0.2,0.3-3,4.3-3.2,4.5l0-0.4c0,0,4.5,0,4.6,0
				v1c-0.2,0-5.5,0-5.5,0v-0.7c0.1-0.2,3.1-4.4,3.2-4.6h1.1c0,0.4,0,6.5,0,6.9H253.3z"/>
		</g>
	</g>
	<g>
		<circle class="st5" cx="250" cy="139.3" r="12"/>
		<g class="st1">
			<path class="st3" d="M242.2,143.2c0-0.4,0-6.7,0-7.1h4.5v1c-0.3,0-3.8,0-3.8,0l0.5-0.8c0,0.4,0,6.6,0,7H242.2z M243.1,140.1v-1
				c0,0,3.1,0,3.4,0v1C246.2,140.1,243.1,140.1,243.1,140.1z"/>
			<path class="st3" d="M247.3,141.7v-0.8c0.3,0,5.7,0,6,0v0.8C253,141.7,247.6,141.7,247.3,141.7z M247.8,138.9v-0.8
				c0.3,0,5.7,0,6,0v0.8C253.5,138.9,248.2,138.9,247.8,138.9z M248.3,143.2c0.1-0.3,1.2-6.4,1.3-6.6h0.8c0,0.2-1.2,6.3-1.3,6.6
				H248.3z M250.7,143.2c0.1-0.3,1.2-6.4,1.3-6.6h0.8c0,0.2-1.2,6.3-1.3,6.6H250.7z"/>
			<path class="st3" d="M257.5,143.2c0-0.3,0-1.6,0-1.9l0-0.2c0,0,0-3.9,0-4.2l0.8-0.2c-0.2,0.3-3,4.3-3.2,4.5l0-0.4
				c0,0,4.5,0,4.6,0v1c-0.2,0-5.5,0-5.5,0v-0.7c0.1-0.2,3.1-4.4,3.2-4.6h1.1c0,0.4,0,6.5,0,6.9H257.5z"/>
		</g>
	</g>
	<g>
		<circle class="st6" cx="250" cy="189.3" r="12"/>
		<g class="st1">
			<path class="st3" d="M247.6,193.3c-0.6,0-1.2-0.1-1.6-0.3c-0.5-0.2-0.9-0.4-1.2-0.8c-0.3-0.3-0.6-0.7-0.7-1.2
				c-0.2-0.4-0.2-0.9-0.2-1.5c0-0.7,0.1-1.4,0.4-1.9c0.3-0.6,0.7-1,1.3-1.3c0.5-0.3,1.2-0.5,1.9-0.5c0.2,0,0.5,0,0.7,0
				s0.5,0.1,0.7,0.1c0.2,0.1,0.4,0.1,0.6,0.2c0.2,0.1,0.3,0.1,0.5,0.2l-0.1,1.1c-0.3-0.2-0.5-0.3-0.8-0.4s-0.5-0.2-0.8-0.2
				c-0.2,0-0.5-0.1-0.7-0.1c-0.4,0-0.7,0.1-1,0.2s-0.6,0.3-0.8,0.5c-0.2,0.2-0.4,0.5-0.5,0.8c-0.1,0.3-0.2,0.7-0.2,1.1
				c0,0.4,0.1,0.7,0.2,1.1c0.1,0.3,0.3,0.6,0.5,0.9c0.2,0.2,0.5,0.4,0.8,0.6c0.3,0.1,0.7,0.2,1.2,0.2c0.2,0,0.4,0,0.6,0
				c0.2,0,0.4-0.1,0.5-0.1c0.2,0,0.4-0.1,0.5-0.2c0.2-0.1,0.3-0.1,0.5-0.2l0.1,1.1c-0.1,0-0.3,0.1-0.4,0.1c-0.2,0-0.4,0.1-0.6,0.1
				c-0.2,0-0.4,0.1-0.7,0.1S247.8,193.3,247.6,193.3z M248.9,192.9c0-0.4,0-3.1,0-3.3h1.1c0,0.3,0,3,0,3.3L248.9,192.9z"/>
			<path class="st3" d="M254.2,193.2c0-0.3,0-1.6,0-1.9l0-0.2c0,0,0-3.9,0-4.2l0.8-0.2c-0.2,0.3-3,4.3-3.2,4.5l0-0.4
				c0,0,4.5,0,4.6,0v1c-0.2,0-5.5,0-5.5,0v-0.7c0.1-0.2,3.1-4.4,3.2-4.6h1.1c0,0.4,0,6.5,0,6.9H254.2z"/>
		</g>
	</g>
	<g>
		<circle class="st7" cx="250" cy="236.5" r="12"/>
		<g class="st1">
			<path class="st3" d="M244.8,240.5c-0.6,0-1.2-0.1-1.6-0.3c-0.5-0.2-0.9-0.4-1.2-0.8s-0.6-0.7-0.7-1.2c-0.2-0.4-0.2-0.9-0.2-1.5
				c0-0.7,0.1-1.4,0.4-1.9c0.3-0.6,0.7-1,1.3-1.3c0.5-0.3,1.2-0.5,1.9-0.5c0.2,0,0.5,0,0.7,0s0.5,0.1,0.7,0.1
				c0.2,0.1,0.4,0.1,0.6,0.2c0.2,0.1,0.3,0.1,0.5,0.2l-0.1,1.1c-0.3-0.2-0.5-0.3-0.8-0.4s-0.5-0.2-0.8-0.2c-0.2,0-0.5-0.1-0.7-0.1
				c-0.4,0-0.7,0.1-1,0.2s-0.6,0.3-0.8,0.5c-0.2,0.2-0.4,0.5-0.5,0.8c-0.1,0.3-0.2,0.7-0.2,1.1c0,0.4,0.1,0.7,0.2,1.1
				c0.1,0.3,0.3,0.6,0.5,0.9c0.2,0.2,0.5,0.4,0.8,0.6c0.3,0.1,0.7,0.2,1.2,0.2c0.2,0,0.4,0,0.6,0c0.2,0,0.4-0.1,0.5-0.1
				c0.2,0,0.4-0.1,0.5-0.2c0.2-0.1,0.3-0.1,0.5-0.2l0.1,1.1c-0.1,0-0.3,0.1-0.4,0.1s-0.4,0.1-0.6,0.1c-0.2,0-0.4,0.1-0.7,0.1
				C245.3,240.5,245.1,240.5,244.8,240.5z M246.1,240.1c0-0.4,0-3.1,0-3.3h1.1c0,0.3,0,3,0,3.3L246.1,240.1z"/>
			<path class="st3" d="M248,238.9v-0.8c0.3,0,5.7,0,6,0v0.8C253.7,238.9,248.3,238.9,248,238.9z M248.6,236.1v-0.8c0.3,0,5.7,0,6,0
				v0.8C254.3,236.1,248.9,236.1,248.6,236.1z M249,240.4c0.1-0.3,1.2-6.4,1.3-6.6h0.8c0,0.2-1.2,6.3-1.3,6.6H249z M251.4,240.4
				c0.1-0.3,1.2-6.4,1.3-6.6h0.8c0,0.2-1.2,6.3-1.3,6.6H251.4z"/>
			<path class="st3" d="M258.3,240.4c0-0.3,0-1.6,0-1.9l0-0.2c0,0,0-3.9,0-4.2l0.8-0.2c-0.2,0.3-3,4.3-3.2,4.5l0-0.4
				c0,0,4.5,0,4.6,0v1c-0.2,0-5.5,0-5.5,0v-0.7c0.1-0.2,3.1-4.4,3.2-4.6h1.1c0,0.4,0,6.5,0,6.9H258.3z"/>
		</g>
	</g>
	<g>
		<circle class="st8" cx="250" cy="281.1" r="12"/>
		<g class="st1">
			<path class="st3" d="M243.9,284.9c0.1-0.4,2.4-6.8,2.5-7.1h1.5c0.1,0.4,2.3,6.8,2.5,7.1h-1.2c-0.1-0.4-2-6.1-2-6.1h-0.1
				c0,0-1.9,5.7-2,6.1H243.9z M245.3,283.2l0.1-0.9h3.5l0.1,0.9H245.3z"/>
			<path class="st3" d="M254.1,284.9c0-0.3,0-1.6,0-1.9l0-0.2c0,0,0-3.9,0-4.2l0.8-0.2c-0.2,0.3-3,4.3-3.2,4.5l0-0.4
				c0,0,4.5,0,4.6,0v1c-0.2,0-5.5,0-5.5,0v-0.7c0.1-0.2,3.1-4.4,3.2-4.6h1.1c0,0.4,0,6.5,0,6.9H254.1z"/>
		</g>
	</g>
	<g>
		<circle class="st9" cx="250" cy="323.1" r="12"/>
		<g class="st1">
			<path class="st3" d="M243.7,327c-0.3,0-2.2,0-2.3,0c0-0.4,0-6.7,0-7.1c0.4,0,2.2,0,2.7,0c0.4,0,0.8,0,1.1,0.1s0.6,0.2,0.7,0.3
				c0.2,0.1,0.3,0.3,0.4,0.5c0.1,0.2,0.1,0.4,0.1,0.7c0,0.3-0.1,0.6-0.2,0.8s-0.3,0.4-0.5,0.6c-0.2,0.1-0.4,0.3-0.7,0.3v0.1
				c0.3,0.1,0.5,0.1,0.7,0.3c0.2,0.1,0.4,0.3,0.5,0.5s0.2,0.5,0.2,0.9c0,0.3,0,0.6-0.1,0.8c-0.1,0.2-0.3,0.5-0.5,0.6
				s-0.5,0.3-0.9,0.4S244.3,327,243.7,327z M242.5,326h1.3c0.4,0,0.7,0,1-0.1c0.2-0.1,0.4-0.2,0.5-0.4c0.1-0.2,0.2-0.4,0.2-0.6
				c0-0.4-0.1-0.6-0.4-0.8c-0.3-0.2-0.6-0.3-1.1-0.3h-1.7v-0.9h1.6c0.3,0,0.6-0.1,0.8-0.2c0.2-0.1,0.4-0.2,0.5-0.4
				c0.1-0.2,0.1-0.4,0.1-0.6c0-0.3-0.1-0.6-0.3-0.8c-0.2-0.2-0.5-0.2-1-0.2h-1.5C242.5,321.1,242.5,325.8,242.5,326z"/>
			<path class="st3" d="M250.5,327.1c-0.2,0-0.4,0-0.6-0.1c-0.2-0.1-0.4-0.1-0.5-0.3c-0.2-0.1-0.3-0.3-0.4-0.4h-0.1l-0.1,0.7h-0.9
				c0-0.4,0-6.9,0-7.3l1.1-0.1c0,0.4,0,3,0,3h0.1c0.1-0.1,0.2-0.2,0.3-0.3s0.3-0.2,0.5-0.2s0.4-0.1,0.6-0.1c0.4,0,0.8,0.1,1.1,0.3
				c0.3,0.2,0.5,0.5,0.7,0.9s0.2,0.8,0.2,1.3c0,0.5-0.1,0.9-0.2,1.3c-0.2,0.4-0.4,0.7-0.7,1S250.9,327.1,250.5,327.1z M250.1,326.2
				c0.3,0,0.6-0.1,0.8-0.2c0.2-0.2,0.3-0.4,0.4-0.6s0.1-0.5,0.1-0.8c0-0.3,0-0.6-0.1-0.8c-0.1-0.3-0.2-0.5-0.4-0.6
				c-0.2-0.2-0.5-0.2-0.8-0.2c-0.2,0-0.3,0-0.4,0.1c-0.1,0-0.3,0.1-0.4,0.2c-0.1,0.1-0.2,0.2-0.3,0.3v2c0.1,0.1,0.2,0.3,0.3,0.4
				c0.1,0.1,0.2,0.2,0.4,0.2C249.7,326.1,249.9,326.2,250.1,326.2z"/>
			<path class="st3" d="M256.5,327c0-0.3,0-1.6,0-1.9l0-0.2c0,0,0-3.9,0-4.2l0.8-0.2c-0.2,0.3-3,4.3-3.2,4.5l0-0.4c0,0,4.5,0,4.6,0
				v1c-0.2,0-5.5,0-5.5,0v-0.7c0.1-0.2,3.1-4.4,3.2-4.6h1.1c0,0.4,0,6.5,0,6.9H256.5z"/>
		</g>
	</g>
</g>
</svg>
