<svg xmlns="http://www.w3.org/2000/svg" viewBox="0 0 850.39 850.39">
  <g id="ПОДКЛАД_copy" data-name="ПОДКЛАД copy">
    <g>
      <path d="M797.88,342.44a103.79,103.79,0,0,0-19.68-11.82L715,347.52l0,.05a80,80,0,1,1,0,155.25l0,.05,63.17,16.91A103.52,103.52,0,0,0,797.88,508a104.31,104.31,0,0,0,0-165.51Z" fill="#fff"/>
      <path d="M637.35,213A80,80,0,1,1,715,347.52l63.17-16.9a102.74,102.74,0,0,0,11.13-20.1,104.3,104.3,0,0,0-82.75-143.33,103.66,103.66,0,0,0-13.63-.9c-3.11,0-6.21.16-9.28.43Z" fill="#fff"/>
      <path d="M502.82,715.05a80,80,0,1,1-155.25,0l-.05,0-16.91,63.18a103.24,103.24,0,0,0,11.83,19.67,104.31,104.31,0,0,0,165.51,0,102.78,102.78,0,0,0,11.84-19.67L502.87,715Z"/>
      <path d="M213,637.37A80,80,0,1,1,135.37,502.9v0L72.19,519.78a103.26,103.26,0,0,0-11.13,20.1A104.3,104.3,0,0,0,157.44,684.1c3.12,0,6.21-.16,9.28-.43Z" fill="#fff"/>
      <path d="M637.37,637.35A80,80,0,1,1,502.87,715l16.92,63.18a103.38,103.38,0,0,0,60,19.06,104.31,104.31,0,0,0,103.42-90.7,103.26,103.26,0,0,0,.41-22.9h.06Z" fill="#fff"/>
      <path d="M715,502.87a80,80,0,1,1-77.66,134.48l46.31,46.32c3.07.27,6.16.43,9.28.43a104.31,104.31,0,0,0,96.37-144.23,102.89,102.89,0,0,0-11.13-20.09Z"/>
      <path d="M347.52,715A80,80,0,1,1,213,637.37l-46.32,46.3h.05a103.26,103.26,0,0,0,.41,22.9,104.31,104.31,0,0,0,103.43,90.7,103.46,103.46,0,0,0,60-19.06Z" fill="#fff"/>
      <path d="M347.57,135.35a80,80,0,1,1,155.25,0h.05l16.92-63.18A102.78,102.78,0,0,0,508,52.51a104.31,104.31,0,0,0-165.51,0,103.24,103.24,0,0,0-11.83,19.67l16.91,63.18Z" fill="#fff"/>
      <path d="M502.87,135.36A80,80,0,1,1,637.35,213l46.32-46.3h0a103.26,103.26,0,0,0-.41-22.9,104.34,104.34,0,0,0-103.42-90.7,103.38,103.38,0,0,0-60,19.06Z"/>
      <path d="M213,213a80,80,0,1,1,134.5-77.68L330.61,72.18A104.12,104.12,0,0,0,218.45,67.1a105,105,0,0,0-51.27,76.72,103.26,103.26,0,0,0-.41,22.9h-.05Z"/>
      <path d="M135.36,502.85a80,80,0,1,1,0-155.28v-.05l-63.17-16.9a104.07,104.07,0,0,0,0,189.16Z"/>
      <path d="M135.36,347.52A80,80,0,1,1,213,213l-46.3-46.32c-3.07-.27-6.16-.43-9.28-.43a103.5,103.5,0,0,0-13.62.9A104.31,104.31,0,0,0,61.06,310.52a103.79,103.79,0,0,0,11.13,20.1Z" fill="#fff"/>
    </g>
  </g>
  <g id="Клавиши">
    <g>
      <path d="M310.62,623.66a80,80,0,0,1,39.53,77.78l26.08-92c6.51-23,25.14-35.16,44.59-36.68v-49c0-9.68-6.8-18.22-16.85-20.86a79.91,79.91,0,0,1-19.52-8.12,22.9,22.9,0,0,0-11.5-3.15A21,21,0,0,0,358,497.76L233.82,622A80,80,0,0,1,310.62,623.66Z" fill="#fff"/>
      <path d="M504.54,425.77a80.67,80.67,0,0,1-2.87,20.93c-2.64,9.75,1.36,19.94,9.72,24.76L552.13,495c11-16.93,31.52-27.66,55.39-21.35l96.25,25.42a80,80,0,0,1-13.72-140.47L520.32,404.06C510.85,406.6,504.51,415.24,504.54,425.77Z" fill="#fff"/>
      <path d="M503,716l.13,0c-.22-.76-.47-1.5-.68-2.27C502.7,714.44,502.86,715.21,503,716Z" fill="#fff"/>
      <path d="M548.45,501.65l-40.8-23.56a20.85,20.85,0,0,0-10.39-2.79,22.89,22.89,0,0,0-16.13,7,80.41,80.41,0,0,1-16.57,12.65A79.41,79.41,0,0,1,445,503a21.78,21.78,0,0,0-16.53,20.79v48.94c19.89,1.29,39.08,13.72,45.48,37.26l26.18,96.36c.9,2.4,1.72,4.84,2.39,7.36a80,80,0,0,1,123.22-86.23L558.21,558C541.78,541.06,540.38,519.15,548.45,501.65Z" fill="#fff"/>
      <path d="M636.37,214c-.06.07-.14.12-.2.19l-.21.26C636.11,214.32,636.23,214.16,636.37,214Z" fill="#fff"/>
      <path d="M637.21,213.23c-.27.27-.56.52-.84.79C636.65,213.75,636.94,213.5,637.21,213.23Z" fill="#fff"/>
      <path d="M623.66,310.62a80,80,0,0,1,11.12-94.87c-.32.34-.62.69-.95,1l-74.09,75.68c-17.69,17.2-40.85,17.94-58.7,8.59L477,342.75c-4.91,8.49-3.29,19.09,4.18,26.51a81,81,0,0,1,12.79,16.82,22.14,22.14,0,0,0,19,11.36,21.07,21.07,0,0,0,5.4-.71l172.37-46.19A80,80,0,0,1,623.66,310.62Z" fill="#fff"/>
      <path d="M475.4,243.14l24.8-93.87a80.79,80.79,0,0,1,2.29-12.55,80,80,0,0,1-154.59,0A79.94,79.94,0,0,1,350.6,156l25.89,87.42c5.92,23.46-4.64,43.57-21.27,54.52L378.93,339a21.22,21.22,0,0,0,18.65,10.53,24.31,24.31,0,0,0,6.39-.89,78,78,0,0,1,41.59.07,23.61,23.61,0,0,0,6.12.82A21.21,21.21,0,0,0,470.33,339l24.23-42C478.92,285.75,469.38,266,475.4,243.14Z" fill="#fff"/>
      <path d="M347.54,135.2l-.09,0c.15.5.31,1,.45,1.5C347.76,136.22,347.66,135.71,347.54,135.2Z" fill="#fff"/>
      <path d="M502.86,135.5l-.07,0c-.11.42-.19.83-.3,1.24C502.6,136.31,502.74,135.91,502.86,135.5Z" fill="#fff"/>
      <path d="M238.8,476l-88.93,24.17a80,80,0,0,1,78.6,116.41L352.64,492.37c6.85-6.84,8.07-17.7,2.84-26.68a79.56,79.56,0,0,1-8.05-19.58,21.78,21.78,0,0,0-20.79-16.54H276.1C275.14,449.78,262.7,469.46,238.8,476Z" fill="#fff"/>
      <path d="M290.85,291.8l-68.68-68.2a80,80,0,0,1-85.45,124.3,80.8,80.8,0,0,1,14,5.26l88.57,25.1c22.62,6.41,34.77,24.58,36.6,43.7h50.71c9.68,0,18.22-6.8,20.87-16.86a80.35,80.35,0,0,1,20.78-36c7.31-7.26,8.92-17.85,4-26.35l-23.72-41.09C330.63,310.14,308,308.78,290.85,291.8Z" fill="#fff"/>
      <path d="M134.45,347.22l0,.13c.77.19,1.55.35,2.31.55C136,347.7,135.21,347.45,134.45,347.22Z" fill="#fff"/>
      <path d="M539.78,226.74c-1.17-.68-2.27-1.43-3.39-2.15L494.56,297a52.48,52.48,0,0,0,6.48,4L543,228.41C541.9,227.85,540.83,227.34,539.78,226.74Z"/>
      <path d="M559.74,292.44l76.22-78,.21-.26a80,80,0,0,1-93.2,14.2L501,301C518.89,310.38,542.05,309.64,559.74,292.44Z"/>
      <path d="M500.2,149.27l-24.8,93.87c-6,22.82,3.52,42.61,19.16,53.89l41.83-72.44A80,80,0,0,1,500.2,149.27Z"/>
      <path d="M310.62,226.74c-1.34.77-2.71,1.44-4.07,2.12l42,72.8a56.14,56.14,0,0,0,6.64-3.73l-42-72.82C312.32,225.65,311.5,226.23,310.62,226.74Z"/>
      <path d="M212.68,212.6c-1.71-1.8-3.36-3.66-4.89-5.59q.74,1.43,1.62,2.79,1.64,1.39,3.19,2.88Z"/>
      <path d="M376.49,243.41,350.6,156a80,80,0,0,1-37.42,69.12l42,72.82C371.85,287,382.41,266.87,376.49,243.41Z"/>
      <path d="M214,214a79.91,79.91,0,0,1,8.15,9.58l68.68,68.2c17.1,17,39.78,18.34,57.73,9.86l-42-72.8A80,80,0,0,1,214,214Z"/>
      <path d="M212.68,212.6l-.08.08c.47.45,1,.88,1.42,1.34C213.56,213.56,213.13,213.07,212.68,212.6Z"/>
      <path d="M134.13,503.11a80.57,80.57,0,0,1-11,1.8,25.33,25.33,0,0,0,5.24.34c1.9-.74,3.84-1.39,5.81-2Z"/>
      <path d="M196,425.2c0,1.47-.11,2.92-.19,4.37H276.1a52.25,52.25,0,0,0-.17-7.61h-80C195.94,423,196,424.11,196,425.2Z"/>
      <path d="M136.72,502.49a80.38,80.38,0,0,1,13.15-2.37L238.8,476c23.9-6.49,36.34-26.17,37.3-46.38H195.85A80,80,0,0,1,136.72,502.49Z"/>
      <path d="M134.13,503.11l0,.15c.86-.26,1.7-.54,2.56-.77C135.86,502.72,135,502.91,134.13,503.11Z"/>
      <path d="M239.33,378.26l-88.57-25.1A80,80,0,0,1,195.9,422h80C274.1,402.84,262,384.67,239.33,378.26Z"/>
      <path d="M347.13,716.23c-.44,1.48-.94,2.94-1.47,4.38a26.58,26.58,0,0,0,.19,3.58,77.64,77.64,0,0,1,1.44-7.93Z"/>
      <path d="M420.82,572.74v81.8c1.45-.08,2.91-.18,4.38-.18,1.08,0,2.15.09,3.24.13v-81.8A53.82,53.82,0,0,0,420.82,572.74Z"/>
      <path d="M376.23,609.42l-26.08,92a80.29,80.29,0,0,1-2.25,12.23,80,80,0,0,1,72.92-59.13v-81.8C401.37,574.26,382.74,586.46,376.23,609.42Z"/>
      <path d="M347.13,716.23l.16,0c.2-.86.38-1.73.61-2.59C347.67,714.53,347.39,715.38,347.13,716.23Z"/>
      <path d="M428.44,572.69v81.8a80,80,0,0,1,71.66,51.82L473.92,610C467.52,586.41,448.33,574,428.44,572.69Z"/>
      <path d="M548.45,501.65l73.08,42.19c.69-1.36,1.36-2.73,2.13-4.06.51-.88,1.08-1.7,1.62-2.56L552.13,495A53.92,53.92,0,0,0,548.45,501.65Z"/>
      <path d="M715.17,502.94c1.24.36,2.47.74,3.68,1.15-.35-.21-.7-.43-1.07-.62-.86-.19-1.73-.4-2.59-.62Z"/>
      <path d="M637.71,637.79c.91,1,1.8,1.92,2.65,2.91.56.3,1.13.55,1.7.8q-2.2-1.82-4.27-3.79Z"/>
      <path d="M715.17,502.94l0-.09c-.5-.12-1-.22-1.52-.36C714.18,502.63,714.67,502.8,715.17,502.94Z"/>
      <path d="M713.67,502.49a78.13,78.13,0,0,1-9.9-3.43l-96.25-25.42c-23.87-6.31-44.42,4.42-55.39,21.35l73.15,42.23A80,80,0,0,1,713.67,502.49Z"/>
      <path d="M558.21,558l67.5,69.47a80.22,80.22,0,0,1,10.66,8.93,80,80,0,0,1-14.84-92.53l-73.08-42.19C540.38,519.15,541.78,541.06,558.21,558Z"/>
      <path d="M637.71,637.79l.08-.08c-.47-.45-1-.88-1.42-1.34C636.83,636.83,637.26,637.32,637.71,637.79Z"/>
      <path d="M344.66,136c.23.69.47,1.38.65,2.1L350.6,156a79.94,79.94,0,0,0-2.7-19.27c-.14-.5-.3-1-.45-1.5l-.63.16C346.09,135.57,345.38,135.81,344.66,136Z" fill="#fff"/>
      <path d="M212.06,213.2c.17-.18.36-.34.54-.52q-1.56-1.49-3.19-2.88a33.22,33.22,0,0,0,2.56,3.49Z"/>
      <path d="M212.06,213.2c.17-.18.36-.34.54-.52q-1.56-1.49-3.19-2.88a33.22,33.22,0,0,0,2.56,3.49Z" fill="#ec008c"/>
      <path d="M212.6,212.68c-.18.18-.37.34-.54.52l-.09.09c.62.74,1.28,1.46,2,2.14l8.23,8.17A79.91,79.91,0,0,0,214,214C213.56,213.56,213.07,213.13,212.6,212.68Z"/>
      <path d="M212.6,212.68c-.18.18-.37.34-.54.52l-.09.09c.62.74,1.28,1.46,2,2.14l8.23,8.17A79.91,79.91,0,0,0,214,214C213.56,213.56,213.07,213.13,212.6,212.68Z" fill="#ec008c"/>
      <path d="M134.11,348.49c.25.06.49.09.73.16l15.92,4.51a80.8,80.8,0,0,0-14-5.26c-.76-.2-1.54-.36-2.31-.55,0,.21-.11.4-.17.61S134.16,348.31,134.11,348.49Z" fill="#fff"/>
      <path d="M134.11,348.49c.25.06.49.09.73.16l15.92,4.51a80.8,80.8,0,0,0-14-5.26c-.76-.2-1.54-.36-2.31-.55,0,.21-.11.4-.17.61S134.16,348.31,134.11,348.49Z" fill="#92278f"/>
      <path d="M134.22,504.37l.23-.06c-.06-.25-.14-.49-.21-.74,0-.1-.05-.21-.08-.31-2,.6-3.91,1.25-5.81,2A25.59,25.59,0,0,0,134.22,504.37Z"/>
      <path d="M134.22,504.37l.23-.06c-.06-.25-.14-.49-.21-.74,0-.1-.05-.21-.08-.31-2,.6-3.91,1.25-5.81,2A25.59,25.59,0,0,0,134.22,504.37Z" fill="#2e3192"/>
      <path d="M136.72,502.49c-.86.23-1.7.51-2.56.77,0,.1.05.21.08.31.07.25.15.49.21.74l15.42-4.19A80.38,80.38,0,0,0,136.72,502.49Z"/>
      <path d="M136.72,502.49c-.86.23-1.7.51-2.56.77,0,.1.05.21.08.31.07.25.15.49.21.74l15.42-4.19A80.38,80.38,0,0,0,136.72,502.49Z" fill="#2e3192"/>
      <path d="M346.82,716.15l-.67-.19a25.51,25.51,0,0,0-.49,4.65c.53-1.44,1-2.9,1.47-4.38Z"/>
      <path d="M346.82,716.15l-.67-.19a25.51,25.51,0,0,0-.49,4.65c.53-1.44,1-2.9,1.47-4.38Z" fill="#0072bc"/>
      <path d="M350.15,701.44l-3.54,12.47c-.19.69-.33,1.37-.46,2.05l.67.19.31.08c.26-.85.54-1.7.77-2.56A80.29,80.29,0,0,0,350.15,701.44Z"/>
      <path d="M350.15,701.44l-3.54,12.47c-.19.69-.33,1.37-.46,2.05l.67.19.31.08c.26-.85.54-1.7.77-2.56A80.29,80.29,0,0,0,350.15,701.44Z" fill="#0072bc"/>
      <path d="M500.1,706.31l2.24,8.23c.14.52.22,1,.33,1.54l.37-.1c-.18-.77-.34-1.54-.55-2.31C501.82,711.15,501,708.71,500.1,706.31Z" fill="#fff"/>
      <path d="M500.1,706.31l2.24,8.23c.14.52.22,1,.33,1.54l.37-.1c-.18-.77-.34-1.54-.55-2.31C501.82,711.15,501,708.71,500.1,706.31Z" fill="#00aeef"/>
      <path d="M637.2,638.33l-.22.2a24.49,24.49,0,0,0,3.38,2.17c-.85-1-1.74-2-2.65-2.91C637.53,638,637.37,638.15,637.2,638.33Z"/>
      <path d="M637.2,638.33l-.22.2a24.49,24.49,0,0,0,3.38,2.17c-.85-1-1.74-2-2.65-2.91C637.53,638,637.37,638.15,637.2,638.33Z" fill="#00a99d"/>
      <path d="M625.71,627.44l8.19,8.43a25.63,25.63,0,0,0,3.08,2.66l.22-.2c.17-.18.33-.37.51-.54-.45-.47-.88-1-1.34-1.42A80.22,80.22,0,0,0,625.71,627.44Z"/>
      <path d="M625.71,627.44l8.19,8.43a25.63,25.63,0,0,0,3.08,2.66l.22-.2c.17-.18.33-.37.51-.54-.45-.47-.88-1-1.34-1.42A80.22,80.22,0,0,0,625.71,627.44Z" fill="#00a99d"/>
      <path d="M715.19,502.85c.86.22,1.73.43,2.59.62a25.07,25.07,0,0,0-2.46-1.14C715.28,502.51,715.24,502.68,715.19,502.85Z" fill="#87c540"/>
      <path d="M703.77,499.06a78.13,78.13,0,0,0,9.9,3.43c.5.14,1,.24,1.52.36,0-.17.09-.34.13-.52a24.31,24.31,0,0,0-3-1Z" fill="#87c540"/>
      <path d="M636,214.47c-.41.41-.78.86-1.18,1.28C635.18,215.33,635.58,214.91,636,214.47Z" fill="#fff200"/>
      <path d="M636.17,214.21c.06-.07.14-.12.2-.19.28-.27.53-.56.8-.83a1.14,1.14,0,0,0-.11-.11C636.77,213.46,636.48,213.84,636.17,214.21Z" fill="#f7941d"/>
      <path d="M500.2,149.27l2.88-10.91c.24-.88.52-1.72.83-2.55l-1.05-.31c-.12.41-.26.81-.37,1.22A80.79,80.79,0,0,0,500.2,149.27Z" fill="#f7941d"/>
    </g>
  </g>
  <g id="Layer_2" data-name="Layer 2">
    <g id="квинты">
      <g id="path7583-6">
        <path d="M292.44,658.86a1,1,0,0,1-.35-.05,1.39,1.39,0,0,1-1-1.7L423.41,157.53a1.4,1.4,0,1,1,2.7.72L293.79,657.82A1.39,1.39,0,0,1,292.44,658.86Z" fill="#939598"/>
      </g>
      <g id="path7587-1">
        <path d="M402.8,242.83c-1.22,0-1.44,0-13.71-32.9a1.38,1.38,0,0,1,.81-1.79,1.4,1.4,0,0,1,1.8.82c10.28,27.56,12,31.22,12.24,31.67a1.3,1.3,0,0,1,.26.8A1.4,1.4,0,0,1,402.8,242.83Z" fill="#939598"/>
      </g>
      <g id="path7589-84">
        <path d="M403.79,241.72a1,1,0,0,1-.51-.14,1.42,1.42,0,0,1-.77-1.25,1.39,1.39,0,0,1,1.26-1.39c.8-.35,4.9-2.57,24.8-16.88a1.4,1.4,0,0,1,1.64,2.27C408.92,239.63,405,241.72,403.79,241.72Z" fill="#939598"/>
      </g>
      <g id="path7583-4-7">
        <path d="M424.57,693.9a1.39,1.39,0,0,1-1.34-1L288,194.06a1.39,1.39,0,1,1,2.69-.73l135.2,498.81a1.4,1.4,0,0,1-1,1.71A1.57,1.57,0,0,1,424.57,693.9Z" fill="#939598"/>
      </g>
      <g id="path7587-2-8">
        <path d="M312.14,278.46c-1.18,0-4.68-2.68-27.82-21.79a1.39,1.39,0,0,1,1.77-2.15c22.69,18.72,26,21,26.44,21.3a1.44,1.44,0,0,1,.63.57,1.41,1.41,0,0,1-.53,1.91A.89.89,0,0,1,312.14,278.46Z" fill="#939598"/>
      </g>
      <g id="path7589-5-8">
        <path d="M312.36,277a1.4,1.4,0,0,1-.83-2.54c.52-.69,3-4.67,13.05-27a1.41,1.41,0,0,1,1.84-.7,1.38,1.38,0,0,1,.7,1.84c-12.78,28.31-13.67,28.36-14.69,28.41Z" fill="#939598"/>
      </g>
      <g id="path7583-3-3">
        <path d="M559.87,657.18a1.41,1.41,0,0,1-1-.4L192.4,292.4a1.39,1.39,0,1,1,2-2L560.85,654.8a1.39,1.39,0,0,1,0,2A1.38,1.38,0,0,1,559.87,657.18Z" fill="#939598"/>
      </g>
      <g id="path7587-9-5">
        <path d="M254.3,353.62c-2.6,0-10.13-1.17-33.82-5.15a1.38,1.38,0,0,1-1.14-1.6,1.4,1.4,0,0,1,1.6-1.15c29,4.88,33.05,5.21,33.55,5.23a1.4,1.4,0,0,1,1.34,2.09C255.64,353.37,255.49,353.62,254.3,353.62Z" fill="#939598"/>
      </g>
      <g id="path7589-4-9">
        <path d="M254.22,352.23a1.34,1.34,0,0,1-.7-.19,1.38,1.38,0,0,1-.57-1.78c.1-.87.22-5.53-2.22-29.92a1.4,1.4,0,1,1,2.78-.28C256.59,351,255.85,351.45,255,352A1.46,1.46,0,0,1,254.22,352.23Zm0-1.39h0Z" fill="#939598"/>
      </g>
      <g id="path7583-1-7">
        <path d="M655.9,563.05a1.55,1.55,0,0,1-.37,0L157.07,426.56a1.39,1.39,0,0,1,.73-2.69L656.27,560.31a1.41,1.41,0,0,1,1,1.72A1.39,1.39,0,0,1,655.9,563.05Z" fill="#939598"/>
      </g>
      <g id="path7587-4-6">
        <path d="M208.66,461.6a1.39,1.39,0,0,1-.47-2.7c27.65-10.07,31.32-11.76,31.77-12a1.72,1.72,0,0,1,.8-.25,1.4,1.4,0,0,1,1.38,1.41c0,1.22,0,1.44-33,13.45A1.61,1.61,0,0,1,208.66,461.6Z" fill="#939598"/>
      </g>
      <g id="path7589-46-3">
        <path d="M239.65,448.34h0a1.39,1.39,0,0,1-1.39-1.27c-.33-.8-2.53-4.93-16.66-24.95a1.39,1.39,0,1,1,2.27-1.61c17.92,25.37,17.51,26.16,17,27.07A1.43,1.43,0,0,1,239.65,448.34Z" fill="#939598"/>
      </g>
      <g id="path7583-7-2">
        <path d="M193.19,560.09a1.41,1.41,0,0,1-1.35-1,1.39,1.39,0,0,1,1-1.71l498.8-135.2a1.4,1.4,0,0,1,.73,2.7L193.56,560A1.64,1.64,0,0,1,193.19,560.09Z" fill="#939598"/>
      </g>
      <g id="path7587-6-0">
        <path d="M255.08,564.26a1.35,1.35,0,0,1-.88-.32,1.38,1.38,0,0,1-.19-2c18.73-22.69,21-26,21.3-26.44a1.43,1.43,0,0,1,.56-.61,1.38,1.38,0,0,1,1.91.5c.63,1.08.73,1.25-21.62,28.33A1.4,1.4,0,0,1,255.08,564.26Z" fill="#939598"/>
      </g>
      <g id="path7589-0-9">
        <path d="M275.07,537.12a1.38,1.38,0,0,1-1.13-.58c-.7-.52-4.68-3-27-13a1.39,1.39,0,0,1-.7-1.84,1.41,1.41,0,0,1,1.85-.7c28.3,12.78,28.35,13.67,28.4,14.7a1.39,1.39,0,0,1-1.4,1.47Z" fill="#939598"/>
      </g>
      <g id="path7583-34-2">
        <path d="M292.44,658.86a1.35,1.35,0,0,1-1-.41,1.39,1.39,0,0,1,0-2L655.83,290a1.4,1.4,0,1,1,2,2L293.43,658.45A1.36,1.36,0,0,1,292.44,658.86Z" fill="#939598"/>
      </g>
      <g id="path7587-3-6">
        <path d="M348.13,631.53l-.23,0a1.41,1.41,0,0,1-1.15-1.61c4.88-29,5.22-33,5.24-33.55a1.37,1.37,0,0,1,.18-.83,1.4,1.4,0,0,1,1.91-.5c1.07.63,1.24.73-4.57,35.34A1.4,1.4,0,0,1,348.13,631.53Z" fill="#939598"/>
      </g>
      <g id="path7589-43-0">
        <path d="M321.23,600.12a1.39,1.39,0,0,1-.14-2.78c30.91-3.08,31.39-2.34,32-1.48a1.44,1.44,0,0,1,0,1.47,1.38,1.38,0,0,1-1.79.57c-.87-.1-5.54-.22-29.92,2.21Z" fill="#939598"/>
      </g>
      <g id="path7583-8-7">
        <path d="M424.57,693.9a1.48,1.48,0,0,1-.35,0,1.39,1.39,0,0,1-1-1.7L555.55,192.57a1.39,1.39,0,1,1,2.69.72L425.92,692.86A1.39,1.39,0,0,1,424.57,693.9Z" fill="#939598"/>
      </g>
      <g id="path7587-8-5">
        <path d="M459.13,642.38a1.39,1.39,0,0,1-1.3-.9c-10.29-27.57-12-31.23-12.25-31.67a1.38,1.38,0,0,1-.25-.8,1.4,1.4,0,0,1,1.39-1.4c1.23,0,1.45,0,13.72,32.89a1.39,1.39,0,0,1-.82,1.79A1.18,1.18,0,0,1,459.13,642.38Z" fill="#939598"/>
      </g>
      <g id="path7589-05-4">
        <path d="M420.13,628.63a1.39,1.39,0,0,1-.81-2.52c25.24-18.13,26-17.74,26.93-17.26a1.44,1.44,0,0,1,.77,1.26,1.39,1.39,0,0,1-1.26,1.38c-.8.35-4.9,2.57-24.81,16.88A1.38,1.38,0,0,1,420.13,628.63Z" fill="#939598"/>
      </g>
      <g id="path7583-2-0">
        <path d="M560,658.09a1.4,1.4,0,0,1-1.35-1L423.41,158.25a1.4,1.4,0,0,1,2.7-.72l135.2,498.8a1.4,1.4,0,0,1-1,1.71A1.49,1.49,0,0,1,560,658.09Z" fill="#939598"/>
      </g>
      <g id="path7587-34-1">
        <path d="M564,595.29a1.43,1.43,0,0,1-.89-.32c-22.68-18.73-26-21-26.44-21.3a1.4,1.4,0,0,1-.1-2.48c1-.59,1.21-.75,28.32,21.63a1.4,1.4,0,0,1-.89,2.47Z" fill="#939598"/>
      </g>
      <g id="path7589-02-4">
        <path d="M523.39,602.88a1.42,1.42,0,0,1-.57-.12,1.4,1.4,0,0,1-.7-1.85c12.78-28.31,13.67-28.35,14.7-28.4a1.58,1.58,0,0,1,1.29.7,1.39,1.39,0,0,1-.4,1.83c-.52.7-3,4.68-13.05,27A1.4,1.4,0,0,1,523.39,602.88Z" fill="#939598"/>
      </g>
      <g id="path7583-25-1">
        <path d="M192.51,560.81a1.4,1.4,0,0,1-1-2.38L555.91,191.94a1.39,1.39,0,0,1,2,2L193.5,560.4A1.4,1.4,0,0,1,192.51,560.81Z" fill="#939598"/>
      </g>
      <g id="path7587-38-7">
        <path d="M496,255.56a1.37,1.37,0,0,1-.7-.19c-1.06-.61-1.25-.72,4.56-35.34a1.4,1.4,0,0,1,2.76.46c-4.88,29-5.21,33-5.23,33.55a1.4,1.4,0,0,1-1.39,1.52Z" fill="#939598"/>
      </g>
      <g id="path7589-9-7">
        <path d="M499.81,255.29c-3,0-3.26-.37-3.52-.76a1.43,1.43,0,0,1,0-1.47,1.41,1.41,0,0,1,1.78-.57c.85.1,5.52.22,29.93-2.21a1.4,1.4,0,0,1,.27,2.78C511.29,254.75,503.49,255.29,499.81,255.29Z" fill="#939598"/>
      </g>
      <g id="path7583-35-3">
        <path d="M157.44,426.61a1.39,1.39,0,0,1-.37-2.74l498.81-135.2a1.4,1.4,0,0,1,.72,2.7L157.8,426.56A1.12,1.12,0,0,1,157.44,426.61Z" fill="#939598"/>
      </g>
      <g id="path7587-97-5">
        <path d="M572.85,314a1.38,1.38,0,0,1-1.2-.69c-.62-1.07-.72-1.26,21.62-28.33a1.4,1.4,0,1,1,2.15,1.78c-18.72,22.68-21,26-21.3,26.44a1.36,1.36,0,0,1-.57.62A1.46,1.46,0,0,1,572.85,314Z" fill="#939598"/>
      </g>
      <g id="path7589-98-9">
        <path d="M601.94,327.89a1.47,1.47,0,0,1-.58-.12C573.06,315,573,314.1,573,313.07a1.43,1.43,0,0,1,.7-1.29,1.4,1.4,0,0,1,1.83.4c.7.52,4.68,3,27,13a1.4,1.4,0,0,1-.57,2.67Z" fill="#939598"/>
      </g>
      <g id="path7583-45-8">
        <path d="M693,425.13a1.49,1.49,0,0,1-.36-.05L193,292.76a1.41,1.41,0,0,1-1-1.71,1.39,1.39,0,0,1,1.71-1L693.31,422.38a1.4,1.4,0,0,1-.35,2.75Z" fill="#939598"/>
      </g>
      <g id="path7587-0-2">
        <path d="M608.5,402.75a1.4,1.4,0,0,1-1.4-1.4c0-1.23,0-1.45,32.89-13.72a1.4,1.4,0,0,1,1,2.62c-27.56,10.28-31.22,12-31.67,12.24A1.39,1.39,0,0,1,608.5,402.75Z" fill="#939598"/>
      </g>
      <g id="path7589-44-6">
        <path d="M626.73,429.33a1.38,1.38,0,0,1-1.13-.58c-18.12-25.22-17.72-26-17.25-26.93a1.46,1.46,0,0,1,2.64.5c.34.8,2.57,4.9,16.87,24.8a1.4,1.4,0,0,1-.31,1.95A1.38,1.38,0,0,1,626.73,429.33Z" fill="#939598"/>
      </g>
      <g id="path7583-26-0">
        <path d="M655.86,559.47a1.38,1.38,0,0,1-1-.4L288.39,194.69a1.4,1.4,0,1,1,2-2L656.85,557.09a1.4,1.4,0,0,1,0,2A1.36,1.36,0,0,1,655.86,559.47Z" fill="#939598"/>
      </g>
      <g id="path7587-93-12">
        <path d="M628.57,507.37l-.23,0c-29-4.87-33.05-5.21-33.55-5.23a1.34,1.34,0,0,1-.84-.18,1.41,1.41,0,0,1-.49-1.92c.62-1,.71-1.24,35.34,4.58a1.4,1.4,0,0,1-.23,2.77Z" fill="#939598"/>
      </g>
      <g id="path7589-8-5">
        <path d="M597.16,534.26a1.39,1.39,0,0,1-1.39-1.25c-3.08-30.91-2.33-31.39-1.47-31.95a1.48,1.48,0,0,1,1.47,0,1.42,1.42,0,0,1,.57,1.79c-.1.86-.22,5.53,2.21,29.92a1.41,1.41,0,0,1-1.25,1.53Z" fill="#939598"/>
      </g>
    </g>
    <g id="круги">
      <path d="M347.9,136.72A80,80,0,1,1,425.2,196,80,80,0,0,1,347.9,136.72Z" fill="#ee342e"/>
      <path d="M214,214a80,80,0,1,1,96.6,12.72A80,80,0,0,1,214,214Z" fill="#e11156"/>
      <path d="M136.72,347.9a80,80,0,1,1,90-37.28A80,80,0,0,1,136.72,347.9Z" fill="#ec008c"/>
      <path d="M136.72,502.49A80,80,0,1,1,196,425.2,80,80,0,0,1,136.72,502.49Z" fill="#92278f"/>
      <path d="M214,636.37a80,80,0,1,1,12.72-96.59A80,80,0,0,1,214,636.37Z" fill="#2e3192"/>
      <path d="M347.9,713.67a80,80,0,1,1-37.28-90A80,80,0,0,1,347.9,713.67Z" fill="#0072bc"/>
      <path d="M502.49,713.67a80,80,0,1,1-77.29-59.31A80,80,0,0,1,502.49,713.67Z" fill="#00aeef"/>
      <path d="M636.37,636.37a80,80,0,1,1-96.59-12.71A80.07,80.07,0,0,1,636.37,636.37Z" fill="#00a99d"/>
      <path d="M713.67,502.49a80,80,0,1,1-90,37.29A80,80,0,0,1,713.67,502.49Z" fill="#00a651"/>
      <path d="M713.67,347.9a80,80,0,1,1-59.31,77.3A80,80,0,0,1,713.67,347.9Z" fill="#87c540"/>
      <path d="M636.37,214a80,80,0,1,1-12.71,96.6A80,80,0,0,1,636.37,214Z" fill="#fff200"/>
      <path d="M502.49,136.72a80,80,0,1,1,37.29,90A80,80,0,0,1,502.49,136.72Z" fill="#f7941d"/>
    </g>
    <g id="ноты">
      <path d="M444.09,132.23h-8.56l-2.4-7.19H417.21l-2.4,7.19H406.3l14-39.95h9.76ZM425.2,101.35l-5.48,16.32h10.95Z" fill="#fff"/>
      <g>
        <path d="M580.24,176.17h-8.56l-2.4-7.19H553.36l-2.4,7.19h-8.51l14-39.95h9.76Zm-18.89-30.88-5.48,16.32h11Z" fill="#fff"/>
        <path d="M614.26,148l-.91,5.59h-6.17l-.85,5.14h6.22l-.92,5.54h-6.27l-1.49,9h-5.82l1.48-9h-5.82l-1.48,9h-5.77l1.49-9h-6.23l.92-5.54h6.28l.85-5.14h-6.33l.91-5.59h6.34l1.48-9h5.76l-1.48,9h5.82l1.49-9h5.82l-1.48,9Zm-19.58,10.73h5.82l.86-5.14h-5.82Z" fill="#fff"/>
      </g>
      <path d="M736.17,446.72a20.78,20.78,0,1,1,0-41.55,20.38,20.38,0,0,1,10,2.54,18.55,18.55,0,0,1,7.17,6.88l-6.79,3.94a10.56,10.56,0,0,0-4.23-4.2,12.49,12.49,0,0,0-6.16-1.51,12.66,12.66,0,0,0-9.42,3.65,14.38,14.38,0,0,0,0,18.9,13.77,13.77,0,0,0,15.61,2.14,10.22,10.22,0,0,0,4.2-4.14l6.79,3.94a18.62,18.62,0,0,1-7.17,6.88A20.37,20.37,0,0,1,736.17,446.72Z" fill="#fff"/>
      <g>
        <path d="M679.67,601.73a20.78,20.78,0,1,1,0-41.55,20.38,20.38,0,0,1,10,2.54,18.59,18.59,0,0,1,7.16,6.88l-6.79,3.94a10.53,10.53,0,0,0-4.22-4.2,13.72,13.72,0,0,0-15.58,2.14,14.37,14.37,0,0,0,0,18.89,13.76,13.76,0,0,0,15.61,2.15,10.25,10.25,0,0,0,4.19-4.14l6.79,3.94a18.56,18.56,0,0,1-7.16,6.87A20.27,20.27,0,0,1,679.67,601.73Z" fill="#fff"/>
        <path d="M732.29,572.79l-.91,5.6h-6.17l-.85,5.14h6.22l-.92,5.53h-6.27l-1.49,9h-5.82l1.48-9h-5.82l-1.48,9h-5.77l1.49-9h-6.22l.91-5.53H707l.85-5.14h-6.33l.91-5.6h6.34l1.48-9H716l-1.48,9h5.82l1.49-9h5.82l-1.48,9Zm-19.58,10.74h5.82l.86-5.14h-5.82Z" fill="#fff"/>
      </g>
      <path d="M565.06,674.06h15.87a18.12,18.12,0,0,1,13.7,5.76,21,21,0,0,1,0,28.43,18.12,18.12,0,0,1-13.7,5.76H565.06Zm7.88,32.42h8a11.14,11.14,0,0,0,8.45-3.42,12.82,12.82,0,0,0,3.25-9,12.48,12.48,0,0,0-3.25-9,11,11,0,0,0-8.45-3.48h-8Z" fill="#fff"/>
      <g>
        <path d="M391.45,716.1h15.86A18.14,18.14,0,0,1,421,721.86a21,21,0,0,1,0,28.43,18.14,18.14,0,0,1-13.71,5.76H391.45Zm7.87,32.42h8a11.1,11.1,0,0,0,8.45-3.43,12.78,12.78,0,0,0,3.26-9,12.48,12.48,0,0,0-3.26-9,11,11,0,0,0-8.45-3.48h-8Z" fill="#fff"/>
        <path d="M462.28,727.91l-.91,5.6H455.2l-.85,5.13h6.22l-.91,5.54h-6.28l-1.49,9h-5.82l1.49-9h-5.82l-1.49,9h-5.76l1.48-9h-6.22l.91-5.54h6.28l.85-5.13h-6.33l.91-5.6h6.34l1.48-9H446l-1.48,9h5.82l1.48-9h5.82l-1.48,9Zm-19.57,10.73h5.82l.85-5.13h-5.82Z" fill="#fff"/>
      </g>
      <path d="M268.38,695.77v9h16.84v7.54H260.5v-40h24.43v7.54H268.38v8.5h15.13v7.42Z" fill="#fff"/>
      <path d="M168,561.61v7.53h-16v9.48h15.53v7.53H152.05v15.41h-7.87V561.61Z" fill="#fff"/>
      <g>
        <path d="M113.69,406v7.53h-16V423h15.53v7.53H97.71v15.42H89.84V406Z" fill="#fff"/>
        <path d="M149.6,417.79l-.92,5.59h-6.16l-.86,5.14h6.22l-.91,5.53h-6.28l-1.48,9h-5.82l1.48-9h-5.82l-1.49,9H121.8l1.48-9h-6.22l.91-5.53h6.28l.86-5.14h-6.34l.92-5.59H126l1.48-9h5.77l-1.48,9h5.82l1.48-9h5.82l-1.48,9ZM130,428.52h5.82l.86-5.14h-5.83Z" fill="#fff"/>
      </g>
      <path d="M157.26,269.39h20v3.08q0,8.56-5.48,13.87t-14.16,5.31a21,21,0,0,1-15.35-6,20,20,0,0,1-6.05-14.72,20.56,20.56,0,0,1,21-20.84,20.81,20.81,0,0,1,10.15,2.52,18.86,18.86,0,0,1,7.26,6.79l-6.74,3.88a10.57,10.57,0,0,0-4.34-4,13.53,13.53,0,0,0-6.39-1.54,12.55,12.55,0,0,0-9.42,3.77,13.82,13.82,0,0,0,.06,18.78q3.71,3.65,9.93,3.65a13.36,13.36,0,0,0,7.54-2,9.89,9.89,0,0,0,4.1-5.59h-12.1Z" fill="#fff"/>
      <g>
        <path d="M252.72,154.71h20v3.08q0,8.57-5.48,13.87T253.12,177a21.05,21.05,0,0,1-15.36-6,20.78,20.78,0,0,1,14.9-35.56,20.87,20.87,0,0,1,10.16,2.51,18.91,18.91,0,0,1,7.25,6.79l-6.74,3.88a10.54,10.54,0,0,0-4.33-4,13.57,13.57,0,0,0-6.4-1.54,12.53,12.53,0,0,0-9.41,3.77,13.81,13.81,0,0,0,.05,18.78q3.72,3.66,9.94,3.65a13.41,13.41,0,0,0,7.53-2,9.91,9.91,0,0,0,4.11-5.6h-12.1Z" fill="#fff"/>
        <path d="M308.48,148l-.91,5.59H301.4l-.85,5.14h6.22l-.91,5.54h-6.28l-1.49,9h-5.82l1.49-9h-5.82l-1.49,9h-5.76l1.48-9H276l.91-5.54h6.28l.85-5.14h-6.33l.91-5.59h6.34l1.48-9h5.77l-1.48,9h5.82l1.48-9h5.82l-1.48,9Zm-19.57,10.73h5.82l.85-5.14h-5.82Z" fill="#fff"/>
      </g>
      <path d="M703.09,270.13a9.89,9.89,0,0,1,5.25,9.13,10.7,10.7,0,0,1-3.6,8.33,12.72,12.72,0,0,1-8.85,3.26H678.94v-40h15.75a12.4,12.4,0,0,1,8.62,3.2,10.38,10.38,0,0,1,3.54,8A9.74,9.74,0,0,1,703.09,270.13Zm-8.4-11.87h-7.87v8.79h7.87a4.1,4.1,0,0,0,3.06-1.26,4.69,4.69,0,0,0,0-6.28A4.11,4.11,0,0,0,694.69,258.26Zm-7.87,25.22h9.07a4.39,4.39,0,0,0,3.31-1.34,4.62,4.62,0,0,0,1.32-3.39,4.57,4.57,0,0,0-1.32-3.34,4.39,4.39,0,0,0-3.31-1.34h-9.07Z" fill="#fff"/>
    </g>
  </g>
</svg>
