<svg enable-background="new 0 0 1636.5 755.5" viewBox="0 0 1636.5 755.5" xmlns="http://www.w3.org/2000/svg"><path d="m98.5 61.3h1v633.3h-1z"/><path d="m99 61.3h363.3v598.8h-363.3z" fill="#ff3100" opacity=".12"/><path d="m462.3 61.3h363.3v598.8h-363.3z" fill="#fff500" opacity=".12"/><path d="m825.7 61.3h363.3v598.8h-363.3z" fill="#43ff66" opacity=".12"/><path d="m1189 61.3h363.3v598.8h-363.3z" fill="#00d6f0" opacity=".12"/><path d="m190 158.7c.9-2.5 15.5-44.3 16.3-46.6h10c.8 2.4 15.3 44.1 16.1 46.6h-8c-.9-2.6-12.9-39.9-12.9-39.9h-.7s-12.3 37.2-13.1 39.9zm9.6-11 .7-5.9h22.7l.6 5.9z"/><path d="m232.3 131.6v-5.4h23.6v5.4c-2.2 0-23.6 0-23.6 0zm16.4 27.9c-2.2 0-4.2-.4-5.7-1.1-1.6-.7-2.8-1.9-3.6-3.5s-1.2-3.6-1.2-6.1c0-1.7 0-31.1 0-33.2l6.9-1.4v32.6c0 2.2.4 3.9 1.3 5s2.3 1.7 4.2 1.7c.8 0 1.6-.1 2.5-.4s1.7-.7 2.5-1.3l.5 5.9c-.5.3-1.1.6-1.9.9-.8.2-1.6.4-2.6.6-.9.2-1.9.3-2.9.3z"/><path d="m259.4 131.6v-5.4h23.6v5.4c-2.2 0-23.6 0-23.6 0zm16.4 27.9c-2.2 0-4.2-.4-5.7-1.1-1.6-.7-2.8-1.9-3.6-3.5s-1.2-3.6-1.2-6.1c0-1.7 0-31.1 0-33.2l6.9-1.4v32.6c0 2.2.4 3.9 1.3 5s2.3 1.7 4.2 1.7c.8 0 1.6-.1 2.5-.4s1.7-.7 2.5-1.3l.5 5.9c-.5.3-1.1.6-1.9.9-.8.2-1.6.4-2.6.6-.9.2-1.9.3-2.9.3z"/><path d="m297.8 159.4c-1.9 0-3.5-.4-5-1.1-1.5-.8-2.6-1.8-3.4-3.3-.8-1.4-1.3-3.2-1.3-5.2 0-1.8.3-3.3.9-4.6.6-1.2 1.4-2.2 2.5-3s2.2-1.4 3.4-1.8c1.3-.4 2.5-.8 3.8-.9l9.6-1.5c.1-1.8-.2-3.2-.8-4.2s-1.5-1.6-2.6-2-2.4-.5-3.8-.5c-.7 0-1.5.1-2.4.2s-1.8.3-2.7.5c-.9.3-1.9.6-3 .9-1 .4-2.1.8-3.2 1.3l-.4-6.2c.8-.3 1.7-.6 2.7-.9s2.1-.6 3.3-.8c1.2-.3 2.4-.4 3.6-.6s2.5-.2 3.8-.2c2.6 0 4.8.4 6.6 1.1 1.8.8 3.2 2 4.2 3.6 1 1.7 1.5 3.8 1.5 6.5v22h-6.3l-.4-4.3h-.6c-.6.8-1.4 1.6-2.4 2.4-.9.8-2.1 1.4-3.4 1.9-1.2.5-2.6.7-4.2.7zm2.3-5.6c1 0 2.1-.2 3.1-.7s2-1.1 2.8-2 1.6-1.9 2.3-3.2v-5.8c-.3.2-.7.4-1.3.6-.5.2-1.3.4-2.3.6s-2.5.5-4.3.8c-1.1.2-2 .5-2.7.9-.8.5-1.4 1.1-1.8 1.8s-.6 1.6-.6 2.6c0 1.6.5 2.7 1.5 3.4.8.7 2 1 3.3 1z"/><path d="m339.1 159.4c-3.6 0-6.6-.7-9.1-2.2s-4.4-3.5-5.7-6c-1.3-2.6-2-5.4-2-8.7 0-3.2.6-6.2 1.8-8.7 1.2-2.6 3.1-4.6 5.5-6.1s5.4-2.2 8.9-2.2c1.3 0 2.5.1 3.8.3s2.4.5 3.5.8c1.1.4 2.1.8 2.9 1.3l-.6 6.2c-1.2-.7-2.4-1.2-3.4-1.6-1.1-.4-2-.6-2.9-.8-.9-.1-1.7-.2-2.5-.2-3 0-5.4 1-7.2 2.9-1.8 2-2.7 4.6-2.7 7.9 0 2.1.4 4 1.2 5.7s2.1 3 3.7 4 3.7 1.5 6.1 1.5c.9 0 1.8-.1 2.7-.2.9-.2 1.8-.4 2.6-.8s1.7-.8 2.5-1.3l.5 6.2c-.7.3-1.6.7-2.5 1s-2 .5-3.2.7c-1.1.2-2.4.3-3.9.3z"/><path d="m356.6 158.7c0-2.4 0-45.4 0-47.9l7-.8v48.6h-7zm21.3 0c-1.3-1.4-12.7-13.9-12.7-13.9h-2.4v-4.8h2.6s10.6-12.3 11.9-13.7h8.4c-1.8 1.9-15.7 17.2-15.7 17.2l-.3-3.2 6.1 7c1.8 1.9 9 9.7 10.8 11.6h-8.7z"/><path d="m548.9 158.7c0-2.6 0-44 0-46.6h17.2c3.6 0 6.8.5 9.5 1.6 2.8 1 5.1 2.5 7 4.5s3.4 4.4 4.4 7.3 1.5 6.1 1.5 9.8c0 3.3-.4 6.4-1.3 9.2s-2.3 5.3-4.2 7.5c-1.9 2.1-4.4 3.8-7.5 5s-6.9 1.8-11.4 1.8c-1.9-.1-13.5-.1-15.2-.1zm7.7-6.3h7.5c4 0 7.2-.8 9.6-2.3s4.1-3.6 5.2-6.2c1-2.6 1.6-5.6 1.6-8.9 0-2.5-.3-4.8-.9-6.9s-1.6-3.8-2.8-5.3c-1.3-1.5-2.9-2.6-4.9-3.4s-4.3-1.2-7.1-1.2h-8.1c-.1 1.9-.1 32.6-.1 34.2z"/><path d="m611.8 159.5c-4 0-7.3-.7-9.8-2.2-2.6-1.5-4.5-3.5-5.7-6.1s-1.8-5.5-1.8-8.9c0-3.3.6-6.2 1.8-8.8s2.9-4.5 5.2-6c2.3-1.4 5.1-2.1 8.3-2.1 2.8 0 5.2.5 7.3 1.6 2 1.1 3.6 2.6 4.7 4.7s1.6 4.7 1.6 7.8v2.2c0 .7-.1 1.3-.2 2l-6.1-2.7c0-.3.1-.6.1-1 0-.3 0-.6 0-.9 0-2.7-.7-4.8-2-6.2-1.3-1.5-3.1-2.2-5.2-2.2-1.7 0-3.1.5-4.4 1.4-1.2.9-2.2 2.2-2.9 3.8s-1 3.4-1 5.5v1c0 2.3.4 4.3 1.2 5.9.8 1.7 2 2.9 3.7 3.8 1.6.9 3.7 1.3 6.2 1.3 1 0 2-.1 3.2-.2 1.1-.2 2.3-.4 3.4-.8 1.2-.3 2.2-.8 3.3-1.3l.3 6.1c-.8.4-1.8.8-2.9 1.1s-2.3.6-3.7.8c-1.7.3-3.1.4-4.6.4zm-14.6-15.8v-4.7l21.6-.3 4.2 1.7v3.3z"/><path d="m645.6 159.4c-3.6 0-6.6-.7-9.1-2.2s-4.4-3.5-5.7-6c-1.3-2.6-2-5.4-2-8.7 0-3.2.6-6.2 1.8-8.7 1.2-2.6 3.1-4.6 5.5-6.1s5.4-2.2 8.9-2.2c1.3 0 2.5.1 3.8.3s2.4.5 3.5.8c1.1.4 2.1.8 2.9 1.3l-.6 6.2c-1.2-.7-2.4-1.2-3.4-1.6-1.1-.4-2-.6-2.9-.8-.9-.1-1.7-.2-2.5-.2-3 0-5.4 1-7.2 2.9-1.8 2-2.7 4.6-2.7 7.9 0 2.1.4 4 1.2 5.7s2.1 3 3.7 4 3.7 1.5 6.1 1.5c.9 0 1.8-.1 2.7-.2.9-.2 1.8-.4 2.6-.8s1.7-.8 2.5-1.3l.5 6.2c-.7.3-1.6.7-2.5 1s-2 .5-3.2.7c-1.1.2-2.4.3-3.9.3z"/><path d="m670.8 159.4c-1.9 0-3.5-.4-5-1.1-1.5-.8-2.6-1.8-3.4-3.3-.8-1.4-1.3-3.2-1.3-5.2 0-1.8.3-3.3.9-4.6.6-1.2 1.4-2.2 2.5-3s2.2-1.4 3.4-1.8c1.3-.4 2.5-.8 3.8-.9l9.6-1.5c.1-1.8-.2-3.2-.8-4.2s-1.5-1.6-2.6-2-2.4-.5-3.8-.5c-.7 0-1.5.1-2.4.2s-1.8.3-2.7.5c-.9.3-1.9.6-3 .9-1 .4-2.1.8-3.2 1.3l-.4-6.2c.8-.3 1.7-.6 2.7-.9s2.1-.6 3.3-.8c1.2-.3 2.4-.4 3.6-.6s2.5-.2 3.8-.2c2.6 0 4.8.4 6.6 1.1 1.8.8 3.2 2 4.2 3.6 1 1.7 1.5 3.8 1.5 6.5v22h-6.3l-.4-4.3h-.6c-.6.8-1.4 1.6-2.4 2.4-.9.8-2.1 1.4-3.4 1.9-1.2.5-2.6.7-4.2.7zm2.3-5.6c1 0 2.1-.2 3.1-.7s2-1.1 2.8-2 1.6-1.9 2.3-3.2v-5.8c-.3.2-.7.4-1.3.6-.5.2-1.3.4-2.3.6s-2.5.5-4.3.8c-1.1.2-2 .5-2.7.9-.8.5-1.4 1.1-1.8 1.8s-.6 1.6-.6 2.6c0 1.6.5 2.7 1.5 3.4.8.7 2 1 3.3 1z"/><path d="m699.2 171.5c.9-2.2 4.4-11 5.3-13.2v1.5c-.8-2.2-11.3-31.3-12.2-33.6l7.5-.3c.8 2.7 7.8 25.4 7.8 25.4h.7s7.6-22.6 8.4-25.1h7.4c-.7 1.7-16.7 42.7-17.7 45z"/><path d="m916.1 160.3c-1.9 0-3.9-.2-5.9-.5s-3.8-.8-5.6-1.3c-1.7-.5-3.1-1-4.1-1.6l.6-7.2c1.5.9 3.1 1.6 4.7 2.2s3.2 1.1 4.9 1.4 3.3.5 4.9.5c1.8 0 3.4-.2 4.8-.7s2.5-1.2 3.3-2.2 1.2-2.3 1.2-3.8-.4-2.7-1.3-3.7-2.2-1.8-3.8-2.6c-1.7-.7-3.7-1.4-6-2.1-2.9-.9-5.4-1.9-7.5-3s-3.6-2.5-4.7-4.1c-1.1-1.7-1.6-3.8-1.6-6.4 0-2.5.6-4.8 1.7-6.8 1.2-2 2.9-3.5 5.2-4.7 2.3-1.1 5.2-1.7 8.7-1.7 1.4 0 2.8.1 4.2.3s2.8.5 4.1.8 2.5.7 3.5 1.1c1.1.4 2 .8 2.8 1.3l-.7 7.1c-1.3-.9-2.7-1.6-4.2-2.2s-3-1.1-4.4-1.4-2.8-.5-4-.5c-1.6 0-3.1.2-4.4.7s-2.4 1.1-3.2 2.1c-.8.9-1.2 2.1-1.2 3.5 0 1.3.3 2.4 1 3.3s1.8 1.7 3.3 2.4 3.4 1.4 5.8 2.2c3.7 1.2 6.7 2.4 8.8 3.6 2.2 1.2 3.7 2.6 4.6 4.3.9 1.6 1.4 3.7 1.4 6.1 0 2.6-.6 5-1.7 7-1.2 2-3 3.7-5.5 4.8-2.6 1.2-5.8 1.8-9.7 1.8z"/><path d="m949.5 160.3c-3.4 0-5.9-1-7.5-3s-2.4-4.9-2.4-8.6c0-1.4 0-20.1 0-21.7l7-.3v20.1c0 2.3.4 4.1 1.2 5.3s2.3 1.8 4.4 1.8c1.2 0 2.3-.3 3.3-.8s2-1.2 2.8-2.1 1.6-1.8 2.3-2.9c0 0 0-18.9 0-21.2h7v32.5h-6l-.3-5.6h-.7c-.7 1-1.6 2-2.6 3-1.1 1-2.3 1.8-3.7 2.4-1.4.8-3 1.1-4.8 1.1z"/><path d="m986.7 160.3c-1.4 0-2.8-.1-4.2-.3s-2.7-.5-3.9-.8c-1.2-.4-2.3-.8-3.2-1.2l.5-6.3c1 .6 2 1.1 3.2 1.5s2.4.8 3.6 1c1.3.2 2.5.3 3.8.3 1 0 2-.1 2.9-.3s1.6-.6 2.1-1.2.8-1.5.8-2.6c0-.8-.3-1.4-.8-1.9s-1.3-1-2.5-1.4c-1.1-.4-2.7-.9-4.6-1.4-1.8-.5-3.4-1.1-4.7-1.8s-2.4-1.7-3.1-2.9-1.1-2.8-1.1-4.7c0-3.2 1-5.6 3-7.4 2-1.7 4.7-2.6 8.1-2.6 1.4 0 2.8.1 4.2.3s2.6.5 3.7.9 2.1.7 2.9 1.1l-.6 6.3c-1-.6-2.1-1.2-3.3-1.6s-2.3-.7-3.4-.9-2-.3-2.7-.3c-.8 0-1.7.1-2.4.3-.8.2-1.4.6-1.8 1.2-.5.6-.7 1.3-.7 2.2 0 .7.2 1.4.5 1.9s1 1 1.9 1.4 2.3.9 4 1.4c2.2.6 4.1 1.3 5.6 2s2.7 1.6 3.5 2.7 1.2 2.7 1.2 4.7-.4 3.8-1.3 5.3-2.2 2.8-4.1 3.6c-1.6 1-4.1 1.5-7.1 1.5z"/><path d="m1003 132.4v-5.4h23.6v5.4c-2.2 0-23.6 0-23.6 0zm16.4 27.9c-2.2 0-4.2-.4-5.7-1.1-1.6-.7-2.8-1.9-3.6-3.5s-1.2-3.6-1.2-6.1c0-1.7 0-31.1 0-33.2l6.9-1.4v32.6c0 2.2.4 3.9 1.3 5s2.3 1.7 4.2 1.7c.8 0 1.6-.1 2.5-.4s1.7-.7 2.5-1.3l.5 5.9c-.5.3-1.1.6-1.9.9-.8.2-1.6.4-2.6.6-.9.2-1.9.3-2.9.3z"/><path d="m1041.4 160.2c-1.9 0-3.5-.4-5-1.1s-2.6-1.8-3.4-3.3c-.8-1.4-1.3-3.2-1.3-5.2 0-1.8.3-3.3.9-4.6.6-1.2 1.4-2.2 2.5-3s2.2-1.4 3.4-1.8 2.5-.8 3.8-.9l9.6-1.5c.1-1.8-.2-3.2-.8-4.2s-1.5-1.6-2.6-2c-1.1-.3-2.4-.5-3.8-.5-.7 0-1.5.1-2.4.2s-1.8.3-2.7.5c-.9.3-1.9.6-3 .9-1 .4-2.1.8-3.2 1.3l-.4-6.2c.8-.3 1.7-.6 2.7-.9s2.1-.6 3.3-.8c1.2-.3 2.4-.4 3.6-.6s2.5-.2 3.8-.2c2.6 0 4.8.4 6.6 1.1 1.8.8 3.2 2 4.2 3.6 1 1.7 1.5 3.8 1.5 6.5v22h-6.3l-.4-4.3h-.6c-.6.8-1.4 1.6-2.4 2.4-.9.8-2.1 1.4-3.4 1.9s-2.6.7-4.2.7zm2.3-5.6c1 0 2.1-.2 3.1-.7s2-1.1 2.8-2c.9-.9 1.6-1.9 2.3-3.2v-5.7c-.3.2-.7.4-1.3.6-.5.2-1.3.4-2.3.6s-2.5.5-4.3.8c-1.1.2-2 .5-2.7.9-.8.5-1.4 1.1-1.8 1.8s-.6 1.6-.6 2.6c0 1.6.5 2.7 1.5 3.4.8.6 1.9.9 3.3.9z"/><path d="m1071.6 120.4c-1.4 0-2.5-.4-3.4-1.1s-1.3-1.9-1.3-3.4.4-2.6 1.3-3.3c.9-.8 2-1.1 3.4-1.1 1.5 0 2.6.4 3.4 1.2s1.3 1.9 1.3 3.3c0 1.6-.4 2.7-1.3 3.4-.7.6-1.9 1-3.4 1zm-3.4 39.1c0-2.4 0-30.9 0-32.5l7-.2v32.7z"/><path d="m1085.4 159.5c0-2.4 0-30 0-32.5l6-.4.3 5.9h.7c.7-1 1.6-2 2.7-3s2.3-1.8 3.8-2.4c1.4-.6 3.1-.9 4.9-.9 3.4 0 5.9 1 7.5 2.9 1.6 2 2.4 4.8 2.4 8.6v21.7h-7c0-2.4 0-19.7 0-19.7 0-2.4-.4-4.1-1.2-5.3s-2.3-1.8-4.4-1.8c-1.3 0-2.4.3-3.5.8-1 .5-2 1.2-2.8 2.1s-1.6 1.8-2.3 2.9v21.2h-7.1z"/><path d="m1263.1 159.5c0-2.6 0-44 0-46.6h16.5c3.6 0 6.7.4 9.2 1.3 2.5.8 4.3 2.2 5.6 4.1 1.2 1.9 1.9 4.4 1.9 7.6 0 2.6-.5 5-1.5 7.1s-2.7 3.9-5 5.1c-2.3 1.3-5.4 2-9.3 2l2.7-3.2s16.2 21.5 17.1 22.7h-8.9c-1.4-1.9-16-21.9-16-21.9l4.6 4h-10.8v-6.2h8.5c2.4 0 4.3-.3 5.9-.8 1.6-.6 2.7-1.5 3.5-2.7.8-1.3 1.2-3 1.2-5.1 0-1.7-.3-3.1-.8-4.1s-1.3-1.8-2.1-2.3c-.9-.5-1.8-.8-2.9-1-1-.2-2.1-.2-3.1-.2h-14.1l5.3-5.1v45.4h-7.5z"/><path d="m1319.8 160.3c-4 0-7.3-.7-9.8-2.2-2.6-1.5-4.5-3.5-5.7-6.1s-1.8-5.5-1.8-8.9c0-3.3.6-6.2 1.8-8.8s2.9-4.5 5.2-6c2.3-1.4 5.1-2.1 8.3-2.1 2.8 0 5.2.5 7.3 1.6 2 1.1 3.6 2.6 4.7 4.7s1.6 4.7 1.6 7.8v2.2c0 .7-.1 1.3-.2 2l-6.1-2.7c0-.3.1-.6.1-1 0-.3 0-.6 0-.9 0-2.7-.7-4.8-2-6.2-1.3-1.5-3.1-2.2-5.2-2.2-1.7 0-3.1.5-4.4 1.4-1.2.9-2.2 2.2-2.9 3.8s-1 3.4-1 5.5v1c0 2.3.4 4.3 1.2 5.9s2 2.9 3.7 3.8c1.6.9 3.7 1.3 6.2 1.3 1 0 2-.1 3.2-.2 1.1-.2 2.3-.4 3.4-.8 1.2-.3 2.2-.8 3.3-1.3l.3 6.1c-.8.4-1.8.8-2.9 1.1s-2.3.6-3.7.8c-1.6.3-3.1.4-4.6.4zm-14.6-15.8v-4.8l21.6-.3 4.2 1.7v3.3h-25.8z"/><path d="m1339 159.5c0-2.4 0-45.4 0-47.9l7-.8v48.6h-7z"/><path d="m1371.3 160.3c-4 0-7.3-.7-9.8-2.2-2.6-1.5-4.5-3.5-5.7-6.1s-1.8-5.5-1.8-8.9c0-3.3.6-6.2 1.8-8.8 1.2-2.5 2.9-4.5 5.2-6 2.3-1.4 5.1-2.1 8.3-2.1 2.8 0 5.2.5 7.3 1.6 2 1.1 3.6 2.6 4.7 4.7s1.6 4.7 1.6 7.8v2.2c0 .7-.1 1.3-.2 2l-6.1-2.7c0-.3.1-.6.1-1s0-.6 0-.9c0-2.7-.7-4.8-2-6.2-1.3-1.5-3.1-2.2-5.2-2.2-1.7 0-3.1.5-4.4 1.4-1.2.9-2.2 2.2-2.9 3.8s-1 3.4-1 5.5v1c0 2.3.4 4.3 1.2 5.9.8 1.7 2 2.9 3.7 3.8 1.6.9 3.7 1.3 6.2 1.3 1 0 2-.1 3.2-.2 1.1-.2 2.3-.4 3.4-.8 1.2-.3 2.2-.8 3.3-1.3l.3 6.1c-.8.4-1.8.8-2.9 1.1s-2.3.6-3.7.8c-1.6.3-3.1.4-4.6.4zm-14.6-15.8v-4.8l21.6-.3 4.2 1.7v3.3h-25.8z"/><path d="m1398.2 160.2c-1.9 0-3.5-.4-5-1.1-1.5-.8-2.6-1.8-3.4-3.3-.8-1.4-1.3-3.2-1.3-5.2 0-1.8.3-3.3.9-4.6.6-1.2 1.4-2.2 2.5-3 1-.8 2.2-1.4 3.4-1.8 1.3-.4 2.5-.8 3.8-.9l9.6-1.5c.1-1.8-.2-3.2-.8-4.2s-1.5-1.6-2.6-2-2.4-.5-3.8-.5c-.7 0-1.5.1-2.4.2s-1.8.3-2.7.5c-.9.3-1.9.6-3 .9-1 .4-2.1.8-3.2 1.3l-.4-6.2c.8-.3 1.7-.6 2.7-.9s2.1-.6 3.3-.8 2.4-.4 3.6-.6 2.5-.2 3.8-.2c2.6 0 4.8.4 6.6 1.1 1.8.8 3.2 2 4.2 3.6 1 1.7 1.5 3.8 1.5 6.5v22h-6.3l-.4-4.3h-.6c-.6.8-1.4 1.6-2.4 2.4-.9.8-2.1 1.4-3.4 1.9-1.1.4-2.6.7-4.2.7zm2.3-5.6c1 0 2.1-.2 3.1-.7s2-1.1 2.8-2 1.6-1.9 2.3-3.2v-5.7c-.3.2-.7.4-1.3.6-.5.2-1.3.4-2.3.6s-2.5.5-4.3.8c-1.1.2-2 .5-2.7.9-.8.5-1.4 1.1-1.8 1.8s-.6 1.6-.6 2.6c0 1.6.5 2.7 1.5 3.4s2 .9 3.3.9z"/><path d="m1434.6 160.3c-1.4 0-2.8-.1-4.2-.3s-2.7-.5-3.9-.8c-1.2-.4-2.3-.8-3.2-1.2l.5-6.3c1 .6 2 1.1 3.2 1.5s2.4.8 3.6 1c1.3.2 2.5.3 3.8.3 1 0 2-.1 2.9-.3s1.6-.6 2.1-1.2.8-1.5.8-2.6c0-.8-.3-1.4-.8-1.9s-1.3-1-2.5-1.4c-1.1-.4-2.7-.9-4.6-1.4-1.8-.5-3.4-1.1-4.7-1.8s-2.4-1.7-3.1-2.9-1.1-2.8-1.1-4.7c0-3.2 1-5.6 3-7.4 2-1.7 4.7-2.6 8.1-2.6 1.4 0 2.8.1 4.2.3s2.6.5 3.7.9 2.1.7 2.9 1.1l-.6 6.3c-1-.6-2.1-1.2-3.3-1.6s-2.3-.7-3.4-.9-2-.3-2.7-.3c-.8 0-1.7.1-2.4.3-.8.2-1.4.6-1.8 1.2s-.7 1.3-.7 2.2c0 .7.2 1.4.5 1.9s1 1 1.9 1.4 2.3.9 4 1.4c2.2.6 4.1 1.3 5.6 2s2.7 1.6 3.5 2.7 1.2 2.7 1.2 4.7-.4 3.8-1.3 5.3-2.2 2.8-4.1 3.6c-1.7 1-4.1 1.5-7.1 1.5z"/><path d="m1470.2 160.3c-4 0-7.3-.7-9.8-2.2-2.6-1.5-4.5-3.5-5.7-6.1s-1.8-5.5-1.8-8.9c0-3.3.6-6.2 1.8-8.8s2.9-4.5 5.2-6c2.3-1.4 5.1-2.1 8.3-2.1 2.8 0 5.2.5 7.3 1.6 2 1.1 3.6 2.6 4.7 4.7s1.6 4.7 1.6 7.8v2.2c0 .7-.1 1.3-.2 2l-6.1-2.7c0-.3.1-.6.1-1s0-.6 0-.9c0-2.7-.7-4.8-2-6.2-1.3-1.5-3.1-2.2-5.2-2.2-1.7 0-3.1.5-4.4 1.4-1.2.9-2.2 2.2-2.9 3.8s-1 3.4-1 5.5v1c0 2.3.4 4.3 1.2 5.9.8 1.7 2 2.9 3.7 3.8 1.6.9 3.7 1.3 6.2 1.3 1 0 2-.1 3.2-.2 1.1-.2 2.3-.4 3.4-.8 1.2-.3 2.2-.8 3.3-1.3l.3 6.1c-.8.4-1.8.8-2.9 1.1s-2.3.6-3.7.8c-1.6.3-3.1.4-4.6.4zm-14.6-15.8v-4.8l21.6-.3 4.2 1.7v3.3h-25.8z"/><path d="m82.5 418.2c-1.8.7-34.4 12.8-35.9 13.3v-3.9c2.6-1 32.1-11.6 32.1-11.6v-.4s-29.4-10.6-32.1-11.6v-3.8c1.4.5 34 12.5 35.9 13.2z"/><path d="m83 386.7c0 2-.4 3.8-1.1 5.3s-1.7 2.8-2.9 3.9-2.6 1.9-4.2 2.4-3.2.8-5 .8c-2.5 0-4.7-.5-6.6-1.5s-3.5-2.4-4.6-4.3-1.7-4-1.7-6.5c0-1.9.3-3.6 1-5.2.6-1.5 1.6-2.8 2.7-3.9s2.5-1.9 4.1-2.4 3.3-.8 5.1-.8c2.5 0 4.7.5 6.7 1.5s3.6 2.4 4.7 4.2 1.8 4 1.8 6.5zm-2.9 0c0-2-.5-3.6-1.5-5-1-1.3-2.2-2.3-3.8-3s-3.2-1-5-1c-2 0-3.7.4-5.2 1.1s-2.7 1.7-3.5 3.1c-.8 1.3-1.2 2.9-1.2 4.7 0 2 .4 3.6 1.3 5 .9 1.3 2.1 2.4 3.6 3.1s3.2 1 5 1 3.4-.3 5-1 2.8-1.7 3.8-3 1.5-3 1.5-5z"/><path d="m82.5 367.1c-1.9 0-34.9 0-36.8 0l-.5-3.2h37.3z"/><path d="m83 347.6c0 2.7-.8 4.6-2.3 5.8s-3.8 1.8-6.6 1.8c-1.1 0-15.3 0-16.5 0l-.1-3.2h16c2.1 0 3.8-.4 4.9-1.2s1.6-2.2 1.6-4.2c0-1.2-.2-2.2-.7-3.2s-1.2-1.9-2-2.7-1.7-1.5-2.8-2.2c0 0-15 0-16.9 0v-3.2h24.9v2.9l-4.5.1v.4c.7.5 1.5 1.2 2.3 2s1.4 1.8 2 3c.4 1.2.7 2.5.7 3.9z"/><path d="m82.5 294.6c-1.9 0-15.8 0-15.8 0-2.1 0-3.8.4-4.9 1.1s-1.6 2-1.6 4c0 1.2.2 2.2.7 3.2.5.9 1.2 1.8 2 2.6s1.7 1.5 2.8 2.1l-3.5.5v-.4c-.8-.6-1.6-1.3-2.3-2.1-.8-.8-1.4-1.8-2-2.9-.5-1.1-.8-2.4-.8-3.9 0-2.6.8-4.5 2.4-5.6s3.8-1.7 6.6-1.7h16.5v3.1zm0 32c-1.9 0-23 0-24.9 0l-.2-2.9 4.7-.1v-.4c-.7-.5-1.5-1.2-2.2-2s-1.4-1.8-1.9-2.9-1-2.3-1-3.7c0-2.1.5-3.7 1.5-4.8s2.5-1.8 4.4-2.1l.2-.2c.4-.1.9-.1 1.3-.2.5 0 1-.1 1.5-.1h16.5v3.2c-1.9 0-15.8 0-15.8 0-2.1 0-3.8.4-4.9 1.1s-1.6 2-1.6 4c0 1.2.3 2.2.8 3.2.5.9 1.2 1.8 2 2.6s1.7 1.5 2.7 2.1h16.9z"/><path d="m83 271.8c0 2.9-.6 5.3-1.7 7.2s-2.7 3.3-4.7 4.2-4.2 1.4-6.8 1.4c-2.5 0-4.7-.5-6.7-1.4-1.9-.9-3.5-2.2-4.6-3.9s-1.6-3.7-1.6-6c0-2 .4-3.8 1.2-5.3s2-2.7 3.6-3.5 3.5-1.2 5.8-1.2h1.6c.5 0 1 .1 1.5.2l-1.7 2.9c-.3 0-.5-.1-.8-.1s-.5 0-.7 0c-2.6 0-4.6.6-5.9 1.9s-1.9 3-1.9 5c0 1.7.4 3.2 1.3 4.4.8 1.2 2 2.1 3.5 2.8 1.5.6 3.2 1 5.1 1h.4c2.1 0 3.9-.4 5.4-1.1s2.7-1.8 3.5-3.2 1.2-3.3 1.2-5.5c0-.8-.1-1.7-.2-2.5-.1-.9-.3-1.7-.6-2.6s-.6-1.7-1.1-2.5l3-.2c.4.6.7 1.4.9 2.2.3.8.5 1.8.6 2.7.3 1.1.4 2.1.4 3.1zm-12.3 11.5h-2.5v-17.7l.6-2.1h1.9z"/><path d="m787.6 712.6c0-2 0-33.4 0-35.4l1.4 2.7s-12.7 0-14.1 0v-3.2h28.9v3.2c-1.4 0-14.1 0-14.1 0l1.5-2.7v35.4z"/><path d="m811.6 681.4c-.8 0-1.4-.2-1.9-.7s-.7-1.1-.7-2.1c0-.9.2-1.6.7-2.1s1.1-.7 1.9-.7 1.4.2 1.9.7.7 1.2.7 2c0 .9-.2 1.6-.7 2.1s-1 .8-1.9.8zm-1.5 31.2c0-1.9 0-23.7 0-24.9l3.2-.1v25z"/><path d="m822.7 712.6c0-1.9 0-23 0-24.9l2.9-.2.1 4.7h.4c.5-.7 1.2-1.5 2-2.2s1.8-1.4 2.9-1.9 2.4-.8 3.8-.8c2.1 0 3.7.5 4.8 1.5s1.8 2.5 2.1 4.4l.2.2c.1.4.1.9.2 1.3 0 .5.1 1 .1 1.5v16.5h-3.2c0-1.9 0-15.8 0-15.8 0-2.1-.4-3.8-1.1-4.9s-2-1.6-4-1.6c-1.2 0-2.2.3-3.2.8-.9.5-1.8 1.2-2.6 2s-1.5 1.7-2.1 2.7v16.9h-3.3zm32 0c0-1.9 0-15.8 0-15.8 0-2.1-.4-3.8-1.1-4.9s-2-1.6-4-1.6c-1.2 0-2.2.2-3.2.7-.9.5-1.8 1.2-2.6 2s-1.5 1.7-2.1 2.8l-.5-3.5h.4c.6-.8 1.3-1.6 2.1-2.3.8-.8 1.8-1.4 2.9-2 1.1-.5 2.4-.8 3.9-.8 2.6 0 4.5.8 5.6 2.4s1.7 3.8 1.7 6.6v16.5h-3.1z"/><path d="m877.5 713.1c-2.9 0-5.3-.6-7.2-1.7s-3.3-2.7-4.2-4.7-1.4-4.2-1.4-6.8c0-2.5.5-4.7 1.4-6.7.9-1.9 2.2-3.5 3.9-4.6s3.7-1.6 6-1.6c2 0 3.8.4 5.3 1.2s2.7 2 3.5 3.6 1.2 3.5 1.2 5.8v1.6c0 .5-.1 1-.2 1.5l-2.9-1.7c0-.3.1-.5.1-.8s0-.5 0-.7c0-2.6-.6-4.6-1.9-5.9s-3-1.9-5-1.9c-1.7 0-3.2.4-4.4 1.3-1.2.8-2.1 2-2.8 3.5-.6 1.5-1 3.2-1 5.1v.4c0 2.1.4 3.9 1.1 5.4s1.8 2.7 3.2 3.5 3.3 1.2 5.5 1.2c.8 0 1.7-.1 2.5-.2.9-.1 1.7-.3 2.6-.6s1.7-.6 2.5-1.1l.2 3c-.6.4-1.4.7-2.2.9-.8.3-1.8.5-2.7.6-1 .3-2.1.4-3.1.4zm-11.5-12.3v-2.5h17.7l2.1.6v1.9z"/><path d="m1552.3 665.8c-72.6 0-137.1-10.6-191.7-31.6-43.9-16.8-81.6-40.4-112-69.9-52-50.5-64.6-100.5-65.1-102.6-.7-3 1.1-6.1 4.2-6.8 3-.7 6.1 1.1 6.8 4.2.1.5 12.5 49.4 62.5 97.6 29.3 28.3 65.7 50.9 108.2 67.1 53.2 20.3 116.2 30.6 187.2 30.6 3.1 0 5.7 2.5 5.7 5.7s-2.6 5.7-5.8 5.7z" fill="#00f3ff"/><path d="m1189 466.1h-363.3c-3.1 0-5.7-2.5-5.7-5.7s2.5-5.7 5.7-5.7h363.3c3.1 0 5.7 2.5 5.7 5.7s-2.6 5.7-5.7 5.7z" fill="#0dff00"/><path d="m825.7 466.1c-66.7 0-124.4-7.4-171.8-21.9-41.1-12.6-75.7-31.1-102.8-54.8-49.9-43.8-67.1-98.6-79.7-138.7-4.9-15.5-9-28.8-14.2-39.1-1.4-2.8-.3-6.2 2.5-7.6s6.2-.3 7.6 2.5c5.5 11.1 9.8 24.8 14.8 40.8 12.8 40.9 28.8 91.9 76.3 133.6 25.9 22.7 59.1 40.4 98.6 52.5 46.2 14.2 102.9 21.4 168.4 21.4 3.1 0 5.7 2.5 5.7 5.7s-2.3 5.6-5.4 5.6z" fill="#f2ff00"/><path d="m99 665.8c-1.1 0-2.2-.3-3.2-1-2.6-1.8-3.2-5.3-1.4-7.9.8-1.1 79.2-114.1 162.8-225.7 153-204.2 190.4-227.8 205.2-227.8 3.1 0 5.7 2.5 5.7 5.7s-2.5 5.7-5.7 5.7c-4.4 0-20.5 6.7-73.8 68.5-32.2 37.3-73.3 89.4-122.3 154.8-83.5 111.4-161.8 224.2-162.6 225.4-1.1 1.5-2.9 2.3-4.7 2.3z" fill="#ff3100"/><path d="m57.4 659.7h1494.9v1h-1494.9z"/><g opacity=".09"><path d="m147.6 560.3c5.1-15.6 90.1-275 94.9-289.7h86.1c4.9 15.2 89.2 274.2 94.2 289.7h-69.1c-4.3-15.4-66.4-233-66.4-233h-4.9s-63.4 217.7-67.8 233zm69.9-60.5 7.1-50h129.4l5.7 50z"/><path d="m529.4 560.3c0-15.6 0-273.8 0-289.7h115.2c22.1 0 41.7 3.2 58.9 9.5 17.2 6.4 31.7 15.7 43.6 28 11.8 12.3 20.9 27.4 27.1 45.2s9.3 38.2 9.3 61c0 20.4-2.7 39.5-8.2 57.2s-14.2 33.1-26.2 46.4-27.8 23.6-47.4 31.1c-19.6 7.4-43.6 11.2-71.9 11.2-13 .1-90.1.1-100.4.1zm66.9-53.4h33.3c20.9 0 37.4-4.1 49.7-12.2s21.1-19.2 26.5-33.3 8.1-30 8.1-47.7c0-13.4-1.6-25.6-4.8-36.6s-8.1-20.4-14.6-28.3c-6.6-7.9-14.9-14-25.1-18.3s-22.3-6.4-36.4-6.4h-36.8c.1 9.1.1 174.1.1 182.8z"/><path d="m1012.7 565.6c-11.9 0-24.2-1-36.9-3s-24.5-4.6-35.5-7.7-20-6.2-26.9-9.3l4.7-58.9c9.5 5.3 19.4 9.8 29.7 13.5s20.5 6.6 30.7 8.6 20 3 29.5 3c9.2 0 17.3-1.1 24.2-3.4s12.3-5.7 16.1-10.5c3.9-4.7 5.8-10.8 5.8-18.3 0-7.6-2.5-13.8-7.4-18.8-4.9-4.9-12.1-9.3-21.3-13-9.3-3.7-20.3-7.4-33-11.1-17.5-5.1-32.5-11.1-45-18-12.5-6.8-22.1-15.6-28.7-26.4s-10-24.6-10-41.5c0-17.1 3.7-32 11.2-44.9 7.4-12.9 18.7-23 33.8-30.3s34.2-11 57.2-11c8.9 0 18 .6 27.1 1.7 9.1 1.2 18 2.7 26.5 4.6s16.5 4.1 23.9 6.5 13.8 5 19.2 7.7l-5.1 58.9c-8.7-5.4-17.6-10-26.9-13.6-9.3-3.7-18.4-6.5-27.4-8.4-9-2-17.2-2.9-24.5-2.9-8.3 0-15.7 1.2-22.3 3.5s-12 5.7-15.9 10.1c-4 4.4-6 10-6 16.8 0 6.6 1.9 12.2 5.6 16.8 3.7 4.5 9.5 8.5 17.3 12s17.8 7 30.2 10.7c23.2 6.9 41.4 14.1 54.8 21.6s22.9 16.6 28.5 27.1c5.6 10.6 8.4 23.8 8.4 39.6 0 17.9-3.9 33.4-11.6 46.6s-19.8 23.5-36.2 30.8c-16.6 7.2-37.8 10.9-63.8 10.9z"/><path d="m1260.1 560.3c0-15.7 0-273.8 0-289.7h110.9c23.7 0 43.7 2.6 60 7.8s28.7 13.9 37.2 26 12.7 28.7 12.7 49.9c0 16.7-3.3 31.6-9.9 44.9s-17.1 23.8-31.6 31.5-33.4 11.6-56.9 11.8l25.8-24.8s91.6 135.1 96.5 142.6h-75.8c-7.3-11.4-88-137.1-88-137.1l40 30.3h-67.6v-47.7h48.5c10.7 0 19.7-1.3 27.1-4 7.4-2.6 13-7.1 17-13.5 3.9-6.4 5.9-15 5.9-26 0-8.4-1.3-15.1-3.8-20.1s-5.8-8.9-10-11.8c-4.1-2.8-8.7-4.8-13.7-5.9s-10.2-1.6-15.4-1.6h-91l47.5-41.6v279.1h-65.4z"/></g></svg>