<svg id="Layer_1" data-name="Layer 1" xmlns="http://www.w3.org/2000/svg" viewBox="0 0 770 250.18">
  <path d="M116.05,160.46h13.81v.7H116.05Z"/>
  <path d="M63.05,160.46H76.86v.7H63.05Z"/>
  <g>
    <path d="M15,168.21H755v.7H15Z"/>
    <path d="M15,176H755v.7H15Z"/>
    <path d="M15,183.71H755v.7H15Z"/>
    <path d="M15,191.46H755v.7H15Z"/>
    <path d="M15,199.21H755v.7H15Z"/>
  </g>
  <path d="M700.68,68.13h13.81v.7H700.68Z"/>
  <g>
    <path d="M15,75.88H755v.7H15Z"/>
    <path d="M15,83.63H755v.7H15Z"/>
    <path d="M15,91.38H755v.7H15Z"/>
    <path d="M15,99.13H755v.7H15Z"/>
    <path d="M15,106.88H755v.7H15Z"/>
  </g>
  <g style="isolation: isolate">
    <g style="isolation: isolate">
      <path d="M90.35,45.43a11.17,11.17,0,0,1-4.16-.73A9,9,0,0,1,83,42.63a9.2,9.2,0,0,1-2-3.16,11.24,11.24,0,0,1-.69-4,11,11,0,0,1,1.19-5.16,8.76,8.76,0,0,1,3.35-3.53A9.72,9.72,0,0,1,90,25.5a14.14,14.14,0,0,1,1.85.12,17.42,17.42,0,0,1,1.72.35,15.78,15.78,0,0,1,1.51.49,9,9,0,0,1,1.23.56L96,30a12.45,12.45,0,0,0-2-1,10.9,10.9,0,0,0-1.92-.57,9.49,9.49,0,0,0-1.81-.18,6.65,6.65,0,0,0-3.41.87,6.08,6.08,0,0,0-2.35,2.49,8.19,8.19,0,0,0-.85,3.87,8.68,8.68,0,0,0,.44,2.82,6.81,6.81,0,0,0,1.31,2.32,6.24,6.24,0,0,0,2.2,1.58,7.75,7.75,0,0,0,3.07.57A9.94,9.94,0,0,0,92,42.67a9.09,9.09,0,0,0,1.34-.27,8,8,0,0,0,1.32-.52A8.61,8.61,0,0,0,96,41.11l.22,3a8.79,8.79,0,0,1-1.27.61,10.63,10.63,0,0,1-1.45.42,12.85,12.85,0,0,1-1.55.24A14.11,14.11,0,0,1,90.35,45.43Z"/>
      <path d="M99.7,45.11V25.35l2.89-.31v8.74h.27a7,7,0,0,1,1-1.12,5.06,5.06,0,0,1,1.46-.93,4.58,4.58,0,0,1,1.91-.38,3.79,3.79,0,0,1,3.1,1.22,5.47,5.47,0,0,1,1,3.56v9h-2.89V37a4,4,0,0,0-.5-2.2,2.06,2.06,0,0,0-1.84-.74,3.22,3.22,0,0,0-1.43.31,4.61,4.61,0,0,0-1.17.85,7.41,7.41,0,0,0-1,1.19v8.73Z"/>
      <path d="M115.23,45.11V31.69l2.47-.16.11,2.65h.27a5.24,5.24,0,0,1,1.22-1.8,3.68,3.68,0,0,1,1.41-.82,4.76,4.76,0,0,1,1.33-.21,4.59,4.59,0,0,1,.73.06,3.29,3.29,0,0,1,.72.17l-.26,2.87c-.31-.06-.6-.1-.85-.13s-.54,0-.86,0a4.54,4.54,0,0,0-.84.1,2.78,2.78,0,0,0-.92.42,3.27,3.27,0,0,0-.89.92,5.9,5.9,0,0,0-.75,1.61v7.78Z"/>
      <path d="M131.67,45.43a7.27,7.27,0,0,1-3-.58,6.1,6.1,0,0,1-2.17-1.57,6.5,6.5,0,0,1-1.3-2.27,8.23,8.23,0,0,1-.44-2.68,7.71,7.71,0,0,1,.81-3.58,6.12,6.12,0,0,1,2.35-2.49,7.27,7.27,0,0,1,3.72-.91,7.74,7.74,0,0,1,2.94.53,5.87,5.87,0,0,1,2.15,1.48A6.36,6.36,0,0,1,138,35.58a8.18,8.18,0,0,1,.44,2.75,7.93,7.93,0,0,1-.81,3.62,6.25,6.25,0,0,1-2.34,2.55A6.9,6.9,0,0,1,131.67,45.43Zm0-2.43a3.47,3.47,0,0,0,2.16-.66,4.19,4.19,0,0,0,1.29-1.74,6.14,6.14,0,0,0,.42-2.27,5.63,5.63,0,0,0-.48-2.41,3.91,3.91,0,0,0-5.57-1.54A3.8,3.8,0,0,0,128.14,36a6.11,6.11,0,0,0,0,4.58,4.09,4.09,0,0,0,1.32,1.74A3.58,3.58,0,0,0,131.66,43Z"/>
      <path d="M141.75,45.11V31.69l2.47-.16.11,2.42h.29a7.34,7.34,0,0,1,1.06-1.22,5.75,5.75,0,0,1,1.49-1,4.56,4.56,0,0,1,2-.4,3.55,3.55,0,0,1,2.5.81,4,4,0,0,1,1.14,2.3l.19.07c0,.24.07.49.1.76s0,.55,0,.84v9H150.2V37a4.18,4.18,0,0,0-.47-2.2A1.9,1.9,0,0,0,148,34a2.8,2.8,0,0,0-1.35.32,4.48,4.48,0,0,0-1.11.86,6.94,6.94,0,0,0-.89,1.17v8.73Zm16.81,0V37a4.08,4.08,0,0,0-.48-2.2,1.87,1.87,0,0,0-1.72-.74,3,3,0,0,0-1.36.31,4.32,4.32,0,0,0-1.11.85,7.74,7.74,0,0,0-.9,1.19L152.57,34h.28A9.25,9.25,0,0,1,154,32.74a5.6,5.6,0,0,1,1.53-1,4.7,4.7,0,0,1,2-.4,3.55,3.55,0,0,1,3,1.25,5.71,5.71,0,0,1,.94,3.53v9Z"/>
      <path d="M168.5,45.39a4.39,4.39,0,0,1-2.05-.46A3.45,3.45,0,0,1,165,43.58a4.16,4.16,0,0,1-.52-2.16,4.12,4.12,0,0,1,.39-1.88,3.47,3.47,0,0,1,1-1.25,5,5,0,0,1,1.41-.75,8.89,8.89,0,0,1,1.58-.39l4-.63a2.85,2.85,0,0,0-.33-1.71,1.85,1.85,0,0,0-1.08-.81,5.36,5.36,0,0,0-1.57-.22,9,9,0,0,0-1,.07,10,10,0,0,0-1.12.22c-.39.11-.8.23-1.23.38a14.14,14.14,0,0,0-1.32.54l-.16-2.57c.33-.13.71-.26,1.12-.39s.86-.24,1.35-.35a13.65,13.65,0,0,1,1.49-.23,13.36,13.36,0,0,1,1.56-.08,7.18,7.18,0,0,1,2.73.47,3.56,3.56,0,0,1,1.74,1.5,5.21,5.21,0,0,1,.61,2.68v9.09h-2.61l-.16-1.78h-.25a6.43,6.43,0,0,1-1,1,5,5,0,0,1-3.18,1.09Zm.94-2.29a3.1,3.1,0,0,0,1.28-.29,4,4,0,0,0,1.17-.83,5.14,5.14,0,0,0,.93-1.31V38.29a2.87,2.87,0,0,1-.52.23,9.2,9.2,0,0,1-1,.25c-.43.09-1,.2-1.79.33a3.27,3.27,0,0,0-1.13.39,2.1,2.1,0,0,0-.74.74,2.15,2.15,0,0,0-.26,1.07,1.55,1.55,0,0,0,.6,1.39A2.46,2.46,0,0,0,169.44,43.1Z"/>
      <path d="M178,33.92V31.69h9.75v2.23H178Zm6.81,11.51a5.63,5.63,0,0,1-2.37-.45A3.15,3.15,0,0,1,181,43.54a5.36,5.36,0,0,1-.5-2.51V27.33l2.84-.57V40.24a3.26,3.26,0,0,0,.56,2.07,2.08,2.08,0,0,0,1.73.69,3.66,3.66,0,0,0,1-.16,3.57,3.57,0,0,0,1-.52l.21,2.43a3.45,3.45,0,0,1-.79.35,6.23,6.23,0,0,1-1.07.25A7.84,7.84,0,0,1,184.85,45.43Z"/>
      <path d="M192.18,29a2.08,2.08,0,0,1-1.4-.45,1.74,1.74,0,0,1-.53-1.42,1.74,1.74,0,0,1,.53-1.38,2.08,2.08,0,0,1,1.42-.47,2,2,0,0,1,1.43.48,1.82,1.82,0,0,1,.52,1.37,1.77,1.77,0,0,1-.53,1.42A2.14,2.14,0,0,1,192.18,29Zm-1.41,16.15V31.69l2.89-.09V45.11Z"/>
      <path d="M203.92,45.38a7.25,7.25,0,0,1-3.76-.91A6.06,6.06,0,0,1,197.81,42,7.73,7.73,0,0,1,197,38.4a8.2,8.2,0,0,1,.76-3.6A5.82,5.82,0,0,1,200,32.29a6.83,6.83,0,0,1,3.67-.92,9.12,9.12,0,0,1,1.56.13,9.44,9.44,0,0,1,1.46.35,6.58,6.58,0,0,1,1.22.52l-.25,2.56a8,8,0,0,0-1.41-.66,7.45,7.45,0,0,0-1.2-.32,6.33,6.33,0,0,0-1-.08,3.89,3.89,0,0,0-3,1.2,4.61,4.61,0,0,0-1.12,3.26,5.32,5.32,0,0,0,.51,2.37A3.84,3.84,0,0,0,202,42.34a4.85,4.85,0,0,0,2.54.61,5.92,5.92,0,0,0,1.1-.1,6.12,6.12,0,0,0,1.09-.31,5.64,5.64,0,0,0,1-.54l.2,2.58a6.61,6.61,0,0,1-1.05.4,8.94,8.94,0,0,1-1.34.29A11.5,11.5,0,0,1,203.92,45.38Z"/>
      <path d="M220.27,45.42a12.61,12.61,0,0,1-1.74-.12,12.18,12.18,0,0,1-1.6-.34,9.4,9.4,0,0,1-1.32-.5l.22-2.62a8,8,0,0,0,1.32.62,9.07,9.07,0,0,0,1.49.4,8.23,8.23,0,0,0,1.56.14,5.68,5.68,0,0,0,1.2-.12,1.65,1.65,0,0,0,.87-.5,1.55,1.55,0,0,0,.33-1.08,1.06,1.06,0,0,0-.31-.78,2.66,2.66,0,0,0-1-.56c-.47-.17-1.11-.36-1.92-.59a9.22,9.22,0,0,1-2-.74,3.37,3.37,0,0,1-1.29-1.19,3.72,3.72,0,0,1-.45-2,3.77,3.77,0,0,1,1.25-3,5,5,0,0,1,3.36-1.08,10.82,10.82,0,0,1,1.73.14,11.5,11.5,0,0,1,1.53.36,8.26,8.26,0,0,1,1.18.47L224.49,35a7.26,7.26,0,0,0-1.34-.66,10.37,10.37,0,0,0-1.38-.39,6.64,6.64,0,0,0-1.12-.13,3.32,3.32,0,0,0-1,.15,1.37,1.37,0,0,0-1,1.41,1.35,1.35,0,0,0,.22.78,1.85,1.85,0,0,0,.79.59,11,11,0,0,0,1.66.57,17.9,17.9,0,0,1,2.32.82,3.49,3.49,0,0,1,1.44,1.14,3.39,3.39,0,0,1,.48,1.94,4.4,4.4,0,0,1-.54,2.2,3.6,3.6,0,0,1-1.7,1.5A7.19,7.19,0,0,1,220.27,45.42Z"/>
      <path d="M234.73,45.38a7.25,7.25,0,0,1-3.76-.91A6.08,6.08,0,0,1,228.61,42a7.73,7.73,0,0,1-.81-3.58,8.34,8.34,0,0,1,.76-3.6,5.79,5.79,0,0,1,2.26-2.51,6.79,6.79,0,0,1,3.66-.92,9,9,0,0,1,1.56.13,9.29,9.29,0,0,1,1.47.35,6.47,6.47,0,0,1,1.21.52l-.24,2.56a8,8,0,0,0-1.41-.66,7.55,7.55,0,0,0-1.21-.32,6.29,6.29,0,0,0-1-.08,3.87,3.87,0,0,0-3,1.2,4.61,4.61,0,0,0-1.12,3.26,5.32,5.32,0,0,0,.51,2.37,3.84,3.84,0,0,0,1.53,1.64,4.81,4.81,0,0,0,2.53.61,6,6,0,0,0,1.11-.1,6.12,6.12,0,0,0,1.09-.31,6,6,0,0,0,1-.54l.2,2.58a7.44,7.44,0,0,1-1.05.4,8.94,8.94,0,0,1-1.34.29A11.61,11.61,0,0,1,234.73,45.38Z"/>
      <path d="M245.12,45.39a4.42,4.42,0,0,1-2.05-.46,3.42,3.42,0,0,1-1.42-1.35,4.16,4.16,0,0,1-.52-2.16,4.12,4.12,0,0,1,.38-1.88,3.69,3.69,0,0,1,1-1.25,5.07,5.07,0,0,1,1.42-.75,8.89,8.89,0,0,1,1.58-.39l4-.63a2.85,2.85,0,0,0-.33-1.71A1.91,1.91,0,0,0,248.1,34a5.41,5.41,0,0,0-1.57-.22,9.19,9.19,0,0,0-1,.07,11,11,0,0,0-1.12.22c-.39.11-.8.23-1.22.38a14.14,14.14,0,0,0-1.32.54l-.16-2.57c.33-.13.7-.26,1.12-.39s.86-.24,1.34-.35a14,14,0,0,1,1.49-.23,13.64,13.64,0,0,1,1.57-.08,7.21,7.21,0,0,1,2.73.47,3.65,3.65,0,0,1,1.74,1.5,5.32,5.32,0,0,1,.6,2.68v9.09h-2.6l-.16-1.78h-.26a6,6,0,0,1-1,1,4.78,4.78,0,0,1-1.39.78A4.84,4.84,0,0,1,245.12,45.39Zm.95-2.29a3.05,3.05,0,0,0,1.27-.29,4,4,0,0,0,1.17-.83,5.14,5.14,0,0,0,.93-1.31V38.29a2.58,2.58,0,0,1-.52.23,9.2,9.2,0,0,1-.95.25c-.42.09-1,.2-1.78.33a3.4,3.4,0,0,0-1.14.39,2.07,2.07,0,0,0-.73.74,2,2,0,0,0-.26,1.07,1.55,1.55,0,0,0,.6,1.39A2.46,2.46,0,0,0,246.07,43.1Z"/>
      <path d="M256.15,45.11V25.35L259,25V45.11Z"/>
      <path d="M269.5,45.42a8,8,0,0,1-4.06-.92A5.71,5.71,0,0,1,263.08,42a8.34,8.34,0,0,1-.76-3.66,8.43,8.43,0,0,1,.74-3.61,5.57,5.57,0,0,1,2.15-2.47,6.34,6.34,0,0,1,3.43-.88,6.51,6.51,0,0,1,3,.65A4.54,4.54,0,0,1,273.57,34a7,7,0,0,1,.67,3.22c0,.34,0,.65,0,.92a5.71,5.71,0,0,1-.09.82l-2.52-1.11c0-.13,0-.27,0-.4s0-.25,0-.37a3.65,3.65,0,0,0-.83-2.57,2.77,2.77,0,0,0-2.16-.91,3,3,0,0,0-1.81.56,3.72,3.72,0,0,0-1.2,1.56,5.71,5.71,0,0,0-.42,2.27v.43a5.58,5.58,0,0,0,.49,2.45,3.45,3.45,0,0,0,1.51,1.58,5.34,5.34,0,0,0,2.57.56,9.53,9.53,0,0,0,2.73-.42,6.73,6.73,0,0,0,1.35-.56l.11,2.52a6.83,6.83,0,0,1-1.2.47,11.92,11.92,0,0,1-1.52.32A14.29,14.29,0,0,1,269.5,45.42Zm-6-6.49V37l8.93-.11,1.72.71v1.37Z"/>
      <path d="M281.1,33.92V31.69h9.56v2.23H281.1Zm2.43,11.19v-15a6.63,6.63,0,0,1,.4-2.49A3.86,3.86,0,0,1,285.05,26a4.28,4.28,0,0,1,1.62-.82,7.29,7.29,0,0,1,1.95-.25,8.5,8.5,0,0,1,1,.05,5.63,5.63,0,0,1,.91.14,4.7,4.7,0,0,1,.67.19L291,27.78a5.77,5.77,0,0,0-.95-.26,5.69,5.69,0,0,0-1-.09,2.78,2.78,0,0,0-2.06.67,2.86,2.86,0,0,0-.65,2v1.54l.11.57V45.11Z"/>
      <path d="M293.4,45.11V31.69l2.47-.16.11,2.65h.27a5.38,5.38,0,0,1,1.22-1.8,3.68,3.68,0,0,1,1.41-.82,4.76,4.76,0,0,1,1.33-.21,4.59,4.59,0,0,1,.73.06,3.29,3.29,0,0,1,.72.17l-.26,2.87c-.31-.06-.6-.1-.85-.13s-.54,0-.86,0a4.54,4.54,0,0,0-.84.1,2.78,2.78,0,0,0-.92.42,3.27,3.27,0,0,0-.89.92,5.9,5.9,0,0,0-.75,1.61v7.78Z"/>
      <path d="M309.84,45.43a7.27,7.27,0,0,1-3-.58,6.1,6.1,0,0,1-2.17-1.57,6.5,6.5,0,0,1-1.3-2.27,8.22,8.22,0,0,1-.43-2.68,7.71,7.71,0,0,1,.81-3.58,6,6,0,0,1,2.34-2.49,7.27,7.27,0,0,1,3.72-.91,7.74,7.74,0,0,1,2.94.53,5.87,5.87,0,0,1,2.15,1.48,6.36,6.36,0,0,1,1.32,2.22,8.18,8.18,0,0,1,.44,2.75,7.93,7.93,0,0,1-.81,3.62,6.25,6.25,0,0,1-2.34,2.55A6.9,6.9,0,0,1,309.84,45.43Zm0-2.43a3.47,3.47,0,0,0,2.16-.66,4.19,4.19,0,0,0,1.29-1.74,6.14,6.14,0,0,0,.42-2.27,5.63,5.63,0,0,0-.48-2.41,3.91,3.91,0,0,0-5.57-1.54A3.8,3.8,0,0,0,306.31,36a6.11,6.11,0,0,0,0,4.58,4.09,4.09,0,0,0,1.32,1.74A3.58,3.58,0,0,0,309.83,43Z"/>
      <path d="M319.92,45.11V31.69l2.47-.16L322.5,34h.29a7.34,7.34,0,0,1,1.06-1.22,5.75,5.75,0,0,1,1.49-1,4.58,4.58,0,0,1,2-.4,3.52,3.52,0,0,1,2.49.81,4,4,0,0,1,1.14,2.3l.19.07c0,.24.07.49.1.76s0,.55,0,.84v9h-2.87V37a4.08,4.08,0,0,0-.48-2.2,1.9,1.9,0,0,0-1.74-.74,2.8,2.8,0,0,0-1.35.32,4.48,4.48,0,0,0-1.11.86,6.94,6.94,0,0,0-.89,1.17v8.73Zm16.81,0V37a4.08,4.08,0,0,0-.48-2.2,1.87,1.87,0,0,0-1.72-.74,3,3,0,0,0-1.36.31,4.32,4.32,0,0,0-1.11.85,7.74,7.74,0,0,0-.9,1.19L330.74,34H331a9.25,9.25,0,0,1,1.13-1.25,5.6,5.6,0,0,1,1.53-1,4.72,4.72,0,0,1,2-.4,3.55,3.55,0,0,1,3,1.25,5.71,5.71,0,0,1,.94,3.53v9Z"/>
      <path d="M347.27,45.11l1.14-3.27c.4-1.14.78-2.22,1.15-3.25L351.85,32,353,28.75l1-2.89h4.12c.35,1,.69,2,1,2.93s.7,2,1.12,3.2l2.28,6.63,1.14,3.27c.39,1.12.76,2.19,1.11,3.22h-3.29l-1.08-3.35-1.05-3.26-3.19-9.86h-.27l-3.22,9.76c-.36,1.06-.72,2.17-1.1,3.34l-1.11,3.37Zm4-4.54.3-2.43h9.34l.24,2.43Z"/>
      <path d="M373,45.42a15.09,15.09,0,0,1-1.79-.11c-.59-.08-1.16-.18-1.71-.31a12.83,12.83,0,0,1-1.55-.47,10.71,10.71,0,0,1-1.31-.58l.25-2.75c.49.26,1,.49,1.48.7a15.57,15.57,0,0,0,1.49.52,10.28,10.28,0,0,0,1.47.33,9.6,9.6,0,0,0,1.38.11,4.61,4.61,0,0,0,3.06-.83,2.75,2.75,0,0,0,.94-2.13,2.59,2.59,0,0,0-1.26-2.34,6.48,6.48,0,0,0-3.52-.81H370V34.34h1.77a6.67,6.67,0,0,0,2.49-.39,3,3,0,0,0,1.42-1.05,2.7,2.7,0,0,0,.45-1.53,2.16,2.16,0,0,0-1-1.95,4.45,4.45,0,0,0-2.48-.63,6.51,6.51,0,0,0-1.3.13,9,9,0,0,0-1.37.36,11.46,11.46,0,0,0-1.37.58,10,10,0,0,0-1.33.78L367,27.83a11.41,11.41,0,0,1,1.31-.63,13.39,13.39,0,0,1,1.51-.52c.53-.14,1.08-.26,1.64-.35a10.35,10.35,0,0,1,1.67-.13,8.49,8.49,0,0,1,3.21.56,4.74,4.74,0,0,1,2.1,1.61,4.14,4.14,0,0,1,.74,2.46,4.21,4.21,0,0,1-.48,2,4.46,4.46,0,0,1-1.28,1.45,4.87,4.87,0,0,1-1.75.79v.25a5.87,5.87,0,0,1,1.45.48,4.69,4.69,0,0,1,1.32.92,4.4,4.4,0,0,1,1,1.41,4.85,4.85,0,0,1,.36,1.95,5.1,5.1,0,0,1-.74,2.71,5,5,0,0,1-2.23,1.9A9.07,9.07,0,0,1,373,45.42Z"/>
      <path d="M386.75,33.92V31.69h9.75v2.23h-9.75Zm6.8,11.51a5.66,5.66,0,0,1-2.37-.45,3.18,3.18,0,0,1-1.48-1.44,5.36,5.36,0,0,1-.51-2.51V27.33l2.85-.57V40.24a3.26,3.26,0,0,0,.55,2.07,2.09,2.09,0,0,0,1.73.69,3.73,3.73,0,0,0,1.05-.16,3.57,3.57,0,0,0,1-.52l.2,2.43a3.26,3.26,0,0,1-.79.35,6.11,6.11,0,0,1-1.06.25A7.89,7.89,0,0,1,393.55,45.43Z"/>
      <path d="M405.23,45.43a7.27,7.27,0,0,1-3-.58A6.1,6.1,0,0,1,400,43.28a6.66,6.66,0,0,1-1.3-2.27,8.23,8.23,0,0,1-.44-2.68,7.71,7.71,0,0,1,.82-3.58,6.1,6.1,0,0,1,2.34-2.49,7.27,7.27,0,0,1,3.72-.91,7.74,7.74,0,0,1,2.94.53,5.87,5.87,0,0,1,2.15,1.48,6.36,6.36,0,0,1,1.32,2.22,8.18,8.18,0,0,1,.44,2.75,7.93,7.93,0,0,1-.81,3.62,6.25,6.25,0,0,1-2.34,2.55A6.9,6.9,0,0,1,405.23,45.43Zm0-2.43a3.47,3.47,0,0,0,2.16-.66,4.19,4.19,0,0,0,1.29-1.74,6.14,6.14,0,0,0,.42-2.27,5.63,5.63,0,0,0-.48-2.41A3.91,3.91,0,0,0,403,34.38,3.8,3.8,0,0,0,401.7,36a6.11,6.11,0,0,0,0,4.58A4.09,4.09,0,0,0,403,42.34,3.58,3.58,0,0,0,405.22,43Z"/>
      <path d="M419.11,45.11c.36-1,.74-2.12,1.13-3.27s.78-2.22,1.15-3.25L423.68,32c.43-1.18.81-2.26,1.14-3.22l1-2.89H430l1,2.93,1.11,3.2,2.28,6.63,1.14,3.27c.4,1.12.77,2.19,1.12,3.22h-3.3l-1.08-3.35-1.05-3.26L428,28.64h-.27l-3.22,9.76c-.35,1.06-.72,2.17-1.09,3.34l-1.11,3.37Zm3.95-4.54.3-2.43h9.34l.25,2.43Z"/>
      <path d="M446.8,45.11V39.87l.09-.48V27.94l2.19-.62-1.46,2.08c-.48.67-.95,1.35-1.43,2L443,35.88l-1.23,1.77c-.41.59-.83,1.18-1.26,1.78l-.1-1h12.47V41H438.06V39l1.24-1.75,1.37-1.94c.46-.65.88-1.25,1.28-1.8l2.34-3.31,1.26-1.79c.43-.59.85-1.19,1.26-1.78h2.94V45.11Z"/>
      <path d="M464.05,45.39a4.39,4.39,0,0,1-2.05-.46,3.45,3.45,0,0,1-1.43-1.35,4.26,4.26,0,0,1-.52-2.16,4.12,4.12,0,0,1,.39-1.88,3.47,3.47,0,0,1,1-1.25,5,5,0,0,1,1.41-.75,9.11,9.11,0,0,1,1.58-.39l4-.63a2.92,2.92,0,0,0-.34-1.71A1.86,1.86,0,0,0,467,34a5.48,5.48,0,0,0-1.58-.22,9.19,9.19,0,0,0-1,.07,10,10,0,0,0-1.12.22c-.39.11-.8.23-1.23.38s-.86.33-1.32.54l-.16-2.57c.34-.13.71-.26,1.12-.39s.87-.24,1.35-.35a14,14,0,0,1,1.49-.23,13.36,13.36,0,0,1,1.56-.08,7.18,7.18,0,0,1,2.73.47,3.56,3.56,0,0,1,1.74,1.5,5.21,5.21,0,0,1,.61,2.68v9.09h-2.61l-.16-1.78h-.25a6,6,0,0,1-1,1,5,5,0,0,1-3.18,1.09ZM465,43.1a3.1,3.1,0,0,0,1.28-.29,4,4,0,0,0,1.17-.83,5.14,5.14,0,0,0,.93-1.31V38.29a2.87,2.87,0,0,1-.52.23,9.2,9.2,0,0,1-1,.25c-.43.09-1,.2-1.79.33a3.35,3.35,0,0,0-1.13.39,2,2,0,0,0-1,1.81,1.55,1.55,0,0,0,.6,1.39A2.46,2.46,0,0,0,465,43.1Z"/>
      <path d="M475.08,45.11V31.69l2.47-.16.11,2.43h.28a7.17,7.17,0,0,1,1.1-1.22,5.92,5.92,0,0,1,1.56-1,4.86,4.86,0,0,1,2-.4,3.8,3.8,0,0,1,3.1,1.22,5.47,5.47,0,0,1,1,3.56v9h-2.89V37a3.89,3.89,0,0,0-.5-2.2,2,2,0,0,0-1.83-.74,3.22,3.22,0,0,0-1.43.31,4.49,4.49,0,0,0-1.18.85,7.35,7.35,0,0,0-.94,1.19v8.73Z"/>
      <path d="M495.35,45.43a4.86,4.86,0,0,1-3.13-1,5.86,5.86,0,0,1-1.87-2.6,9.74,9.74,0,0,1-.61-3.49,9.47,9.47,0,0,1,.65-3.58,5.68,5.68,0,0,1,1.93-2.51,5.1,5.1,0,0,1,3.07-.92,5.51,5.51,0,0,1,1.62.23,4.57,4.57,0,0,1,1.31.64,4,4,0,0,1,.95.92h.27V25.35l2.89-.31V45.11h-2.49l-.16-1.81h-.24a5.46,5.46,0,0,1-1.14,1.16,4.49,4.49,0,0,1-1.39.72A5.12,5.12,0,0,1,495.35,45.43Zm1-2.52a3.45,3.45,0,0,0,1.32-.24,3.18,3.18,0,0,0,1.06-.67,4.17,4.17,0,0,0,.82-1V35.53a3.52,3.52,0,0,0-.86-.9,3.76,3.76,0,0,0-1.1-.54,4.12,4.12,0,0,0-1.21-.18,3.38,3.38,0,0,0-2.06.6,3.78,3.78,0,0,0-1.21,1.63,6,6,0,0,0-.4,2.25,6.13,6.13,0,0,0,.38,2.2,3.8,3.8,0,0,0,1.19,1.68A3.18,3.18,0,0,0,496.34,42.91Z"/>
      <path d="M518.51,45.43a5.37,5.37,0,0,1-1.7-.25,4.91,4.91,0,0,1-1.39-.7,5.75,5.75,0,0,1-1.14-1.12H514l-.29,1.75h-2.32V25.35l2.89-.31v8.1h.27a4.12,4.12,0,0,1,.94-.92,4.84,4.84,0,0,1,1.31-.64,5.49,5.49,0,0,1,1.61-.23,5.12,5.12,0,0,1,3.09.92,5.65,5.65,0,0,1,1.91,2.51,9.28,9.28,0,0,1,.66,3.58,10,10,0,0,1-.61,3.49,6,6,0,0,1-1.86,2.6A4.86,4.86,0,0,1,518.51,45.43Zm-1-2.52a3.22,3.22,0,0,0,2.07-.64,3.7,3.7,0,0,0,1.18-1.68,6.13,6.13,0,0,0,.38-2.2,6,6,0,0,0-.4-2.25,3.61,3.61,0,0,0-1.2-1.63,3.39,3.39,0,0,0-2.07-.6,4.12,4.12,0,0,0-1.21.18,3.65,3.65,0,0,0-1.08.54,3.39,3.39,0,0,0-.87.9V41a4.67,4.67,0,0,0,.81,1,3.24,3.24,0,0,0,1,.67A3.59,3.59,0,0,0,517.52,42.91Z"/>
      <path d="M530.6,45.39a4.42,4.42,0,0,1-2.05-.46,3.42,3.42,0,0,1-1.42-1.35,4.16,4.16,0,0,1-.52-2.16,4.12,4.12,0,0,1,.38-1.88,3.69,3.69,0,0,1,1-1.25,5.07,5.07,0,0,1,1.42-.75,8.89,8.89,0,0,1,1.58-.39l4-.63a2.85,2.85,0,0,0-.33-1.71,1.91,1.91,0,0,0-1.08-.81,5.41,5.41,0,0,0-1.57-.22,9.19,9.19,0,0,0-1,.07,10.5,10.5,0,0,0-1.12.22c-.39.11-.8.23-1.22.38a14.14,14.14,0,0,0-1.32.54l-.16-2.57c.33-.13.7-.26,1.12-.39s.86-.24,1.34-.35a14,14,0,0,1,1.49-.23,13.64,13.64,0,0,1,1.57-.08,7.12,7.12,0,0,1,2.72.47,3.63,3.63,0,0,1,1.75,1.5,5.32,5.32,0,0,1,.6,2.68v9.09h-2.6L535,43.33h-.26a6,6,0,0,1-1,1,4.78,4.78,0,0,1-1.39.78A4.84,4.84,0,0,1,530.6,45.39Zm.95-2.29a3.05,3.05,0,0,0,1.27-.29A4,4,0,0,0,534,42a5.14,5.14,0,0,0,.93-1.31V38.29a2.58,2.58,0,0,1-.52.23,9.2,9.2,0,0,1-.95.25c-.42.09-1,.2-1.78.33a3.4,3.4,0,0,0-1.14.39,2.07,2.07,0,0,0-.73.74,2,2,0,0,0-.26,1.07,1.55,1.55,0,0,0,.6,1.39A2.46,2.46,0,0,0,531.55,43.1Z"/>
      <path d="M547.68,45.38a7.25,7.25,0,0,1-3.76-.91A6.08,6.08,0,0,1,541.56,42a7.73,7.73,0,0,1-.81-3.58,8.2,8.2,0,0,1,.77-3.6,5.82,5.82,0,0,1,2.25-2.51,6.83,6.83,0,0,1,3.67-.92,9.12,9.12,0,0,1,1.56.13,9.44,9.44,0,0,1,1.46.35,6.58,6.58,0,0,1,1.22.52l-.25,2.56a8,8,0,0,0-1.41-.66,7.55,7.55,0,0,0-1.21-.32,6.21,6.21,0,0,0-1-.08,3.87,3.87,0,0,0-3,1.2,4.61,4.61,0,0,0-1.12,3.26,5.32,5.32,0,0,0,.51,2.37,3.84,3.84,0,0,0,1.53,1.64,4.84,4.84,0,0,0,2.53.61,6,6,0,0,0,1.11-.1,6.12,6.12,0,0,0,1.09-.31,5.64,5.64,0,0,0,1-.54l.2,2.58a6.61,6.61,0,0,1-1.05.4,8.94,8.94,0,0,1-1.34.29A11.61,11.61,0,0,1,547.68,45.38Z"/>
      <path d="M554.89,45.11V25.35l2.89-.31V45.11Zm8.79,0-1.6-1.77-1.6-1.75-2-2.23h-1v-2h1.08l1.73-2,1.59-1.84,1.58-1.83h3.46l-2.18,2.38-2.14,2.37-2.15,2.34-.11-1.34,2.54,2.88,2.23,2.4c.75.8,1.48,1.6,2.21,2.39Z"/>
      <path d="M576.46,29a2.1,2.1,0,0,1-1.4-.45,2.11,2.11,0,0,1,0-2.8,2.11,2.11,0,0,1,1.43-.47,2,2,0,0,1,1.42.48,2.13,2.13,0,0,1,0,2.79A2.19,2.19,0,0,1,576.46,29Zm-1.4,16.15V31.69L578,31.6V45.11Z"/>
      <path d="M582.16,45.11V31.69l2.47-.16.11,2.43H585a7.17,7.17,0,0,1,1.1-1.22,5.92,5.92,0,0,1,1.56-1,4.86,4.86,0,0,1,2-.4,3.8,3.8,0,0,1,3.1,1.22,5.47,5.47,0,0,1,1,3.56v9h-2.89V37a3.89,3.89,0,0,0-.5-2.2A2,2,0,0,0,588.6,34a3.22,3.22,0,0,0-1.43.31,4.49,4.49,0,0,0-1.18.85,7.35,7.35,0,0,0-.94,1.19v8.73Z"/>
      <path d="M601.48,45.11c.36-1,.73-2.12,1.13-3.27s.78-2.22,1.15-3.25L606.05,32c.43-1.18.8-2.26,1.14-3.22l1-2.89h4.12l1,2.93c.32.95.7,2,1.11,3.2l2.28,6.63,1.14,3.27L619,45.11h-3.3l-1.08-3.35-1.05-3.26-3.19-9.86h-.27l-3.22,9.76c-.35,1.06-.72,2.17-1.1,3.34s-.74,2.28-1.1,3.37Zm3.95-4.54.3-2.43h9.34l.24,2.43Z"/>
      <path d="M626.91,45.11V31.69l2.47-.16.11,2.42h.28a7.93,7.93,0,0,1,1.07-1.22,5.58,5.58,0,0,1,1.49-1,4.5,4.5,0,0,1,1.95-.4,3.52,3.52,0,0,1,2.49.81,4,4,0,0,1,1.14,2.3l.19.07a5.82,5.82,0,0,1,.1.76,7.51,7.51,0,0,1,0,.84v9h-2.88V37a4.08,4.08,0,0,0-.48-2.2,1.89,1.89,0,0,0-1.73-.74,2.75,2.75,0,0,0-1.35.32,4.15,4.15,0,0,0-1.11.86,6.94,6.94,0,0,0-.89,1.17v8.73Zm16.81,0V37a4.08,4.08,0,0,0-.48-2.2,1.89,1.89,0,0,0-1.72-.74,2.93,2.93,0,0,0-1.36.31,4.32,4.32,0,0,0-1.11.85,7.2,7.2,0,0,0-.91,1.19L637.72,34H638a9.15,9.15,0,0,1,1.12-1.25,5.65,5.65,0,0,1,1.54-1,4.64,4.64,0,0,1,2-.4,3.53,3.53,0,0,1,3,1.25,5.71,5.71,0,0,1,1,3.53v9Z"/>
      <path d="M651.92,29a2.07,2.07,0,0,1-1.39-.45,2.08,2.08,0,0,1,0-2.8,2.08,2.08,0,0,1,1.42-.47,2,2,0,0,1,1.43.48,1.82,1.82,0,0,1,.52,1.37,1.77,1.77,0,0,1-.53,1.42A2.15,2.15,0,0,1,651.92,29Zm-1.4,16.15V31.69l2.89-.09V45.11Z"/>
      <path d="M657.62,45.11V31.69l2.47-.16L660.2,34h.28a7.62,7.62,0,0,1,1.1-1.22,5.92,5.92,0,0,1,1.56-1,4.92,4.92,0,0,1,2-.4,3.79,3.79,0,0,1,3.1,1.22,5.47,5.47,0,0,1,1,3.56v9H666.4V37a4,4,0,0,0-.5-2.2,2.06,2.06,0,0,0-1.84-.74,3.22,3.22,0,0,0-1.43.31,4.61,4.61,0,0,0-1.17.85,6.89,6.89,0,0,0-1,1.19v8.73Z"/>
      <path d="M679.2,45.43a7.31,7.31,0,0,1-3-.58A6.19,6.19,0,0,1,674,43.28,6.66,6.66,0,0,1,672.7,41a8.22,8.22,0,0,1-.43-2.68,7.71,7.71,0,0,1,.81-3.58,6.06,6.06,0,0,1,2.35-2.49,7.23,7.23,0,0,1,3.71-.91,7.67,7.67,0,0,1,2.94.53,5.82,5.82,0,0,1,2.16,1.48,6.19,6.19,0,0,1,1.31,2.22,8.18,8.18,0,0,1,.45,2.75,7.93,7.93,0,0,1-.81,3.62,6.25,6.25,0,0,1-2.34,2.55A6.9,6.9,0,0,1,679.2,45.43Zm0-2.43a3.43,3.43,0,0,0,2.16-.66,4,4,0,0,0,1.29-1.74,6,6,0,0,0,.43-2.27,5.63,5.63,0,0,0-.48-2.41,3.77,3.77,0,0,0-6.91.1,5.57,5.57,0,0,0-.46,2.31,6,6,0,0,0,.44,2.27A4.09,4.09,0,0,0,677,42.34,3.6,3.6,0,0,0,679.18,43Z"/>
      <path d="M689.28,45.11V31.69l2.47-.16.11,2.65h.27a5.25,5.25,0,0,1,1.23-1.8,3.64,3.64,0,0,1,1.4-.82,4.41,4.41,0,0,1,2.07-.15,3.2,3.2,0,0,1,.71.17l-.25,2.87c-.32-.06-.6-.1-.86-.13s-.54,0-.86,0a4.54,4.54,0,0,0-.84.1,2.78,2.78,0,0,0-.92.42,3.27,3.27,0,0,0-.89.92,5.9,5.9,0,0,0-.75,1.61v7.78Z"/>
    </g>
  </g>
  <path d="M29.69,62.07a.32.32,0,0,1,.36,0,9.54,9.54,0,0,1,1,1.11,19.93,19.93,0,0,1,3.57,8.73,11.73,11.73,0,0,1-.45,4.86,22.44,22.44,0,0,1-4.23,7.44c-.3.39-.57.72-.6.75s0,.15.18.78c.54,1.68,1.38,4.44,1.68,5.49l.09.42h.39A7.73,7.73,0,0,1,39,98.46a6.77,6.77,0,0,1,.06,1.74,7.7,7.7,0,0,1-.75,2.73,7.49,7.49,0,0,1-4,3.72l-.33.12L34,108a38.24,38.24,0,0,1-.21,4.62c-.45,3.06-2.19,5.49-4.47,6.21a4.44,4.44,0,0,1-1.59.21,5,5,0,0,1-1.65-.21,6.11,6.11,0,0,1-2.94-1.65,5.74,5.74,0,0,1-1.71-3.54,3.17,3.17,0,0,1,.45-2.13,3.49,3.49,0,0,1,3-1.53A3,3,0,0,1,27.59,113a2.87,2.87,0,0,1-2.37,3,3.14,3.14,0,0,1-1.29-.09l-.21-.09.09.12a4.39,4.39,0,0,0,1.32,1.26,4.46,4.46,0,0,0,4.35.36,6.12,6.12,0,0,0,3-4.35,16.88,16.88,0,0,0,.3-3c0-.84,0-2.94,0-3a2.25,2.25,0,0,0-.36,0,8.51,8.51,0,0,1-1.83.12A9,9,0,0,1,28,107a10.53,10.53,0,0,1-7.8-8.46A8.51,8.51,0,0,1,20,96.66a8,8,0,0,1,.15-1.92,17.4,17.4,0,0,1,3.3-7.29l2.79-3.6c.54-.66,1-1.2,1-1.23s-.09-.33-.18-.69a34,34,0,0,1-1.59-7.68,25.65,25.65,0,0,1-.06-4,13.11,13.11,0,0,1,3.12-7.08,7.84,7.84,0,0,1,1.17-1.14Zm2,4.71c-.15-.3-.3-.54-.3-.54a.89.89,0,0,0-.3.21,10.28,10.28,0,0,0-4.26,7.11,13.39,13.39,0,0,0,0,1.89,27.86,27.86,0,0,0,1.08,5.22,6.23,6.23,0,0,1,.24.81s.84-1.11,1.23-1.68a16.13,16.13,0,0,0,3.15-7.53,12.39,12.39,0,0,0,.06-2.37A7.09,7.09,0,0,0,31.7,66.78Zm-2.94,20.7a11.49,11.49,0,0,0-.42-1.32s-1.2,1.47-1.86,2.37c-2.79,3.63-4,6.3-4.35,9.3,0,.21,0,.69,0,1.08a5.06,5.06,0,0,0,.06,1.11,6.09,6.09,0,0,0,.51,1.47,8,8,0,0,0,3.42,3.42A9.67,9.67,0,0,0,29.3,106a10.76,10.76,0,0,0,2.94,0c.51-.06.45,0,.42-.3A59.41,59.41,0,0,0,31,95.58c-.09-.39-.18-.75-.18-.78a2.48,2.48,0,0,0-.81.09A4.26,4.26,0,0,0,27.83,96a3.53,3.53,0,0,0-1,2.64A4,4,0,0,0,28,101.25a5.78,5.78,0,0,0,1.17.9c.33.18.36.21.42.33a.64.64,0,0,1-.6.87,6,6,0,0,1-1.26-.63,6.37,6.37,0,0,1-1.86-1.83,6,6,0,0,1,1.71-8.19,7.26,7.26,0,0,1,1.17-.63,11.07,11.07,0,0,1,1.14-.3c.06,0,.09,0,.09,0S29.48,89.82,28.76,87.48Zm3.78,7.41-.39-.06s0,.21.18,1a64.34,64.34,0,0,1,1.5,9.09c.06.72,0,.69.51.42a4.83,4.83,0,0,0,2-1.77,5.55,5.55,0,0,0,.3-5.55A5.89,5.89,0,0,0,32.54,94.89Z"/>
  <path d="M57.69,76.79c.27-.09.42-.12.54,0a.42.42,0,0,1,.15.3c0,.06-1.92,2.31-4.23,5s-4.23,5-4.26,5,.12.06,2.55.06h2.61V84.8a14.72,14.72,0,0,1,.06-2.46,2.79,2.79,0,0,1,.57-.42,4.05,4.05,0,0,0,1.86-2.16,3.44,3.44,0,0,1,.27-.57.29.29,0,0,1,.45.12,29,29,0,0,1,.06,4v3.9H59.4c1.05,0,1.11,0,1.2.06a.42.42,0,0,1,0,.69c-.09.06-.15.06-1.2.06H58.32v.33a3.48,3.48,0,0,0,.3,1.53A2.07,2.07,0,0,0,60.3,91.1c.3,0,.39.09.39.3a.26.26,0,0,1-.09.24c-.06.06-.09.06-.48.06a13.52,13.52,0,0,1-2.1-.24,8,8,0,0,0-2.67,0,13.52,13.52,0,0,1-2.1.24c-.39,0-.42,0-.48-.06s-.06-.09-.06-.24.06-.27.36-.3a2.07,2.07,0,0,0,1.68-1.26,3.48,3.48,0,0,0,.3-1.53V88h-2.7c-2.91,0-2.85,0-3.09-.15a.64.64,0,0,1-.27-.54c0-.06.18-.24.33-.45a22.2,22.2,0,0,0,2.13-3,17.83,17.83,0,0,0,1-2.16,11.61,11.61,0,0,0,.9-4.05c0-.63.06-.72.24-.81l.12-.06.45.12a6.72,6.72,0,0,0,1.47.27,5.84,5.84,0,0,0,2-.33Zm0,15.5c.27-.09.42-.12.54,0a.42.42,0,0,1,.15.3c0,.06-1.92,2.31-4.23,5s-4.23,5-4.26,5,.12.06,2.55.06h2.61V100.3a14.72,14.72,0,0,1,.06-2.46,2.79,2.79,0,0,1,.57-.42,4.05,4.05,0,0,0,1.86-2.16,3.44,3.44,0,0,1,.27-.57.29.29,0,0,1,.45.12,29,29,0,0,1,.06,4v3.9H59.4c1.05,0,1.11,0,1.2.06a.42.42,0,0,1,0,.69c-.09.06-.15.06-1.2.06H58.32v.33a3.48,3.48,0,0,0,.3,1.53,2.07,2.07,0,0,0,1.68,1.26c.3,0,.39.09.39.3a.26.26,0,0,1-.09.24c-.06.06-.09.06-.48.06A13.52,13.52,0,0,1,58,107a8,8,0,0,0-2.67,0,13.52,13.52,0,0,1-2.1.24c-.39,0-.42,0-.48-.06s-.06-.09-.06-.24.06-.27.36-.3a2.07,2.07,0,0,0,1.68-1.26,3.48,3.48,0,0,0,.3-1.53v-.33h-2.7c-2.91,0-2.85,0-3.09-.15a.64.64,0,0,1-.27-.54c0-.06.18-.24.33-.45a22.2,22.2,0,0,0,2.13-3,17.83,17.83,0,0,0,1-2.16,11.61,11.61,0,0,0,.9-4.05c0-.63.06-.72.24-.81l.12-.06.45.12a6.72,6.72,0,0,0,1.47.27,5.84,5.84,0,0,0,2-.33Z"/>
  <path d="M75.85,107.23v-31h.6v31Z"/>
  <path d="M92.94,91.55a8.59,8.59,0,0,1,1.53.06,2.53,2.53,0,0,1,2.16,1.83,1.87,1.87,0,0,1,.06.66,2.69,2.69,0,0,1-.15,1.08A7.43,7.43,0,0,1,91,99.56a7.57,7.57,0,0,1-1.83,0,2.64,2.64,0,0,1-2.25-1.86,1.87,1.87,0,0,1-.06-.66A2.69,2.69,0,0,1,87,96a5.54,5.54,0,0,1,1.44-2.22A7.94,7.94,0,0,1,92.94,91.55Zm3.72-23.07V94.31h-1V68.48Z" fill="#ec1c24"/>
  <path d="M133.65,84.41a.49.49,0,0,1,.66.24,9.44,9.44,0,0,1,.06,2.31c0,1.23,0,2.22,0,2.22s.27-.12.6-.24c.69-.27.78-.3,1-.15s.21.18.21,1.38c0,1,0,1.11-.06,1.2a.65.65,0,0,1-.12.15,8,8,0,0,1-.84.36l-.75.33,0,2.43c0,1.32,0,2.43,0,2.43s.27-.12.6-.24c.69-.27.78-.3,1-.15s.21.18.21,1.38c0,1,0,1.11-.06,1.2a.65.65,0,0,1-.12.15,8,8,0,0,1-.84.36l-.75.33,0,2.52a17.92,17.92,0,0,1-.06,2.64.54.54,0,0,1-.93,0,15.27,15.27,0,0,1-.06-2.43v-2.31L132,101l-1.26.51V104c0,2.58,0,2.52-.15,2.67a.48.48,0,0,1-.75,0c-.15-.15-.15-.09-.15-2.43,0-1.23,0-2.22,0-2.22s-.27.12-.6.24c-.69.27-.78.3-1,.15s-.21-.18-.21-1.38c0-1,0-1.11.06-1.2a.65.65,0,0,1,.12-.15,8,8,0,0,1,.84-.36l.78-.33V96.53c0-1.32,0-2.43,0-2.43s-.27.12-.6.24c-.69.27-.78.3-1,.15s-.21-.18-.21-1.38c0-1,0-1.11.06-1.2a.65.65,0,0,1,.12-.15,8,8,0,0,1,.84-.36l.78-.33V88.55a17.92,17.92,0,0,1,.06-2.64.54.54,0,0,1,.93,0,15.27,15.27,0,0,1,.06,2.43l0,2.31,1.26-.51,1.26-.51V87.2a11.74,11.74,0,0,1,.06-2.55.43.43,0,0,1,.27-.24Zm-.33,10.65V92.63l-1.29.51-1.26.51v4.89l.09,0c.06,0,.63-.27,1.29-.51l1.17-.48Zm10.94-3.51a8.59,8.59,0,0,1,1.53.06A2.53,2.53,0,0,1,148,93.44a1.87,1.87,0,0,1,.06.66,2.69,2.69,0,0,1-.15,1.08,7.43,7.43,0,0,1-5.52,4.38,7.57,7.57,0,0,1-1.83,0,2.64,2.64,0,0,1-2.25-1.86,1.87,1.87,0,0,1-.06-.66,2.69,2.69,0,0,1,.15-1.08,5.54,5.54,0,0,1,1.44-2.22A7.94,7.94,0,0,1,144.26,91.55ZM148,68.48V94.31h-1V68.48Z" fill="#f6921e"/>
  <path d="M195.58,87.68a8.59,8.59,0,0,1,1.53.06,2.53,2.53,0,0,1,2.16,1.83,1.87,1.87,0,0,1,.06.66,2.69,2.69,0,0,1-.15,1.08,7.43,7.43,0,0,1-5.52,4.38,7.57,7.57,0,0,1-1.83,0,2.64,2.64,0,0,1-2.25-1.86,1.87,1.87,0,0,1-.06-.66,2.69,2.69,0,0,1,.15-1.08,5.54,5.54,0,0,1,1.44-2.22A7.94,7.94,0,0,1,195.58,87.68Zm-6.09,31.17V91.73h1v27.12Z" fill="#fff100"/>
  <path d="M246.89,83.8a8.59,8.59,0,0,1,1.53.06,2.53,2.53,0,0,1,2.16,1.83,1.87,1.87,0,0,1,.06.66,2.69,2.69,0,0,1-.15,1.08A7.43,7.43,0,0,1,245,91.81a7.57,7.57,0,0,1-1.83,0A2.64,2.64,0,0,1,240.89,90a1.87,1.87,0,0,1-.06-.66,2.69,2.69,0,0,1,.15-1.08A5.54,5.54,0,0,1,242.42,86,7.94,7.94,0,0,1,246.89,83.8ZM240.8,115V89.14h1V115Z" fill="#8bc53f"/>
  <path d="M287.6,76.66a.49.49,0,0,1,.66.24,9.44,9.44,0,0,1,.06,2.31c0,1.23,0,2.22,0,2.22s.27-.12.6-.24c.69-.27.78-.3,1-.15s.21.18.21,1.38c0,1,0,1.11-.06,1.2a.65.65,0,0,1-.12.15,8,8,0,0,1-.84.36l-.75.33,0,2.43c0,1.32,0,2.43,0,2.43s.27-.12.6-.24c.69-.27.78-.3,1-.15s.21.18.21,1.38c0,1,0,1.11-.06,1.2a.65.65,0,0,1-.12.15,8,8,0,0,1-.84.36l-.75.33,0,2.52a17.92,17.92,0,0,1-.06,2.64.54.54,0,0,1-.93,0,15.27,15.27,0,0,1-.06-2.43V92.77l-1.29.51-1.26.51v2.43c0,2.58,0,2.52-.15,2.67a.48.48,0,0,1-.75,0c-.15-.15-.15-.09-.15-2.43,0-1.23,0-2.22,0-2.22s-.27.12-.6.24c-.69.27-.78.3-1,.15s-.21-.18-.21-1.38c0-1,0-1.11.06-1.2a.65.65,0,0,1,.12-.15,8,8,0,0,1,.84-.36l.78-.33V88.78c0-1.32,0-2.43,0-2.43s-.27.12-.6.24c-.69.27-.78.3-1,.15s-.21-.18-.21-1.38c0-1,0-1.11.06-1.2a.65.65,0,0,1,.12-.15,8,8,0,0,1,.84-.36l.78-.33V80.8a17.92,17.92,0,0,1,.06-2.64.54.54,0,0,1,.93,0,15.27,15.27,0,0,1,.06,2.43l0,2.31,1.26-.51,1.26-.51V79.45a11.74,11.74,0,0,1,.06-2.55A.43.43,0,0,1,287.6,76.66Zm-.33,10.65V84.88l-1.29.51-1.26.51v4.89l.09,0c.06,0,.63-.27,1.29-.51l1.17-.48Zm10.94-3.51a8.59,8.59,0,0,1,1.53.06,2.53,2.53,0,0,1,2.16,1.83,1.87,1.87,0,0,1,.06.66,2.69,2.69,0,0,1-.15,1.08,7.43,7.43,0,0,1-5.52,4.38,7.57,7.57,0,0,1-1.83,0A2.64,2.64,0,0,1,292.21,90a1.87,1.87,0,0,1-.06-.66,2.69,2.69,0,0,1,.15-1.08A5.54,5.54,0,0,1,293.74,86a7.94,7.94,0,0,1,4.47-2.22ZM292.12,115V89.14h1V115Z" fill="#00a551"/>
  <path d="M349.53,79.93a8.59,8.59,0,0,1,1.53.06,2.53,2.53,0,0,1,2.16,1.83,1.87,1.87,0,0,1,.06.66,2.69,2.69,0,0,1-.15,1.08,7.43,7.43,0,0,1-5.52,4.38,7.57,7.57,0,0,1-1.83,0,2.64,2.64,0,0,1-2.25-1.86,1.87,1.87,0,0,1-.06-.66,2.69,2.69,0,0,1,.15-1.08,5.54,5.54,0,0,1,1.44-2.22,7.94,7.94,0,0,1,4.47-2.22Zm-6.09,31.17V85.27h1V111.1Z" fill="#00a89c"/>
  <path d="M390.24,72.79a.49.49,0,0,1,.66.24,9.44,9.44,0,0,1,.06,2.31c0,1.23,0,2.22,0,2.22s.27-.12.6-.24c.69-.27.78-.3,1-.15s.21.18.21,1.38c0,1,0,1.11-.06,1.2a.65.65,0,0,1-.12.15,8,8,0,0,1-.84.36l-.75.33L391,83c0,1.32,0,2.43,0,2.43s.27-.12.6-.24c.69-.27.78-.3,1-.15s.21.18.21,1.38c0,1,0,1.11-.06,1.2a.65.65,0,0,1-.12.15,8,8,0,0,1-.84.36l-.75.33L391,91a17.92,17.92,0,0,1-.06,2.64.54.54,0,0,1-.93,0,15.27,15.27,0,0,1-.06-2.43V88.9l-1.29.51-1.26.51v2.43c0,2.58,0,2.52-.15,2.67a.48.48,0,0,1-.75,0c-.15-.15-.15-.09-.15-2.43,0-1.23,0-2.22,0-2.22s-.27.12-.6.24c-.69.27-.78.3-1,.15s-.21-.18-.21-1.38c0-1,0-1.11.06-1.2a.65.65,0,0,1,.12-.15,8,8,0,0,1,.84-.36l.78-.33V84.91c0-1.32,0-2.43,0-2.43s-.27.12-.6.24c-.69.27-.78.3-1,.15s-.21-.18-.21-1.38c0-1,0-1.11.06-1.2a.65.65,0,0,1,.12-.15,8,8,0,0,1,.84-.36l.78-.33V76.93a17.92,17.92,0,0,1,.06-2.64.54.54,0,0,1,.93,0,15.27,15.27,0,0,1,.06,2.43l0,2.31,1.26-.51,1.26-.51V75.58A11.74,11.74,0,0,1,390,73,.43.43,0,0,1,390.24,72.79Zm-.33,10.65V81l-1.29.51-1.26.51v4.89l.09,0c.06,0,.63-.27,1.29-.51l1.17-.48Zm10.94-3.51a8.59,8.59,0,0,1,1.53.06,2.53,2.53,0,0,1,2.16,1.83,1.87,1.87,0,0,1,.06.66,2.69,2.69,0,0,1-.15,1.08,7.43,7.43,0,0,1-5.52,4.38,7.57,7.57,0,0,1-1.83,0,2.64,2.64,0,0,1-2.25-1.86,1.87,1.87,0,0,1-.06-.66,2.69,2.69,0,0,1,.15-1.08,5.54,5.54,0,0,1,1.44-2.22,7.94,7.94,0,0,1,4.47-2.22Zm-6.09,31.17V85.27h1V111.1Z" fill="#00adee"/>
  <path d="M452.17,76.05a8.59,8.59,0,0,1,1.53.06,2.53,2.53,0,0,1,2.16,1.83,1.87,1.87,0,0,1,.06.66,2.69,2.69,0,0,1-.15,1.08,7.43,7.43,0,0,1-5.52,4.38,7.57,7.57,0,0,1-1.83,0,2.64,2.64,0,0,1-2.25-1.86,1.87,1.87,0,0,1-.06-.66,2.69,2.69,0,0,1,.15-1.08,5.54,5.54,0,0,1,1.44-2.22,7.94,7.94,0,0,1,4.47-2.22Zm-6.09,31.18V81.39h1v25.84Z" fill="#0071bb"/>
  <path d="M503.49,72.18a8.59,8.59,0,0,1,1.53.06,2.53,2.53,0,0,1,2.16,1.83,1.87,1.87,0,0,1,.06.66,2.69,2.69,0,0,1-.15,1.08,7.43,7.43,0,0,1-5.52,4.38,7.57,7.57,0,0,1-1.83,0,2.64,2.64,0,0,1-2.25-1.86,1.87,1.87,0,0,1-.06-.66,2.69,2.69,0,0,1,.15-1.08A5.54,5.54,0,0,1,499,74.4a7.94,7.94,0,0,1,4.47-2.22Zm-6.09,31.17V77.52h1v25.83Z" fill="#2e3191"/>
  <path d="M544.2,65a.49.49,0,0,1,.66.24,9.44,9.44,0,0,1,.06,2.31c0,1.23,0,2.22,0,2.22s.27-.12.6-.24c.69-.27.78-.3,1-.15s.21.18.21,1.38c0,1,0,1.11-.06,1.2a.65.65,0,0,1-.12.15,8,8,0,0,1-.84.36l-.75.33,0,2.43c0,1.32,0,2.43,0,2.43s.27-.12.6-.24c.69-.27.78-.3,1-.15s.21.18.21,1.38c0,1,0,1.11-.06,1.2a.65.65,0,0,1-.12.15,8,8,0,0,1-.84.36l-.75.33,0,2.52a17.92,17.92,0,0,1-.06,2.64.54.54,0,0,1-.93,0,15.27,15.27,0,0,1-.06-2.43V81.15l-1.29.51-1.26.51V84.6c0,2.58,0,2.52-.15,2.67a.48.48,0,0,1-.75,0c-.15-.15-.15-.09-.15-2.43,0-1.23,0-2.22,0-2.22s-.27.12-.6.24c-.69.27-.78.3-1,.15s-.21-.18-.21-1.38c0-1,0-1.11.06-1.2a.65.65,0,0,1,.12-.15,8,8,0,0,1,.84-.36l.78-.33V77.16c0-1.32,0-2.43,0-2.43s-.27.12-.6.24c-.69.27-.78.3-1,.15s-.21-.18-.21-1.38c0-1,0-1.11.06-1.2a.65.65,0,0,1,.12-.15,8,8,0,0,1,.84-.36l.78-.33V69.18a17.92,17.92,0,0,1,.06-2.64.54.54,0,0,1,.93,0,15.27,15.27,0,0,1,.06,2.43l0,2.31,1.26-.51,1.26-.51V67.83a11.74,11.74,0,0,1,.06-2.55A.43.43,0,0,1,544.2,65Zm-.33,10.65V73.26l-1.29.51-1.26.51v4.89l.09,0c.06,0,.63-.27,1.29-.51l1.17-.48Zm10.94-3.51a8.59,8.59,0,0,1,1.53.06,2.53,2.53,0,0,1,2.16,1.83,1.87,1.87,0,0,1,.06.66,2.69,2.69,0,0,1-.15,1.08,7.43,7.43,0,0,1-5.52,4.38,7.57,7.57,0,0,1-1.83,0,2.64,2.64,0,0,1-2.25-1.86,1.87,1.87,0,0,1-.06-.66,2.69,2.69,0,0,1,.15-1.08,5.54,5.54,0,0,1,1.44-2.22,7.94,7.94,0,0,1,4.47-2.22Zm-6.09,31.17V77.52h1v25.83Z" fill="#90278e"/>
  <path d="M606.13,68.3a8.59,8.59,0,0,1,1.53.06,2.53,2.53,0,0,1,2.16,1.83,1.87,1.87,0,0,1,.06.66,2.69,2.69,0,0,1-.15,1.08,7.43,7.43,0,0,1-5.52,4.38,7.57,7.57,0,0,1-1.83,0,2.64,2.64,0,0,1-2.25-1.86,1.87,1.87,0,0,1-.06-.66,2.69,2.69,0,0,1,.15-1.08,5.54,5.54,0,0,1,1.44-2.22,7.94,7.94,0,0,1,4.47-2.22ZM600,99.48V73.64h1V99.48Z" fill="#eb008b"/>
  <path d="M646.84,61.16a.49.49,0,0,1,.66.24,9.44,9.44,0,0,1,.06,2.31c0,1.23,0,2.22,0,2.22s.27-.12.6-.24c.69-.27.78-.3,1-.15s.21.18.21,1.38c0,1,0,1.11-.06,1.2a.65.65,0,0,1-.12.15,8,8,0,0,1-.84.36l-.75.33,0,2.43c0,1.32,0,2.43,0,2.43s.27-.12.6-.24c.69-.27.78-.3,1-.15s.21.18.21,1.38c0,1,0,1.11-.06,1.2a.65.65,0,0,1-.12.15,8,8,0,0,1-.84.36l-.75.33,0,2.52A17.92,17.92,0,0,1,647.5,82a.54.54,0,0,1-.93,0,15.27,15.27,0,0,1-.06-2.43V77.27l-1.29.51-1.26.51v2.43c0,2.58,0,2.52-.15,2.67a.48.48,0,0,1-.75,0c-.15-.15-.15-.09-.15-2.43,0-1.23,0-2.22,0-2.22s-.27.12-.6.24c-.69.27-.78.3-1,.15s-.21-.18-.21-1.38c0-1,0-1.11.06-1.2a.65.65,0,0,1,.12-.15,8,8,0,0,1,.84-.36l.78-.33V73.28c0-1.32,0-2.43,0-2.43s-.27.12-.6.24c-.69.27-.78.3-1,.15s-.21-.18-.21-1.38c0-1,0-1.11.06-1.2a.65.65,0,0,1,.12-.15,8,8,0,0,1,.84-.36l.78-.33V65.3a17.92,17.92,0,0,1,.06-2.64.54.54,0,0,1,.93,0,15.27,15.27,0,0,1,.06,2.43l0,2.31,1.26-.51,1.26-.51V64a11.74,11.74,0,0,1,.06-2.55A.43.43,0,0,1,646.84,61.16Zm-.33,10.65V69.38l-1.29.51L644,70.4v4.89l.09,0c.06,0,.63-.27,1.29-.51l1.17-.48Zm10.94-3.51a8.59,8.59,0,0,1,1.53.06,2.53,2.53,0,0,1,2.16,1.83,1.87,1.87,0,0,1,.06.66,2.69,2.69,0,0,1-.15,1.08,7.43,7.43,0,0,1-5.52,4.38,7.57,7.57,0,0,1-1.83,0,2.64,2.64,0,0,1-2.25-1.86,1.87,1.87,0,0,1-.06-.66,2.69,2.69,0,0,1,.15-1.08A5.54,5.54,0,0,1,653,70.52a7.94,7.94,0,0,1,4.47-2.22Zm-6.09,31.18V73.64h1V99.48Z" fill="#e01156"/>
  <path d="M708.77,64.43a8.59,8.59,0,0,1,1.53.06,2.53,2.53,0,0,1,2.16,1.83,1.87,1.87,0,0,1,.06.66,2.69,2.69,0,0,1-.15,1.08,7.43,7.43,0,0,1-5.52,4.38,7.57,7.57,0,0,1-1.83,0,2.64,2.64,0,0,1-2.25-1.86,1.87,1.87,0,0,1-.06-.66,2.69,2.69,0,0,1,.15-1.08,5.54,5.54,0,0,1,1.44-2.22,7.94,7.94,0,0,1,4.47-2.22ZM702.68,95.6V69.77h1V95.6Z" fill="#ec1c24"/>
  <path d="M754,107.23v-31h.6v31Z"/>
  <path d="M29.69,154.4a.32.32,0,0,1,.36,0,9.54,9.54,0,0,1,1,1.11,19.93,19.93,0,0,1,3.57,8.73,11.73,11.73,0,0,1-.45,4.86,22.44,22.44,0,0,1-4.23,7.44c-.3.39-.57.72-.6.75s0,.15.18.78c.54,1.68,1.38,4.44,1.68,5.49l.09.42h.39A7.73,7.73,0,0,1,39,190.79a6.77,6.77,0,0,1,.06,1.74,7.7,7.7,0,0,1-.75,2.73,7.49,7.49,0,0,1-4,3.72l-.33.12,0,1.26a38.24,38.24,0,0,1-.21,4.62c-.45,3.06-2.19,5.49-4.47,6.21a4.44,4.44,0,0,1-1.59.21,5,5,0,0,1-1.65-.21,6.11,6.11,0,0,1-2.94-1.65A5.74,5.74,0,0,1,21.41,206a3.17,3.17,0,0,1,.45-2.13,3.49,3.49,0,0,1,3-1.53,3,3,0,0,1,2.73,2.94,2.87,2.87,0,0,1-2.37,3,3.14,3.14,0,0,1-1.29-.09l-.21-.09.09.12a4.39,4.39,0,0,0,1.32,1.26,4.46,4.46,0,0,0,4.35.36,6.12,6.12,0,0,0,3-4.35,16.88,16.88,0,0,0,.3-3c0-.84,0-2.94,0-3a2.25,2.25,0,0,0-.36,0,8.51,8.51,0,0,1-1.83.12,9,9,0,0,1-2.61-.3,10.53,10.53,0,0,1-7.8-8.46A8.51,8.51,0,0,1,20,189a8,8,0,0,1,.15-1.92,17.4,17.4,0,0,1,3.3-7.29l2.79-3.6c.54-.66,1-1.2,1-1.23s-.09-.33-.18-.69a34,34,0,0,1-1.59-7.68,25.65,25.65,0,0,1-.06-4,13.11,13.11,0,0,1,3.12-7.08,7.84,7.84,0,0,1,1.17-1.14Zm2,4.71c-.15-.3-.3-.54-.3-.54a.89.89,0,0,0-.3.21,10.28,10.28,0,0,0-4.26,7.11,13.39,13.39,0,0,0,0,1.89A27.86,27.86,0,0,0,27.89,173a6.23,6.23,0,0,1,.24.81s.84-1.11,1.23-1.68a16.13,16.13,0,0,0,3.15-7.53,12.39,12.39,0,0,0,.06-2.37,7.09,7.09,0,0,0-.87-3.12Zm-2.94,20.7a11.49,11.49,0,0,0-.42-1.32s-1.2,1.47-1.86,2.37c-2.79,3.63-4,6.3-4.35,9.3,0,.21,0,.69,0,1.08a5.06,5.06,0,0,0,.06,1.11,6.09,6.09,0,0,0,.51,1.47,8,8,0,0,0,3.42,3.42,9.67,9.67,0,0,0,3.21,1.08,10.76,10.76,0,0,0,2.94,0c.51-.06.45,0,.42-.3A59.41,59.41,0,0,0,31,187.91c-.09-.39-.18-.75-.18-.78a2.48,2.48,0,0,0-.81.09,4.26,4.26,0,0,0-2.22,1.14,3.53,3.53,0,0,0-1,2.64A4,4,0,0,0,28,193.58a5.78,5.78,0,0,0,1.17.9c.33.18.36.21.42.33a.64.64,0,0,1-.6.87,6,6,0,0,1-1.26-.63,6.37,6.37,0,0,1-1.86-1.83A6,6,0,0,1,27.59,185a7.26,7.26,0,0,1,1.17-.63,11.07,11.07,0,0,1,1.14-.3c.06,0,.09,0,.09,0s-.51-1.92-1.23-4.26Zm3.78,7.41-.39-.06s0,.21.18,1a64.34,64.34,0,0,1,1.5,9.09c.06.72,0,.69.51.42a4.83,4.83,0,0,0,2-1.77,5.55,5.55,0,0,0,.3-5.55A5.89,5.89,0,0,0,32.54,187.22Z"/>
  <path d="M71.14,156.76a8.59,8.59,0,0,1,1.53.06,2.53,2.53,0,0,1,2.16,1.83,1.87,1.87,0,0,1,.06.66,2.69,2.69,0,0,1-.15,1.08,7.43,7.43,0,0,1-5.52,4.38,7.57,7.57,0,0,1-1.83,0,2.64,2.64,0,0,1-2.25-1.86,1.87,1.87,0,0,1-.06-.66,2.69,2.69,0,0,1,.15-1.08A5.54,5.54,0,0,1,66.67,159,7.94,7.94,0,0,1,71.14,156.76Zm-6.09,31.17V162.1h1v25.83Z" fill="#ec1c24"/>
  <path d="M108.94,146.74a1.8,1.8,0,0,1,1.08.15c.06,0,.06.36,0,5.25-.06,2.85-.09,5.19-.09,5.19s.12,0,.24-.12a4.63,4.63,0,0,1,2.19-.72,2.58,2.58,0,0,1,2,.78,3.08,3.08,0,0,1,.93,2,3.12,3.12,0,0,1-.36,1.62c-.42.81-1,1.38-2.82,2.61a8,8,0,0,0-1.8,1.44,4.31,4.31,0,0,1-.45.42.64.64,0,0,1-.81-.06,1.22,1.22,0,0,1-.15-.27c0-.06-.09-3.27-.18-8.34-.09-4.53-.15-8.58-.18-9v-.78l.12-.06Zm3.18,11a1.07,1.07,0,0,0-.81-.06,1.78,1.78,0,0,0-1.17,1.26,37.56,37.56,0,0,0-.06,3.87c0,.42,0,.81.06.9l0,.12.45-.39a10.82,10.82,0,0,0,1.56-1.59,5.23,5.23,0,0,0,.72-1.41,3.24,3.24,0,0,0-.18-2.07,1.23,1.23,0,0,0-.6-.63Zm12-1a8.59,8.59,0,0,1,1.53.06,2.53,2.53,0,0,1,2.16,1.83,1.87,1.87,0,0,1,.06.66,2.69,2.69,0,0,1-.15,1.08,7.43,7.43,0,0,1-5.52,4.38,7.57,7.57,0,0,1-1.83,0,2.64,2.64,0,0,1-2.25-1.86,1.87,1.87,0,0,1-.06-.66,2.69,2.69,0,0,1,.15-1.08,5.54,5.54,0,0,1,1.44-2.22A7.94,7.94,0,0,1,124.14,156.76Zm-6.09,31.17V162.1h1v25.83Z" fill="#e01156"/>
  <path d="M177.13,160.63a8.59,8.59,0,0,1,1.53.06,2.53,2.53,0,0,1,2.16,1.83,1.87,1.87,0,0,1,.06.66,2.69,2.69,0,0,1-.15,1.08,7.43,7.43,0,0,1-5.52,4.38,7.57,7.57,0,0,1-1.83,0,2.64,2.64,0,0,1-2.25-1.86,1.87,1.87,0,0,1-.06-.66,2.69,2.69,0,0,1,.15-1.08,5.54,5.54,0,0,1,1.44-2.22A7.94,7.94,0,0,1,177.13,160.63ZM171,191.81V166h1v25.84Z" fill="#eb008b"/>
  <path d="M214.93,150.61a1.8,1.8,0,0,1,1.08.15c.06,0,.06.36,0,5.25-.06,2.85-.09,5.19-.09,5.19s.12,0,.24-.12a4.63,4.63,0,0,1,2.19-.72,2.58,2.58,0,0,1,2,.78,3.08,3.08,0,0,1,.93,2,3.12,3.12,0,0,1-.36,1.62c-.42.81-1,1.38-2.82,2.61a8,8,0,0,0-1.8,1.44,4.31,4.31,0,0,1-.45.42.64.64,0,0,1-.81-.06,1.22,1.22,0,0,1-.15-.27c0-.06-.09-3.27-.18-8.34-.09-4.53-.15-8.58-.18-9v-.78l.12-.06a2.38,2.38,0,0,1,.27-.12Zm3.18,11a1.07,1.07,0,0,0-.81-.06,1.78,1.78,0,0,0-1.17,1.26,37.56,37.56,0,0,0-.06,3.87c0,.42,0,.81.06.9l0,.12.45-.39a10.82,10.82,0,0,0,1.56-1.59,5.23,5.23,0,0,0,.72-1.41,3.24,3.24,0,0,0-.18-2.07,1.23,1.23,0,0,0-.6-.63Zm12-1a8.59,8.59,0,0,1,1.53.06,2.53,2.53,0,0,1,2.16,1.83,1.87,1.87,0,0,1,.06.66,2.69,2.69,0,0,1-.15,1.08,7.43,7.43,0,0,1-5.52,4.38,7.57,7.57,0,0,1-1.83,0,2.64,2.64,0,0,1-2.25-1.86,1.87,1.87,0,0,1-.06-.66,2.69,2.69,0,0,1,.15-1.08,5.54,5.54,0,0,1,1.44-2.22A7.94,7.94,0,0,1,230.13,160.63ZM224,191.81V166h1v25.84Z" fill="#90278e"/>
  <path d="M283.13,164.51a8.59,8.59,0,0,1,1.53.06,2.53,2.53,0,0,1,2.16,1.83,1.87,1.87,0,0,1,.06.66,2.69,2.69,0,0,1-.15,1.08,7.43,7.43,0,0,1-5.52,4.38,7.57,7.57,0,0,1-1.83,0,2.64,2.64,0,0,1-2.25-1.86,1.87,1.87,0,0,1-.06-.66,2.69,2.69,0,0,1,.15-1.08,5.54,5.54,0,0,1,1.44-2.22,7.94,7.94,0,0,1,4.47-2.22ZM277,195.68V169.85h1v25.83Z" fill="#2e3191"/>
  <path d="M336.12,168.38a8.59,8.59,0,0,1,1.53.06,2.53,2.53,0,0,1,2.16,1.83,1.87,1.87,0,0,1,.06.66,2.69,2.69,0,0,1-.15,1.08,7.43,7.43,0,0,1-5.52,4.38,7.57,7.57,0,0,1-1.83,0,2.64,2.64,0,0,1-2.25-1.86,1.87,1.87,0,0,1-.06-.66,2.69,2.69,0,0,1,.15-1.08,5.54,5.54,0,0,1,1.44-2.22,7.94,7.94,0,0,1,4.47-2.22ZM330,199.56V173.72h1v25.84Z" fill="#0071bb"/>
  <path d="M373.92,158.36a1.8,1.8,0,0,1,1.08.15c.06,0,.06.36,0,5.25-.06,2.85-.09,5.19-.09,5.19s.12,0,.24-.12a4.63,4.63,0,0,1,2.19-.72,2.58,2.58,0,0,1,2,.78,3.08,3.08,0,0,1,.93,2,3.12,3.12,0,0,1-.36,1.62c-.42.81-1,1.38-2.82,2.61a8,8,0,0,0-1.8,1.44,4.31,4.31,0,0,1-.45.42A.64.64,0,0,1,374,177a1.22,1.22,0,0,1-.15-.27c0-.06-.09-3.27-.18-8.34-.09-4.53-.15-8.58-.18-9v-.78l.12-.06A2.38,2.38,0,0,1,373.92,158.36Zm3.18,11a1.07,1.07,0,0,0-.81-.06,1.78,1.78,0,0,0-1.17,1.26,37.56,37.56,0,0,0-.06,3.87c0,.42,0,.81.06.9l0,.12.45-.39a10.82,10.82,0,0,0,1.56-1.59,5.23,5.23,0,0,0,.72-1.41,3.24,3.24,0,0,0-.18-2.07,1.23,1.23,0,0,0-.6-.63Zm12-1a8.59,8.59,0,0,1,1.53.06,2.53,2.53,0,0,1,2.16,1.83,1.87,1.87,0,0,1,.06.66,2.69,2.69,0,0,1-.15,1.08,7.43,7.43,0,0,1-5.52,4.38,7.57,7.57,0,0,1-1.83,0,2.64,2.64,0,0,1-2.25-1.86,1.87,1.87,0,0,1-.06-.66,2.69,2.69,0,0,1,.15-1.08,5.54,5.54,0,0,1,1.44-2.22,7.94,7.94,0,0,1,4.47-2.22ZM383,199.56V173.72h1v25.84Z" fill="#00adee"/>
  <path d="M442.11,172.26a8.59,8.59,0,0,1,1.53.06,2.53,2.53,0,0,1,2.16,1.83,1.87,1.87,0,0,1,.06.66,2.69,2.69,0,0,1-.15,1.08,7.43,7.43,0,0,1-5.52,4.38,7.57,7.57,0,0,1-1.83,0,2.64,2.64,0,0,1-2.25-1.86,1.87,1.87,0,0,1-.06-.66,2.69,2.69,0,0,1,.15-1.08,5.54,5.54,0,0,1,1.44-2.22,7.94,7.94,0,0,1,4.47-2.22ZM436,203.43V177.6h1v25.83Z" fill="#00a89c"/>
  <path d="M479.91,162.24a1.8,1.8,0,0,1,1.08.15c.06,0,.06.36,0,5.25-.06,2.85-.09,5.19-.09,5.19s.12,0,.24-.12a4.63,4.63,0,0,1,2.19-.72,2.58,2.58,0,0,1,2,.78,3.08,3.08,0,0,1,.93,2,3.12,3.12,0,0,1-.36,1.62c-.42.81-1,1.38-2.82,2.61a8,8,0,0,0-1.8,1.44,4.31,4.31,0,0,1-.45.42.64.64,0,0,1-.81-.06,1.22,1.22,0,0,1-.15-.27c0-.06-.09-3.27-.18-8.34-.09-4.53-.15-8.58-.18-9v-.78l.12-.06A2.38,2.38,0,0,1,479.91,162.24Zm3.18,11a1.07,1.07,0,0,0-.81-.06,1.78,1.78,0,0,0-1.17,1.26,37.56,37.56,0,0,0-.06,3.87c0,.42,0,.81.06.9l0,.12.45-.39a10.82,10.82,0,0,0,1.56-1.59,5.23,5.23,0,0,0,.72-1.41,3.24,3.24,0,0,0-.18-2.07,1.23,1.23,0,0,0-.6-.63Zm12-1a8.59,8.59,0,0,1,1.53.06,2.53,2.53,0,0,1,2.16,1.83,1.87,1.87,0,0,1,.06.66,2.69,2.69,0,0,1-.15,1.08,7.43,7.43,0,0,1-5.52,4.38,7.57,7.57,0,0,1-1.83,0,2.64,2.64,0,0,1-2.25-1.86,1.87,1.87,0,0,1-.06-.66,2.69,2.69,0,0,1,.15-1.08,5.54,5.54,0,0,1,1.44-2.22,7.94,7.94,0,0,1,4.47-2.22ZM489,203.43V177.6h1v25.83Z" fill="#00a551"/>
  <path d="M548.11,176.13a8.59,8.59,0,0,1,1.53.06A2.53,2.53,0,0,1,551.8,178a1.87,1.87,0,0,1,.06.66,2.69,2.69,0,0,1-.15,1.08,7.43,7.43,0,0,1-5.52,4.38,7.57,7.57,0,0,1-1.83,0,2.64,2.64,0,0,1-2.25-1.86,1.87,1.87,0,0,1-.06-.66,2.69,2.69,0,0,1,.15-1.08,5.54,5.54,0,0,1,1.44-2.22,7.94,7.94,0,0,1,4.47-2.22ZM542,207.31V181.47h1v25.84Z" fill="#8bc53f"/>
  <path d="M601.1,180a8.59,8.59,0,0,1,1.53.06,2.53,2.53,0,0,1,2.16,1.83,1.87,1.87,0,0,1,.06.66,2.69,2.69,0,0,1-.15,1.08,7.43,7.43,0,0,1-5.52,4.38,7.57,7.57,0,0,1-1.83,0,2.64,2.64,0,0,1-2.25-1.86,1.87,1.87,0,0,1-.06-.66,2.69,2.69,0,0,1,.15-1.08,5.54,5.54,0,0,1,1.44-2.22A7.94,7.94,0,0,1,601.1,180ZM595,211.18V184.06h1v27.12Z" fill="#fff100"/>
  <path d="M638.9,170a1.8,1.8,0,0,1,1.08.15c.06,0,.06.36,0,5.25-.06,2.85-.09,5.19-.09,5.19s.12,0,.24-.12a4.63,4.63,0,0,1,2.19-.72,2.58,2.58,0,0,1,2,.78,3.08,3.08,0,0,1,.93,2,3.12,3.12,0,0,1-.36,1.62c-.42.81-1,1.38-2.82,2.61a8,8,0,0,0-1.8,1.44,4.31,4.31,0,0,1-.45.42.64.64,0,0,1-.81-.06,1.22,1.22,0,0,1-.15-.27c0-.06-.09-3.27-.18-8.34-.09-4.53-.15-8.58-.18-9v-.78l.12-.06a2.38,2.38,0,0,1,.27-.12Zm3.18,11a1.07,1.07,0,0,0-.81-.06,1.78,1.78,0,0,0-1.17,1.26,37.56,37.56,0,0,0-.06,3.87c0,.42,0,.81.06.9l0,.12.45-.39a10.82,10.82,0,0,0,1.56-1.59,5.23,5.23,0,0,0,.72-1.41,3.24,3.24,0,0,0-.18-2.07,1.23,1.23,0,0,0-.6-.63Zm12-1a8.59,8.59,0,0,1,1.53.06,2.53,2.53,0,0,1,2.16,1.83,1.87,1.87,0,0,1,.06.66,2.69,2.69,0,0,1-.15,1.08,7.43,7.43,0,0,1-5.52,4.38,7.57,7.57,0,0,1-1.83,0,2.64,2.64,0,0,1-2.25-1.86,1.87,1.87,0,0,1-.06-.66,2.69,2.69,0,0,1,.15-1.08,5.54,5.54,0,0,1,1.44-2.22A7.94,7.94,0,0,1,654.1,180ZM648,211.18V184.06h1v27.12Z" fill="#f6921e"/>
  <path d="M707.09,183.88a8.59,8.59,0,0,1,1.53.06,2.53,2.53,0,0,1,2.16,1.83,1.87,1.87,0,0,1,.06.66,2.69,2.69,0,0,1-.15,1.08,7.43,7.43,0,0,1-5.52,4.38,7.57,7.57,0,0,1-1.83,0,2.64,2.64,0,0,1-2.25-1.86,1.87,1.87,0,0,1-.06-.66,2.69,2.69,0,0,1,.15-1.08,5.54,5.54,0,0,1,1.44-2.22,7.94,7.94,0,0,1,4.47-2.22Zm3.72-23.07v25.83h-1V160.81Z" fill="#ec1c24"/>
  <path d="M754,199.56v-31h.6v31Z"/>
</svg>
