<svg id="Layer_1" data-name="Layer 1" xmlns="http://www.w3.org/2000/svg" viewBox="0 0 340.16 340.16">
  <g>
    <path d="M126.88,60.26c.86-1.93,1.76-3.88,2.74-5.81l1.25-.43c-.9,1.73-1.75,3.46-2.53,5.2.87-.34,1.76-.64,2.65-1l1.33-.46.67-.22.82-.27c.49-.17,1-.31,1.49-.46,1-.31,2-.6,3-.87a119.45,119.45,0,0,1,49.3-3l-.13.89a118.69,118.69,0,0,0-48.93,3c-1,.28-2,.56-3,.87-.49.15-1,.29-1.47.46l-.82.27-.66.22c-.45.14-.89.29-1.33.45-.87.32-1.76.62-2.63,1,1.73.78,3.44,1.62,5.09,2.47l-1.15.4C130.73,62,128.83,61.12,126.88,60.26Z" fill="#00a99d"/>
    <path d="M187.52,53.38c1.69-1.24,3.45-2.49,5.24-3.68l1.3.25c-1.63,1-3.22,2.14-4.77,3.26.92.16,1.86.29,2.78.47l1.38.27.69.14.83.16c.49.09,1,.21,1.46.32l2.93.68a103.62,103.62,0,0,1,22.49,8.41,115.3,115.3,0,0,1,20,13.24l-.57.69a115.15,115.15,0,0,0-19.88-13.13,103,103,0,0,0-22.29-8.34l-2.91-.67c-.49-.11-1-.23-1.46-.32L194,55l-.69-.13-1.38-.27c-.91-.18-1.84-.31-2.76-.47,1.12,1.54,2.19,3.09,3.2,4.68l-1.2-.24C190,56.81,188.77,55.11,187.52,53.38Z" fill="#00a99d"/>
    <path d="M244.47,78.51c2.09-.19,4.25-.39,6.4-.49l1,.88c-1.93.07-3.86.19-5.77.37.72.61,1.46,1.19,2.15,1.83l1.05.94.53.46.62.56,1.09,1c.71.69,1.46,1.35,2.15,2.06a113.62,113.62,0,0,1,26.19,39.45l-.83.33a112.71,112.71,0,0,0-26-39.14c-.69-.71-1.43-1.36-2.14-2l-1.08-1-.61-.55-.53-.46-1-.93c-.69-.63-1.42-1.21-2.13-1.82q.26,2.83.36,5.66L245,84.8C244.85,82.71,244.67,80.64,244.47,78.51Z" fill="#00a99d"/>
    <path d="M279.84,126.74c1.94.85,3.89,1.75,5.81,2.72.15.42.3.83.43,1.25-1.73-.89-3.45-1.74-5.2-2.52.34.87.65,1.76,1,2.65.16.44.32.88.46,1.33l.23.67.26.8c.16.47.3,1,.45,1.43.3,1,.59,1.92.85,2.89a117.33,117.33,0,0,1,4.11,23.67,111.47,111.47,0,0,1-.71,24l-.89-.13a110.27,110.27,0,0,0,.7-23.82,115.56,115.56,0,0,0-4.08-23.49c-.26-1-.54-1.91-.84-2.86-.15-.48-.29-1-.45-1.43l-.26-.79-.22-.66c-.14-.44-.29-.89-.45-1.32-.32-.88-.62-1.77-1-2.63-.78,1.73-1.62,3.43-2.48,5.09-.12-.39-.26-.77-.4-1.15C278.11,130.59,279,128.69,279.84,126.74Z" fill="#00a99d"/>
    <path d="M286.79,187.45c1.24,1.7,2.5,3.45,3.7,5.23l-.24,1.29c-1.06-1.62-2.17-3.2-3.29-4.75-.16.93-.28,1.86-.46,2.78l-.26,1.39-.13.69-.16.81c-.08.48-.2,1-.3,1.44l-.63,2.88a108.38,108.38,0,0,1-7.77,22.21,106.12,106.12,0,0,1-12.56,19.9l-.71-.56A104.67,104.67,0,0,0,276.44,221a107.2,107.2,0,0,0,7.7-22l.63-2.86c.1-.47.22-.95.3-1.43l.15-.8.13-.69.26-1.37c.18-.92.31-1.85.46-2.77-1.54,1.12-3.09,2.2-4.67,3.23l.23-1.21C283.37,189.94,285.06,188.71,286.79,187.45Z" fill="#00a99d"/>
    <path d="M262.47,243.45c.22,2.09.43,4.24.57,6.38l-.86,1c-.1-1.93-.25-3.86-.45-5.76-.6.72-1.18,1.46-1.8,2.17l-.92,1.07-.46.53-.56.64c-.34.39-.69.76-1,1.14-.7.76-1.38,1.53-2.09,2.26a111.92,111.92,0,0,1-18.8,15.88A105.51,105.51,0,0,1,225.44,275a121.52,121.52,0,0,1-11.25,5l-.32-.84a119.58,119.58,0,0,0,11.16-5,103.75,103.75,0,0,0,10.53-6.2,110.91,110.91,0,0,0,18.65-15.75c.71-.73,1.38-1.49,2.08-2.24.34-.38.69-.75,1-1.13l.56-.64.46-.53.92-1.06c.61-.7,1.19-1.44,1.78-2.16-1.89.19-3.77.35-5.65.44l.8-.93C258.27,243.88,260.34,243.67,262.47,243.45Z" fill="#00a99d"/>
    <path d="M212.08,280.36q-1.31,2.89-2.79,5.78l-1.26.41c.92-1.71,1.78-3.44,2.59-5.17-.88.33-1.77.62-2.66.93l-1.34.45L206,283l-.79.25-1.42.43c-1,.29-1.91.55-2.86.8a118,118,0,0,1-23.4,3.82,111.89,111.89,0,0,1-11.87.14,113.77,113.77,0,0,1-11.81-1.17l.13-.89a112.58,112.58,0,0,0,11.72,1.16,110.24,110.24,0,0,0,11.78-.14,117.07,117.07,0,0,0,23.22-3.78c.94-.26,1.89-.52,2.83-.81l1.41-.42.78-.25.67-.21c.45-.14.89-.28,1.33-.44.88-.31,1.77-.59,2.64-.93-1.72-.8-3.41-1.65-5.06-2.53.39-.12.77-.25,1.16-.39C208.26,278.58,210.14,279.48,212.08,280.36Z" fill="#00a99d"/>
    <path d="M152.73,286.79c-1.7,1.24-3.45,2.5-5.24,3.69l-1.29-.25c1.62-1,3.21-2.15,4.76-3.27-.93-.16-1.86-.28-2.78-.47l-1.38-.27-.7-.13-.82-.16c-.49-.09-1-.21-1.47-.32-1-.22-2-.43-2.93-.67A110.23,110.23,0,0,1,98,264l.56-.71A110,110,0,0,0,118.67,276a111.43,111.43,0,0,0,22.42,8c1,.24,1.94.44,2.91.66.49.11,1,.23,1.46.32l.82.16.69.13,1.37.27c.92.18,1.84.31,2.76.46-1.11-1.54-2.18-3.09-3.21-4.67l1.21.23C150.26,283.37,151.47,285.06,152.73,286.79Z" fill="#00a99d"/>
    <path d="M96.89,262.61c-2.09.22-4.24.44-6.39.57l-1-.87q2.91-.13,5.77-.44c-.72-.6-1.47-1.17-2.17-1.8L92,259.14l-.54-.46-.64-.56c-.39-.34-.76-.7-1.13-1-.75-.71-1.52-1.39-2.25-2.11A112.09,112.09,0,0,1,71.78,236,116.78,116.78,0,0,1,60.5,214.19l.84-.33a116.23,116.23,0,0,0,11.19,21.69,111.15,111.15,0,0,0,15.58,18.77c.72.72,1.48,1.4,2.22,2.09l1.13,1,.64.56.53.46,1.05.92c.7.62,1.44,1.19,2.16,1.79-.2-1.89-.34-3.77-.43-5.66l.93.81C96.46,258.41,96.66,260.48,96.89,262.61Z" fill="#00a99d"/>
    <path d="M60.14,213c-1.93-.85-3.88-1.76-5.8-2.75-.15-.41-.29-.83-.43-1.25,1.73.9,3.46,1.76,5.2,2.55-.34-.88-.64-1.77-1-2.66-.16-.44-.31-.88-.45-1.33l-.22-.67-.26-.79c-.15-.46-.29-.94-.43-1.41-.29-.94-.57-1.89-.83-2.84a117,117,0,0,1-4-23.28c-.28-3.94-.35-7.88-.31-11.82a83.33,83.33,0,0,1,1-11.8l.89.13a81.76,81.76,0,0,0-1,11.68c0,3.92,0,7.84.3,11.75a116.83,116.83,0,0,0,4,23.1c.25.95.53,1.88.82,2.82.14.47.28.94.43,1.4l.26.78.21.66.45,1.33c.32.88.61,1.76,1,2.63.79-1.72,1.63-3.42,2.5-5.08.12.39.25.77.39,1.16C61.89,209.13,61,211,60.14,213Z" fill="#00a99d"/>
    <path d="M53.06,152.29c-1.24-1.7-2.49-3.46-3.68-5.26l.26-1.29c1,1.63,2.13,3.22,3.25,4.78.16-.93.29-1.86.48-2.78l.27-1.39.14-.69.16-.83c.09-.5.22-1,.33-1.49l.7-3a110.91,110.91,0,0,1,8.5-22.8A116.93,116.93,0,0,1,76.65,97.13l.7.56A116.44,116.44,0,0,0,64.27,118a109.92,109.92,0,0,0-8.42,22.62l-.7,2.94c-.11.49-.24,1-.33,1.47l-.16.83-.14.69-.27,1.37c-.19.91-.31,1.84-.47,2.76,1.54-1.11,3.09-2.18,4.68-3.19l-.23,1.2C56.48,149.82,54.79,151,53.06,152.29Z" fill="#00a99d"/>
    <path d="M77.9,96.44c-.21-2.09-.43-4.24-.56-6.38l.86-1q.15,2.89.45,5.76c.6-.72,1.17-1.46,1.8-2.16l.92-1.07.46-.53.55-.63,1-1.09c.67-.73,1.32-1.47,2-2.18a110,110,0,0,1,18-15.38,105.84,105.84,0,0,1,10.19-6.09c3.52-1.82,7.13-3.45,10.8-4.92l.33.84a116.06,116.06,0,0,0-10.71,4.88,104.17,104.17,0,0,0-10.11,6A109,109,0,0,0,86,87.78c-.68.7-1.33,1.44-2,2.16l-1,1.09-.54.62-.46.53-.92,1.06c-.62.7-1.19,1.44-1.79,2.15,1.89-.19,3.78-.34,5.66-.43l-.81.93C82.1,96,80,96.22,77.9,96.44Z" fill="#00a99d"/>
  </g>
  <g>
    <path d="M214.64,52.83c-1.94.88-3.83,1.78-5.68,2.74l-1.16-.39c1.65-.86,3.35-1.73,5.07-2.52-.88-.33-1.76-.63-2.64-.93l-1.33-.45-.67-.21-.87-.28c-.52-.17-1.05-.33-1.58-.48-1.05-.31-2.11-.62-3.18-.9a126,126,0,0,0-52.42-2.7l-.14-.89a126.8,126.8,0,0,1,52.8,2.73c1.07.27,2.13.59,3.2.9.53.15,1.06.31,1.59.49l.88.27.67.22c.45.13.89.3,1.33.45.89.3,1.79.6,2.67.93-.81-1.74-1.68-3.44-2.58-5.18l1.25.42C212.84,49,213.76,50.91,214.64,52.83Z" fill="#488bca"/>
    <path d="M150.11,46.26c-1.24,1.75-2.42,3.47-3.55,5.21l-1.2.26c1-1.62,2-3.16,3.13-4.72l-2.75.49-1.37.3-.69.14-.9.2c-.56.11-1.11.23-1.65.37l-3.28.82A125.29,125.29,0,0,0,90.17,74l-.57-.69a126,126,0,0,1,48-24.87l3.31-.82c.55-.15,1.1-.27,1.66-.38l.92-.2.69-.14,1.37-.3,2.78-.5c-1.56-1.09-3.18-2.19-4.81-3.2l1.29-.28C146.63,43.83,148.4,45.05,150.11,46.26Z" fill="#488bca"/>
    <path d="M89.89,73.67c-.18,2.14-.33,4.21-.4,6.3l-.91.83c0-1.89.15-3.77.29-5.66-.7.61-1.42,1.2-2.11,1.83l-1,1-.52.47-.66.61c-.4.35-.77.74-1.16,1.11-.77.76-1.55,1.5-2.3,2.27a125.59,125.59,0,0,0-27.78,43.14l-.84-.32a126.36,126.36,0,0,1,28-43.45c.75-.78,1.54-1.52,2.31-2.28.4-.38.77-.77,1.18-1.13l.66-.61.52-.47,1-1c.69-.63,1.42-1.23,2.13-1.85-1.91-.15-3.85-.26-5.78-.3l1-.89C85.64,73.34,87.79,73.5,89.89,73.67Z" fill="#488bca"/>
    <path d="M52.89,125.36c.88,1.94,1.77,3.83,2.74,5.69l-.4,1.16c-.86-1.65-1.73-3.36-2.52-5.08-.33.88-.63,1.76-.93,2.64-.15.45-.31.88-.45,1.33l-.21.67-.28.87c-.17.52-.33,1.05-.48,1.58-.31,1.06-.63,2.12-.91,3.18a126.09,126.09,0,0,0-2.75,52.51l-.89.14a126.85,126.85,0,0,1,2.78-52.88c.28-1.08.59-2.14.91-3.21.15-.53.31-1.06.49-1.59l.28-.88.21-.67c.14-.45.3-.89.45-1.34.31-.89.61-1.78.94-2.66-1.75.81-3.45,1.67-5.18,2.57l.42-1.25C49,127.15,51,126.24,52.89,125.36Z" fill="#488bca"/>
    <path d="M46.25,190c1.75,1.24,3.47,2.43,5.21,3.56l.25,1.2c-1.61-1-3.15-2.05-4.72-3.14.17.91.32,1.84.5,2.75l.29,1.37.15.69.19.89c.1.54.23,1.08.36,1.61l.8,3.21a125.3,125.3,0,0,0,23.85,46.79l-.69.57a126.23,126.23,0,0,1-24-47.13l-.8-3.23c-.14-.54-.26-1.08-.37-1.63l-.19-.89-.15-.69-.29-1.38c-.19-.93-.33-1.86-.5-2.78-1.1,1.56-2.19,3.17-3.21,4.81l-.27-1.29C43.81,193.46,45,191.69,46.25,190Z" fill="#488bca"/>
    <path d="M72.78,249.19c2.14.2,4.22.37,6.29.47l.83.92c-1.9-.06-3.76-.19-5.66-.36.6.71,1.19,1.44,1.81,2.14l.94,1,.47.52.62.69c.37.43.76.84,1.16,1.24l2.35,2.44A125.59,125.59,0,0,0,127,287.38l-.31.85A126.75,126.75,0,0,1,81,258.93l-2.38-2.46c-.39-.41-.79-.82-1.16-1.25l-.63-.7-.47-.52L75.37,253c-.62-.7-1.21-1.43-1.82-2.15-.17,1.9-.31,3.84-.36,5.77l-.89-1C72.42,253.43,72.59,251.28,72.78,249.19Z" fill="#488bca"/>
    <path d="M126.79,287.8c1.93-.9,3.81-1.82,5.65-2.8l1.17.38c-1.65.88-3.33,1.76-5.05,2.58.88.32,1.77.6,2.65.9l1.34.43.67.2.85.26c.51.17,1,.31,1.54.46,1,.3,2.07.58,3.11.84a126.09,126.09,0,0,0,51.16,2.42l.14.89a127,127,0,0,1-51.52-2.44c-1.05-.26-2.09-.55-3.13-.85l-1.56-.45-.86-.27-.67-.21-1.34-.43c-.9-.29-1.79-.58-2.68-.9.83,1.73,1.71,3.43,2.64,5.15l-1.26-.41C128.63,291.65,127.69,289.72,126.79,287.8Z" fill="#488bca"/>
    <path d="M190,293.91c1.24-1.75,2.43-3.46,3.56-5.2l1.2-.26c-1,1.61-2.05,3.16-3.14,4.72.92-.17,1.84-.31,2.75-.5l1.37-.29.69-.14.89-.19c.54-.11,1.07-.23,1.6-.37l3.2-.79a125.23,125.23,0,0,0,46.65-23.71l.57.7a126.14,126.14,0,0,1-47,23.88l-3.22.8c-.54.13-1.08.26-1.62.37l-.89.19-.69.14-1.38.29c-.93.19-1.85.34-2.78.5,1.57,1.1,3.17,2.2,4.81,3.21l-1.29.27C193.43,296.35,191.66,295.13,190,293.91Z" fill="#488bca"/>
    <path d="M249,267.53c.21-2.13.38-4.22.5-6.29l.91-.82c-.06,1.89-.2,3.76-.37,5.66.71-.61,1.44-1.19,2.14-1.81l1-.93.52-.47.68-.6c.41-.36.8-.74,1.2-1.11L258,258.9a119.26,119.26,0,0,0,16.49-20.26,123.4,123.4,0,0,0,11.74-23.36l.84.32a124.88,124.88,0,0,1-11.82,23.53,120.67,120.67,0,0,1-16.62,20.41l-2.39,2.27c-.39.38-.79.76-1.21,1.13l-.67.6-.53.47-1,.94c-.71.62-1.44,1.21-2.16,1.82,1.91.17,3.84.31,5.77.38l-1,.88C253.24,267.91,251.09,267.73,249,267.53Z" fill="#488bca"/>
    <path d="M287.45,214.32c-.89-1.94-1.79-3.82-2.76-5.68l.39-1.16c.87,1.65,1.74,3.35,2.54,5.07.32-.88.62-1.76.92-2.65.15-.44.3-.88.44-1.33l.21-.66.27-.87c.17-.52.33-1,.48-1.57.31-1.05.61-2.1.88-3.16a126,126,0,0,0,2.63-52.13l.89-.14a126.88,126.88,0,0,1-2.65,52.5c-.27,1.06-.58,2.12-.89,3.18q-.23.79-.48,1.59l-.27.87-.21.67c-.14.45-.3.89-.45,1.34-.3.89-.6,1.78-.93,2.66,1.75-.81,3.44-1.68,5.18-2.59l-.42,1.25C291.31,212.51,289.37,213.44,287.45,214.32Z" fill="#488bca"/>
    <path d="M294.86,151.13c-1.74-1.24-3.46-2.43-5.2-3.56l-.26-1.2c1.61,1,3.16,2,4.72,3.14-.17-.92-.32-1.84-.5-2.75l-.29-1.37-.15-.69-.19-.89c-.11-.55-.23-1.09-.37-1.62l-.8-3.23a125.23,125.23,0,0,0-24.06-47l.7-.57a126.28,126.28,0,0,1,24.23,47.32l.81,3.25c.14.54.26,1.08.37,1.63l.19.9.15.69.29,1.38c.19.92.34,1.85.51,2.78,1.09-1.57,2.19-3.18,3.2-4.82l.27,1.29C297.3,147.65,296.08,149.42,294.86,151.13Z" fill="#488bca"/>
    <path d="M267.14,90.68c-2.13-.19-4.21-.36-6.29-.45l-.82-.91c1.89.05,3.76.18,5.66.34-.61-.71-1.2-1.44-1.82-2.13l-.94-1-.47-.52-.61-.68c-.36-.41-.75-.8-1.13-1.2l-2.3-2.36a125.67,125.67,0,0,0-43.94-28.48l.32-.84a126.58,126.58,0,0,1,44.26,28.68l2.31,2.39c.38.39.77.79,1.14,1.2l.61.68.48.53.94,1c.63.7,1.22,1.43,1.83,2.15.17-1.91.3-3.85.35-5.77l.88,1C267.5,86.44,267.33,88.59,267.14,90.68Z" fill="#488bca"/>
  </g>
  <g>
    <g>
      <circle cx="232.97" cy="60.72" r="19.97" fill="#0072bc"/>
      <path d="M238.6,53.36v2.83h-8.07v3.27h7.41v2.61h-7.41v3.74h8.24v2.82H227.18V53.36Z" fill="#fff"/>
    </g>
    <g>
      <circle cx="170.08" cy="44.29" r="19.97" fill="#ee342e"/>
      <path d="M171.83,37.05l5.71,15.27h-3.48l-1.16-3.4h-5.71l-1.2,3.4h-3.38l5.78-15.27Zm.19,9.36-1.92-5.6h0l-2,5.6Z" fill="#fff"/>
    </g>
    <g>
      <circle cx="108.48" cy="279.85" r="19.97" fill="#f5832b"/>
      <path d="M105.12,272.87l5.71,15.27h-3.48l-1.16-3.4h-5.71l-1.2,3.4H95.9l5.78-15.27Zm.19,9.36-1.92-5.6h0l-2,5.6Z" fill="#fff"/>
      <path d="M114.47,288.14v-3.51l-2.12.43v-2l2.12-.43V279.3l-2.12.43v-2l2.12-.47v-3.34l.87-.15v3.32l2.36-.54v-3.74l.89-.15v3.7l2.14-.45v2l-2.14.42v3.32l2.14-.41v2l-2.14.45v3.14l-.89.17v-3.12l-2.36.56V288Zm.87-5.71,2.36-.54v-3.34l-2.36.58Z" fill="#fff"/>
    </g>
    <g>
      <circle cx="295.48" cy="170.08" r="19.97" fill="#92278f"/>
      <path d="M296.58,162.68v2.82H289.2V169h6.39v2.61H289.2V178h-3.36V162.68Z" fill="#fff"/>
      <path d="M300.83,178v-3.51l-2.12.43v-2l2.12-.43v-3.34l-2.12.43v-2l2.12-.47v-3.33l.88-.15v3.31l2.35-.53v-3.75l.9-.15v3.7l2.14-.45v2l-2.14.42v3.32l2.14-.41v2l-2.14.45v3.14l-.9.18v-3.13l-2.35.56v3.53Zm.88-5.71,2.35-.54v-3.34l-2.35.58Z" fill="#fff"/>
    </g>
    <g>
      <circle cx="279.02" cy="107.18" r="19.97" fill="#fff200"/>
      <path d="M280.65,99.63a9.4,9.4,0,0,1,2,.19,4.38,4.38,0,0,1,1.54.63,2.87,2.87,0,0,1,1,1.16,4.07,4.07,0,0,1,.36,1.8,3.37,3.37,0,0,1-.53,1.93,3.81,3.81,0,0,1-1.55,1.26,3.65,3.65,0,0,1,2.11,1.42,4.25,4.25,0,0,1,.69,2.45,4.19,4.19,0,0,1-.44,2,4,4,0,0,1-1.21,1.38,5.58,5.58,0,0,1-1.73.79,7.89,7.89,0,0,1-2,.26h-7.4V99.63Zm-.43,6.18a2.47,2.47,0,0,0,1.48-.43,1.64,1.64,0,0,0,.58-1.39,1.76,1.76,0,0,0-.2-.88,1.24,1.24,0,0,0-.51-.53,2.1,2.1,0,0,0-.74-.27,4.74,4.74,0,0,0-.86-.08h-3.15v3.58Zm.2,6.48a4.83,4.83,0,0,0,.94-.1,2.23,2.23,0,0,0,.79-.32,1.52,1.52,0,0,0,.54-.61,2,2,0,0,0,.21-1,1.94,1.94,0,0,0-.67-1.68,2.78,2.78,0,0,0-1.75-.51h-3.66v4.2Z" fill="#fff"/>
    </g>
    <g>
      <circle cx="232.97" cy="279.43" r="19.97" fill="#e11156"/>
      <path d="M231.32,287.21a5.53,5.53,0,0,1-2.2.46,7.73,7.73,0,0,1-3.15-.61,6.55,6.55,0,0,1-2.37-1.68,7.39,7.39,0,0,1-1.47-2.51,9.27,9.27,0,0,1-.52-3.11,9.64,9.64,0,0,1,.52-3.18A7.58,7.58,0,0,1,223.6,274a6.62,6.62,0,0,1,2.37-1.71,7.57,7.57,0,0,1,3.15-.62,7.29,7.29,0,0,1,2.28.35,6.3,6.3,0,0,1,2,1,5.55,5.55,0,0,1,1.46,1.69,5.69,5.69,0,0,1,.71,2.31h-3.21a3.22,3.22,0,0,0-1.15-1.93,3.36,3.36,0,0,0-2.08-.64,3.92,3.92,0,0,0-1.92.44,3.63,3.63,0,0,0-1.29,1.17,5.49,5.49,0,0,0-.71,1.68,8.39,8.39,0,0,0-.23,1.95,7.72,7.72,0,0,0,.23,1.87,5.26,5.26,0,0,0,.71,1.64,3.7,3.7,0,0,0,1.29,1.16,3.92,3.92,0,0,0,1.92.44,3.68,3.68,0,0,0,2.58-.84,3.72,3.72,0,0,0,1.06-2.45h-3.38v-2.5h6.41v8.25h-2.13l-.35-1.73A5,5,0,0,1,231.32,287.21Z" fill="#fff"/>
      <path d="M240.82,287.33v-3.51l-2.12.43v-2l2.12-.43V278.5l-2.12.43v-2l2.12-.47v-3.34l.88-.15v3.31l2.35-.53V272l.9-.15v3.7l2.14-.45v2l-2.14.43v3.31l2.14-.4v2l-2.14.44v3.15l-.9.17v-3.12l-2.35.55v3.53Zm.88-5.71,2.35-.53v-3.34l-2.35.58Z" fill="#fff"/>
    </g>
    <g>
      <circle cx="44.68" cy="170.08" r="19.97" fill="#87c540"/>
      <path d="M47.69,166.61a3.33,3.33,0,0,0-.75-.84,3.63,3.63,0,0,0-1-.57,3.57,3.57,0,0,0-1.18-.2,3.85,3.85,0,0,0-1.93.44,3.6,3.6,0,0,0-1.28,1.17,5.09,5.09,0,0,0-.72,1.68,8.39,8.39,0,0,0-.22,2,7.78,7.78,0,0,0,.22,1.87,4.91,4.91,0,0,0,.72,1.63,3.6,3.6,0,0,0,1.28,1.17,4,4,0,0,0,1.93.44,3.08,3.08,0,0,0,2.4-.94,4.37,4.37,0,0,0,1.06-2.48h3.25a7.65,7.65,0,0,1-.66,2.59,6.27,6.27,0,0,1-1.41,2,5.87,5.87,0,0,1-2.05,1.24,7.45,7.45,0,0,1-2.59.43,7.81,7.81,0,0,1-3.16-.61,6.6,6.6,0,0,1-2.36-1.68,7.58,7.58,0,0,1-1.48-2.51,9.26,9.26,0,0,1-.51-3.11,9.64,9.64,0,0,1,.51-3.18,7.77,7.77,0,0,1,1.48-2.55,6.67,6.67,0,0,1,2.36-1.71,7.65,7.65,0,0,1,3.16-.63,7.75,7.75,0,0,1,2.38.37,6.24,6.24,0,0,1,2,1.06,5.72,5.72,0,0,1,1.47,1.72,6.23,6.23,0,0,1,.72,2.35H48.07A2.65,2.65,0,0,0,47.69,166.61Z" fill="#fff"/>
    </g>
    <g>
      <circle cx="105.31" cy="61" r="19.97" fill="#00a99d"/>
      <path d="M105.14,53.55a7.94,7.94,0,0,1,2.75.47,6.11,6.11,0,0,1,2.2,1.41,6.6,6.6,0,0,1,1.46,2.36,9.47,9.47,0,0,1,.52,3.31,10.42,10.42,0,0,1-.43,3.08,6.71,6.71,0,0,1-1.29,2.44,6.12,6.12,0,0,1-2.16,1.61,7.19,7.19,0,0,1-3,.59H98.55V53.55ZM104.91,66a4.26,4.26,0,0,0,1.41-.24,3,3,0,0,0,1.22-.78,3.86,3.86,0,0,0,.85-1.42,6.11,6.11,0,0,0,.32-2.14,8.85,8.85,0,0,0-.22-2.08,4.29,4.29,0,0,0-.74-1.6,3.18,3.18,0,0,0-1.36-1,5.31,5.31,0,0,0-2.08-.36h-2.4V66Z" fill="#fff"/>
    </g>
    <g>
      <circle cx="170.08" cy="295.87" r="19.97" fill="#00aeef"/>
      <path d="M165.37,288.81a7.94,7.94,0,0,1,2.75.47,5.86,5.86,0,0,1,2.2,1.41,6.56,6.56,0,0,1,1.46,2.35,9.53,9.53,0,0,1,.52,3.32,10.42,10.42,0,0,1-.43,3.08,6.71,6.71,0,0,1-1.29,2.44,6.12,6.12,0,0,1-2.16,1.61,7.34,7.34,0,0,1-3,.59h-6.59V288.81Zm-.23,12.45a4.26,4.26,0,0,0,1.41-.24,3.14,3.14,0,0,0,1.22-.78,4,4,0,0,0,.85-1.42,6.15,6.15,0,0,0,.32-2.14,8.79,8.79,0,0,0-.22-2.08A4.22,4.22,0,0,0,168,293a3.18,3.18,0,0,0-1.36-1,5.31,5.31,0,0,0-2.08-.36h-2.4v9.63Z" fill="#fff"/>
      <path d="M176.94,304.08v-3.51l-2.11.43v-2l2.11-.43v-3.33l-2.11.43v-2l2.11-.47v-3.34l.88-.15V293l2.35-.53v-3.74l.9-.15v3.7l2.14-.45v2l-2.14.43v3.31l2.14-.4v2l-2.14.45v3.15l-.9.17v-3.12l-2.35.55V304Zm.88-5.71,2.35-.53V294.5l-2.35.58Z" fill="#fff"/>
    </g>
    <g>
      <circle cx="61.14" cy="232.97" r="19.97" fill="#2e3192"/>
      <path d="M66.9,225.34v2.82H59.52v3.53h6.4v2.61h-6.4v6.31H56.16V225.34Z" fill="#fff"/>
    </g>
    <g>
      <circle cx="61.14" cy="107.18" r="19.97" fill="#ec008c"/>
      <path d="M62.77,114.83a5.63,5.63,0,0,1-2.21.47,7.73,7.73,0,0,1-3.15-.62A6.74,6.74,0,0,1,55,113a7.44,7.44,0,0,1-1.47-2.52,9.26,9.26,0,0,1-.51-3.11,9.64,9.64,0,0,1,.51-3.18A7.67,7.67,0,0,1,55,101.65a6.71,6.71,0,0,1,2.37-1.71,8,8,0,0,1,5.43-.27,6.52,6.52,0,0,1,2,1,5.65,5.65,0,0,1,2.17,4H63.79a3.22,3.22,0,0,0-1.15-1.93,3.41,3.41,0,0,0-2.08-.64,3.92,3.92,0,0,0-1.92.44,3.57,3.57,0,0,0-1.29,1.18,5.33,5.33,0,0,0-.71,1.67,8.39,8.39,0,0,0-.23,1.95,7.72,7.72,0,0,0,.23,1.87,5.26,5.26,0,0,0,.71,1.64,3.7,3.7,0,0,0,1.29,1.16,3.81,3.81,0,0,0,1.92.44,3.27,3.27,0,0,0,3.64-3.29H60.82v-2.5h6.42V115H65.1l-.35-1.73A4.93,4.93,0,0,1,62.77,114.83Z" fill="#fff"/>
    </g>
    <g>
      <circle cx="279.02" cy="232.97" r="19.97" fill="#00a651"/>
      <path d="M277,229.47a3.55,3.55,0,0,0-.75-.85,3.58,3.58,0,0,0-2.2-.77,4,4,0,0,0-1.93.44,3.71,3.71,0,0,0-1.28,1.18,5.09,5.09,0,0,0-.72,1.68,8.24,8.24,0,0,0-.22,1.94,7.8,7.8,0,0,0,.22,1.88,5,5,0,0,0,.72,1.63,3.78,3.78,0,0,0,1.28,1.17,4,4,0,0,0,1.93.44,3.07,3.07,0,0,0,2.4-1,4.25,4.25,0,0,0,1.06-2.48h3.25a7.53,7.53,0,0,1-.66,2.59,6,6,0,0,1-3.46,3.21,7.69,7.69,0,0,1-2.59.43,8,8,0,0,1-3.16-.61,6.86,6.86,0,0,1-2.36-1.68,7.39,7.39,0,0,1-1.47-2.51,9.08,9.08,0,0,1-.52-3.12,9.33,9.33,0,0,1,.52-3.17,7.62,7.62,0,0,1,1.47-2.56,6.67,6.67,0,0,1,2.36-1.71,7.81,7.81,0,0,1,3.16-.62,7.7,7.7,0,0,1,2.38.36,6.66,6.66,0,0,1,2,1.06,5.82,5.82,0,0,1,1.47,1.72,6.28,6.28,0,0,1,.73,2.36H277.4A2.76,2.76,0,0,0,277,229.47Z" fill="#fff"/>
      <path d="M285.37,240.66v-3.5l-2.11.42v-2l2.11-.43v-3.34l-2.11.43v-2l2.11-.47v-3.34l.88-.15v3.32l2.35-.54v-3.74l.9-.15v3.7l2.14-.45v2l-2.14.43v3.32l2.14-.41v2l-2.14.45v3.14l-.9.17v-3.12l-2.35.56v3.53Zm.88-5.71,2.35-.53v-3.34l-2.35.58Z" fill="#fff"/>
    </g>
  </g>
  <g>
    <path d="M192.9,39.81c0-1.19.6-1.81,1.43-1.81a3.93,3.93,0,0,1,1.7.54,3.66,3.66,0,0,0,1.49.51c.43,0,.63-.35.64-1h.71c.06,1.33-.62,1.81-1.37,1.81a4,4,0,0,1-1.74-.53,3.69,3.69,0,0,0-1.43-.52c-.44,0-.7.3-.71,1Z" fill="#488bca"/>
    <path d="M200.25,41.13a3.66,3.66,0,0,0,1.73.48c1.34,0,1.78-.85,1.76-1.51,0-1.09-1-1.56-2-1.56h-.59v-.79h.59c.77,0,1.74-.39,1.74-1.32,0-.62-.4-1.17-1.37-1.17a2.89,2.89,0,0,0-1.56.51l-.29-.76a3.81,3.81,0,0,1,2.05-.6c1.54,0,2.24.91,2.24,1.86a2,2,0,0,1-1.44,1.84v0a2,2,0,0,1,1.74,2c0,1.24-1,2.34-2.85,2.34a4,4,0,0,1-2-.53Z" fill="#488bca"/>
    <path d="M206.25,37.49a.71.71,0,0,1,.71-.76.75.75,0,1,1-.71.76Zm0,4.23A.7.7,0,0,1,207,41a.69.69,0,0,1,.71.75.71.71,0,1,1-1.42,0Z" fill="#488bca"/>
    <path d="M208.64,42.33v-.64l.83-.81c2-1.89,2.9-2.9,2.9-4.08a1.38,1.38,0,0,0-1.53-1.52,2.66,2.66,0,0,0-1.66.66l-.33-.74a3.38,3.38,0,0,1,2.19-.79,2.19,2.19,0,0,1,2.39,2.26c0,1.44-1.05,2.6-2.69,4.19l-.61.57v0h3.49v.87Z" fill="#488bca"/>
  </g>
  <g>
    <path d="M134,68.46c0-1.2.6-1.81,1.43-1.81a3.79,3.79,0,0,1,1.7.54,3.78,3.78,0,0,0,1.49.5c.43,0,.63-.35.64-1H140c.06,1.33-.62,1.81-1.37,1.81a3.92,3.92,0,0,1-1.73-.53,3.78,3.78,0,0,0-1.44-.52c-.44,0-.7.3-.71,1Z" fill="#00a99d"/>
    <path d="M144.41,71V68.84h-3.63v-.68l3.48-5h1.14V68h1.09v.82H145.4V71Zm0-3v-2.6c0-.41,0-.81,0-1.22h0c-.25.45-.44.79-.65,1.15L141.85,68v0Z" fill="#00a99d"/>
    <path d="M147.39,66.13a.71.71,0,0,1,.71-.76.75.75,0,1,1-.71.76Zm0,4.23a.7.7,0,0,1,.71-.75.69.69,0,0,1,.71.75.71.71,0,1,1-1.42,0Z" fill="#00a99d"/>
    <path d="M150,69.78a3.66,3.66,0,0,0,1.73.48c1.34,0,1.78-.86,1.76-1.52,0-1.09-1-1.55-2-1.55h-.59v-.8h.59c.77,0,1.74-.39,1.74-1.32,0-.62-.4-1.17-1.37-1.17a3,3,0,0,0-1.56.51l-.29-.76a3.81,3.81,0,0,1,2.05-.6c1.54,0,2.24.91,2.24,1.86a2,2,0,0,1-1.44,1.84v0a2,2,0,0,1,1.74,2c0,1.25-1,2.34-2.85,2.34a4,4,0,0,1-2-.53Z" fill="#00a99d"/>
  </g>
</svg>
