<svg viewBox="0 0 558.76 603.37" xmlns="http://www.w3.org/2000/svg"><path d="m231.28 144.15a74.69 74.69 0 0 1 -37.28 64.67v.08a74.7 74.7 0 0 1 -37.36 64.71 74.72 74.72 0 1 0 74.66-129.46z" fill="#00a550"/><path d="m119.25 208.9a74.69 74.69 0 0 1 -37.44-64.67 74.73 74.73 0 0 0 74.81 129.38 74.7 74.7 0 0 1 -37.37-64.71z" fill="#2e3091"/><path d="m194 208.9v-.08a74.61 74.61 0 0 1 -74.73.08 74.7 74.7 0 0 0 37.37 64.71 74.7 74.7 0 0 0 37.36-64.71z" fill="#00aeef"/><path d="m156.62 144.19a74.68 74.68 0 0 1 74.66 0 74.74 74.74 0 0 0 -149.47 0v.08a74.7 74.7 0 0 1 74.81 0z" fill="#ec2124"/><path d="m156.62 144.19a74.68 74.68 0 0 1 37.38 64.63 74.69 74.69 0 0 0 37.3-64.67 74.68 74.68 0 0 0 -74.66 0z" fill="#fced00"/><path d="m119.25 208.9a74.68 74.68 0 0 1 37.37-64.71 74.7 74.7 0 0 0 -74.81 0 74.69 74.69 0 0 0 37.44 64.71z" fill="#ec008c"/><g fill="#fff"><path d="m156.62 144.19a74.68 74.68 0 0 0 -37.37 64.71 74.61 74.61 0 0 0 74.73-.08 74.68 74.68 0 0 0 -37.36-64.63z"/><path d="m156.27 93.73c3.35.1 7 1.59 6.88 6.26v1.23a5 5 0 0 1 -3.31 4.86l3.27 10.25-3.75-.11-2.72-9.12-2.38-.07-.26 9-3.54-.1.63-22.39zm3.41 6.65a2.8 2.8 0 0 0 -3-3.21l-2.2-.06-.18 6.5 2.2.06a2.82 2.82 0 0 0 3.15-3z"/><path d="m218.09 226.1c.17-5.92 3.48-7.65 6.68-7.56s6.3 1.94 6.19 7.78v.34l-3.46-.1v-.22c0-3.11-1.22-4.31-2.82-4.36s-3 1.13-3 4.45l-.2 7c-.1 3.34 1.09 4.58 2.78 4.63s3-1.05 3.07-4.34v-1.44l-2.85-.08.1-3.44 6.33.18-.15 5c-.16 6-3.5 7.65-6.63 7.56s-6.41-2-6.25-7.92z"/><path d="m94 218.82c3.11.09 6.36 1.62 6.25 5.46v1.14a4.6 4.6 0 0 1 -2.84 4.31 5 5 0 0 1 3.08 5v1c-.11 3.68-2.79 5.59-6.88 5.47l-5.83-.16.64-22.39zm2.84 15.67c.06-2-1.16-3.06-3.11-3.11l-2.19-.06-.18 6.39 2.19.06c1.93.06 3.23-.88 3.28-2.93zm-.07-9.38c.06-2-1.39-2.8-2.93-2.84l-2-.06-.17 5.85 2 .05c1.6 0 3-.71 3.08-2.68z"/></g><path d="m373 144.23s0 0 0-.08a74.71 74.71 0 0 1 37.37-64.71 74.72 74.72 0 1 0 -74.66 129.46 74.67 74.67 0 0 1 37.29-64.67z" fill="#ec008c"/><path d="m522.47 144.15a74.72 74.72 0 0 0 -112.1-64.71 74.71 74.71 0 0 1 37.37 64.71 74.66 74.66 0 0 1 37.43 64.67 74.69 74.69 0 0 0 37.3-64.67z" fill="#fced00"/><path d="m373 144.15s0 0 0 .08a74.68 74.68 0 0 1 74.73-.08 74.71 74.71 0 0 0 -37.37-64.71 74.71 74.71 0 0 0 -37.36 64.71z" fill="#ec2124"/><path d="m410.37 208.86a74.61 74.61 0 0 1 -74.66 0 74.74 74.74 0 0 0 149.47 0s0-.05 0-.08a74.62 74.62 0 0 1 -74.8 0z" fill="#00aeef"/><path d="m410.37 208.86a74.66 74.66 0 0 1 -37.37-64.63 74.67 74.67 0 0 0 -37.3 64.67 74.61 74.61 0 0 0 74.66 0z" fill="#2e3091"/><path d="m447.74 144.15a74.68 74.68 0 0 1 -37.37 64.71 74.62 74.62 0 0 0 74.8 0 74.66 74.66 0 0 0 -37.43-64.71z" fill="#00a550"/><path d="m373 144.23a74.66 74.66 0 0 0 37.36 64.63 74.68 74.68 0 0 0 37.37-64.71 74.68 74.68 0 0 0 -74.73.08z" fill="#231f20"/><path d="m488.11 115.87-5.39 13.55v8.85h-3.67v-8.84l-5.32-13.56h3.7l3.46 9.49 3.5-9.49z" fill="#231f20"/><path d="m346.54 116.72v22.4h-3.44v-14.12l-4.05 14.09h-2.22l-4.05-14.09v14.09h-3.44v-22.4h4.35l4.25 14.94 4.25-14.94z" fill="#231f20"/><path d="m404.24 242.27c0-5.92 3.35-7.75 6.55-7.75s6.3 1.73 6.43 7.43v.64h-3.55v-.55c-.14-2.93-1.29-4.07-2.86-4.07s-2.91 1.21-2.91 4.53v7c0 3.33 1.22 4.54 2.91 4.54s2.7-1.12 2.86-4v-.6h3.55v.56c-.11 5.72-3.35 7.46-6.43 7.46s-6.55-1.83-6.55-7.75z" fill="#231f20"/><path d="m284.72 429.5q1.09 2.42 2.44 4.76c.9 1.56 1.87 3.05 2.9 4.49a54.47 54.47 0 0 1 88.56 0 54.47 54.47 0 0 0 -49.62-85.94 54.46 54.46 0 0 1 -44.28 76.69z" fill="#fced00"/><path d="m381.52 497.72a54.5 54.5 0 0 0 -2.9-59 54.47 54.47 0 0 1 -88.56 0 53 53 0 0 0 -2.9 4.49c-.9 1.56-1.71 3.15-2.44 4.75a54.47 54.47 0 0 1 44.28 76.73 54.48 54.48 0 0 0 52.52-26.97z" fill="#00a550"/><path d="m361.58 423.3a54.48 54.48 0 0 0 -71.52 15.45 54.47 54.47 0 0 0 88.56 0 54.33 54.33 0 0 0 -17.04-15.45z" fill="#8cc540"/><path d="m284.72 448c-1.76-.17-3.54-.26-5.34-.26s-3.58.09-5.34.26a54.46 54.46 0 0 1 -44.28 76.7 54.48 54.48 0 0 0 99.24 0 54.46 54.46 0 0 1 -44.28-76.7z" fill="#00aeef"/><path d="m284.72 448a54.46 54.46 0 0 0 44.28 76.69 54.47 54.47 0 0 0 -44.28-76.69z" fill="#009b90"/><path d="m274 448c-.73-1.6-1.54-3.19-2.44-4.75a53 53 0 0 0 -2.9-4.49 54.47 54.47 0 0 1 -88.56 0 54.47 54.47 0 0 0 49.62 85.94 54.47 54.47 0 0 1 44.28-76.7z" fill="#2e3091"/><path d="m274 448a54.47 54.47 0 0 0 -44.28 76.7 54.46 54.46 0 0 0 44.28-76.7z" fill="#0b72ba"/><path d="m197.18 423.3a54.48 54.48 0 0 1 71.52 15.45c1-1.44 2-2.93 2.9-4.49s1.71-3.15 2.44-4.76a54.46 54.46 0 0 1 -44.28-76.69 54.47 54.47 0 0 0 -49.62 85.94 54.43 54.43 0 0 1 17.04-15.45z" fill="#ec008c"/><path d="m197.18 454.2a54.49 54.49 0 0 0 71.52-15.45 54.47 54.47 0 0 0 -88.56 0 54.43 54.43 0 0 0 17.04 15.45z" fill="#90298d"/><path d="m274 429.5c1.76.17 3.54.26 5.34.26s3.58-.09 5.34-.26a54.46 54.46 0 0 1 44.32-76.69 54.47 54.47 0 0 0 -99.24 0 54.46 54.46 0 0 1 44.24 76.69z" fill="#ec2124"/><path d="m284.72 429.5a54.46 54.46 0 0 0 44.28-76.69 54.46 54.46 0 0 0 -44.28 76.69z" fill="#f69320"/><path d="m274 429.5a54.46 54.46 0 0 0 -44.28-76.69 54.46 54.46 0 0 0 44.28 76.69z" fill="#eb1a5b"/><path d="m397.71 407 17.09-4.55a141.28 141.28 0 0 0 -36.27-62.81l-12.53 12.53a122.38 122.38 0 0 1 31.71 54.83z" fill="#fcee1f"/><path d="m161.05 470.51-17.05 4.55a141.42 141.42 0 0 0 36.26 62.81l12.5-12.54a122.48 122.48 0 0 1 -31.71-54.82z" fill="#2d368f"/><path d="m247.61 320.42-4.55-17.09a141.21 141.21 0 0 0 -62.79 36.26l12.54 12.5a122.44 122.44 0 0 1 54.8-31.67z" fill="#eb1a5b"/><path d="m311.15 557.07 4.55 17.1a141.57 141.57 0 0 0 62.8-36.26l-12.5-12.5a122.33 122.33 0 0 1 -54.85 31.66z" fill="#009b90"/><path d="m366 352.08 12.54-12.5a141.28 141.28 0 0 0 -62.8-36.25l-4.55 17.09a122.45 122.45 0 0 1 54.81 31.66z" fill="#f69320"/><path d="m366 352.17 12.5-12.54-12.5 12.45z" fill="#f69320"/><path d="m192.82 525.41-12.55 12.5a141.56 141.56 0 0 0 62.84 36.3l4.55-17.1a122.27 122.27 0 0 1 -54.84-31.7z" fill="#0b72ba"/><path d="m192.82 525.41-.09-.08-12.5 12.54z" fill="#0b72ba"/><path d="m161.06 407a122.29 122.29 0 0 1 31.66-54.79l-12.5-12.55h.05a141.33 141.33 0 0 0 -36.27 62.83.64.64 0 0 0 0-.07z" fill="#e90e8b"/><path d="m192.72 352.18.09-.09-12.54-12.5h-.05z" fill="#e90e8b"/><path d="m366 525.32 12.5 12.55a141.57 141.57 0 0 0 36.26-62.8l-17.1-4.55a122.33 122.33 0 0 1 -31.66 54.8z" fill="#03a550"/><path d="m366 525.41 12.55 12.5-12.55-12.59z" fill="#03a550"/><path d="m419.54 438.75a140.25 140.25 0 0 0 -4.73-36.25l-17.07 4.61a123.3 123.3 0 0 1 0 63.29l17.07 4.6s0 0 0 .06a140.3 140.3 0 0 0 4.73-36.31z" fill="#8cc540"/><path d="m397.74 407.11 17.07-4.61v-.06l-17.1 4.56z" fill="#8cc540"/><path d="m397.74 470.4v.12l17.1 4.55s0 0 0-.06z" fill="#8cc540"/><path d="m161 470.39a123.19 123.19 0 0 1 0-63.3l-17-4.6a141.4 141.4 0 0 0 0 72.57.14.14 0 0 1 0-.06z" fill="#90298d"/><path d="m161 470.39-17 4.61a.14.14 0 0 0 0 .06l17.08-4.55z" fill="#90298d"/><path d="m161.06 407-17.06-4.58a.64.64 0 0 1 0 .07l17.08 4.6z" fill="#90298d"/><path d="m247.73 320.39a123.05 123.05 0 0 1 63.3 0l4.6-17.08a141.25 141.25 0 0 0 -72.57 0h.06z" fill="#eb2227"/><path d="m247.73 320.39-4.61-17.08h-.06l4.55 17.09z" fill="#eb2227"/><path d="m311.14 320.42 4.55-17.09h-.06l-4.63 17.06z" fill="#eb2227"/><path d="m279.38 561.24a122.7 122.7 0 0 1 -31.64-4.13l-4.61 17.07h-.06a141.4 141.4 0 0 0 72.57 0l-4.64-17.08a122.35 122.35 0 0 1 -31.62 4.14z" fill="#29abe2"/><path d="m311 557.1 4.61 17.08h.06l-4.55-17.1z" fill="#29abe2"/><path d="m247.74 557.11h-.12l-4.55 17.1h.06z" fill="#29abe2"/><path d="m88.86 47h-6.28l-1.83 6.81h-2.08l5.76-22.4h2.57l5.77 22.4h-2.08zm-.31-2.11-2.83-10.98-2.83 10.93z"/><path d="m104.33 31.36v22.4h-1.33l-.19-2.11a3.94 3.94 0 0 1 -3.81 2.35c-2.17 0-4.44-1.32-4.44-5.63v-5.27c0-4.31 2.27-5.63 4.44-5.63a3.74 3.74 0 0 1 3.54 2.11v-8.22zm-8 16.15c0 3.85 1.41 4.86 3.1 4.86s3.08-1 3.07-4.86v-3.51c0-3.88-1.42-4.86-3.08-4.86s-3.09 1-3.09 4.86z"/><path d="m116.91 31.36v22.4h-1.36l-.2-2.11a3.92 3.92 0 0 1 -3.78 2.35c-2.17 0-4.43-1.32-4.43-5.63v-5.27c0-4.31 2.26-5.63 4.43-5.63a3.74 3.74 0 0 1 3.54 2.11v-8.22zm-8 16.15c0 3.85 1.41 4.86 3.11 4.86s3.07-1 3.06-4.86v-3.51c0-3.88-1.41-4.86-3.07-4.86s-3.1 1-3.1 4.86z"/><path d="m120 33.08h2.07v2h-2.07zm.14 4.68h1.86v16h-1.8z"/><path d="m128.4 47.67c0 4.27.83 4.71 3 4.74h.39v1.59h-.79c-2.7 0-4.4-.77-4.39-5.84v-8.79h-2.44v-1.61h2.44v-4.9h1.79v4.9h3.4v1.61h-3.4z"/><path d="m134.63 33.08h2.08v2h-2.08zm.14 4.68h1.8v16h-1.8z"/><path d="m151.33 37.76-4.91 16h-2.06l-4.92-16h1.82l4.13 13.24 4.12-13.25z"/><path d="m152.51 43.1c0-4.29 2.52-5.63 4.87-5.63s4.87 1.31 4.87 5.63v3.45h-7.94v1.45c0 3.47 1.39 4.39 3.08 4.39 1.51 0 3-.8 3.07-3.81h1.79c-.07 4.19-2.57 5.45-4.87 5.45s-4.87-1.34-4.87-5.63zm7.94.3c0-3.41-1.54-4.29-3.07-4.29s-3.07.87-3.07 4.3v1.74h6.14z"/><path d="m176.25 39.84a4.17 4.17 0 0 1 7.72.5 4 4 0 0 1 4-2.87c2.17 0 4.43 1.32 4.43 5.63v10.66h-1.79v-9.76c0-3.88-1.47-4.86-3.1-4.86-1.48 0-2.83.73-3 3.5v11.12h-1.8v-9.76c0-3.88-1.46-4.86-3.09-4.86s-3.07.88-3.08 4.34v10.28h-1.79v-16h1.25z"/><path d="m195.1 43.1c0-4.29 2.52-5.63 4.87-5.63s4.9 1.31 4.9 5.63v5.28c0 4.32-2.55 5.63-4.9 5.63s-4.87-1.34-4.87-5.63zm8 .87c0-3.88-1.48-4.86-3.1-4.86s-3.07 1-3.07 4.86v3.54c0 3.85 1.34 4.86 3.08 4.86s3.1-1 3.09-4.86z"/><path d="m217.26 31.36v22.4h-1.36l-.2-2.11a3.92 3.92 0 0 1 -3.78 2.35c-2.16 0-4.43-1.32-4.43-5.63v-5.27c0-4.31 2.27-5.63 4.43-5.63a3.73 3.73 0 0 1 3.54 2.11v-8.22zm-8 16.15c0 3.85 1.41 4.86 3.11 4.86s3.07-1 3.06-4.86v-3.51c0-3.88-1.41-4.86-3.07-4.86s-3.1 1-3.1 4.86z"/><path d="m220.06 43.1c0-4.29 2.52-5.63 4.87-5.63s4.87 1.31 4.87 5.63v3.45h-7.93v1.45c0 3.47 1.38 4.39 3.07 4.39 1.51 0 2.95-.8 3.07-3.81h1.79c-.06 4.19-2.57 5.45-4.87 5.45s-4.87-1.34-4.87-5.63zm7.94.3c0-3.41-1.54-4.29-3.07-4.29s-3.07.87-3.07 4.3v1.74h6.14z"/><path d="m232.71 31.36h1.8v22.4h-1.8z"/><path d="m311.73 47c0 3.7 2.4 5 4.47 5 2.64 0 4.47-1.3 4.47-4.27s-1.93-3.92-4.61-4.69c-2.16-.62-5.76-1.58-5.76-6s3.11-6 6.08-6 6.13 1.79 6.13 7h-2c0-3.55-2.07-5-4.11-5a3.66 3.66 0 0 0 -4 3.85c.07 3.27 3.13 3.74 4.54 4.14 4.09 1.12 5.83 3.12 5.83 6.47 0 4.87-3 6.46-6.56 6.46-3 0-6.48-1.75-6.5-7z"/><path d="m335.2 37.76v16h-1.36l-.21-2.08a3.92 3.92 0 0 1 -3.76 2.32c-2.17 0-4.44-1.32-4.44-5.63v-10.61h1.8v9.78c0 3.89 1.47 4.86 3.1 4.86s3.08-.9 3.08-4.47v-10.17z"/><path d="m340 39.58a3.72 3.72 0 0 1 3.53-2.11c2.17 0 4.44 1.32 4.44 5.63v5.28c0 4.31-2.27 5.63-4.44 5.63a3.94 3.94 0 0 1 -3.78-2.36l-.19 2.11h-1.36v-22.4h1.8zm6.14 4.42c0-3.88-1.46-4.86-3.09-4.86s-3.05.95-3.05 4.86v3.54c0 3.85 1.35 4.86 3.07 4.86s3.1-1 3.1-4.86z"/><path d="m354.68 47.67c0 4.27.82 4.71 3 4.74h.38v1.59h-.79c-2.71 0-4.4-.77-4.4-5.84v-8.79h-2.43v-1.61h2.43v-4.9h1.8v4.9h3.39v1.61h-3.39z"/><path d="m362.45 40.26a4.47 4.47 0 0 1 4.11-2.79v1.61c-2.21 0-3.93 1.55-3.94 5.11v9.57h-1.79v-16h1.36z"/><path d="m378.25 37.76v16h-1.36l-.18-2.09a3.88 3.88 0 0 1 -3.71 2.33c-2.16 0-4.48-1.32-4.48-5.63v-5.27c0-4.31 2.32-5.63 4.48-5.63a3.91 3.91 0 0 1 3.74 2.28l.19-2zm-8 9.75c0 3.85 1.41 4.86 3.11 4.86s3.07-1 3.06-4.86v-3.51c0-3.88-1.41-4.86-3.07-4.86s-3.1 1-3.1 4.86z"/><path d="m381.06 43.1c0-4.29 2.52-5.63 4.87-5.63s4.74 1.24 4.86 5.33v.57h-1.79c-.08-3.38-1.55-4.26-3.1-4.26s-3.07 1-3.07 4.86v3.54c0 3.85 1.34 4.86 3.08 4.86s3-.9 3.09-4.26h1.76v.52c-.1 4.12-2.56 5.38-4.86 5.38s-4.87-1.34-4.87-5.63z"/><path d="m396.76 47.67c0 4.27.82 4.71 3 4.74h.38v1.59h-.8c-2.7 0-4.39-.77-4.39-5.84v-8.79h-2.43v-1.61h2.48v-4.9h1.8v4.9h3.39v1.61h-3.39z"/><path d="m403 33.08h2.08v2h-2.08zm.14 4.68h1.8v16h-1.8z"/><path d="m419.69 37.76-4.92 16h-2.06l-4.91-16h1.82l4.12 13.24 4.13-13.25z"/><path d="m420.87 43.1c0-4.29 2.51-5.63 4.86-5.63s4.88 1.31 4.88 5.63v3.45h-7.94v1.45c0 3.47 1.39 4.39 3.08 4.39 1.51 0 2.94-.8 3.07-3.81h1.79c-.07 4.17-2.61 5.42-4.88 5.42s-4.86-1.34-4.86-5.63zm7.93.3c0-3.41-1.53-4.29-3.06-4.29s-3.07.87-3.08 4.3v1.74h6.14z"/><path d="m444.6 39.84a4.17 4.17 0 0 1 7.72.5 4 4 0 0 1 4-2.87c2.17 0 4.44 1.32 4.44 5.63v10.66h-1.8v-9.76c0-3.88-1.46-4.86-3.1-4.86-1.47 0-2.82.73-3 3.5v11.12h-1.86v-9.76c0-3.88-1.47-4.86-3.1-4.86s-3.07.88-3.07 4.34v10.28h-1.83v-16h1.36z"/><path d="m463.46 43.1c0-4.29 2.52-5.63 4.86-5.63s4.9 1.31 4.9 5.63v5.28c0 4.32-2.55 5.63-4.9 5.63s-4.86-1.34-4.86-5.63zm8 .87c0-3.88-1.49-4.86-3.1-4.86s-3.07 1-3.07 4.86v3.54c0 3.85 1.34 4.86 3.08 4.86s3.09-1 3.09-4.86z"/><path d="m485.61 31.36v22.4h-1.36l-.19-2.11a3.94 3.94 0 0 1 -3.78 2.35c-2.17 0-4.44-1.32-4.44-5.63v-5.27c0-4.31 2.27-5.63 4.44-5.63a3.74 3.74 0 0 1 3.54 2.11v-8.22zm-8 16.15c0 3.85 1.41 4.86 3.1 4.86s3.08-1 3.07-4.86v-3.51c0-3.88-1.42-4.86-3.08-4.86s-3.09 1-3.09 4.86z"/><path d="m488.42 43.1c0-4.29 2.51-5.63 4.86-5.63s4.88 1.31 4.88 5.63v3.45h-7.94v1.45c0 3.47 1.39 4.39 3.08 4.39 1.51 0 2.94-.8 3.07-3.81h1.79c-.07 4.19-2.57 5.45-4.88 5.45s-4.86-1.34-4.86-5.63zm7.93.3c0-3.41-1.53-4.29-3.06-4.29s-3.07.87-3.08 4.3v1.74h6.14z"/><path d="m501.06 31.36h1.8v22.4h-1.8z"/></svg>