<svg fill="none" height="380" width="540" xmlns="http://www.w3.org/2000/svg" xmlns:xlink="http://www.w3.org/1999/xlink"><linearGradient id="a"><stop offset="0" stop-color="#000001"/><stop offset=".03" stop-color="#010002"/><stop offset=".06" stop-color="#020007"/><stop offset=".09" stop-color="#060013"/><stop offset=".16" stop-color="#170039"/><stop offset=".19" stop-color="#1d004e"/><stop offset=".2" stop-color="#1d005b"/><stop offset=".22" stop-color="#18006b"/><stop offset=".23" stop-color="#000879"/><stop offset=".25" stop-color="#002061"/><stop offset=".28" stop-color="#00334d"/><stop offset=".31" stop-color="#004245"/><stop offset=".34" stop-color="#005446"/><stop offset=".41" stop-color="#007c4f"/><stop offset=".44" stop-color="#00884d"/><stop offset=".45" stop-color="#008c48"/><stop offset=".48" stop-color="#00912f"/><stop offset=".5" stop-color="#159300"/><stop offset=".52" stop-color="#409000"/><stop offset=".56" stop-color="#7e8000"/><stop offset=".61" stop-color="#a56400"/><stop offset=".64" stop-color="#b44a00"/><stop offset=".67" stop-color="#ba2700"/><stop offset=".69" stop-color="#b90c00"/><stop offset=".7" stop-color="#b00016"/><stop offset=".72" stop-color="#a4001f"/><stop offset=".75" stop-color="#8b0021"/><stop offset=".78" stop-color="#72001d"/><stop offset=".88" stop-color="#310009"/><stop offset=".91" stop-color="#220005"/><stop offset=".97" stop-color="#0d0001"/><stop offset="1" stop-color="#070001"/></linearGradient><path d="m0 0h540v380h-540z" fill="#fff"/><g stroke="#fff" stroke-linecap="square" stroke-width="3" transform="translate(40 20)"><path d="m0 0h480v300h-480z" fill="url(#a)" stroke="none"/><path d="m0 300c24-1 46-5 69-10 11-3 22-3 32-7 8-3 16-9 23-15 10-7 21-16 28-26 14-21 21-47 28-71l9-33c7-25 15-50 27-74 5-10 9-22 17-31 2-2 5-3 7-6 3-2 5-5 8-7 2-2 4-3 7-4 5-3 10-6 15-6 7 0 10 5 15 9 3 2 7 3 9 5 8 7 13 17 17 26 9 18 16 37 23 56 7 20 14 40 20 60 8 24 16 47 27 69 10 19 21 40 41 52 18 10 38 11 58 12"/><path d="m0 300c20-1 39-4 58-11 7-2 13-6 19-9 9-3 19-6 26-12s13-14 19-21c10-11 21-22 28-35 12-21 18-46 24-69 5-17 9-34 14-52 4-17 8-35 16-52 4-8 9-15 15-22 3-3 6-6 10-7 5 0 8 4 11 7 3 2 5 3 8 5l9 15c13 21 19 44 26 67 5 16 10 32 15 47 7 21 13 42 21 62 5 16 12 31 20 45 8 12 18 23 30 30 13 7 29 9 44 11 22 1 45 1 67 1"/><path d="m0 297c3-1 5-2 8-4 6-6 10-14 13-23 4-12 6-25 9-38 6-29 10-60 15-90 4-22 9-44 13-66 3-15 7-30 11-45 1-4 3-10 4-14 1-2 2-5 4-6 2-2 4 0 6 1 3 3 5 7 7 11 3 7 4 14 6 21 2 9 5 19 9 28 2 5 6 9 8 14 6 17 9 36 13 55 4 23 8 46 15 68 3 12 6 23 11 34 4 9 10 18 17 26 4 6 8 11 13 15 22 17 50 15 77 16 25 1 50 0 75 0h146"/><path d="m0 300h480" stroke="#fff"/></g><g fill="#000" font-family="Nimbus Roman No9 L, Times, serif" font-size="20" text-anchor="middle"><text x="55.5" y="350">400</text><text x="130.5" y="350">450</text><text x="205.5" y="350">500</text><text x="280.5" y="350">550</text><text x="355.5" y="350">600</text><text x="430.5" y="350">650</text><text x="505.5" y="350">700</text><text x="280" y="370">Wavelength (nm)</text><text transform="matrix(0 -1 1 0 20 170)">Normalized cone response (linear energy)</text><g fill="#fff"><text x="145" y="50">S</text><text x="230" y="50">M</text><text x="355" y="50">L</text></g></g><path d="m30.5 10.5h499v319h-499zm10 0v3m0 313v3m15-319v6m0 307v6m15-319v3m0 313v3m15-319v3m0 313v3m15-319v3m0 313v3m15-319v3m0 313v3m15-319v6m0 307v6m15-319v3m0 313v3m15-319v3m0 313v3m15-319v3m0 313v3m15-319v3m0 313v3m15-319v6m0 307v6m15-319v3m0 313v3m15-319v3m0 313v3m15-319v3m0 313v3m15-319v3m0 313v3m15-319v6m0 307v6m15-319v3m0 313v3m15-319v3m0 313v3m15-319v3m0 313v3m15-319v3m0 313v3m15-319v6m0 307v6m15-319v3m0 313v3m15-319v3m0 313v3m15-319v3m0 313v3m15-319v3m0 313v3m15-319v6m0 307v6m15-319v3m0 313v3m15-319v3m0 313v3m15-319v3m0 313v3m15-319v3m0 313v3m15-319v6m0 307v6m15-319v3m0 313v3" stroke="#000"/></svg>