<svg enable-background="new 0 0 704.867 631.518" height="631.518" viewBox="0 0 704.867 631.518" width="704.867" xmlns="http://www.w3.org/2000/svg"><path d="m249.923 514.818v-491.18" fill="none" stroke="#ccc"/><path d="m109.585 22.235h561.349v2.807h-561.349z" fill="#ccc"/><path d="m109.585 92.403h561.349v2.807h-561.349z" fill="#ccc"/><path d="m109.585 373.078h561.349v2.807h-561.349z" fill="#ccc"/><path d="m109.585 162.572h561.349v2.807h-561.349z" fill="#ccc"/><path d="m109.585 232.741h561.349v2.807h-561.349z" fill="#ccc"/><path d="m109.585 302.91h561.349v2.807h-561.349z" fill="#ccc"/><path d="m109.585 443.247h561.349v2.807h-561.349z" fill="#ccc"/><g fill="none"><path d="m670.935 514.818v-491.18" stroke="#ccc"/><path d="m151.687 514.818v-491.18" stroke="#ccc"/><path d="m176.246 23.638v491.18" stroke="#ccc"/><path d="m193.788 514.818v-491.18" stroke="#ccc"/><path d="m207.822 514.818v-491.18" stroke="#ccc"/><path d="m219.049 514.818v-491.18" stroke="#ccc"/><path d="m228.171 514.818v-491.18" stroke="#ccc"/><path d="m235.889 514.818v-491.18" stroke="#ccc"/><path d="m243.608 514.818v-491.18" stroke="#000"/><path d="m243.608 514.818v-491.18" stroke="#ccc"/><path d="m249.923 514.818v-491.18" stroke="#ccc"/><path d="m151.687 514.818v-491.18" stroke="#ccc"/><path d="m176.246 23.638v491.18" stroke="#ccc"/><path d="m193.788 514.818v-491.18" stroke="#ccc"/><path d="m207.822 514.818v-491.18" stroke="#ccc"/><path d="m219.049 514.818v-491.18" stroke="#ccc"/><path d="m228.171 514.818v-491.18" stroke="#ccc"/><path d="m235.889 514.818v-491.18" stroke="#ccc"/><path d="m243.608 514.818v-491.18" stroke="#ccc"/><path d="m249.923 514.818v-491.18" stroke="#ccc"/><path d="m151.687 514.818v-491.18" stroke="#ccc"/><path d="m176.246 23.638v491.18" stroke="#ccc"/><path d="m193.788 514.818v-491.18" stroke="#ccc"/><path d="m207.822 514.818v-491.18" stroke="#ccc"/><path d="m219.049 514.818v-491.18" stroke="#ccc"/><path d="m228.171 514.818v-491.18" stroke="#ccc"/><path d="m235.889 514.818v-491.18" stroke="#ccc"/><path d="m243.608 514.818v-491.18" stroke="#ccc"/></g><path d="m388.856 514.818v-491.18h2.808v491.18z" fill="#ccc"/><path d="m290.621 514.818v-491.18h2.807v491.18z" fill="#ccc"/><path d="m317.986 23.638v491.18h-2.807v-491.18z" fill="#ccc"/><path d="m332.722 514.818v-491.18h2.807v491.18z" fill="#ccc"/><path d="m346.756 514.818v-491.18h2.807v491.18z" fill="#ccc"/><path d="m357.982 514.818v-491.18h2.807v491.18z" fill="#ccc"/><path d="m367.104 514.818v-491.18h2.807v491.18z" fill="#ccc"/><path d="m374.823 514.818v-491.18h2.807v491.18z" fill="#ccc"/><path d="m382.542 514.818v-491.18h2.807v491.18z" fill="#ccc"/><path d="m249.923 514.818v-491.18" fill="none" stroke="#ccc"/><path d="m151.687 514.818v-491.18" fill="none" stroke="#ccc"/><path d="m176.246 23.638v491.18" fill="none" stroke="#ccc"/><path d="m193.788 514.818v-491.18" fill="none" stroke="#ccc"/><path d="m207.822 514.818v-491.18" fill="none" stroke="#ccc"/><path d="m219.049 514.818v-491.18" fill="none" stroke="#ccc"/><path d="m228.171 514.818v-491.18" fill="none" stroke="#ccc"/><path d="m235.889 514.818v-491.18" fill="none" stroke="#ccc"/><path d="m243.608 514.818v-491.18" fill="none" stroke="#ccc"/><path d="m249.923 514.818v-491.18" fill="none" stroke="#ccc"/><path d="m151.687 514.818v-491.18" fill="none" stroke="#ccc"/><path d="m176.246 23.638v491.18" fill="none" stroke="#ccc"/><path d="m193.788 514.818v-491.18" fill="none" stroke="#ccc"/><path d="m207.822 514.818v-491.18" fill="none" stroke="#ccc"/><path d="m219.049 514.818v-491.18" fill="none" stroke="#ccc"/><path d="m228.171 514.818v-491.18" fill="none" stroke="#ccc"/><path d="m235.889 514.818v-491.18" fill="none" stroke="#ccc"/><path d="m243.608 514.818v-491.18" fill="none" stroke="#ccc"/><path d="m249.923 514.818v-491.18" fill="none" stroke="#ccc"/><path d="m151.687 514.818v-491.18" fill="none" stroke="#ccc"/><path d="m176.246 23.638v491.18" fill="none" stroke="#ccc"/><path d="m193.788 514.818v-491.18" fill="none" stroke="#ccc"/><path d="m207.822 514.818v-491.18" fill="none" stroke="#ccc"/><path d="m219.049 514.818v-491.18" fill="none" stroke="#ccc"/><path d="m228.171 514.818v-491.18" fill="none" stroke="#ccc"/><path d="m235.889 514.818v-491.18" fill="none" stroke="#ccc"/><path d="m243.608 514.818v-491.18" fill="none" stroke="#ccc"/><path d="m529.194 514.818v-491.18h2.807v491.18z" fill="#ccc"/><path d="m430.958 514.818v-491.18h2.807v491.18z" fill="#ccc"/><path d="m458.324 23.638v491.18h-2.807v-491.18z" fill="#ccc"/><path d="m473.48 514.818v-491.18h2.807v491.18z" fill="#ccc"/><path d="m487.093 514.818v-491.18h2.807v491.18z" fill="#ccc"/><path d="m498.32 514.818v-491.18h2.807v491.18z" fill="#ccc"/><path d="m507.441 514.818v-491.18h2.808v491.18z" fill="#ccc"/><path d="m515.16 514.818v-491.18h2.807v491.18z" fill="#ccc"/><path d="m522.879 514.818v-491.18h2.807v491.18z" fill="#ccc"/><path d="m669.531 514.818v-491.18h2.807v491.18z" fill="#ccc"/><path d="m571.295 514.818v-491.18h2.808v491.18z" fill="#ccc"/><path d="m598.661 23.638v491.18h-2.807v-491.18z" fill="#ccc"/><path d="m613.396 514.818v-491.18h2.807v491.18z" fill="#ccc"/><path d="m627.431 514.818v-491.18h2.807v491.18z" fill="#ccc"/><path d="m638.657 514.818v-491.18h2.807v491.18z" fill="#ccc"/><path d="m647.779 514.818v-491.18h2.807v491.18z" fill="#ccc"/><path d="m655.498 514.818v-491.18h2.807v491.18z" fill="#ccc"/><path d="m663.217 514.818v-491.18h2.807v491.18z" fill="#ccc"/><path d="m248.52 514.818v-491.18h2.807v491.18z" fill="#ccc"/><path d="m150.284 514.818v-491.18h2.807v491.18z" fill="#ccc"/><path d="m177.649 23.638v491.18h-2.807v-491.18z" fill="#ccc"/><path d="m192.385 514.818v-491.18h2.807v491.18z" fill="#ccc"/><path d="m206.418 514.818v-491.18h2.807v491.18z" fill="#ccc"/><path d="m217.646 514.818v-491.18h2.807v491.18z" fill="#ccc"/><path d="m226.767 514.818v-491.18h2.807v491.18z" fill="#ccc"/><path d="m234.486 514.818v-491.18h2.807v491.18z" fill="#ccc"/><path d="m242.205 514.818v-491.18h2.807v491.18z" fill="#ccc"/><path d="m109.585 479.734h561.349" fill="none" stroke="#ccc"/><path d="m109.585 409.565h561.349" fill="none" stroke="#ccc"/><path d="m109.585 339.397h561.349" fill="none" stroke="#ccc"/><path d="m109.585 269.229h561.349" fill="none" stroke="#ccc"/><path d="m109.585 199.06h561.349" fill="none" stroke="#ccc"/><path d="m109.585 128.891h561.349" fill="none" stroke="#ccc"/><path d="m109.585 58.723h561.349" fill="none" stroke="#ccc"/><path d="m152.677 219.271-1.562.825-1.532.854 13.556 25.196.03-.029 5.628 10.845 6.454 13.732 11.67 24.489v.088l11.935 23.075 10.58 19.213 7.78 12.938v.059l8.841 13.408.088.059 9.548 13.557v.059l10.668 13.762.059.059 5.835 6.867v.088l6.218 6.866h.088l11.375 11.936.059.059 9.253 9.076.088.06 4.273 3.86h.059l4.361 3.654.059.059 9.548 7.161.059.059 11.935 8.163.088.059 5.894 3.714h.06l5.952 3.507.089.088 6.159 3.212h.088l6.454 3.006.059.089 6.896 2.799h.06l7.426 2.594h.089l7.367 2.181h.059l6.808 1.621.059.059 6.188 1.208h.06l5.54.767h.088l4.833.472h.089l4.185.235h.088l3.419.059h.088l2.741-.059h.059l3.919-.354h.147l1.621-.295h.059l1.415-.354h.059l1.208-.354.06-.059 1.119-.354h.089l1.827-.767 1.68-.678v.029l.913-.266v-.029l.767-.177 1.12-.206.972-.088 1.415-.06 1.68.06 1.827.177v.029l1.975.441 1.326.413 1.414.678-.029.029 1.355.736v.03l1.208.884-.029.029 1.149 1.031-.029.029 1.119 1.12 2.182 2.594 2.121 2.652.06.088 2.239 2.652.088.147 1.238 1.267.088.06 1.297 1.237-.029.029 4.686 4.627h.089l3.006 2.8.059.088 1.709 1.386.059.088 1.827 1.385h.06l2.033 1.355.088.06 2.151 1.208.147.059 2.328 1.062.147.059 2.505.914.147.059 2.74.707.147.089 2.947.471h.117l3.183.295h.118 3.389.207l1.738-.295h.295l1.738-.56.236-.059 1.797-.767.236-.088 1.798-1.032.146-.146 3.714-2.741.147-.147 3.801-3.565.06-.147 3.801-4.272.06-.089 3.801-4.773v-.06l7.485-10.668v-.059l14.027-21.777.029.029 6.071-8.87.029.029 2.799-3.595 2.328-2.446 2.358-2.063.029.029 2.298-1.68.118-.06.029-.029 2.388-1.326 2.181-1.061.088-.029.059-.029 2.151-.708 2.476-.56v-.029l2.24-.266 2.092-.059 2.239.206 2.181.413v.029l2.328.618 2.181.855 1.945.972 2.181 1.268.029-.029 1.945 1.355 2.033 1.68 1.12-1.385 1.12-1.415-2.093-1.621-.089-.059-2.181-1.474-.059-.088-2.239-1.268-.089-.059-2.239-1.12-.118-.059-2.328-.854-.147-.06-2.299-.648-.146-.059-2.388-.412-.206-.089-2.387-.206h-.206l-2.388.059h-.206l-2.476.354h-.147l-2.505.561-.146.088-2.446.825-.206.089-2.476 1.119-.147.147-2.505 1.386-.147.146-2.445 1.739-.147.088-2.476 2.093-.118.147-2.593 2.682-.089.118-2.8 3.595-.147.059-6.158 8.988-14.057 21.808.029.029-7.456 10.579-3.713 4.715-3.565 4.097-.03-.029-3.713 3.565.029.029-3.418 2.534-1.798 1.002-1.68.707-1.414.472-1.592.177h-3.035l-3.006-.206-2.74-.472v-.029l-2.594-.678v-.029l-2.534-.914-2.063-.913.029-.059-2.181-1.209v.03l-1.856-1.18.029-.029-1.738-1.267-1.681-1.415-.029.029-2.888-2.711.029-.029-4.715-4.656h-.059l-1.268-1.179-.029-.029-.029-.029-1.149-1.179.029-.029-2.239-2.741-.03.029-2.092-2.682-.059-.088-2.181-2.594-.06-.059-1.208-1.208-.059-.06-1.209-1.119-.147-.147-1.325-.973-.147-.089-1.474-.913-.118-.059-1.621-.767-.146-.089-1.739-.618h-.235l-1.886-.413-.207-.088-2.092-.206h-.147l-1.68-.06h-.147l-1.474.06h-.147l-1.267.146h-.118l-1.149.207h-.118l-1.002.294h-.117l-.914.266-.088.089-1.739.678-1.915.707v.029l-.973.324v.029l-.973.266-1.414.354-1.474.206-3.772.354-2.534.059-3.447-.059-4.067-.235-4.833-.472v.059l-5.333-.825-6.101-1.149-6.748-1.591-7.309-2.181-7.279-2.505v-.029l-6.807-2.711v-.03l-6.454-3.006v.03l-6.1-3.271-.03.029-5.864-3.447-5.835-3.654-11.935-8.222-9.43-7.044.03-.029-4.361-3.595-4.185-3.772-9.283-9.047-.03.029-11.287-11.876.03-.029-6.248-6.808-5.835-6.925-.029.029-10.491-13.585-9.548-13.615-.029.029-8.812-13.438-.029.029-7.632-12.701.029-.029-10.609-19.213h-.029l-11.817-23.016h-.029l-11.552-24.489-6.513-13.762-.088-.059-5.688-10.874z" fill="#f00"/><path d="m107.832 514.818v-491.18h3.508v491.18z"/><path d="m111.41 513.064h561.349v3.509h-561.349z"/><path d="m152.117 164.194-1.562.825-1.533.854 28.055 50.451.088.059 13.114 20.717v.059l11.729 16.915v.059l17.033 23.723 15.648 23.369h.088l9.96 13.615h.059l5.747 7.162.088.059 6.306 7.367v.088l11.582 12.76.059.06 9.401 9.636.088.06 4.42 4.126h.059l4.627 4.008v.088l10.667 8.487h.088l10.314 7.721h.06l12.2 8.546h.088l6.454 4.155.059.06 6.542 3.801.06.059 6.395 3.359.118.089 6.188 2.711h.059l22.897 9.076h.118l5.274 1.739.147.059 5.039 1.355.147.06 4.833.854h.147l2.328.265h.117l2.24.089h.147l2.033-.089.147-.059 1.827-.295h.206l1.621-.412.147-.06 1.532-.56.147-.088 1.385-.708h.147l1.326-.766.088-.06 2.446-1.62h.088l2.299-1.532.089-.06.059-.029 1.12-.619v-.029l1.119-.53 1.268-.501 1.532-.412v-.03l1.474-.177 1.474-.088 1.562.088 1.031.06 1.062.177v.029l1.061.295.767.354.029-.06.678.413.589.383-.029.029.825.619 9.194 8.635.089.088 7.16 5.806.118.147 4.715 3.153.06.059 2.593 1.562.089.06 2.74 1.414.118.059 2.888 1.209.147.059 2.947 1.061.206.06 3.094.766h.206l3.213.501.235.06 3.271.147h.235l3.507-.207.118-.059 3.595-.648.207-.059 3.653-1.12.147-.088 1.798-.767.089-.059 1.738-.914.235-.147 3.359-2.239.147-.147 3.153-2.8.147-.059 3.006-3.242.059-.146 2.889-3.566.059-.088 2.74-3.92.089-.059 5.039-8.487.059-.088 9.254-17.534h.029l4.303-8.016h.029l2.122-3.565 2.18-3.154 2.24-2.799-.029-.029 2.121-2.357.06-.059.029-.03 2.151-1.944 2.239-1.798.029.029 2.388-1.532 2.298-1.061 2.034-.767 2.445-.501v-.029l2.151-.178 2.063.148 2.388.412 2.181.707 2.181.973 1.975 1.208 2.239 1.681 2.033 1.826 1.179-1.268 1.208-1.267-2.181-2.033-.146-.06-2.24-1.709-.147-.117-2.299-1.355-.146-.118-2.388-1.062-.206-.059-2.387-.795h-.206l-2.388-.473h-.206l-2.476-.146h-.206l-2.446.206-.294.059-2.446.501-.147.089-2.445.825-.207.146-2.475 1.121-.118.146-2.476 1.474-.147.118-2.357 1.826-.089.148-2.387 2.18-.059.06-2.328 2.534-.147.147-2.239 2.858-.06.088-2.181 3.213-.059.088-2.181 3.654-.06.059-4.361 8.075-9.194 17.504-.059-.029-5.068 8.487-2.652 3.772-2.829 3.507.029.029-2.977 3.153-3.006 2.593-3.152 2.151-1.621.854-1.532.648v-.029l-3.596 1.149v.029l-3.359.589-3.006.207-3.183-.147-3.064-.442v-.029l-3.153-.767-2.888-1.002v.03l-2.682-1.18v-.029l-2.712-1.414v.029l-2.387-1.414v-.03l-4.715-3.212v.029l-6.955-5.657-9.253-8.753-.147-.088-.825-.678-.088-.089-.825-.56-.147-.06-.914-.501-.147-.059-.972-.354-.207-.089-1.061-.265-.147-.06-1.179-.235h-.147l-1.326-.118h-.147l-1.473-.088h-.147l-1.827.088h-.206l-1.681.266-.146.088-1.533.413h-.206l-1.414.56-.147.06-1.326.647-.147.06-1.237.766h-.089l-2.445 1.621-2.358 1.562-.029-.029-1.208.707-1.385.708-1.268.441v-.029l-1.62.442v.029l-1.621.235-1.68.089-2.181-.089-2.151-.206-4.862-.913-4.892-1.326v.029l-5.157-1.68.029-.029-22.868-8.959v-.029l-6.041-2.682-6.395-3.33v-.029l-6.454-3.771-6.424-4.127.029-.029-12.2-8.486-.029.029-10.255-7.662.029-.029-10.667-8.369.029-.029-4.568-3.949-4.361-4.066-9.342-9.549-11.552-12.818-.029.029-6.307-7.396-.029.029-5.658-7.043-9.96-13.497-15.707-23.428-.059-.059-17.004-23.723-.029.029-11.611-16.797-.029-.029-.03-.059-12.996-20.54-.059-.088z" fill="#f00"/><path d="m152.529 96.975-1.415 1.032-1.385 1.061 8.546 11.994h.088l4.892 6.601 12.79 16.267.059.088 9.194 11.139v.088l11.493 12.967h.088l11.581 12.436h.059l5.187 5.187v.059l4.42 4.155 17.475 16.414h.088l9.519 8.693.088.088 10.727 8.693.059.059 10.667 8.016v.059l10.049 7.102h.059l10.668 6.808.088.059 12.76 7.309 21.542 11.699h.06l5.422 2.593.059.088 5.835 2.505h.06l6.453 2.475.089.059 7.22 2.476h.059l13.35 3.978h.059l5.481 1.415h.06l4.979.973h.147l4.627.648h.147l4.626.265h.147l4.686-.059h.147l5.128-.294h.059l2.328-.266.147-.088 2.033-.471h.206l1.827-.648.118-.059 1.621-.766.147-.088 1.473-.766.06-.059 1.355-.914.118-.088 2.475-1.827 2.27-1.621.029.029 1.208-.707.089-.03.029-.029 1.061-.501.06-.029.147-.059 1.208-.413.088-.029.118-.03 1.326-.265v.059l1.769-.147 2.239.059 1.532.177v.029l1.474.266v.029l1.268.354 1.267.501.973.472.854.501.648.53-.029.029.854.708 1.326 1.385 1.326 1.562.088.059 1.474 1.621.059.059.855.766.059.088.913.766.06.059 3.094 2.328v.059l3.242 2.181.146.088 3.36 2.033h.146l1.827.914.06.059 1.975.766.059.088 2.033.678h.059l2.122.648h.147l2.239.471.06.088 2.387.354h.147l2.534.206h.059l2.741.059.059.088 2.888-.147h.06l3.035-.206h.118l1.62-.295.207-.059 1.562-.501.206-.059 1.532-.708.147-.059 1.621-.914.118-.088 3.241-2.299.147-.147 3.212-2.888.089-.147 3.212-3.359.088-.147 3.301-3.772v-.088l6.454-8.546.059-.059 12.612-17.652.03.029 6.158-7.662 2.889-3.006 2.652-2.328.059-.03.088-.088 2.8-1.827-.029-.03 2.829-1.296v-.03l2.593-.825 2.977-.501 2.505-.059 2.741.206 2.888.619 2.387.795 2.446 1.12 2.445 1.385v-.029l2.122 1.503 1.886 1.621.029-.029 1.65 1.797.03-.029 1.325 1.621h-.029l1.179 1.857.885 1.886 1.591-.796 1.621-.766-.973-1.886-.088-.207-1.238-1.974-.088-.147-1.533-1.886-.146-.147-1.827-1.886-.06-.059-2.033-1.768-.147-.059-2.328-1.621-.059-.059-2.446-1.415-.235-.059-2.594-1.208h-.117l-2.741-.914-.206-.059-2.888-.648h-.206l-2.889-.265h-.265l-2.947.059-.295.088-3.006.471-.206.088-3.035.914-.206.118-3.006 1.414-.207.147-2.946 1.945-.147.147-2.947 2.593-.146.088-3.006 3.153-.089.147-6.159 7.573-.088.059-12.701 17.77.059.029-6.513 8.458-3.153 3.772-3.094 3.301-3.006 2.741-3.242 2.328.03.03-1.268.648-1.562.707-1.179.383v-.029l-1.563.295-2.8.265v-.059l-2.74.147-2.593-.147-2.388-.206-2.239-.324v-.029l-2.239-.501v.029l-2.034-.589v.029l-1.827-.619v-.03l-1.826-.766v-.029l-1.71-.766.03-.059-3.448-1.975-.029.03-3.006-2.092.029-.03-3.095-2.328-.029.029-.736-.648-.737-.678.03-.029-1.474-1.621-1.415-1.532-.059-.088-1.474-1.532-.059-.147-.854-.708-.06-.059-.913-.708-.147-.059-.973-.648-.147-.059-1.119-.56-.147-.059-1.268-.501-.147-.059-1.385-.354-.147-.088-1.621-.265-.147-.089-1.826-.206h-.118l-2.27-.059h-.206l-1.945.147h-.206l-1.768.354-.207.059-1.562.501-.206.059-1.385.619-.147.088-1.326.766-.147.147-2.446 1.68-.088.059-2.446 1.827-1.179.795-.029-.029-1.474.854-1.474.619.029.029-1.62.53v.029l-1.916.413v.03l-2.092.236-4.922.354v-.059l-4.626.059-4.479-.265-4.715-.648v.059l-4.774-.973-5.393-1.326-13.261-3.978v-.03l-7.221-2.446v.029l-6.395-2.475v.029l-5.688-2.475v-.03l-5.334-2.534-21.542-11.699-12.642-7.19.029-.03-10.609-6.748-9.99-7.043.029-.03-10.609-7.957-10.668-8.693-9.607-8.693-.029.029-17.446-16.385-4.361-4.096.03-.029-5.187-5.187.059-.029-11.64-12.348-.029.029-11.434-12.937-9.106-11.081-12.76-16.267-4.921-6.601z" fill="#f00"/><path d="m152.677 122.938-1.562.825-1.532.854 7.515 14.027h.059l6.395 11.168v.059l6.719 10.727h.088l8.487 12.849h.059l10.108 14.469h.088l10.314 13.673v.059l17.888 22.396h.059l20.628 25.402 9.136 10.786h.059l11.228 12.377 10.815 11.493h.059l8.34 8.34.088.088 4.066 3.654.059.059 4.361 3.654.059.059 11.228 8.487h.088l11.846 8.369h.089l5.894 3.772h.06l5.952 3.507h.089l6.159 3.241.088.06 6.513 2.946.059.089 6.896 2.711h.059l7.456 2.623h.059l7.367 2.092.147.059 6.719 1.563.089.059 6.158 1.061h.089l5.452.707h.088l4.833.354h.059l4.067.118h.146l3.39-.06h.059l2.652-.147h.147l1.68-.206.206-.06 1.562-.354.147-.088 1.474-.561.206-.059 1.326-.648.147-.059 1.326-.707.059-.059 1.356-.855h.059l2.534-1.738-.029-.029 2.446-1.68.029.029 1.208-.707 1.237-.648 1.444-.619 1.385-.354v-.029l1.474-.236 1.385-.088 1.975.088 1.415.118 1.532.295v-.029l1.179.383 1.002.413.766.412.914.561.766.647 8.134 8.134.147.059 4.273 3.742.088.06 2.947 2.239.117.148 3.654 2.327h.089l2.033 1.12.118.059 2.269 1.061.06.06 2.387.973h.147l2.593.854.147.059 2.8.796h.059l3.035.56.118.059 3.241.413h.06l3.447.206h.207l1.827-.059.206-.059 1.827-.354h.206l1.827-.648.147-.059 1.827-.855.206-.059 3.713-2.328.206-.118 3.654-3.095.147-.146 3.654-3.713.059-.059 3.654-4.215.147-.147 7.072-9.548.089-.059 12.76-19.862 5.305-8.369.029.029 2.299-3.389 1.944-2.476.03.029 1.974-2.181-.059-.029 1.945-1.856 2.033-1.68-.029-.03 2.063-1.444v-.029l2.122-1.179 2.092-.973 1.945-.648 2.328-.471 1.975-.147 2.239.147 2.446.471 2.328.854.029-.059 2.21 1.12 2.476 1.532 2.652 2.034 2.534 2.328 1.179-1.268 1.208-1.267-2.682-2.534-.147-.059-2.593-2.033-.118-.088-2.682-1.68-.147-.059-2.594-1.267-.206-.059-2.534-.854-.206-.059-2.446-.501-.295-.059-2.445-.147h-.206l-2.446.206h-.235l-2.358.501-.146.059-2.328.707-.207.059-2.239 1.061-.206.059-2.181 1.355-.147.059-2.181 1.532-.06.147-2.121 1.768-.06.059-2.033 1.975-.059.059-2.033 2.181-.089.147-2.033 2.652-.059.088-2.328 3.36h-.06l-5.333 8.428-12.701 19.715-7.161 9.518.059.029-3.565 4.127-3.654 3.653-3.565 2.947-3.448 2.181-1.474.678-1.62.501h-.03l-.177.059-1.532.295-1.326.06-3.389-.207-3.095-.412-2.946-.561-2.652-.678v-.029l-2.534-.825-2.387-1.002-.03.03-2.092-.973.029-.029-1.975-1.032v-.029l-3.565-2.298v.029l-2.829-2.152-4.155-3.624.029-.03-8.134-8.073-.207-.117-.913-.767-.147-.089-.973-.707-.147-.059-1.119-.561-.147-.059-1.179-.5-.236-.089-1.326-.413h-.147l-1.532-.265-.147-.089-1.68-.117h-.146l-1.887-.089h-.147l-1.827.147h-.117l-1.709.266-.207.088-1.532.412-.147.06-1.474.589-.146.059-1.326.708-.147.06-1.326.766-.06.088-2.534 1.68-.059.06-2.534 1.68.029.029-1.237.825-1.149.648-.029-.029-1.268.56-1.474.56-1.12.295-1.68.207-2.593.146-3.242.059-4.066-.146-4.686-.324-5.422-.648-6.101-1.12v.03l-6.601-1.563-7.279-2.092v-.029l-7.308-2.477v-.029l-6.867-2.74v.029l-6.453-2.977v.029l-6.07-3.182.029-.029-5.924-3.39.03-.029-5.835-3.654-11.876-8.251.03-.029-11.169-8.487-.029.03-4.303-3.684-.029.029-3.979-3.536-8.281-8.281-10.874-11.493-11.168-12.289-9.077-10.697.029-.029-20.658-25.373.03-.029-17.976-22.396-.03.03-10.199-13.647-.029.029-10.108-14.322.029-.029-8.546-12.73.059-.029-6.749-10.727-.029.03-6.336-11.051z" fill="#f00"/><path d="m152.471 61.259-1.356 1.179-1.326 1.208 27.524 30.943h.059l23.369 24.282v.059l10.668 10.461.059.059 4.361 4.066 3.418 3.094h.088l19.567 16.355h.059l9.902 7.573 5.187 3.654h.088l5.393 3.507h.088l10.167 6.365h.059l9.194 5.481h.059l4.656 2.475h.059l4.921 2.299h.059l5.275 2.122.118.059 5.894 2.033h.088l14.439 4.126h.147l13.556 3.183h.06l12.348 2.239h.059l10.668 1.385 4.656.648 4.332.884v.03l8.781 1.827h.147l4.538.56.147.059 2.328.088h.118 2.475.06l2.534-.147h.147l2.652-.354h.088l2.8-.56h.147l2.858-.766h.147l2.239-.795h.147l1.886-.825.147-.088 1.68-.825.147-.059 1.474-.854.147-.059 2.445-1.827.06-.088 2.151-1.709.029.029.973-.766.059-.029.029-.03.914-.56 1.061-.589.059-.03.06-.029 1.002-.413 1.532-.413v-.029l1.326-.236v.029l1.827-.118h2.328l3.919.354 1.532.207 1.268.265v-.03l1.002.295v.029l.973.354.707.354.619.413v-.03l6.041 4.862.206.147 3.86 2.299.059.088 4.097 2.033.059.059 4.214 1.827.147.089 4.332 1.532.147.059 4.479 1.208.147.059 4.567.854h.206l4.627.472h.206 4.715.266l1.208-.207.266-.059 1.267-.354.207-.059 1.355-.648.117-.059 1.415-.854.147-.059 2.946-2.181.147-.147 3.065-2.74.146-.118 6.602-7.014.059-.088 6.896-8.281 13.468-16.709 6.101-6.719 2.651-2.534 2.476-1.886 2.446-1.415 2.239-1.031 1.975-.708 2.387-.442 1.739-.059 2.387.295 1.798.501 2.299 1.031 1.974 1.238-.029.029 2.328 1.886 2.181 2.181 2.181 2.564-.029.029 2.328 3.242.059-.059 2.27 3.566 4.833 8.84 1.532-.854 1.562-.854-4.921-8.841v-.118l-2.388-3.743-.059-.059-2.387-3.212-.089-.088-2.298-2.8-.147-.059-2.328-2.387-.118-.088-2.328-1.886-.147-.147-2.298-1.474-.207-.059-2.328-1.12-.294-.088-2.299-.619-.206-.059-2.388-.295h-.294l-2.299.059-.295.088-2.299.413-.294.059-2.388.795-.147.059-2.445 1.179-.147.088-2.446 1.474-.147.059-2.593 1.975-.147.147-2.8 2.652-.147.088-6.158 6.807-.089.059-13.497 16.797-.029-.03-6.896 8.281.029.03-6.542 6.925.029.029-2.977 2.623.029.03-2.828 2.004v.029l-1.268.678-1.208.56v.029l-.885.265-1.148.118h-4.273l-4.479-.383v-.029l-4.509-.825v-.029l-4.332-1.149v-.03l-4.302-1.473-4.185-1.886v.03l-3.86-2.004-3.802-2.24-6.041-4.921-.207-.147-.766-.471-.147-.088-.825-.413-.147-.059-1.061-.354-.147-.088-1.179-.354h-.059l-1.415-.265h-.147l-1.621-.294h-.059l-4.155-.324h-.117-2.24-.147l-2.033.118h-.147l-1.768.295-.118.059-1.562.413-.118.088-1.355.56-.206.059-1.179.648-.147.059-1.12.708-.089.059-1.031.854h-.088l-2.151 1.738-2.476 1.769v.029l-1.326.737.029.059-1.473.766-.03-.059-1.974.796.029.029-2.122.648v.029l-2.682.737v-.059l-2.8.56v.029l-2.534.265-2.446.118h-2.239l-2.239-.059-4.361-.53v-.03l-8.782-1.827-4.479-.913h-.147l-4.626-.708h-.06l-10.608-1.385v.03l-12.2-2.21-13.468-3.064v-.03l-14.38-4.096v-.029l-5.835-1.945v-.03l-5.216-2.033.029-.059-4.862-2.239v-.03l-4.568-2.357.03-.029-9.165-5.363.029-.03-10.196-6.277.03-.029-5.422-3.448-5.187-3.654-9.784-7.397.029-.029-19.538-16.267.029-.03-3.448-2.976.029-.03-4.361-4.067-.03.03-10.55-10.403-.029-.029-.059-.059-23.251-24.166.029-.029z" fill="#f00"/><path d="m152.323 29.108-1.208 1.267-1.179 1.268 4.126 3.919.088.088 3.654 3.625 6.572 7.102 6.188 6.513.059.088 3.242 3.065.059.088 3.595 3.094 9.813 8.487.029-.059 10.226 9.253h.059l10.108 8.752v.088l4.774 3.919h.059l4.509 3.448.059.059 10.167 6.866.088.088 4.686 2.947h.088l4.479 2.593.059.059 4.42 2.328.088.059 4.273 2.122h.059l8.576 3.713h.059l9.401 3.566.088.088 10.667 3.565h.059l5.688 1.621.059.059 5.835 1.473h.059l5.982 1.267h.059l6.041 1.061 20.48 3.212 6.101.796h.088l6.66.619h.06l7.308.413h.06l8.222.147 42.937-.56v-1.768-1.738l-42.937.56-8.074-.147-7.309-.412-6.602-.619-6.012-.796-20.421-3.212-5.982-1.002-5.894-1.238-5.747-1.473-5.599-1.591v-.03l-10.668-3.595-.029.088-9.253-3.565v-.03l-8.546-3.713-.029.059-4.185-2.092-4.362-2.299-4.479-2.623-4.656-2.829.03-.029-10.108-6.896-4.45-3.33.03-.029-4.774-3.919-.03.029-9.99-8.811-10.314-9.194-9.901-8.487-3.507-3.095-.029.03-3.153-3.006.029-.029-6.188-6.513-.029.029-6.483-7.073h-.088l-3.713-3.772-.059-.088z" fill="#f00"/><path d="m572.846 24.069v2.034h3.507v-2.034zm-.089 5.599v3.595h3.507v-3.595zm-.059 7.161v3.565h3.507v-3.565zm-.058 7.161v3.566h3.507v-3.566zm0 7.161-.089 3.566h3.507l.089-3.566zm-.089 7.161-.059 3.565h3.507l.059-3.565zm-.059 7.161-.089 3.566h3.536l.06-3.566zm-.089 7.131-.059 3.595h3.507l.088-3.595zm-.058 7.161-.06 3.595h3.507l.06-3.595zm-.06 7.161v3.595h3.507v-3.595zm-.088 7.161v3.565h3.507v-3.565zm-.058 7.161v3.566h3.507v-3.566zm-.06 7.161v3.565h3.507v-3.565zm-.088 7.161v3.565h3.507v-3.565zm-.059 7.161v3.566h3.507v-3.566zm-.088 7.131v3.596h3.536v-3.596zm-.06 7.161v3.595h3.507v-3.595zm-.058 7.162-.088 3.595h3.507l.088-3.595zm-.088 7.16v.708l-.118 2.799 1.738.059 1.769.088.118-2.888v-.059-.708h-1.739-1.768zm-.118 4.774-.295.059-.295.147h-.059l-.206.147-.295.206v.059l-.118.088-.147.265-.059.147-.147.295-.147.471v.207l-.206 1.061.796.147.029.413.943-.147-.03.324-.059 1.238-.059.472 1.68.354 1.738.294.089-.501.059-.206.147-3.094-1.091-.029-.029-.324-.088-.266-.118-.412-.088-.236-.147-.265-.06-.089-.059-.059-.206-.266-.236-.147-.059-.088-.206-.118-.295-.088-.354-.059h-.06zm-2.535 6.719-.561 3.536 3.419.56.56-3.595zm-1.12 7.043-.324 2.034h-.029l-.295 1.385 1.68.354 1.709.413.324-1.326v-.147l.354-2.151-1.738-.295zm-1.561 6.72-.561 1.768-.618 1.385 1.62.708 1.532.707.767-1.532.089-.236.471-1.739-1.62-.501zm-8.694 2.239-1.415 1.061-1.385 1.061 1.385 1.738.089.147.973.973 1.267-1.179 1.268-1.267-.854-.825-.089-.118-.029-.029zm6.1 3.242-.825.619-.147.089h-.059l-.295.059-.324-.029h-.029l-.147-.029-.147 1.002-.206.678-.472 1.738h.147l.206.089.472.059h.295.501l.266-.059.501-.089.206-.059.501-.147.206-.147.413-.206.265-.118.854-.648v-.059l.206-.207-1.325-1.12z"/><path d="m526.668 77.113-.501.147-.266.118-1.886.914-.295.147-.707.56 1.002 1.474 1.031 1.415.766-.56 1.415-.737v.03l.413-.147-.472-1.68zm-6.602 4.332-.354.354-.118.147-1.974 2.181-.089.059-.059.088 1.414 1.12.825.648.501.472 1.886-2.122.354-.324-1.179-1.356zm-4.773 5.687-1.887 2.387v.088l-.354.413 1.415 1.061 1.474.972.235-.383.029.029 1.827-2.446-1.385-1.061zm-4.273 5.835-2.092 2.888 2.858 2.033 2.033-2.888zm-4.126 5.835-2.121 2.858 2.888 2.034 2.033-2.859zm-4.155 5.805-2.093 2.947 2.858 2.033 2.033-2.947zm-4.215 5.835-2.033 2.947 2.888 2.033 2.034-2.947zm-4.125 5.806-.207.354-1.974 2.269 1.326 1.179 1.267 1.12 2.033-2.239.06-.147.354-.501-1.386-.973zm-76.855 4.774v1.768l.089 1.739h.618l2.388.294h.088l.413-1.68.412-1.68-.354-.147h-.206l-2.388-.294h-.206zm-3.979.353-.147.088-2.328.472h-.117l-.914.294.472 1.68.501 1.68.914-.265v-.029l2.033-.442v.029l.265-.059-.206-1.68-.266-1.768zm76.266.148-1.326 1.473-.146.147-.855.825 1.12 1.267 1.208 1.326 1.062-.973.117-.059 1.415-1.68-1.268-1.12zm-64.625.972-.619 1.621-.648 1.621 1.268.501 1.827.973.766-1.621.854-1.532-2.033-1.002-.147-.118zm-18.595.708-.413.147h-.088l-2.947 1.061.56 1.591.501 1.709 3.006-1.002v-.03l.354-.118-.471-1.68zm-6.807 2.239-3.448 1.002 1.002 3.359 3.419-.973zm32.003.648-1.002 1.474-.972 1.385.501.354 2.504 1.68 1.002-1.474.973-1.473-2.534-1.68zm53.045.265-2.682 2.387 1.208 1.355.973 1.385.146-.147 2.652-2.387-1.179-1.326zm-91.856.855-.206.059h-.089l-3.152.501.294 1.738.266 1.768 3.241-.56h.06l.354-.059-.413-1.709zm44.616 2.741-1.68 3.094 3.153 1.739 1.709-3.094zm41.846.766-.354.265-.147.088-2.445 1.473.884 1.474.913 1.532 2.535-1.532.146-.088.501-.324-1.061-1.415zm-35.657 2.446-1.414 3.242 3.3 1.385 1.415-3.212zm29.676.914-1.474.707-1.68.56.56 1.68.56 1.621 1.887-.619.147-.088 1.473-.707-.707-1.533zm-23.164 1.562-.472 1.68-.501 1.68 1.886.56.147.059 1.621.295.266-1.768.354-1.739-1.386-.177v-.03zm16.768.618-2.593.56v.029l-.678.029.117 1.769.147 1.768.973-.147h.236l2.593-.56-.442-1.68zm-10.167.707-.206 3.507 3.566.147.235-3.507z"/><path d="m571.638 81.386v2.033h3.507v-2.033zm-.06 5.629v3.566h3.507v-3.566zm-.058 7.131v3.595h3.507v-3.595zm-.089 7.161v3.595h3.507v-3.595zm0 7.161-.059 3.595h3.507l.059-3.595zm-.059 7.161-.089 3.566h3.507l.089-3.566zm-.089 7.161-.059 3.565h3.507l.059-3.565zm-.058 7.161-.059 3.565h3.507l.059-3.565zm-.059 7.161-.089 3.566h3.507l.089-3.566zm-.089 7.131v3.596h3.507v-3.596zm-.058 7.161v3.596h3.507v-3.595h-3.507zm-.089 7.161v3.595h3.537v-3.595zm-.059 7.161v3.595h3.507v-3.595zm-.058 7.161v3.566h3.507v-3.566zm-.089 7.161v3.565h3.507v-3.565zm-.059 7.161v3.566h3.507v-3.566zm-.06 7.161v3.566h3.507v-3.566zm-.087 7.131-.059 3.595h3.506l.06-3.595zm-.059 7.162v.708l-.147 2.799 1.768.088 1.739.059.146-2.859v-.088-.708h-1.768-1.738zm-.147 4.774-.266.088-.295.118h-.059l-.235.147-.266.207v.088l-.147.059-.147.295-.059.118-.147.294-.118.501v.207l-.235 1.031.796.147.059.412.913-.147-.059 1.562-.089.501 1.681.354 1.768.265.06-.472.088-.236.118-3.064-1.091-.059-.029-.294-.059-.295-.147-.413-.06-.207-.146-.294-.06-.059-.088-.088-.207-.265-.206-.147-.059-.059-.236-.147-.265-.059-.354-.088h-.06-.294zm-2.535 6.748-.561 3.507 3.448.56.56-3.566zm-1.12 7.014-.324 2.033h-.029l-.266 1.415 1.68.354 1.68.413.354-1.326v-.147l.354-2.181-1.768-.294zm-1.532 6.748-.501 1.533-.708 1.621 1.621.708 1.562.678.767-1.533.059-.206.501-1.768-1.62-.472zm-8.693 2.24-1.415 1.031-1.414 1.061 1.414 1.768.06.118 1.002 1.002 1.267-1.208 1.237-1.267-.824-.825zm6.099 3.212-.854.648-.147.059-.059.029-.266.03-.501-.059-.177 1.12-.177.56-.501 1.768h.147l.206.059.501.088h.266.501l.295-.088.471-.059.207-.088.501-.118.206-.147.412-.206.295-.147.854-.619v-.088l.206-.206-1.355-1.12z"/><path d="m570.518 205.156v2.033h3.507v-2.033zm-.059 5.628v3.566h3.506v-3.566zm-.089 7.161v3.566h3.536v-3.566zm-.058 7.161v3.565h3.507v-3.565zm0 7.132-.06 3.595h3.507l.06-3.595zm-.06 7.161-.088 3.595h3.507l.088-3.595zm-.088 7.161-.06 3.595h3.507l.06-3.595zm-.06 7.161-.059 3.565h3.507l.059-3.565zm-.058 7.161-.089 3.565h3.508l.088-3.565zm-.089 7.16v3.566h3.508v-3.566zm-.059 7.162v3.566h3.507v-3.566zm-.087 7.16v3.566h3.507v-3.566zm-.06 7.132v3.595h3.507v-3.595zm-.059 7.161v3.595h3.507v-3.595zm-.088 7.161v3.595h3.507v-3.595zm-.059 7.161v3.565h3.507v-3.565zm-.088 7.161v3.566h3.536v-3.566zm-.06 7.161-.059 3.565h3.507l.059-3.565zm-.058 7.161v.678l-.147 2.829 1.738.059 1.769.06.147-2.859v-.088-.678h-1.769-1.738zm-.148 4.773-.295.06-.265.147h-.06l-.235.117-.266.236v.059l-.147.059-.146.295-.06.147-.147.265-.147.502v.206l-.206 1.061.796.118.059.441.914-.146-.089 1.532-.059.501 1.68.354 1.768.266.06-.472.059-.206.147-3.095-1.09-.06-.03-.294-.059-.295-.147-.413-.059-.205-.147-.295-.089-.059-.059-.06-.206-.295-.206-.147-.089-.059-.206-.147-.266-.059-.354-.06h-.088-.266zm-2.534 6.719-.561 3.508 3.448.56.56-3.565zm-1.12 7.014-.324 2.033h-.029l-.266 1.415 1.68.354 1.68.413.354-1.326v-.147l.354-2.181-1.769-.266zm-1.532 6.749-.501 1.532-.707 1.621 1.62.707 1.533.707.795-1.562.06-.206.501-1.739-1.621-.501zm-8.693 2.239-1.415 1.061-1.414 1.032 1.414 1.769.06.146 1.002.973 1.237-1.179 1.268-1.267-.825-.855zm6.099 3.242-.854.619-.147.059-.059.029-.295.059-.294-.059h-.03l-.147-.029-.177 1.119-.177.561-.501 1.768h.147l.207.059.5.089h.266.501l.266-.089.501-.059.206-.059.501-.147.206-.147.413-.206.294-.147.825-.619v-.088l.236-.207-1.355-1.119z"/><path d="m571.726 278.504v2.034h3.507v-2.034zm-.088 5.599v3.566h3.507v-3.566zm-.06 7.161v3.566h3.507v-3.566zm-.058 7.161v3.565h3.507v-3.565zm0 7.161-.089 3.566h3.507l.089-3.566zm-.089 7.161-.059 3.566h3.507l.059-3.566zm-.059 7.131-.089 3.596h3.507l.089-3.596zm-.089 7.162-.059 3.595h3.507l.059-3.595zm-.058 7.16-.059 3.596h3.507l.059-3.596zm-.059 7.161v3.565h3.507v-3.565zm-.089 7.161v3.565h3.507v-3.565zm-.058 7.161v3.566h3.507v-3.566zm-.089 7.162v3.565h3.537v-3.565zm-.059 7.16v3.566h3.507v-3.566zm-.058 7.132v3.595h3.507v-3.595zm-.089 7.161v3.596h3.507v-3.596zm-.059 7.16v3.596h3.507v-3.596zm-.06 7.161-.088 3.566h3.507l.088-3.566zm-.087 7.161v.708l-.147 2.799 1.769.06 1.768.088.118-2.888v-.767h-1.739zm-.148 4.775-.266.059-.294.147h-.06l-.324.206-.294.295-.147.266-.089.147-.118.265-.146.501v.206l-.207 1.062.767.117.059.442.943-.147-.089 1.563-.059.471 1.68.354 1.739.295.088-.501.059-.206.147-3.095-1.09-.029-.029-.324-.089-.265-.147-.442-.059-.206-.266-.413-.235-.294-.206-.118-.06-.089-.206-.117-.295-.089-.412-.059h-.295zm-2.505 6.718-.56 3.507 3.418.56.56-3.565zm-1.12 7.014-.324 2.063h-.029l-.295 1.386 1.681.354 1.68.412.354-1.326v-.147l.354-2.15-1.739-.295zm-1.561 6.748-.56 1.769-.619 1.385 1.621.707 1.532.708.825-1.769.501-1.738-1.621-.501zm-8.694 2.24-1.414 1.061-1.386 1.061 1.386 1.739 1.061 1.12 1.267-1.18 1.268-1.267-.854-.854zm6.1 3.242-.824.619-.089.059-.472.089-.441-.06-.354 1.68-.471 1.739.354.088.472.06h.294l.767-.06.56-.088.619-.206.648-.354.265-.146.796-.619.266-.266z"/><path d="m571.726 137.524v2.033h3.507v-2.033zm-.088 5.6v3.595h3.507v-3.595zm-.06 7.161v3.595h3.507v-3.595zm-.058 7.16v3.595h3.507v-3.595zm0 7.161-.089 3.566h3.507l.089-3.566zm-.089 7.162-.059 3.565h3.507l.059-3.565zm-.059 7.16-.089 3.566h3.507l.089-3.566zm-.089 7.161-.059 3.566h3.507l.059-3.566zm-.058 7.161-.059 3.565h3.507l.059-3.565zm-.059 7.132v3.595h3.507v-3.595zm-.089 7.161v3.595h3.507v-3.595zm-.058 7.161v3.595h3.507v-3.595zm-.089 7.161v3.566h3.537v-3.566zm-.059 7.16v3.566h3.507v-3.566zm-.058 7.162v3.566h3.507v-3.566zm-.089 7.161v3.565h3.507v-3.565zm-.059 7.131v3.595h3.507v-3.595zm-.06 7.161-.088 3.595h3.507l.088-3.595zm-.087 7.161v.708l-.147 2.799 1.769.088 1.768.059.118-2.888v-.059-.708h-1.739-1.769zm-.148 4.774-.266.088-.294.118h-.06l-.206.147-.295.206v.088l-.117.059-.147.265-.089.147-.118.294-.146.472v.236l-.207 1.031.796.147.029.413.943-.147-.089 1.562-.059.501 1.68.354 1.739.265.088-.501.059-.206.147-3.094-1.09-.03-.029-.294-.089-.295-.147-.413-.059-.206-.147-.295-.059-.059-.06-.088-.235-.265-.206-.147-.06-.059-.206-.147-.295-.059-.354-.088h-.059zm-2.505 6.748-.56 3.507 3.418.56.56-3.595zm-1.12 7.014-.324 2.033h-.029l-.295 1.415 1.681.324 1.68.442.354-1.356v-.118l.354-2.181-1.739-.295zm-1.561 6.719-.56 1.769-.619 1.415 1.621.678 1.532.707.766-1.532.06-.207.501-1.768-1.621-.501zm-8.694 2.269-1.414 1.031-1.386 1.061 1.386 1.768.088.118.973 1.002 1.267-1.208 1.268-1.267-.854-.825zm6.1 3.212-.824.648-.147.059h-.06l-.295.059-.323-.029h-.03l-.146-.029-.147 1.001-.207.678-.471 1.768h.117l.236.059.472.059h.294.472l.295-.059.501-.059.206-.088.472-.147.235-.118.413-.207.265-.147.855-.648v-.059l.206-.207-1.326-1.12z"/><path d="m569.397 26.81-.147 3.565 3.507.147.147-3.595zm-.264 7.131-.147 3.595 3.418.147.236-3.595zm-.355 7.161-.146 3.595 3.507.118.146-3.565zm-.294 7.161-.147 3.36v.147l1.768.147 1.739.147v-.294l.147-3.359-1.739-.059zm-.353 7.102-.207 3.565 3.507.207.207-3.507zm-.472 7.161-.089 1.179-.206 2.328 1.769.207 1.738.118.206-2.358v-.088l.089-1.179-1.769-.089zm-.648 7.073-.354 3.565 3.507.354.354-3.566zm-34.597 5.481-.266 1.739-.294 1.768.913.147v-.029l.707.235.619.266.501.354.913-1.533.855-1.562-.648-.354-.207-.118-.854-.354-.206-.088-.825-.265h-.206zm33.83 1.532-.56 3.507 3.448.56.56-3.507zm-26.816 2.534-1.238 1.179-1.267 1.208.235.236-.029.03 1.326 1.621.501.766 1.385-1.031 1.474-1.002-.56-.766-.06-.059-1.325-1.68-.089-.147zm25.697 4.48-.147.56h.029l-.648 2.829 1.68.413 1.739.413.647-2.947.06-.147.088-.56-1.768-.265zm-21.336 1.621-1.474.914-1.474.972 1.268 1.916.059.059.708 1.061 1.414-1.061 1.474-.973-.707-1.002-.03.03zm19.567 5.039-.354 1.149-.914 2.033 1.621.678 1.562.708 1.032-2.181.088-.207.354-1.031-1.709-.589zm-15.647.648-1.326 1.12-1.326 1.12 1.473 1.768.147.118.973.854 1.179-1.267 1.208-1.267-.972-.914zm4.773 4.332-.767 1.562-.854 1.533.708.442.146.059 1.12.413.147.088 1.12.324.147.088.354.059.412-1.68.354-1.739-.294-.088v.03l-.855-.266.03-.029-1.12-.442zm8.016.589-.295.265-.589.413-.561.236-.736.059.206 1.739.206 1.768.914-.147h.147l.265-.059.914-.354h.088l.266-.147.854-.56.206-.206.501-.501-1.208-1.268z"/><path d="m181.291 205.303-1.179 1.267-1.208 1.267 39.872 36.424 38.221 36.394 10.609 9.96h.059l11.67 9.902.059.088 11.64 9.047.088.059 10.727 7.515.059.059 10.55 6.689h.059l12.142 6.866v.059l6.158 3.154h.089l5.894 2.887h.147l5.54 2.328.06.06 4.979 1.68h.147l2.446.648h.088l2.652.472h.06l5.834.766h.147l6.159.354h.089l6.247.147h.059l11.229-.206h.059l7.456-.412h.059l12.436-1.12 2.594-.235 2.505-.06 2.476.06v-.03l2.181.266 5.599.884 2.446.501 2.269.648v-.06l1.945.678 2.004.797-.029.059 2.033.973 1.886 1.119 10.609 6.808.146.06 4.833 2.682.147.059 2.388 1.119.059.089 2.387.913.147.06 2.446.767h.147l2.534.647h.117l2.594.413.147.059 2.74.207h.147 2.858.147l3.094-.207h.06l3.301-.412h.147l3.506-.619.147-.088 1.739-.473.206-.088 1.769-.766.206-.06 1.62-1.002.147-.118 1.592-1.208.235-.147 3.006-2.947.147-.117 2.858-3.596.089-.146 2.652-4.126v-.147l2.475-4.568.06-.059 4.42-9.901.06-.059 7.455-19.45h-.029l3.241-7.515 1.474-2.711.707-1.061.648-.766.59-.619.029.059.707-.648 2.033-1.326-.029-.03 1.916-.943 2.328-.854 2.505-.708 2.828-.56v-.03l2.712-.324 2.888-.206h3.035l3.006.147 2.888.265v-.03l2.858.472v-.088l2.741.56 2.534.678v.029l2.446.737v.029l2.328.914.618-1.591.648-1.621-2.328-1.002h-.059l-2.534-.825h-.147l-2.652-.708-.147-.059-2.8-.56h-.147l-2.946-.442h-.089l-3.006-.265h-.059l-3.095-.147h-.059-3.035-.147l-3.006.206h-.059l-2.947.354-.147.088-2.799.56h-.147l-2.682.678-.118.088-2.476.914-.147.059-2.299 1.208-.146.059-2.034 1.326-.147.147-.913.707-.059.147-.854.766-.06.118-.766 1.002-.147.059-.767 1.208-.088.118-1.532 2.888-.06.147-3.301 7.632v.088l-7.455 19.361.059.03-4.361 9.665h-.029l-2.476 4.479.029.029-2.445 3.92-.029-.029-2.652 3.389-3.036 2.947-1.385 1.031-1.562.854-1.532.708-1.415.383v-.029l-3.507.678v.029l-3.006.384v-.06l-3.094.206h-2.652l-2.623-.206-2.445-.383v-.03l-2.446-.529v-.029l-2.328-.708-2.446-.973-2.239-1.061v.029l-4.773-2.682-10.609-6.749-2.033-1.267-.059-.059-2.034-1.002-.147-.06-2.092-.854-.147-.06-2.181-.708-.059-.059-2.328-.56-.147-.089-2.446-.471h-.059l-5.688-1.002h-.147l-2.387-.207h-.06l-2.534-.059h-.088l-2.594.059h-.059l-2.741.207h-.059l-12.348 1.148-7.367.413-11.169.206-6.188-.146-6.1-.354-5.688-.679-2.505-.472v-.029l-2.328-.53v-.029l-4.833-1.621-5.481-2.298v-.03l-5.952-2.8-.029.06-6.071-3.212v.029l-11.935-6.777-10.609-6.661v.029l-10.521-7.456-11.64-9.047-11.582-9.843-10.609-9.872-38.221-36.424z" fill="#00f"/><path d="m152.736 122.938-1.533.825-1.562.854 7.515 14.027h.088l6.365 11.168v.059l6.749 10.727h.059l8.487 12.849h.088l10.108 14.469h.059l10.314 13.673v.059l17.888 22.396h.059l20.658 25.402 9.105 10.786h.059l11.228 12.377 10.815 11.493h.088l8.34 8.34.059.088 4.067 3.654.088.059 4.332 3.654.088.059 11.228 8.487h.059l11.876 8.369h.059l5.895 3.772h.059l5.982 3.507h.059l6.188 3.241.059.06 6.513 2.946.089.089 6.866 2.711h.088l7.427 2.623h.059l7.367 2.092.147.059 6.749 1.563.059.059 6.188 1.061h.059l5.481.707h.059l4.833.354h.089l4.066.118h.147l3.359-.06h.059l2.683-.147h.146l1.68-.206.207-.06 1.532-.354.147-.088 1.474-.561.206-.059 1.326-.648.147-.059 1.325-.707.089-.059 1.326-.855h.059l2.534-1.738-.029-.029 2.476-1.68v.029l1.355-.796 1.12-.56 1.444-.619 1.355-.354v-.029l1.473-.236 1.415-.088 1.945.088 1.414.118 1.532.295v-.029l1.208.383.973.413.767.412.913.561.767.647 8.163 8.134.117.059 4.303 3.742.059.06 2.947 2.239.147.148 3.654 2.327h.059l2.033 1.12.147.059 2.24 1.061.059.06 2.387.973h.147l2.594.854.146.059 2.8.796h.089l3.006.56.147.059 3.212.413h.088l3.419.206h.235l1.798-.059.235-.059 1.798-.354h.236l1.826-.648.118-.059 1.827-.855.206-.059 3.743-2.328.206-.118 3.625-3.095.146-.146 3.654-3.713.06-.059 3.654-4.215.146-.147 7.103-9.548.059-.059 12.761-19.862 5.304-8.369.029.029 2.328-3.389 1.916-2.476.029.029 1.975-2.181-.06-.029 1.945-1.856 2.033-1.68v-.03l2.063-1.444v-.029l2.092-1.179 2.093-.973 1.974-.648 2.328-.471 1.945-.147 2.269.147 2.446.471 2.299.854.029-.088 2.357 1.208 2.357 1.444-.029.029 2.652 2.034.029-.03 2.505 2.358 1.208-1.268 1.179-1.267-2.651-2.534-.147-.059-2.594-2.033-.147-.088-2.652-1.68-.146-.059-2.594-1.267-.206-.059-2.534-.854-.207-.059-2.475-.501-.266-.059-2.476-.147h-.206l-2.446.206h-.206l-2.387.501-.147.059-2.299.707-.235.059-2.24 1.061-.206.059-2.181 1.355-.147.059-2.151 1.532-.088.147-2.093 1.768-.088.059-2.033 1.975-.06.059-2.033 2.181-.059.147-2.033 2.652-.089.088-2.299 3.36h-.088l-5.334 8.428-12.701 19.715-7.161 9.518.06.029-3.566 4.127-3.507 3.506-3.713 3.095-3.448 2.181v.029l-1.473.678v-.029l-1.592.501h-.059l-.147.059-1.562.295-1.326.06-3.36-.207-3.094-.383v-.029l-2.947-.561-2.682-.678v-.029l-2.505-.795v-.03l-2.387-1.002-.029.06-2.093-1.002v-.029l-1.974-1.032.029-.029-3.448-2.181-2.947-2.24-4.185-3.624.03-.03-8.134-8.074-.206-.117-.914-.767-.147-.089-.972-.707-.147-.059-1.12-.561-.147-.059-1.179-.5-.206-.089-1.326-.413h-.147l-1.562-.265-.118-.089-1.709-.117h-.118l-1.915-.089h-.118l-1.827.147h-.147l-1.68.266-.206.088-1.563.412-.117.06-1.474.589-.147.059-1.326.708-.147.06-1.326.766-.088.088-2.534 1.68-.06.06-2.534 1.68.029.029-1.149.767-1.237.707-.029-.029-1.268.589v-.031l-1.474.56-1.119.295-1.68.207-2.594.146-3.212.059-4.066-.146-4.716-.324-5.393-.648-6.129-1.12v.03l-6.572-1.533v-.029l-7.308-2.121-7.309-2.477v-.029l-6.866-2.74v.029l-6.454-2.977v.029l-6.041-3.182v-.029l-5.923-3.39.029-.029-5.806-3.654-.059-.029-.029-.03-11.817-8.192.029-.029-11.139-8.487-.029.03-4.332-3.684-.03.029-3.978-3.536-8.281-8.281-10.874-11.493-11.139-12.289-9.106-10.697.029-.029-20.658-25.373.029-.029-17.946-22.396-.03.03-10.226-13.644-.029.029-10.108-14.322.029-.029-8.517-12.73.03-.029-6.719-10.727-.029.03-6.365-11.051z" fill="#f00"/><path d="m179.965 188.123-1.061 1.385-1.032 1.415 15.707 12.053.059.088 7.102 4.98h.059l9.548 5.834.059.059 14.263 8.075.059.059 10.727 5.688.088.059 21.335 10.255 23.575 11.08 10.521 4.921h.059l10.521 4.568h.088l5.481 2.092h.059l5.746 1.827.089.059 5.953 1.591 6.1 1.444 11.787 2.298 10.963 1.975 5.452.766h.088l5.953.56h.059l12.289.56h.088l10.874.088h.06l7.22-.206 6.542-.295 6.1.059 11.936.295h.059 3.006.089l2.387-.147h.059l3.713-.265 1.621-.088h1.769l1.827.147 2.239.354 3.212.619v-.029l2.8.707v.03l5.274 1.68v-.03l8.841 3.418.06.059 2.181.707h.088l2.24.619.147.088 2.239.413.147.059 2.445.295h.147l2.652.147h.147l2.888-.147h.118l3.153-.354h.088l3.448-.619.206-.088 1.739-.501.206-.059 1.68-.767.235-.088 1.592-.884.235-.088 1.532-1.179.207-.147 2.946-2.741.147-.147 2.8-3.359.147-.147 2.593-3.772.06-.147 2.534-4.155.059-.059 4.862-8.899 4.833-8.841 2.387-3.949 2.594-3.713 2.505-2.976.029.029 1.326-1.326 1.474-1.208 1.237-.855.029.03 1.415-.766 1.385-.56 1.621-.413v.059l11.286-1.709 4.155-.413 3.566-.206 3.595.059 3.625.294 9.695 1.326.206-1.739.206-1.768-9.666-1.267h-.146l-3.802-.354h-.06l-3.565-.059h-.147l-3.713.206h-.089l-4.214.413h-.059l-11.434 1.709-.147.059-1.68.354-.207.059-1.68.648-.206.059-1.621.854-.146.118-1.533 1.061-.147.059-1.473 1.208-.147.147-1.415 1.385-.117.088-2.741 3.212-.088.147-2.594 3.713-.059.147-2.534 4.067v.059l-4.833 8.841-4.804 8.87h-.029l-2.534 4.126-2.446 3.654-2.682 3.153-2.8 2.652-1.385 1.031-.029-.029-1.474.854v-.029l-1.474.707-1.62.442v-.029l-3.507.648v.029l-3.006.324-2.594.147-2.446-.147-2.387-.295-2.181-.383v-.03l-2.181-.619v.03l-2.092-.737v.029l-8.841-3.418-.147-.059-5.275-1.68-.059-.059-3.035-.708h-.06l-3.3-.707h-.06l-2.387-.354h-.147l-1.975-.147h-.117-1.769-.059l-1.68.088h-.089l-3.771.265-2.328.147h-2.889l-11.993-.295h-.06l-6.1-.059h-.089l-6.601.294-7.22.206h-10.727l-12.2-.648-5.835-.56h-.06l-5.334-.766-10.814-1.886h-.06l-11.729-2.328-5.864-1.355v-.029l-5.982-1.621v.029l-5.569-1.768v-.03l-5.393-2.004v-.025l-10.521-4.568-10.513-4.832-23.516-11.14-21.277-10.167.03-.03-10.756-5.688-14.292-8.133-.029.029-9.342-5.688.029-.029-7.161-4.98-.03.029z" fill="#00f"/><path d="m181.438 227.14-1.326 1.12-1.326 1.12 39.341 45.264 19.508 23.281h.088l6.866 8.015.059.059 8.222 8.634.059.059 23.015 22.543 12.142 11.08.088.06 5.599 4.774 5.127 4.008 23.281 18.24h.088l12.495 9.401h.059l6.041 4.126.06.088 5.688 3.418.059.089 11.11 6.307.059.088 11.021 5.953.147.059 5.334 2.594h.059l5.128 2.121.059.06 2.534.854h.06l2.387.707h.088l2.299.56h.147l2.181.354h.206l3.301.117.147.089 3.153-.147h.147l3.006-.295h.059l2.829-.354 5.334-.619 2.239-.147 1.179.089 1.062.118 2.799.501 2.388.618v.03l2.327.736v.029l2.24.914 1.886.913 1.916 1.061-.03.06 4.008 2.445v.06l6.396 3.742.059.059 7.103 3.36.146.088 7.574 2.947h.117l7.722 2.239.146.059 3.802.767h.118l3.802.648h.059l3.742.354h.118l3.507.059h.147l3.448-.265h.146l3.213-.561.206-.088 2.946-.825.207-.147 2.74-1.208.206-.118 1.209-.796.146-.117 1.179-1.002.207-.118 2.269-2.387.118-.147 2.033-2.888.089-.118 1.944-3.301.089-.088 3.654-7.515v-.06l3.565-7.985h-.029l3.713-7.81h.029l2.033-3.625 2.181-3.241 2.181-2.682 2.652-2.505 1.12-.767 1.326-.824.029.029 1.385-.678 1.68-.502v-.029l6.042-1.237v-.03l4.862-.559v.029l4.185-.06 3.801.265 6.454.768h.147l1.621.088h.059 1.68.059l1.769-.088.147-.06 1.738-.206-.206-1.769-.206-1.739-1.827.266-1.621.089h-1.385l-1.562-.089-6.514-.766h-.059l-3.802-.266h-.146l-4.332.059h-.236l-5.187.561-.147.059-6.218 1.355h-.235l-1.592.561-.235.059-1.592.707-.147.059-1.473.914-.147.088-1.474 1.032-.147.147-2.652 2.445-.206.236-2.387 2.947-.147.117-2.24 3.389-.088.118-2.033 3.654-.06.089-3.801 7.927v.059l-3.566 7.986h.029l-3.536 7.309-1.975 3.3-1.797 2.564-.029-.03-2.093 2.24-1.12.913-.913.561-2.682 1.267-2.505.767-3.035.53v-.029l-3.212.265-3.448-.059-3.565-.354-3.654-.53v-.029l-3.713-.737v-.029l-7.722-2.27v.03l-7.455-2.889-6.926-3.3-6.188-3.714-.029.03-3.89-2.505h-.089l-2.033-1.12-.059-.059-2.093-1.062h-.088l-2.24-.973h-.059l-2.476-.854h-.147l-2.593-.707h-.118l-2.946-.56h-.089l-1.179-.118h-.147-1.208-.118l-2.534.059h-.147l-5.334.619-2.858.354-2.946.295-2.889.147-3.153-.236-2.121-.265-2.151-.472v-.029l-2.387-.707-.03.059-2.298-.796v-.029l-5.039-2.063v-.029l-5.275-2.505v-.03l-11.021-5.952-11.14-6.396-5.628-3.447v.029l-5.953-4.096-.029.029-12.406-9.342-23.369-18.241-5.01-3.919.03-.03-5.599-4.774-.03.03-12.053-11.052-.029.06-22.897-22.426-.03-.029-.059-.059-8.075-8.487-6.866-7.986-19.567-23.31z" fill="#00f"/><path d="m182.706 261.854-1.415 1.061-1.385 1.061 9.636 12.229-.029.029 11.051 14.853-.03.029 19.833 27.966-.059.029 10.108 14.734h.059l8.988 12.436.088.06 8.958 11.375.088.059 10.108 11.522.03-.029 10.933 12.494-.029.03 10.668 12.966h.059l10.108 12.142h.088l4.774 5.334v.059l4.539 4.627h.088l23.222 21.777h.059l12.907 11.435.089.059 5.599 4.567.089.06 4.538 3.389 19.95 14.439.06.06 5.746 3.507.089.088 2.858 1.532h.088l2.858 1.415h.147l2.888 1.119.118.06 2.829.854h.206l2.741.56h.206l2.74.206h.118 12.436l5.246.147 2.387.207 2.181.265v.029l.767.118v-.029l.647.177 1.12.442 1.268.766 1.061.736-.029.03 1.267 1.119.03-.059 1.179 1.179 2.181 2.446 4.272 5.422.06.06 2.033 2.327.088.06 1.032.973.146.088 1.002.767.118.147 5.835 3.359.059.059 2.889 1.414.059.06 2.829 1.208h.059l2.8 1.061h.089l2.711.825h.088l2.741.648.059.06 2.682.501h.118l2.593.265.147.059 2.594.147h.147 2.593.059l2.623-.059.118-.089 5.127-.618h.147l5.039-1.12h.236l1.237-.412.236-.147 1.237-.648.235-.059 1.238-.825.147-.089 1.326-.973.088-.088 2.652-2.446.147-.147 2.74-2.946.06-.118 5.54-7.161.088-.088 5.688-8.134 5.895-8.281-.03-.029 5.924-7.603-.029-.029 2.976-3.213 2.947-2.799-.029-.03 2.888-2.21 1.415-.854 1.267-.619 5.6-2.181-.029-.029 4.449-1.385 4.067-.914 3.447-.471 7.573-.648 4.421-.501h.088l5.246-.825-.266-1.769-.295-1.738-5.127.884v-.059l-4.421.501-7.485.618-.088.089-3.713.501h-.147l-4.066.884-.147.089-4.686 1.474h-.089l-5.599 2.239-.147.059-1.532.708-.147.088-1.532.973-.147.059-3.095 2.388-.147.088-3.006 2.947-.059.059-3.035 3.359-.059.089-6.042 7.721v.059l-5.894 8.281-5.688 8.133.029.03-5.569 7.131-2.594 2.888-2.534 2.299-1.179.854-1.031.648-.029-.029-1.268.648-1.061.354.029.059-4.921.973v.029l-4.922.619-2.445.059h-2.476l-2.505-.146-2.534-.324-2.594-.442-2.593-.59v-.029l-2.741-.854v.029l-2.534-.942-.088-.03-.06-.029-2.593-1.09v-.029l-2.8-1.415-.029.029-5.658-3.389-.825-.648-.029.029-.767-.707-1.944-2.181-4.273-5.422-.088-.06-2.299-2.652-.089-.088-1.267-1.179-.06-.089-1.267-1.119-.147-.06-1.326-.973-.147-.088-1.385-.825-.206-.089-1.415-.56-.206-.059-.767-.206-.147-.089-.707-.118h-.147l-2.387-.294h-.059l-2.446-.207h-.147l-5.274-.147h-.06-12.288l-2.741-.206-2.593-.501v.029l-2.534-.766v-.029l-2.8-1.032v-.029l-2.74-1.267-.089-.029-.029-.03-2.711-1.414.029-.059-5.629-3.419.029-.029-19.861-14.381-4.598-3.33.029-.029-5.569-4.538.029-.029-12.907-11.346-23.192-21.66.029-.029-4.479-4.509-4.774-5.334-.029.029-10.079-12.082-10.667-12.995-.059-.06-10.962-12.495v-.059l-10.108-11.375-8.988-11.375-.03.029-8.929-12.377-10.049-14.646h-.059l-19.803-28.083-11.081-14.941z" fill="#00f"/><path d="m538.603 158.565-5.187.088h-.089l-5.245.265h-.147l-5.187.766h-.147l-5.187 1.208h-.147l-2.593.766h-.089l-2.505.914-.206.147-1.267.56-.207.147-1.208.825-.206.147-1.12 1.061-.147.059-1.119 1.267-.147.147-2.181 3.006-.06.147-2.092 3.507-.089.147-3.86 8.399-.059.088-3.802 9.194-3.86 9.047.029.029-1.975 4.038-2.121 3.713-2.181 3.094-1.031 1.267-1.002.973-1.12.973-1.268.707.029.029-1.148.472-.914.206-2.858.354-2.594.147-2.828-.088v.059l-2.652-.265v.088l-2.594-.413v-.029l-2.74-.56-2.682-.678v-.029l-2.682-.796.029-.029-5.481-2.122-5.599-2.741-5.688-3.212-5.747-3.566-1.061-.648-.059-.059-1.149-.56h-.06l-1.119-.501h-.06l-1.208-.413h-.147l-2.299-.56-.146-.089-2.535-.354h-.117l-11.316-1.179-2.387-.294h-.147l-2.446-.059h-.059-2.534-.06l-2.682.059h-.059l-12.289.914-6.719.294-10.255.147-25.697-.442-46.443-2.299-24.135-1.208-11.846-.767-5.835-.707v.088l-5.54-1.002-17.682-2.741-4.42-.884v-.03l-5.333-1.385-6.188-1.975-7.721-2.799-7.839-3.065v-.029l-5.776-2.358v-.029l-16.267-7.426-.708 1.621-.707 1.591 16.208 7.456h.088l5.805 2.387v.059l7.957 3.006 7.78 2.888h.059l6.336 2.033.118.088 5.275 1.385h.059l4.568.914.059.088 17.77 2.711 5.599.914h.088l5.806.707h.088l11.994.767h.059l24.135 1.208 46.473 2.299h.059l25.667.442h.089l10.314-.147h.059l6.808-.294h.088l12.2-.914 2.594-.059h2.534l2.239.059 2.388.294 11.375 1.12 2.445.412v-.029l2.24.589.884.265-.029.03 1.119.413.914.501v-.03l.913.531 5.806 3.625.089.088 5.688 3.212h.059l5.688 2.829h.059l5.629 2.24h.147l2.8.914h.059l2.8.766h.088l2.8.56h.059l2.829.413h.118l2.829.206h.059l2.8.088h.147l2.888-.147h.059l2.889-.354.206-.059 1.385-.354.295-.088 1.326-.56.295-.118 1.267-.854.207-.059 1.267-1.061.118-.147 1.208-1.179.059-.147 1.209-1.326.117-.147 2.27-3.3.059-.147 2.093-3.713.088-.147 2.033-4.125v-.088l3.861-9.106 3.742-9.136h.029l3.949-8.339-.029-.03 1.886-3.271h.029l2.181-2.947.825-.973.088-.059.06-.088 1.061-.914.767-.56 1.061-.53v.029l2.594-.914 2.445-.766v-.029l5.128-1.091v-.029l5.068-.678 5.039-.354h5.187l5.069.206 9.872.796.147-1.768.146-1.739-9.96-.796h-.089l-5.098-.206h-.152z" fill="#00f"/><path d="m552.482 106.729-17.387.56-4.773.266h-.089l-4.833.413h-.059l-4.922.707h-.147l-5.039.914-.147.088-1.267.413-.266.059-1.208.648-.206.118-1.179.795-.207.118-1.148 1.002-.207.147-2.298 2.505-.089.147-2.239 3.094-.147.147-4.421 7.367-.059.059-4.567 8.133.059.03-4.804 7.868-.029-.03-2.593 3.654-2.535 3.006-2.946 2.682-1.326.973-1.474.825-1.267.56h-.03l-.177.088-1.326.442v-.03l-1.768.295-1.474.059-3.507-.206-3.301-.413v.029l-3.064-.589v.03l-2.829-.737-2.652-.854v.029l-2.416-.943.029-.059-2.476-1.09.029-.029-2.387-1.208-4.774-2.947-.029.029-4.686-3.241-10.579-7.368h-.089l-.972-.648-.147-.059-.973-.501-.059-.059-1.062-.413-.088-.088-.973-.354-.147-.059-.973-.294-.147-.059-1.031-.207-.088-.088-2.181-.324-.118-.088-10.314-1.179-9.754-1.473h-.147l-2.682-.295h-.059l-2.889-.206h-.117-3.035-.147l-3.301.147-2.711.059-3.802-.059-9.901-.501-25.196-1.326-11.346-.295h-.088l-9.607.088-25.402.207-24.901.147-10.727-.147-12.495-.648-10.874-.413h-.147l-7.426.206-8.517.295-14.174-.088-8.192-.207-3.035-.118-2.859-.294-3.241-.413-3.919-.708h-.059l-11.876-2.328-.354 1.769-.354 1.738 11.935 2.27h.088l3.979.678h.088l3.212.501h.089l2.947.294h.059l3.094.118h.059l8.222.236h.059l14.175.059h.059l8.576-.295 7.367-.206 10.874.442 12.495.619h.059l10.756.147 24.96-.147 25.402-.207 9.548-.088 11.375.295 25.107 1.326 9.961.5h.089l3.771.059h.089l2.858-.059 3.241-.147h3.095l2.799.206 2.594.295v-.088l9.666 1.562h.088l10.314 1.149v.029l2.033.324v.03l1.061.294v-.059l.825.294v.03l1.062.354.766.354.914.472v.029l.942.53-.029.03 10.609 7.279 4.773 3.3.06.088 4.773 2.858.147.088 2.387 1.268.118.059 2.534 1.179h.059l2.594 1.061.147.059 2.74.854.147.059 2.947.707.059.088 3.153.56h.147l3.359.413h.088l3.654.206h.118l1.827-.059h.206l1.827-.354h.235l1.681-.56.206-.088 1.68-.766.147-.059 1.591-.914.147-.088 1.562-1.12.118-.118 2.947-2.741.147-.147 2.74-3.241.147-.118 2.593-3.595.06-.147 4.862-7.986.059-.059 4.568-8.222-.03-.029 4.45-7.279 2.181-2.947 2.033-2.24 1.031-.825 1.002-.708 1.062-.589.973-.294v.029l4.892-.973 4.921-.619 4.774-.442 4.715-.266 17.387-.56-.059-1.768z" fill="#00f"/><g font-family="Arial, 'Bitstream Vera Sans', sans-serif"><g font-size="19.78"><text transform="translate(63.6953 583.6543)">Equal-loudness contours (red) (from ISO 226:2003 revision)</text><text transform="translate(126.9175 608.3535)">FletcherMunson curves shown (blue) for comparison</text><text transform="matrix(.007 -1 1 .007 40.3994 432.3711)">Sound Pressure Level (dB SPL)</text><text transform="translate(363.5254 462.7539)">(threshold)</text><text transform="translate(460.9902 55.9858)">(estimated)</text><text transform="translate(398.1895 400.3555)">20</text><text transform="translate(400.3652 327.9941)">40</text><text transform="translate(400.2939 258.019)">60</text><text transform="translate(399.3115 187.7974)">80</text><text transform="translate(392.5059 117.8745)">100 phon</text></g><g font-size="24.77"><text transform="translate(63.7656 452.9297)">10</text><text transform="translate(53.9419 521.9756)">-10</text><text transform="translate(98.6392 553.4814)">10</text><text transform="translate(232.9419 553.4814)">100</text><text transform="translate(364.5781 553.4814)">1000</text><text transform="translate(500.4248 553.4814)">10k</text><text transform="translate(637.043 551.166)">100k</text><text transform="translate(74.8521 488.6455)">0</text><text transform="translate(64.8882 420.7227)">20</text><text transform="translate(64.9585 384.0244)">30</text><text transform="translate(65.4497 348.3789)">40</text><text transform="translate(64.9585 314.417)">50</text><text transform="translate(64.397 279.3325)">60</text><text transform="translate(64.4673 244.8096)">70</text><text transform="translate(64.397 209.1641)">80</text><text transform="translate(63.9761 173.5884)">90</text><text transform="translate(50.4336 135.7676)">100</text><text transform="translate(50.3633 103.3496)">110</text><text transform="translate(50.3633 68.2656)">120</text><text transform="translate(51.0649 34.7949)">130</text></g></g></svg>