<svg height="342" width="512" xmlns="http://www.w3.org/2000/svg" xmlns:xlink="http://www.w3.org/1999/xlink"><marker id="a" orient="auto" overflow="visible" refX="0" refY="0"><path d="m0 0 5-5-17.5 5 17.5 5-5-5z" fill-rule="evenodd" stroke="#000" stroke-width="1pt" transform="matrix(-.8 0 0 -.8 -10 0)"/></marker><g stroke="#000"><path d="m.001534.309995h513.58673v343.79337h-513.58673z" fill="#fbffff" stroke-width="1.003068"/><path d="m455.48503 261.33637-49.71317-20.206s-2.00457-.80183-3.36767-.32073-2.05349 2.27636-2.05349 2.27636c-28.62642 58.11885-82.55813 90.9577-145.12192 89.65597-27.32926-.05447-41.60854-3.92061-59.51048-14.29125-30.23389-17.51458-33.67457-37.70143-42.97113-55.17705-9.37339-17.62005-11.73296-14.06797-27.74717-37.52367-16.06883-23.53571-14.8125-37.99811-15.25-49.75-1.13043-26.55886 6.24074-47.81335 23.3934-71.65076 8.50658-10.664749 14.99336-26.489376 21.8566-39.599239 13.81788-34.122159 57.61686-48.340475 102.0625-51.093751 86.2616.163663 156.37793 73.027953 156.21875 161.71875-.00298 1.6701-.01146 3.08073-.09375 5.17188-.09623.42187-.03962 7.86594 2.5625 10.98437 2.54593 3.05108 6.20815 6.26402 11.90625 8.84375 5.79238 2.62242 28.93749 9.1875 28.9375 9.1875" fill="none"/><path d="m173.09903 85.850569c.44194-4.596195 7.92542-28.288096 26.96966-43.568426.92037-1.126513 90.15655-28.528583 144.37583 24.225308 54.59689 53.121299 55.59428 89.438059 47.07554 115.948649.25186 18.4776 0 0 0 0 .25186 18.4776-3.09105 32.9025-9.79977 48.99885.82426-.82428 5.94634 22.08486-48.99886 60.72193-54.61013 38.40146-96.96306 14.04471-128.61742 8.05962-9.07276 14.10725-34.01026-29.45525-36.97901-40.6115" fill="#fff4cc" fill-rule="evenodd"/><path d="m153.18741 208.10941h10.716737v34.067703h-10.716737z" fill="#ffe0cc" stroke-width=".472086"/><path d="m172.88761 231.69134 22.98096 71.06424" fill="#ffb27f" fill-rule="evenodd"/><path d="m189.13422 215.25112c-6.12088 10.45192-13.23615 24.1963-13.34663 30.93591 0 0 .11048-6.73961 0 0l-11.30643-5.21491c-.50824-7.71188 0 0 0 0-.50824-7.71188-3.20408-15.53425-4.15426-22.00869" fill="#ffb27f" fill-rule="evenodd" stroke-width=".5"/><path d="m153.7093 98.325579c-4.19962 2.061441-9.73724 10.226251-10.40124 11.116361-15.42405 20.67647-24.58813 44.90106-24.30806 66.55806.49248 19.57 12.03911 54.85776 36.625 68.125" fill="#ffe0cc" fill-rule="evenodd"/><path d="m71.974714 184.43148 386.025436-33.77286" fill="none" stroke-dasharray="8 2 1 2"/><path d="m173.84306 241.94439c1.52469-6.91639 5.81153-12.70582 7.68978-19.09188" fill="none" stroke-width=".5"/><path d="m167.57476 240.61856c.0183-7.09033-.73727-9.4736-.17679-15.02601" fill="none" stroke-width=".5"/><path d="m170.57996 239.99985c.68277-3.35359.79104-7.97714 1.41421-12.72792" fill="none" stroke-width=".5"/><path d="m152.40625 206.1875c-.10625.00236-.22877.03839-.34375.0625-4.91289 1.03003-1.10224 21.44136 5.03125 41.40625l.15625.34375s22.65541 40.86784 36.71067 55.05267c14.05526 14.18484 53.77648 20.98998 95.35183 14.29108 41.57534-6.69891 79.59375-33.84375 105.84375-91.34375.5-1 .4865-2.58696-5.40625-1.5-49.73337 87.35399-84.9374 98.40653-192.84375 77.3125-22.56435-22.51851-23.38452-51.34017-21.53125-55.71875s.98559-11.63253-4.3125-11.90625c-7.51055 2.69324-6.8842 11.78432-11.5625-3.21875-4.54702-14.58204-3.7999-24.85435-7.09375-24.78125z" fill="#ffb2b2" fill-rule="evenodd"/><path d="m152.19234 105.28136h9.642376v34.617672h-9.642376z" fill="#ffe0cc" stroke-width=".5"/><path d="m436.21856 243.18876c-13.46751-3.78401-39.57007-27.23218-46.13872-13.08147-13.35531 28.77106-37.53352 58.96833-70.65998 75.02647-25.58323 12.40154-84.89316 20.64482-122.20339-2.94578-1.13219-.71586 7.26239-3.15452 11.78353-2.93798 91.11308 33.11567 151.17558-19.78118 174.10974-70.74064 5.78475-12.85364 13.40255-10.14797 26.87006-6.36396" fill="#ffd0b2" fill-rule="evenodd"/><path d="m416.125 216.875c12.8125.875 38.1875 5.5 50 9.375" fill="none"/><path d="m422.375 221.25c11.0625.5 30.9375 8.25 41.25 11" fill="none"/><path d="m419.25 224c11.53125 3.21875 32.34375 16.03125 43.125 21.375" fill="none"/><path d="m419.5 223.875 44.25 15.25" fill="none"/><path d="m422.375 228.875c6.34375 6.1875 28.65625 16.0625 39.875 20.75" fill="none"/><path d="m412.875 226.75c10.90625 8.4375 34.96875 20.5625 49.125 27.25" fill="none"/><path d="m150.25 175.875h36.875" fill="none"/><path d="m190.125 175.75h4.125" fill="none"/><path d="m187.24686 132.16607c-3.60182-7.6235-15.54072-29.21957-14.4073-43.840625-.7128.353551-1.68508 2.386483-11.49618 12.993085 0 0 9.8111-10.606602 0 0 .24306 8.77255-2.62956 21.45627-3.44715 27.312" fill="#ffb27f" fill-rule="evenodd" stroke-width=".5"/></g><path d="m95.40625 127.96875-.34375.5 16.625 10.21875.3125-.53125z" fill-rule="evenodd"/><path d="m106.73043 135.28009-3.30095.7898 8.41437 2.34913-5.90322-6.43987.7898 3.30094z" fill-rule="evenodd" stroke="#000" stroke-width=".48pt"/><path d="m164.12034 122.62012c1.17114-6.38606 1.56889-15.53425 1.14904-23.511297" fill="none" stroke="#000" stroke-width=".5"/><path d="m170.75674 120.32203c-2.37151-5.12921-3.16149-13.7767-3.44714-22.980977" fill="none" stroke="#000" stroke-width=".5"/><path d="m182.24722 126.86276c-5.98268-7.81245-11.04476-23.48537-12.99308-30.759145" fill="none" stroke="#000" stroke-width=".5"/><text font-family="Bitstream Vera Sans" font-size="12" x="73.927307" y="125.8021"><tspan x="73.927307" y="125.8021">Cornea</tspan></text><text font-family="Bitstream Vera Sans" font-size="12" x="14.916697" y="212.67426"><tspan x="14.916697" y="212.67426">Anterior Chamber</tspan><tspan x="14.916697" y="227.67426">(Aqueous Humor)</tspan></text><text font-family="Bitstream Vera Sans" font-size="12" x="104.56842" y="259.2276"><tspan x="104.56842" y="259.2276">Iris</tspan></text><text font-family="Bitstream Vera Sans" font-size="12" x="204.38206" xml:space="preserve" y="199.3168"><tspan x="204.38206" y="199.3168">Crystalline</tspan><tspan x="204.38206" y="214.3168">     Lens</tspan></text><text font-family="Bitstream Vera Sans" font-size="12" x="205.53171" xml:space="preserve" y="138.73862"><tspan x="205.53171" y="138.73862">Zonular</tspan><tspan x="205.53171" y="153.73862"> Fibers</tspan></text><text font-family="Bitstream Vera Sans" font-size="12" x="262.66492" xml:space="preserve" y="105.31366"><tspan x="262.66492" y="105.31366">Vitreous</tspan><tspan x="262.66492" y="120.31366"> Humor</tspan></text><text font-family="Bitstream Vera Sans" font-size="12" x="342.95767" y="199.05579"><tspan x="342.95767" y="199.05579">Blind</tspan><tspan x="342.95767" y="214.05579">Spot</tspan></text><path d="m371.15625 205.0625-.1875.59375 16.625 5.28125.1875-.59375z" fill-rule="evenodd"/><path d="m381.9627 208.8235-3.01467 1.55942 8.73227.25965-7.27702-4.83373 1.55942 3.01466z" fill-rule="evenodd" stroke="#000" stroke-width=".48pt"/><text font-family="Bitstream Vera Sans" font-size="12" x="465.39044" y="207.69591"><tspan x="465.39044" y="207.69591">Optic</tspan><tspan x="465.39044" y="222.69591">Nerve</tspan></text><text font-family="Bitstream Vera Sans" font-size="12" x="291.94501" y="263.25095"><tspan x="291.94501" y="263.25095">Retina</tspan></text><text font-family="Bitstream Vera Sans" font-size="12" x="204.36754" xml:space="preserve" y="100.04393"><tspan x="204.36754" y="100.04393">Ciliary </tspan><tspan x="204.36754" y="115.04393"> Body</tspan></text><text font-family="Bitstream Vera Sans" font-size="12" x="415.47357" xml:space="preserve" y="112.89008"><tspan x="415.47357" y="112.89008"> Fovea</tspan><tspan x="415.47357" y="127.89008">Centralis</tspan></text><path d="m129.875 187.6875-43.65625 12.9375.1875.59375 43.625-12.96875z" fill-rule="evenodd"/><path d="m124.20959 189.66834-1.61759 2.98386 7.3694-4.69169-8.73567.09024 2.98386 1.61759z" fill-rule="evenodd" stroke="#000" stroke-width=".48pt"/><path d="m152.21875 214.28125-33.21875 34.25.4375.40625 33.1875-34.25z" fill-rule="evenodd"/><path d="m148.24814 218.79463.05254 3.3937 4.12393-7.7015-7.57017 4.36033 3.3937-.05253z" fill-rule="evenodd" stroke="#000" stroke-width=".48pt"/><path d="m174.96875 115.34375-.40625.4375 28.75 26.53125.40625-.4375z" fill-rule="evenodd"/><path d="m179.18373 119.63156 3.3914-.1358-7.8004-3.93368 4.54481 7.46088-.13581-3.3914z" fill-rule="evenodd" stroke="#000" stroke-width=".48pt"/><path d="m307.71875 269.125-.46875.375 21.0625 24.96875.4375-.40625z" fill-rule="evenodd"/><path d="m324.66693 289.6787-3.38185-.28823 7.24888 4.87583-3.5788-7.96945-.28823 3.38185z" fill-rule="evenodd" stroke="#000" stroke-width=".48pt"/><path d="m458.75 175.5h-387.75" fill="none" stroke="#000" stroke-dasharray="8 4"/><path d="m149.60709 175.6598c-.2918-12.34036 1.00224-52.9816 20.14196-55.26918 21.18084 4.03788 30.00627 37.4161 29.75518 55.68267s-6.40201 47.74763-27.67578 50.78171c-18.28025-5.58328-21.7066-34.54602-22.22136-51.1952z" fill="#fff" fill-rule="evenodd" stroke="#000" stroke-width="1.160174"/><path d="m154.125 175.75c.05742-15.31963-.76297-45.74127 16.5-50.125 13.14434 2.55366 25.11654 28.27285 24.375 50.5-.74724 8.69112-3.37079 42.47302-21.75 45.375-15.4475-.65691-18.72225-31.7819-19.125-45.75z" fill="#fff" fill-rule="evenodd" stroke="#000"/><text font-family="Bitstream Vera Sans" font-size="12" x="329.02335" xml:space="preserve" y="121.68089"><tspan x="329.02335" y="121.68089">Visual</tspan><tspan x="329.02335" y="136.68089"> Axis</tspan></text><path d="m344.0625 140.09375.4375 18.5625.59375-.03125-.40625-18.53125z" fill-rule="evenodd"/><path d="m344.65885 152.64662-2.45382-2.34494 2.58992 8.3434 2.20884-8.45228-2.34494 2.45382z" fill-rule="evenodd" stroke="#000" stroke-width=".48pt"/><text font-family="Bitstream Vera Sans" font-size="12" x="278.0885" xml:space="preserve" y="207.53549"><tspan x="278.0885" y="207.53549">Optical</tspan><tspan x="278.0885" y="222.53549">  Axis</tspan></text><path d="m297.8125 176.09375-.15625 21.1875.59375.03125.15625-21.1875z" fill-rule="evenodd"/><path d="m298.06353 182.11073 2.38164 2.41822-2.33591-8.41805-2.46395 8.38147 2.41822-2.38164z" fill-rule="evenodd" stroke="#000" stroke-width=".48pt"/><path d="m219.85674 188.26966-44.93122-11.37965" fill="none" marker-end="url(#a)" stroke="#000" stroke-miterlimit="0" stroke-width=".6"/><path d="m172.58952 107.51814 26.52746-67.177892" fill="none" stroke="#000"/><path d="m151.19083 142.59608c-.10625-.00236-.22877-.03839-.34375-.0625-4.91289-1.03003-2.47226-28.64501 3.66123-48.6099 11.31791-22.245942 31.15034-44.613317 43.57947-53.36787 12.42914-8.754553 47.40941-18.702336 81.76266-12.997057 35.04119 5.819531 55.66514 19.321135 78.20937 41.102047 22.54423 21.780911 32.79105 46.24457 39.75598 67.75111s5.36446 42.53123 4.27277 53.89059-1.79533 13.42448-2.86088 17.22948c-4.44975.64644.25871-7.34121-3.57783-5.95279 8.64019-108.169402-71.51906-186.487023-192.89817-159.513663-16.6505 3.98222-30.98264 51.559653-29.12491 55.932281 1.8592 4.376072.98559 11.632532-4.3125 11.906252-7.51055-2.69324-6.8842-11.784322-11.5625 3.21875-4.54702 14.58204-3.26709 29.54637-6.56094 29.47327z" fill="#ffb2b2" fill-rule="evenodd" stroke="#000"/><text font-family="Bitstream Vera Sans" font-size="12" x="32.267067" xml:space="preserve" y="66.171997"><tspan x="32.267067" y="66.171997">Posterior Chamber</tspan><tspan x="32.267067" y="81.171997"> (Aqueous Humor)</tspan></text><path d="m116.84375 87.5-.40625.4375 39.5625 38.3125.40625-.4375z" fill-rule="evenodd"/><path d="m151.88466 121.85865-3.39369.05394 7.70321 4.12075-4.36346-7.56837.05394 3.39368z" fill-rule="evenodd" stroke="#000" stroke-width=".48pt"/><text font-family="Bitstream Vera Sans" font-size="12" x="405.13339" y="287.79892"><tspan x="405.13339" y="287.79892">Sclera</tspan></text><path d="m376.28125 267.9375-.25.5625 25.875 11.15625.21875-.5625z" fill-rule="evenodd"/><path d="m381.66563 270.59962 3.15439-1.25293-8.66354-1.1239 6.76207 5.53122-1.25292-3.15439z" fill-rule="evenodd" stroke="#000" stroke-width=".48pt"/><text font-family="Bitstream Vera Sans" font-size="12" x="192.33304" xml:space="preserve" y="70.471001"><tspan x="192.33304" y="70.471001"></tspan></text><text font-family="Bitstream Vera Sans" font-size="12" x="199.51617" xml:space="preserve" y="235.40527"><tspan x="199.51617" y="235.40527">  Lens </tspan><tspan x="199.51617" y="250.40527">Cortex</tspan></text><path d="m188.40625 212.25-.28125.28125 11.34375 11.75.28125-.25z" fill-rule="evenodd"/><path d="m190.97944 215.21818 2.21992.0373-4.94819-2.85882 2.69097 5.04144.0373-2.21992z" fill-rule="evenodd" stroke="#000" stroke-width=".313988pt"/><path d="m149.77508 240.27529c5.0073 3.79865 3.52731 2.34332 7.59728 4.24264 4.8593 1.10999 8.13201-6.15449 12.82659-3.74931 4.6119 2.36282-2.91263 25.22521 18.35189 55.84499-4.51928-2.95271-21.18854-27.89783-24.56785-32.36247-3.45249-4.56133-15.66323-23.43319-14.20791-23.97585z" fill="#ffb27f" fill-rule="evenodd" stroke="#000"/><path d="m147.73674 102.78097c3.61195-2.54284 6.17847-3.599136 9.41123-4.52171 4.8593-1.10999 8.33925 7.58369 13.03383 5.17851 4.6119-2.36281-9.23546-10.245394 22.31668-58.563864-11.22857 9.464675-25.5001 27.652618-31.11197 34.907956-5.67964 7.342952-10.91904 16.875053-13.64977 22.999108z" fill="#ffb27f" fill-rule="evenodd" stroke="#000"/><path d="m398.52616 156.52493c-1.61807-23.52253-25.43225-74.778197-60.33326-100.280311-35.05547-25.61498-84.52845-39.005649-138.1929-13.994618 3.42718 2.412128 11.30513 3.286363 15.00888 3.051777 47.81738-17.67448 89.79009-3.722814 121.3746 20.553191 31.60962 24.295304 47.31905 58.808931 53.5229 84.118101.20017 1.63024 3.93243 2.88594 4.21163 6.09465.2926 3.36275-3.11727 5.02336-2.99301 7.05728.42591 6.9714-.51581 40.14339 5.6875 46.9375 6.23437 6.82812 22.45311 5.1875 49.1875 5.1875-43.57812-6.46875-39.11823-5.7742-44.5625-10.1875-5.74162-10.58152-1.26907-24.66314-2.91134-48.53757z" fill="#ffd0b2" fill-rule="evenodd" stroke="#000" stroke-width=".9"/><text font-family="Bitstream Vera Sans" font-size="12" x="361.32068" y="325.04468"><tspan x="361.32068" y="325.04468">Choroid</tspan></text><path d="m348.1875 288.0625-.40625.46875 30.34375 26.625.375-.46875z" fill-rule="evenodd"/><path d="m352.49116 292.2595 3.38692-.22096-7.89675-3.73649 4.73079 7.34436-.22096-3.38691z" fill-rule="evenodd" stroke="#000" stroke-width=".48pt"/><path d="m171.25 104.5625v.59375l32.8125.125.03125-.59375z" fill-rule="evenodd"/><path d="m177.24323 104.89206 2.40867-2.3913-8.40863 2.36959 8.39126 2.43038-2.3913-2.40867z" fill-rule="evenodd" stroke="#000" stroke-width=".48pt"/><text font-family="Bitstream Vera Sans" font-size="12" x="119.86633" xml:space="preserve" y="28.188698"><tspan x="119.86633" y="28.188698">Ciliary </tspan><tspan x="119.86633" y="43.188698">Muscle</tspan></text><path d="m139.40625 48.84375-.53125.28125 23.96875 43.25.53125-.28125z" fill-rule="evenodd"/><path d="m160.21229 86.989139-3.26253-.935904 6.17081 6.183943-1.97237-8.510567-.93591 3.262528z" fill-rule="evenodd" stroke="#000" stroke-width=".48pt"/><path d="m416.1875 132.1875-21.375 23.4375.4375.40625 21.375-23.46875z" fill-rule="evenodd"/><path d="m399.06437 151.397-.15734-3.39046-3.88406 7.82522 7.43187-4.5921-3.39047.15734z" fill-rule="evenodd" stroke="#000" stroke-width=".48pt"/><text font-family="Bitstream Vera Sans" font-size="12" x="218.50327" xml:space="preserve" y="275.54416"><tspan x="218.50327" y="275.54416">Posterior </tspan><tspan x="218.50327" y="290.54416">Zonules</tspan></text><path d="m215.75 277.46875-23.9375 3.40625.0625.59375 23.96875-3.40625z" fill-rule="evenodd"/><path d="m197.78211 280.32323 2.03967-2.71288-7.98036 3.5544 8.65358 1.19815-2.71289-2.03967z" fill-rule="evenodd" stroke="#000" stroke-width=".48pt"/><text font-family="Bitstream Vera Sans" font-size="12" x="52.736927" y="155.28294"><tspan x="52.736927" y="155.28294">Pupil</tspan></text><path d="m89.40625 150.8125-.15625.59375 53.09375 13.71875.15625-.59375z" fill-rule="evenodd"/><path d="m136.6101 163.32041-2.92364 1.72405 8.73325-.22456-7.53366-4.42312 1.72405 2.92363z" fill-rule="evenodd" stroke="#000" stroke-width=".48pt"/><text font-family="Bitstream Vera Sans" font-size="12" x="-1.403251" xml:space="preserve" y="257.10333"><tspan x="-1.403251" y="257.10333"></tspan></text><path d="m1.557421 261.12015h125.49236v73.572075h-125.49236z" fill="#fff"/><text font-family="Arial" font-size="16.723061" font-weight="bold" transform="scale(.9876702 1.0124837)" x="28.772802" xml:space="preserve" y="292.48285"><tspan x="28.772802" y="292.48285"> Human Eye</tspan><tspan x="28.772802" y="313.38666">Section View</tspan></text></svg>