<svg id="Layer_1" data-name="Layer 1" xmlns="http://www.w3.org/2000/svg" viewBox="0 0 801.65 494.5"><defs><style>.cls-1{fill:#e52620;}.cls-2{font-size:18.95px;fill:#fff;font-family:OpenSans-Bold, Open Sans;font-weight:700;}.cls-3{fill:#f07e1b;}.cls-4{fill:#f3e600;}.cls-5{fill:#8ebf22;}.cls-6{fill:#67b32e;}.cls-7{fill:#6fb966;}.cls-8{fill:#6dc6d9;}.cls-9{fill:#3b72b8;}.cls-10{fill:#2b4b9b;}.cls-11{fill:#564696;}.cls-12{fill:#a6539b;}.cls-13{fill:#e72580;}</style></defs><g id="KzPyu6"><path d="M464.07,219.37l8.75-7.36c-3.11-6.82-5.68-13.85-9.35-20.26-9.46-16.48-13.57-34.56-17.23-52.9a132.86,132.86,0,0,0-6.08-20.29c-2.14-5.75-7.46-6.69-12.11-2.42a22.84,22.84,0,0,0-7.73,16.26c-.67,15.64,1.15,30.93,7.58,45.36,8,17.92,11,37.1,14.65,56.14.73,3.85,1.33,7.73,2.29,11.52,3.22,12.74,3.5,25.8,4.7,38.8,1.87,20.23,4.84,40.35,7.14,60.54,2.63,23.14,9.34,45.15,17,67.05,5.74,16.53,10,33.56,15,50.36.47,1.6.88,3.22,1.38,5,20.57,3.49,41.28-2.43,61.74.55l0,1.61c-10.06.62-20.11,1.49-30.19,1.8s-20.09.07-31.08.07l1.6,6.41,27.15-3,.19,1.41c-4.47.61-9,1.11-13.42,1.85-3.6.6-7.13,1.59-10.72,2.19a5.63,5.63,0,0,1-3.55-.59,31.35,31.35,0,0,1-4-3.34c-4.21-19.33-8.46-38.39-15.56-56.75-12.79-33.1-19.32-67.56-22.86-102.83-3.72-37.05-6.56-74.32-16.58-110.43a271.86,271.86,0,0,0-9.33-27.49A97.41,97.41,0,0,1,416.81,131c.85-7.45,3.77-14,10.3-18.44,7.25-4.88,13.57-3.4,16.64,4.73A180,180,0,0,1,451,141.87c3.88,17.53,8.58,34.64,17.16,50.63,7.31,13.61,13.66,27.73,20.53,41.58.95,1.93,2.44,3.58,4.16,6.06,2.59-4.76,2.37-9,1.79-13.07-1.41-9.78-2.9-19.56-4.92-29.22-5.05-24.07-6-48.47-6.4-72.93-.29-15.86-1-31.71-1.13-47.56,0-8.91,3.07-17.07,10-22.86,8.07-6.72,16.75-7.82,23.11-1.07,3.25,3.44,5.25,8.51,6.59,13.2,4.1,14.29,3.41,29.17,4.67,43.83,1.47,17.24,4.07,34.4,6.52,51.55,2.1,14.77,4.66,29.47,7.06,44.19.4,2.45,1.06,4.86,1.59,7.29h1.6c.78-4.07,2.26-8.15,2.2-12.21-.19-12.49-1.17-25-1.47-37.45-.34-13.79-1.12-27.66-.19-41.39,1.5-22,1.37-44,.8-66-.22-8.73.4-17.5,1-26.24.9-13.38,11.82-18.92,24.83-14,9.9,3.74,15.17,11.15,16.52,21.41,1.16,8.87,2.26,17.77,3,26.69,1.54,19.9,3.39,39.8,4,59.73.52,17-.58,34-.86,50.94-.11,7.1,0,14.19.09,21.28a61.34,61.34,0,0,0,.69,8.36c.51,3.29.83,7,4.93,7.92,2.4.56,6.49-3.56,7.27-7.51,1.31-6.58,2.39-13.22,3.42-19.85q6.48-42,12.88-84c1.81-12,3.25-24,5.3-36a105,105,0,0,1,4.71-17.77c2.09-5.79,7.88-8.74,13.88-8.06,11.61,1.31,19.71,8,22.91,19.24a97,97,0,0,1,3.66,36c-1.74,18.19-2.95,36.45-5.1,54.6-1.87,15.73-4.93,31.31-7.13,47-3,21.24-6.47,42.45-6.09,64,.26,15.09,5.49,28.45,14.45,40.37,2.17,2.89,5.28,5.07,8.11,7.71,8.16-7.76,13.76-16.55,18.94-25.61,3.52-6.15,6.54-12.58,10-18.76,8.82-15.71,19.37-30.19,32.55-42.48a82.68,82.68,0,0,1,17.3-12.18,29.93,29.93,0,0,1,23.8-2.3c10.89,3.38,16,21.57,7.91,29.32-.4.38-.69.88-1.1,1.26-17.37,16.11-26.14,37.24-34.95,58.53-9.25,22.32-15,45.68-21.84,68.7a73.56,73.56,0,0,1-19.25,32.22q-24.3,24-47.87,48.71c-9.77,10.22-20,20.25-24.57,33.15-6.94,3.73-13,1.14-19.15.15-10.58-1.71-21.1-2.59-31.63.23a5.06,5.06,0,0,1-1.62-.14l-.2-1.13c3.34-.67,6.67-1.83,10-1.93,10.63-.3,21.27-.23,31.62,2.91,3.43,1,6.6.89,8.52-3,8.1-16.55,21-29.37,33.54-42.41,14.75-15.33,30-30.23,44.46-45.78a44.61,44.61,0,0,0,9.28-15.68c6.42-18.88,11.71-38.14,18.07-57,6.42-19.06,12.83-38.16,23.72-55.39A149.5,149.5,0,0,1,783.54,236c5.53-5.78,6.13-13.37,2.06-20-2.5-4.08-6.05-7-10.81-7-5.14.05-10.69.17-15.32,2.07a62.37,62.37,0,0,0-22.18,15.77,227.5,227.5,0,0,0-35,51c-4.64,9.08-10.77,17.4-16.16,26.11a30.6,30.6,0,0,1-12.82,11.3c-3.83,1.92-7.59,4-11.47,5.79-1.23.57-2.75.49-4.14.71l-.48-1.58,17.51-9.41c-8.79-6.46-14.2-15-19-25-5.58.92-11.45,1.63-17.2,2.88-59.49,12.9-113.8,37.53-163.46,72.59a34.62,34.62,0,0,1-3.29,2.11,2,2,0,0,1-1.76-.25C496.65,342,526,325.61,557.1,312s63.45-23.75,97-29c-1-7.63-2.3-14.93-3-22.28-1.32-14.05.74-27.94,2.75-41.78,3.73-25.65,8.09-51.21,11.48-76.9,2.58-19.6,4.68-39.31,4-59.16-.34-9.92-1.21-19.76-6-28.77-3.5-6.63-9.21-10.09-16.43-11.22-6.34-1-10.29,1.16-11.89,7.41-2.07,8.09-3.63,16.34-5,24.59-4.09,24.65-8.12,49.31-11.88,74-2.38,15.67-4.14,31.43-6.35,47.13a58.07,58.07,0,0,1-2.85,12.49c-2.7,7.11-10.27,9.62-15.29,5.38-3-2.56-4.13-6.11-4.11-10q.08-18.76.17-37.51c0-2,0-4,0-6.74l-10.88,1-.13-.81,11.63-2.52c0-3.62-.13-7.49,0-11.35a358.45,358.45,0,0,0-2.71-62.55c-1.81-13.49-2.48-27.12-3.82-40.67-.37-3.69-1.42-7.31-2-11C580,21.2,565.14,15.32,554.56,20.63c-2.06,1-3.95,4.24-4.24,6.64-1.11,9-2.57,18.23-2,27.25,1.56,24.67.58,49.23-1.09,73.84-.92,13.58-.14,27.12,1,40.73,1.07,12.58,0,25.34-.23,38a45.36,45.36,0,0,1-.88,6.09c-.34,2.19-1.16,4.06-3.75,4.1s-4.77-1.15-5.36-3.92c-.74-3.46-1.21-7-1.8-10.47q-4.9-29.22-9.8-58.45c-2.6-15.31-4.26-30.7-3.85-46.22.29-10.76-1.44-21.19-3.78-31.57A25.83,25.83,0,0,0,515.54,59c-4.19-6.86-12.46-8.14-18.8-3.07-8,6.4-11.64,14.85-11.31,25,.25,7.64.72,15.28,1.1,22.93q1.55,31,3.12,62.06c.94,18.31,4.49,36.2,8.27,54.1,1.27,6,.73,12.65,0,18.88-.64,5.66-4.17,6.73-8.51,2.9a26.94,26.94,0,0,1-5.3-7.11c-3.72-6.63-7.17-13.41-10.72-20.1L464,219.26Z"/><path d="M626.41,445c-4.53-2.7-9.29-5.09-13.56-8.16-17.37-12.53-29.17-29.11-32-50.48-2.61-19.92,3-38.48,14.37-55.06,14.48-21.06,34.51-34.09,59.27-40a9.86,9.86,0,0,1,2.19.32c-3.2,1.12-5.48,1.91-7.75,2.72-24.56,8.79-43.57,24.19-55.34,47.65-19.85,39.55-5.94,77,28.53,98.83,1.63,1,3.31,2,5,3Z"/><path d="M619.25,225.24c-1,1.8-1.71,4-3.18,5.33-35.56,31.75-73.77,59.46-119,76.07-9,3.32-18.64,5.15-28,7.6-1,.26-2.18,0-4.2,0,1.52-.82,2.22-1.45,3-1.6,25.08-4.77,47.85-15.35,69.69-28.06A432.33,432.33,0,0,0,615,226.82c.94-.87,1.92-1.71,2.89-2.56Z"/><path d="M464,219.26l-.17,1.9,7.95-2,.23.89-27.35,9.3,1.43-2.36-2.85-2.28c.44-.27.73-.58.88-.52,5.79,2.41,10.34-.82,15.12-3.21a34.3,34.3,0,0,1,4.87-1.61Z"/><path d="M497.36,169.75H505l.29.93-5.27.76-5.53.87c.16-3.51,2.32-4.59,5.19-5.2a60.61,60.61,0,0,1,24.84,0C515.87,168.18,507,166,497.36,169.75Z"/><path d="M627,109.16c11.45-4.42,31-1.31,34.6,6.53-5.22-5.72-11.12-6.13-16.91-6.46S633.3,109.16,627,109.16Z"/><path d="M554.89,84.57l30.32,2.06.56,2.4-30.92-3.7Z"/><path d="M552.78,94.29c10.4-2.66,21.16-1.05,31.92,0Z"/><path d="M549.92,152.56c12.39-5.17,24.94-5.14,37.58-.58-6.17-.72-12.36-2.09-18.51-2C562.62,150.1,556.27,151.64,549.92,152.56Z"/><path d="M490.25,110.72l29.82-2C509.79,112.49,500,110.85,490.25,110.72Z"/><path d="M551.25,475l-26.32,2.11c8.49-3.41,17.34-3.42,26.19-3.32Z"/><path d="M660.52,104.86a38.71,38.71,0,0,0-30.47-2.06C638.05,97.13,653,98.13,660.52,104.86Z"/><path d="M644.93,225.81l-24.68-7.62.36-1.17C629,219.08,637.53,220.6,644.93,225.81Z"/><path d="M496.94,177.73l27.62-6.07C519.16,175.61,504,178.8,496.94,177.73Z"/><path d="M527.17,221.34l-21.62,11.38C509.44,227.48,517.69,223,527.17,221.34Z"/><path d="M491.2,107.66l27.56-2.75C513.74,107.72,500.68,109.17,491.2,107.66Z"/><path d="M556.74,478.45c8-4.21,16-2.88,23.78-3.24l.16,1.3Z"/><path d="M620.27,161.6c7.45-3.47,15.28-2.9,23.17-1.69Z"/><path d="M575.69,163.35H549.21c9.24-4.53,18.2.65,26.92-1.56Z"/><path d="M519.16,171.67,493.23,176l-.23-1.29,25.66-4.19Z"/><path d="M622,149.06c7.27-2.9,10.71-3,18.31,0Z"/><path d="M635.76,150.93l16.91,3.73-.29,1.53-16.88-3.58Z"/><path d="M628.17,164.06c5.78-2.48,11.59-2.17,17.43,0Z"/></g><rect class="cls-1" x="631.36" y="50.08" width="42.63" height="40.35" rx="20.18"/><text class="cls-2" transform="translate(641.6 76.94)">P1</text><rect class="cls-3" x="623.54" y="108.38" width="42.63" height="40.35" rx="20.18"/><text class="cls-2" transform="translate(629.54 134.32)">m2</text><rect class="cls-4" x="614.18" y="173.57" width="42.63" height="40.35" rx="20.18"/><text class="cls-2" transform="translate(620.6 200.64)">M2</text><rect class="cls-5" x="547.58" y="170.93" width="42.63" height="40.35" rx="20.18"/><text class="cls-2" transform="translate(554.35 196.87)">m3</text><rect class="cls-6" x="493.57" y="180.83" width="42.63" height="40.35" rx="20.18"/><text class="cls-2" transform="translate(500.18 207.91)">M3</text><rect class="cls-7" x="444.99" y="222.82" width="42.63" height="40.35" rx="20.18"/><text class="cls-2" transform="translate(454.98 249.62)">P4</text><rect class="cls-8" x="427.35" y="169.14" width="42.63" height="40.35" rx="20.18"/><text class="cls-2" transform="translate(437.82 196.4)">TT</text><rect class="cls-9" x="409.88" y="118.05" width="42.63" height="40.35" rx="20.18"/><text class="cls-2" transform="translate(419.19 144.84)">P5</text><rect class="cls-10" x="482.17" y="57.33" width="42.63" height="40.35" rx="20.18"/><text class="cls-2" transform="translate(488.59 83.27)">m6</text><rect class="cls-11" x="544.44" y="24.83" width="42.63" height="40.35" rx="20.18"/><text class="cls-2" transform="translate(551.41 50.67)">M6</text><rect class="cls-12" x="547.58" y="101.35" width="42.63" height="40.35" rx="20.18"/><text class="cls-2" transform="translate(553.34 128.14)">m7</text><rect class="cls-13" x="485.65" y="118.22" width="42.63" height="40.35" rx="20.18"/><text class="cls-2" transform="translate(492.71 145.95)">M7</text><g id="KzPyu6-2" data-name="KzPyu6"><path d="M335.89,219.37,327.14,212c3.11-6.82,5.68-13.85,9.35-20.26,9.46-16.48,13.57-34.56,17.24-52.9a132.83,132.83,0,0,1,6.07-20.29c2.14-5.75,7.47-6.69,12.12-2.42a22.87,22.87,0,0,1,7.72,16.26c.67,15.64-1.15,30.93-7.58,45.36-8,17.92-11,37.1-14.65,56.14-.73,3.85-1.32,7.73-2.28,11.52-3.23,12.74-3.51,25.8-4.71,38.8-1.87,20.23-4.84,40.35-7.13,60.54-2.64,23.14-9.35,45.15-17,67.05-5.74,16.53-10,33.56-15,50.36-.47,1.6-.88,3.22-1.38,5-20.57,3.49-41.28-2.43-61.74.55l0,1.61c10.06.62,20.12,1.49,30.19,1.8s20.09.07,31.08.07l-1.59,6.41-27.16-3-.19,1.41c4.48.61,9,1.11,13.42,1.85,3.6.6,7.13,1.59,10.72,2.19a5.63,5.63,0,0,0,3.55-.59,30.68,30.68,0,0,0,4-3.34c4.21-19.33,8.47-38.39,15.56-56.75,12.79-33.1,19.32-67.56,22.86-102.83,3.72-37.05,6.56-74.32,16.58-110.43a269.45,269.45,0,0,1,9.34-27.49A97.52,97.52,0,0,0,383.15,131c-.85-7.45-3.77-14-10.3-18.44-7.25-4.88-13.57-3.4-16.63,4.73a178.69,178.69,0,0,0-7.3,24.61c-3.88,17.53-8.57,34.64-17.16,50.63-7.3,13.61-13.66,27.73-20.53,41.58-1,1.93-2.43,3.58-4.16,6.06-2.59-4.76-2.37-9-1.79-13.07,1.41-9.78,2.9-19.56,4.92-29.22,5.05-24.07,6-48.47,6.4-72.93.29-15.86,1-31.71,1.13-47.56,0-8.91-3.07-17.07-10-22.86-8.07-6.72-16.74-7.82-23.11-1.07-3.25,3.44-5.24,8.51-6.59,13.2-4.1,14.29-3.41,29.17-4.67,43.83-1.47,17.24-4.07,34.4-6.51,51.55-2.11,14.77-4.66,29.47-7.07,44.19-.4,2.45-1.05,4.86-1.59,7.29h-1.6c-.77-4.07-2.26-8.15-2.2-12.21.19-12.49,1.17-25,1.47-37.45.34-13.79,1.12-27.66.19-41.39-1.5-22-1.37-44-.8-66,.22-8.73-.4-17.5-1-26.24-.9-13.38-11.81-18.92-24.83-14-9.89,3.74-15.17,11.15-16.52,21.41-1.16,8.87-2.26,17.77-3,26.69-1.54,19.9-3.39,39.8-4,59.73-.52,17,.58,34,.86,50.94.12,7.1,0,14.19-.09,21.28a59.79,59.79,0,0,1-.69,8.36c-.51,3.29-.83,7-4.93,7.92-2.4.56-6.48-3.56-7.27-7.51-1.31-6.58-2.39-13.22-3.41-19.85q-6.49-42-12.88-84c-1.82-12-3.26-24-5.31-36a105,105,0,0,0-4.71-17.77c-2.09-5.79-7.88-8.74-13.88-8.06-11.61,1.31-19.71,8-22.91,19.24a97,97,0,0,0-3.66,36c1.74,18.19,3,36.45,5.1,54.6,1.87,15.73,4.93,31.31,7.13,47,3,21.24,6.47,42.45,6.09,64-.26,15.09-5.49,28.45-14.44,40.37-2.17,2.89-5.29,5.07-8.12,7.71-8.15-7.76-13.76-16.55-18.94-25.61-3.52-6.15-6.54-12.58-10-18.76-8.81-15.71-19.36-30.19-32.54-42.48A82.74,82.74,0,0,0,44,209.15a29.91,29.91,0,0,0-23.79-2.3c-10.9,3.38-16,21.57-7.92,29.32.4.38.7.88,1.1,1.26,17.37,16.11,26.14,37.24,35,58.53,9.24,22.32,15,45.68,21.83,68.7a73.56,73.56,0,0,0,19.25,32.22q24.3,24,47.87,48.71c9.77,10.22,20,20.25,24.57,33.15,6.94,3.73,13.05,1.14,19.15.15,10.58-1.71,21.1-2.59,31.63.23a5.06,5.06,0,0,0,1.62-.14l.2-1.13c-3.34-.67-6.67-1.83-10-1.93-10.63-.3-21.26-.23-31.62,2.91-3.43,1-6.6.89-8.52-3-8.1-16.55-21-29.37-33.54-42.41-14.75-15.33-30-30.23-44.46-45.78a44.61,44.61,0,0,1-9.28-15.68C70.65,353,65.35,333.78,59,314.88c-6.42-19.06-12.83-38.16-23.71-55.39A149.56,149.56,0,0,0,16.42,236c-5.53-5.78-6.13-13.37-2.06-20,2.5-4.08,6.05-7,10.81-7,5.14.05,10.69.17,15.32,2.07a62.37,62.37,0,0,1,22.18,15.77,227.17,227.17,0,0,1,35,51c4.64,9.08,10.77,17.4,16.16,26.11a30.66,30.66,0,0,0,12.82,11.3c3.83,1.92,7.59,4,11.47,5.79,1.23.57,2.75.49,4.14.71l.48-1.58-17.51-9.41c8.79-6.46,14.2-15,19-25,5.58.92,11.45,1.63,17.2,2.88,59.49,12.9,113.8,37.53,163.46,72.59a34.62,34.62,0,0,0,3.29,2.11,2,2,0,0,0,1.77-.25c-26.65-21.11-56-37.52-87.1-51.1s-63.45-23.75-97-29c1-7.63,2.31-14.93,3-22.28,1.32-14.05-.73-27.94-2.75-41.78-3.73-25.65-8.09-51.21-11.48-76.9-2.58-19.6-4.68-39.31-4-59.16.35-9.92,1.22-19.76,6-28.77,3.5-6.63,9.22-10.09,16.44-11.22,6.33-1,10.28,1.16,11.88,7.41,2.07,8.09,3.63,16.34,5,24.59,4.09,24.65,8.13,49.31,11.88,74,2.38,15.67,4.14,31.43,6.35,47.13A58.07,58.07,0,0,0,191,208.55c2.7,7.11,10.28,9.62,15.29,5.38,3-2.56,4.13-6.11,4.12-10l-.18-37.51v-6.74l10.88,1,.14-.81-11.64-2.52c0-3.62.14-7.49,0-11.35a357.47,357.47,0,0,1,2.71-62.55c1.8-13.49,2.47-27.12,3.81-40.67.37-3.69,1.42-7.31,2.05-11C220,21.2,234.82,15.32,245.4,20.63c2.06,1,3.95,4.24,4.24,6.64,1.11,9,2.57,18.23,2,27.25-1.55,24.67-.58,49.23,1.09,73.84.92,13.58.14,27.12-1,40.73-1.07,12.58,0,25.34.23,38a45.36,45.36,0,0,0,.88,6.09c.34,2.19,1.16,4.06,3.75,4.1s4.77-1.15,5.36-3.92c.74-3.46,1.22-7,1.8-10.47q4.9-29.22,9.8-58.45c2.6-15.31,4.27-30.7,3.85-46.22-.29-10.76,1.44-21.19,3.78-31.57A26.1,26.1,0,0,1,284.42,59c4.19-6.86,12.46-8.14,18.8-3.07,8,6.4,11.64,14.85,11.31,25-.25,7.64-.72,15.28-1.1,22.93q-1.55,31-3.12,62.06c-.94,18.31-4.49,36.2-8.27,54.1-1.27,6-.73,12.65,0,18.88.64,5.66,4.18,6.73,8.51,2.9a26.94,26.94,0,0,0,5.3-7.11c3.72-6.63,7.17-13.41,10.72-20.1l9.45,4.68Z"/><path d="M173.55,445c4.53-2.7,9.29-5.09,13.56-8.16,17.37-12.53,29.17-29.11,32-50.48,2.62-19.92-3-38.48-14.36-55.06-14.49-21.06-34.51-34.09-59.27-40a9.84,9.84,0,0,0-2.2.32c3.2,1.12,5.48,1.91,7.75,2.72,24.56,8.79,43.57,24.19,55.34,47.65,19.85,39.55,5.94,77-28.53,98.83-1.63,1-3.31,2-5,3Z"/><path d="M180.71,225.24c1,1.8,1.71,4,3.18,5.33,35.57,31.75,73.78,59.46,119,76.07,9.05,3.32,18.64,5.15,28,7.6,1,.26,2.18,0,4.2,0-1.52-.82-2.22-1.45-3-1.6-25.08-4.77-47.84-15.35-69.69-28.06a432.33,432.33,0,0,1-77.43-57.79c-.94-.87-1.92-1.71-2.89-2.56Z"/><path d="M336,219.26l.17,1.9-7.95-2-.22.89,27.34,9.3L353.91,227l2.85-2.28c-.43-.27-.73-.58-.87-.52-5.8,2.41-10.35-.82-15.12-3.21a34.85,34.85,0,0,0-4.88-1.61Z"/><path d="M302.6,169.75H295l-.29.93,5.28.76,5.52.87c-.15-3.51-2.31-4.59-5.19-5.2a60.61,60.61,0,0,0-24.84,0C284.09,168.18,293,166,302.6,169.75Z"/><path d="M173,109.16c-11.45-4.42-31-1.31-34.6,6.53,5.22-5.72,11.13-6.13,16.91-6.46S166.66,109.16,173,109.16Z"/><path d="M245.07,84.57l-30.31,2.06L214.2,89l30.91-3.7Z"/><path d="M247.18,94.29c-10.4-2.66-21.16-1.05-31.91,0Z"/><path d="M250.05,152.56c-12.4-5.17-25-5.14-37.59-.58,6.17-.72,12.36-2.09,18.52-2C237.35,150.1,243.69,151.64,250.05,152.56Z"/><path d="M309.71,110.72l-29.82-2C290.17,112.49,300,110.85,309.71,110.72Z"/><path d="M248.71,475,275,477.13c-8.49-3.41-17.33-3.42-26.19-3.32Z"/><path d="M139.45,104.86a38.68,38.68,0,0,1,30.46-2.06C161.91,97.13,147,98.13,139.45,104.86Z"/><path d="M155,225.81l24.68-7.62-.36-1.17C171,219.08,162.43,220.6,155,225.81Z"/><path d="M303,177.73l-27.63-6.07C280.8,175.61,296,178.8,303,177.73Z"/><path d="M272.79,221.34l21.62,11.38C290.52,227.48,282.27,223,272.79,221.34Z"/><path d="M308.76,107.66l-27.56-2.75C286.22,107.72,299.28,109.17,308.76,107.66Z"/><path d="M243.22,478.45c-7.95-4.21-16-2.88-23.78-3.24l-.16,1.3Z"/><path d="M179.69,161.6c-7.45-3.47-15.27-2.9-23.17-1.69Z"/><path d="M224.27,163.35h26.48c-9.24-4.53-18.2.65-26.92-1.56Z"/><path d="M280.8,171.67,306.73,176l.23-1.29L281.3,170.5Z"/><path d="M178,149.06c-7.27-2.9-10.71-3-18.31,0Z"/><path d="M164.2,150.93l-16.91,3.73.3,1.53,16.87-3.58Z"/><path d="M171.8,164.06c-5.79-2.48-11.6-2.17-17.44,0Z"/></g><rect class="cls-1" x="125.97" y="50.08" width="42.63" height="40.35" rx="20.18"/><text class="cls-2" transform="translate(140.47 76.94)">A</text><rect class="cls-3" x="133.79" y="108.38" width="42.63" height="40.35" rx="20.18"/><text class="cls-2" transform="translate(143.06 134.32)">A#</text><rect class="cls-4" x="143.15" y="173.57" width="42.63" height="40.35" rx="20.18"/><text class="cls-2" transform="translate(158.66 200.64)">B</text><rect class="cls-5" x="209.76" y="170.93" width="42.63" height="40.35" rx="20.18"/><text class="cls-2" transform="translate(224.87 196.87)">C</text><rect class="cls-6" x="263.76" y="180.83" width="42.63" height="40.35" rx="20.18"/><text class="cls-2" transform="translate(273.28 207.91)">C#</text><rect class="cls-7" x="312.34" y="222.82" width="42.63" height="40.35" rx="20.18"/><text class="cls-2" transform="translate(326.61 249.62)">D</text><rect class="cls-8" x="329.98" y="169.14" width="42.63" height="40.35" rx="20.18"/><text class="cls-2" transform="translate(338.04 196.4)">D#</text><rect class="cls-9" x="347.46" y="118.05" width="42.63" height="40.35" rx="20.18"/><text class="cls-2" transform="translate(364.11 144.84)">E</text><rect class="cls-10" x="275.16" y="57.33" width="42.63" height="40.35" rx="20.18"/><text class="cls-2" transform="translate(291.47 83.27)">F</text><rect class="cls-11" x="212.89" y="24.83" width="42.63" height="40.35" rx="20.18"/><text class="cls-2" transform="translate(222.89 50.67)">F#</text><rect class="cls-12" x="209.76" y="101.35" width="42.63" height="40.35" rx="20.18"/><text class="cls-2" transform="translate(225.05 128.14)">G</text><rect class="cls-13" x="271.68" y="118.22" width="42.63" height="40.35" rx="20.18"/><text class="cls-2" transform="translate(278.57 145.95)">G#</text></svg>