<svg id="Layer_1" data-name="Layer 1" xmlns="http://www.w3.org/2000/svg" viewBox="0 0 400.82 494.5"><defs><style>.cls-1{fill:#e52620;}.cls-2{font-size:18.95px;fill:#fff;font-family:OpenSans-Bold, Open Sans;font-weight:700;}.cls-3{fill:#f07e1b;}.cls-4{fill:#f3e600;}.cls-5{fill:#8ebf22;}.cls-6{fill:#67b32e;}.cls-7{fill:#6fb966;}.cls-8{fill:#6dc6d9;}.cls-9{fill:#3b72b8;}.cls-10{fill:#2b4b9b;}.cls-11{fill:#564696;}.cls-12{fill:#a6539b;}.cls-13{fill:#e72580;}</style></defs><g id="KzPyu6"><path d="M63.25,219.37,72,212c-3.1-6.82-5.67-13.85-9.34-20.26-9.46-16.48-13.57-34.56-17.24-52.9a134,134,0,0,0-6.07-20.29c-2.14-5.75-7.47-6.69-12.12-2.42a22.92,22.92,0,0,0-7.73,16.26c-.66,15.64,1.16,30.93,7.59,45.36,8,17.92,11,37.1,14.65,56.14.73,3.85,1.32,7.73,2.28,11.52,3.23,12.74,3.51,25.8,4.71,38.8,1.86,20.23,4.83,40.35,7.13,60.54,2.64,23.14,9.35,45.15,17,67.05,5.74,16.53,10,33.56,15,50.36.47,1.6.88,3.22,1.37,5,20.57,3.49,41.29-2.43,61.75.55l0,1.61c-10.06.62-20.12,1.49-30.19,1.8s-20.09.07-31.08.07l1.59,6.41,27.16-3,.19,1.41c-4.48.61-9,1.11-13.43,1.85-3.59.6-7.12,1.59-10.71,2.19a5.63,5.63,0,0,1-3.55-.59,30.68,30.68,0,0,1-4-3.34c-4.21-19.33-8.47-38.39-15.56-56.75C58.51,386.3,52,351.84,48.44,316.57c-3.72-37.05-6.56-74.32-16.58-110.43a271.92,271.92,0,0,0-9.34-27.49A97.52,97.52,0,0,1,16,131c.85-7.45,3.77-14,10.3-18.44,7.25-4.88,13.57-3.4,16.63,4.73a180.09,180.09,0,0,1,7.3,24.61c3.87,17.53,8.57,34.64,17.15,50.63C74.68,206.11,81,220.23,87.9,234.08c1,1.93,2.44,3.58,4.17,6.06,2.58-4.76,2.37-9,1.79-13.07-1.41-9.78-2.9-19.56-4.93-29.22-5-24.07-6-48.47-6.4-72.93-.28-15.86-1-31.71-1.12-47.56,0-8.91,3.07-17.07,10-22.86,8.06-6.72,16.74-7.82,23.11-1.07,3.25,3.44,5.24,8.51,6.59,13.2,4.09,14.29,3.41,29.17,4.66,43.83,1.48,17.24,4.08,34.4,6.52,51.55,2.11,14.77,4.66,29.47,7.07,44.19.4,2.45,1.05,4.86,1.59,7.29h1.59c.78-4.07,2.27-8.15,2.21-12.21-.19-12.49-1.17-25-1.47-37.45-.34-13.79-1.12-27.66-.19-41.39,1.5-22,1.36-44,.8-66-.22-8.73.4-17.5,1-26.24.89-13.38,11.81-18.92,24.83-14,9.89,3.74,15.17,11.15,16.51,21.41,1.17,8.87,2.27,17.77,3,26.69,1.54,19.9,3.39,39.8,4,59.73.52,17-.58,34-.86,50.94-.12,7.1,0,14.19.09,21.28a59.79,59.79,0,0,0,.69,8.36c.5,3.29.83,7,4.93,7.92,2.39.56,6.48-3.56,7.27-7.51,1.31-6.58,2.39-13.22,3.41-19.85q6.5-42,12.88-84c1.82-12,3.26-24,5.3-36a106,106,0,0,1,4.72-17.77c2.09-5.79,7.88-8.74,13.87-8.06,11.62,1.31,19.72,8,22.91,19.24a96.6,96.6,0,0,1,3.66,36c-1.74,18.19-2.94,36.45-5.09,54.6-1.87,15.73-4.93,31.31-7.13,47-3,21.24-6.47,42.45-6.1,64,.27,15.09,5.49,28.45,14.45,40.37,2.17,2.89,5.29,5.07,8.11,7.71,8.16-7.76,13.76-16.55,18.95-25.61,3.52-6.15,6.53-12.58,10-18.76,8.81-15.71,19.36-30.19,32.54-42.48a82.74,82.74,0,0,1,17.31-12.18,29.91,29.91,0,0,1,23.79-2.3c10.9,3.38,16,21.57,7.92,29.32-.4.38-.7.88-1.11,1.26-17.37,16.11-26.13,37.24-34.95,58.53-9.24,22.32-15,45.68-21.83,68.7a73.56,73.56,0,0,1-19.25,32.22q-24.3,24-47.87,48.71c-9.78,10.22-20,20.25-24.57,33.15-6.95,3.73-13.06,1.14-19.16.15-10.57-1.71-21.09-2.59-31.62.23a5.06,5.06,0,0,1-1.62-.14l-.2-1.13c3.34-.67,6.67-1.83,10-1.93,10.63-.3,21.26-.23,31.62,2.91,3.43,1,6.6.89,8.51-3,8.11-16.55,21-29.37,33.55-42.41,14.75-15.33,30-30.23,44.46-45.78a44.76,44.76,0,0,0,9.28-15.68c6.41-18.88,11.71-38.14,18.07-57,6.42-19.06,12.83-38.16,23.71-55.39A149.56,149.56,0,0,1,382.72,236c5.53-5.78,6.12-13.37,2.06-20-2.5-4.08-6-7-10.81-7-5.14.05-10.69.17-15.32,2.07a62.37,62.37,0,0,0-22.18,15.77,227.17,227.17,0,0,0-35,51c-4.64,9.08-10.77,17.4-16.16,26.11a30.66,30.66,0,0,1-12.82,11.3c-3.83,1.92-7.59,4-11.48,5.79-1.22.57-2.75.49-4.13.71l-.49-1.58,17.52-9.41c-8.8-6.46-14.2-15-19-25-5.59.92-11.45,1.63-17.2,2.88-59.5,12.9-113.8,37.53-163.47,72.59A33.25,33.25,0,0,1,71,363.38a2,2,0,0,1-1.77-.25c26.64-21.11,56-37.52,87.1-51.1s63.45-23.75,97-29c-1-7.63-2.31-14.93-3-22.28C248.94,246.7,251,232.81,253,219c3.73-25.65,8.09-51.21,11.47-76.9,2.59-19.6,4.69-39.31,4-59.16-.35-9.92-1.22-19.76-6-28.77-3.5-6.63-9.22-10.09-16.44-11.22-6.34-1-10.28,1.16-11.88,7.41-2.07,8.09-3.64,16.34-5,24.59-4.09,24.65-8.13,49.31-11.88,74-2.38,15.67-4.14,31.43-6.35,47.13a58.07,58.07,0,0,1-2.85,12.49c-2.7,7.11-10.28,9.62-15.29,5.38-3-2.56-4.13-6.11-4.12-10q.09-18.76.17-37.51c0-2,0-4,0-6.74l-10.88,1-.14-.81,11.64-2.52c0-3.62-.14-7.49,0-11.35a358.45,358.45,0,0,0-2.71-62.55C185,69.94,184.34,56.31,183,42.76c-.36-3.69-1.41-7.31-2-11-1.79-10.58-16.64-16.46-27.21-11.15-2.06,1-4,4.24-4.25,6.64-1.1,9-2.56,18.23-2,27.25,1.55,24.67.58,49.23-1.09,73.84-.92,13.58-.14,27.12,1,40.73,1.07,12.58,0,25.34-.22,38a45.36,45.36,0,0,1-.88,6.09c-.35,2.19-1.16,4.06-3.75,4.1s-4.78-1.15-5.37-3.92c-.74-3.46-1.21-7-1.79-10.47-3.27-19.48-6.5-39-9.81-58.45-2.59-15.31-4.26-30.7-3.84-46.22.29-10.76-1.44-21.19-3.78-31.57A26.1,26.1,0,0,0,114.72,59c-4.19-6.86-12.46-8.14-18.8-3.07-8,6.4-11.64,14.85-11.31,25,.25,7.64.71,15.28,1.1,22.93q1.55,31,3.12,62.06c.94,18.31,4.49,36.2,8.26,54.1,1.28,6,.74,12.65,0,18.88-.64,5.66-4.18,6.73-8.51,2.9a26.94,26.94,0,0,1-5.3-7.11c-3.72-6.63-7.17-13.41-10.72-20.1l-9.46,4.68Z"/><path d="M225.59,445c-4.54-2.7-9.3-5.09-13.56-8.16-17.37-12.53-29.17-29.11-32-50.48-2.62-19.92,3-38.48,14.36-55.06,14.49-21.06,34.51-34.09,59.27-40a9.79,9.79,0,0,1,2.19.32c-3.19,1.12-5.47,1.91-7.74,2.72-24.56,8.79-43.57,24.19-55.35,47.65-19.84,39.55-5.93,77,28.54,98.83,1.63,1,3.31,2,5,3Z"/><path d="M218.43,225.24c-1,1.8-1.71,4-3.18,5.33-35.57,31.75-73.78,59.46-119,76.07-9,3.32-18.64,5.15-28,7.6-1,.26-2.17,0-4.19,0,1.51-.82,2.22-1.45,3-1.6,25.08-4.77,47.84-15.35,69.69-28.06a432.26,432.26,0,0,0,77.42-57.79c.95-.87,1.93-1.71,2.9-2.56Z"/><path d="M63.13,219.26l-.17,1.9,8-2,.22.89-27.34,9.3L45.23,227l-2.85-2.28c.43-.27.73-.58.87-.52,5.79,2.41,10.34-.82,15.12-3.21a34.85,34.85,0,0,1,4.88-1.61Z"/><path d="M96.54,169.75h7.61l.3.93-5.28.76-5.52.87c.15-3.51,2.31-4.59,5.19-5.2a60.61,60.61,0,0,1,24.84,0C115.05,168.18,106.14,166,96.54,169.75Z"/><path d="M226.16,109.16c11.45-4.42,31-1.31,34.59,6.53-5.22-5.72-11.12-6.13-16.9-6.46S232.47,109.16,226.16,109.16Z"/><path d="M154.07,84.57l30.31,2.06.56,2.4L154,85.33Z"/><path d="M152,94.29c10.4-2.66,21.15-1.05,31.91,0Z"/><path d="M149.09,152.56c12.4-5.17,24.94-5.14,37.59-.58-6.17-.72-12.36-2.09-18.52-2C161.79,150.1,155.45,151.64,149.09,152.56Z"/><path d="M89.42,110.72l29.83-2C109,112.49,99.13,110.85,89.42,110.72Z"/><path d="M150.43,475l-26.32,2.11c8.49-3.41,17.33-3.42,26.19-3.32Z"/><path d="M259.69,104.86a38.71,38.71,0,0,0-30.47-2.06C237.23,97.13,252.15,98.13,259.69,104.86Z"/><path d="M244.11,225.81l-24.68-7.62.36-1.17C228.16,219.08,236.7,220.6,244.11,225.81Z"/><path d="M96.11,177.73l27.63-6.07C118.34,175.61,103.18,178.8,96.11,177.73Z"/><path d="M126.35,221.34l-21.62,11.38C108.61,227.48,116.86,223,126.35,221.34Z"/><path d="M90.38,107.66l27.55-2.75C112.92,107.72,99.86,109.17,90.38,107.66Z"/><path d="M155.92,478.45c8-4.21,16-2.88,23.77-3.24l.17,1.3Z"/><path d="M219.45,161.6c7.45-3.47,15.27-2.9,23.16-1.69Z"/><path d="M174.86,163.35H148.39c9.24-4.53,18.2.65,26.92-1.56Z"/><path d="M118.33,171.67,92.41,176l-.24-1.29,25.66-4.19Z"/><path d="M221.18,149.06c7.27-2.9,10.71-3,18.31,0Z"/><path d="M234.93,150.93l16.92,3.73-.3,1.53-16.88-3.58Z"/><path d="M227.34,164.06c5.78-2.48,11.6-2.17,17.44,0Z"/></g><rect class="cls-1" x="230.54" y="50.08" width="42.63" height="40.35" rx="20.18"/><text class="cls-2" transform="translate(240.78 76.94)">P1</text><rect class="cls-3" x="222.72" y="108.38" width="42.63" height="40.35" rx="20.18"/><text class="cls-2" transform="translate(228.72 134.32)">m2</text><rect class="cls-4" x="213.36" y="173.57" width="42.63" height="40.35" rx="20.18"/><text class="cls-2" transform="translate(219.77 200.64)">M2</text><rect class="cls-5" x="146.76" y="170.93" width="42.63" height="40.35" rx="20.18"/><text class="cls-2" transform="translate(153.53 196.87)">m3</text><rect class="cls-6" x="92.75" y="180.83" width="42.63" height="40.35" rx="20.18"/><text class="cls-2" transform="translate(99.36 207.91)">M3</text><rect class="cls-7" x="44.17" y="222.82" width="42.63" height="40.35" rx="20.18"/><text class="cls-2" transform="translate(54.16 249.62)">P4</text><rect class="cls-8" x="26.53" y="169.14" width="42.63" height="40.35" rx="20.18"/><text class="cls-2" transform="translate(37 196.4)">TT</text><rect class="cls-9" x="9.05" y="118.05" width="42.63" height="40.35" rx="20.18"/><text class="cls-2" transform="translate(18.37 144.84)">P5</text><rect class="cls-10" x="81.35" y="57.33" width="42.63" height="40.35" rx="20.18"/><text class="cls-2" transform="translate(87.76 83.27)">m6</text><rect class="cls-11" x="143.62" y="24.83" width="42.63" height="40.35" rx="20.18"/><text class="cls-2" transform="translate(150.59 50.67)">M6</text><rect class="cls-12" x="146.76" y="101.35" width="42.63" height="40.35" rx="20.18"/><text class="cls-2" transform="translate(152.52 128.14)">m7</text><rect class="cls-13" x="84.83" y="118.22" width="42.63" height="40.35" rx="20.18"/><text class="cls-2" transform="translate(91.89 145.95)">M7</text></svg>