<svg height="346.26367" viewBox="0 0 1418.1459 346.26367" width="1418.1459" xmlns="http://www.w3.org/2000/svg"><path d="m35.443233 133.7153h1322.695467" fill="none" stroke="#131516" stroke-width="1.53959"/><path d="m35.443233 158.9538h1322.695467" fill="none" stroke="#131516" stroke-width="1.53959"/><path d="m35.443233 146.3238h1322.695467" fill="none" stroke="#131516" stroke-width="1.53959"/><path d="m35.443233 121.0853h1322.695467" fill="none" stroke="#131516" stroke-width="1.53959"/><path d="m35.443233 108.4767h1322.695467" fill="none" stroke="#131516" stroke-width="1.53959"/><path d="m41.05414 148.3754c3.476563-2.2865 6.072983-4.0177 7.745253-5.2144 1.672272-1.1754 3.432557-2.6499 5.236848-4.4023 1.804293-1.7525 3.322538-3.7399 4.554737-5.941.968158-1.6242 1.804293-3.5048 2.486403-5.6418.682111-2.1157 1.034168-4.1673 1.100178-6.112 0-1.8165-.24204-3.5475-.74812-5.1717-.484079-1.6455-1.320214-2.9919-2.508406-4.0818-1.188193-1.0684-2.728442-1.6028-4.642752-1.6028-1.8483 0-3.586582.3633-5.214845 1.0686-1.60626.7266-2.750445 1.8805-3.388548 3.5048 0 .1496-.08801.3419-.220035.6197.04401.3419.220035.5982.550089.7907.330053.1924.616099.2778.880142.2778.132024 0 .506082-.064 1.078174-.1922.594097-.1289 1.078175-.2138 1.474239-.2138 1.166189 0 2.200357.406 3.14651 1.1967.924148.7907 1.386224 1.7524 1.386224 2.8851 0 .812-.242039 1.5814-.704114 2.2866s-1.100179 1.2822-1.914311 1.6882c-.814131.4275-1.716276.6199-2.684434.6199-1.760285 0-3.256527-.5129-4.488725-1.5601-1.210197-1.0685-1.826297-2.415-1.826297-4.1031 0-2.1585.682111-4.0177 2.024328-5.599 1.364221-1.5817 3.080498-2.7569 5.19284-3.5477 2.090339-.8121 4.20268-1.1968 6.359029-1.1968 2.354382 0 4.598745.5772 6.689083 1.7525 2.112343 1.154 3.762608 2.7567 4.99481 4.7442 1.232198 2.0088 1.8703 4.1459 1.8703 6.454 0 4.1031-1.408226 7.9071-4.224683 11.4332-2.816455 3.5262-6.293018 6.5821-10.451692 9.1892-2.772447 1.7739-7.261174 4.1673-13.444175 7.1806zm30.562946-33.0603c0-.7693.286048-1.4103.858138-1.9232.550091-.5344 1.232202-.7907 2.046335-.7907.704112 0 1.364219.2991 1.958315.8763.594096.5554.880144 1.2179.880144 1.9446 0 .7693-.30805 1.4317-.880144 1.966-.6161.513-1.298209.7693-2.068335.7693-.814133 0-1.47424-.2563-2.002325-.8335-.528085-.5555-.792128-1.2179-.792128-2.0088zm0 11.1983c0-.7694.286048-1.432.814132-1.9447.550091-.5343 1.232198-.7908 2.090341-.7908.704112 0 1.342215.2778 1.958315.8549.572094.577.880144 1.1968.880144 1.8806 0 .8335-.286048 1.4959-.836138 2.0303-.572091.5341-1.232198.8119-2.002321.8119-.858143 0-1.54025-.2778-2.090341-.7907-.528084-.5128-.814132-1.1966-.814132-2.0515z" fill="#131516" fill-rule="evenodd" stroke="#131516" stroke-width=".109971"/><path d="m697.07028 140.0872c-1.34373.2684-2.58896.9866-3.77755 2.1306-1.19004 1.165-1.82707 2.4938-1.93119 3.9641-.0656.924.18433 1.9959.73229 3.1512.54644 1.1763 1.4394 2.0592 2.63416 2.667.40473.1119.58436.3348.56355.6288-.007.1048-.1662.1999-.53956.2592-1.93259-.6152-3.4807-1.7534-4.62566-3.3707-1.1435-1.6384-1.66694-3.4462-1.56733-5.4652.21806-2.1591 1.03089-4.1302 2.43699-5.8926 1.4292-1.7821 3.18715-2.9933 5.27386-3.6339l-.96322-7.556c-3.51886 2.4646-6.41839 5.0763-8.72316 7.8756-2.30328 2.7785-3.60859 5.8771-3.93752 9.2947-.0654 1.536.15318 3.0491.65721 4.5178.50253 1.4899 1.31804 2.8531 2.44359 4.1314 2.27419 2.5374 5.36358 3.9901 9.22345 4.3762 1.32435 0 2.74558-.1317 4.28529-.4083zm1.57104-.1062 2.22764 16.3773c3.42069-1.0784 5.28574-3.8019 5.59221-8.1284-.0918-1.462-.43191-2.7934-1.08491-3.9978-.62994-1.2242-1.51547-2.2121-2.6782-2.9655s-2.50058-1.181-4.05674-1.2856zm-2.88356-22.14c.74301-.3722 1.61638-1.0519 2.57541-2.0216.95754-.9486 1.9069-2.0874 2.82342-3.3764.93964-1.3084 1.70782-2.6497 2.30462-4.0234.59527-1.3527.92675-2.6599 1.01302-3.8779.0372-.5252.0312-1.0531-.0442-1.5224-.0328-.7619-.22898-1.3659-.61135-1.7927-.38388-.4056-.88771-.6505-1.53613-.694-1.29681-.086-2.51896.6116-3.66648 2.0959-.89489 1.2904-1.67799 2.8416-2.28142 4.6158-.62652 1.7938-1.03545 3.5811-1.20811 5.4053-.0393 2.0865.1861 3.8109.63121 5.1914zm-1.44792 1.1266c-.7316-3.4676-1.02647-6.9695-.88458-10.5049.18229-2.2669.57027-4.3721 1.16399-6.3159.57212-1.9452 1.31939-3.6041 2.24485-5.019.90382-1.4165 1.91205-2.4671 3.00305-3.1535.97697-.6097 1.67226-.9216 2.0397-.897.28096.019.51128.1403.71404.3435.20273.2035.46139.5375.77745.9808 2.32054 3.7221 3.31388 8.0938 2.9598 13.0923-.16809 2.3732-.65594 4.6617-1.46799 6.9284-.78896 2.2471-1.87304 4.3688-3.24929 6.3232-1.39936 1.9739-2.99553 3.6604-4.81158 5.0788l1.16454 8.3925c.95843-.041 1.61278-.082 1.98019-.057 1.64262.1105 3.08851.5453 4.40254 1.3089 1.31405.7635 2.41718 1.745 3.28635 2.964.87066 1.1981 1.51328 2.5497 1.92787 4.0547.39295 1.5034.56534 3.0556.45225 4.6517-.17553 2.4783-1.00621 4.7015-2.49053 6.6486-1.48436 1.9472-3.6 3.3032-6.37011 4.0877.10008 1.0407.29695 2.5522.61547 4.494.29539 1.9612.51099 3.5162.64678 4.6649.13573 1.1486.14492 2.2465.0691 3.3177-.11756 1.6591-.63233 3.1016-1.54586 4.3486-.93515 1.2453-2.13047 2.178-3.60754 2.7962-1.45542.6197-3.03686.8722-4.72273.7588-2.37744-.1598-4.4062-.9503-6.08776-2.3506-1.68005-1.4211-2.50755-3.2284-2.43632-5.4604.13475-.9826.43795-1.8908.93271-2.7438.49475-.8531 1.12887-1.528 1.92403-2.0231.77503-.5178 1.68201-.7522 2.70229-.747.84293.057 1.62624.3415 2.35146.8334.70213.5114 1.26415 1.1611 1.66299 1.9687.37724.8062.55398 1.6833.48854 2.6073-.0878 1.2392-.59444 2.2602-1.51995 3.0632-.92554.803-2.05906 1.1699-3.37747 1.0813l-.49709-.034c.75366 1.3167 2.09077 2.0607 4.01437 2.1901.97258.065 1.98169-.078 3.00268-.3891 1.04407-.3309 1.92419-.7992 2.68503-1.4233.76085-.6242 1.28693-1.3063 1.53501-2.0493.42842-.8363.68612-2.0219.79174-3.513.0714-1.008.0348-2.0235-.0883-3.0446-.12455-1.0003-.33345-2.3437-.62807-4.0096-.29611-1.6447-.50943-2.9252-.62134-3.7979-1.31912.228-2.67104.3059-4.0759.2115-2.35587-.1582-4.54932-.7701-6.57886-1.856-2.02953-1.086-3.77444-2.5117-5.25481-4.2993-1.45876-1.7862-2.55684-3.7593-3.29124-5.961-.71427-2.1793-1.01044-4.4361-.86842-6.7478.23819-2.1364.79463-4.167 1.7096-6.0469.91642-1.9009 2.04154-3.6823 3.39552-5.3216 1.35393-1.6394 2.74069-3.1289 4.15878-4.4474 1.43821-1.2961 3.31533-2.9635 5.67313-4.9787z" fill="#131516" fill-rule="evenodd" stroke="#131516" stroke-width=".120458"/><path d="m295.17286 107.9752v50.726" fill="none" stroke="#000" stroke-width="2"/><path d="m504.43066 107.7577v50.726" fill="none" stroke="#000" stroke-width="2"/><path d="m716.65826 107.5351v50.7261" fill="none" stroke="#000" stroke-width="2"/><path d="m923.17469 107.5351v50.7261" fill="none" stroke="#000" stroke-width="2"/><path d="m1129.0058 108.2028v50.726" fill="none" stroke="#000" stroke-width="2"/><path d="m1344.8884 108.8703v50.726" fill="none" stroke="#000" stroke-width="2"/><path d="m1354.9401 107.7577v50.726" fill="none" stroke="#000" stroke-width="10"/><path d="m430.6805 139.3142c-7.00234 0-12.68057 3.1385-12.68057 7.0099 0 3.8712 5.67823 7.0097 12.68057 7.0097 7.0023 0 12.67683-3.1385 12.67683-7.0097 0-3.8714-5.67453-7.0099-12.67683-7.0099zm-2.50989 1.0838c1.76139 0 3.81769.7386 5.62664 2.1602 3.21588 2.5273 4.42775 6.2613 2.70468 8.3416-1.72306 2.0806-5.72606 1.7173-8.94197-.81-3.21588-2.5272-4.42776-6.2613-2.70466-8.3418.75384-.9101 1.94531-1.3517 3.31531-1.35z"/><path d="m534.88427 132.7451c-7.00234 0-12.68056 3.1385-12.68056 7.0099 0 3.8712 5.67822 7.0097 12.68056 7.0097 7.0023 0 12.6768-3.1385 12.6768-7.0097 0-3.8714-5.6745-7.0099-12.6768-7.0099zm-2.50989 1.0838c1.7614 0 3.81771.7386 5.62665 2.1602 3.21589 2.5273 4.42776 6.2613 2.70468 8.3416-1.72308 2.0805-5.72606 1.7173-8.94194-.81-3.21591-2.5273-4.42777-6.2613-2.7047-8.3417.75384-.9102 1.94535-1.3518 3.31531-1.3501z"/><path d="m639.08803 94.0077c-7.00232 0-12.68055 3.1386-12.68055 7.01 0 3.8711 5.67823 7.0097 12.68055 7.0097 7.00235 0 12.67685-3.1386 12.67685-7.0097 0-3.8714-5.6745-7.01-12.67685-7.01zm-2.50987 1.0839c1.76139 0 3.81771.7386 5.62664 2.1602 3.21588 2.5273 4.42777 6.2613 2.70467 8.3416-1.72307 2.0804-5.72605 1.7171-8.94193-.81-3.21587-2.5273-4.42776-6.2613-2.7047-8.3418.75385-.9101 1.94535-1.3517 3.31532-1.35z"/><path d="m871.43361 126.7056c-7.00232 0-12.68056 3.1385-12.68056 7.0099 0 3.8712 5.67824 7.0097 12.68056 7.0097 7.0023 0 12.67683-3.1385 12.67683-7.0097 0-3.8714-5.67453-7.0099-12.67683-7.0099zm-2.50989 1.0838c1.7614 0 3.81773.7386 5.62666 2.1602 3.21588 2.5273 4.42777 6.2613 2.70467 8.3416-1.72307 2.0805-5.72605 1.7173-8.94193-.81-3.21589-2.5273-4.42777-6.2613-2.70471-8.3418.75385-.9101 1.94536-1.3517 3.31531-1.35z"/><path d="m979.40601 120.1027c-7.00234 0-12.68055 3.1386-12.68055 7.01 0 3.8711 5.67826 7.0097 12.68055 7.0097 7.00237 0 12.67683-3.1386 12.67683-7.0097 0-3.8714-5.67446-7.01-12.67683-7.01zm-2.50988 1.0839c1.7614 0 3.81771.7386 5.62665 2.1602 3.21588 2.5273 4.42776 6.2613 2.7047 8.3416-1.72307 2.0805-5.72608 1.7173-8.94196-.81-3.21589-2.5273-4.42778-6.2613-2.70468-8.3417.75385-.9102 1.94533-1.3518 3.31529-1.3501z"/><path d="m1069.2679 92.9201h36.2173" fill="none" stroke="#131516" stroke-width="1.690447"/><path d="m1087.3784 78.4511c-7.0023 0-12.6806 3.1384-12.6806 7.0097s5.6783 7.0098 12.6806 7.0098 12.6768-3.1385 12.6768-7.0098-5.6745-7.0097-12.6768-7.0097zm-2.5099 1.0837c1.7614 0 3.8177.7386 5.6267 2.1602 3.2159 2.5273 4.4277 6.2613 2.7047 8.3417-1.7231 2.0804-5.7261 1.7172-8.942-.8101-3.2159-2.5272-4.4278-6.2612-2.7047-8.3416.7539-.9102 1.9453-1.3518 3.3153-1.3502z"/><path d="m1177.2402 92.9201h36.2174" fill="none" stroke="#131516" stroke-width="1.690447"/><path d="m1177.2402 80.2901h36.2174" fill="none" stroke="#131516" stroke-width="1.690447"/><path d="m1195.3508 73.2803c-7.0024 0-12.6806 3.1385-12.6806 7.0098s5.6782 7.0097 12.6806 7.0097c7.0023 0 12.6768-3.1384 12.6768-7.0097s-5.6745-7.0098-12.6768-7.0098zm-2.5099 1.0838c1.7613 0 3.8177.7386 5.6266 2.1602 3.2159 2.5272 4.4278 6.2613 2.7047 8.3417-1.7231 2.0803-5.7261 1.7171-8.942-.8101-3.2158-2.5273-4.4277-6.2613-2.7047-8.3417.7539-.9102 1.9454-1.3518 3.3154-1.3501z"/><path d="m1285.2127 67.6815h36.2173" fill="none" stroke="#131516" stroke-width="1.690447"/><path d="m1285.2127 92.9201h36.2173" fill="none" stroke="#131516" stroke-width="1.690447"/><path d="m1285.2127 80.2901h36.2173" fill="none" stroke="#131516" stroke-width="1.690447"/><path d="m1285.2127 55.0515h36.2173" fill="none" stroke="#131516" stroke-width="1.690447"/><path d="m1285.2127 42.4429h36.2173" fill="none" stroke="#131516" stroke-width="1.690447"/><path d="m1303.3232 35.4331c-7.0024 0-12.6805 3.1385-12.6805 7.0098s5.6782 7.0098 12.6805 7.0098c7.0024 0 12.6768-3.1385 12.6768-7.0098s-5.6744-7.0098-12.6768-7.0098zm-2.5099 1.0838c1.7614 0 3.8176.7386 5.6267 2.1602 3.2159 2.5273 4.4277 6.2613 2.7046 8.3417s-5.7261 1.7172-8.9419-.8101c-3.2159-2.5273-4.4277-6.2613-2.7046-8.3417.7538-.9102 1.9452-1.3518 3.3153-1.3501z"/><path d="m222.27289 185.2721c-7.00232 0-12.68056 3.1385-12.68056 7.0098s5.67824 7.0097 12.68056 7.0097 12.67682-3.1384 12.67682-7.0097-5.6745-7.0098-12.67682-7.0098zm-2.50989 1.0837c1.7614 0 3.81771.7387 5.62665 2.1603 3.21589 2.5272 4.42776 6.2612 2.70468 8.3416-1.72306 2.0804-5.72606 1.7172-8.94194-.81-3.2159-2.5273-4.42777-6.2613-2.70469-8.3417.75385-.9102 1.94532-1.3518 3.3153-1.3502z"/><path d="m204.16234 184.8226h36.21735" fill="none" stroke="#131516" stroke-width="1.690447"/><path d="m204.16234 172.1926h36.21735" fill="none" stroke="#131516" stroke-width="1.690447"/><path d="m326.47669 177.8129c-7.00233 0-12.68058 3.1384-12.68058 7.0097s5.67825 7.0098 12.68058 7.0098c7.00231 0 12.67682-3.1385 12.67682-7.0098s-5.67451-7.0097-12.67682-7.0097zm-2.5099 1.0837c1.76139 0 3.81771.7386 5.62666 2.1602 3.21588 2.5273 4.42775 6.2613 2.70468 8.3417s-5.72606 1.7172-8.94196-.8101c-3.21588-2.5272-4.42776-6.2612-2.70468-8.3416.75384-.9102 1.94533-1.3518 3.3153-1.3502z"/><path d="m308.36613 184.8226h36.21735" fill="none" stroke="#131516" stroke-width="1.690447"/><path d="m308.36613 172.1926h36.21735" fill="none" stroke="#131516" stroke-width="1.690447"/><path d="m764.37497 165.1829c-7.00232 0-12.68057 3.1384-12.68057 7.0097s5.67825 7.0098 12.68057 7.0098 12.67682-3.1385 12.67682-7.0098-5.6745-7.0097-12.67682-7.0097zm-2.50989 1.0837c1.76139 0 3.81771.7386 5.62665 2.1602 3.21589 2.5273 4.42776 6.2613 2.70469 8.3417-1.72308 2.0804-5.72606 1.7172-8.94196-.8101-3.21588-2.5272-4.42775-6.2612-2.70469-8.3416.75385-.9102 1.94534-1.3518 3.31531-1.3502z"/><path d="m745.35063 172.1926h36.21735" fill="none" stroke="#131516" stroke-width="1.690447"/><path d="m118.0691 223.1193c-7.00232 0-12.68056 3.1385-12.68056 7.0098s5.67824 7.0098 12.68056 7.0098c7.00233 0 12.67682-3.1385 12.67682-7.0098s-5.67449-7.0098-12.67682-7.0098zm-2.50989 1.0838c1.76139 0 3.81771.7386 5.62665 2.1602 3.21589 2.5273 4.42776 6.2613 2.70469 8.3417s-5.72606 1.7172-8.94195-.8101-4.42776-6.2613-2.70469-8.3417c.75384-.9102 1.94533-1.3518 3.3153-1.3501z"/><path d="m99.958558 197.4313h36.217342" fill="none" stroke="#131516" stroke-width="1.690447"/><path d="m99.958558 222.6699h36.217342" fill="none" stroke="#131516" stroke-width="1.690447"/><path d="m99.958558 210.0399h36.217342" fill="none" stroke="#131516" stroke-width="1.690447"/><path d="m99.958558 184.8013h36.217342" fill="none" stroke="#131516" stroke-width="1.690447"/><path d="m99.958558 172.1926h36.217342" fill="none" stroke="#131516" stroke-width="1.690447"/><g font-family="Times New Roman" font-size="11.831191" font-weight="bold" letter-spacing="0" transform="scale(1.0132147 .98695767)" word-spacing="0"><text x="108.24322" y="258.27017"><tspan x="108.24322" y="258.27017"/><tspan font-family="Sans" font-size="23.662382" font-weight="normal" x="108.24322" y="284.8519">C,</tspan></text><text x="210.93198" y="258.60562"><tspan x="210.93198" y="258.60562"/><tspan font-family="Sans" font-size="23.662382" font-weight="normal" x="210.93198" y="285.18735">B,</tspan></text><text x="313.93271" y="258.27017"><tspan x="313.93271" y="258.27017"/><tspan font-family="Sans" font-size="23.662382" font-weight="normal" x="313.93271" y="284.8519">C</tspan></text><text x="416.62146" y="258.60562"><tspan x="416.62146" y="258.60562"/><tspan font-family="Sans" font-size="23.662382" font-weight="normal" x="416.62146" y="285.18735">B</tspan></text><text x="521.4823" y="258.27017"><tspan x="521.4823" y="258.27017"/><tspan font-family="Sans" font-size="23.662382" font-weight="normal" x="521.4823" y="284.8519">c</tspan></text><text x="622.81348" y="258.27017"><tspan x="622.81348" y="258.27017"/><tspan font-family="Sans" font-size="23.662382" font-weight="normal" x="622.81348" y="284.8519">b</tspan></text><text x="744.21277" y="258.27017"><tspan x="744.21277" y="258.27017"/><tspan font-family="Sans" font-size="23.662382" font-weight="normal" x="744.21277" y="284.8519">c'</tspan></text><text x="849.36157" y="258.27017"><tspan x="849.36157" y="258.27017"/><tspan font-family="Sans" font-size="23.662382" font-weight="normal" x="849.36157" y="284.8519">b'</tspan></text><text x="955.15741" y="258.27017"><tspan x="955.15741" y="258.27017"/><tspan font-family="Sans" font-size="23.662382" font-weight="normal" x="955.15741" y="284.8519">c"</tspan></text><text x="1060.3063" y="258.27017"><tspan x="1060.3063" y="258.27017"/><tspan font-family="Sans" font-size="23.662382" font-weight="normal" x="1060.3063" y="284.8519">b"</tspan></text><text x="1163.9531" y="258.27017"><tspan x="1163.9531" y="258.27017"/><tspan font-family="Sans" font-size="23.662382" font-weight="normal" x="1163.9531" y="284.8519">c'''</tspan></text><text x="1269.1021" y="258.27017"><tspan x="1269.1021" y="258.27017"/><tspan font-family="Sans" font-size="23.662382" font-weight="normal" x="1269.1021" y="284.8519">b'''</tspan></text><text x="108.26633" y="285.72769"><tspan x="108.26633" y="285.72769"/><tspan font-family="Sans" font-size="23.662382" font-weight="normal" x="108.26633" y="312.30942">contra octave</tspan></text><text x="313.95581" y="283.43448"><tspan x="313.95581" y="283.43448"/><tspan font-family="Sans" font-size="23.662382" font-weight="normal" x="313.95581" y="310.0162">great octave</tspan></text><text x="521.50543" y="286.40982"><tspan x="521.50543" y="286.40982"/><tspan font-family="Sans" font-size="23.662382" font-weight="normal" x="521.50543" y="312.99155">small octave</tspan></text><text x="744.21277" y="286.40982"><tspan x="744.21277" y="286.40982"/><tspan font-family="Sans" font-size="23.662382" font-weight="normal" x="744.21277" y="312.99155">one-line octave</tspan></text><text x="955.82764" y="286.40982"><tspan x="955.82764" y="286.40982"/><tspan font-family="Sans" font-size="23.662382" font-weight="normal" x="955.82764" y="312.99155">two-line octave</tspan></text><text x="1164.6233" y="286.40982"><tspan x="1164.6233" y="286.40982"/><tspan font-family="Sans" font-size="23.662382" font-weight="normal" x="1164.6233" y="312.99155">three-line octave</tspan></text></g></svg>