<svg enable-background="new 0 0 600 600" height="600" viewBox="0 0 600 600" width="600" xmlns="http://www.w3.org/2000/svg"><path d="m0 0h600v600h-600z" fill="#e8e8e8"/><g stroke="#000"><ellipse cx="378.8037" cy="105.793" fill="#fff" rx="21.0859" ry="8.6606"/><path d="m313.8184 230.4014c20.3398-2.7197 42.0479-4.1899 64.5879-4.1899s44.2461 1.4702 64.585 4.1895v41.9561c-20.3389-2.7192-42.0449-4.1895-64.585-4.1895s-44.248 1.4702-64.5879 4.1899z" fill="#ae676b"/><path d="m169.4517 312.2549c0-18.9028 14.8032-36.3813 39.8955-50.5786v41.9556c-25.0923 14.1973-39.8955 31.6758-39.8955 50.5791z" fill="#8e6fa1"/><path d="m546.5996 261.1895c25.6191 14.2827 40.7627 31.9458 40.7627 51.0654v41.9561c0-19.1201-15.1436-36.7822-40.7627-51.0654z" fill="#927830"/><path d="m442.9912 230.4009c41.8975 5.6011 77.9902 16.5049 103.6084 30.7886v41.9561c-25.6182-14.2837-61.7109-25.1875-103.6084-30.7886z" fill="#a86d4b"/><path d="m209.3472 261.6763c25.6665-14.522 62.1006-25.6104 104.4712-31.2749v41.9561c-42.3706 5.6646-78.8047 16.7529-104.4712 31.2744z" fill="#a66885"/><path d="m169.4517 312.2549c0 19.1182 15.1445 36.7822 40.7632 51.0654v41.9561c-25.6187-14.2832-40.7632-31.9473-40.7632-51.0654z" fill="#657bab"/><path d="m399.875 190.4692c-8.8027 9.7861-33.2969 9.667-42.1406-.0078 0-13.792 0-27.584 0-41.376 8.8398 9.6621 33.3535 9.814 42.1406.0098z" fill="#e8e8e8" stroke-width=".9231"/><path d="m399.875 149.0952c-8.7871 9.8042-33.3008 9.6523-42.1406-.0098 0-13.7915 0-27.5825 0-41.374 8.832 9.6484 33.373 9.8335 42.1406.0117z" fill="#fff" stroke-width=".9231"/><path d="m399.875 231.8428c-8.8203 9.7686-33.29 9.6826-42.1406-.0049 0-13.792 0-27.5845 0-41.3765 8.8438 9.6748 33.3379 9.7939 42.1406.0078z" fill="#cbcbcb" stroke-width=".9231"/><path d="m399.875 273.2158c-8.8379 9.7476-33.2852 9.6987-42.1406-.002 0-13.792 0-27.584 0-41.376 8.8506 9.6875 33.3203 9.7734 42.1406.0049z" fill="#b3b3b3" stroke-width=".9231"/><path d="m399.875 314.5898c-8.8555 9.7285-33.2793 9.7129-42.1406 0 0-13.792 0-27.584 0-41.376 8.8555 9.7007 33.3027 9.7495 42.1406.002z" fill="#969696" stroke-width=".9231"/><path d="m399.875 355.9648c-8.8721 9.708-33.2764 9.7285-42.1406 0 0-13.792 0-27.583 0-41.375 8.8613 9.7129 33.2852 9.7285 42.1406 0z" fill="#7c7c7c" stroke-width=".9231"/><path d="m399.875 397.3398c-8.8916 9.6885-33.2695 9.7393-42.1426.002.0039-13.792.002-27.585.002-41.377 8.8643 9.7285 33.2686 9.708 42.1406 0z" fill="#616161" stroke-width=".9231"/><path d="m399.875 438.7119c-8.9072 9.668-33.2637 9.7588-42.1406.0059 0-13.792.002-27.584-.002-41.376 8.873 9.7373 33.251 9.6865 42.1426-.002z" fill="#464646" stroke-width=".9231"/><path d="m399.875 480.084c-8.9238 9.6553-33.2578 9.7754-42.1406.0078 0-13.791 0-27.583 0-41.374 8.877 9.7529 33.2334 9.6621 42.1406-.0059z" fill="#303030" stroke-width=".9231"/><path d="m399.875 521.458c-8.9443 9.6338-33.2471 9.7891-42.1406.0117 0-13.793 0-27.585 0-41.3779 8.8828 9.7676 33.2168 9.6475 42.1406-.0078z" fill="#1c1c1c" stroke-width=".9231"/><path d="m399.875 562.833c-8.9551 9.6133-33.251 9.8057-42.1406.0117 0-13.792 0-27.583 0-41.375 8.8936 9.7773 33.1963 9.6221 42.1406-.0117z" stroke-width=".9231"/><path d="m12.7334 354.2109c0 33.459 26.5029 64.3701 71.333 89.3672v-41.9561c-44.8301-24.998-71.333-55.9082-71.333-89.3672z" fill="#2e7cd6"/><path d="m64.9746 312.2549c0 28.6777 22.7148 55.1738 61.1445 76.5986v41.957l-42.0527 12.7676v-41.9561c-44.8301-24.998-71.333-55.9082-71.333-89.3672h52.2412z" fill="#2e7cd6"/><path d="m117.2129 312.2549c0 23.8994 18.9268 45.9775 50.9517 63.834v41.9561l-42.0454 12.7656v-41.957c-38.4297-21.4248-61.1445-47.9209-61.1445-76.5986h52.2382z" fill="#487bc7"/><path d="m169.4517 312.2549c0 19.1182 15.1445 36.7822 40.7632 51.0654v41.9561l-42.0503 12.7686v-41.9561c-32.0249-17.8564-50.9517-39.9346-50.9517-63.834z" fill="#597bb9"/><path d="m221.6909 312.2549c0 14.3389 11.3574 27.5869 30.5718 38.2988v41.957l-42.0479 12.7656v-41.9561c-25.6187-14.2832-40.7632-31.9473-40.7632-51.0654h52.2393z" fill="#657bab"/><path d="m294.3101 379.7441v-41.957c-12.8091-7.1416-20.3813-15.9736-20.3813-25.5322h-52.2378c0 14.3389 11.3574 27.5869 30.5718 38.2988v41.957z" fill="#6f7a9c"/><path d="m294.3101 379.7441 42.0483-12.7666v-41.957c-6.4043-3.5703-10.1904-7.9863-10.1904-12.7656h-52.2393c0 9.5586 7.5723 18.3906 20.3813 25.5322v41.957z" fill="#787a8e"/><path d="m361.4521 317.4053v41.9531l-25.0938 7.6191v-41.957c-6.4043-3.5703-10.1904-7.9863-10.1904-12.7656l31.457-.0195c.0001 2.125 2.2501 4 3.8272 5.1699z" fill="#7c7c7c"/><path d="m361.4492 317.4033-277.3828 84.2188" fill="none"/><path d="m442.9951 394.1074c-20.3389 2.7197-42.0469 4.1895-64.5889 4.1895-22.5381 0-44.2451-1.4697-64.584-4.1885v41.9561c20.3389 2.7188 42.0459 4.1885 64.584 4.1885 22.542 0 44.25-1.4697 64.5889-4.1904z" fill="#2d8788"/><path d="m547.4678 362.832c-25.667 14.5225-62.1016 25.6113-104.4727 31.2754v41.9551c42.3711-5.6641 78.8057-16.752 104.4727-31.2734z" fill="#42886d"/><path d="m587.3623 312.2549c0 18.9023-14.8037 36.3818-39.8945 50.5771v41.957c25.0908-14.1973 39.8945-31.6758 39.8945-50.5781z" fill="#72823d"/><path d="m313.8223 394.1084c-41.8965-5.6016-77.9893-16.5039-103.6074-30.7881v41.9561c25.6182 14.2832 61.7109 25.1875 103.6074 30.7881z" fill="#3584a2"/></g><path d="m305.5195 189.0806c.8809-.1802 2.1602-.3003 3.3398-.3003 1.8613 0 3.0801.3599 3.9199 1.1201.6602.5801 1.0605 1.5 1.0605 2.5601 0 1.7598-1.1396 2.9399-2.54 3.4199v.0601c1.0205.3599 1.6396 1.3198 1.9795 2.7197.4414 1.8804.7607 3.1802 1.0205 3.7002h-1.7997c-.2207-.3799-.5195-1.54-.8799-3.2202-.3994-1.8599-1.1396-2.5596-2.7197-2.6196h-1.6406v5.8398h-1.7402v-13.2798zm1.7403 6.1196h1.7803c1.8604 0 3.04-1.02 3.04-2.5601 0-1.7397-1.2598-2.5-3.0996-2.5-.8398 0-1.4199.0801-1.7207.1602z"/><path d="m317.2783 197.8203c.04 2.3799 1.54 3.3599 3.2998 3.3599 1.2598 0 2.04-.2197 2.6797-.48l.3203 1.2402c-.6191.2798-1.6992.6201-3.2402.6201-2.959 0-4.7598-1.98-4.7598-4.8804 0-2.9399 1.7402-5.2397 4.5605-5.2397 3.1602 0 3.9795 2.7798 3.9795 4.5601 0 .3599-.0205.6396-.0596.8398zm5.1397-1.2598c.0205-1.1001-.459-2.8604-2.4199-2.8604-1.7998 0-2.5596 1.6401-2.6992 2.8604z"/><path d="m334.6582 188.1602v11.7002c0 .8599.0195 1.8398.0801 2.5h-1.5801l-.0801-1.6802h-.0391c-.541 1.0801-1.7012 1.9004-3.2812 1.9004-2.3398 0-4.1602-1.98-4.1602-4.9204-.0195-3.2397 2-5.1997 4.3408-5.1997 1.5 0 2.5.6997 2.9199 1.46h.04v-5.7603zm-1.7598 8.4599c0-.2397-.0195-.5195-.0801-.7598-.2598-1.1001-1.2207-2.02-2.54-2.02-1.8193 0-2.8994 1.6001-2.8994 3.7202 0 1.98.9795 3.5996 2.8594 3.5996 1.1797 0 2.2598-.7998 2.5801-2.0996.0605-.2402.0801-.48.0801-.7603v-1.6801z"/><path d="m182.52 194.0806c.8799-.1802 2.1602-.3003 3.3398-.3003 1.8604 0 3.0801.3599 3.9199 1.1201.6602.5801 1.0601 1.5 1.0601 2.5601 0 1.7598-1.1396 2.9399-2.54 3.4199v.0601c1.02.3599 1.6401 1.3198 1.98 2.7197.4404 1.8804.7603 3.1802 1.02 3.7002h-1.7998c-.2202-.3799-.52-1.54-.8799-3.2202-.3999-1.8599-1.1401-2.5596-2.7202-2.6196h-1.6401v5.8398h-1.7398zm1.7398 6.1196h1.7803c1.8599 0 3.04-1.02 3.04-2.5601 0-1.7397-1.2603-2.5-3.1001-2.5-.8398 0-1.4199.0801-1.7202.1602z"/><path d="m194.2783 202.8203c.04 2.3799 1.54 3.3599 3.2998 3.3599 1.2603 0 2.04-.2197 2.6802-.48l.3198 1.2402c-.6196.2798-1.6997.6201-3.2397.6201-2.96 0-4.7603-1.98-4.7603-4.8804 0-2.9399 1.7402-5.2397 4.5601-5.2397 3.1602 0 3.98 2.7798 3.98 4.5601 0 .3599-.02.6396-.0596.8398zm5.1402-1.2598c.02-1.1001-.46-2.8604-2.4199-2.8604-1.8003 0-2.5601 1.6401-2.7002 2.8604z"/><path d="m211.6582 193.1602v11.7002c0 .8599.02 1.8398.0801 2.5h-1.5801l-.0801-1.6802h-.0396c-.54 1.0801-1.7002 1.9004-3.2803 1.9004-2.3398 0-4.1602-1.98-4.1602-4.9204-.02-3.2397 2-5.1997 4.3403-5.1997 1.5 0 2.5.6997 2.9199 1.46h.04v-5.7603zm-1.7598 8.4599c0-.2397-.02-.5195-.0801-.7598-.2598-1.1001-1.2202-2.02-2.54-2.02-1.8198 0-2.8999 1.6001-2.8999 3.7202 0 1.98.98 3.5996 2.8599 3.5996 1.1802 0 2.2603-.7998 2.5801-2.0996.0601-.2402.0801-.48.0801-.7603v-1.6801z"/><path d="m218.6582 201.3203v1.2803h-4.9399v-1.2803z"/><path d="m220.7778 194.0605c.8398-.1602 1.9399-.2803 3.3398-.2803 1.7202 0 2.98.3999 3.7803 1.1201.7397.6401 1.1997 1.6201 1.1997 2.8198 0 1.2202-.3599 2.1802-1.0601 2.8804-.9199.98-2.4199 1.48-4.1196 1.48-.52 0-1-.02-1.4004-.1201v5.3999h-1.7397zm1.7398 6.48c.3804.0996.8804.1396 1.4404.1396 2.1196 0 3.3799-1.04 3.3799-2.8599 0-1.7998-1.2603-2.6602-3.1802-2.6602-.7598 0-1.3398.0801-1.6401.1401z"/><path d="m239.1602 204.7202c0 1 .02 1.8804.0801 2.6401h-1.5601l-.1001-1.5801h-.04c-.4399.7803-1.48 1.8003-3.2002 1.8003-1.5195 0-3.3398-.8604-3.3398-4.2402v-5.6602h1.7603v5.3403c0 1.8398.5796 3.0996 2.1597 3.0996 1.1802 0 2-.8198 2.3203-1.6196.0996-.2402.1597-.5601.1597-.8999v-5.9204h1.7603v7.0401z"/><path d="m242.1001 200.7002c0-1.1396-.02-2.1196-.0801-3.02h1.54l.0801 1.9004h.0601c.4399-1.3003 1.52-2.1201 2.6997-2.1201.1802 0 .3203.02.48.0601v1.6396c-.1997-.02-.3799-.04-.6196-.04-1.2402 0-2.1201.9404-2.3604 2.2402-.0396.2598-.0596.54-.0596.8398v5.1602h-1.7603z"/><path d="m248.6982 200.8403c0-1.2397-.02-2.2397-.0801-3.1602h1.5801l.1001 1.6602h.04c.6997-1.2002 1.8599-1.8799 3.4199-1.8799 2.3599 0 4.1201 1.98 4.1201 4.9199 0 3.48-2.1401 5.2002-4.3999 5.2002-1.3003 0-2.4004-.5601-2.9805-1.52h-.0396v5.2598h-1.7603v-10.48zm1.7603 2.5801c0 .2397.02.5.0796.7197.3003 1.2202 1.3804 2.0601 2.6201 2.0601 1.8599 0 2.9399-1.52 2.9399-3.7397 0-1.9399-1-3.6001-2.8599-3.6001-1.2002 0-2.3398.8398-2.6802 2.1602-.04.2397-.0996.5-.0996.7197v1.6801z"/><path d="m260.0781 193.1602h1.7603v14.2002h-1.7603z"/><path d="m265.7578 202.8203c.04 2.3799 1.54 3.3599 3.2998 3.3599 1.2603 0 2.04-.2197 2.6802-.48l.3198 1.2402c-.6196.2798-1.6997.6201-3.2397.6201-2.96 0-4.7603-1.98-4.7603-4.8804 0-2.9399 1.7402-5.2397 4.5601-5.2397 3.1602 0 3.98 2.7798 3.98 4.5601 0 .3599-.02.6396-.0596.8398zm5.1401-1.2598c.02-1.1001-.46-2.8604-2.4199-2.8604-1.8003 0-2.5601 1.6401-2.7002 2.8604z"/><path d="m118.52 248.0605c.8398-.1602 1.9399-.2803 3.3398-.2803 1.7202 0 2.98.3999 3.7803 1.1201.7397.6401 1.1997 1.6201 1.1997 2.8198 0 1.2202-.3599 2.1802-1.0601 2.8804-.9199.98-2.4199 1.48-4.1196 1.48-.52 0-1-.02-1.4004-.1201v5.3999h-1.7397zm1.7398 6.48c.3804.0996.8804.1396 1.4404.1396 2.1196 0 3.3799-1.04 3.3799-2.8599 0-1.7998-1.2603-2.6602-3.1802-2.6602-.7598 0-1.3398.0801-1.6401.1401z"/><path d="m136.9023 258.7202c0 1 .02 1.8804.0801 2.6401h-1.5601l-.1001-1.5801h-.04c-.4399.7803-1.48 1.8003-3.2002 1.8003-1.5195 0-3.3398-.8604-3.3398-4.2402v-5.6602h1.7603v5.3403c0 1.8398.5796 3.0996 2.1597 3.0996 1.1802 0 2-.8198 2.3203-1.6196.0996-.2402.1597-.5601.1597-.8999v-5.9204h1.7603v7.0401z"/><path d="m139.8423 254.7002c0-1.1396-.02-2.1196-.0801-3.02h1.54l.0801 1.9004h.0601c.4399-1.3003 1.52-2.1201 2.6997-2.1201.1802 0 .3203.02.48.0601v1.6396c-.1997-.02-.3799-.04-.6196-.04-1.2402 0-2.1201.9404-2.3604 2.2402-.0396.2598-.0596.54-.0596.8398v5.1602h-1.7603z"/><path d="m146.4404 254.8403c0-1.2397-.02-2.2397-.0801-3.1602h1.5801l.1001 1.6602h.04c.6997-1.2002 1.8599-1.8799 3.4199-1.8799 2.3599 0 4.1201 1.98 4.1201 4.9199 0 3.48-2.1401 5.2002-4.3999 5.2002-1.3003 0-2.4004-.5601-2.9805-1.52h-.0396v5.2598h-1.7603v-10.48zm1.7603 2.5801c0 .2397.02.5.0796.7197.3003 1.2202 1.3804 2.0601 2.6201 2.0601 1.8599 0 2.9399-1.52 2.9399-3.7397 0-1.9399-1-3.6001-2.8599-3.6001-1.2002 0-2.3398.8398-2.6802 2.1602-.04.2397-.0996.5-.0996.7197v1.6801z"/><path d="m157.8203 247.1602h1.7603v14.2002h-1.7603z"/><path d="m163.5 256.8203c.04 2.3799 1.54 3.3599 3.2998 3.3599 1.2603 0 2.04-.2197 2.6802-.48l.3198 1.2402c-.6196.2798-1.6997.6201-3.2397.6201-2.96 0-4.7603-1.98-4.7603-4.8804 0-2.9399 1.7402-5.2397 4.5601-5.2397 3.1602 0 3.98 2.7798 3.98 4.5601 0 .3599-.02.6396-.0596.8398zm5.1401-1.2598c.02-1.1001-.46-2.8604-2.4199-2.8604-1.8003 0-2.5601 1.6401-2.7002 2.8604z"/><path d="m440.5195 179.3604v-5.7202l-4.2793-7.7598h2l1.8994 3.7202c.5 1.0195.9199 1.8398 1.3408 2.7798h.0391c.3604-.8799.8408-1.7603 1.3604-2.7798l1.9404-3.7202h1.96l-4.5 7.7397v5.7402h-1.7608z"/><path d="m447.8633 174.8203c.04 2.3799 1.54 3.3599 3.2998 3.3599 1.2598 0 2.04-.2197 2.6807-.48l.3193 1.2402c-.6201.2798-1.7002.6201-3.2402.6201-2.96 0-4.7598-1.98-4.7598-4.8804 0-2.9399 1.7402-5.2397 4.5605-5.2397 3.1592 0 3.9795 2.7798 3.9795 4.5601 0 .3599-.0195.6396-.0596.8398zm5.1396-1.2598c.0205-1.1001-.46-2.8604-2.4199-2.8604-1.7998 0-2.5596 1.6401-2.6992 2.8604z"/><path d="m456.8828 165.1602h1.7598v14.2002h-1.7598z"/><path d="m461.5625 165.1602h1.7598v14.2002h-1.7598z"/><path d="m470.1826 179.5806c-2.6006 0-4.6406-1.9204-4.6406-4.98 0-3.2402 2.1406-5.1401 4.7998-5.1401 2.7803 0 4.6602 2.02 4.6602 4.96 0 3.6001-2.5 5.1602-4.7998 5.1602h-.0196zm.0596-1.3203c1.6797 0 2.9404-1.5801 2.9404-3.7798 0-1.6401-.8203-3.7002-2.9004-3.7002-2.0596 0-2.96 1.9199-2.96 3.7603 0 2.1196 1.2002 3.7197 2.9004 3.7197z"/><path d="m477.7852 169.6802 1.2998 4.9004c.2598 1.0796.5205 2.0996.7002 3.0996h.0596c.2207-.98.54-2.02.8604-3.0796l1.5801-4.9204h1.4795l1.5 4.8403c.3604 1.1396.6406 2.1797.8604 3.1597h.0596c.1602-.98.4209-2 .7402-3.1396l1.3799-4.8604h1.7402l-3.1201 9.6802h-1.5996l-1.4805-4.6201c-.3398-1.1001-.6201-2.0601-.8594-3.1997h-.04c-.2402 1.1597-.54 2.1797-.8799 3.2197l-1.5605 4.6001h-1.5996l-2.9199-9.6802z"/><path d="m495.8848 173.3203v1.2803h-4.9404v-1.2803z"/><path d="m498.0039 166.0806c.8809-.1802 2.1602-.3003 3.3408-.3003 1.8594 0 3.0801.3599 3.9199 1.1201.6602.5801 1.0596 1.5 1.0596 2.5601 0 1.7598-1.1396 2.9399-2.54 3.4199v.0601c1.0205.3599 1.6406 1.3198 1.9805 2.7197.4395 1.8804.7598 3.1802 1.0195 3.7002h-1.7998c-.2197-.3799-.5195-1.54-.8799-3.2202-.4004-1.8599-1.1396-2.5596-2.7197-2.6196h-1.6406v5.8398h-1.7402v-13.2798zm1.7402 6.1196h1.7803c1.8604 0 3.04-1.02 3.04-2.5601 0-1.7397-1.2598-2.5-3.0996-2.5-.8408 0-1.4209.0801-1.7207.1602z"/><path d="m509.7627 174.8203c.04 2.3799 1.54 3.3599 3.2998 3.3599 1.2598 0 2.04-.2197 2.6807-.48l.3193 1.2402c-.6201.2798-1.7002.6201-3.2402.6201-2.96 0-4.7598-1.98-4.7598-4.8804 0-2.9399 1.7402-5.2397 4.5605-5.2397 3.1602 0 3.9795 2.7798 3.9795 4.5601 0 .3599-.0195.6396-.0596.8398zm5.1396-1.2598c.0205-1.1001-.46-2.8604-2.4199-2.8604-1.7998 0-2.5596 1.6401-2.6992 2.8604z"/><path d="m527.1426 165.1602v11.7002c0 .8599.0195 1.8398.0801 2.5h-1.5801l-.0801-1.6802h-.04c-.54 1.0801-1.7002 1.9004-3.2803 1.9004-2.3398 0-4.1602-1.98-4.1602-4.9204-.0195-3.2397 2-5.1997 4.3398-5.1997 1.5 0 2.5.6997 2.9199 1.46h.04v-5.7603zm-1.7608 8.4599c0-.2397-.0195-.5195-.0791-.7598-.2607-1.1001-1.2207-2.02-2.54-2.02-1.8203 0-2.9004 1.6001-2.9004 3.7202 0 1.98.9795 3.5996 2.8604 3.5996 1.1797 0 2.2598-.7998 2.5801-2.0996.0596-.2402.0791-.48.0791-.7603v-1.6801z"/><path d="m520.5195 218.3604v-5.7202l-4.2793-7.7598h2l1.8994 3.7202c.5 1.0195.9199 1.8398 1.3408 2.7798h.0391c.3604-.8799.8408-1.7603 1.3604-2.7798l1.9404-3.7202h1.96l-4.5 7.7397v5.7402h-1.7608z"/><path d="m527.8633 213.8203c.04 2.3799 1.54 3.3599 3.2998 3.3599 1.2598 0 2.04-.2197 2.6807-.48l.3193 1.2402c-.6201.2798-1.7002.6201-3.2402.6201-2.96 0-4.7598-1.98-4.7598-4.8804 0-2.9399 1.7402-5.2397 4.5605-5.2397 3.1592 0 3.9795 2.7798 3.9795 4.5601 0 .3599-.0195.6396-.0596.8398zm5.1396-1.2598c.0205-1.1001-.46-2.8604-2.4199-2.8604-1.7998 0-2.5596 1.6401-2.6992 2.8604z"/><path d="m536.8828 204.1602h1.7598v14.2002h-1.7598z"/><path d="m541.5625 204.1602h1.7598v14.2002h-1.7598z"/><path d="m550.1826 218.5806c-2.6006 0-4.6406-1.9204-4.6406-4.98 0-3.2402 2.1406-5.1401 4.7998-5.1401 2.7803 0 4.6602 2.02 4.6602 4.96 0 3.6001-2.5 5.1602-4.7998 5.1602h-.0196zm.0596-1.3203c1.6797 0 2.9404-1.5801 2.9404-3.7798 0-1.6401-.8203-3.7002-2.9004-3.7002-2.0596 0-2.96 1.9199-2.96 3.7603 0 2.1196 1.2002 3.7197 2.9004 3.7197z"/><path d="m557.7852 208.6802 1.2998 4.9004c.2598 1.0796.5205 2.0996.7002 3.0996h.0596c.2207-.98.54-2.02.8604-3.0796l1.5801-4.9204h1.4795l1.5 4.8403c.3604 1.1396.6406 2.1797.8604 3.1597h.0596c.1602-.98.4209-2 .7402-3.1396l1.3799-4.8604h1.7402l-3.1201 9.6802h-1.5996l-1.4805-4.6201c-.3398-1.1001-.6201-2.0601-.8594-3.1997h-.04c-.2402 1.1597-.54 2.1797-.8799 3.2197l-1.5605 4.6001h-1.5996l-2.9199-9.6802z"/><path d="m462.8838 334.1846c-.7803.2998-2.3398.7393-4.1602.7393-2.04 0-3.7197-.5195-5.04-1.7793-1.1592-1.1201-1.8799-2.9199-1.8799-5.0205 0-4.0195 2.7803-6.96 7.2998-6.96 1.5605 0 2.8008.3398 3.3809.6201l-.4404 1.4199c-.7197-.3398-1.6201-.5801-2.9795-.5801-3.2803 0-5.4209 2.04-5.4209 5.4199 0 3.4199 2.04 5.4404 5.2002 5.4404 1.1406 0 1.9199-.1602 2.3203-.3604v-4.0195h-2.7197v-1.4004h4.4395v6.4806z"/><path d="m465.5234 328.124c0-1.1396-.0205-2.1201-.0801-3.0195h1.54l.0791 1.8994h.0605c.4395-1.2998 1.5195-2.1201 2.7002-2.1201.1797 0 .3193.0205.4795.0605v1.6396c-.2002-.0195-.3799-.04-.6201-.04-1.2393 0-2.1201.9404-2.3594 2.2402-.04.2598-.0605.54-.0605.8398v5.1602h-1.7598z"/><path d="m472.9258 330.2441c.04 2.3799 1.54 3.3604 3.2998 3.3604 1.2598 0 2.04-.2207 2.6807-.4805l.3193 1.2402c-.6201.2803-1.7002.6201-3.2402.6201-2.96 0-4.7598-1.9805-4.7598-4.8799 0-2.9404 1.7402-5.2402 4.5605-5.2402 3.1592 0 3.9795 2.7803 3.9795 4.5596 0 .3604-.0195.6406-.0596.8408zm5.1396-1.2597c.0205-1.1006-.46-2.8604-2.4199-2.8604-1.7998 0-2.5596 1.6406-2.6992 2.8604z"/><path d="m482.9453 330.2441c.04 2.3799 1.54 3.3604 3.2998 3.3604 1.2598 0 2.04-.2207 2.6807-.4805l.3193 1.2402c-.6201.2803-1.7002.6201-3.2402.6201-2.96 0-4.7598-1.9805-4.7598-4.8799 0-2.9404 1.7402-5.2402 4.5605-5.2402 3.1592 0 3.9795 2.7803 3.9795 4.5596 0 .3604-.0195.6406-.0596.8408zm5.1397-1.2597c.0205-1.1006-.46-2.8604-2.4199-2.8604-1.7998 0-2.5596 1.6406-2.6992 2.8604z"/><path d="m491.9648 327.7246c0-1.0205-.0195-1.8203-.0801-2.6201h1.5605l.0996 1.5801h.04c.4795-.9004 1.5996-1.8008 3.2002-1.8008 1.3398 0 3.4199.8008 3.4199 4.1201v5.7803h-1.7598v-5.5801c0-1.5596-.5801-2.8799-2.2402-2.8799-1.1406 0-2.04.8203-2.3604 1.7998-.0801.2197-.1201.54-.1201.8203v5.8398h-1.7598v-7.0595z"/><path d="m507.1445 328.7441v1.2803h-4.9404v-1.2803z"/><path d="m512.2637 334.7842v-5.7197l-4.2793-7.7607h2l1.8994 3.7207c.5 1.0195.9199 1.8398 1.3408 2.7793h.0391c.3604-.8799.8408-1.7598 1.3604-2.7793l1.9404-3.7207h1.96l-4.5 7.7402v5.7402z"/><path d="m519.6074 330.2441c.04 2.3799 1.54 3.3604 3.2998 3.3604 1.2598 0 2.04-.2207 2.6807-.4805l.3193 1.2402c-.6201.2803-1.7002.6201-3.2402.6201-2.96 0-4.7598-1.9805-4.7598-4.8799 0-2.9404 1.7402-5.2402 4.5605-5.2402 3.1592 0 3.9795 2.7803 3.9795 4.5596 0 .3604-.0195.6406-.0596.8408zm5.1397-1.2597c.0205-1.1006-.46-2.8604-2.4199-2.8604-1.7998 0-2.5596 1.6406-2.6992 2.8604z"/><path d="m528.627 320.584h1.7598v14.2002h-1.7598z"/><path d="m533.3066 320.584h1.7598v14.2002h-1.7598z"/><path d="m541.9268 335.0039c-2.6006 0-4.6406-1.9199-4.6406-4.9795 0-3.2402 2.1406-5.1406 4.7998-5.1406 2.7803 0 4.6602 2.0205 4.6602 4.96 0 3.6006-2.5 5.1602-4.7998 5.1602h-.0196zm.0595-1.3193c1.6797 0 2.9404-1.5801 2.9404-3.7803 0-1.6396-.8203-3.7002-2.9004-3.7002-2.0596 0-2.96 1.9199-2.96 3.7598 0 2.1201 1.2002 3.7207 2.9004 3.7207z"/><path d="m549.5293 325.1045 1.2998 4.8994c.2598 1.0801.5205 2.1006.7002 3.1006h.0596c.2207-.9805.54-2.0205.8604-3.0801l1.5801-4.9199h1.4795l1.5 4.8398c.3604 1.1396.6406 2.1797.8604 3.1602h.0596c.1602-.9805.4209-2 .7402-3.1406l1.3799-4.8594h1.7402l-3.1201 9.6797h-1.5996l-1.4805-4.6201c-.3398-1.0996-.6201-2.0596-.8594-3.2002h-.04c-.2402 1.1602-.54 2.1807-.8799 3.2207l-1.5605 4.5996h-1.5996l-2.9199-9.6797z"/><path d="m538.0508 456.1729c-.7803.2998-2.3398.7393-4.1602.7393-2.04 0-3.7197-.5195-5.04-1.7793-1.1592-1.1201-1.8799-2.9199-1.8799-5.0205 0-4.0195 2.7803-6.96 7.2998-6.96 1.5605 0 2.8008.3398 3.3809.6201l-.4404 1.4199c-.7197-.3398-1.6201-.5801-2.9795-.5801-3.2803 0-5.4209 2.04-5.4209 5.4199 0 3.4199 2.04 5.4404 5.2002 5.4404 1.1406 0 1.9199-.1602 2.3203-.3604v-4.0195h-2.7197v-1.4004h4.4395v6.4806z"/><path d="m540.6904 450.1123c0-1.1396-.0205-2.1201-.0801-3.0195h1.54l.0791 1.8994h.0605c.4395-1.2998 1.5195-2.1201 2.7002-2.1201.1797 0 .3193.0205.4795.0605v1.6396c-.2002-.0195-.3799-.04-.6201-.04-1.2393 0-2.1201.9404-2.3594 2.2402-.04.2598-.0605.54-.0605.8398v5.1602h-1.7598z"/><path d="m548.0928 452.2324c.04 2.3799 1.54 3.3604 3.2998 3.3604 1.2598 0 2.04-.2207 2.6807-.4805l.3193 1.2402c-.6201.2803-1.7002.6201-3.2402.6201-2.96 0-4.7598-1.9805-4.7598-4.8799 0-2.9404 1.7402-5.2402 4.5605-5.2402 3.1592 0 3.9795 2.7803 3.9795 4.5596 0 .3604-.0195.6406-.0596.8408zm5.1396-1.2597c.0205-1.1006-.46-2.8604-2.4199-2.8604-1.7998 0-2.5596 1.6406-2.6992 2.8604z"/><path d="m558.1123 452.2324c.04 2.3799 1.54 3.3604 3.2998 3.3604 1.2598 0 2.04-.2207 2.6807-.4805l.3193 1.2402c-.6201.2803-1.7002.6201-3.2402.6201-2.96 0-4.7598-1.9805-4.7598-4.8799 0-2.9404 1.7402-5.2402 4.5605-5.2402 3.1592 0 3.9795 2.7803 3.9795 4.5596 0 .3604-.0195.6406-.0596.8408zm5.1397-1.2597c.0205-1.1006-.46-2.8604-2.4199-2.8604-1.7998 0-2.5596 1.6406-2.6992 2.8604z"/><path d="m567.1318 449.7129c0-1.0205-.0195-1.8203-.0801-2.6201h1.5605l.0996 1.5801h.04c.4795-.9004 1.5996-1.8008 3.2002-1.8008 1.3398 0 3.4199.8008 3.4199 4.1201v5.7803h-1.7598v-5.5801c0-1.5596-.5801-2.8799-2.2402-2.8799-1.1406 0-2.04.8203-2.3604 1.7998-.0801.2197-.1201.54-.1201.8203v5.8398h-1.7598v-7.0595z"/><path d="m249.7812 504.1611c.7598-.1797 1.98-.2998 3.1802-.2998 1.7397 0 2.8599.2998 3.6797.9805.7002.5195 1.1401 1.3193 1.1401 2.3799 0 1.3193-.8799 2.46-2.2803 2.96v.0596c1.2803.2998 2.7803 1.3604 2.7803 3.3604 0 1.1602-.46 2.04-1.1602 2.7002-.9199.8594-2.4399 1.2598-4.6396 1.2598-1.2002 0-2.1201-.0801-2.7002-.1602zm1.7398 5.5205h1.5801c1.8203 0 2.8999-.9805 2.8999-2.2803 0-1.5596-1.1797-2.2002-2.9399-2.2002-.7998 0-1.2598.0605-1.54.1201v4.3604zm0 6.4395c.3604.0605.8403.0801 1.4604.0801 1.7998 0 3.46-.6602 3.46-2.6201 0-1.8193-1.5801-2.5996-3.48-2.5996h-1.4404z"/><path d="m260.5806 503.2412h1.7603v14.2002h-1.7603z"/><path d="m273.3604 514.8018c0 1 .02 1.8799.0801 2.6396h-1.5601l-.1001-1.5801h-.04c-.4399.7803-1.48 1.7998-3.2002 1.7998-1.5195 0-3.3398-.8594-3.3398-4.2393v-5.6602h1.7603v5.3398c0 1.8398.5796 3.0996 2.1597 3.0996 1.1802 0 2-.8193 2.3203-1.6201.0996-.2393.1597-.5596.1597-.8994v-5.9199h1.7603v7.0402z"/><path d="m277.2803 512.9014c.04 2.3799 1.54 3.3604 3.2998 3.3604 1.2603 0 2.04-.2207 2.6802-.4805l.3198 1.2402c-.6196.2803-1.6997.6201-3.2397.6201-2.96 0-4.7603-1.9805-4.7603-4.8799 0-2.9404 1.7402-5.2402 4.5601-5.2402 3.1602 0 3.98 2.7803 3.98 4.5596 0 .3604-.02.6406-.0596.8408zm5.1401-1.2598c.02-1.1006-.46-2.8604-2.4199-2.8604-1.8003 0-2.5601 1.6406-2.7002 2.8604z"/><path d="m290.3804 511.4014v1.2803h-4.9399v-1.2803z"/><path d="m302.7793 516.8418c-.7793.2998-2.3394.7393-4.1592.7393-2.04 0-3.7202-.5195-5.04-1.7793-1.1602-1.1201-1.8799-2.9199-1.8799-5.0205 0-4.0195 2.7798-6.96 7.2998-6.96 1.5601 0 2.7998.3398 3.3799.6201l-.4404 1.4199c-.7197-.3398-1.6196-.5801-2.9795-.5801-3.2798 0-5.4199 2.04-5.4199 5.4199 0 3.4199 2.04 5.4404 5.1997 5.4404 1.1401 0 1.9204-.1602 2.3208-.3604v-4.0195h-2.7207v-1.4004h4.4395v6.4806z"/><path d="m305.4189 510.7812c0-1.1396-.0205-2.1201-.0801-3.0195h1.54l.0801 1.8994h.0605c.4395-1.2998 1.5195-2.1201 2.6992-2.1201.1797 0 .3203.0205.4805.0605v1.6396c-.2002-.0195-.3809-.04-.6201-.04-1.2402 0-2.1201.9404-2.3604 2.2402-.04.2598-.0596.54-.0596.8398v5.1602h-1.7607z"/><path d="m312.8223 512.9014c.0391 2.3799 1.5391 3.3604 3.2988 3.3604 1.2607 0 2.041-.2207 2.6807-.4805l.3203 1.2402c-.6201.2803-1.7002.6201-3.2402.6201-2.96 0-4.7607-1.9805-4.7607-4.8799 0-2.9404 1.7402-5.2402 4.5605-5.2402 3.1602 0 3.9805 2.7803 3.9805 4.5596 0 .3604-.0205.6406-.0605.8408zm5.1396-1.2598c.0195-1.1006-.46-2.8604-2.4199-2.8604-1.7998 0-2.5596 1.6406-2.7002 2.8604z"/><path d="m322.8418 512.9014c.04 2.3799 1.54 3.3604 3.2998 3.3604 1.2598 0 2.04-.2207 2.6807-.4805l.3193 1.2402c-.6201.2803-1.7002.6201-3.2402.6201-2.96 0-4.7598-1.9805-4.7598-4.8799 0-2.9404 1.7402-5.2402 4.5605-5.2402 3.1602 0 3.9795 2.7803 3.9795 4.5596 0 .3604-.0195.6406-.0596.8408zm5.1396-1.2598c.0205-1.1006-.46-2.8604-2.4199-2.8604-1.7998 0-2.5596 1.6406-2.6992 2.8604z"/><path d="m331.8613 510.3818c0-1.0205-.0195-1.8203-.0801-2.6201h1.5605l.0996 1.5801h.04c.4795-.9004 1.5996-1.8008 3.2002-1.8008 1.3398 0 3.4199.8008 3.4199 4.1201v5.7803h-1.7598v-5.5801c0-1.5596-.5801-2.8799-2.2402-2.8799-1.1406 0-2.04.8203-2.3604 1.7998-.0801.2197-.1201.54-.1201.8203v5.8398h-1.7598v-7.0595z"/><path d="m227.6138 463.6631c.7598-.1797 1.98-.2998 3.1802-.2998 1.7397 0 2.8599.2998 3.6797.9805.7002.5195 1.1401 1.3193 1.1401 2.3799 0 1.3193-.8799 2.46-2.2803 2.96v.0596c1.2803.2998 2.7803 1.3604 2.7803 3.3604 0 1.1602-.46 2.04-1.1602 2.7002-.9199.8594-2.4399 1.2598-4.6396 1.2598-1.2002 0-2.1201-.0801-2.7002-.1602zm1.7397 5.5205h1.5801c1.8203 0 2.8999-.9805 2.8999-2.2803 0-1.5596-1.1797-2.2002-2.9399-2.2002-.7998 0-1.2598.0605-1.54.1201v4.3604zm0 6.4394c.3604.0605.8403.0801 1.4604.0801 1.7998 0 3.46-.6602 3.46-2.6201 0-1.8193-1.5801-2.5996-3.48-2.5996h-1.4404z"/><path d="m238.4131 462.7432h1.7603v14.2002h-1.7603z"/><path d="m251.1929 474.3037c0 1 .02 1.8799.0801 2.6396h-1.5601l-.1001-1.5801h-.04c-.4399.7803-1.48 1.7998-3.2002 1.7998-1.5195 0-3.3398-.8594-3.3398-4.2393v-5.6602h1.7603v5.3398c0 1.8398.5796 3.0996 2.1597 3.0996 1.1802 0 2-.8193 2.3203-1.6201.0996-.2393.1597-.5596.1597-.8994v-5.9199h1.7603v7.0402z"/><path d="m255.1128 472.4033c.04 2.3799 1.54 3.3604 3.2998 3.3604 1.2603 0 2.04-.2207 2.6802-.4805l.3198 1.2402c-.6196.2803-1.6997.6201-3.2397.6201-2.96 0-4.7603-1.9805-4.7603-4.8799 0-2.9404 1.7402-5.2402 4.5601-5.2402 3.1602 0 3.98 2.7803 3.98 4.5596 0 .3604-.02.6406-.0596.8408zm5.1401-1.2597c.02-1.1006-.46-2.8604-2.4199-2.8604-1.8003 0-2.5601 1.6406-2.7002 2.8604z"/><path d="m105.6191 473.6426c.8398-.1602 1.9399-.2803 3.3398-.2803 1.7202 0 2.98.4004 3.7803 1.1201.7397.6396 1.1997 1.6201 1.1997 2.8203 0 1.2197-.3599 2.1797-1.0601 2.8799-.9199.9795-2.4199 1.4795-4.1196 1.4795-.52 0-1-.0195-1.4004-.1201v5.4004h-1.7397zm1.7398 6.4795c.3804.1006.8804.1406 1.4404.1406 2.1196 0 3.3799-1.04 3.3799-2.8604 0-1.7998-1.2603-2.6602-3.1802-2.6602-.7598 0-1.3398.0801-1.6401.1406z"/><path d="m124.0015 484.3027c0 1 .02 1.8799.0801 2.6396h-1.5601l-.1001-1.5801h-.04c-.4399.7803-1.48 1.7998-3.2002 1.7998-1.5195 0-3.3398-.8594-3.3398-4.2393v-5.6602h1.7603v5.3398c0 1.8398.5796 3.0996 2.1597 3.0996 1.1802 0 2-.8193 2.3203-1.6201.0996-.2393.1597-.5596.1597-.8994v-5.9199h1.7603v7.0402z"/><path d="m126.9414 480.2822c0-1.1396-.02-2.1201-.0801-3.0195h1.54l.0801 1.8994h.0601c.4399-1.2998 1.52-2.1201 2.6997-2.1201.1802 0 .3203.0205.48.0605v1.6396c-.1997-.0195-.3799-.04-.6196-.04-1.2402 0-2.1201.9404-2.3604 2.2402-.0396.2598-.0596.54-.0596.8398v5.1602h-1.7603z"/><path d="m133.5396 480.4229c0-1.2402-.02-2.2402-.0801-3.1602h1.5801l.1001 1.6602h.04c.6997-1.2002 1.8599-1.8809 3.4199-1.8809 2.3599 0 4.1201 1.9805 4.1201 4.9199 0 3.4805-2.1401 5.2002-4.3999 5.2002-1.3003 0-2.4004-.5596-2.9805-1.5195h-.0396v5.2598h-1.7603v-10.4795zm1.7602 2.5791c0 .2402.02.5.0796.7207.3003 1.2197 1.3804 2.0596 2.6201 2.0596 1.8599 0 2.9399-1.5195 2.9399-3.7402 0-1.9395-1-3.5996-2.8599-3.5996-1.2002 0-2.3398.8398-2.6802 2.1602-.04.2402-.0996.5-.0996.7197v1.6796z"/><path d="m144.9194 472.7422h1.7603v14.2002h-1.7603z"/><path d="m150.5991 482.4023c.04 2.3799 1.54 3.3604 3.2998 3.3604 1.2603 0 2.04-.2207 2.6802-.4805l.3198 1.2402c-.6196.2803-1.6997.6201-3.2397.6201-2.96 0-4.7603-1.9805-4.7603-4.8799 0-2.9404 1.7402-5.2402 4.5601-5.2402 3.1602 0 3.98 2.7803 3.98 4.5596 0 .3604-.02.6406-.0596.8408zm5.1402-1.2597c.02-1.1006-.46-2.8604-2.4199-2.8604-1.8003 0-2.5601 1.6406-2.7002 2.8604z"/><path d="m163.6992 480.9023v1.2803h-4.9399v-1.2803z"/><path d="m165.8188 473.6621c.7598-.1797 1.98-.2998 3.1802-.2998 1.7397 0 2.8599.2998 3.6797.9805.7002.5195 1.1401 1.3193 1.1401 2.3799 0 1.3193-.8799 2.46-2.2803 2.96v.0596c1.2803.2998 2.7803 1.3604 2.7803 3.3604 0 1.1602-.46 2.04-1.1602 2.7002-.9199.8594-2.4399 1.2598-4.6396 1.2598-1.2002 0-2.1201-.0801-2.7002-.1602zm1.7398 5.5205h1.5801c1.8203 0 2.8999-.9805 2.8999-2.2803 0-1.5596-1.1797-2.2002-2.9399-2.2002-.7998 0-1.2598.0605-1.54.1201v4.3604zm0 6.4395c.3604.0605.8403.0801 1.4604.0801 1.7998 0 3.46-.6602 3.46-2.6201 0-1.8193-1.5801-2.5996-3.48-2.5996h-1.4404z"/><path d="m176.6182 472.7422h1.7603v14.2002h-1.7603z"/><path d="m189.3979 484.3027c0 1 .02 1.8799.0801 2.6396h-1.5601l-.1001-1.5801h-.04c-.4399.7803-1.48 1.7998-3.2002 1.7998-1.5195 0-3.3398-.8594-3.3398-4.2393v-5.6602h1.7603v5.3398c0 1.8398.5796 3.0996 2.1597 3.0996 1.1802 0 2-.8193 2.3203-1.6201.0996-.2393.1597-.5596.1597-.8994v-5.9199h1.7603v7.0402z"/><path d="m193.3179 482.4023c.04 2.3799 1.54 3.3604 3.2998 3.3604 1.2603 0 2.04-.2207 2.6802-.4805l.3198 1.2402c-.6196.2803-1.6997.6201-3.2397.6201-2.96 0-4.7603-1.9805-4.7603-4.8799 0-2.9404 1.7402-5.2402 4.5601-5.2402 3.1602 0 3.98 2.7803 3.98 4.5596 0 .3604-.02.6406-.0596.8408zm5.1401-1.2597c.02-1.1006-.46-2.8604-2.4199-2.8604-1.8003 0-2.5601 1.6406-2.7002 2.8604z"/><path d="m155 267.3604 36 32" fill="none" stroke="#000"/><path d="m229 218.3604 29 46" fill="none" stroke="#000"/><path d="m328 209.3604 16 37" fill="none" stroke="#000"/><path d="m480 189.3604 10 75" fill="none" stroke="#000"/><path d="m545 229.3604 22 69" fill="none" stroke="#000"/><path d="m242.5938 452.9443 11.9995-44.998" fill="none" stroke="#000"/><path d="m307.0908 487.4424 56.9971-65.9961" fill="none" stroke="#000"/><path d="m532.668 340.3613 26.4072 15.1494" fill="none" stroke="#000"/><path d="m507.334 399.0273 35.2451 35.918" fill="none" stroke="#000"/><path d="m149 463.3604 2-59" fill="none" stroke="#000"/><path d="m348.374 349.248c-2.54 0-4.2803-2.3809-4.3193-6.6807 0-4.3799 1.8994-6.7607 4.5391-6.7607 2.7207 0 4.3008 2.4414 4.3008 6.5801 0 4.4199-1.6602 6.8613-4.5 6.8613zm.0801-1.3613c1.7803 0 2.6396-2.0996 2.6396-5.4199 0-3.1992-.7998-5.2988-2.6396-5.2988-1.6006 0-2.6396 2.0391-2.6396 5.2988-.041 3.3809 1 5.4199 2.6191 5.4199z"/><path d="m312.9004 359.0273v-1.0801l1.3789-1.3398c3.3203-3.1602 4.8408-4.8398 4.8408-6.8008 0-1.3193-.6201-2.5391-2.5596-2.5391-1.1807 0-2.1602.5996-2.7607 1.0996l-.5596-1.2402c.8799-.7402 2.1797-1.3203 3.6797-1.3203 2.7803 0 3.96 1.9209 3.96 3.7812 0 2.3994-1.7393 4.3398-4.4795 6.9795l-1.0205.96v.04h5.8203v1.46z"/><path d="m258.3403 337.0273v-3.54h-6.04v-1.1396l5.8003-8.3203h1.8999v8.0996h1.8198v1.3604h-1.8198v3.54h-1.6602zm0-4.9003v-4.3594c0-.6807.02-1.3604.0601-2.04h-.0601c-.3999.7598-.7197 1.3193-1.0801 1.9395l-3.1797 4.4199v.04z"/><path d="m212.3208 331.9131c-.3599-.0195-.8198.0205-1.3198.1006-2.7798.4395-4.2202 2.46-4.52 4.6201h.04c.6201-.8408 1.7202-1.5205 3.1602-1.5205 2.2998 0 3.9199 1.6797 3.9199 4.2002 0 2.3994-1.6201 4.5996-4.3403 4.5996-2.7598 0-4.5796-2.1602-4.5796-5.54 0-2.5596.8999-4.5801 2.1997-5.8799 1.0801-1.0596 2.52-1.7197 4.1602-1.9199.52-.0801.96-.0996 1.2798-.0996v1.4394zm-3.02 10.6406c1.5 0 2.52-1.2607 2.52-3.1201 0-1.8604-1.0601-2.9805-2.6797-2.9805-1.0601 0-2.0601.6406-2.54 1.6006-.1001.1992-.1802.4395-.1802.7598.02 2.1396 1.02 3.7402 2.8599 3.7402z"/><path d="m159.2603 337.4746c2.52 0 3.8003 1.5596 3.8003 3.2002 0 1.0996-.5601 2.2998-2.1602 3.0391v.0605c1.6201.6396 2.6201 1.7998 2.6201 3.3604 0 2.2793-1.9399 3.7793-4.4199 3.7793-2.7202 0-4.3604-1.5996-4.3604-3.5 0-1.6396.9805-2.8193 2.5601-3.5v-.0596c-1.46-.6797-2.0796-1.7998-2.0796-2.9199 0-2.0605 1.7397-3.46 4.0195-3.46zm-.0997 12.1602c1.5796 0 2.5996-.9805 2.5996-2.3203 0-1.5605-1.0996-2.3398-2.8599-2.8398-1.52.4395-2.3398 1.46-2.3398 2.7002-.0601 1.2998.9399 2.46 2.5801 2.46h.02zm.0401-10.9004c-1.4604 0-2.2603.96-2.2603 2.0801-.02 1.2998.98 2 2.48 2.3994 1.1201-.3799 1.98-1.1797 1.98-2.3594 0-1.04-.6201-2.1201-2.1797-2.1201z"/><path d="m102.3872 345.333h-.04l-2.2603 1.2207-.3398-1.3408 2.8398-1.5195h1.5v13h-1.6997z"/><path d="m112.9668 356.9131c-2.54 0-4.2803-2.3799-4.3198-6.6797 0-4.3799 1.8999-6.7598 4.5396-6.7598 2.7202 0 4.3003 2.4395 4.3003 6.5801 0 4.4199-1.6602 6.8594-4.5 6.8594zm.0801-1.3594c1.7798 0 2.6396-2.1006 2.6396-5.4199 0-3.2002-.7998-5.3008-2.6396-5.3008-1.6001 0-2.6401 2.04-2.6401 5.3008-.04 3.3799 1 5.4199 2.6201 5.4199z"/><path d="m53.7212 353.333h-.04l-2.2603 1.2207-.3398-1.3408 2.8398-1.5195h1.5v13h-1.6997z"/><path d="m60.1606 364.6934v-1.0801l1.3799-1.3398c3.3203-3.1602 4.8403-4.8398 4.8403-6.7998 0-1.3203-.6201-2.54-2.5601-2.54-1.1802 0-2.1602.5996-2.7603 1.0996l-.5601-1.2402c.8804-.7393 2.1802-1.3193 3.6802-1.3193 2.7803 0 3.96 1.9199 3.96 3.7793 0 2.4004-1.7397 4.3408-4.48 6.9805l-1.02.96v.04h5.8203v1.46h-8.3002z"/><path d="m415.9941 121.0005h-.0391l-2.2598 1.2197-.3398-1.3398 2.8398-1.52h1.5v13h-1.7012v-11.3599z"/><path d="m426.5742 132.5806c-2.5391 0-4.2793-2.3804-4.3203-6.6802 0-4.3799 1.9004-6.7603 4.541-6.7603 2.7207 0 4.2988 2.4404 4.2988 6.5801 0 4.4199-1.6582 6.8604-4.5 6.8604zm.0801-1.3604c1.7812 0 2.6406-2.1001 2.6406-5.4199 0-3.1997-.8008-5.2998-2.6406-5.2998-1.5996 0-2.6387 2.04-2.6387 5.2998-.041 3.3799 1 5.4199 2.6191 5.4199z"/><path d="m416.5352 202.1406c2.5215 0 3.8008 1.5596 3.8008 3.2002 0 1.0996-.5605 2.2998-2.1602 3.0391v.0605c1.6191.6396 2.6191 1.7998 2.6191 3.3604 0 2.2793-1.9395 3.7793-4.4199 3.7793-2.7188 0-4.3594-1.5996-4.3594-3.5 0-1.6396.9805-2.8193 2.5605-3.5v-.0596c-1.4609-.6797-2.0801-1.7998-2.0801-2.9199 0-2.0605 1.7402-3.46 4.0195-3.46zm-.0997 12.1602c1.5801 0 2.5996-.9805 2.5996-2.3203 0-1.5605-1.0996-2.3398-2.8594-2.8398-1.5195.4395-2.3398 1.46-2.3398 2.7002-.0605 1.2998.9395 2.46 2.5801 2.46h.0195zm.0411-10.9004c-1.4609 0-2.2598.96-2.2598 2.0801-.0215 1.2998.9785 2 2.4785 2.3994 1.1211-.3799 1.9805-1.1797 1.9805-2.3594 0-1.04-.6191-2.1201-2.1797-2.1201z"/><path d="m416.3164 550.5801c-2.541 0-4.2812-2.3799-4.3203-6.6797 0-4.3799 1.9004-6.7598 4.5391-6.7598 2.7207 0 4.3008 2.4395 4.3008 6.5801 0 4.4199-1.6602 6.8594-4.5 6.8594zm.0801-1.3594c1.7793 0 2.6387-2.1006 2.6387-5.4199 0-3.2002-.7988-5.3008-2.6387-5.3008-1.6016 0-2.6406 2.04-2.6406 5.3008-.0391 3.3799 1 5.4199 2.6191 5.4199z"/><path d="m412.1758 468.3604v-1.0801l1.3809-1.3398c3.3184-3.1602 4.8398-4.8398 4.8398-6.7998 0-1.3203-.6211-2.54-2.5605-2.54-1.1797 0-2.1602.5996-2.7598 1.0996l-.5605-1.2402c.8809-.7393 2.1797-1.3193 3.6797-1.3193 2.7812 0 3.9609 1.9199 3.9609 3.7793 0 2.4004-1.7402 4.3408-4.4805 6.9805l-1.0195.96v.04h5.8203v1.46h-8.3008z"/><path d="m419.5957 289.5801c-.3594-.0195-.8203.0205-1.3203.1006-2.7793.4395-4.2188 2.46-4.5195 4.6201h.0391c.6211-.8408 1.7207-1.5205 3.1602-1.5205 2.3008 0 3.9199 1.6797 3.9199 4.2002 0 2.3994-1.6191 4.5996-4.3398 4.5996-2.7598 0-4.5801-2.1602-4.5801-5.54 0-2.5596.9004-4.5801 2.2012-5.8799 1.0801-1.0596 2.5195-1.7197 4.1602-1.9199.5195-.0801.959-.0996 1.2793-.0996v1.4394zm-3.0195 10.6406c1.5 0 2.5195-1.2607 2.5195-3.1201 0-1.8604-1.0605-2.9805-2.6797-2.9805-1.0605 0-2.0605.6406-2.541 1.6006-.0996.1992-.1797.4395-.1797.7598.0215 2.1396 1.0215 3.7402 2.8613 3.7402z"/><path d="m417.6152 384.3604v-3.54h-6.0391v-1.1396l5.7988-8.3203h1.9004v8.0996h1.8203v1.3604h-1.8203v3.54h-1.6601zm0-4.9004v-4.3594c0-.6807.0215-1.3604.0605-2.04h-.0605c-.3984.7598-.7188 1.3193-1.0801 1.9395l-3.1797 4.4199v.04z"/><path d="m419.9355 331.3408h-4.959l-.5 3.2998c.2988-.04.5801-.0801 1.0586-.0801 1.0215 0 2 .2197 2.8008.7002 1.0195.5596 1.8594 1.6992 1.8594 3.3799 0 2.54-2.0195 4.4395-4.8398 4.4395-1.4199 0-2.5996-.3994-3.2402-.7998l.4414-1.3398c.5391.3203 1.5996.7197 2.7988.7197 1.6406 0 3.0801-1.0801 3.0605-2.8398 0-1.7197-1.1406-2.9004-3.7207-2.9004-.7598 0-1.3398.0605-1.8203.1406l.8418-6.2002h6.2188v1.4804z"/><path d="m137.793 147.6104v42.9633" fill="none" stroke="#14315d" stroke-width="1.5"/><path d="m137.793 196.6084c-1.0537-2.8398-2.8511-6.3628-4.7544-8.5459l4.7544 1.7192 4.7544-1.7192c-1.9034 2.1831-3.7012 5.7061-4.7544 8.5459z" fill="#14315d"/><path d="m137.793 34.5737v103.5367" fill="none" stroke="#14315d" stroke-width="1.5"/><path d="m137.793 28.5391c1.0537 2.8398 2.8511 6.3628 4.7544 8.5459l-4.7544-1.7192-4.7544 1.7192c1.9033-2.1831 3.7011-5.7061 4.7544-8.5459z" fill="#14315d"/><path d="m143.4951 83.6719c7.5166.2417 14.7109.9556 21.4058 2.0698" fill="none" stroke="#0b3a18" stroke-width="1.5"/><path d="m170.8535 86.7324c-2.9741.5732-6.7446 1.7681-9.2104 3.2866l2.4766-4.4072-.9155-4.9722c1.8412 2.2354 5.0214 4.5879 7.6493 6.0928z" fill="#0b3a18"/><path d="m206.0825 103.5732c2.541 3.0298 3.9209 6.2817 3.9209 9.6665 0 16.3789-32.3296 29.6592-72.2104 29.6592s-72.2104-13.2803-72.2104-29.6592c0-15.6523 29.5122-28.4692 66.9258-29.5806" fill="none" stroke="#0b3a18" stroke-width="1.5"/><path d="m202.2046 98.9497c2.6323 1.4985 6.2734 3.0425 9.1348 3.4927l-4.748 1.7378-2.5376 4.3726c.0546-2.8961-.8311-6.751-1.8492-9.6031z" fill="#0b3a18"/><path d="m125.7925 116.4033-87.501 23.0625" fill="none" stroke="#591d24" stroke-width="1.5"/><path d="m32.4561 141.0039c2.4775-1.7427 5.4258-4.3789 7.0522-6.7754l-.4512 5.0356 2.8745 4.1587c-2.5962-1.2836-6.4614-2.1245-9.4755-2.4189z" fill="#591d24"/><path d="m131.6279 114.8652c-2.4775 1.7427-5.4258 4.3789-7.0522 6.7754l.4512-5.0356-2.8745-4.1587c2.5961 1.2837 6.4614 2.1245 9.4755 2.4189z" fill="#591d24"/><path d="m35.2129 159.9873c-.6201.3198-1.9199.6401-3.5601.6401-3.7998 0-6.6396-2.4004-6.6396-6.8403 0-4.2397 2.8599-7.0801 7.0396-7.0801 1.6602 0 2.7402.3604 3.2002.6001l-.4399 1.4199c-.6401-.3198-1.5801-.5601-2.7002-.5601-3.1597 0-5.2598 2.02-5.2598 5.5601 0 3.3203 1.8999 5.4204 5.1602 5.4204 1.0796 0 2.1597-.2202 2.8599-.5601z" fill="#591d24"/><path d="m37.2939 146.207h1.7603v6.04h.0396c.2803-.5.7202-.96 1.2603-1.2397.52-.3203 1.1401-.5 1.7998-.5 1.3003 0 3.3804.7998 3.3804 4.1401v5.7598h-1.7603v-5.5601c0-1.5801-.5801-2.8799-2.2397-2.8799-1.1401 0-2.02.7998-2.3604 1.7598-.0996.2402-.1196.5-.1196.8403v5.8398h-1.7603v-14.2001z" fill="#591d24"/><path d="m48.4141 153.7471c0-1.1396-.02-2.1196-.0801-3.02h1.54l.0801 1.9004h.0601c.4399-1.3003 1.52-2.1201 2.6997-2.1201.1802 0 .3203.02.48.0601v1.6396c-.1997-.02-.3799-.04-.6196-.04-1.2402 0-2.1201.9404-2.3604 2.2402-.04.2598-.0596.54-.0596.8398v5.1602h-1.7603z" fill="#591d24"/><path d="m58.7563 160.6274c-2.6001 0-4.6401-1.9204-4.6401-4.98 0-3.2402 2.1401-5.1401 4.8003-5.1401 2.7798 0 4.6602 2.02 4.6602 4.96 0 3.6001-2.5 5.1602-4.8003 5.1602h-.0201zm.0601-1.3203c1.6802 0 2.9399-1.5801 2.9399-3.7798 0-1.6401-.8198-3.7002-2.8999-3.7002-2.0601 0-2.96 1.9199-2.96 3.7603 0 2.1196 1.2002 3.7197 2.8999 3.7197z" fill="#591d24"/><path d="m65.7964 153.3472c0-1.02-.04-1.8198-.0801-2.6201h1.54l.0801 1.5601h.0601c.54-.9199 1.4399-1.7798 3.0601-1.7798 1.2998 0 2.2998.7998 2.7197 1.9399h.04c.3003-.5601.7002-.96 1.1001-1.2603.5801-.4399 1.2002-.6797 2.1201-.6797 1.2998 0 3.1997.8398 3.1997 4.1997v5.7002h-1.7197v-5.48c0-1.8799-.7002-2.98-2.1001-2.98-1.02 0-1.7798.7397-2.1001 1.5801-.0801.2598-.1401.5801-.1401.8799v6h-1.7197v-5.7998c0-1.5601-.6802-2.6602-2.02-2.6602-1.0801 0-1.8999.8799-2.1802 1.7598-.0996.2603-.1396.5601-.1396.8604v5.8398h-1.7202v-7.06z" fill="#591d24"/><path d="m89.2964 158.0874c0 .8398.04 1.6597.1401 2.3198h-1.5801l-.1597-1.2202h-.0601c-.52.7603-1.5801 1.4404-2.96 1.4404-1.96 0-2.96-1.3804-2.96-2.7803 0-2.3398 2.0796-3.6201 5.8198-3.6001v-.1997c0-.8003-.2202-2.2603-2.2002-2.2402-.9199 0-1.8599.2603-2.54.7202l-.3999-1.1802c.8003-.5 1.98-.8398 3.2002-.8398 2.98 0 3.6997 2.02 3.6997 3.96v3.6201zm-1.7197-2.6201c-1.9199-.04-4.1001.2998-4.1001 2.1802 0 1.1597.7603 1.6797 1.6401 1.6797 1.2798 0 2.1001-.7998 2.3799-1.6201.0601-.1797.0801-.3799.0801-.5596z" fill="#591d24"/><path d="m89.5229 52.6572-4.4199-13.48h1.8999l2.1001 6.6401c.5601 1.8198 1.0601 3.48 1.4399 5.04h.04c.3799-1.5601.9199-3.2603 1.54-5.02l2.2798-6.6602h1.8604l-4.8203 13.48h-1.9199z" fill="#14315d"/><path d="m103.7651 50.3374c0 .8398.04 1.6597.1401 2.3198h-1.5801l-.1597-1.2202h-.0601c-.52.7603-1.5801 1.4404-2.96 1.4404-1.96 0-2.96-1.3804-2.96-2.7803 0-2.3398 2.0796-3.6201 5.8198-3.6001v-.1997c0-.8003-.2202-2.2603-2.2002-2.2402-.9199 0-1.8599.2603-2.54.7202l-.3999-1.1802c.8003-.5 1.98-.8398 3.2002-.8398 2.98 0 3.6997 2.02 3.6997 3.96v3.6201zm-1.7197-2.6201c-1.9199-.04-4.1001.2998-4.1001 2.1802 0 1.1597.7603 1.6797 1.6401 1.6797 1.2798 0 2.1001-.7998 2.3799-1.6201.0601-.1797.0801-.3799.0801-.5596z" fill="#14315d"/><path d="m106.585 38.457h1.7603v14.2002h-1.7603z" fill="#14315d"/><path d="m119.3647 50.0171c0 1 .02 1.8804.0801 2.6401h-1.5601l-.1001-1.5801h-.04c-.4399.7803-1.48 1.8003-3.1997 1.8003-1.52 0-3.3403-.8604-3.3403-4.2402v-5.6602h1.7603v5.3403c0 1.8398.5801 3.0996 2.1597 3.0996 1.1802 0 2-.8198 2.3203-1.6196.1001-.2402.1597-.5601.1597-.8999v-5.9204h1.7603v7.0401z" fill="#14315d"/><path d="m123.2847 48.1172c.04 2.3799 1.54 3.3599 3.2998 3.3599 1.2603 0 2.04-.2197 2.6802-.48l.3198 1.2402c-.6196.2798-1.6997.6201-3.2397.6201-2.96 0-4.7603-1.98-4.7603-4.8804 0-2.9399 1.7402-5.2397 4.5601-5.2397 3.1602 0 3.98 2.7798 3.98 4.5601 0 .3599-.02.6396-.0601.8398zm5.1401-1.2598c.02-1.1001-.46-2.8604-2.4199-2.8604-1.8003 0-2.5601 1.6401-2.7002 2.8604z" fill="#14315d"/><path d="m179.8027 79.6772v5.6401h6.52v-5.6401h1.7603v13.48h-1.7603v-6.3198h-6.52v6.3198h-1.7598v-13.48z" fill="#0b3a18"/><path d="m199.1431 90.5171c0 1 .02 1.8804.0801 2.6401h-1.5601l-.1001-1.5801h-.04c-.4399.7803-1.48 1.8003-3.1997 1.8003-1.52 0-3.3403-.8604-3.3403-4.2402v-5.6602h1.7603v5.3403c0 1.8398.5801 3.0996 2.1597 3.0996 1.1802 0 2-.8198 2.3203-1.6196.1001-.2402.1597-.5601.1597-.8999v-5.9204h1.7603v7.0401z" fill="#0b3a18"/><path d="m203.0625 88.6172c.04 2.3799 1.54 3.3599 3.2998 3.3599 1.2603 0 2.04-.2197 2.6802-.48l.3198 1.2402c-.6196.2798-1.6997.6201-3.2397.6201-2.96 0-4.7603-1.98-4.7603-4.8804 0-2.9399 1.7402-5.2397 4.5601-5.2397 3.1602 0 3.98 2.7798 3.98 4.5601 0 .3599-.02.6396-.0596.8398zm5.1401-1.2598c.02-1.1001-.46-2.8604-2.4199-2.8604-1.8003 0-2.5601 1.6401-2.7002 2.8604z" fill="#0b3a18"/><path d="m289.4136 45.084c-.1504-2.8203-.3301-6.2402-.3301-8.7305h-.0601c-.7202 2.3403-1.5303 4.8901-2.5503 7.6802l-3.5698 9.8101h-1.98l-3.2998-9.6299c-.9604-2.8799-1.7402-5.46-2.3101-7.8604h-.0601c-.0601 2.52-.21 5.8804-.3901 8.9404l-.54 8.6699h-2.4897l1.4097-20.2202h3.3301l3.4502 9.7803c.8398 2.4897 1.5 4.71 2.04 6.8101h.0601c.54-2.04 1.2598-4.2603 2.1597-6.8101l3.6001-9.7803h3.3301l1.2603 20.2202h-2.5801z"/><path d="m308.6406 50.0039c0 1.5.0303 2.8198.1201 3.96h-2.3398l-.1504-2.3701h-.0596c-.6602 1.1699-2.2197 2.7002-4.7998 2.7002-2.2803 0-5.0103-1.29-5.0103-6.3604v-8.4897h2.6401v8.0098c0 2.7603.8701 4.6504 3.2402 4.6504 1.7695 0 3-1.23 3.4795-2.4302.1504-.3599.2402-.8398.2402-1.3501v-8.8799h2.6396v10.56z"/><path d="m313.0215 43.374c0-1.5303-.0303-2.7305-.1201-3.9302h2.3398l.1494 2.3701h.0605c.7197-1.3501 2.4004-2.7002 4.7998-2.7002 2.0098 0 5.1299 1.2002 5.1299 6.1802v8.6699h-2.6396v-8.3701c0-2.3398-.8701-4.3198-3.3604-4.3198-1.71 0-3.0596 1.23-3.54 2.6997-.1201.3301-.1797.8101-.1797 1.23v8.7603h-2.6396z"/><path d="m329.3105 51.2939c.8096.48 2.1904 1.02 3.5098 1.02 1.8906 0 2.79-.9302 2.79-2.1602 0-1.2598-.75-1.9502-2.6699-2.6699-2.6396-.96-3.8701-2.3701-3.8701-4.1099 0-2.3403 1.9199-4.2603 5.0098-4.2603 1.4707 0 2.7607.3901 3.54.8999l-.6299 1.8901c-.5693-.3301-1.6201-.8398-2.9697-.8398-1.5596 0-2.4004.8999-2.4004 1.98 0 1.23.8408 1.77 2.7305 2.4897 2.4902.9302 3.8096 2.1899 3.8096 4.3804 0 2.5796-2.0098 4.3799-5.3994 4.3799-1.5898 0-3.0605-.4199-4.0801-1.02z"/><path d="m343.0508 47.1538c.0596 3.5698 2.3096 5.04 4.9492 5.04 1.8906 0 3.0605-.3301 4.0205-.7202l.4795 1.8604c-.9297.4199-2.5498.9297-4.8594.9297-4.4404 0-7.1406-2.9697-7.1406-7.3198 0-4.4102 2.6104-7.8599 6.8408-7.8599 4.7393 0 5.9697 4.1699 5.9697 6.8398 0 .54-.0303.96-.0898 1.2598zm7.7099-1.8901c.0293-1.6499-.6904-4.29-3.6299-4.29-2.7002 0-3.8408 2.46-4.0508 4.29z"/><path d="m356.5801 32.6636h2.6396v21.3003h-2.6396z"/><path d="m363.5996 32.6636h2.6396v21.3003h-2.6396z"/><path d="m391.168 53.334c-.9297.48-2.8799.96-5.3398.96-5.7002 0-9.96-3.6001-9.96-10.2603 0-6.3599 4.29-10.6201 10.5596-10.6201 2.4902 0 4.1104.54 4.8008.8999l-.6602 2.1304c-.96-.48-2.3701-.8403-4.0498-.8403-4.7402 0-7.8906 3.0303-7.8906 8.3403 0 4.98 2.8506 8.1299 7.7402 8.1299 1.6201 0 3.2402-.3301 4.29-.8398z"/><path d="m399.8994 54.2939c-3.8994 0-6.96-2.8799-6.96-7.4702 0-4.8599 3.21-7.71 7.2002-7.71 4.1699 0 6.9902 3.0298 6.9902 7.4399 0 5.3999-3.75 7.7402-7.2002 7.7402h-.0302zm.0908-1.9799c2.5195 0 4.4092-2.3701 4.4092-5.6699 0-2.4604-1.2295-5.5503-4.3496-5.5503-3.0898 0-4.4404 2.8799-4.4404 5.6401 0 3.1802 1.8008 5.5801 4.3506 5.5801z"/><path d="m410.459 32.6636h2.6396v21.3003h-2.6396z"/><path d="m423.3877 54.2939c-3.8994 0-6.96-2.8799-6.96-7.4702 0-4.8599 3.21-7.71 7.2002-7.71 4.1699 0 6.9902 3.0298 6.9902 7.4399 0 5.3999-3.75 7.7402-7.2002 7.7402h-.0302zm.0908-1.9799c2.5195 0 4.4092-2.3701 4.4092-5.6699 0-2.4604-1.2295-5.5503-4.3496-5.5503-3.0898 0-4.4404 2.8799-4.4404 5.6401 0 3.1802 1.8008 5.5801 4.3506 5.5801z"/><path d="m433.9785 43.9736c0-1.71-.0293-3.1797-.1201-4.5298h2.3105l.1201 2.8501h.0898c.6602-1.9502 2.2803-3.1802 4.0498-3.1802.2705 0 .4805.0298.7197.0898v2.46c-.2998-.0298-.5693-.0596-.9297-.0596-1.8604 0-3.1797 1.4097-3.54 3.3599-.0596.3901-.0898.8101-.0898 1.2598v7.7402h-2.6396z"/><path d="m449.877 50.7837c1.1699.75 2.8496 1.3203 4.6494 1.3203 2.6709 0 4.2305-1.3804 4.2305-3.4502 0-1.8599-1.0801-2.9702-3.8096-3.9902-3.3008-1.1997-5.3408-2.9399-5.3408-5.7598 0-3.1499 2.6104-5.4902 6.54-5.4902 2.04 0 3.5703.48 4.4404.9902l-.7197 2.1299c-.6299-.3901-1.9805-.96-3.8105-.96-2.7598 0-3.8096 1.6499-3.8096 3.0298 0 1.8901 1.2295 2.8203 4.0195 3.9004 3.4199 1.3501 5.1299 2.9697 5.1299 5.9399 0 3.1201-2.2793 5.8501-7.0498 5.8501-1.9502 0-4.0801-.6001-5.1602-1.3203z"/><path d="m465.6338 39.4438 3.1494 8.5801c.3604.96.7207 2.1001.96 2.9697h.0605c.2695-.8696.5693-1.98.9297-3.0298l2.8799-8.52h2.79l-3.96 10.3501c-1.8896 4.98-3.1797 7.5298-4.9795 9.1201-1.3203 1.1099-2.5801 1.5601-3.2402 1.6797l-.6602-2.2197c.6602-.1802 1.5303-.6001 2.3096-1.29.7207-.5703 1.5908-1.5903 2.2207-2.9399.1201-.27.21-.4502.21-.6304 0-.1499-.0605-.3599-.21-.6597l-5.3408-13.4102z"/><path d="m478.3252 51.2939c.8096.48 2.1895 1.02 3.5098 1.02 1.8906 0 2.79-.9302 2.79-2.1602 0-1.2598-.75-1.9502-2.6699-2.6699-2.6396-.96-3.8701-2.3701-3.8701-4.1099 0-2.3403 1.9199-4.2603 5.0098-4.2603 1.4707 0 2.7607.3901 3.54.8999l-.6299 1.8901c-.5693-.3301-1.6201-.8398-2.9697-.8398-1.5596 0-2.4004.8999-2.4004 1.98 0 1.23.8408 1.77 2.7305 2.4897 2.4902.9302 3.8096 2.1899 3.8096 4.3804 0 2.5796-2.0098 4.3799-5.3994 4.3799-1.5898 0-3.0605-.4199-4.0801-1.02z"/><path d="m493.7461 35.9639v3.48h3.7803v2.0098h-3.7803v7.8301c0 1.8003.5098 2.8203 1.9795 2.8203.7207 0 1.1406-.0601 1.5303-.1802l.1201 2.0103c-.5098.1797-1.3203.3599-2.3398.3599-1.2305 0-2.2197-.4199-2.8506-1.1099-.7197-.8101-1.0195-2.1001-1.0195-3.8101v-7.9204h-2.25v-2.0098h2.25v-2.6699z"/><path d="m501.8203 47.1538c.0596 3.5698 2.3096 5.04 4.9492 5.04 1.8906 0 3.0605-.3301 4.0205-.7202l.4795 1.8604c-.9297.4199-2.5498.9297-4.8594.9297-4.4404 0-7.1406-2.9697-7.1406-7.3198 0-4.4102 2.6104-7.8599 6.8408-7.8599 4.7393 0 5.9697 4.1699 5.9697 6.8398 0 .54-.0303.96-.0898 1.2598zm7.71-1.8901c.0293-1.6499-.6904-4.29-3.6299-4.29-2.7002 0-3.8408 2.46-4.0508 4.29z"/><path d="m515.3496 43.374c0-1.5303-.0605-2.7305-.1201-3.9302h2.3096l.1201 2.3398h.0898c.8105-1.3799 2.1602-2.6699 4.5898-2.6699 1.9502 0 3.4502 1.2002 4.0801 2.9102h.0605c.4502-.8403 1.0498-1.4399 1.6494-1.8901.8701-.6602 1.8008-1.02 3.1807-1.02 1.9502 0 4.7998 1.2598 4.7998 6.2998v8.5503h-2.5801v-8.2202c0-2.8198-1.0498-4.4697-3.1504-4.4697-1.5293 0-2.6699 1.1099-3.1494 2.3696-.1201.3901-.21.8701-.21 1.3203v9h-2.5801v-8.7002c0-2.3398-1.0205-3.9897-3.0303-3.9897-1.6201 0-2.8496 1.3198-3.2695 2.6396-.1504.3901-.2109.8403-.2109 1.29v8.7603h-2.5791v-10.5899z"/></svg>