<?xml version="1.0" encoding="utf-8"?>
<!-- Generator: Adobe Illustrator 24.3.0, SVG Export Plug-In . SVG Version: 6.00 Build 0)  -->
<svg version="1.1" id="Layer_1" xmlns="http://www.w3.org/2000/svg" xmlns:xlink="http://www.w3.org/1999/xlink" x="0px" y="0px"
	 viewBox="0 0 420.9 595.3" style="enable-background:new 0 0 420.9 595.3;" xml:space="preserve">
<style type="text/css">
	.st0{fill:#87BD46;}
	.st1{fill:#FFFFFF;}
	.st2{fill:#62B94F;}
	.st3{fill:#69B86F;}
	.st4{fill:#5DBED2;}
	.st5{fill:#2D75AF;}
	.st6{fill:#2E559B;}
	.st7{fill:#504F9A;}
	.st8{fill:#9F569A;}
	.st9{fill:#E63A30;}
	.st10{fill:#EB8238;}
	.st11{fill:#ECDF32;}
	.st12{fill:#E62A89;}
</style>
<g id="KzPyu6">
	<g>
		<path d="M74.5,270.2l8.8-7.4c-3.1-6.8-5.7-13.8-9.3-20.3c-9.5-16.5-13.6-34.6-17.2-52.9c-1.5-6.9-3.5-13.7-6.1-20.3
			c-2.1-5.7-7.5-6.7-12.1-2.4c-4.7,4.1-7.5,10-7.7,16.3c-0.7,15.6,1.1,30.9,7.6,45.4c8,17.9,11,37.1,14.7,56.1
			c0.7,3.9,1.3,7.7,2.3,11.5C58.5,309,58.8,322,60,335c1.9,20.2,4.8,40.4,7.1,60.5c2.6,23.1,9.3,45.1,17,67
			c5.7,16.5,10,33.5,15,50.3c0.5,1.6,0.9,3.2,1.4,5c20.6,3.5,41.3-2.4,61.7,0.5v1.6c-10.1,0.6-20.1,1.5-30.2,1.8S112,522,101,522
			l1.6,6.4l27.2-3l0.2,1.4c-4.5,0.6-9,1.1-13.4,1.8c-3.6,0.6-7.1,1.6-10.7,2.2c-1.2,0.2-2.5,0-3.6-0.6c-1.4-1-2.8-2.1-4-3.3
			c-4.2-19.3-8.5-38.4-15.6-56.7C69.9,437,63.3,402.6,59.8,367.3c-3.8-37-6.7-74.3-16.7-110.4c-2.6-9.3-5.7-18.5-9.3-27.5
			c-6.1-15.1-8.4-31.5-6.5-47.7c0.8-7.4,3.8-14,10.3-18.4c7.2-4.9,13.6-3.4,16.6,4.7c3,8,5.4,16.2,7.3,24.6
			c3.9,17.5,8.6,34.7,17.2,50.6c7.4,13.6,13.7,27.7,20.5,41.6c1,1.9,2.4,3.6,4.2,6.1c2.6-4.8,2.4-9,1.8-13.1
			c-1.4-9.8-2.9-19.6-4.9-29.2c-5-24.1-6-48.5-6.4-72.9c-0.3-15.9-1-31.7-1.1-47.6c0-8.9,3.1-17.1,10-22.9
			c8.1-6.7,16.7-7.8,23.1-1.1c3.2,3.4,5.2,8.5,6.6,13.2c4.1,14.3,3.4,29.2,4.7,43.8c1.5,17.2,4.1,34.4,6.5,51.6
			c2.1,14.8,4.7,29.5,7.1,44.2c0.4,2.5,1.1,4.9,1.6,7.3h1.6c0.8-4.1,2.3-8.1,2.2-12.2c-0.2-12.5-1.2-25-1.5-37.4
			c-0.3-13.8-1.1-27.7-0.2-41.4c1.5-22,1.4-44,0.8-66c-0.2-8.7,0.4-17.5,1-26.2c0.9-13.4,11.9-19,24.9-14
			c9.9,3.7,15.2,11.2,16.5,21.4c1.2,8.9,2.3,17.8,2.9,26.7c1.5,19.9,3.4,39.8,4,59.7c0.5,17-0.6,34-0.9,51c-0.1,7.1,0,14.2,0.1,21.3
			c0,2.8,0.3,5.6,0.7,8.4c0.5,3.3,0.8,7,4.9,7.9c2.4,0.6,6.5-3.6,7.3-7.5c1.3-6.6,2.4-13.2,3.4-19.9c4.3-28,8.6-56,12.9-84
			c1.8-12,3.2-24,5.3-36c1-6.1,2.6-12,4.7-17.8c2.1-5.8,7.9-8.7,13.9-8.1c11.6,1.3,19.7,8,22.9,19.2c3.5,11.7,4.7,23.9,3.7,36
			c-1.7,18.2-2.9,36.5-5.1,54.6c-1.9,15.7-4.9,31.3-7.1,47c-3,21.2-6.5,42.4-6.1,64c0.3,15.1,5.5,28.5,14.5,40.4
			c2.2,2.9,5.3,5.1,8.1,7.7c8.2-7.8,13.8-16.6,18.9-25.6c3.5-6.1,6.5-12.6,10-18.8c8.8-15.7,19.4-30.2,32.5-42.5
			c5.2-4.8,11-8.9,17.3-12.3c7.3-4,15.9-4.9,23.8-2.3c10.9,3.4,16,21.6,7.9,29.3c-0.4,0.4-0.7,0.9-1.1,1.3
			c-17.4,16.1-26.1,37.2-35,58.5c-9.2,22.3-15,45.7-21.8,68.7c-3.5,12.2-10.2,23.3-19.2,32.2c-16.2,16-32.2,32.2-47.9,48.7
			c-9.8,10.2-20,20.2-24.6,33.2c-6.9,3.7-13.1,1.1-19.1,0.2c-10.6-1.7-21.1-2.6-31.6,0.2c-0.5,0-1.1,0-1.6-0.1l-0.2-1.1
			c3.3-0.7,6.7-1.8,10-1.9c10.6-0.3,21.3-0.2,31.6,2.9c3.4,1,6.6,0.9,8.5-3c8.1-16.6,21-29.4,33.5-42.4c14.8-15.3,30-30.2,44.5-45.8
			c4.1-4.5,7.3-9.9,9.3-15.7c6.4-18.9,11.7-38.1,18.1-57c6.4-19.1,12.8-38.2,23.7-55.4c5.5-8.5,11.9-16.4,19-23.6
			c5.5-5.8,6.1-13.4,2.1-20c-2.5-4.1-6-7-10.8-7c-5.1,0-10.7,0.2-15.3,2.1c-8.5,3.6-16,8.9-22.2,15.8c-13.9,15.3-25.7,32.5-35,51
			c-4.6,9.1-10.8,17.4-16.2,26.1c-3.1,4.9-7.6,8.8-12.8,11.3c-3.8,1.9-7.6,4-11.5,5.8c-1.3,0.4-2.7,0.7-4.1,0.7l-0.5-1.6
			c5.6-3,11.3-6.1,17.5-9.4c-8.8-6.5-14.2-15-19-25c-5.6,0.9-11.4,1.6-17.2,2.9C189.5,352.4,135.2,377,85.5,412
			c-1.1,0.8-2.1,1.5-3.3,2.1c-0.6,0.2-1.3,0.1-1.8-0.2c26.6-21.1,56-37.5,87.1-51.1s63.4-23.8,97-29c-1-7.6-2.3-14.9-3-22.3
			c-1.3-14,0.7-28,2.8-41.8c3.7-25.6,8.1-51.2,11.5-76.9c2.6-19.6,4.7-39.3,4-59.1c-0.3-9.9-1.2-19.8-6-28.8
			c-3.5-6.6-9.2-10.1-16.4-11.2c-6.3-1-10.3,1.2-11.9,7.4c-2.1,8.1-3.6,16.3-5,24.6c-4.1,24.6-8.1,49.3-11.9,74
			c-2.4,15.7-4.1,31.4-6.4,47.1c-0.5,4.3-1.4,8.4-2.9,12.5c-2.7,7.1-10.3,9.6-15.3,5.4c-3-2.5-4.1-6.1-4.1-10
			c0.1-12.5,0.1-25,0.2-37.5c0-2,0-4,0-6.7l-10.9,1l-0.1-0.8l11.6-2.5c0-3.6-0.1-7.5,0-11.3c0.9-20.9,0-41.8-2.7-62.6
			c-1.8-13.5-2.5-27.1-3.8-40.7c-0.4-3.7-1.4-7.3-2-11C190.4,72,175.6,66.1,165,71.4c-2.1,1-3.9,4.2-4.2,6.6c-1.1,9-2.6,18.2-2,27.2
			c1.6,24.7,0.6,49.2-1.1,73.8c-0.9,13.6-0.1,27.1,1,40.7c1.1,12.6,0,25.3-0.2,38c-0.2,2-0.4,4.1-0.9,6.1c-0.3,2.2-1.2,4.1-3.8,4.1
			s-4.8-1.2-5.4-3.9c-0.7-3.5-1.2-7-1.8-10.5c-3.3-19.5-6.5-39-9.8-58.5c-2.6-15.3-4.3-30.7-3.9-46.2c0.3-10.8-1.4-21.2-3.8-31.6
			c-0.7-2.7-1.8-5.3-3.3-7.7c-4.2-6.8-12.5-8.1-18.8-3.1c-8,6.4-11.6,14.8-11.3,25c0.2,7.6,0.7,15.3,1.1,22.9
			c1,20.7,2.1,41.4,3.1,62.1c0.9,18.3,4.5,36.2,8.3,54.1c1.3,6,0.7,12.6,0,18.9c-0.7,5.7-4.2,6.7-8.5,2.9c-2.1-2.1-3.9-4.5-5.3-7.1
			c-3.7-6.6-7.2-13.4-10.7-20.1l-9.4,4.7L74.5,270.2z"/>
		<path d="M236.9,495.8c-4.5-2.7-9.3-5.1-13.6-8.2c-17.4-12.5-29.2-29.1-32-50.5c-2.6-19.9,3-38.5,14.4-55.1
			c14.5-21.1,34.5-34.1,59.3-40c0.7,0,1.5,0.1,2.2,0.3c-3.2,1.1-5.5,1.9-7.8,2.7c-24.6,8.8-43.6,24.2-55.3,47.6
			c-19.9,39.5-5.9,77,28.5,98.8c1.6,1,3.3,2,5,3L236.9,495.8z"/>
		<path d="M229.7,276c-1,1.8-1.7,4-3.2,5.3c-35.6,31.8-73.8,59.5-119,76.1c-9,3.3-18.6,5.2-28,7.6c-1,0.3-2.2,0-4.2,0
			c1.5-0.8,2.2-1.5,3-1.6c25.1-4.8,47.8-15.4,69.7-28.1c27.9-16.3,53.9-35.7,77.4-57.8c0.9-0.9,1.9-1.7,2.9-2.6L229.7,276z"/>
		<path d="M74.4,270.1l-0.2,1.9l8-2l0.2,0.9l-27.3,9.3l1.4-2.4l-2.8-2.3c0.4-0.3,0.7-0.6,0.9-0.5c5.8,2.4,10.3-0.8,15.1-3.2
			c1.6-0.7,3.2-1.2,4.9-1.6L74.4,270.1z"/>
		<path d="M107.8,220.6h7.6l0.3,0.9c-1.8,0.3-3.5,0.5-5.3,0.8s-3.7,0.6-5.5,0.9c0.2-3.5,2.3-4.6,5.2-5.2c8.2-1.7,16.6-1.7,24.8,0.1
			C126.3,219,117.4,216.8,107.8,220.6z"/>
		<path d="M237.4,160c11.4-4.4,31-1.3,34.6,6.5c-5.2-5.7-11.1-6.1-16.9-6.5S243.7,160,237.4,160z"/>
		<path d="M165.3,135.4l30.3,2.1l0.6,2.4l-30.9-3.7L165.3,135.4z"/>
		<path d="M163.2,145.1c10.4-2.7,21.2-1,31.9,0H163.2z"/>
		<path d="M160.4,203.4c12.4-5.2,24.9-5.1,37.6-0.6c-6.2-0.7-12.4-2.1-18.5-2C173.1,200.9,166.7,202.4,160.4,203.4z"/>
		<path d="M100.7,161.5l29.8-2C120.2,163.3,110.4,161.6,100.7,161.5z"/>
		<path d="M161.7,525.8l-26.3,2.1c8.5-3.4,17.3-3.4,26.2-3.3L161.7,525.8z"/>
		<path d="M271,155.7c-9.4-4.8-20.5-5.6-30.5-2.1C248.5,147.9,263.4,148.9,271,155.7z"/>
		<path d="M255.4,276.6l-24.7-7.6l0.4-1.2C239.4,269.9,248,271.4,255.4,276.6z"/>
		<path d="M107.4,228.5l27.6-6.1C129.6,226.4,114.4,229.6,107.4,228.5z"/>
		<path d="M137.6,272.1L116,283.5C119.9,278.3,128.1,273.8,137.6,272.1z"/>
		<path d="M101.6,158.5l27.6-2.8C124.2,158.5,111.1,160,101.6,158.5z"/>
		<path d="M167.2,529.2c7.9-4.2,16-2.9,23.8-3.2l0.2,1.3L167.2,529.2z"/>
		<path d="M230.7,212.4c7.4-3.5,15.3-2.9,23.2-1.7L230.7,212.4z"/>
		<path d="M186.1,214.1h-26.5c9.2-4.5,18.2,0.6,26.9-1.6L186.1,214.1z"/>
		<path d="M129.6,222.5l-25.9,4.3l-0.2-1.3l25.7-4.2L129.6,222.5z"/>
		<path d="M232.4,199.9c7.3-2.9,10.7-3,18.3,0H232.4z"/>
		<path d="M246.2,201.7l16.9,3.7l-0.3,1.5l-16.9-3.6L246.2,201.7z"/>
		<path d="M238.6,214.9c5.8-2.5,11.6-2.2,17.4,0H238.6z"/>
	</g>
</g>
<g>
	<circle id="key4" class="st0" cx="180.8" cy="241.8" r="18.7"/>
	<path class="st1" d="M177.4,241.6c0,2.5,1.1,4.6,3.7,4.6c1.9,0,2.9-1.3,3.1-3h2.9c-0.6,7.1-10.1,7.3-12.2,1.3
		c-1.1-3-0.4-7.7,3.4-9.4c2.4-1,6.3-0.8,8,2.2c0.4,0.6,0.6,1.4,0.6,2.1H184C183.6,236.1,177.4,235.5,177.4,241.6z"/>
</g>
<g>
	<circle id="key5" class="st2" cx="126.8" cy="251.8" r="18.7"/>
	<g>
		<path class="st1" d="M118.6,251.6c0,5,4.4,5.3,5.8,3.7c0.5-0.6,0.9-1.4,0.9-2.2h2.9c-0.7,8-12.7,7.3-12.7-1.5
			c0-9.1,11.8-9.3,12.6-2.3h-2.9C124.8,246.1,118.6,245.5,118.6,251.6z"/>
		<path class="st1" d="M132.4,258.4v-3.1l-1.9,0.4v-1.8l1.9-0.4v-3l-1.9,0.4v-1.8l1.9-0.4v-3l0.8-0.1v3l2.1-0.5v-3.3l0.8-0.1v3.3
			l1.9-0.4v1.8l-1.9,0.4v3l1.9-0.4v1.8l-1.9,0.4v2.8l-0.8,0.2v-2.8l-2.1,0.5v3.2L132.4,258.4z M133.2,253.3l2.1-0.5v-3l-2.1,0.5
			V253.3z"/>
	</g>
</g>
<g>
	<circle id="key6" class="st3" cx="75.3" cy="297.6" r="18.7"/>
	<path class="st1" d="M81.7,294.6c1.1,3,0.7,9.8-5.7,9.8h-5.9v-13.6C75.4,290.8,80,290,81.7,294.6z M78.9,299.8
		c0.4-1.2,0.4-2.5,0.1-3.8c-0.7-3-3.3-2.6-5.9-2.6v8.6C75.9,302,78,302.4,78.9,299.8L78.9,299.8z"/>
</g>
<g>
	
		<ellipse id="key7" transform="matrix(4.531439e-02 -0.999 0.999 4.531439e-02 -184.1929 284.3425)" class="st4" cx="56.7" cy="238.5" rx="18.7" ry="18.7"/>
	<g>
		<path class="st1" d="M57.4,233.2c3,3,2.7,11.9-4.4,11.9h-5.9v-13.6C52.7,231.5,55.3,231.1,57.4,233.2z M55.1,241.7
			c1.5-1.5,1.3-5,0.2-6.4s-3.2-1.2-5.2-1.2v8.6C52.6,242.6,54,242.9,55.1,241.7z"/>
		<path class="st1" d="M63.3,245.1V242l-1.9,0.4v-1.8l1.9-0.4v-3l-1.9,0.4v-1.8l1.9-0.4v-3l0.8-0.1v2.9l2.1-0.5v-3.3l0.8-0.1v3.3
			l1.9-0.4v1.8l-1.9,0.4v2.9l1.9-0.4v1.8l-1.9,0.4v2.9l-0.8,0.1v-2.8l-2.1,0.5v3.1L63.3,245.1z M64.1,240l2.1-0.5v-3l-2.1,0.5V240z"
			/>
	</g>
</g>
<g>
	<circle id="key8" class="st5" cx="41.5" cy="188.3" r="18.7"/>
	<path class="st1" d="M46.2,181.2v2.5H39v2.9h6.6v2.3H39v3.4h7.3v2.5H36v-13.6H46.2z"/>
</g>
<g>
	<circle id="key9" class="st6" cx="112.6" cy="131.2" r="18.7"/>
	<path class="st1" d="M117.4,124.1v2.5h-6.6v3.2h5.7v2.3h-5.7v5.6h-3v-13.6H117.4z"/>
</g>
<g>
	<circle id="key10" class="st7" cx="178.3" cy="98.7" r="18.7"/>
	<g>
		<path class="st1" d="M178.4,91.6v2.5h-6.6v3.2h5.7v2.3h-5.7v5.6h-3V91.6H178.4z"/>
		<path class="st1" d="M182.2,105.3v-3.1l-1.9,0.4v-1.8l1.9-0.4v-3l-1.9,0.4V96l1.9-0.4v-3l0.8-0.1v3l2.1-0.5v-3.3l0.8-0.1v3.3
			l1.9-0.4v1.8l-1.9,0.4v3l1.9-0.4v1.8l-1.9,0.4v2.8l-0.8,0.2v-2.8L183,102v3.1L182.2,105.3z M183,100.2l2.1-0.5v-3l-2.1,0.5V100.2z
			"/>
	</g>
</g>
<g>
	<circle id="key11" class="st8" cx="179.2" cy="172.9" r="18.7"/>
	<path class="st1" d="M172.2,172.6c0-9.2,11.8-9.1,12.4-2.4h-2.9c-0.1-0.7-0.5-1.3-1-1.7c-1.6-1.1-3.7-0.6-4.8,0.9
		c-0.3,0.4-0.5,0.9-0.5,1.4c-0.6,2.5,0.1,6.3,3.5,6.3c0.8,0.1,1.7-0.2,2.3-0.8c0.6-0.6,0.9-1.4,0.9-2.2h-3V172h5.7v7.4H183l-0.3-1.5
		C179.7,181.6,172.2,179.5,172.2,172.6z"/>
</g>
<g>
	<circle id="key1-2" class="st9" cx="257.4" cy="121.7" r="18.7"/>
	<path class="st1" d="M258.7,114.9l5.1,13.6h-3.1l-1-3h-5.1l-1.1,3h-3l5.1-13.6H258.7z M258.9,123.3l-1.7-5h0l-1.8,5H258.9z"/>
</g>
<g>
	<circle id="key2" class="st10" cx="251.7" cy="179.6" r="18.7"/>
	<g>
		<path class="st1" d="M248.1,172.9l5.1,13.6h-3.1l-1-3H244l-1.1,3h-3l5.1-13.6L248.1,172.9z M248.2,181.2l-1.7-5l0,0l-1.8,5H248.2z
			"/>
		<path class="st1" d="M256.4,186.5v-3.1l-1.9,0.4V182l1.9-0.4v-3l-1.9,0.4v-1.8l1.9-0.4v-3l0.8-0.1v3l2.1-0.5v-3.3l0.8-0.1v3.3
			l1.9-0.4v1.8l-1.9,0.4v3l1.9-0.4v1.8l-1.9,0.4v2.8l-0.8,0.1v-2.8l-2.1,0.5v3.1L256.4,186.5z M257.2,181.4l2.1-0.5v-3l-2.1,0.5
			V181.4z"/>
	</g>
</g>
<g>
	<circle id="key3" class="st11" cx="243" cy="241.8" r="18.7"/>
	<path class="st1" d="M247.9,238.3c0.1,1.2-0.7,2.4-1.8,2.8c3.8,1.1,3.6,7.4-2.3,7.4h-6.6V235C243.4,235,247.9,234.1,247.9,238.3z
		 M244.5,240.1c0.5-0.5,0.7-1.3,0.4-2c-0.6-1-1.8-0.8-4.7-0.8v3.2C243.3,240.5,243.8,240.6,244.5,240.1L244.5,240.1z M245.4,245.3
		c0.5-0.9,0.2-2.1-0.8-2.6c-0.4-0.2-0.8-0.3-1.2-0.2h-3.3v3.7C243.3,246.2,244.8,246.5,245.4,245.3L245.4,245.3z"/>
</g>
<g>
	<circle id="key12" class="st12" cx="116.5" cy="191.5" r="18.7"/>
	<g>
		<path class="st1" d="M113.8,197.9c-1.5,0.6-3.3,0.5-4.8-0.1c-5.3-2.3-5.1-10.9,0-13.1c3.4-1.5,8.1,0,8.5,4.2h-2.9
			c-0.2-1.4-1.5-2.4-2.9-2.3c-1.7,0-3.2,1.2-3.5,2.9c-0.5,2-0.2,4.8,1.8,5.9c1.2,0.6,4.6,0.9,5-2.6h-3v-2.2h5.7v7.3H116l-0.3-1.5
			C115.2,197.1,114.5,197.6,113.8,197.9z"/>
		<path class="st1" d="M122.3,198v-3.1l-1.9,0.4v-1.8l1.9-0.4v-3l-1.9,0.4v-1.8l1.9-0.4v-3l0.8-0.1v3l2.1-0.5v-3.3l0.8-0.1v3.3
			l1.9-0.4v1.9l-1.9,0.4v2.9l1.9-0.4v1.8l-1.9,0.4v2.8l-0.8,0.1v-2.8l-2.1,0.5v3.1L122.3,198z M123.1,192.9l2.1-0.5v-3l-2.1,0.5
			V192.9z"/>
	</g>
</g>
</svg>
