<svg enable-background="new 0 0 539 123.5" viewBox="0 0 539 123.5" xmlns="http://www.w3.org/2000/svg"><circle cx="504.2" cy="59.7" fill="#e11156" r="16.1"/><circle cx="461.6" cy="59.7" fill="#ec008c" r="16.1"/><circle cx="419.1" cy="59.7" fill="#92278f" r="16.1"/><circle cx="376.6" cy="59.7" fill="#2e3192" r="16.1"/><circle cx="334.1" cy="59.7" fill="#0072bc" r="16.1"/><circle cx="291.6" cy="59.7" fill="#00aeef" r="16.1"/><circle cx="249" cy="59.7" fill="#00a99d" r="16.1"/><circle cx="206.5" cy="59.7" fill="#00a651" r="16.1"/><circle cx="164" cy="59.7" fill="#8dc63f" r="16.1"/><circle cx="121.5" cy="59.7" fill="#eadf14" r="16.1"/><circle cx="79" cy="59.7" fill="#f7941d" r="16.1"/><circle cx="36.4" cy="59.7" fill="#ed1c24" r="16.1"/><path d="m29.3 29.9c-.8 0-1.6-.1-2.5-.2s-1.6-.3-2.3-.5-1.3-.4-1.7-.7l.3-3c.6.4 1.3.7 2 .9.7.3 1.4.4 2 .6.7.1 1.4.2 2.1.2s1.4-.1 2-.3 1-.5 1.4-.9c.3-.4.5-1 .5-1.6s-.2-1.2-.6-1.6-.9-.8-1.6-1.1-1.5-.6-2.5-.9c-1.2-.4-2.3-.8-3.1-1.3-.9-.5-1.5-1-2-1.7s-.7-1.6-.7-2.7.2-2 .7-2.8 1.2-1.5 2.2-2 2.2-.7 3.7-.7c.6 0 1.2 0 1.8.1s1.2.2 1.7.3 1 .3 1.5.5c.4.2.8.4 1.2.5l-.3 3c-.6-.4-1.1-.7-1.8-.9-.6-.3-1.2-.4-1.9-.6s-1.2-.2-1.7-.2c-.7 0-1.3.1-1.8.3-.6.2-1 .5-1.3.9s-.5.9-.5 1.5c0 .5.1 1 .4 1.4s.8.7 1.4 1 1.4.6 2.4.9c1.6.5 2.8 1 3.7 1.5s1.5 1.1 1.9 1.8.6 1.5.6 2.6-.2 2.1-.7 2.9c-.5.9-1.3 1.5-2.3 2-1.2.6-2.6.8-4.2.8z" fill="#ed1c24"/><path d="m42.7 29.9c-.8 0-1.5-.2-2.1-.5s-1.1-.8-1.4-1.4c-.4-.6-.5-1.3-.5-2.2 0-.8.1-1.4.4-1.9s.6-.9 1-1.3c.4-.3.9-.6 1.4-.8s1.1-.3 1.6-.4l4-.6c0-.8-.1-1.3-.3-1.7s-.6-.7-1.1-.8-1-.2-1.6-.2c-.3 0-.6 0-1 .1s-.7.1-1.1.2-.8.2-1.2.4-.9.3-1.3.5l-.2-2.6c.3-.1.7-.3 1.1-.4s.9-.2 1.4-.4c.5-.1 1-.2 1.5-.2s1.1-.1 1.6-.1c1.1 0 2 .2 2.8.5s1.4.8 1.8 1.5.6 1.6.6 2.7v9.2h-2.6l-.2-1.8h-.3c-.3.3-.6.7-1 1s-.9.6-1.4.8c-.7.3-1.3.4-1.9.4zm.9-2.3c.4 0 .9-.1 1.3-.3s.8-.5 1.2-.8c.4-.4.7-.8.9-1.3v-2.4c-.1.1-.3.2-.5.2s-.5.2-1 .2-1 .2-1.8.3c-.4.1-.8.2-1.2.4s-.6.4-.7.7-.3.7-.3 1.1c0 .7.2 1.1.6 1.4s1 .5 1.5.5z" fill="#ed1c24"/><g fill="#fff"><path d="m32.8 64.3c-.4 0-.8 0-1.2-.1s-.8-.2-1.2-.3-.7-.2-.9-.3l.2-2c.3.2.6.3 1 .5.3.1.7.2 1 .3s.7.1 1 .1.6 0 .8-.1.4-.2.5-.3c.1-.2.2-.4.2-.6 0-.3-.1-.5-.2-.6-.2-.2-.4-.3-.7-.4s-.7-.2-1.1-.4c-.6-.2-1.1-.4-1.5-.6s-.7-.5-1-.9c-.2-.4-.3-.8-.3-1.4s.1-1.1.4-1.5c.2-.4.6-.8 1.1-1s1.1-.4 1.9-.4c.3 0 .6 0 .9.1.3 0 .6.1.9.2s.6.1.8.2.5.2.6.3l-.2 2c-.3-.2-.6-.3-.9-.5s-.6-.2-.9-.3-.6-.1-.8-.1c-.3 0-.5 0-.7.1s-.4.2-.5.3-.2.3-.2.6c0 .2.1.4.2.6s.3.3.6.4.6.2 1 .4c.8.2 1.4.5 1.8.7.4.3.8.6 1 .9s.3.8.3 1.3c0 .6-.1 1.1-.4 1.6-.3.4-.7.8-1.2 1-.7.1-1.4.2-2.3.2z"/><path d="m39.4 64.3c-.4 0-.7-.1-1-.2s-.5-.4-.7-.7-.2-.6-.2-1 .1-.7.2-1 .3-.5.5-.6c.2-.2.5-.3.7-.4.3-.1.5-.1.8-.2l1.9-.3c0-.3 0-.5-.1-.6s-.3-.2-.5-.3-.5-.1-.7-.1-.3 0-.5 0-.4.1-.6.1-.4.1-.6.2-.4.2-.6.3l-.1-1.7c.2-.1.4-.1.6-.2s.5-.1.7-.2.5-.1.8-.1h.9c.6 0 1 .1 1.5.2s.7.4.9.8.3.8.3 1.4v4.5h-1.7l-.1-.9h-.1c-.1.2-.3.3-.5.5s-.4.3-.7.4-.8.1-1.1.1zm.8-1.6c.2 0 .3 0 .5-.1s.3-.2.4-.3.3-.3.4-.5v-1c-.1 0-.1.1-.2.1s-.2.1-.4.1-.4.1-.7.1c-.2 0-.3.1-.4.2s-.2.2-.3.3-.1.3-.1.4c0 .3.1.4.2.6.2 0 .4.1.6.1z"/><path d="m327 64.1c0-.5 0-9.2 0-9.7h3.9c.8 0 1.4.1 2 .3.5.2.9.5 1.2 1s.4 1 .4 1.8c0 .6-.1 1.2-.3 1.7s-.6.9-1.1 1.1c-.5.3-1.2.4-2 .4-.2 0-1.9 0-2.1 0v-1.7h1.5c.4 0 .7-.1 1-.2s.4-.3.6-.5c.1-.2.2-.5.2-.9 0-.3 0-.5-.1-.7s-.2-.3-.3-.4-.3-.2-.5-.2-.3-.1-.5-.1h-2.6l1.1-1.4v9.3h-2.4z"/><path d="m337.3 64.3c-.4 0-.7-.1-1-.2-.3-.2-.5-.4-.7-.7s-.2-.6-.2-1 .1-.7.2-1 .3-.5.5-.6c.2-.2.5-.3.7-.4.3-.1.5-.1.8-.2l1.9-.3c0-.3 0-.5-.1-.6s-.3-.2-.5-.3-.5-.1-.7-.1-.3 0-.5 0-.4.1-.6.1-.4.1-.6.2-.4.2-.6.3l-.1-1.7c.2-.1.4-.1.6-.2s.5-.1.7-.2.5-.1.8-.1.6 0 .9 0c.6 0 1 .1 1.5.2.4.2.7.4.9.8s.3.8.3 1.4v4.5h-1.7l-.1-.9h-.1c-.1.2-.3.3-.5.5s-.4.3-.7.4c-.5 0-.7.1-1.1.1zm.8-1.6c.2 0 .3 0 .5-.1s.3-.2.4-.3.3-.3.4-.5v-1c-.1 0-.1.1-.2.1s-.2.1-.4.1-.4.1-.7.1c-.2 0-.3.1-.4.2s-.2.2-.3.3-.1.3-.1.4c0 .3.1.4.2.6.3 0 .4.1.6.1z"/><path d="m369.5 64.1c0-.5 0-9.2 0-9.7h3.8c.7 0 1.4.1 2 .3s1.1.5 1.5.9.7.9.9 1.5.3 1.3.3 2-.1 1.3-.3 1.9-.5 1.1-.9 1.6c-.4.4-.9.8-1.6 1s-1.5.4-2.4.4c-.4.1-3 .1-3.3.1zm2.2-1.8h1.1c.7 0 1.3-.1 1.7-.4s.7-.6.9-1.1.3-1 .3-1.6c0-.4-.1-.9-.2-1.2-.1-.4-.3-.7-.5-.9-.2-.3-.5-.5-.8-.6s-.7-.2-1.2-.2h-1.2c-.1.2-.1 5.7-.1 6z"/><path d="m379.3 58.1-.5-1.6c.6-.3 3.1-1.5 3.7-1.8l-.1 1.9c-.5.2-2.6 1.3-3.1 1.5zm2.1 6c0-.5 0-8 0-8.5l1.1-.9 1 .1v9.3z"/><path d="m496.1 64.1c0-.5 0-9.2 0-9.7h1.9c.5.7 4.1 5.9 4.1 5.9h.2s0-5.4 0-5.9h2.1v9.7h-1.9c-.4-.5-4.1-5.9-4.1-5.9h-.2v5.9z"/><path d="m509.1 64.3c-.3 0-.6 0-1-.1-.3 0-.6-.1-.9-.1-.3-.1-.5-.1-.8-.2-.2-.1-.5-.2-.7-.3l.2-1.9c.2.1.5.2.7.3s.5.2.7.3.5.1.7.2c.2 0 .5.1.7.1.6 0 1-.1 1.3-.3s.4-.5.4-.8c0-.4-.2-.7-.5-.9s-.8-.3-1.4-.3c-.2 0-1 0-1.1 0v-1.5h1c.4 0 .7 0 1-.1s.4-.2.6-.4c.1-.2.2-.4.2-.6 0-.4-.1-.6-.4-.8s-.6-.3-1.1-.3c-.2 0-.4 0-.7.1-.2 0-.4.1-.7.2s-.5.2-.7.3-.4.2-.7.4l-.2-1.9c.2-.1.4-.2.7-.3s.5-.2.8-.2c.3-.1.6-.1.9-.2.3 0 .6-.1.9-.1.7 0 1.3.1 1.8.3s.9.5 1.1.8c.3.4.4.8.4 1.3 0 .4-.1.7-.2 1-.2.3-.4.5-.6.7-.3.2-.5.3-.9.4v.2c.2 0 .5.1.7.2s.4.3.6.5.3.4.5.7c.1.3.2.6.2 1 0 .5-.1 1-.4 1.4s-.6.7-1.2 1c-.4-.2-1.1-.1-1.9-.1z"/><path d="m72.1 64.1c0-.5 0-9.2 0-9.7h3.7c.8 0 1.5.1 2 .3s1 .5 1.2.9c.3.4.4 1 .4 1.7 0 .6-.1 1.1-.3 1.5s-.6.8-1.1 1.1-1.1.4-1.9.4l.9-.8s3.1 4.5 3.2 4.8h-2.5c-.2-.4-2.9-4.6-2.9-4.6l1.3 1h-2.3v-1.6h1.6c.4 0 .7 0 .9-.1s.4-.2.6-.5c.1-.2.2-.5.2-.9 0-.3 0-.5-.1-.7s-.2-.3-.3-.4-.3-.2-.5-.2-.3-.1-.5-.1h-3l1.6-1.4v9.3z"/><path d="m81.4 58.1-.5-1.6c.6-.3 3.1-1.5 3.7-1.8l-.1 1.9c-.5.2-2.6 1.3-3.1 1.5zm2.1 6c0-.5 0-8 0-8.5l1.1-.9 1 .1v9.3z"/><path d="m203.3 64.3c-.8 0-1.6-.1-2.2-.4-.6-.2-1.2-.6-1.6-1s-.8-1-1-1.6-.3-1.3-.3-2c0-1 .2-1.9.6-2.6.4-.8 1-1.4 1.7-1.8s1.7-.6 2.7-.6c.3 0 .7 0 1 .1.3 0 .6.1.9.2s.6.1.8.2.5.2.7.3l-.2 2.1c-.4-.2-.7-.4-1.1-.5s-.7-.2-1-.3-.6-.1-.9-.1c-.4 0-.8.1-1.2.2s-.7.3-.9.6c-.3.3-.5.6-.6 1s-.2.8-.2 1.4c0 .4.1.9.2 1.2.1.4.3.7.6 1s.6.5 1 .7.9.3 1.4.3h.8c.3 0 .5-.1.7-.1.2-.1.5-.1.7-.2s.5-.2.7-.3l.3 2c-.2.1-.4.1-.6.2s-.5.1-.8.2c-.3 0-.6.1-1 .1-.5-.3-.8-.3-1.2-.3zm1.3-.5c0-.5 0-4.4 0-4.7h2.1v4.7z"/><path d="m211.3 64.3c-.3 0-.6 0-1-.1-.3 0-.6-.1-.9-.1-.3-.1-.5-.1-.8-.2-.2-.1-.5-.2-.7-.3l.2-1.9c.2.1.5.2.7.3s.5.2.7.3.5.1.7.2c.2 0 .5.1.7.1.6 0 1-.1 1.3-.3s.4-.5.4-.8c0-.4-.2-.7-.5-.9s-.8-.3-1.4-.3c-.2 0-1 0-1.1 0v-1.5h1c.4 0 .7 0 1-.1s.4-.2.6-.4c.1-.2.2-.4.2-.6 0-.4-.1-.6-.4-.8s-.6-.3-1.1-.3c-.2 0-.4 0-.7.1-.2 0-.4.1-.7.2-.2.1-.5.2-.7.3s-.4.2-.7.4l-.2-1.9c.2-.1.4-.2.7-.3.2-.1.5-.2.8-.2.3-.1.6-.1.9-.2.3 0 .6-.1.9-.1.7 0 1.3.1 1.8.3s.9.5 1.1.8c.3.4.4.8.4 1.3 0 .4-.1.7-.2 1s-.4.5-.6.7-.5.3-.9.4v.2c.2 0 .5.1.7.2s.4.3.6.5.3.4.5.7.2.6.2 1c0 .5-.1 1-.4 1.4s-.6.7-1.2 1c-.4-.2-1.1-.1-1.9-.1z"/><path d="m240.1 64.1c.1-.5 1.1-9.1 1.2-9.7h2.3c.2.6 2.4 6 2.4 6h.1s2.1-5.5 2.3-6h2.2c.1.5 1.2 9.2 1.2 9.7h-2.1c-.1-.7-.7-5.9-.7-5.9h-.1s-1.9 5.4-2 5.9h-1.5c-.1-.3-2.3-5.9-2.3-5.9h-.1s-.6 5.3-.7 5.9z"/><path d="m253.3 58.1-.5-1.6c.6-.3 3.1-1.5 3.7-1.8l-.1 1.9c-.5.2-2.6 1.3-3.1 1.5zm2.1 6c0-.5 0-8 0-8.5l1.1-.9 1 .1v9.3z"/><path d="m281.8 64.1c.1-.5 1.1-9.1 1.2-9.7h2.3c.2.6 2.4 6 2.4 6h.1s2.1-5.5 2.3-6h2.2c.1.5 1.2 9.2 1.2 9.7h-2.1c-.1-.7-.7-5.9-.7-5.9h-.1s-1.9 5.4-2 5.9h-1.6c-.1-.3-2.3-5.9-2.3-5.9h-.1s-.6 5.3-.7 5.9z"/><path d="m294.8 64.1v-1.4c.2-.2 1.2-1 1.5-1.3.6-.5 1.1-.9 1.5-1.4s.7-.8 1-1.2c.2-.4.3-.8.3-1.2s-.1-.8-.4-1c-.2-.2-.6-.3-1.1-.3-.2 0-.4 0-.7.1-.2 0-.4.1-.7.2-.2.1-.5.2-.7.3s-.4.2-.7.4l-.2-2c.2-.1.4-.2.7-.3s.5-.2.8-.2c.3-.1.6-.1.9-.2.3 0 .6-.1.9-.1.7 0 1.3.1 1.7.3.5.2.8.5 1.1 1s.4.9.4 1.5c0 .5-.1 1-.3 1.4s-.5.9-.9 1.4-.9 1-1.5 1.4l-1.3 1.1-.3-.4h4.4v1.8h-6.4z"/><path d="m113.9 70.9c0-.5 0-9.2 0-9.7h3.7c.8 0 1.5.1 2 .3s1 .5 1.2.9c.3.4.4 1 .4 1.7 0 .6-.1 1.1-.3 1.5s-.6.8-1.1 1.1-1.1.4-1.9.4l.9-.8s3.1 4.5 3.2 4.8h-2.5c-.2-.4-2.9-4.6-2.9-4.6l1.3 1h-2.3v-1.6h1.6c.4 0 .7 0 .9-.1s.4-.2.6-.5c.1-.2.2-.5.2-.9 0-.3 0-.5-.1-.7s-.2-.3-.3-.4-.3-.2-.5-.2-.3-.1-.5-.1h-3l1.6-1.4v9.3z"/><path d="m122.9 70.9v-1.4c.2-.2 1.2-1 1.5-1.3.6-.5 1.1-.9 1.5-1.4s.7-.8 1-1.2c.2-.4.3-.8.3-1.2s-.1-.8-.4-1c-.2-.2-.6-.3-1.1-.3-.2 0-.4 0-.7.1-.2 0-.4.1-.7.2-.2.1-.5.2-.7.3s-.4.2-.7.4l-.2-2c.2-.1.4-.2.7-.3s.5-.2.8-.2c.3-.1.6-.1.9-.2.3 0 .6-.1.9-.1.7 0 1.3.1 1.7.3.5.2.8.5 1.1 1s.4.9.4 1.5c0 .5-.1 1-.3 1.4s-.5.9-.9 1.4-.9 1-1.5 1.4l-1.3 1.1-.3-.4h4.4v1.8h-6.4z"/><path d="m119.2 58.3c-.8 0-1.6-.1-2.2-.4-.6-.2-1.2-.6-1.6-1s-.8-1-1-1.6-.3-1.3-.3-2c0-1 .2-1.9.6-2.6.4-.8 1-1.4 1.7-1.8s1.7-.6 2.7-.6c.3 0 .7 0 1 .1.3 0 .6.1.9.2s.6.1.8.2.5.2.7.3l-.2 2.1c-.4-.2-.7-.4-1.1-.5s-.7-.2-1-.3-.6-.1-.9-.1c-.4 0-.8.1-1.2.2s-.7.3-.9.6c-.3.3-.5.6-.6 1s-.2.8-.2 1.4c0 .4.1.9.2 1.2.1.4.3.7.6 1s.6.5 1 .7.9.3 1.4.3h.8c.3 0 .5-.1.7-.1.2-.1.5-.1.7-.2s.5-.2.7-.3l.3 2c-.2.1-.4.1-.6.2s-.5.1-.8.2c-.3 0-.6.1-1 .1-.5-.4-.9-.3-1.2-.3zm1.3-.5c0-.5 0-4.4 0-4.7h2.1v4.7z"/><path d="m124.1 52.1-.5-1.6c.6-.3 3.1-1.5 3.7-1.8l-.1 1.9c-.5.2-2.5 1.2-3.1 1.5zm2.2 6c0-.5 0-8 0-8.5l1.1-.9 1 .1v9.3z"/><path d="m156.3 70.9c0-.5 0-9.2 0-9.7h3.7c.8 0 1.5.1 2 .3s1 .5 1.2.9c.3.4.4 1 .4 1.7 0 .6-.1 1.1-.3 1.5s-.6.8-1.1 1.1-1.1.4-1.9.4l.9-.8s3.1 4.5 3.2 4.8h-2.5c-.2-.4-2.9-4.6-2.9-4.6l1.3 1h-2.3v-1.6h1.6c.4 0 .7 0 .9-.1s.4-.2.6-.5c.1-.2.2-.5.2-.9 0-.3 0-.5-.1-.7s-.2-.3-.3-.4-.3-.2-.5-.2-.3-.1-.5-.1h-3l1.6-1.4v9.3z"/><path d="m168.5 71.1c-.3 0-.6 0-1-.1-.3 0-.6-.1-.9-.1-.3-.1-.5-.1-.8-.2-.2-.1-.5-.2-.7-.3l.2-1.9c.2.1.5.2.7.3s.5.2.7.3.5.1.7.2c.2 0 .5.1.7.1.6 0 1-.1 1.3-.3s.4-.5.4-.8c0-.4-.2-.7-.5-.9s-.8-.3-1.4-.3c-.2 0-1 0-1.1 0v-1.5h1c.4 0 .7 0 1-.1s.4-.2.6-.4c.1-.2.2-.4.2-.6 0-.4-.1-.6-.4-.8s-.6-.3-1.1-.3c-.2 0-.4 0-.7.1-.2 0-.4.1-.7.2-.2.1-.5.2-.7.3s-.4.2-.7.4l-.2-1.9c.2-.1.4-.2.7-.3.2-.1.5-.2.8-.2.3-.1.6-.1.9-.2.3 0 .6-.1.9-.1.7 0 1.3.1 1.8.3s.9.5 1.1.8c.3.4.4.8.4 1.3 0 .4-.1.7-.2 1s-.4.5-.6.7-.5.3-.9.4v.2c.2 0 .5.1.7.2s.4.3.6.5.3.4.5.7.2.6.2 1c0 .5-.1 1-.4 1.4s-.6.7-1.2 1c-.4-.2-1.1-.1-1.9-.1z"/><path d="m160.9 58.3c-.8 0-1.6-.1-2.2-.4-.6-.2-1.2-.6-1.6-1s-.8-1-1-1.6-.3-1.3-.3-2c0-1 .2-1.9.6-2.6.4-.8 1-1.4 1.7-1.8s1.7-.6 2.7-.6c.3 0 .7 0 1 .1.3 0 .6.1.9.2s.6.1.8.2.5.2.7.3l-.2 1.9c-.4-.2-.7-.4-1.1-.5s-.7-.2-1-.3-.6-.1-.9-.1c-.4 0-.8.1-1.2.2s-.7.3-.9.6c-.3.3-.5.6-.6 1s-.2.8-.2 1.4c0 .4.1.9.2 1.2.1.4.3.7.6 1s.6.5 1 .7.9.3 1.4.3h.8c.3 0 .5-.1.7-.1.2-.1.5-.1.7-.2s.5-.2.7-.3l.3 2c-.2.1-.4.1-.6.2s-.5.1-.8.2c-.3 0-.6.1-1 .1-.5-.2-.8-.1-1.2-.1zm1.3-.5c0-.5 0-4.4 0-4.7h2.1v4.7z"/><path d="m165.7 58.1v-1.4c.2-.2 1.2-1 1.5-1.3.6-.5 1.1-.9 1.5-1.4s.7-.8 1-1.2c.2-.4.3-.8.3-1.2s-.1-.8-.4-1c-.2-.2-.6-.3-1.1-.3-.2 0-.4 0-.7.1-.2 0-.4.1-.7.2-.2.1-.5.2-.7.3s-.4.2-.7.4l-.2-2c.2-.1.4-.2.7-.3s.5-.2.8-.2c.3-.1.6-.1.9-.2.3 0 .6-.1.9-.1.7 0 1.3.1 1.7.3.5.2.8.5 1.1 1s.4.9.4 1.5c0 .5-.1 1-.3 1.4s-.5.9-.9 1.4-.9 1-1.5 1.4l-1.3 1.1-.3-.4h4.4v1.8h-6.4z"/><path d="m411.2 70.9c0-.5 0-9.2 0-9.7h3.8c.7 0 1.4.1 2 .3s1.1.5 1.5.9.7.9.9 1.5.3 1.3.3 2-.1 1.3-.3 1.9-.5 1.1-.9 1.6c-.4.4-.9.8-1.6 1s-1.5.4-2.4.4c-.4.1-2.9.1-3.3.1zm2.3-1.7h1.1c.7 0 1.3-.1 1.7-.4s.7-.6.9-1.1.3-1 .3-1.6c0-.4-.1-.9-.2-1.2-.1-.4-.3-.7-.5-.9-.2-.3-.5-.5-.8-.6s-.7-.2-1.2-.2h-1.2c-.1.2-.1 5.7-.1 6z"/><path d="m420.8 70.9v-1.4c.2-.2 1.2-1 1.5-1.3.6-.5 1.1-.9 1.5-1.4.4-.4.7-.8 1-1.2.2-.4.3-.8.3-1.2s-.1-.8-.4-1c-.2-.2-.6-.3-1.1-.3-.2 0-.4 0-.7.1-.2 0-.4.1-.7.2-.2.1-.5.2-.7.3s-.4.2-.7.4l-.2-2c.2-.1.4-.2.7-.3s.5-.2.8-.2c.3-.1.6-.1.9-.2.3 0 .6-.1.9-.1.7 0 1.3.1 1.7.3.5.2.8.5 1.1 1 .2.4.4.9.4 1.5 0 .5-.1 1-.3 1.4s-.5.9-.9 1.4-.9 1-1.5 1.4l-1.3 1.1-.3-.4h4.4v1.8h-6.4z"/><path d="m411.9 58.1c0-.5 0-9.2 0-9.7h1.9c.5.7 4.1 5.9 4.1 5.9h.2s0-5.4 0-5.9h2.1v9.7h-1.9c-.4-.5-4.1-5.9-4.1-5.9h-.2v5.9z"/><path d="m421.9 52.1-.5-1.6c.6-.3 3.1-1.5 3.7-1.8l-.1 1.9c-.5.2-2.6 1.2-3.1 1.5zm2.1 6c0-.5 0-8 0-8.5l1.1-.9 1 .1v9.3z"/><path d="m453.7 70.9c0-.5 0-9.2 0-9.7h3.8c.7 0 1.4.1 2 .3s1.1.5 1.5.9.7.9.9 1.5.3 1.3.3 2-.1 1.3-.3 1.9-.5 1.1-.9 1.6c-.4.4-.9.8-1.6 1s-1.5.4-2.4.4c-.4.1-3 .1-3.3.1zm2.2-1.7h1.1c.7 0 1.2-.1 1.7-.4.4-.3.7-.6.9-1.1s.3-1 .3-1.6c0-.4-.1-.9-.2-1.2-.1-.4-.3-.7-.5-.9s-.5-.5-.8-.6-.7-.2-1.2-.2h-1.2c-.1.2-.1 5.7-.1 6z"/><path d="m466.5 71.1c-.3 0-.6 0-1-.1s-.6-.1-.9-.1c-.3-.1-.5-.1-.8-.2-.2-.1-.5-.2-.7-.3l.2-1.9c.2.1.5.2.7.3s.5.2.7.3.5.1.7.2c.2 0 .5.1.7.1.6 0 1-.1 1.3-.3s.4-.5.4-.8c0-.4-.2-.7-.5-.9s-.8-.3-1.4-.3c-.2 0-1 0-1.1 0v-1.5h1c.4 0 .7 0 1-.1s.4-.2.6-.4c.1-.2.2-.4.2-.6 0-.4-.1-.6-.4-.8s-.6-.3-1.1-.3c-.2 0-.4 0-.7.1-.2 0-.4.1-.7.2-.2.1-.5.2-.7.3s-.4.2-.7.4l-.2-1.9c.2-.1.4-.2.7-.3.2-.1.5-.2.8-.2s.6-.1.9-.2c.3 0 .6-.1.9-.1.7 0 1.3.1 1.8.3s.9.5 1.1.8c.3.4.4.8.4 1.3 0 .4-.1.7-.2 1-.2.3-.4.5-.6.7-.3.2-.5.3-.9.4v.2c.2 0 .5.1.7.2s.4.3.6.5.3.4.5.7c.1.3.2.6.2 1 0 .5-.1 1-.4 1.4s-.6.7-1.2 1c-.5-.2-1.1-.1-1.9-.1z"/><path d="m453.6 58.1c0-.5 0-9.2 0-9.7h1.9c.5.7 4.1 5.9 4.1 5.9h.2s0-5.4 0-5.9h2.1v9.7h-1.9c-.4-.5-4.1-5.9-4.1-5.9h-.2v5.9z"/><path d="m463.4 58.1v-1.4c.2-.2 1.2-1 1.5-1.3.6-.5 1.1-.9 1.5-1.4.4-.4.7-.8 1-1.2.2-.4.3-.8.3-1.2s-.1-.8-.4-1c-.2-.2-.6-.3-1.1-.3-.2 0-.4 0-.7.1-.2 0-.4.1-.7.2-.2.1-.5.2-.7.3s-.4.2-.7.4l-.2-2c.2-.1.4-.2.7-.3s.5-.2.8-.2c.3-.1.6-.1.9-.2.3 0 .6-.1.9-.1.7 0 1.3.1 1.7.3.5.2.8.5 1.1 1 .2.4.4.9.4 1.5 0 .5-.1 1-.3 1.4s-.5.9-.9 1.4-.9 1-1.5 1.4l-1.3 1.1-.3-.4h4.4v1.8h-6.4z"/></g><path d="m110.8 110.5c0-1.1 0-18.5 0-19.6h6.9c1.5 0 2.8.2 3.8.5 1 .4 1.8.9 2.3 1.7s.8 1.9.8 3.2c0 1.1-.2 2.1-.6 3s-1.1 1.6-2.1 2.2c-1 .5-2.3.8-3.9.8l1.1-1.4s6.8 9 7.2 9.5h-3.7c-.6-.8-6.7-9.2-6.7-9.2l1.9 1.7h-4.5v-2.6h3.6c1 0 1.8-.1 2.5-.3s1.1-.6 1.5-1.1c.3-.5.5-1.2.5-2.1 0-.7-.1-1.3-.3-1.7s-.5-.7-.9-.9-.8-.3-1.2-.4-.9-.1-1.3-.1h-5.9l2.2-2.1v19.1h-3.2z" fill="#d7cd26"/><path d="m130.7 94.1c-.6 0-1.1-.2-1.4-.5s-.5-.8-.5-1.4.2-1.1.5-1.4c.4-.3.8-.5 1.4-.5s1.1.2 1.4.5.5.8.5 1.4c0 .7-.2 1.1-.5 1.4s-.7.5-1.4.5zm-1.4 16.4c0-1 0-13 0-13.6l2.9-.1v13.7z" fill="#d7cd26"/><path d="m251.6 110.5c.1-1 2.3-18.4 2.4-19.6h3.2c.5 1.3 5.8 14.3 5.8 14.3h.2s5.1-13 5.6-14.3h3.2c.1 1.1 2.3 18.5 2.4 19.6h-3.1c-.2-1.6-1.7-14-1.7-14h-.2s-4.8 12.8-5.3 14h-2.2c-.3-.8-5.6-14-5.6-14h-.2s-1.5 12.4-1.7 14z" fill="#67b5c5"/><path d="m281.3 110.7c-.8 0-1.5-.2-2.1-.5s-1.1-.8-1.4-1.4c-.4-.6-.5-1.3-.5-2.2 0-.8.1-1.4.4-1.9s.6-.9 1-1.3c.4-.3.9-.6 1.4-.8s1.1-.3 1.6-.4l4-.6c0-.8-.1-1.3-.3-1.7s-.6-.7-1.1-.8-1-.2-1.6-.2c-.3 0-.6 0-1 .1s-.7.1-1.1.2-.8.2-1.2.4-.9.3-1.3.5l-.2-2.6c.3-.1.7-.3 1.1-.4s.9-.2 1.4-.4c.5-.1 1-.2 1.5-.2s1.1-.1 1.6-.1c1.1 0 2 .2 2.8.5s1.4.8 1.8 1.5.6 1.6.6 2.7v9.2h-2.6l-.2-1.8h-.3c-.3.3-.6.7-1 1s-.9.6-1.4.8c-.6.3-1.2.4-1.9.4zm.9-2.3c.4 0 .9-.1 1.3-.3s.8-.5 1.2-.8c.4-.4.7-.8.9-1.3v-2.4c-.1.1-.3.2-.5.2s-.5.2-1 .2-1 .2-1.8.3c-.4.1-.8.2-1.2.4s-.6.4-.7.7-.3.7-.3 1.1c0 .7.2 1.1.6 1.4s1 .5 1.5.5z" fill="#67b5c5"/><path d="m160 29.9c-1.7 0-3.2-.3-4.5-.8s-2.4-1.2-3.3-2.1-1.6-2-2-3.2c-.5-1.2-.7-2.6-.7-4 0-2 .4-3.7 1.2-5.2s2-2.7 3.5-3.6 3.3-1.3 5.3-1.3c.7 0 1.4 0 2 .1s1.3.2 1.8.4c.6.2 1.1.3 1.6.5s.9.4 1.3.5l-.3 3c-.8-.4-1.5-.8-2.2-1-.7-.3-1.4-.5-2.1-.6s-1.3-.2-1.9-.2c-1 0-1.9.2-2.8.5s-1.6.8-2.2 1.4-1.1 1.4-1.4 2.3-.5 1.9-.5 3.1c0 1 .1 2 .4 2.9s.7 1.7 1.3 2.4 1.4 1.2 2.3 1.6 2 .6 3.3.6c.5 0 1.1 0 1.6-.1s1-.1 1.5-.3c.5-.1 1-.3 1.5-.4s.9-.4 1.4-.7l.4 2.9c-.3.1-.7.3-1.2.4s-1 .3-1.6.4-1.2.2-1.8.3-1.3.2-1.9.2zm3.5-1.1c0-1 0-8.5 0-9.2h3v9.1z" fill="#8dc63f"/><path d="m173.7 29.9c-.8 0-1.5-.2-2.1-.5s-1.1-.8-1.4-1.4c-.4-.6-.5-1.3-.5-2.2 0-.8.1-1.4.4-1.9s.6-.9 1-1.3c.4-.3.9-.6 1.4-.8s1.1-.3 1.6-.4l4-.6c0-.8-.1-1.3-.3-1.7s-.6-.7-1.1-.8-1-.2-1.6-.2c-.3 0-.6 0-1 .1s-.7.1-1.1.2-.8.2-1.2.4-.9.3-1.3.5l-.2-2.6c.3-.1.7-.3 1.1-.4s.9-.2 1.4-.4c.5-.1 1-.2 1.5-.2s1.1-.1 1.6-.1c1.1 0 2 .2 2.8.5s1.4.8 1.8 1.5.6 1.6.6 2.7v9.2h-2.6l-.2-1.8h-.3c-.3.3-.6.7-1 1s-.9.6-1.4.8c-.7.3-1.3.4-1.9.4zm.9-2.3c.4 0 .9-.1 1.3-.3s.8-.5 1.2-.8c.4-.4.7-.8.9-1.3v-2.4c-.1.1-.3.2-.5.2s-.5.2-1 .2-1 .2-1.8.3c-.4.1-.8.2-1.2.4s-.6.4-.7.7-.3.7-.3 1.1c0 .7.2 1.1.6 1.4s1 .5 1.5.5z" fill="#8dc63f"/><path d="m393.6 110.5c0-1.1 0-18.5 0-19.6h7.2c1.5 0 2.8.2 4 .7 1.2.4 2.2 1.1 3 1.9s1.4 1.9 1.8 3.1.6 2.6.6 4.1c0 1.4-.2 2.7-.6 3.9s-1 2.2-1.8 3.1-1.9 1.6-3.2 2.1-2.9.8-4.8.8c-.6-.1-5.5-.1-6.2-.1zm3.3-2.7h3.2c1.7 0 3-.3 4-.9s1.7-1.5 2.2-2.6c.4-1.1.7-2.3.7-3.7 0-1.1-.1-2-.4-2.9s-.7-1.6-1.2-2.2-1.2-1.1-2.1-1.4-1.8-.5-3-.5h-3.4z" fill="#92278f"/><path d="m413.6 110.5c0-1 0-19 0-20.1l2.9-.3v8.9h.3c.3-.4.6-.8 1-1.1.4-.4.9-.7 1.5-.9.6-.3 1.2-.4 1.9-.4 1.4 0 2.5.4 3.1 1.2.7.8 1 2 1 3.6v9.1h-2.9c0-1 0-8.3 0-8.3 0-1-.2-1.7-.5-2.2s-1-.8-1.9-.8c-.5 0-1 .1-1.5.3-.4.2-.8.5-1.2.9s-.7.8-1 1.2v8.9z" fill="#92278f"/><path d="m432.6 110.7c-.8 0-1.5-.2-2.1-.5s-1.1-.8-1.4-1.4c-.4-.6-.5-1.3-.5-2.2 0-.8.1-1.4.4-1.9s.6-.9 1-1.3c.4-.3.9-.6 1.4-.8s1.1-.3 1.6-.4l4-.6c0-.8-.1-1.3-.3-1.7s-.6-.7-1.1-.8-1-.2-1.6-.2c-.3 0-.6 0-1 .1s-.7.1-1.1.2-.8.2-1.2.4-.9.3-1.3.5l-.2-2.6c.3-.1.7-.3 1.1-.4s.9-.2 1.4-.4c.5-.1 1-.2 1.5-.2.5-.1 1.1-.1 1.6-.1 1.1 0 2 .2 2.8.5s1.4.8 1.8 1.5.6 1.6.6 2.7v9.2h-2.6l-.2-1.8h-.3c-.3.3-.6.7-1 1s-.9.6-1.4.8c-.6.3-1.2.4-1.9.4zm1-2.3c.4 0 .9-.1 1.3-.3s.8-.5 1.2-.8.7-.8.9-1.3v-2.4c-.1.1-.3.2-.5.2s-.5.2-1 .2-1 .2-1.8.3c-.4.1-.8.2-1.2.4-.3.2-.6.4-.7.7-.2.3-.3.7-.3 1.1 0 .7.2 1.1.6 1.4.5.4.9.5 1.5.5z" fill="#92278f"/><path d="m450 29.6c0-1.1 0-18.5 0-19.6h2.9c1.1 1.5 9.9 14 9.9 14h.3s0-13 0-14h3v19.6h-2.8c-.9-1.3-9.9-14.1-9.9-14.1h-.4v14.1z" fill="#ec008c"/><path d="m471.9 13.2c-.6 0-1.1-.2-1.4-.5s-.5-.8-.5-1.4.2-1.1.5-1.4c.4-.3.8-.5 1.4-.5s1.1.2 1.4.5c.4.3.5.8.5 1.4 0 .7-.2 1.1-.5 1.4s-.8.5-1.4.5zm-1.4 16.4c0-1 0-13 0-13.6l2.9-.1v13.7z" fill="#ec008c"/><path d="m320.4 29.6c0-1.1 0-18.5 0-19.6h7.3c1.5 0 2.8.2 3.8.6s1.8 1 2.3 1.9.8 2 .8 3.3c0 1.2-.2 2.3-.7 3.3-.4 1-1.2 1.7-2.2 2.2s-2.4.8-4.2.8c-.4 0-3.9 0-4.2 0v-2.6h3.6c1 0 1.9-.1 2.5-.4.7-.2 1.1-.6 1.5-1.2s.5-1.2.5-2.1c0-.7-.1-1.3-.3-1.7s-.5-.7-.9-1c-.4-.2-.8-.4-1.2-.4s-.9-.1-1.3-.1h-5.4l1.6-2.1v19.1z" fill="#0072bc"/><path d="m340.9 29.9c-.8 0-1.5-.2-2.1-.5s-1.1-.8-1.4-1.4c-.4-.6-.5-1.3-.5-2.2 0-.8.1-1.4.4-1.9s.6-.9 1-1.3.9-.6 1.4-.8 1.1-.3 1.6-.4l4-.6c0-.8-.1-1.3-.3-1.7s-.6-.7-1.1-.8-1-.2-1.6-.2c-.3 0-.6 0-1 .1s-.7.1-1.1.2-.8.2-1.2.4-.9.3-1.3.5l-.2-2.6c.3-.1.7-.3 1.1-.4s.9-.2 1.4-.4c.5-.1 1-.2 1.5-.2.5-.1 1.1-.1 1.6-.1 1.1 0 2 .2 2.8.5s1.4.8 1.8 1.5.6 1.6.6 2.7v9.2h-2.6l-.2-1.8h-.3c-.3.3-.6.7-1 1s-.9.6-1.4.8c-.6.3-1.2.4-1.9.4zm1-2.3c.4 0 .9-.1 1.3-.3s.8-.5 1.2-.8c.4-.4.7-.8.9-1.3v-2.4c-.1.1-.3.2-.5.2s-.5.2-1 .2-1 .2-1.8.3c-.4.1-.8.2-1.2.4-.3.2-.6.4-.7.7-.2.3-.3.7-.3 1.1 0 .7.2 1.1.6 1.4.5.3.9.5 1.5.5z" fill="#0072bc"/><path d="m178.5 84.8h-120c-1.2 0-2.1-1-2.1-2.1s1-2.1 2.1-2.1h120c1.2 0 2.1 1 2.1 2.1s-.9 2.1-2.1 2.1z" fill="#e2d71d"/><path d="m311.3 84.8h-82c-1.2 0-2.1-1-2.1-2.1s1-2.1 2.1-2.1h82c1.2 0 2.1 1 2.1 2.1s-.9 2.1-2.1 2.1z" fill="#67b5c5"/><path d="m477.8 84.8h-117.1c-1.2 0-2.1-1-2.1-2.1s1-2.1 2.1-2.1h117.2c1.2 0 2.1 1 2.1 2.1s-1 2.1-2.2 2.1z" fill="#92278f"/><path d="m520.2 38.9h-117.1c-1.2 0-2.1-1-2.1-2.1s1-2.1 2.1-2.1h117.2c1.2 0 2.1 1 2.1 2.1s-1 2.1-2.2 2.1z" fill="#ec008c"/><path d="m222.6 38.9h-117.2c-1.2 0-2.1-1-2.1-2.1s1-2.1 2.1-2.1h117.2c1.2 0 2.1 1 2.1 2.1s-1 2.1-2.1 2.1z" fill="#8dc63f"/><path d="m52.5 38.9h-32.1c-1.2 0-2.1-1-2.1-2.1s1-2.1 2.1-2.1h32.1c1.2 0 2.1 1 2.1 2.1s-.9 2.1-2.1 2.1z" fill="#ed1c24"/><path d="m350.1 38.9h-32.1c-1.2 0-2.1-1-2.1-2.1s1-2.1 2.1-2.1h32.1c1.2 0 2.1 1 2.1 2.1s-.9 2.1-2.1 2.1z" fill="#0072bc"/></svg>