<?xml version="1.0" encoding="utf-8"?>
<!-- Generator: Adobe Illustrator 13.0.0, SVG Export Plug-In . SVG Version: 6.00 Build 14948)  -->
<!DOCTYPE svg PUBLIC "-//W3C//DTD SVG 1.1//EN" "http://www.w3.org/Graphics/SVG/1.1/DTD/svg11.dtd">
<svg version="1.1" xmlns="http://www.w3.org/2000/svg" xmlns:xlink="http://www.w3.org/1999/xlink" x="0px" y="0px" width="428.5px"
	 height="404.5px" viewBox="0 0 428.5 404.5" enable-background="new 0 0 428.5 404.5" xml:space="preserve">
<g id="Ebene_2">
	<rect x="-0.5" y="-0.5" width="430" height="406"/>
	<circle fill="#FF0000" cx="214.384" cy="58.901" r="26.167"/>
	<circle fill="#7F8BFD" cx="214.384" cy="351.568" r="26.167"/>
	<circle fill="#FF7F00" cx="285.384" cy="76.234" r="26.167"/>
	<circle fill="#AB0034" cx="139.384" cy="76.234" r="26.167"/>
	<circle fill="#FFFF00" cx="341.717" cy="130.234" r="26.167"/>
	<circle fill="#A9677C" cx="86.716" cy="130.234" r="26.167"/>
	<circle fill="#33CC33" cx="362.051" cy="205.234" r="26.167"/>
	<circle fill="#B7468B" cx="66.717" cy="205.234" r="26.167"/>
	<circle fill="#C3F2FF" cx="345.384" cy="272.567" r="26.167"/>
	<circle fill="#BB75FC" cx="85.717" cy="272.567" r="26.167"/>
	<circle fill="#8EC9FF" cx="294.384" cy="328.851" r="26.167"/>
	<circle fill="#9000FF" cx="138.05" cy="328.851" r="26.167"/>
</g>
<g id="Ebene_3">
	<g>
		<path d="M218.807,60.319l1.705,0.431c-0.357,1.4-1.001,2.468-1.929,3.204c-0.93,0.735-2.064,1.103-3.406,1.103
			c-1.389,0-2.518-0.283-3.388-0.848s-1.532-1.384-1.986-2.457s-0.681-2.224-0.681-3.454c0-1.342,0.256-2.512,0.769-3.511
			s1.242-1.758,2.188-2.276s1.988-0.778,3.125-0.778c1.289,0,2.373,0.328,3.252,0.984s1.491,1.579,1.837,2.769l-1.679,0.396
			c-0.299-0.938-0.732-1.62-1.301-2.048s-1.283-0.642-2.145-0.642c-0.99,0-1.818,0.237-2.483,0.712s-1.132,1.112-1.402,1.912
			s-0.404,1.625-0.404,2.474c0,1.096,0.16,2.052,0.479,2.87s0.816,1.428,1.49,1.833s1.403,0.606,2.188,0.606
			c0.955,0,1.764-0.275,2.426-0.826S218.572,61.403,218.807,60.319z"/>
	</g>
	<g>
		<path d="M287.143,77.283v-1.512l5.458-0.009v4.781c-0.838,0.668-1.702,1.17-2.593,1.507s-1.805,0.505-2.742,0.505
			c-1.266,0-2.415-0.271-3.449-0.813s-1.815-1.326-2.343-2.351s-0.791-2.171-0.791-3.437c0-1.254,0.263-2.424,0.787-3.511
			s1.278-1.894,2.263-2.421s2.118-0.791,3.401-0.791c0.932,0,1.773,0.151,2.527,0.453c0.752,0.302,1.343,0.722,1.771,1.261
			s0.753,1.242,0.976,2.109l-1.538,0.422c-0.193-0.656-0.434-1.172-0.721-1.547s-0.697-0.675-1.23-0.901s-1.125-0.338-1.775-0.338
			c-0.779,0-1.453,0.119-2.021,0.356s-1.026,0.549-1.375,0.936s-0.62,0.812-0.813,1.274c-0.328,0.797-0.492,1.661-0.492,2.593
			c0,1.148,0.198,2.109,0.594,2.883s0.971,1.348,1.727,1.723s1.559,0.563,2.408,0.563c0.738,0,1.459-0.142,2.162-0.426
			s1.236-0.587,1.6-0.91v-2.399H287.143z"/>
	</g>
	<g>
		<path d="M136.201,82.337V69.452h8.692v1.521h-6.987v3.99h6.047v1.521h-6.047v5.854H136.201z"/>
	</g>
	<g>
		<path d="M338.181,136.337v-12.885h4.438c1.002,0,1.767,0.062,2.294,0.185c0.738,0.17,1.368,0.478,1.89,0.923
			c0.68,0.574,1.188,1.308,1.525,2.202c0.336,0.894,0.505,1.915,0.505,3.063c0,0.979-0.114,1.846-0.343,2.602
			s-0.521,1.381-0.879,1.876s-0.749,0.885-1.174,1.169s-0.938,0.5-1.537,0.646c-0.602,0.146-1.291,0.22-2.07,0.22H338.181z
			 M339.886,134.816h2.751c0.85,0,1.516-0.079,1.999-0.237s0.869-0.381,1.156-0.668c0.404-0.404,0.719-0.948,0.944-1.63
			s0.339-1.51,0.339-2.483c0-1.348-0.222-2.383-0.663-3.107c-0.443-0.724-0.98-1.208-1.613-1.455
			c-0.457-0.176-1.192-0.264-2.206-0.264h-2.707V134.816z"/>
	</g>
	<g>
		<path d="M81.96,136.337v-12.885h4.834c0.984,0,1.774,0.13,2.368,0.391c0.595,0.261,1.061,0.662,1.398,1.204
			c0.336,0.542,0.505,1.109,0.505,1.701c0,0.551-0.149,1.069-0.448,1.556s-0.75,0.879-1.354,1.178
			c0.779,0.229,1.378,0.618,1.797,1.169s0.629,1.201,0.629,1.951c0,0.604-0.127,1.165-0.383,1.683
			c-0.254,0.519-0.569,0.918-0.944,1.2s-0.846,0.494-1.411,0.637c-0.565,0.144-1.258,0.215-2.078,0.215H81.96z M83.666,128.866
			h2.786c0.756,0,1.298-0.05,1.626-0.149c0.434-0.129,0.761-0.343,0.979-0.642c0.221-0.299,0.33-0.674,0.33-1.125
			c0-0.428-0.103-0.804-0.308-1.129s-0.498-0.548-0.879-0.668s-1.034-0.18-1.96-0.18h-2.575V128.866z M83.666,134.816h3.208
			c0.551,0,0.938-0.021,1.16-0.062c0.393-0.07,0.721-0.188,0.984-0.352s0.48-0.403,0.65-0.716s0.255-0.675,0.255-1.085
			c0-0.48-0.123-0.898-0.369-1.252s-0.588-0.604-1.024-0.747c-0.437-0.144-1.065-0.215-1.885-0.215h-2.979V134.816z"/>
	</g>
	<g>
		<path d="M357.266,210.837l4.948-12.885h1.837l5.273,12.885h-1.942l-1.503-3.902h-5.388l-1.415,3.902H357.266z M360.983,205.546
			h4.368l-1.345-3.568c-0.41-1.084-0.715-1.975-0.914-2.672c-0.164,0.826-0.396,1.646-0.694,2.461L360.983,205.546z"/>
	</g>
	<g>
		<path d="M61.148,210.837v-12.885h9.316v1.521h-7.611v3.946h7.128v1.512h-7.128v4.386h7.91v1.521H61.148z"/>
	</g>
	<g>
		<path d="M342.648,278.337v-12.885h9.316v1.521h-7.611v3.946h7.128v1.512h-7.128v4.386h7.91v1.521H342.648z"/>
	</g>
	<g>
		<path d="M78.265,278.337l4.948-12.885h1.837l5.273,12.885h-1.942l-1.503-3.902h-5.388l-1.415,3.902H78.265z M81.983,273.046h4.368
			l-1.345-3.568c-0.41-1.084-0.715-1.975-0.914-2.672c-0.164,0.826-0.396,1.646-0.694,2.461L81.983,273.046z"/>
	</g>
	<g>
		<path d="M290.543,336.337v-12.885h4.834c0.984,0,1.774,0.13,2.368,0.391c0.595,0.261,1.061,0.662,1.398,1.204
			c0.336,0.542,0.505,1.109,0.505,1.701c0,0.551-0.149,1.069-0.448,1.556s-0.75,0.879-1.354,1.178
			c0.779,0.229,1.378,0.618,1.797,1.169s0.629,1.201,0.629,1.951c0,0.604-0.127,1.164-0.383,1.683
			c-0.254,0.519-0.569,0.919-0.944,1.2s-0.846,0.493-1.411,0.637c-0.564,0.144-1.258,0.216-2.078,0.216H290.543z M292.248,328.866
			h2.786c0.756,0,1.298-0.05,1.626-0.149c0.434-0.129,0.761-0.343,0.979-0.642c0.221-0.299,0.33-0.674,0.33-1.125
			c0-0.428-0.103-0.805-0.308-1.13s-0.498-0.548-0.879-0.668s-1.034-0.18-1.96-0.18h-2.575V328.866z M292.248,334.816h3.208
			c0.551,0,0.938-0.021,1.16-0.062c0.393-0.07,0.721-0.188,0.984-0.352s0.48-0.403,0.65-0.717s0.255-0.675,0.255-1.085
			c0-0.48-0.123-0.898-0.369-1.253s-0.588-0.604-1.023-0.747c-0.437-0.144-1.065-0.215-1.886-0.215h-2.979V334.816z"/>
	</g>
	<g>
		<path d="M132.897,336.337v-12.885h4.438c1.002,0,1.767,0.062,2.294,0.185c0.738,0.17,1.368,0.478,1.89,0.923
			c0.68,0.574,1.188,1.308,1.525,2.201c0.336,0.894,0.505,1.915,0.505,3.063c0,0.979-0.114,1.846-0.343,2.602
			s-0.521,1.381-0.879,1.876s-0.749,0.885-1.174,1.169s-0.938,0.5-1.537,0.646c-0.601,0.146-1.291,0.22-2.07,0.22H132.897z
			 M134.602,334.816h2.751c0.85,0,1.516-0.079,2-0.237c0.483-0.158,0.869-0.381,1.156-0.668c0.404-0.404,0.719-0.948,0.944-1.631
			s0.339-1.51,0.339-2.482c0-1.348-0.222-2.384-0.663-3.107c-0.443-0.724-0.98-1.208-1.613-1.454
			c-0.457-0.176-1.192-0.264-2.206-0.264h-2.707V334.816z"/>
	</g>
	<g>
		<path d="M195.868,358.337v-12.885h8.692v1.521h-6.987v3.99h6.047v1.521h-6.047v5.854H195.868z"/>
	</g>
	<g>
		<path d="M211.391,358.557l3.735-13.324h1.266l-3.727,13.324H211.391z"/>
		<path d="M223.811,353.283v-1.512l5.458-0.009v4.781c-0.838,0.668-1.702,1.17-2.593,1.507s-1.805,0.506-2.742,0.506
			c-1.266,0-2.416-0.271-3.449-0.813c-1.035-0.542-1.815-1.325-2.343-2.351s-0.791-2.171-0.791-3.437
			c0-1.254,0.262-2.425,0.786-3.512s1.279-1.894,2.264-2.421s2.118-0.791,3.401-0.791c0.932,0,1.773,0.15,2.526,0.452
			s1.344,0.723,1.771,1.262s0.753,1.242,0.976,2.109l-1.538,0.422c-0.193-0.656-0.434-1.172-0.721-1.547s-0.697-0.676-1.23-0.901
			s-1.125-0.338-1.775-0.338c-0.779,0-1.453,0.118-2.021,0.355s-1.027,0.55-1.375,0.937c-0.35,0.387-0.62,0.812-0.813,1.274
			c-0.328,0.797-0.492,1.661-0.492,2.593c0,1.148,0.197,2.109,0.593,2.883c0.396,0.773,0.972,1.348,1.728,1.723
			s1.559,0.563,2.408,0.563c0.738,0,1.459-0.143,2.162-0.427s1.236-0.587,1.6-0.909v-2.399H223.811z"/>
	</g>
	<g>
		<path d="M231.694,351.126h-0.815v-7.158h0.879v2.554c0.371-0.466,0.845-0.698,1.421-0.698c0.319,0,0.621,0.064,0.906,0.192
			c0.284,0.129,0.519,0.31,0.703,0.543c0.184,0.232,0.327,0.513,0.432,0.842s0.156,0.681,0.156,1.055
			c0,0.889-0.22,1.575-0.659,2.061s-0.967,0.728-1.582,0.728c-0.612,0-1.092-0.256-1.44-0.767V351.126z M231.685,348.494
			c0,0.622,0.085,1.071,0.254,1.348c0.276,0.452,0.651,0.679,1.123,0.679c0.384,0,0.716-0.167,0.996-0.501
			c0.28-0.333,0.42-0.83,0.42-1.491c0-0.677-0.135-1.177-0.402-1.499c-0.27-0.322-0.594-0.483-0.975-0.483
			c-0.384,0-0.716,0.167-0.996,0.501C231.824,347.38,231.685,347.862,231.685,348.494z"/>
	</g>
	<g>
		<path d="M206.227,351.248l0.425-2.08h-0.825v-0.728h0.972l0.361-1.772h-1.333v-0.728h1.479l0.425-2.095h0.732l-0.425,2.095h1.538
			l0.425-2.095h0.737l-0.425,2.095h0.845v0.728h-0.991l-0.366,1.772h1.357v0.728h-1.504l-0.425,2.08h-0.732l0.42-2.08h-1.533
			l-0.425,2.08H206.227z M207.531,348.44h1.533l0.366-1.772h-1.538L207.531,348.44z"/>
	</g>
	<g>
		<path d="M145.861,329.792h-0.815v-7.158h0.879v2.554c0.371-0.466,0.845-0.698,1.421-0.698c0.319,0,0.621,0.064,0.906,0.192
			c0.284,0.129,0.519,0.31,0.703,0.543c0.184,0.232,0.327,0.513,0.432,0.842s0.156,0.681,0.156,1.055
			c0,0.889-0.22,1.575-0.659,2.061s-0.967,0.728-1.582,0.728c-0.612,0-1.092-0.256-1.44-0.767V329.792z M145.851,327.16
			c0,0.622,0.085,1.071,0.254,1.348c0.276,0.452,0.651,0.679,1.123,0.679c0.384,0,0.716-0.167,0.996-0.501
			c0.28-0.333,0.42-0.83,0.42-1.491c0-0.677-0.135-1.177-0.402-1.499c-0.27-0.322-0.594-0.483-0.975-0.483
			c-0.384,0-0.716,0.167-0.996,0.501C145.991,326.046,145.851,326.528,145.851,327.16z"/>
	</g>
	<g>
		<path d="M91.861,271.625h-0.815v-7.158h0.879v2.554c0.371-0.466,0.845-0.698,1.421-0.698c0.319,0,0.621,0.064,0.906,0.192
			c0.284,0.129,0.519,0.31,0.703,0.543c0.184,0.232,0.327,0.513,0.432,0.842s0.156,0.681,0.156,1.055
			c0,0.889-0.22,1.575-0.659,2.061s-0.967,0.728-1.582,0.728c-0.612,0-1.092-0.256-1.44-0.767V271.625z M91.851,268.993
			c0,0.622,0.085,1.071,0.254,1.348c0.276,0.452,0.651,0.679,1.123,0.679c0.384,0,0.716-0.167,0.996-0.501
			c0.28-0.333,0.42-0.83,0.42-1.491c0-0.677-0.135-1.177-0.402-1.499c-0.27-0.322-0.594-0.483-0.975-0.483
			c-0.384,0-0.716,0.167-0.996,0.501C91.991,267.879,91.851,268.361,91.851,268.993z"/>
	</g>
	<g>
		<path d="M72.528,203.626h-0.815v-7.159h0.879v2.554c0.371-0.466,0.845-0.698,1.421-0.698c0.319,0,0.621,0.064,0.906,0.192
			c0.284,0.129,0.519,0.31,0.703,0.543c0.184,0.232,0.327,0.513,0.432,0.842s0.156,0.681,0.156,1.055
			c0,0.889-0.22,1.576-0.659,2.061s-0.967,0.728-1.582,0.728c-0.612,0-1.092-0.256-1.44-0.767V203.626z M72.518,200.994
			c0,0.622,0.085,1.071,0.254,1.348c0.276,0.453,0.651,0.679,1.123,0.679c0.384,0,0.716-0.167,0.996-0.501
			c0.28-0.333,0.42-0.831,0.42-1.492c0-0.677-0.135-1.177-0.402-1.499c-0.27-0.322-0.594-0.483-0.975-0.483
			c-0.384,0-0.716,0.167-0.996,0.501C72.658,199.879,72.518,200.362,72.518,200.994z"/>
	</g>
	<g>
		<path d="M94.194,129.959h-0.815v-7.158h0.879v2.554c0.371-0.466,0.845-0.698,1.421-0.698c0.319,0,0.621,0.064,0.906,0.192
			c0.284,0.129,0.519,0.31,0.703,0.543c0.184,0.232,0.327,0.513,0.432,0.842s0.156,0.681,0.156,1.055
			c0,0.889-0.22,1.575-0.659,2.061s-0.967,0.728-1.582,0.728c-0.612,0-1.092-0.256-1.44-0.767V129.959z M94.185,127.327
			c0,0.622,0.085,1.071,0.254,1.348c0.276,0.452,0.651,0.679,1.123,0.679c0.384,0,0.716-0.167,0.996-0.501
			c0.28-0.333,0.42-0.83,0.42-1.491c0-0.677-0.135-1.177-0.402-1.499c-0.27-0.322-0.594-0.483-0.975-0.483
			c-0.384,0-0.716,0.167-0.996,0.501C94.324,126.213,94.185,126.695,94.185,127.327z"/>
	</g>
</g>
</svg>
