<svg enable-background="new 0 0 428.5 404.5" height="404.5" viewBox="0 0 428.5 404.5" width="428.5" xmlns="http://www.w3.org/2000/svg"><path d="m-.5-.5h430v406h-430z"/><circle cx="214.384" cy="58.901" fill="#f00" r="26.167"/><circle cx="214.384" cy="351.568" fill="#7f8bfd" r="26.167"/><circle cx="285.384" cy="76.234" fill="#ff7f00" r="26.167"/><circle cx="139.384" cy="76.234" fill="#ab0034" r="26.167"/><circle cx="341.717" cy="130.234" fill="#ff0" r="26.167"/><circle cx="86.716" cy="130.234" fill="#a9677c" r="26.167"/><circle cx="362.051" cy="205.234" fill="#3c3" r="26.167"/><circle cx="66.717" cy="205.234" fill="#b7468b" r="26.167"/><circle cx="345.384" cy="272.567" fill="#c3f2ff" r="26.167"/><circle cx="85.717" cy="272.567" fill="#bb75fc" r="26.167"/><circle cx="294.384" cy="328.851" fill="#8ec9ff" r="26.167"/><circle cx="138.05" cy="328.851" fill="#9000ff" r="26.167"/><path d="m218.807 60.319 1.705.431c-.357 1.4-1.001 2.468-1.929 3.204-.93.735-2.064 1.103-3.406 1.103-1.389 0-2.518-.283-3.388-.848s-1.532-1.384-1.986-2.457-.681-2.224-.681-3.454c0-1.342.256-2.512.769-3.511s1.242-1.758 2.188-2.276 1.988-.778 3.125-.778c1.289 0 2.373.328 3.252.984s1.491 1.579 1.837 2.769l-1.679.396c-.299-.938-.732-1.62-1.301-2.048s-1.283-.642-2.145-.642c-.99 0-1.818.237-2.483.712s-1.132 1.112-1.402 1.912-.404 1.625-.404 2.474c0 1.096.16 2.052.479 2.87s.816 1.428 1.49 1.833 1.403.606 2.188.606c.955 0 1.764-.275 2.426-.826s1.11-1.37 1.345-2.454z"/><path d="m287.143 77.283v-1.512l5.458-.009v4.781c-.838.668-1.702 1.17-2.593 1.507s-1.805.505-2.742.505c-1.266 0-2.415-.271-3.449-.813s-1.815-1.326-2.343-2.351-.791-2.171-.791-3.437c0-1.254.263-2.424.787-3.511s1.278-1.894 2.263-2.421 2.118-.791 3.401-.791c.932 0 1.773.151 2.527.453.752.302 1.343.722 1.771 1.261s.753 1.242.976 2.109l-1.538.422c-.193-.656-.434-1.172-.721-1.547s-.697-.675-1.23-.901-1.125-.338-1.775-.338c-.779 0-1.453.119-2.021.356s-1.026.549-1.375.936-.62.812-.813 1.274c-.328.797-.492 1.661-.492 2.593 0 1.148.198 2.109.594 2.883s.971 1.348 1.727 1.723 1.559.563 2.408.563c.738 0 1.459-.142 2.162-.426s1.236-.587 1.6-.91v-2.399z"/><path d="m136.201 82.337v-12.885h8.692v1.521h-6.987v3.99h6.047v1.521h-6.047v5.854h-1.705z"/><path d="m338.181 136.337v-12.885h4.438c1.002 0 1.767.062 2.294.185.738.17 1.368.478 1.89.923.68.574 1.188 1.308 1.525 2.202.336.894.505 1.915.505 3.063 0 .979-.114 1.846-.343 2.602s-.521 1.381-.879 1.876-.749.885-1.174 1.169-.938.5-1.537.646c-.602.146-1.291.22-2.07.22h-4.649zm1.705-1.521h2.751c.85 0 1.516-.079 1.999-.237s.869-.381 1.156-.668c.404-.404.719-.948.944-1.63s.339-1.51.339-2.483c0-1.348-.222-2.383-.663-3.107-.443-.724-.98-1.208-1.613-1.455-.457-.176-1.192-.264-2.206-.264h-2.707z"/><path d="m81.96 136.337v-12.885h4.834c.984 0 1.774.13 2.368.391.595.261 1.061.662 1.398 1.204.336.542.505 1.109.505 1.701 0 .551-.149 1.069-.448 1.556s-.75.879-1.354 1.178c.779.229 1.378.618 1.797 1.169s.629 1.201.629 1.951c0 .604-.127 1.165-.383 1.683-.254.519-.569.918-.944 1.2s-.846.494-1.411.637c-.565.144-1.258.215-2.078.215zm1.706-7.471h2.786c.756 0 1.298-.05 1.626-.149.434-.129.761-.343.979-.642.221-.299.33-.674.33-1.125 0-.428-.103-.804-.308-1.129s-.498-.548-.879-.668-1.034-.18-1.96-.18h-2.575v3.893zm0 5.95h3.208c.551 0 .938-.021 1.16-.062.393-.07.721-.188.984-.352s.48-.403.65-.716.255-.675.255-1.085c0-.48-.123-.898-.369-1.252s-.588-.604-1.024-.747c-.437-.144-1.065-.215-1.885-.215h-2.979z"/><path d="m357.266 210.837 4.948-12.885h1.837l5.273 12.885h-1.942l-1.503-3.902h-5.388l-1.415 3.902zm3.717-5.291h4.368l-1.345-3.568c-.41-1.084-.715-1.975-.914-2.672-.164.826-.396 1.646-.694 2.461z"/><path d="m61.148 210.837v-12.885h9.316v1.521h-7.611v3.946h7.128v1.512h-7.128v4.386h7.91v1.521h-9.615z"/><path d="m342.648 278.337v-12.885h9.316v1.521h-7.611v3.946h7.128v1.512h-7.128v4.386h7.91v1.521h-9.615z"/><path d="m78.265 278.337 4.948-12.885h1.837l5.273 12.885h-1.942l-1.503-3.902h-5.388l-1.415 3.902zm3.718-5.291h4.368l-1.345-3.568c-.41-1.084-.715-1.975-.914-2.672-.164.826-.396 1.646-.694 2.461z"/><path d="m290.543 336.337v-12.885h4.834c.984 0 1.774.13 2.368.391.595.261 1.061.662 1.398 1.204.336.542.505 1.109.505 1.701 0 .551-.149 1.069-.448 1.556s-.75.879-1.354 1.178c.779.229 1.378.618 1.797 1.169s.629 1.201.629 1.951c0 .604-.127 1.164-.383 1.683-.254.519-.569.919-.944 1.2s-.846.493-1.411.637c-.564.144-1.258.216-2.078.216h-4.913zm1.705-7.471h2.786c.756 0 1.298-.05 1.626-.149.434-.129.761-.343.979-.642.221-.299.33-.674.33-1.125 0-.428-.103-.805-.308-1.13s-.498-.548-.879-.668-1.034-.18-1.96-.18h-2.575v3.894zm0 5.95h3.208c.551 0 .938-.021 1.16-.062.393-.07.721-.188.984-.352s.48-.403.65-.717.255-.675.255-1.085c0-.48-.123-.898-.369-1.253s-.588-.604-1.023-.747c-.437-.144-1.065-.215-1.886-.215h-2.979z"/><path d="m132.897 336.337v-12.885h4.438c1.002 0 1.767.062 2.294.185.738.17 1.368.478 1.89.923.68.574 1.188 1.308 1.525 2.201.336.894.505 1.915.505 3.063 0 .979-.114 1.846-.343 2.602s-.521 1.381-.879 1.876-.749.885-1.174 1.169-.938.5-1.537.646c-.601.146-1.291.22-2.07.22zm1.705-1.521h2.751c.85 0 1.516-.079 2-.237.483-.158.869-.381 1.156-.668.404-.404.719-.948.944-1.631s.339-1.51.339-2.482c0-1.348-.222-2.384-.663-3.107-.443-.724-.98-1.208-1.613-1.454-.457-.176-1.192-.264-2.206-.264h-2.707v9.843z"/><path d="m195.868 358.337v-12.885h8.692v1.521h-6.987v3.99h6.047v1.521h-6.047v5.854h-1.705z"/><path d="m211.391 358.557 3.735-13.324h1.266l-3.727 13.324z"/><path d="m223.811 353.283v-1.512l5.458-.009v4.781c-.838.668-1.702 1.17-2.593 1.507s-1.805.506-2.742.506c-1.266 0-2.416-.271-3.449-.813-1.035-.542-1.815-1.325-2.343-2.351s-.791-2.171-.791-3.437c0-1.254.262-2.425.786-3.512s1.279-1.894 2.264-2.421 2.118-.791 3.401-.791c.932 0 1.773.15 2.526.452s1.344.723 1.771 1.262.753 1.242.976 2.109l-1.538.422c-.193-.656-.434-1.172-.721-1.547s-.697-.676-1.23-.901-1.125-.338-1.775-.338c-.779 0-1.453.118-2.021.355s-1.027.55-1.375.937c-.35.387-.62.812-.813 1.274-.328.797-.492 1.661-.492 2.593 0 1.148.197 2.109.593 2.883.396.773.972 1.348 1.728 1.723s1.559.563 2.408.563c.738 0 1.459-.143 2.162-.427s1.236-.587 1.6-.909v-2.399z"/><path d="m231.694 351.126h-.815v-7.158h.879v2.554c.371-.466.845-.698 1.421-.698.319 0 .621.064.906.192.284.129.519.31.703.543.184.232.327.513.432.842s.156.681.156 1.055c0 .889-.22 1.575-.659 2.061s-.967.728-1.582.728c-.612 0-1.092-.256-1.44-.767v.648zm-.009-2.632c0 .622.085 1.071.254 1.348.276.452.651.679 1.123.679.384 0 .716-.167.996-.501.28-.333.42-.83.42-1.491 0-.677-.135-1.177-.402-1.499-.27-.322-.594-.483-.975-.483-.384 0-.716.167-.996.501-.281.332-.42.814-.42 1.446z"/><path d="m206.227 351.248.425-2.08h-.825v-.728h.972l.361-1.772h-1.333v-.728h1.479l.425-2.095h.732l-.425 2.095h1.538l.425-2.095h.737l-.425 2.095h.845v.728h-.991l-.366 1.772h1.357v.728h-1.504l-.425 2.08h-.732l.42-2.08h-1.533l-.425 2.08zm1.304-2.808h1.533l.366-1.772h-1.538z"/><path d="m145.861 329.792h-.815v-7.158h.879v2.554c.371-.466.845-.698 1.421-.698.319 0 .621.064.906.192.284.129.519.31.703.543.184.232.327.513.432.842s.156.681.156 1.055c0 .889-.22 1.575-.659 2.061s-.967.728-1.582.728c-.612 0-1.092-.256-1.44-.767v.648zm-.01-2.632c0 .622.085 1.071.254 1.348.276.452.651.679 1.123.679.384 0 .716-.167.996-.501.28-.333.42-.83.42-1.491 0-.677-.135-1.177-.402-1.499-.27-.322-.594-.483-.975-.483-.384 0-.716.167-.996.501-.28.332-.42.814-.42 1.446z"/><path d="m91.861 271.625h-.815v-7.158h.879v2.554c.371-.466.845-.698 1.421-.698.319 0 .621.064.906.192.284.129.519.31.703.543.184.232.327.513.432.842s.156.681.156 1.055c0 .889-.22 1.575-.659 2.061s-.967.728-1.582.728c-.612 0-1.092-.256-1.44-.767v.648zm-.01-2.632c0 .622.085 1.071.254 1.348.276.452.651.679 1.123.679.384 0 .716-.167.996-.501.28-.333.42-.83.42-1.491 0-.677-.135-1.177-.402-1.499-.27-.322-.594-.483-.975-.483-.384 0-.716.167-.996.501-.28.332-.42.814-.42 1.446z"/><path d="m72.528 203.626h-.815v-7.159h.879v2.554c.371-.466.845-.698 1.421-.698.319 0 .621.064.906.192.284.129.519.31.703.543.184.232.327.513.432.842s.156.681.156 1.055c0 .889-.22 1.576-.659 2.061s-.967.728-1.582.728c-.612 0-1.092-.256-1.44-.767v.649zm-.01-2.632c0 .622.085 1.071.254 1.348.276.453.651.679 1.123.679.384 0 .716-.167.996-.501.28-.333.42-.831.42-1.492 0-.677-.135-1.177-.402-1.499-.27-.322-.594-.483-.975-.483-.384 0-.716.167-.996.501-.28.332-.42.815-.42 1.447z"/><path d="m94.194 129.959h-.815v-7.158h.879v2.554c.371-.466.845-.698 1.421-.698.319 0 .621.064.906.192.284.129.519.31.703.543.184.232.327.513.432.842s.156.681.156 1.055c0 .889-.22 1.575-.659 2.061s-.967.728-1.582.728c-.612 0-1.092-.256-1.44-.767v.648zm-.009-2.632c0 .622.085 1.071.254 1.348.276.452.651.679 1.123.679.384 0 .716-.167.996-.501.28-.333.42-.83.42-1.491 0-.677-.135-1.177-.402-1.499-.27-.322-.594-.483-.975-.483-.384 0-.716.167-.996.501-.281.332-.42.814-.42 1.446z"/></svg>