<svg height="600" viewBox="0 0 800 600" width="800" xmlns="http://www.w3.org/2000/svg"><path d="m0 0h800v600h-800z" fill="#ccc"/><g stroke="#000"><ellipse cx="652" cy="300" fill="#0086cc" rx="70" ry="60"/><ellipse cx="400" cy="300" fill="#5a7b9c" rx="76" ry="46"/><ellipse cx="400" cy="150" fill="#a1c1e6" rx="76" ry="46"/><ellipse cx="400" cy="450" fill="#1b405e" rx="76" ry="46"/><ellipse cx="148" cy="300" fill="#787878" rx="76" ry="46"/><ellipse cx="148" cy="100" fill="#fff" rx="76" ry="46"/><ellipse cx="147.856" cy="500.0029" rx="76" ry="46"/></g><path d="m603.8 414.6c2-.3 4.7-.6 8-.6 4.1 0 7.2 1 9.1 2.7 1.7 1.5 2.8 3.9 2.8 6.8s-.9 5.2-2.5 6.9c-2.3 2.4-5.8 3.6-9.9 3.6-1.2 0-2.4 0-3.4-.3v13h-4.2v-32.1zm4.2 15.6c.9.2 2.1.3 3.5.3 5 0 8.1-2.5 8.1-6.9 0-4.3-3.1-6.4-7.6-6.4-1.8 0-3.2.1-3.9.3v12.7zm36.2 10.8c0 2 .1 4 .3 5.6h-3.8l-.3-2.9h-.1c-1.3 1.8-3.8 3.5-7.1 3.5-4.7 0-7.1-3.3-7.1-6.7 0-5.6 5-8.7 14-8.6v-.5c0-1.9-.5-5.4-5.3-5.3-2.2 0-4.5.6-6.1 1.7l-1-2.8c1.9-1.2 4.8-2 7.7-2 7.1 0 8.8 4.8 8.8 9.5zm-4-6.3c-4.6-.1-9.8.7-9.8 5.2 0 2.8 1.8 4 3.9 4 3.1 0 5-1.9 5.7-3.9.1-.5.2-1 .2-1.3zm15.6-17.9c0 1.4-1 2.6-2.7 2.6-1.5 0-2.5-1.2-2.5-2.6s1.1-2.6 2.6-2.6 2.6 1.1 2.6 2.6zm-4.7 29.8v-23.2h4.2v23.2zm11.2-17c0-2.4 0-4.4-.2-6.3h3.7l.2 3.8h.1c1.2-2.2 3.8-4.3 7.7-4.3 3.2 0 8.2 1.9 8.2 9.9v13.8h-4.2v-13.4c0-3.7-1.4-6.9-5.4-6.9-2.7 0-4.9 2-5.7 4.3-.2.5-.3 1.2-.3 2v14h-4.2v-16.9zm31.5-11.8v5.6h6v3.2h-6v12.5c0 2.9.8 4.5 3.2 4.5 1.2 0 1.8-.1 2.4-.3l.2 3.2c-.8.3-2.1.6-3.7.6-2 0-3.6-.7-4.6-1.8-1.2-1.3-1.6-3.4-1.6-6.1v-12.7h-3.6v-3.2h3.6v-4.3zm12.9 17.9c.1 5.7 3.7 8.1 8 8.1 3 0 4.9-.5 6.4-1.2l.8 3c-1.5.7-4.1 1.5-7.8 1.5-7.2 0-11.4-4.8-11.4-11.8s4.1-12.5 10.9-12.5c7.6 0 9.6 6.6 9.6 10.9 0 .9 0 1.5-.1 2zm12.4-3c0-2.6-1.1-6.8-5.9-6.8-4.3 0-6.1 3.9-6.5 6.8zm9.3-2.1c0-2.7 0-5.1-.2-7.2h3.7l.2 4.6h.1c1.1-3.1 3.6-5.1 6.5-5.1.4 0 .8 0 1.2.1v4c-.4-.1-.9-.1-1.4-.1-3 0-5.1 2.2-5.7 5.4-.1.6-.1 1.3-.1 2v12.4h-4.2v-16.1zm15.1 11.7c1.3.8 3.5 1.6 5.6 1.6 3 0 4.5-1.5 4.5-3.5s-1.2-3.1-4.3-4.2c-4.2-1.5-6.2-3.8-6.2-6.6 0-3.7 3.1-6.8 8-6.8 2.4 0 4.4.6 5.7 1.4l-1 3.1c-.9-.6-2.6-1.4-4.8-1.4-2.5 0-3.8 1.4-3.8 3.2 0 1.9 1.3 2.8 4.4 4 4 1.5 6.1 3.5 6.1 7 0 4.1-3.2 7-8.6 7-2.5 0-4.9-.7-6.5-1.6zm24.1-28.9c-1.1 4-3.2 9.2-4.5 11.4l-2.7.3c1-2.8 2.3-7.8 2.8-11.2zm-231.4 89.8c-1.5.8-4.6 1.5-8.5 1.5-9.1 0-15.9-5.8-15.9-16.4 0-10.2 6.9-17 16.9-17 4 0 6.6.9 7.7 1.4l-1.1 3.4c-1.5-.8-3.8-1.3-6.5-1.3-7.6 0-12.6 4.8-12.6 13.3 0 8 4.6 13 12.4 13 2.6 0 5.2-.5 6.9-1.3zm25.7-10.8c0 8.6-6 12.3-11.6 12.3-6.2 0-11.1-4.6-11.1-12 0-7.7 5.1-12.3 11.5-12.3 6.7.1 11.2 4.9 11.2 12zm-18.4.2c0 5.1 2.9 8.9 7 8.9 4 0 7.1-3.8 7.1-9 0-3.9-2-8.9-7-8.9-4.9 0-7.1 4.6-7.1 9zm23.7-22.5h4.2v34.1h-4.2zm32.4 22.3c0 8.6-6 12.3-11.6 12.3-6.2 0-11.1-4.6-11.1-12 0-7.7 5.1-12.3 11.5-12.3 6.6.1 11.2 4.9 11.2 12zm-18.4.2c0 5.1 2.9 8.9 7 8.9 4 0 7.1-3.8 7.1-9 0-3.9-2-8.9-7-8.9s-7.1 4.6-7.1 9zm23.7-4.4c0-2.7 0-5.1-.2-7.2h3.7l.2 4.6h.1c1.1-3.1 3.6-5.1 6.5-5.1.4 0 .8 0 1.2.1v4c-.4-.1-.9-.1-1.4-.1-3 0-5.1 2.2-5.7 5.4-.1.6-.1 1.3-.1 2v12.4h-4.2v-16.1zm53.3 1.8c-.2-4.5-.5-10-.5-14h-.1c-1.2 3.7-2.4 7.8-4.1 12.3l-5.7 15.7h-3.2l-5.3-15.4c-1.5-4.6-2.8-8.7-3.7-12.6h-.1c-.1 4-.3 9.4-.6 14.3l-.9 13.9h-4l2.3-32.4h5.3l5.5 15.6c1.3 4 2.4 7.5 3.3 10.9h.1c.9-3.3 2-6.8 3.5-10.9l5.8-15.6h5.3l2 32.4h-4.1zm16.4-15.6c0 1.4-1 2.6-2.7 2.6-1.5 0-2.5-1.2-2.5-2.6s1.1-2.6 2.6-2.6c1.6 0 2.6 1.1 2.6 2.6zm-4.7 29.8v-23.2h4.2v23.2zm13.2-23.2 3.3 5c.9 1.3 1.6 2.4 2.4 3.7h.1c.8-1.3 1.5-2.5 2.4-3.8l3.2-4.9h4.6l-7.9 11.2 8.1 12h-4.8l-3.5-5.2c-.9-1.3-1.7-2.6-2.5-4h-.1c-.8 1.4-1.5 2.6-2.4 4l-3.4 5.2h-4.7l8.3-11.9-7.9-11.4h4.8zm25-6.6c0 1.4-1 2.6-2.7 2.6-1.5 0-2.5-1.2-2.5-2.6s1.1-2.6 2.6-2.6 2.6 1.1 2.6 2.6zm-4.7 29.8v-23.2h4.2v23.2zm11.2-17c0-2.4 0-4.4-.2-6.3h3.7l.2 3.8h.1c1.2-2.2 3.8-4.3 7.7-4.3 3.2 0 8.2 1.9 8.2 9.9v13.8h-4.2v-13.3c0-3.7-1.4-6.9-5.4-6.9-2.7 0-4.9 2-5.7 4.3-.2.5-.3 1.2-.3 2v14h-4.2v-17zm46.5 13.6c0 5.4-1.1 8.6-3.3 10.7-2.3 2.1-5.6 2.8-8.5 2.8-2.8 0-5.9-.7-7.7-1.9l1.1-3.3c1.5 1 3.9 1.9 6.8 1.9 4.3 0 7.5-2.3 7.5-8.2v-2.5h-.1c-1.2 2.2-3.8 3.9-7.4 3.9-5.8 0-9.9-4.9-9.9-11.3 0-7.9 5.1-12.3 10.5-12.3 4 0 6.2 2.1 7.2 4h.1l.1-3.5h3.7c-.1 1.6-.2 3.6-.2 6.3v13.4zm-4.2-10.7c0-.7 0-1.3-.2-1.9-.8-2.5-2.8-4.5-5.9-4.5-4 0-6.9 3.4-6.9 8.8 0 4.6 2.4 8.4 6.9 8.4 2.6 0 5-1.6 5.9-4.3.2-.7.3-1.5.3-2.3v-4.2zm-234.3 42.9h-9.8v-3.6h24v3.6h-9.9v28.8h-4.2v-28.8zm16.5 17.9c.1 5.7 3.7 8.1 8 8.1 3 0 4.9-.5 6.4-1.2l.8 3c-1.5.7-4.1 1.5-7.8 1.5-7.2 0-11.4-4.8-11.4-11.8s4.1-12.5 10.9-12.5c7.6 0 9.6 6.6 9.6 10.9 0 .9 0 1.5-.1 2zm12.4-3c0-2.6-1.1-6.8-5.9-6.8-4.3 0-6.1 3.9-6.5 6.8zm9.3-2.1c0-2.7 0-5.1-.2-7.2h3.7l.2 4.6h.1c1.1-3.1 3.6-5.1 6.5-5.1.4 0 .8 0 1.2.1v4c-.4-.1-.9-.1-1.4-.1-3 0-5.1 2.2-5.7 5.4-.1.6-.1 1.3-.1 2v12.4h-4.2v-16.1zm15.9-1c0-2.4-.1-4.4-.2-6.3h3.7l.2 3.8h.1c1.3-2.2 3.5-4.3 7.3-4.3 3.1 0 5.5 1.9 6.5 4.7h.1c.7-1.3 1.7-2.3 2.6-3 1.4-1.1 2.9-1.6 5.1-1.6 3.1 0 7.7 2 7.7 10.1v13.6h-4.1v-13.1c0-4.5-1.7-7.2-5-7.2-2.4 0-4.3 1.8-5 3.8-.2.6-.3 1.3-.3 2.1v14.4h-4.1v-13.9c0-3.7-1.6-6.3-4.8-6.3-2.6 0-4.6 2.1-5.2 4.2-.2.6-.3 1.3-.3 2.1v14h-4.1v-17.1zm44.7-12.8c0 1.4-1 2.6-2.7 2.6-1.5 0-2.5-1.2-2.5-2.6s1.1-2.6 2.6-2.6c1.6 0 2.6 1.1 2.6 2.6zm-4.7 29.8v-23.2h4.2v23.2zm11.3-17c0-2.4 0-4.4-.2-6.3h3.7l.2 3.8h.1c1.2-2.2 3.8-4.3 7.7-4.3 3.2 0 8.2 1.9 8.2 9.9v13.8h-4.2v-13.4c0-3.7-1.4-6.9-5.4-6.9-2.7 0-4.9 2-5.7 4.3-.2.5-.3 1.2-.3 2v14h-4.2v-16.9zm47.6 5.2c0 8.6-6 12.3-11.6 12.3-6.2 0-11.1-4.6-11.1-12 0-7.7 5.1-12.3 11.5-12.3 6.7.1 11.2 4.9 11.2 12zm-18.3.2c0 5.1 2.9 8.9 7 8.9 4 0 7.1-3.8 7.1-9 0-3.9-2-8.9-7-8.9s-7.1 4.6-7.1 9zm23.7-22.5h4.2v34.1h-4.2zm32.3 22.3c0 8.6-6 12.3-11.6 12.3-6.2 0-11.1-4.6-11.1-12 0-7.7 5.1-12.3 11.5-12.3 6.7.1 11.2 4.9 11.2 12zm-18.4.2c0 5.1 2.9 8.9 7 8.9 4 0 7.1-3.8 7.1-9 0-3.9-2-8.9-7-8.9-4.9 0-7.1 4.6-7.1 9zm43.6 8.2c0 5.4-1.1 8.6-3.3 10.7-2.3 2.1-5.6 2.8-8.5 2.8-2.8 0-5.9-.7-7.7-1.9l1.1-3.3c1.5 1 3.9 1.9 6.8 1.9 4.3 0 7.5-2.3 7.5-8.2v-2.5h-.1c-1.2 2.2-3.8 3.9-7.4 3.9-5.8 0-9.9-4.9-9.9-11.3 0-7.9 5.1-12.3 10.5-12.3 4 0 6.2 2.1 7.2 4h.1l.1-3.5h3.7c-.1 1.6-.2 3.6-.2 6.3v13.4zm-4.2-10.7c0-.7 0-1.3-.2-1.9-.8-2.5-2.8-4.5-5.9-4.5-4 0-6.9 3.4-6.9 8.8 0 4.6 2.4 8.4 6.9 8.4 2.6 0 5-1.6 5.9-4.3.2-.7.3-1.5.3-2.3v-4.2zm12.7-9.1 5 13.7c.6 1.5 1.2 3.4 1.5 4.8h.1c.4-1.4.9-3.2 1.5-4.8l4.6-13.6h4.5l-6.3 16.6c-3 8-5.1 12-8 14.5-2.1 1.8-4.1 2.5-5.2 2.7l-1.1-3.5c1.1-.3 2.4-1 3.7-2.1 1.2-.9 2.5-2.5 3.6-4.7.2-.4.3-.8.3-1s-.1-.6-.3-1.1l-8.5-21.4h4.6z"/><path d="m620.5 267.1c1.6-.3 3.7-.5 6.3-.5 3.3 0 5.7.7 7.1 2.1 1.4 1.3 2.2 3 2.2 5.4 0 2.3-.6 4.1-2 5.5-1.8 1.9-4.6 2.8-7.8 2.8-.9 0-1.9 0-2.6-.2v10.2h-3.3v-25.3zm3.3 12.3c.7.2 1.6.3 2.7.3 4 0 6.4-2 6.4-5.4s-2.4-5-6-5c-1.5 0-2.5.1-3.2.3v9.8zm31.5 7.9c0 1.9 0 3.6.1 5h-2.9l-.2-2.9h-.1c-.8 1.5-2.8 3.4-6.1 3.4-2.8 0-6.3-1.6-6.3-8v-10.8h3.4v10.1c0 3.5 1.1 5.9 4.1 5.9 2.2 0 3.8-1.6 4.4-3 .2-.4.3-1.1.3-1.7v-11.3h3.4v13.3zm5.4-7.6c0-2.2 0-4-.1-5.7h2.9l.1 3.7h.1c.8-2.4 2.8-4 5.1-4 .3 0 .6 0 .9.1v3.2c-.3-.1-.6-.1-1.2-.1-2.3 0-4 1.8-4.4 4.2-.1.4-.1 1.1-.1 1.6v9.8h-3.4v-12.8zm13.9 4.1c.1 4.5 2.9 6.3 6.3 6.3 2.4 0 3.9-.4 5-.9l.6 2.4c-1.2.5-3.3 1.2-6.1 1.2-5.7 0-9-3.8-9-9.2 0-5.6 3.3-9.9 8.6-9.9 6 0 7.6 5.2 7.6 8.6 0 .6 0 1.2-.1 1.6h-12.9zm9.8-2.4c0-2.1-.8-5.4-4.6-5.4-3.4 0-4.8 3-5.1 5.4zm-52.6 47.9c-1.2.6-3.7 1.3-6.7 1.3-7.1 0-12.6-4.5-12.6-12.9 0-8 5.4-13.3 13.3-13.3 3.2 0 5.1.6 6.1 1.2l-.8 2.7c-1.3-.6-2.9-1.1-5.1-1.1-6 0-10 3.8-10 10.5 0 6.3 3.6 10.3 9.8 10.3 2 0 4.1-.4 5.4-1.1zm20.1-8.5c0 6.7-4.7 9.7-9.1 9.7-4.9 0-8.8-3.7-8.8-9.5 0-6.1 4.1-9.7 9-9.7 5.3.1 8.9 3.9 8.9 9.5zm-14.5.2c0 4 2.3 7 5.6 7 3.2 0 5.6-2.9 5.6-7.1 0-3.2-1.6-7-5.5-7s-5.7 3.6-5.7 7.1zm18.7-17.8h3.4v26.9h-3.4zm25.5 17.6c0 6.7-4.7 9.7-9.1 9.7-4.9 0-8.8-3.7-8.8-9.5 0-6.1 4.1-9.7 9-9.7 5.4.1 8.9 3.9 8.9 9.5zm-14.5.2c0 4 2.3 7 5.6 7 3.2 0 5.6-2.9 5.6-7.1 0-3.2-1.6-7-5.5-7-4 0-5.7 3.6-5.7 7.1zm18.7-3.5c0-2.2 0-4-.1-5.7h2.9l.1 3.7h.1c.8-2.4 2.8-4 5.1-4 .3 0 .6 0 .9.1v3.2c-.3-.1-.6-.1-1.2-.1-2.3 0-4 1.8-4.4 4.2-.1.4-.1 1.1-.1 1.6v9.8h-3.4v-12.8z" fill="#fff"/><path d="m377.3 140.5h-7.8v-2.8h18.9v2.8h-7.8v22.7h-3.4v-22.7zm17-.8c0 1.2-.8 2-2.1 2s-2-.9-2-2 .8-2.1 2.1-2.1c1.2 0 2 1 2 2.1zm-3.6 23.5v-18.3h3.4v18.3zm8.8-13.4c0-1.9 0-3.5-.1-4.9h2.9l.2 3h.1c.9-1.7 3-3.4 6.1-3.4 2.5 0 6.5 1.5 6.5 7.8v10.9h-3.4v-10.5c0-2.9-1.1-5.4-4.2-5.4-2.2 0-3.9 1.6-4.4 3.4-.1.4-.2.9-.2 1.6v11h-3.4v-13.5zm24.9-9.3v4.4h4.7v2.5h-4.7v9.9c0 2.3.6 3.6 2.5 3.6.9 0 1.5-.1 1.9-.2l.1 2.5c-.6.2-1.7.4-2.9.4-1.6 0-2.8-.5-3.6-1.4-.9-1.1-1.3-2.6-1.3-4.8v-10h-2.8v-2.5h2.8v-3.4z"/><path d="m370.5 291h-7.8v-2.8h18.9v2.8h-7.8v22.7h-3.4v-22.7zm27.7 13.3c0 6.7-4.7 9.7-9.1 9.7-4.9 0-8.8-3.7-8.8-9.5 0-6.1 4.1-9.7 9-9.7 5.3.2 8.9 3.9 8.9 9.5zm-14.5.2c0 4 2.3 7 5.6 7 3.2 0 5.6-2.9 5.6-7.1 0-3.2-1.6-7-5.5-7-4 0-5.7 3.7-5.7 7.1zm18.7-4.3c0-1.9 0-3.5-.1-4.9h2.9l.2 3h.1c.9-1.7 3-3.4 6.1-3.4 2.5 0 6.5 1.5 6.5 7.8v10.9h-3.4v-10.5c0-2.9-1.1-5.4-4.2-5.4-2.2 0-3.9 1.6-4.4 3.4-.1.4-.2.9-.2 1.6v11h-3.4v-13.5zm22.8 4.8c.1 4.5 2.9 6.3 6.3 6.3 2.4 0 3.9-.4 5-.9l.6 2.4c-1.2.5-3.3 1.2-6.1 1.2-5.7 0-9-3.8-9-9.2 0-5.6 3.3-9.9 8.6-9.9 6 0 7.6 5.2 7.6 8.6 0 .6 0 1.2-.1 1.6h-12.9zm9.8-2.4c0-2.1-.8-5.4-4.6-5.4-3.4 0-4.8 3-5.1 5.4z" fill="#fff"/><path d="m110.3 487.9c1.5-.3 3.8-.5 6-.5 3.3 0 5.4.5 6.9 1.9 1.4.9 2.2 2.5 2.2 4.5 0 2.5-1.7 4.6-4.3 5.6v.1c2.4.5 5.2 2.5 5.2 6.3 0 2.2-.8 3.9-2.2 5.1-1.8 1.6-4.6 2.4-8.8 2.4-2.3 0-4-.1-5.1-.3v-25.1zm3.2 10.5h2.9c3.5 0 5.5-1.9 5.5-4.3 0-2.9-2.2-4.2-5.6-4.2-1.5 0-2.4.1-2.9.2v8.3zm0 12.2c.6.1 1.6.1 2.7.1 3.4 0 6.5-1.3 6.5-4.9 0-3.5-2.9-4.9-6.6-4.9h-2.7v9.7zm17.2-24.4h3.4v26.9h-3.4zm21.8 22.5c0 1.6.1 3.2.3 4.4h-2.9l-.3-2.3h-.1c-1.1 1.5-2.9 2.7-5.6 2.7-3.7 0-5.6-2.6-5.6-5.2 0-4.4 3.9-6.8 11-6.8v-.4c0-1.5-.4-4.2-4.2-4.2-1.8 0-3.5.5-4.8 1.4l-.7-2.2c1.5-.9 3.8-1.6 6.1-1.6 5.6 0 6.9 3.8 6.9 7.5v6.7zm-3.3-4.9c-3.7-.1-7.8.5-7.8 4.1 0 2.2 1.5 3.2 3.2 3.2 2.4 0 4-1.5 4.5-3 .1-.4.1-.7.1-1.1zm21.7 8.6c-.8.4-2.8 1.1-5.2 1.1-5.6 0-9.1-3.8-9.1-9.3 0-5.7 3.9-9.8 9.9-9.8 2 0 3.7.5 4.6.9l-.7 2.5c-.8-.4-2-.8-3.9-.8-4.2 0-6.5 3.2-6.5 6.9 0 4.2 2.7 6.8 6.3 6.8 1.9 0 3.2-.4 4.1-.8zm7.1-9.3h.1c.4-.6 1.1-1.5 1.6-2.1l5.4-6.3h4l-7 7.6 8.1 10.8h-4.1l-6.3-8.8-1.7 1.9v6.9h-3.3v-26.9h3.3v16.9z" fill="#fff"/><path d="m354.4 457.1c1.5.9 3.6 1.7 5.9 1.7 3.4 0 5.4-1.8 5.4-4.3 0-2.3-1.4-3.8-4.8-5-4.2-1.5-6.7-3.7-6.7-7.2 0-4 3.3-6.9 8.2-6.9 2.5 0 4.5.6 5.6 1.3l-.9 2.7c-.8-.5-2.5-1.3-4.8-1.3-3.5 0-4.8 2.1-4.8 3.8 0 2.4 1.6 3.6 5 4.9 4.3 1.7 6.5 3.8 6.5 7.5 0 3.9-2.8 7.4-8.9 7.4-2.4 0-5.1-.7-6.5-1.7zm18.9-22.8h3.4v11.4h.1c.5-.9 1.4-1.8 2.4-2.4.9-.5 2.2-.9 3.4-.9 2.4 0 6.4 1.5 6.4 7.8v10.9h-3.4v-10.5c0-2.9-1.1-5.4-4.2-5.4-2.2 0-3.8 1.5-4.4 3.3-.2.5-.2.9-.2 1.6v11h-3.4v-26.8zm33.8 22.4c0 1.6.1 3.2.3 4.4h-2.9l-.3-2.3h-.1c-1.1 1.5-2.9 2.7-5.6 2.7-3.7 0-5.6-2.6-5.6-5.2 0-4.4 3.9-6.8 11-6.8v-.4c0-1.5-.4-4.2-4.2-4.2-1.8 0-3.5.5-4.8 1.4l-.7-2.2c1.5-.9 3.8-1.6 6.1-1.6 5.6 0 6.9 3.8 6.9 7.5v6.7zm-3.1-4.9c-3.7-.1-7.8.5-7.8 4.1 0 2.2 1.5 3.2 3.2 3.2 2.4 0 4-1.5 4.5-3 .1-.4.1-.7.1-1.1zm24.4-17.5v22.2c0 1.6.1 3.5.1 4.7h-2.9l-.1-3.2h-.1c-.9 2-3.2 3.6-6.2 3.6-4.4 0-7.9-3.8-7.9-9.3 0-6.1 3.8-9.8 8.2-9.8 2.8 0 4.7 1.4 5.6 2.7h.1v-10.9zm-3.4 15.9c0-.4 0-.9-.1-1.4-.5-2.1-2.3-3.8-4.8-3.8-3.5 0-5.5 3-5.5 7 0 3.7 1.9 6.7 5.4 6.7 2.2 0 4.3-1.5 4.8-4 .1-.4.1-.9.1-1.5v-3zm10.7 2.3c.1 4.5 2.9 6.3 6.3 6.3 2.4 0 3.9-.4 5-.9l.6 2.4c-1.2.5-3.3 1.2-6.1 1.2-5.7 0-9-3.8-9-9.2 0-5.6 3.3-9.9 8.6-9.9 6 0 7.6 5.2 7.6 8.6 0 .6 0 1.2-.1 1.6h-12.9zm9.8-2.4c0-2.1-.8-5.4-4.6-5.4-3.4 0-4.8 3-5.1 5.4z" fill="#fff"/><path d="m134.2 313.1c-1.5.5-4.4 1.4-7.9 1.4-3.9 0-7-.9-9.6-3.4-2.2-2.1-3.6-5.6-3.6-9.5 0-7.6 5.2-13.1 13.8-13.1 2.9 0 5.2.6 6.4 1.2l-.8 2.7c-1.4-.6-3-1.1-5.7-1.1-6.2 0-10.3 3.9-10.3 10.3 0 6.5 3.9 10.3 9.9 10.3 2.2 0 3.7-.3 4.4-.6v-7.6h-5.1v-2.6h8.4v12zm4.9-11.4c0-2.2 0-4-.1-5.7h2.9l.1 3.7h.1c.8-2.4 2.8-4 5.1-4 .3 0 .6 0 .9.1v3.2c-.3-.1-.6-.1-1.2-.1-2.3 0-4 1.8-4.4 4.2-.1.4-.1 1.1-.1 1.6v9.8h-3.4v-12.8zm25 8.2c0 1.6.1 3.2.3 4.4h-2.9l-.3-2.3h-.1c-1.1 1.5-2.9 2.7-5.6 2.7-3.7 0-5.6-2.6-5.6-5.2 0-4.4 3.9-6.8 11-6.8v-.4c0-1.5-.4-4.2-4.2-4.2-1.8 0-3.5.5-4.8 1.4l-.7-2.2c1.5-.9 3.8-1.6 6.1-1.6 5.6 0 6.9 3.8 6.9 7.5v6.7zm-3.3-5c-3.7-.1-7.8.5-7.8 4.1 0 2.2 1.5 3.2 3.2 3.2 2.4 0 4-1.5 4.5-3 .1-.4.1-.7.1-1.1zm9.6-8.9 4 10.8c.4 1.3.9 2.6 1.3 3.8h.1c.3-1.1.7-2.5 1.2-3.8l3.7-10.7h3.5l-5 13c-2.4 6.3-4 9.5-6.3 11.4-1.7 1.4-3.3 2-4.1 2.1l-.8-2.7c.8-.3 1.9-.8 2.9-1.6.9-.7 2-2 2.8-3.7.1-.3.3-.6.3-.8s-.1-.4-.3-.8l-6.7-16.9h3.4z" fill="#fff"/><path d="m109.7 112.8-6.5-25.5h3.5l3 12.9c.7 3.2 1.5 6.3 1.9 8.8h.1c.4-2.5 1.3-5.6 2.1-8.8l3.4-12.8h3.5l3.2 12.9c.7 3 1.4 6.1 1.8 8.7h.1c.5-2.8 1.3-5.7 2-8.8l3.4-12.8h3.4l-7.2 25.5h-3.5l-3.3-13.2c-.8-3.3-1.4-5.8-1.7-8.3h-.1c-.4 2.5-1.1 5-2 8.3l-3.7 13.2h-3.4zm27.5-26.9h3.4v11.4h.1c.5-.9 1.4-1.8 2.4-2.4.9-.5 2.2-.9 3.4-.9 2.4 0 6.4 1.5 6.4 7.8v10.9h-3.4v-10.5c0-2.9-1.1-5.4-4.2-5.4-2.2 0-3.8 1.5-4.4 3.3-.2.5-.2.9-.2 1.6v11h-3.4v-26.8zm24.6 3.5c0 1.2-.8 2-2.1 2s-2-.9-2-2c0-1.2.8-2.1 2.1-2.1 1.2 0 2 .9 2 2.1zm-3.6 23.4v-18.3h3.4v18.3zm12.8-22.7v4.4h4.7v2.5h-4.7v9.9c0 2.3.6 3.6 2.5 3.6.9 0 1.5-.1 1.9-.2l.1 2.5c-.6.2-1.7.4-2.9.4-1.6 0-2.8-.5-3.6-1.4-.9-1.1-1.3-2.6-1.3-4.8v-10h-2.8v-2.5h2.8v-3.4zm10.2 14.2c.1 4.5 2.9 6.3 6.3 6.3 2.4 0 3.9-.4 5-.9l.6 2.4c-1.2.5-3.3 1.2-6.1 1.2-5.7 0-9-3.8-9-9.2 0-5.6 3.3-9.9 8.6-9.9 6 0 7.6 5.2 7.6 8.6 0 .6 0 1.2-.1 1.6h-12.9zm9.7-2.4c0-2.1-.8-5.4-4.6-5.4-3.4 0-4.8 3-5.1 5.4z"/><path d="m141.5 217.8 6.9 26.1 7-26.1m-.2 166-6.9-26-7 26m145.4-250.4 26.9.1-23.2-13.6m-3.1 190.1 26.1-7-26.1-6.9m1.1 183.9 23.1-13.8-26.9.3m109.6-245.7 7 26.1 6.9-26.1m-.1 158-7-26-7 26m96.6 16.9-18.4 19.7 25.7-7.8m3-216.7-25.7-8.2 18.2 19.9m19.9 93.6-26 7 26 7"/><path d="m148.3 169.1v53.5m0 209.2v-52.7m88.3-266.5 56.5 15.4m-56.5 359.4 54.5-15.4m-51.5-168.9h52.5m109-97v19.5m0 167.2v-18.7m164-71h-56.5m77.5-49.3-92.9-59.7m92.9 150.2-95.9 59.8" fill="none" stroke="#000" stroke-width="3"/></svg>