<svg height="600" viewBox="0 0 720 600" width="720" xmlns="http://www.w3.org/2000/svg"><path d="m0 0h720v600h-720z" fill="#fff"/><path d="m114 19.5h536.8v513.3h-536.8z" fill="#e0e0e0"/><g fill="none"><g stroke="#000" stroke-width="2"><path d="m114 532.8h15m521.8 0h-15"/><path d="m114 424.7h15m521.8 0h-15"/><path d="m114 316.7h15m521.8 0h-15"/><path d="m114 208.6h15m521.8 0h-15"/><path d="m114 100.5h15m521.8 0h-15"/><path d="m114 505.8h7.5m529.3 0h-7.5"/><path d="m114 478.8h7.5m529.3 0h-7.5"/><path d="m114 451.8h7.5m529.3 0h-7.5"/><path d="m114 397.7h7.5m529.3 0h-7.5"/><path d="m114 370.7h7.5m529.3 0h-7.5"/><path d="m114 343.7h7.5m529.3 0h-7.5"/><path d="m114 289.7h7.5m529.3 0h-7.5"/><path d="m114 262.6h7.5m529.3 0h-7.5"/><path d="m114 235.6h7.5m529.3 0h-7.5"/><path d="m114 181.6h7.5m529.3 0h-7.5"/><path d="m114 154.6h7.5m529.3 0h-7.5"/><path d="m114 127.6h7.5m529.3 0h-7.5"/><path d="m114 73.5h7.5m529.3 0h-7.5"/><path d="m114 46.5h7.5m529.3 0h-7.5"/><path d="m114 19.5h7.5m529.3 0h-7.5"/><path d="m114 532.8v-15m0-498.3v15"/><path d="m248.2 532.8v-15m0-498.3v15"/><path d="m382.4 532.8v-15m0-498.3v15"/><path d="m516.6 532.8v-15m0-498.3v15"/><path d="m650.8 532.8v-15m0-498.3v15"/><path d="m140.8 532.8v-7.5m0-505.8v7.5"/><path d="m167.7 532.8v-7.5m0-505.8v7.5"/><path d="m194.5 532.8v-7.5m0-505.8v7.5"/><path d="m221.4 532.8v-7.5m0-505.8v7.5"/><path d="m275 532.8v-7.5m0-505.8v7.5"/><path d="m301.9 532.8v-7.5m0-505.8v7.5"/><path d="m328.7 532.8v-7.5m0-505.8v7.5"/><path d="m355.6 532.8v-7.5m0-505.8v7.5"/><path d="m409.2 532.8v-7.5m0-505.8v7.5"/><path d="m436.1 532.8v-7.5m0-505.8v7.5"/><path d="m462.9 532.8v-7.5m0-505.8v7.5"/><path d="m489.8 532.8v-7.5m0-505.8v7.5"/><path d="m543.4 532.8v-7.5m0-505.8v7.5"/><path d="m570.3 532.8v-7.5m0-505.8v7.5"/><path d="m597.1 532.8v-7.5m0-505.8v7.5"/><path d="m624 532.8v-7.5m0-505.8v7.5"/><path d="m114 19.5h536.8v513.3h-536.8z"/></g><g stroke-width="3" transform="translate(30)"><path d="m89.4 532.8h5.4 5.5 5.4 5.4 5.4 5.5 5.4 5.4 5.4 5.4l5.5-.1 5.4-.2 5.4-.4 5.4-.7 5.5-.9 5.4-1.3 5.4-1.6 5.4-2 5.4-2.4 5.5-2.5 5.4-2.9 5.4-2.9 5.4-3 5.5-3.1 5.4-2.9 5.4-2.9 5.4-2.7 5.4-2.6 5.5-2.3 5.4-2.1 5.4-1.9 5.4-1.7 5.5-1.4 5.4-1.2 5.4-1 5.4-.7 5.4-.6 5.5-.4 5.4-.2 5.4-.1 5.4.1 5.5.2 5.4.3 5.4.4 5.4.5 5.4.5 5.5.7 5.4.7 5.4.7 5.4.8 5.5.8 5.4.9 5.4.8 5.4.9 5.4.9 5.5.9 5.4.9 5.4.9 5.4.9 5.5.9 5.4.9 5.4.8 5.4.9 5.4.8 5.5.9 5.4.8 5.4.8 5.4.8 5.5.7 5.4.8 5.4.7 5.4.7 5.4.7 5.5.7 5.4.7 5.4.6 5.4.6 5.5.6 5.4.6 5.4.6 5.4.6 5.4.5 5.5.5 5.4.6 5.4.5 5.4.4 5.5.5 5.4.5 5.4.4 5.4.4 5.4.4 5.5.4 5.4.4 5.4.4 5.4.4 5.5.3 5.4.4 5.4.3h.01" stroke="#900"/><path d="m89.4 532.8h5.4 5.5 5.4 5.4 5.4 5.5 5.4 5.4l5.4-.1 5.4-.4 5.5-.7 5.4-1.2 5.4-2.1 5.4-2.9 5.5-3.8 5.4-4.8 5.4-5.5 5.4-6.1 5.4-6.5 5.5-6.7 5.4-6.7 5.4-6.6 5.4-6.3 5.5-5.9 5.4-5.4 5.4-4.8 5.4-4.3 5.4-3.6 5.5-3.1 5.4-2.5 5.4-1.9 5.4-1.4 5.5-1 5.4-.5 5.4-.2 5.4.3 5.4.5 5.5.8 5.4 1 5.4 1.3 5.4 1.4 5.5 1.5 5.4 1.7 5.4 1.8 5.4 1.9 5.4 1.9 5.5 1.9 5.4 2 5.4 2 5.4 2 5.5 2 5.4 2 5.4 2 5.4 1.9 5.4 1.9 5.5 1.9 5.4 1.8 5.4 1.8 5.4 1.8 5.5 1.7 5.4 1.7 5.4 1.6 5.4 1.6 5.4 1.6 5.5 1.5 5.4 1.4 5.4 1.4 5.4 1.4 5.5 1.3 5.4 1.3 5.4 1.2 5.4 1.2 5.4 1.2 5.5 1.1 5.4 1.1 5.4 1.1 5.4 1 5.5.9 5.4 1 5.4.9 5.4.9 5.4.8 5.5.8 5.4.8 5.4.8 5.4.7 5.5.8 5.4.6 5.4.7 5.4.7 5.4.6 5.5.6 5.4.6 5.4.5 5.4.6 5.5.5 5.4.5 5.4.5h.01" stroke="#f00"/><path d="m89.4 532.8h5.4 5.5 5.4 5.4 5.4 5.5l5.4-.1 5.4-.2 5.4-.8 5.4-1.7 5.5-3.2 5.4-5.1 5.4-7.2 5.4-9.3 5.5-11.1 5.4-12.4 5.4-13.3 5.4-13.7 5.4-13.6 5.5-13 5.4-12.2 5.4-11.1 5.4-9.9 5.5-8.5 5.4-7.2 5.4-5.8 5.4-4.6 5.4-3.3 5.5-2.3 5.4-1.2 5.4-.3 5.4.5 5.5 1.1 5.4 1.8 5.4 2.3 5.4 2.7 5.4 3.1 5.5 3.4 5.4 3.6 5.4 3.7 5.4 3.9 5.5 4 5.4 4 5.4 4.1 5.4 4.1 5.4 4 5.5 4 5.4 3.9 5.4 3.9 5.4 3.8 5.5 3.7 5.4 3.6 5.4 3.5 5.4 3.4 5.4 3.4 5.5 3.2 5.4 3.1 5.4 3 5.4 2.9 5.5 2.8 5.4 2.7 5.4 2.6 5.4 2.5 5.4 2.5 5.5 2.3 5.4 2.2 5.4 2.2 5.4 2.1 5.5 2 5.4 1.9 5.4 1.9 5.4 1.8 5.4 1.7 5.5 1.6 5.4 1.6 5.4 1.5 5.4 1.5 5.5 1.4 5.4 1.3 5.4 1.3 5.4 1.3 5.4 1.2 5.5 1.2 5.4 1.1 5.4 1 5.4 1.1 5.5 1 5.4.9 5.4.9 5.4.9 5.4.9 5.5.8 5.4.8 5.4.8 5.4.7 5.5.7 5.4.7 5.4.6h.01" stroke="#f60"/><path d="m89.4 532.8h5.4 5.5 5.4 5.4 5.4l5.5-.1 5.4-.4 5.4-1.3 5.4-3.4 5.4-6.6 5.5-10.7 5.4-15.1 5.4-19.2 5.4-22.5 5.5-24.7 5.4-25.7 5.4-25.5 5.4-24.5 5.4-22.6 5.5-20.3 5.4-17.6 5.4-14.8 5.4-12 5.5-9.2 5.4-6.7 5.4-4.3 5.4-2.2 5.4-.3 5.5 1.3 5.4 2.6 5.4 3.9 5.4 4.8 5.5 5.6 5.4 6.3 5.4 6.7 5.4 7.1 5.4 7.4 5.5 7.5 5.4 7.6 5.4 7.7 5.4 7.6 5.5 7.5 5.4 7.4 5.4 7.3 5.4 7.1 5.4 7 5.5 6.7 5.4 6.6 5.4 6.3 5.4 6.1 5.5 6 5.4 5.6 5.4 5.5 5.4 5.3 5.4 5.1 5.5 4.8 5.4 4.7 5.4 4.5 5.4 4.3 5.5 4.1 5.4 3.9 5.4 3.8 5.4 3.6 5.4 3.5 5.5 3.3 5.4 3.2 5.4 3 5.4 2.9 5.5 2.8 5.4 2.7 5.4 2.5 5.4 2.5 5.4 2.3 5.5 2.2 5.4 2.2 5.4 2 5.4 2 5.5 1.9 5.4 1.8 5.4 1.7 5.4 1.7 5.4 1.6 5.5 1.5 5.4 1.5 5.4 1.4 5.4 1.4 5.5 1.3 5.4 1.2 5.4 1.2 5.4 1.2 5.4 1.1 5.5 1 5.4 1 5.4 1 5.4 1 5.5.9 5.4.8 5.4.9h.01" stroke="#fc0"/><path d="m89.4 532.8h5.4 5.5 5.4 5.4 5.4l5.5-.4 5.4-1.9 5.4-5.4 5.4-11.4 5.4-19.3 5.5-27.9 5.4-35.6 5.4-41.4 5.4-44.8 5.5-45.5 5.4-44.2 5.4-41 5.4-36.6 5.4-31.4 5.5-26 5.4-20.5 5.4-15.1 5.4-10.4 5.5-5.9 5.4-2 5.4 1.3 5.4 4.2 5.4 6.5 5.5 8.5 5.4 10 5.4 11.2 5.4 12.1 5.5 12.7 5.4 13.2 5.4 13.5 5.4 13.5 5.4 13.5 5.5 13.4 5.4 13.1 5.4 12.9 5.4 12.6 5.5 12.2 5.4 11.9 5.4 11.4 5.4 11 5.4 10.6 5.5 10.2 5.4 9.8 5.4 9.3 5.4 9 5.5 8.5 5.4 8.2 5.4 7.8 5.4 7.5 5.4 7.1 5.5 6.8 5.4 6.5 5.4 6.2 5.4 5.8 5.5 5.7 5.4 5.3 5.4 5.1 5.4 4.9 5.4 4.6 5.5 4.4 5.4 4.2 5.4 4 5.4 3.9 5.5 3.6 5.4 3.5 5.4 3.3 5.4 3.2 5.4 3 5.5 2.9 5.4 2.8 5.4 2.6 5.4 2.5 5.5 2.4 5.4 2.3 5.4 2.2 5.4 2.2 5.4 2 5.5 1.9 5.4 1.8 5.4 1.8 5.4 1.7 5.5 1.6 5.4 1.6 5.4 1.5 5.4 1.4 5.4 1.4 5.5 1.3 5.4 1.3 5.4 1.2 5.4 1.1 5.5 1.2 5.4 1 5.4 1.1h.01" stroke="#0c0"/></g><path d="m114 19.5h536.8v513.3h-536.8z" stroke="#000" stroke-width="3"/></g><g font-family="Arial" font-size="14pt"><g text-anchor="end"><text transform="translate(104.3 538)">0</text><text transform="translate(104.3 429.9)">2E+11</text><text transform="translate(104.3 321.9)">4E+11</text><text transform="translate(104.3 213.8)">6E+11</text><text transform="translate(104.3 105.7)">8E+11</text></g><g text-anchor="middle"><g><text transform="translate(114 559)">0</text><text transform="translate(248.2 559)">500</text><text transform="translate(382.4 559)">1000</text><text transform="translate(516.6 559)">1500</text><text transform="translate(650.8 559)">2000</text></g><g><text transform="matrix(0 -1 1 0 30.5 276.2)">Spectral energy density / kJ/m<tspan dy="-5" font-size="10pt">3</tspan> <tspan dy="5">nm</tspan></text><text transform="translate(382.4 590.5)">Wavelength / nm</text></g></g></g><g font-family="Arial" font-size="14pt" text-anchor="middle"><text x="336.3" y="479.1">3500K</text><text x="309.2" y="432.8">4000K</text><text x="287.5" y="356.7">4500K</text><text x="271.2" y="238.1">5000K</text><text x="260.4" y="62.4">5500K</text></g></svg>