<svg xmlns="http://www.w3.org/2000/svg" xmlns:xlink="http://www.w3.org/1999/xlink" viewBox="0 0 198.43 198.43">
  <defs>
    <clipPath id="clip-path">
      <rect x="-0.11" y="-12.95" width="211.49" height="211.49" fill="none"/>
    </clipPath>
  </defs>
  <g id="sun">
    <g clip-path="url(#clip-path)">
      <g>
        <circle cx="-0.11" cy="198.54" r="198.43" fill="#f48740"/>
        <circle cx="-0.11" cy="198.54" r="195.25" fill="#fdba5c"/>
        <circle cx="-0.11" cy="198.54" r="183.25" fill="#fac678"/>
        <circle cx="-0.11" cy="198.54" r="145.98" fill="#fed85c"/>
        <circle cx="-0.11" cy="198.54" r="138.05" fill="#feef88"/>
        <circle cx="-0.11" cy="198.54" r="39.4" fill="#f9ef60"/>
        <path d="M198.31,198.89H-.11a.36.36,0,0,1-.36-.35.36.36,0,0,1,.36-.36H198.31a.36.36,0,1,1,0,.71Z" fill="#231f20"/>
      </g>
    </g>
  </g>
  <g id="text">
    <g>
      <path d="M9.21,178.51a3.41,3.41,0,0,1-1.1-.73,2.8,2.8,0,0,1-.64-1,2.85,2.85,0,0,1-.17-1.16,3.67,3.67,0,0,1,.29-1.23,3.49,3.49,0,0,1,1-1.35,2.83,2.83,0,0,1,1.4-.6,3.06,3.06,0,0,1,1.6.26,5.12,5.12,0,0,1,.52.27,5.15,5.15,0,0,1,.45.32c.13.11.26.22.37.33a2.38,2.38,0,0,1,.27.31l-.35.65a5.37,5.37,0,0,0-.47-.55,3.58,3.58,0,0,0-.49-.4,2.92,2.92,0,0,0-.52-.28,2.13,2.13,0,0,0-2.26.27,2.76,2.76,0,0,0-.78,1.09,2.67,2.67,0,0,0-.24.93,2.23,2.23,0,0,0,.1.9,2.08,2.08,0,0,0,.47.79,2.72,2.72,0,0,0,.87.59l.41.14a3.29,3.29,0,0,0,.43.09,2.26,2.26,0,0,0,.45,0,2.59,2.59,0,0,0,.47-.05l-.24.69a2.12,2.12,0,0,1-.44,0,2.59,2.59,0,0,1-.47,0,4.05,4.05,0,0,1-.47-.12Z" fill="#231f20"/>
      <path d="M13.75,181.35a3.34,3.34,0,0,1-.9-1,2.79,2.79,0,0,1-.32-1.13,3.17,3.17,0,0,1,.18-1.14,3.86,3.86,0,0,1,.6-1.06,3.61,3.61,0,0,1,1.28-1,2.75,2.75,0,0,1,1.52-.23,3.12,3.12,0,0,1,1.55.72,3.5,3.5,0,0,1,.87,1,2.75,2.75,0,0,1,.32,1.13,2.84,2.84,0,0,1-.18,1.14,3.86,3.86,0,0,1-1.89,2.1,2.71,2.71,0,0,1-1.51.22A3,3,0,0,1,13.75,181.35Zm.4-.53a2.3,2.3,0,0,0,.91.48,1.87,1.87,0,0,0,.88,0,2.21,2.21,0,0,0,.82-.36,3.43,3.43,0,0,0,.68-.64,3,3,0,0,0,.49-.84,2.29,2.29,0,0,0,.17-.88,2,2,0,0,0-.22-.85,2.57,2.57,0,0,0-1.53-1.22,2.06,2.06,0,0,0-.89,0,2.62,2.62,0,0,0-.83.35,3.48,3.48,0,0,0-.69.64,3,3,0,0,0-.48.82,2.21,2.21,0,0,0-.17.87,1.91,1.91,0,0,0,.2.87A2.37,2.37,0,0,0,14.15,180.82Z" fill="#231f20"/>
      <path d="M16.66,183.9l.79-.57.84-.61,1.65-1.19.84-.61.8-.57.32.45.41.56.47.65a3.31,3.31,0,0,1,.54,1,1.29,1.29,0,0,1,0,.87,1.74,1.74,0,0,1-.64.74,2,2,0,0,1-.85.38,1.41,1.41,0,0,1-.91-.14,2.43,2.43,0,0,1-.92-.84h.41l-.4,1.48c-.07.23-.13.47-.2.73s-.15.51-.21.76-.14.46-.19.65l-.53-.73c.09-.31.18-.61.26-.9s.17-.58.25-.86l.5-1.7,0,.6L19,183l.51-.37.68.93a2.7,2.7,0,0,0,.61.64.93.93,0,0,0,.63.18,1.34,1.34,0,0,0,.69-.29,1.14,1.14,0,0,0,.41-.45.69.69,0,0,0,.07-.44,1.36,1.36,0,0,0-.14-.43,3.32,3.32,0,0,0-.23-.37l-1.05-1.45.73.11-.81.58-.83.61-1.56,1.12-.84.61-.79.57Z" fill="#231f20"/>
      <path d="M19.67,188.37l.9-.38.95-.4,1.88-.78,1-.41.9-.38,1.46,3.48-.61.25c-.11-.26-.23-.54-.35-.84l-.45-1.06-.53-1.27.67.18-.91.38-.95.4-1.68.7-.94.4-.9.38.35-.56.54,1.29c.15.34.28.67.41,1l.37.88-.61.25Zm2.76-.52.6-.25.45,1.08.39.94.32.75-.59.25-.33-.77c-.1-.26-.23-.57-.38-.92Z" fill="#231f20"/>
    </g>
    <g>
      <path d="M31.24,120.65q.21-.47.39-.9l.41-.94.81-1.87c.15-.35.28-.67.41-1s.26-.59.39-.9l.51.22.64.28.73.31a3.66,3.66,0,0,1,1,.61,1.32,1.32,0,0,1,.42.76,1.74,1.74,0,0,1-.16,1,2,2,0,0,1-.54.76,1.45,1.45,0,0,1-.85.35,2.47,2.47,0,0,1-1.22-.25l.35-.21.41,1.48c.06.23.13.47.2.73s.14.51.2.76.13.46.18.65l-.82-.35c-.09-.32-.17-.62-.24-.91s-.16-.58-.23-.86l-.45-1.72.29.53-1.28-.55.25-.58,1.06.46a2.47,2.47,0,0,0,.85.23.93.93,0,0,0,.63-.16A1.32,1.32,0,0,0,36,118a1.19,1.19,0,0,0,.12-.6A.77.77,0,0,0,36,117a1.58,1.58,0,0,0-.34-.29,2.49,2.49,0,0,0-.4-.2l-1.63-.71.68-.28-.4.91c-.12.29-.26.61-.41,1l-.76,1.77-.41.94-.38.89Z" fill="#231f20"/>
      <path d="M35.9,122.67l.81-.74c.28-.26.54-.51.8-.74l1.62-1.51c.29-.27.55-.52.79-.73l.71-.66.9.46c0,.33-.09.65-.13,1s-.09.67-.14,1.06L41,123c0,.35-.1.71-.15,1.09s-.09.72-.14,1.06l-.71-.36c.05-.37.11-.76.17-1.15s.11-.76.16-1.11l.49-3.36-.06,0-2.45,2.32-.84.79-.84.8Zm1.7-.84.34-.5,2.73,1.4-.23.57Z" fill="#231f20"/>
      <path d="M41.48,125.6c.17-.29.34-.57.51-.83l.53-.88,1.06-1.74.54-.89.51-.84.63.38.59.36.6.37a3.4,3.4,0,0,1,1,.82,2.43,2.43,0,0,1,.48,1,2.72,2.72,0,0,1,0,1.1,3.94,3.94,0,0,1-.5,1.18,4.22,4.22,0,0,1-.76.94,2.77,2.77,0,0,1-1,.55,2.57,2.57,0,0,1-1.18.05,4.36,4.36,0,0,1-1.37-.56l-.58-.36-.51-.31Zm1-.15,1,.59a2.63,2.63,0,0,0,1.34.45,1.76,1.76,0,0,0,1.09-.36,3.21,3.21,0,0,0,.84-.94,3.28,3.28,0,0,0,.38-.9,1.85,1.85,0,0,0,0-.84,1.66,1.66,0,0,0-.35-.78A2.69,2.69,0,0,0,46,122l-1-.64c-.13.21-.26.41-.38.62l-.42.68-.9,1.49-.41.67C42.72,125,42.59,125.24,42.47,125.45Z" fill="#231f20"/>
      <path d="M46.73,128.9c.19-.28.37-.55.55-.8l.58-.86L49,125.56c.22-.31.42-.6.59-.86l.55-.81.65.44-.55.81c-.18.26-.37.55-.59.86l-1.14,1.69c-.21.3-.41.59-.58.85s-.36.52-.55.8Z" fill="#231f20"/>
      <path d="M48.21,129.86l.91-.59.92-.6,1.85-1.21.9-.59.82-.53.81.61c-.1.32-.2.63-.29.93l-.33,1L53.15,131c-.11.33-.22.68-.33,1l-.32,1-.64-.48c.12-.36.23-.72.36-1.1s.24-.74.35-1.07l1-3.23-.06,0-2.81,1.87-1,.64-1,.64Zm1.81-.54.42-.44,2.45,1.85-.32.52Z" fill="#231f20"/>
      <path d="M53.84,134.26l.63-.74.67-.79,1.24-1.46.68-.8.63-.75-.13.64-.55-.47-.7-.59-.57-.49.44-.52,3.76,3.19-.45.52-.57-.49-.7-.59-.55-.46.61-.24-.64.75-.67.8-1.24,1.46-.67.79-.63.74Z" fill="#231f20"/>
      <path d="M56.72,136.79l.66-.71.71-.75,1.38-1.49.71-.77.67-.72.57.53-.66.72-.72.77-1.38,1.49-.7.75-.66.72Z" fill="#231f20"/>
      <path d="M59.53,139.5l.45-.93c.16-.32.31-.63.44-.91l.88-1.81c.11-.21.22-.43.33-.68l.36-.74c.13-.25.24-.49.35-.72l.6.61c-.21.41-.43.84-.66,1.31s-.45.9-.66,1.31l-1.18,2.35.05.06,2.39-1.14,1.32-.62,1.32-.63.58.59-.73.33-.74.35-.68.31-1.84.85-.92.43-.93.43Z" fill="#231f20"/>
      <path d="M62.37,142.49l.74-.63.78-.67,1.54-1.33.79-.68.75-.64,2.46,2.85-.5.43-.6-.69-.75-.87-.9-1,.7,0-.75.64-.79.68-1.37,1.18-.78.67L63,143l.16-.65.92,1.07.69.79.62.72-.5.43Zm2.47-1.35.49-.42.77.9.66.76.53.62-.48.42-.55-.63-.65-.76Z" fill="#231f20"/>
      <path d="M66.35,147.24l.36-.26.88,0,1,0,.91,0,3.8.09-.12.3-1-1.4c-.21-.28-.44-.59-.67-.92l-.74-1,.53-.39,2.8,3.85-.45.33-1.27,0-1.26,0-4-.11.19-.28.93,1.28.5.68.54.74.46.64-.53.39Z" fill="#231f20"/>
      <path d="M71.15,154.37a3.4,3.4,0,0,1-.51-1.28,2.75,2.75,0,0,1,.08-1.18,2.82,2.82,0,0,1,.54-1,3.74,3.74,0,0,1,.92-.8,3.38,3.38,0,0,1,1.54-.53,2.82,2.82,0,0,1,1.51.28,3.63,3.63,0,0,1,1.71,2.43,2.66,2.66,0,0,1-.07,1.16,2.76,2.76,0,0,1-.54,1,3.79,3.79,0,0,1-2.48,1.35,2.68,2.68,0,0,1-1.5-.29A3,3,0,0,1,71.15,154.37Zm.55-.37a2.31,2.31,0,0,0,.7.75,2.13,2.13,0,0,0,.83.3,2.45,2.45,0,0,0,.89-.08,3.24,3.24,0,0,0,.86-.37,3.32,3.32,0,0,0,.74-.64,2.23,2.23,0,0,0,.45-.77,2,2,0,0,0,.07-.87,2.14,2.14,0,0,0-.35-.93,2.21,2.21,0,0,0-.69-.73,1.87,1.87,0,0,0-.84-.31,2.25,2.25,0,0,0-.89.06,3,3,0,0,0-.87.37,3.06,3.06,0,0,0-.72.61,2.4,2.4,0,0,0-.45.77,1.86,1.86,0,0,0-.09.88A2.19,2.19,0,0,0,71.7,154Z" fill="#231f20"/>
      <path d="M73.34,157.85l.86-.45.92-.47,1.8-.94.93-.48.87-.45.32.61c-.29.56-.56,1.1-.83,1.61l-.79,1.52-1,2,0,.06,2.4-1.24.93-.48.87-.45.34.64-.87.46-.93.48-1.81.93-.91.48-.87.44-.31-.6.75-1.46q.41-.77.87-1.68l1-2,0-.05-2.44,1.26-.91.48-.87.45Z" fill="#231f20"/>
      <path d="M76.18,163.49l.89-.39.94-.41,1.87-.81,1-.42.9-.39,1.5,3.45-.6.27c-.12-.26-.24-.54-.37-.84l-.46-1.06-.55-1.26.68.17-.91.4-1,.41-1.66.72-.94.41-.9.39.35-.57.56,1.29.42,1,.38.87-.61.26Zm2.75-.56.59-.26.47,1.08c.16.36.29.67.41.93l.32.75-.58.26c-.11-.26-.23-.51-.34-.77s-.24-.57-.4-.92Z" fill="#231f20"/>
    </g>
    <g>
      <path d="M79.2,84.25l.56-.8c.18-.26.37-.54.59-.84L81.45,81l.6-.85.56-.81-.08.65-.59-.42-.74-.52-.62-.43.39-.56,4,2.82-.4.56L84,81l-.75-.52-.59-.42.58-.29-.56.81-.6.85L81,83.05c-.22.3-.41.59-.59.84l-.56.8Z" fill="#231f20"/>
      <path d="M81.3,85.71l.92-.6.91-.59L85,83.3l.9-.59.81-.53.81.61c-.1.32-.2.63-.29.93s-.2.65-.32,1l-.66,2.12c-.1.34-.21.68-.32,1l-.32,1L85,88.46c.11-.36.23-.72.36-1.1l.34-1.07,1-3.23,0,0-2.81,1.87-1,.64-1,.65Zm1.82-.54.41-.44L86,86.57l-.32.52Z" fill="#231f20"/>
      <path d="M88.22,91.2a3.31,3.31,0,0,1-.85-1A2.74,2.74,0,0,1,87,89.07a2.9,2.9,0,0,1,.15-1.16,3.47,3.47,0,0,1,.62-1.1,3.33,3.33,0,0,1,1.32-1,2.81,2.81,0,0,1,1.51-.2,3.08,3.08,0,0,1,1.47.68,4.22,4.22,0,0,1,.43.41,3.37,3.37,0,0,1,.34.43,4.94,4.94,0,0,1,.27.42,2.46,2.46,0,0,1,.18.37l-.52.53a4.37,4.37,0,0,0-.3-.65,3.51,3.51,0,0,0-.36-.53,3.25,3.25,0,0,0-.42-.41,2.3,2.3,0,0,0-1.09-.5,2,2,0,0,0-1.16.15,2.68,2.68,0,0,0-1,.83,2.83,2.83,0,0,0-.49.83,2.33,2.33,0,0,0-.15.9,2,2,0,0,0,.24.88,2.51,2.51,0,0,0,.68.8,2.88,2.88,0,0,0,.35.26l.39.2a2.16,2.16,0,0,0,.43.14,3.4,3.4,0,0,0,.46.08l-.42.6-.43-.09a3.93,3.93,0,0,1-.43-.18,2.67,2.67,0,0,1-.43-.25A3.69,3.69,0,0,1,88.22,91.2Z" fill="#231f20"/>
      <path d="M90.61,93.07l.65-.73.69-.77,1.35-1.51.7-.79.65-.73.57.51-.65.74-.7.78-1.35,1.52-.68.76-.65.73Zm2.2-1.71.44-.5,2.86,2.55-.44.49Zm.81,4.39.65-.73.69-.76,1.35-1.52c.25-.29.49-.55.7-.78l.65-.74.57.52-.65.73-.7.78-1.35,1.52c-.25.28-.48.53-.68.77l-.65.72Z" fill="#231f20"/>
      <path d="M97.18,99.26a3.6,3.6,0,0,1-.79-1.12A2.85,2.85,0,0,1,96.18,97a3.2,3.2,0,0,1,.29-1.12,4.1,4.1,0,0,1,.7-1A3.52,3.52,0,0,1,98.55,94a2.75,2.75,0,0,1,1.53-.08,3.12,3.12,0,0,1,1.47.86,3.27,3.27,0,0,1,.76,1.09,2.74,2.74,0,0,1,.22,1.15,2.82,2.82,0,0,1-.29,1.12,3.78,3.78,0,0,1-.71,1,3.62,3.62,0,0,1-1.38.9,2.71,2.71,0,0,1-1.52.07A3.1,3.1,0,0,1,97.18,99.26Zm.45-.49a2.31,2.31,0,0,0,.86.56,1.9,1.9,0,0,0,.88.09,2.37,2.37,0,0,0,.85-.28,3.33,3.33,0,0,0,.74-.57,3.22,3.22,0,0,0,.57-.79,2.29,2.29,0,0,0,.25-.86,2,2,0,0,0-.13-.87,2.42,2.42,0,0,0-.56-.81,2.25,2.25,0,0,0-.85-.55,1.93,1.93,0,0,0-.89-.1,2.22,2.22,0,0,0-.85.27,3.06,3.06,0,0,0-.75.56,3.15,3.15,0,0,0-.56.77,2.39,2.39,0,0,0-.26.85,2.21,2.21,0,0,0,.12.88A2.39,2.39,0,0,0,97.63,98.77Z" fill="#231f20"/>
      <path d="M102,104.2a3.27,3.27,0,0,1-.71-1.1,2.67,2.67,0,0,1-.19-1.17,2.88,2.88,0,0,1,.3-1.13,3.62,3.62,0,0,1,.77-1,3.5,3.5,0,0,1,1.45-.83,2.8,2.8,0,0,1,1.52,0,3.05,3.05,0,0,1,1.36.87,3.92,3.92,0,0,1,.37.46c.11.16.2.32.29.48a3,3,0,0,1,.2.45,2.54,2.54,0,0,1,.13.39l-.59.46a3.48,3.48,0,0,0-.21-.69,3,3,0,0,0-.28-.57,2.82,2.82,0,0,0-.36-.46,2.28,2.28,0,0,0-1-.65,2,2,0,0,0-1.17,0,2.75,2.75,0,0,0-1.16.68,2.83,2.83,0,0,0-.59.76,2.32,2.32,0,0,0-.27.87,2,2,0,0,0,.12.9,2.33,2.33,0,0,0,.56.89,3,3,0,0,0,.32.3,2.88,2.88,0,0,0,.35.26,2.57,2.57,0,0,0,.41.19,3,3,0,0,0,.45.14l-.5.54a1.7,1.7,0,0,1-.41-.15,2.38,2.38,0,0,1-.41-.23q-.2-.13-.39-.3C102.22,104.44,102.1,104.32,102,104.2Z" fill="#231f20"/>
      <path d="M104.09,106.38l.74-.64.78-.67,1.53-1.33.8-.68.74-.65.5.59-.74.64-.79.68-1.45,1.25-.78.68-.74.63.24-.59.73.85.56.65.45.52.43.49-.52.45Z" fill="#231f20"/>
      <path d="M107.24,110.08l.75-.62.8-.65,1.57-1.29c.3-.24.57-.46.81-.67l.76-.62.5.61-.76.62c-.25.2-.52.42-.81.67l-1.57,1.28-.8.66-.75.61Z" fill="#231f20"/>
      <path d="M108.71,111.85l.77-.59.82-.63,1.61-1.24.83-.64.77-.59.43.55c-.19.59-.36,1.17-.53,1.72s-.34,1.1-.51,1.64l-.67,2.17,0,.06,2.14-1.65.83-.64.78-.6.45.58-.78.6-.83.64-1.61,1.24-.82.63-.77.59-.42-.54c.16-.5.32-1,.49-1.57s.35-1.15.56-1.81l.67-2.19,0,0-2.18,1.67-.81.63-.77.59Z" fill="#231f20"/>
      <path d="M112.55,116.92l.79-.57.84-.59,1.67-1.18.85-.6.8-.56,2.17,3.07-.53.38-.53-.74-.66-.94-.8-1.13.69,0-.8.57-.85.6-1.48,1-.84.59-.79.56.22-.62.81,1.14c.21.31.42.59.61.86l.55.78-.54.38Zm2.58-1.11.53-.37.68,1,.58.82.47.67-.52.38-.48-.69-.58-.81Z" fill="#231f20"/>
    </g>
    <g>
      <path d="M83.43,63.51a3.23,3.23,0,0,1-1-.88,2.83,2.83,0,0,1-.5-1.07,2.88,2.88,0,0,1,0-1.17,3.56,3.56,0,0,1,.47-1.18A3.39,3.39,0,0,1,83.59,58a2.89,2.89,0,0,1,1.48-.4,3,3,0,0,1,1.54.48,4.21,4.21,0,0,1,.48.35,4.83,4.83,0,0,1,.4.38c.12.13.22.25.32.38a4.1,4.1,0,0,1,.23.34l-.45.6a4.93,4.93,0,0,0-.38-.61,3.29,3.29,0,0,0-.43-.47,2.49,2.49,0,0,0-.47-.35,2.28,2.28,0,0,0-1.15-.36,2.11,2.11,0,0,0-1.13.3,2.64,2.64,0,0,0-.93,1,2.76,2.76,0,0,0-.37.89,2.28,2.28,0,0,0,0,.9,2.16,2.16,0,0,0,.35.85,2.59,2.59,0,0,0,.79.7,2.82,2.82,0,0,0,.38.21,2.86,2.86,0,0,0,.41.15,2.14,2.14,0,0,0,.44.08,2.44,2.44,0,0,0,.47,0l-.33.66a2.25,2.25,0,0,1-.44,0,2.09,2.09,0,0,1-.46-.12,4.22,4.22,0,0,1-.45-.18A3.62,3.62,0,0,1,83.43,63.51Z" fill="#231f20"/>
      <path d="M88.23,66.61a3.1,3.1,0,0,1-1-1,2.62,2.62,0,0,1-.42-1.1,2.79,2.79,0,0,1,.08-1.15,3.63,3.63,0,0,1,.5-1.1,3.55,3.55,0,0,1,1.19-1.13,2.67,2.67,0,0,1,1.49-.35,3.12,3.12,0,0,1,1.61.57,3.51,3.51,0,0,1,1,.93A2.69,2.69,0,0,1,93,64.57a3.74,3.74,0,0,1-.51,1.12,3.64,3.64,0,0,1-1.19,1.13,2.76,2.76,0,0,1-1.48.36A3.14,3.14,0,0,1,88.23,66.61Zm.35-.56a2.31,2.31,0,0,0,1,.39,2,2,0,0,0,.88-.07,2.49,2.49,0,0,0,.78-.43,3.21,3.21,0,0,0,.62-.7,2.73,2.73,0,0,0,.42-.88,2.27,2.27,0,0,0,.09-.89,2,2,0,0,0-.29-.83,2.2,2.2,0,0,0-.7-.69,2.11,2.11,0,0,0-.93-.39,1.9,1.9,0,0,0-.89.06,2.41,2.41,0,0,0-.79.42,3.05,3.05,0,0,0-.64.7,3.32,3.32,0,0,0-.41.85,2.26,2.26,0,0,0-.09.89,1.86,1.86,0,0,0,.28.84A2.37,2.37,0,0,0,88.58,66.05Z" fill="#231f20"/>
      <path d="M91.73,68.89l.58-.78c.18-.25.38-.53.61-.83l1.2-1.64.62-.85.58-.79.55.41c0,.63,0,1.23,0,1.81s0,1.15,0,1.71l0,2.28,0,0,1.6-2.17.62-.85.58-.79.59.43-.58.79L98,68.5l-1.2,1.64-.61.83-.58.78-.55-.4c0-.52,0-1.07,0-1.64s0-1.21,0-1.9l0-2.28-.05,0-1.62,2.22c-.23.3-.43.58-.61.83l-.58.79Z" fill="#231f20"/>
      <path d="M98.12,73.69c.1-.3.21-.63.33-1s.22-.67.32-1l.65-1.91q.1-.33.24-.72c.09-.25.17-.51.26-.78l.26-.76.67.53-.49,1.39c-.17.49-.34.95-.49,1.38L99,73.37l.06,0L101.28,72l1.23-.79,1.23-.79.65.51-.68.42-.69.44-.64.4-1.72,1.07-.85.54-.87.54Z" fill="#231f20"/>
      <path d="M101.34,76.29l.63-.74.67-.78L104,73.21l.67-.79.64-.75,2.87,2.44-.43.5L107,74l-.88-.74-1-.9.68-.14-.64.75c-.2.24-.42.51-.67.79l-1.17,1.39-.67.78-.63.74.06-.66,1.07.91.8.68.73.61-.43.51Zm2.23-1.72.42-.48.89.76.78.65c.21.19.42.36.62.53l-.41.49-.64-.54-.76-.65Z" fill="#231f20"/>
      <path d="M107.11,81.46a3.5,3.5,0,0,1-.8-1,2.82,2.82,0,0,1-.28-1.15,2.89,2.89,0,0,1,.21-1.15,3.64,3.64,0,0,1,.68-1.07,3.4,3.4,0,0,1,1.38-1,2.82,2.82,0,0,1,1.52-.11,3,3,0,0,1,1.43.76,4,4,0,0,1,.4.42,4.16,4.16,0,0,1,.32.45,4,4,0,0,1,.25.44,2.39,2.39,0,0,1,.16.38l-.55.5a4.67,4.67,0,0,0-.27-.67,2.88,2.88,0,0,0-.33-.54,3.31,3.31,0,0,0-.39-.44,2.31,2.31,0,0,0-1.07-.56,2.1,2.1,0,0,0-1.16.09,2.8,2.8,0,0,0-1.1.77,3,3,0,0,0-.53.81,2.28,2.28,0,0,0-.19.88,2,2,0,0,0,.19.9,2.64,2.64,0,0,0,.63.84,2.88,2.88,0,0,0,.34.27l.38.23a2.61,2.61,0,0,0,.42.16,3.11,3.11,0,0,0,.46.1l-.45.58a1.86,1.86,0,0,1-.43-.12,2.67,2.67,0,0,1-.42-.2,3.62,3.62,0,0,1-.41-.27A3.79,3.79,0,0,1,107.11,81.46Z" fill="#231f20"/>
      <path d="M110.52,84.55c.23-.25.46-.48.68-.7l.72-.74,1.34-1.37c.26-.28.51-.52.73-.75l.68-.71-.18.63-.51-.5c-.25-.24-.47-.45-.65-.64l-.54-.53.47-.49,3.53,3.44-.48.49-.54-.52-.65-.64-.52-.5.63-.2-.69.71-.73.74-1.34,1.38-.72.74-.68.69Z" fill="#231f20"/>
      <path d="M113.26,87.27l.69-.68.74-.72,1.45-1.42.75-.73.7-.69.55.56-.7.69-.75.73-1.45,1.42-.74.72-.7.68Z" fill="#231f20"/>
      <path d="M116,90.12l.48-.91.46-.9.93-1.79c.11-.2.23-.43.35-.67l.38-.73.37-.71.58.62-.7,1.3q-.36.69-.69,1.29l-1.24,2.32,0,.06,2.42-1.07,1.33-.59,1.34-.6.56.6-.73.32-.75.32-.69.3-1.87.81-.92.39-1,.41Z" fill="#231f20"/>
      <path d="M118.8,93.2l.74-.63.78-.68,1.54-1.33.78-.69.74-.64,2.47,2.85-.49.43-.6-.69L124,91l-.9-1,.7,0-.75.65-.78.68-1.37,1.18-.78.68-.74.64.17-.65.91,1.06.69.8.63.71-.5.44Zm2.47-1.36.48-.42.77.89.67.77.53.62-.48.42c-.18-.21-.37-.42-.55-.64l-.65-.75Z" fill="#231f20"/>
      <path d="M122.85,97.94l.35-.27.89,0,1,0H126l3.79-.07-.1.31-1.07-1.35-.71-.89-.78-1,.52-.41L130.6,98l-.43.35h-1.28l-1.25,0-4,.07.19-.3,1,1.24.52.66c.19.25.38.48.57.72s.35.44.49.62l-.51.41Z" fill="#231f20"/>
      <path d="M128.06,104.85a3.42,3.42,0,0,1-.59-1.24,2.62,2.62,0,0,1,0-1.18,2.88,2.88,0,0,1,.47-1.06,3.85,3.85,0,0,1,.85-.86,3.56,3.56,0,0,1,1.5-.65,2.82,2.82,0,0,1,1.52.17,3.19,3.19,0,0,1,1.31,1.09,3.31,3.31,0,0,1,.58,1.2,2.72,2.72,0,0,1,0,1.17,2.86,2.86,0,0,1-.46,1.06,3.82,3.82,0,0,1-.87.88,3.57,3.57,0,0,1-1.5.66,2.81,2.81,0,0,1-1.52-.17A3.22,3.22,0,0,1,128.06,104.85Zm.53-.41a2.31,2.31,0,0,0,.75.69,2,2,0,0,0,.86.23,2.28,2.28,0,0,0,.88-.14,3.1,3.1,0,0,0,.82-.44,3.24,3.24,0,0,0,.7-.68,2.49,2.49,0,0,0,.38-.81,2,2,0,0,0,0-.88,2.25,2.25,0,0,0-.42-.89,2.08,2.08,0,0,0-.75-.68,1.9,1.9,0,0,0-.85-.25,2.47,2.47,0,0,0-.89.13,3.08,3.08,0,0,0-.84.44,3,3,0,0,0-.67.66,2.29,2.29,0,0,0-.39.8,1.91,1.91,0,0,0,0,.89A2.32,2.32,0,0,0,128.59,104.44Z" fill="#231f20"/>
      <path d="M130.56,108.16l.81-.54.85-.57,1.69-1.14.87-.58.82-.55.38.58c-.22.59-.43,1.15-.64,1.69s-.41,1.08-.61,1.6l-.81,2.13,0,0,2.24-1.5.87-.59.81-.54.41.6-.81.55-.87.58-1.69,1.13-.86.58-.8.54-.39-.57c.19-.48.39-1,.59-1.53s.43-1.13.67-1.77l.82-2.14,0,0-2.29,1.53-.85.58-.81.54Z" fill="#231f20"/>
      <path d="M134.07,113.47l.83-.51.87-.55,1.74-1.07.88-.55.84-.52,2,3.2-.56.35-.48-.77-.61-1-.72-1.17.69.07-.84.52-.88.55-1.54.95-.87.54-.83.52.26-.61.74,1.19.55.89c.18.28.34.55.5.81l-.56.35Zm2.65-1,.55-.34.62,1,.53.86.43.7-.54.34-.45-.72c-.14-.24-.32-.52-.52-.85Z" fill="#231f20"/>
    </g>
    <g>
      <path d="M107.4,47.25l.58-.78.6-.83,1.2-1.65.61-.84.58-.8.72.53,1,.73a3,3,0,0,1,.82.82,1.37,1.37,0,0,1,.22.86,2,2,0,0,1-.4.93,2.28,2.28,0,0,1-.75.68,1.47,1.47,0,0,1-1,.14,2.93,2.93,0,0,1-1.2-.57l-.37-.27-.38-.28-.33-.23.38-.52,1,.7a2.82,2.82,0,0,0,.8.42,1,1,0,0,0,.65,0,1.45,1.45,0,0,0,.57-.5,1.16,1.16,0,0,0,.25-.55.88.88,0,0,0-.06-.46,1.5,1.5,0,0,0-.26-.36,2.92,2.92,0,0,0-.34-.29l-1.39-1,.62-.2-.58.79-.61.84-1.14,1.56-.6.83-.58.79Z" fill="#231f20"/>
      <path d="M111.67,50.38l.59-.77c.19-.25.41-.52.63-.82l1.25-1.6c.24-.3.45-.58.64-.83l.6-.77.61.47-.6.77-.64.83-1.25,1.61-.63.81-.6.77Zm2.07-1.86.41-.52,3,2.34-.41.52Zm1.11,4.33.6-.77.63-.82,1.24-1.6.65-.83.6-.77.61.47-.6.77-.65.83-1.24,1.61-.63.81-.6.77Z" fill="#231f20"/>
      <path d="M118.67,56.08a3.3,3.3,0,0,1-.88-1.06,2.62,2.62,0,0,1-.3-1.14,3,3,0,0,1,.2-1.14,3.58,3.58,0,0,1,.62-1,3.5,3.5,0,0,1,1.3-1,2.72,2.72,0,0,1,1.52-.2,3,3,0,0,1,1.53.74,3.22,3.22,0,0,1,.85,1,2.58,2.58,0,0,1,.3,1.13,2.85,2.85,0,0,1-.19,1.14A3.62,3.62,0,0,1,123,55.6a3.51,3.51,0,0,1-1.3,1,2.71,2.71,0,0,1-1.51.2A3.1,3.1,0,0,1,118.67,56.08Zm.41-.53A2.26,2.26,0,0,0,120,56a1.92,1.92,0,0,0,.89,0,2.19,2.19,0,0,0,.82-.35,3.42,3.42,0,0,0,.7-.62,3.37,3.37,0,0,0,.51-.84,2.45,2.45,0,0,0,.17-.87,1.8,1.8,0,0,0-.2-.85,2.53,2.53,0,0,0-1.51-1.25,2.07,2.07,0,0,0-.89,0,2.6,2.6,0,0,0-.83.34,3.25,3.25,0,0,0-.71.63,3.19,3.19,0,0,0-.49.8,2.48,2.48,0,0,0-.19.88,2.1,2.1,0,0,0,.19.87A2.25,2.25,0,0,0,119.08,55.55Z" fill="#231f20"/>
      <path d="M122.87,59.57l.65-.73.69-.77,1.27-1.43c.25-.29.49-.55.7-.78l.65-.74-.15.63-.54-.47-.68-.61-.57-.5.46-.51L129,56.93l-.46.51-.56-.5-.68-.61-.54-.48.61-.22-.65.74-.69.78-1.28,1.43-.68.77-.65.73Z" fill="#231f20"/>
      <path d="M127.46,63.9a3.43,3.43,0,0,1-.81-1.11,2.63,2.63,0,0,1-.22-1.16,2.75,2.75,0,0,1,.27-1.12,3.73,3.73,0,0,1,2-1.91,2.75,2.75,0,0,1,1.53-.1,3.12,3.12,0,0,1,1.48.83,3.4,3.4,0,0,1,.79,1.08,2.74,2.74,0,0,1,.23,1.14,2.84,2.84,0,0,1-.27,1.13,3.72,3.72,0,0,1-.7,1,3.54,3.54,0,0,1-1.36.92,2.72,2.72,0,0,1-1.52.1A3.13,3.13,0,0,1,127.46,63.9Zm.44-.5a2.31,2.31,0,0,0,.87.55,1.9,1.9,0,0,0,.88.07,2.27,2.27,0,0,0,.84-.29,3.16,3.16,0,0,0,.73-.58,3.27,3.27,0,0,0,.57-.8,2.44,2.44,0,0,0,.23-.87,1.85,1.85,0,0,0-.15-.86,2.2,2.2,0,0,0-.57-.8,2.37,2.37,0,0,0-.86-.54,1.9,1.9,0,0,0-.88-.09,2.38,2.38,0,0,0-.85.29,3,3,0,0,0-.75.58,3.07,3.07,0,0,0-.54.77,2.22,2.22,0,0,0-.24.86,1.93,1.93,0,0,0,.13.88A2.24,2.24,0,0,0,127.9,63.4Z" fill="#231f20"/>
      <path d="M131.71,68.06a4,4,0,0,1-.48-.59,4.79,4.79,0,0,1-.38-.63,3,3,0,0,1-.22-.52l.57-.46a5.11,5.11,0,0,0,.22.62,4,4,0,0,0,.73,1.08,1.91,1.91,0,0,0,.56.41,1,1,0,0,0,.57.11,1,1,0,0,0,.55-.29.8.8,0,0,0,.25-.51,1.52,1.52,0,0,0-.11-.63,7,7,0,0,0-.38-.81,6.69,6.69,0,0,1-.41-1,1.79,1.79,0,0,1-.07-.81,1.42,1.42,0,0,1,.42-.72,1.54,1.54,0,0,1,.76-.43,1.49,1.49,0,0,1,.88.05,2.56,2.56,0,0,1,.93.63,4.47,4.47,0,0,1,.35.41,3,3,0,0,1,.28.44,3.19,3.19,0,0,1,.21.41,1.68,1.68,0,0,1,.12.36l-.57.46a3.09,3.09,0,0,0-.18-.59,2.66,2.66,0,0,0-.28-.53,3.08,3.08,0,0,0-.33-.42,2,2,0,0,0-.52-.38,1.09,1.09,0,0,0-.55-.11.84.84,0,0,0-.51.26.77.77,0,0,0-.24.44,1.31,1.31,0,0,0,.09.58,7.06,7.06,0,0,0,.36.8,5.69,5.69,0,0,1,.48,1.15,1.34,1.34,0,0,1-.39,1.47,1.76,1.76,0,0,1-.78.47,1.54,1.54,0,0,1-.92,0A2.68,2.68,0,0,1,131.71,68.06Z" fill="#231f20"/>
      <path d="M134,70.27l.71-.67.76-.7L137,67.5c.28-.25.53-.49.76-.71l.72-.67c.15.17.36.38.61.65l.85.91a2.89,2.89,0,0,1,.65,1,1.28,1.28,0,0,1,.05.88,2,2,0,0,1-.56.84,2.36,2.36,0,0,1-.86.52,1.42,1.42,0,0,1-1,0,2.84,2.84,0,0,1-1.08-.79l-.31-.33-.32-.34-.28-.3.47-.43.81.86a2.72,2.72,0,0,0,.7.56,1,1,0,0,0,.65.1,1.46,1.46,0,0,0,.65-.39,1.22,1.22,0,0,0,.35-.49.81.81,0,0,0,0-.46,1.38,1.38,0,0,0-.19-.41,2.39,2.39,0,0,0-.28-.35l-1.17-1.24.64-.09-.71.67-.76.71L136,69.45l-.75.7-.71.67Z" fill="#231f20"/>
      <path d="M137.61,74.14l.73-.64.78-.68,1.52-1.35.79-.69.73-.65.51.58-.73.65-.79.69-1.53,1.34c-.28.25-.53.48-.77.68l-.73.65ZM140,72.71l.5-.44L143,75.14l-.49.43Zm.28,4.45.73-.64.77-.68,1.52-1.34.79-.7.74-.64.51.57-.74.65-.79.69-1.52,1.35-.77.68c-.24.2-.48.42-.73.64Z" fill="#231f20"/>
      <path d="M141.78,78.92l.75-.62.79-.66,1.57-1.3.8-.66c.24-.21.5-.42.76-.63l2.4,2.9-.51.42-.58-.7-.73-.89-.88-1.06.69,0-.76.63-.8.66-1.39,1.16-.8.65-.75.62.18-.64.89,1.08c.24.29.46.56.68.81l.6.73-.51.42Zm2.49-1.31.49-.41.75.91.65.78.52.63-.49.41-.54-.64-.63-.77Z" fill="#231f20"/>
      <path d="M145,82.78l.77-.6.81-.63,1.61-1.26.82-.64.77-.6.34.44c.14.16.28.35.43.54l.49.63a3.35,3.35,0,0,1,.58,1,1.3,1.3,0,0,1,0,.87,1.78,1.78,0,0,1-.61.77,2.06,2.06,0,0,1-.84.41,1.49,1.49,0,0,1-.92-.1,2.62,2.62,0,0,1-.95-.81h.42l-.35,1.49c-.06.23-.12.47-.18.74l-.18.76c-.06.25-.11.47-.16.66l-.55-.71c.07-.31.15-.62.22-.91l.21-.86.44-1.73v.61l-.86-1.1.5-.39.71.91a2.62,2.62,0,0,0,.64.62,1,1,0,0,0,.63.16,1.44,1.44,0,0,0,.68-.32,1.27,1.27,0,0,0,.4-.46.78.78,0,0,0,0-.45,1.35,1.35,0,0,0-.16-.42,3.27,3.27,0,0,0-.25-.36l-1.1-1.41.74.08-.79.61-.81.64L147,82.14l-.81.63c-.24.2-.5.4-.76.6Z" fill="#231f20"/>
      <path d="M148.41,87.25l.79-.57.83-.61,1.64-1.21.84-.62.79-.58,2.23,3-.53.39-.54-.74c-.2-.26-.42-.57-.68-.93l-.82-1.1h.69l-.79.59-.84.61-1.46,1.08-.82.6-.79.58.21-.63.83,1.13c.23.3.43.58.63.85l.56.77-.53.39ZM151,86.1l.51-.38.7,1,.6.81.49.66-.52.38-.5-.67c-.16-.23-.36-.5-.59-.81Z" fill="#231f20"/>
    </g>
    <g>
      <path d="M116.35,41.79l.91-.58c.31-.21.61-.4.9-.58L120,39.45l.9-.57.8-.52.79.61c-.1.31-.2.61-.29.91s-.2.64-.32,1L121.2,43c-.11.33-.21.67-.33,1l-.32,1-.62-.48q.16-.52.36-1.08c.12-.37.24-.72.35-1l1.06-3.18-.06,0L118.86,41l-.94.63-1,.62Zm1.79-.52.41-.43,2.4,1.83-.32.51Z" fill="#231f20"/>
      <path d="M121.93,46.12l.6-.75.64-.79,1.18-1.47.65-.8.6-.75-.12.63-.55-.45-.7-.56-.57-.47.42-.52,3.77,3-.42.52-.58-.46-.7-.57-.55-.44.59-.25-.6.76-.65.8-1.18,1.47-.64.79-.6.75Z" fill="#231f20"/>
      <path d="M124.5,48.18l.71-.65.77-.7,1.47-1.33.76-.69c.23-.22.48-.44.74-.67l.58.49q-.22.66-.42,1.26c-.14.41-.27.81-.4,1.21l-.8,2.37,0,0,2.21-1.14,1.14-.59,1.17-.61.58.5-.55.82-.57.86L130.83,51c-.21.3-.39.58-.57.85s-.35.53-.54.8l-.54-.47c.29-.45.58-.87.84-1.27l.75-1.12,1-1.49,0,0-1.82,1-1.33.7-1.25.66-.39-.34c.09-.26.19-.54.29-.85l.33-1c.11-.32.21-.64.31-1l.67-2,0,0-1.33,1.21-1,.91c-.36.32-.73.67-1.12,1Z" fill="#231f20"/>
      <path d="M132.45,55.31a3.33,3.33,0,0,1-.81-1.08,2.6,2.6,0,0,1-.24-1.14,2.9,2.9,0,0,1,.26-1.11,3.89,3.89,0,0,1,.66-1,3.41,3.41,0,0,1,1.32-.91,2.77,2.77,0,0,1,1.51-.12,3,3,0,0,1,1.47.81,3.12,3.12,0,0,1,.78,1,2.49,2.49,0,0,1,.24,1.12,2.88,2.88,0,0,1-.24,1.11,3.66,3.66,0,0,1-.68,1,3.44,3.44,0,0,1-1.33.92,2.71,2.71,0,0,1-1.49.12A3,3,0,0,1,132.45,55.31Zm.43-.49a2.18,2.18,0,0,0,.86.52,2,2,0,0,0,.87.07,2.54,2.54,0,0,0,.82-.3,3.28,3.28,0,0,0,.71-.58,3.18,3.18,0,0,0,.55-.8,2.38,2.38,0,0,0,.22-.85,2,2,0,0,0-.16-.85,2.23,2.23,0,0,0-.57-.78,2.27,2.27,0,0,0-.85-.52,2,2,0,0,0-.87-.08,2.62,2.62,0,0,0-.84.29,3.28,3.28,0,0,0-.72.58,3.21,3.21,0,0,0-.53.77,2.34,2.34,0,0,0-.23.85,1.85,1.85,0,0,0,.15.86A2.21,2.21,0,0,0,132.88,54.82Z" fill="#231f20"/>
      <path d="M136.67,59.34a3.89,3.89,0,0,1-.48-.58,4.64,4.64,0,0,1-.38-.61,3.44,3.44,0,0,1-.23-.51l.56-.46a3.89,3.89,0,0,0,.22.6,3.39,3.39,0,0,0,.32.56,2.86,2.86,0,0,0,.42.5,2,2,0,0,0,.55.4,1.05,1.05,0,0,0,.57.1,1,1,0,0,0,.53-.3.76.76,0,0,0,.24-.5,1.51,1.51,0,0,0-.12-.62,6.88,6.88,0,0,0-.38-.79,7.23,7.23,0,0,1-.42-1,1.61,1.61,0,0,1-.07-.8,1.29,1.29,0,0,1,.4-.71,1.53,1.53,0,0,1,.74-.44,1.46,1.46,0,0,1,.87.05,2.5,2.5,0,0,1,.92.6c.12.13.24.26.35.4s.2.28.28.42a2.67,2.67,0,0,1,.21.41,2.62,2.62,0,0,1,.13.35l-.56.46a2.46,2.46,0,0,0-.19-.58,2.87,2.87,0,0,0-.28-.52,2.81,2.81,0,0,0-.33-.4A2,2,0,0,0,140,55a1.1,1.1,0,0,0-.55-.1.82.82,0,0,0-.49.26.73.73,0,0,0-.23.44,1.25,1.25,0,0,0,.09.57,7.3,7.3,0,0,0,.37.78,6.21,6.21,0,0,1,.48,1.12,1.28,1.28,0,0,1-.36,1.45,1.64,1.64,0,0,1-.76.48,1.5,1.5,0,0,1-.91,0A2.61,2.61,0,0,1,136.67,59.34Z" fill="#231f20"/>
      <path d="M139,61.49l.69-.66.73-.71,1.44-1.39c.27-.26.51-.5.74-.71l.69-.68.61.63c.25.26.53.56.86.89a3.13,3.13,0,0,1,.65.94,1.28,1.28,0,0,1,.06.86,1.94,1.94,0,0,1-.54.84,2.24,2.24,0,0,1-.84.53,1.42,1.42,0,0,1-.95,0,2.8,2.8,0,0,1-1.07-.76c-.1-.1-.2-.21-.32-.32s-.21-.23-.32-.33l-.27-.29.45-.43.81.83a2.65,2.65,0,0,0,.7.55,1,1,0,0,0,.64.08,1.41,1.41,0,0,0,.63-.39,1.18,1.18,0,0,0,.34-.49.77.77,0,0,0,0-.45,1.23,1.23,0,0,0-.19-.4,3.17,3.17,0,0,0-.28-.34l-1.17-1.21.63-.09-.7.67-.73.71-1.36,1.32-.73.7-.69.67Z" fill="#231f20"/>
      <path d="M142.58,65.24l.7-.65.75-.68,1.48-1.35.76-.69.71-.65.51.56-.71.65-.76.69-1.48,1.35-.74.68-.71.65Zm2.32-1.45.48-.44,2.54,2.78-.49.44Zm.35,4.38.71-.65.75-.68,1.47-1.35.77-.69.71-.65.51.56-.71.65-.77.69-1.47,1.35-.75.68-.71.65Z" fill="#231f20"/>
      <path d="M146.77,69.88l.73-.62.76-.66,1.52-1.31.78-.67c.23-.21.48-.42.73-.63l2.42,2.81-.49.42-.59-.68-.74-.86-.88-1,.68,0-.73.63-.78.67-1.35,1.16-.76.66-.73.63.16-.64.9,1,.67.78.61.71-.49.43Zm2.43-1.33.48-.41.75.88.65.75.53.61-.48.42-.54-.63-.64-.74Z" fill="#231f20"/>
      <path d="M150,73.62l.74-.61.78-.64,1.56-1.27.79-.64c.24-.2.49-.41.75-.61l.35.42.43.53.49.61a3.45,3.45,0,0,1,.6,1,1.25,1.25,0,0,1,0,.85,1.69,1.69,0,0,1-.58.77,2.07,2.07,0,0,1-.82.42,1.41,1.41,0,0,1-.9-.08,2.48,2.48,0,0,1-1-.77l.41,0L153.33,75c-.05.23-.1.47-.16.73s-.11.51-.16.75-.1.47-.14.66l-.57-.69q.1-.47.21-.9c.06-.29.13-.57.19-.85l.39-1.71v.6l-.86-1.06.48-.4.72.88a2.44,2.44,0,0,0,.64.59.89.89,0,0,0,.62.15,1.43,1.43,0,0,0,.66-.32,1.19,1.19,0,0,0,.38-.47.76.76,0,0,0,.05-.44,1.32,1.32,0,0,0-.17-.41,3.27,3.27,0,0,0-.25-.36l-1.11-1.36.72.07-.76.62-.78.64L152,72.94c-.28.24-.55.45-.78.64l-.75.61Z" fill="#231f20"/>
      <path d="M153.46,77.94l.76-.59.8-.61,1.59-1.23.81-.63.76-.59,2.27,2.94-.51.39c-.17-.22-.36-.45-.55-.71L158.7,76,157.87,75h.68l-.77.59-.81.62-1.41,1.09-.8.62-.75.59.19-.63.84,1.1c.23.28.44.56.63.81s.39.51.58.74l-.52.4Zm2.5-1.2.5-.38.71.91.6.79c.18.22.34.44.5.64l-.5.39-.51-.66-.6-.77Z" fill="#231f20"/>
    </g>
  </g>
</svg>
