<svg xmlns="http://www.w3.org/2000/svg" viewBox="0 0 560 288">
  <g style="isolation: isolate">
    <g id="Layer_1" data-name="Layer 1">
      <g>
        <line x1="30.59" y1="133.88" x2="30.59" y2="263.86" fill="none" stroke="gray" stroke-linecap="round" stroke-miterlimit="10" stroke-width="2.83"/>
        <line x1="341.97" y1="176.12" x2="341.97" y2="248.88" fill="none" stroke="gray" stroke-linecap="round" stroke-miterlimit="10" stroke-width="2.83"/>
        <line x1="529.41" y1="133.2" x2="529.41" y2="264.73" fill="none" stroke="gray" stroke-linecap="round" stroke-miterlimit="10" stroke-width="2.83"/>
        <line x1="217.31" y1="181" x2="217.31" y2="215.41" fill="none" stroke="gray" stroke-linecap="round" stroke-miterlimit="10" stroke-width="2.83"/>
        <line x1="92.65" y1="181" x2="92.65" y2="215.41" fill="none" stroke="gray" stroke-linecap="round" stroke-miterlimit="10" stroke-width="2.83"/>
        <line x1="465.7" y1="181" x2="465.7" y2="215.41" fill="none" stroke="gray" stroke-linecap="round" stroke-miterlimit="10" stroke-width="2.83"/>
        <line x1="186.28" y1="212.96" x2="186.28" y2="244.92" fill="none" stroke="gray" stroke-linecap="round" stroke-miterlimit="10" stroke-width="2.83"/>
        <line x1="154.53" y1="149.57" x2="154.53" y2="215.41" fill="none" stroke="gray" stroke-linecap="round" stroke-miterlimit="10" stroke-width="2.83"/>
        <line x1="402.19" y1="149.57" x2="402.19" y2="215.41" fill="none" stroke="gray" stroke-linecap="round" stroke-miterlimit="10" stroke-width="2.83"/>
        <line x1="279.04" y1="133.88" x2="279.04" y2="215.41" fill="none" stroke="gray" stroke-linecap="round" stroke-miterlimit="10" stroke-width="2.83"/>
      </g>
      <path d="M30.59,204.45c15.53,0,15.53,17,31.06,17s15.52-17,31.05-17,15.53,17,31.06,17,15.52-17,31.05-17,15.53,17,31.05,17,15.53-17,31.06-17,15.52,17,31.05,17,15.53-17,31.06-17,15.53,17,31.05,17,15.53-17,31.05-17,15.53,17,31.06,17,15.53-17,31.06-17,15.53,17,31.06,17,15.52-17,31.05-17,15.53,17,31.06,17,15.54-17,31.07-17" fill="none" stroke="#e67373" stroke-linecap="round" stroke-miterlimit="10" stroke-width="8.5"/>
      <path d="M30.59,236.42c13.08,0,13.08,17,26.15,17s13.08-17,26.15-17,13.08,17,26.15,17,13.08-17,26.15-17,13.08,17,26.15,17,13.08-17,26.15-17,13.08,17,26.16,17,13.07-17,26.15-17,13.07,17,26.15,17,13.07-17,26.15-17,13.07,17,26.15,17,13.07-17,26.15-17,13.07,17,26.15,17,13.08-17,26.15-17,13.08,17,26.16,17,13.08-17,26.15-17,13.08,17,26.16,17,13.08-17,26.16-17,13.08,17,26.16,17" fill="none" stroke="#ade673" stroke-linecap="round" stroke-miterlimit="10" stroke-width="8.5"/>
      <path d="M30.59,172.49c10.35,0,10.35,17,20.7,17s10.35-17,20.7-17,10.36,17,20.71,17,10.35-17,20.7-17,10.35,17,20.7,17,10.35-17,20.7-17,10.35,17,20.7,17,10.36-17,20.71-17,10.35,17,20.7,17,10.35-17,20.7-17,10.36,17,20.71,17,10.35-17,20.7-17,10.35,17,20.7,17,10.35-17,20.7-17,10.36,17,20.71,17,10.35-17,20.7-17,10.35,17,20.7,17,10.36-17,20.71-17,10.35,17,20.7,17,10.36-17,20.71-17,10.35,17,20.71,17,10.35-17,20.71-17,10.35,17,20.71,17,10.35-17,20.71-17" fill="none" stroke="#73ade6" stroke-linecap="round" stroke-miterlimit="10" stroke-width="8.5"/>
      <path d="M30.59,142.73c8.88,0,8.88,17,17.75,17s8.87-17,17.74-17,8.87,17,17.74,17,8.88-17,17.75-17,8.87,17,17.74,17,8.87-17,17.75-17,8.87,17,17.74,17,8.87-17,17.75-17,8.87,17,17.74,17,8.87-17,17.75-17,8.87,17,17.74,17,8.87-17,17.75-17,8.87,17,17.74,17,8.88-17,17.75-17,8.87,17,17.75,17,8.87-17,17.74-17,8.87,17,17.74,17,8.87-17,17.75-17,8.87,17,17.74,17,8.88-17,17.75-17,8.87,17,17.75,17,8.87-17,17.74-17,8.88,17,17.75,17,8.87-17,17.75-17,8.87,17,17.75,17,8.87-17,17.75-17,8.88,17,17.75,17,8.88-17,17.76-17" fill="none" stroke="#e673e6" stroke-linecap="round" stroke-miterlimit="10" stroke-width="8.5"/>
      <circle cx="30.11" cy="149.57" r="12.21" fill="#e673e6"/>
      <circle cx="30.11" cy="181" r="12.21" fill="#73ade6"/>
      <circle cx="30.11" cy="212.43" r="12.21" fill="#e67373"/>
      <circle cx="30.11" cy="244.92" r="12.21" fill="#ade673"/>
      <path d="M30.39,154.54a6.47,6.47,0,0,1-2.33-.39,4.74,4.74,0,0,1-1.7-1.09,4.54,4.54,0,0,1-1-1.66,5.84,5.84,0,0,1-.36-2.09,5.72,5.72,0,0,1,.63-2.72,4.58,4.58,0,0,1,1.8-1.85,5.49,5.49,0,0,1,2.79-.67,6.94,6.94,0,0,1,1,.07,6.82,6.82,0,0,1,1,.18,7.41,7.41,0,0,1,.83.26,4.84,4.84,0,0,1,.67.28l-.15,1.85a8.42,8.42,0,0,0-1.15-.54,5.76,5.76,0,0,0-1.07-.3,4.77,4.77,0,0,0-1-.1A3.73,3.73,0,0,0,29,146a2.78,2.78,0,0,0-1.06.69,3.18,3.18,0,0,0-.7,1.12,4.39,4.39,0,0,0-.24,1.51,4.62,4.62,0,0,0,.21,1.41,3.25,3.25,0,0,0,.64,1.15,3,3,0,0,0,1.11.78,4.21,4.21,0,0,0,1.58.27c.28,0,.56,0,.82,0a4.76,4.76,0,0,0,.77-.14,4.87,4.87,0,0,0,.74-.23,5.76,5.76,0,0,0,.72-.33l.24,1.78a4.91,4.91,0,0,1-.62.21c-.24.06-.52.13-.83.18s-.63.1-1,.13S30.74,154.54,30.39,154.54ZM32,154V149.2h1.87V154Z" fill="#fff"/>
      <path d="M26.7,186.23v-10.1h6.56v1.64H27.59l1.05-1.34v9.5l-.93-1.34h5.6v1.64Zm1.5-4.32v-1.57H33v1.57H28.2Z" fill="#fff"/>
      <path d="M25.14,217.11c.18-.55.38-1.12.58-1.72l.57-1.7,1.18-3.47c.21-.63.41-1.19.58-1.7l.51-1.52h2.57c.17.53.34,1.05.51,1.55l.57,1.67,1.16,3.47c.19.56.39,1.13.58,1.72l.57,1.7H32.47L32,215.4l-.51-1.66-1.54-5h-.16l-1.55,5c-.17.54-.34,1.11-.52,1.7s-.37,1.17-.54,1.72Zm2.24-2.26.2-1.5H32.3l.17,1.5Z" fill="#fff"/>
      <path d="M30.57,250.06a6.08,6.08,0,0,1-2.2-.38,4.77,4.77,0,0,1-1.67-1.08,5,5,0,0,1-1.05-1.66,6,6,0,0,1-.36-2.11,5.67,5.67,0,0,1,.62-2.71,4.54,4.54,0,0,1,1.76-1.87,5.21,5.21,0,0,1,2.71-.67,7.77,7.77,0,0,1,1,.06,6.37,6.37,0,0,1,.91.18,7.75,7.75,0,0,1,.81.25,5.2,5.2,0,0,1,.66.29l-.16,1.86a6.73,6.73,0,0,0-1.06-.55,5.35,5.35,0,0,0-1-.3,4.94,4.94,0,0,0-.92-.09,3.39,3.39,0,0,0-1.67.41,3,3,0,0,0-1.15,1.22,4.06,4.06,0,0,0-.42,1.92,4.24,4.24,0,0,0,.22,1.38,3.36,3.36,0,0,0,.64,1.14,2.92,2.92,0,0,0,1.08.77,3.78,3.78,0,0,0,1.52.29,5.6,5.6,0,0,0,.69,0,4.26,4.26,0,0,0,.69-.15,3.28,3.28,0,0,0,.69-.27,4.83,4.83,0,0,0,.67-.41l.12,1.84a3.77,3.77,0,0,1-.67.31,6.06,6.06,0,0,1-.76.21,7.55,7.55,0,0,1-.83.13C31.13,250,30.85,250.06,30.57,250.06Z" fill="#fff"/>
      <g>
        <circle cx="279.04" cy="79.97" r="29.95" fill="#e67373" style="mix-blend-mode: overlay"/>
        <circle cx="308.99" cy="79.97" r="29.95" fill="#ade673" style="mix-blend-mode: overlay"/>
        <circle cx="249.09" cy="79.97" r="29.95" fill="#e673e6" style="mix-blend-mode: overlay"/>
        <circle cx="279.04" cy="48.58" r="29.95" fill="#73ade6" style="mix-blend-mode: overlay"/>
      </g>
      <g>
        <path d="M258.64,86.44c.25-.76.52-1.56.81-2.39l.8-2.39,1.64-4.84.81-2.37c.24-.71.48-1.41.72-2.13H267l.72,2.16c.24.7.51,1.48.8,2.34l1.62,4.85.81,2.41c.28.82.54,1.61.79,2.36h-2.86c-.24-.77-.48-1.57-.73-2.38l-.71-2.32-2.15-7h-.22l-2.17,7c-.24.76-.48,1.55-.74,2.38s-.5,1.63-.74,2.4Zm3.13-3.15.28-2.1h6.59l.23,2.1Z" fill="#fff"/>
        <path d="M273.57,86.44V76.58l2.14-.13.1,1.74H276a5.87,5.87,0,0,1,.79-.89,3.61,3.61,0,0,1,1.07-.7,3.3,3.3,0,0,1,1.4-.28,2.59,2.59,0,0,1,1.8.58,3,3,0,0,1,.84,1.67l.17,0c0,.19.06.38.08.58a6.4,6.4,0,0,1,0,.64v6.61H279.7V80.6a2.73,2.73,0,0,0-.31-1.46,1.22,1.22,0,0,0-1.12-.5,1.92,1.92,0,0,0-.87.2,2.56,2.56,0,0,0-.72.55,5.51,5.51,0,0,0-.59.76v6.29Zm12.21,0V80.6a2.73,2.73,0,0,0-.31-1.46,1.22,1.22,0,0,0-1.12-.5,1.93,1.93,0,0,0-.88.2,2.75,2.75,0,0,0-.73.55,4.36,4.36,0,0,0-.58.76l-.37-1.93H282a5.9,5.9,0,0,1,.83-.92,4,4,0,0,1,1.11-.7,3.41,3.41,0,0,1,1.43-.28,2.61,2.61,0,0,1,2.19.9,4.12,4.12,0,0,1,.72,2.61v6.61Z" fill="#fff"/>
        <path d="M291.09,86.44l1.17-2.56c.39-.85.77-1.7,1.13-2.53l1.79-3.93c.21-.48.43-1,.65-1.44s.44-1,.65-1.44l.51.54h-7.32V72.84h9.56v1.74l-1,2.29-1,2.31L296,81.82l-1,2.3c-.34.77-.69,1.54-1,2.32Z" fill="#fff"/>
      </g>
      <g>
        <circle cx="445.89" cy="34.75" r="11.72" fill="#e67373"/>
        <path d="M446.92,30.5l3.35,9h-2l-.68-2h-3.35l-.7,2h-2l3.39-9ZM447,36l-1.13-3.29h0L444.71,36Z" fill="#fff"/>
        <g opacity="0.21">
          <circle cx="464.35" cy="39.7" r="5.86" fill="#f4812a"/>
          <path d="M463.36,37.65,465,42.13h-1l-.33-1H462l-.35,1h-1l1.69-4.48Zm.06,2.75-.57-1.65h0l-.58,1.65Z" fill="#fff"/>
          <path d="M466.11,42.13v-1l-.63.13v-.59l.63-.12v-1l-.63.13v-.59l.63-.14V38l.25,0v1l.69-.15v-1.1l.27,0v1.09l.62-.13v.59l-.62.13v1l.62-.12v.59l-.62.13v.92l-.27.05V40.9l-.69.16v1Zm.25-1.67.69-.16v-1l-.69.17Z" fill="#fff"/>
        </g>
        <g opacity="0.21">
          <circle cx="477.86" cy="53.21" r="5.86" fill="#fff100"/>
          <path d="M478.34,51a2.61,2.61,0,0,1,.58,0,1.27,1.27,0,0,1,.46.19.88.88,0,0,1,.29.34,1.19,1.19,0,0,1,.1.53,1,1,0,0,1-.15.56,1.08,1.08,0,0,1-.46.37,1.05,1.05,0,0,1,.62.42,1.22,1.22,0,0,1,.21.72,1.18,1.18,0,0,1-.14.58,1,1,0,0,1-.35.41,1.69,1.69,0,0,1-.51.23,2.33,2.33,0,0,1-.59.08h-2.17V51Zm-.12,1.81a.67.67,0,0,0,.43-.13.47.47,0,0,0,.17-.4.5.5,0,0,0-.06-.26.46.46,0,0,0-.15-.16.63.63,0,0,0-.22-.08l-.25,0h-.92v1.05Zm0,1.9a1.27,1.27,0,0,0,.28,0,.79.79,0,0,0,.23-.09.4.4,0,0,0,.16-.18.6.6,0,0,0,.06-.29.6.6,0,0,0-.19-.49.84.84,0,0,0-.52-.15h-1.07v1.23Z" fill="#fff"/>
        </g>
        <circle cx="482.81" cy="71.67" r="11.72" fill="#ade673"/>
        <path d="M484.57,69.64a2.08,2.08,0,0,0-.44-.5,2,2,0,0,0-.59-.33,2.1,2.1,0,0,0-.7-.12,2.33,2.33,0,0,0-1.13.26,2.07,2.07,0,0,0-.75.69,2.77,2.77,0,0,0-.42,1,4.83,4.83,0,0,0-.14,1.15,4.54,4.54,0,0,0,.14,1.1,2.76,2.76,0,0,0,.42,1,2.14,2.14,0,0,0,.75.68,2.33,2.33,0,0,0,1.13.26,1.85,1.85,0,0,0,1.41-.55,2.54,2.54,0,0,0,.62-1.46h1.91a4.53,4.53,0,0,1-.39,1.52,3.56,3.56,0,0,1-2,1.88,4.37,4.37,0,0,1-1.52.25,4.56,4.56,0,0,1-1.85-.36,3.85,3.85,0,0,1-1.39-1,4.45,4.45,0,0,1-.87-1.48,5.39,5.39,0,0,1-.3-1.82,5.68,5.68,0,0,1,.3-1.87,4.65,4.65,0,0,1,.87-1.5,4,4,0,0,1,1.39-1,4.56,4.56,0,0,1,1.85-.37,4.32,4.32,0,0,1,1.4.22,3.8,3.8,0,0,1,1.18.62,3.37,3.37,0,0,1,.86,1,3.55,3.55,0,0,1,.43,1.38H484.8A1.66,1.66,0,0,0,484.57,69.64Z" fill="#fff"/>
        <g opacity="0.21">
          <circle cx="477.86" cy="90.13" r="5.86" fill="#00a551"/>
          <path d="M477.27,89.1a1,1,0,0,0-.22-.24,1.11,1.11,0,0,0-.3-.17,1,1,0,0,0-.34-.06,1.12,1.12,0,0,0-.57.13,1.24,1.24,0,0,0-.38.34,1.88,1.88,0,0,0-.21.5,2.62,2.62,0,0,0-.06.57,2.51,2.51,0,0,0,.06.55,1.75,1.75,0,0,0,.21.48,1.24,1.24,0,0,0,.38.34,1.12,1.12,0,0,0,.57.13.88.88,0,0,0,.7-.28,1.2,1.2,0,0,0,.31-.73h1a2.24,2.24,0,0,1-.2.76,1.74,1.74,0,0,1-.41.58,1.84,1.84,0,0,1-.6.37,2.33,2.33,0,0,1-.76.12,2.27,2.27,0,0,1-.93-.18,1.93,1.93,0,0,1-.69-.49,2.2,2.2,0,0,1-.44-.74,2.67,2.67,0,0,1-.15-.91,2.75,2.75,0,0,1,.15-.93,2.16,2.16,0,0,1,.44-.75,2,2,0,0,1,.69-.51,2.27,2.27,0,0,1,.93-.18,2.33,2.33,0,0,1,.7.11,1.85,1.85,0,0,1,.59.31,1.9,1.9,0,0,1,.43.5,2,2,0,0,1,.21.7h-.95A.88.88,0,0,0,477.27,89.1Z" fill="#fff"/>
          <path d="M479.73,92.39v-1l-.63.13V90.9l.63-.12v-1l-.63.12v-.58l.63-.14v-1l.25,0v1l.69-.16V87.9l.27-.05v1.09l.63-.13v.59l-.63.13v1l.63-.12V91l-.63.13V92l-.27,0v-.92l-.69.17v1Zm.25-1.68.69-.15v-1l-.69.17Z" fill="#fff"/>
        </g>
        <g opacity="0.21">
          <circle cx="464.35" cy="103.65" r="5.86" fill="#00a89c"/>
          <path d="M464.3,101.46a2.32,2.32,0,0,1,.8.14,1.76,1.76,0,0,1,.65.41,2.18,2.18,0,0,1,.43.69,2.88,2.88,0,0,1,.15,1,3.26,3.26,0,0,1-.12.9,2.24,2.24,0,0,1-.38.72,1.9,1.9,0,0,1-.64.47,2.05,2.05,0,0,1-.89.17h-1.94v-4.48Zm-.07,3.65a1.4,1.4,0,0,0,.41-.06,1,1,0,0,0,.36-.23,1.23,1.23,0,0,0,.25-.42,1.89,1.89,0,0,0,.1-.63,2.77,2.77,0,0,0-.07-.61,1.2,1.2,0,0,0-.22-.47.94.94,0,0,0-.4-.3,1.56,1.56,0,0,0-.61-.1h-.7v2.82Z" fill="#fff"/>
        </g>
        <g opacity="0.21">
          <circle cx="445.89" cy="108.59" r="5.86" fill="#00adee"/>
          <path d="M444.51,106.52a2.36,2.36,0,0,1,.8.14,1.76,1.76,0,0,1,.65.41,2.18,2.18,0,0,1,.43.69,3.23,3.23,0,0,1,0,1.88,1.91,1.91,0,0,1-.38.72,1.74,1.74,0,0,1-.63.47,2.05,2.05,0,0,1-.89.17h-1.94v-4.48Zm-.07,3.65a1.4,1.4,0,0,0,.41-.06,1.05,1.05,0,0,0,.36-.23,1.23,1.23,0,0,0,.25-.42,1.91,1.91,0,0,0,.09-.63,2.87,2.87,0,0,0-.06-.61,1.36,1.36,0,0,0-.22-.47.94.94,0,0,0-.4-.3,1.56,1.56,0,0,0-.61-.1h-.7v2.82Z" fill="#fff"/>
          <path d="M447.9,111v-1l-.62.13v-.58l.62-.13v-1l-.62.13V108l.62-.14v-1l.26,0v1l.69-.15v-1.1l.26-.05v1.09l.63-.13v.6l-.63.12v1l.63-.12v.59l-.63.13v.92l-.26.05v-.91l-.69.16v1Zm.26-1.67.69-.16v-1l-.69.17Z" fill="#fff"/>
        </g>
        <circle cx="427.43" cy="103.65" r="11.72" fill="#73ade6"/>
        <path d="M430.73,99.33V101H426v1.92h4.34v1.53H426v2.19h4.83v1.66H424v-9Z" fill="#fff"/>
        <g opacity="0.21">
          <circle cx="413.91" cy="90.13" r="5.86" fill="#2e3191"/>
          <path d="M415.6,87.89v.83h-2.16v1h1.88v.76h-1.88v1.85h-1V87.89Z" fill="#fff"/>
        </g>
        <g opacity="0.21">
          <circle cx="408.97" cy="71.67" r="5.86" fill="#90278e"/>
          <path d="M409.29,69.5v.83h-2.17v1H409v.76h-1.88V74h-1V69.5Z" fill="#fff"/>
          <path d="M410.54,74V73l-.62.13V72.5l.62-.13v-1l-.62.13v-.59l.62-.14v-1l.26,0v1l.69-.15v-1.1l.26,0v1.09l.63-.13V71l-.63.13v1l.63-.12v.59l-.63.13v.92l-.26,0v-.91l-.69.16v1Zm.26-1.67.69-.16v-1l-.69.17Z" fill="#fff"/>
        </g>
        <circle cx="413.91" cy="53.21" r="11.72" fill="#e673e6"/>
        <path d="M414.87,57.7a3.17,3.17,0,0,1-1.3.28,4.59,4.59,0,0,1-1.85-.36,3.87,3.87,0,0,1-1.38-1,4.34,4.34,0,0,1-.87-1.47,5.49,5.49,0,0,1-.3-1.83,5.58,5.58,0,0,1,.3-1.86,4.43,4.43,0,0,1,.87-1.51,3.9,3.9,0,0,1,1.38-1,4.78,4.78,0,0,1,3.19-.16,3.84,3.84,0,0,1,1.17.61,3.42,3.42,0,0,1,.86,1,3.49,3.49,0,0,1,.41,1.36h-1.88a1.88,1.88,0,0,0-.68-1.13,2,2,0,0,0-1.22-.38,2.33,2.33,0,0,0-1.13.26,2.07,2.07,0,0,0-.75.69,3.15,3.15,0,0,0-.42,1,4.8,4.8,0,0,0-.13,1.14,4.48,4.48,0,0,0,.13,1.1,3.19,3.19,0,0,0,.42,1,2.14,2.14,0,0,0,.75.68,2.33,2.33,0,0,0,1.13.26,2.11,2.11,0,0,0,1.52-.5,2.18,2.18,0,0,0,.62-1.43h-2V52.93h3.77v4.84h-1.25l-.21-1A2.88,2.88,0,0,1,414.87,57.7Z" fill="#fff"/>
        <g opacity="0.21">
          <circle cx="427.43" cy="39.7" r="5.86" fill="#e01156"/>
          <path d="M426.94,42a1.64,1.64,0,0,1-.64.14,2.3,2.3,0,0,1-.93-.18,2,2,0,0,1-.69-.49,2.38,2.38,0,0,1-.44-.74,2.71,2.71,0,0,1-.15-.91,2.85,2.85,0,0,1,.15-.94,2.55,2.55,0,0,1,.44-.75,2,2,0,0,1,.69-.5,2.3,2.3,0,0,1,.93-.18,2.18,2.18,0,0,1,.67.1,1.8,1.8,0,0,1,.58.31,1.69,1.69,0,0,1,.43.49,1.87,1.87,0,0,1,.21.68h-.94a.91.91,0,0,0-.95-.75,1.14,1.14,0,0,0-.57.13,1,1,0,0,0-.37.34,1.4,1.4,0,0,0-.21.5,2.12,2.12,0,0,0-.07.57,2,2,0,0,0,.07.55,1.46,1.46,0,0,0,.21.48,1.1,1.1,0,0,0,.37.34,1.26,1.26,0,0,0,.57.13,1.08,1.08,0,0,0,.75-.25,1,1,0,0,0,.31-.72h-1V39.6h1.89V42h-.63l-.1-.51A1.43,1.43,0,0,1,426.94,42Z" fill="#fff"/>
          <path d="M429.73,42V41l-.62.13v-.59l.62-.12v-1l-.62.12V39l.62-.14v-1l.26,0v1l.69-.16v-1.1l.26,0v1.09l.63-.14V39l-.63.13v1l.63-.12v.58l-.63.14v.92l-.26.05v-.92L430,41v1Zm.26-1.68.69-.15v-1l-.69.17Z" fill="#fff"/>
        </g>
      </g>
      <g>
        <path d="M144.64,36.45h9.28a3.26,3.26,0,0,1,3.26,3.26v68.56a3.26,3.26,0,0,1-3.26,3.26h-9.28a3.25,3.25,0,0,1-3.25-3.25V39.7a3.26,3.26,0,0,1,3.26-3.26Z" fill="#e67373"/>
        <path d="M162.64,36.45h9.28a3.25,3.25,0,0,1,3.25,3.25v68.56a3.26,3.26,0,0,1-3.26,3.26h-9.28a3.26,3.26,0,0,1-3.26-3.26V39.7A3.26,3.26,0,0,1,162.64,36.45Z" fill="#e6e6e6"/>
        <g>
          <g opacity="0.75" style="mix-blend-mode: multiply">
            <rect x="153.64" y="37.49" width="9.06" height="43.07" rx="1.87" fill="gray"/>
          </g>
          <rect x="153.64" y="36.45" width="9.06" height="43.07" rx="1.87" fill="gray"/>
        </g>
        <rect x="51.4" y="36.45" width="15.79" height="75.07" rx="3.26" fill="#ade673"/>
        <rect x="69.4" y="36.45" width="15.79" height="75.07" rx="3.26" fill="#e6e6e6"/>
        <rect x="87.39" y="36.45" width="15.79" height="75.07" rx="3.26" fill="#73ade6" style="mix-blend-mode: overlay"/>
        <rect x="105.39" y="36.45" width="15.79" height="75.07" rx="3.26" fill="#e6e6e6"/>
        <path d="M126.64,36.45h9.28a3.26,3.26,0,0,1,3.26,3.26v68.56a3.26,3.26,0,0,1-3.26,3.26h-9.28a3.25,3.25,0,0,1-3.25-3.25V39.7A3.26,3.26,0,0,1,126.64,36.45Z" fill="#e673e6" style="mix-blend-mode: overlay"/>
        <g>
          <g opacity="0.75" style="mix-blend-mode: multiply">
            <rect x="63.87" y="37.49" width="9.06" height="43.07" rx="1.87" fill="gray"/>
          </g>
          <rect x="63.87" y="36.45" width="9.06" height="43.07" rx="1.87" fill="gray"/>
        </g>
        <g>
          <g opacity="0.75" style="mix-blend-mode: multiply">
            <rect x="81.86" y="37.49" width="9.06" height="43.07" rx="1.87" fill="gray"/>
          </g>
          <rect x="81.86" y="36.45" width="9.06" height="43.07" rx="1.87" fill="gray"/>
        </g>
        <g>
          <g opacity="0.75" style="mix-blend-mode: multiply">
            <rect x="117.84" y="37.49" width="9.06" height="43.07" rx="1.87" fill="gray"/>
          </g>
          <rect x="117.84" y="36.45" width="9.06" height="43.07" rx="1.87" fill="gray"/>
        </g>
        <g>
          <g opacity="0.75" style="mix-blend-mode: multiply">
            <rect x="135.84" y="37.49" width="9.06" height="43.07" rx="1.87" fill="gray"/>
          </g>
          <rect x="135.84" y="36.45" width="9.06" height="43.07" rx="1.87" fill="gray"/>
        </g>
        <g>
          <g opacity="0.98">
            <path d="M146.69,104.11c.09-.25.18-.52.27-.8s.19-.55.27-.8l.55-1.62.27-.79.24-.71h1.2q.12.38.24.72c.08.24.17.5.26.78l.55,1.62c.08.26.18.53.27.81l.26.79h-.95l-.25-.8c-.08-.27-.16-.53-.24-.77l-.71-2.35h-.08l-.72,2.32-.25.8c-.08.27-.17.54-.25.8Zm1.05-1,.09-.7H150l.07.7Z" fill="#fff"/>
          </g>
          <g opacity="0.98">
            <path d="M59.28,104.19a3,3,0,0,1-1-.17,2.29,2.29,0,0,1-.78-.51,2.36,2.36,0,0,1-.49-.77,2.86,2.86,0,0,1-.17-1,2.76,2.76,0,0,1,.29-1.27,2.22,2.22,0,0,1,.82-.87,2.47,2.47,0,0,1,1.27-.31,3.4,3.4,0,0,1,.45,0l.43.08a3.4,3.4,0,0,1,.38.12,1.68,1.68,0,0,1,.3.14l-.07.86a2.92,2.92,0,0,0-.5-.25,1.72,1.72,0,0,0-.46-.14,2.18,2.18,0,0,0-.43,0,1.56,1.56,0,0,0-.78.2,1.39,1.39,0,0,0-.54.56,1.93,1.93,0,0,0-.19.9,1.91,1.91,0,0,0,.1.64,1.37,1.37,0,0,0,.3.54,1.43,1.43,0,0,0,.5.36,1.76,1.76,0,0,0,.71.13l.32,0a1.94,1.94,0,0,0,.33-.07l.32-.12a2.7,2.7,0,0,0,.31-.2l.06.86a3,3,0,0,1-.31.15l-.36.1-.39,0A2.55,2.55,0,0,1,59.28,104.19Z" fill="#fff"/>
          </g>
          <g opacity="0.98">
            <path d="M93.45,104.11V99.39h3.07v.77H93.87l.49-.63V104l-.44-.63h2.62v.77Zm.7-2v-.73H96.4v.73H94.15Z" fill="#fff"/>
          </g>
          <g opacity="0.98">
            <path d="M131.47,104.19a3,3,0,0,1-1.08-.18,2.2,2.2,0,0,1-.8-.51,2.25,2.25,0,0,1-.49-.78,2.74,2.74,0,0,1-.16-1,2.59,2.59,0,0,1,.29-1.27,2.2,2.2,0,0,1,.84-.87,2.55,2.55,0,0,1,1.3-.31,3.91,3.91,0,0,1,.49,0,3.12,3.12,0,0,1,.44.09l.39.11a2.33,2.33,0,0,1,.31.14l-.07.86a3.59,3.59,0,0,0-.53-.25,2.71,2.71,0,0,0-.5-.14,2.49,2.49,0,0,0-.46,0,1.7,1.7,0,0,0-.61.11,1.35,1.35,0,0,0-.82.84,2,2,0,0,0-.12.71,2.07,2.07,0,0,0,.1.66,1.62,1.62,0,0,0,.3.53,1.41,1.41,0,0,0,.52.37,2,2,0,0,0,.74.13l.38,0a2.25,2.25,0,0,0,.36-.06l.34-.11a1.5,1.5,0,0,0,.34-.16l.11.84-.29.09-.38.09-.46.06Zm.74-.25v-2.25h.87v2.24Z" fill="#fff"/>
          </g>
        </g>
      </g>
    </g>
  </g>
</svg>
