<svg id="Layer_1" data-name="Layer 1" xmlns="http://www.w3.org/2000/svg" viewBox="0 0 356.98 425.6">
  <path id="path5012" d="M20.64,161.52c48.35-18.13,58.64-17.9,105.57,0,44.25,17.76,59,18.43,105,0s61.73-17.46,105.35,0c-44.12,18.06-62,17.71-105.35,0s-58.47-18-105.28,0S69,180,20.63,161.52Z" fill="#fbfbf6" stroke="#231f20" stroke-width="1.42"/>
  <path id="path5012-5" d="M99.73,210.77c33.17-18.12,46.57-17.55,79.08.16s43.8,18,78.87,0,42.64-18.43,78.86,0c-36.22,18.13-43.93,17.9-79.09,0-33.14-17.76-44.22-18.43-78.64,0s-46.41,17.3-79.08-.16-47.14-17.54-78.63,0c32,16.69,45.45,18.11,78.63,0Z" fill="#fbfbf6" stroke="#231f20" stroke-width="1.42"/>
  <path id="path5012-5-2" d="M201.2,358.5c-19.29-17.76-26.37-17.91-44.91,0s-26.42,18.16-45.48,0-26.15-18.05-45.09,0c-18.57,17.69-26.28,17.69-45.09,0,20.08-17.76,25.12-17.91,45.22,0,18.94,17.75,26.65,17.91,45,0,18.47-18.06,26.49-17.46,45.17,0s26.35,17.77,45.22,0,26.49-17.94,45.06,0,27.23,17.65,45.22,0,27.19-17.81,45.06,0c-18.21,18-26.65,17.86-45.06,0s-27.28-18-45.22,0-26,17.54-45.06,0Z" fill="#fbfbf6" stroke="#231f20" stroke-width="1.42"/>
  <path id="path5012-5-2-3" d="M125.94,309.29c22.49,17.76,30.46,18.23,52.72,0s30.89-18,52.71,0,30.49,18,52.58,0c21.66-17.7,30.66-17.7,52.59,0-23.41,17.76-29.29,17.91-52.73,0-22.11-17.76-31.09-17.91-52.44,0-21.54,18.06-31.16,17.81-52.71,0-21.78-18-30.71-17.75-52.72,0s-30.9,17.94-52.56,0-31.76-17.65-52.74,0c21.06,17.56,31.14,18,52.74,0,20.92-18,30.34-17.54,52.56,0Z" fill="#fbfbf6" stroke="#231f20" stroke-width="1.42"/>
  <path id="path5012-5-2-3-1" d="M336.54,260c-25.11,18-36.42,17.54-63.09,0-27-17.76-36.15-18.26-62.88,0S173.08,278,146.9,260s-36.61-18-63.13,0c-26,17.7-36.8,17.7-63.13,0,28.1-17.76,35.16-17.91,63.3,0,26.54,17.76,37.32,17.91,62.95,0,25.85-18.06,37.81-17.84,63.68,0,26.15,18,36.45,17.78,62.87,0s37.1-17.94,63.1,0Z" fill="#fbfbf6" stroke="#231f20" stroke-width="1.42"/>
  <path id="path5012-5-2-3-1-6" d="M336.54,112.28c-65.49,18.06-91.59,18.05-158,0-65-17.7-92.07-17.7-157.95,0,70.32,17.76,88,17.91,158.39,0,66.39-17.76,93.38-17.91,157.51,0Z" fill="#fbfbf6" stroke="#231f20" stroke-width="1.42"/>
  <path id="path5012-5-2-3-1-6-8" d="M336.54,63.21c-129.54,17.9-181.82,19.07-315.9,0C154.67,43.83,204.25,45.14,336.54,63.21Z" fill="#fbfbf6" stroke="#231f20" stroke-width="1.42"/>
  <text id="text4155" transform="translate(175.17 105.89)" font-size="6.46" fill="#231f20" font-family="Neusa-Medium, Neusa" font-weight="500" style="isolation: isolate">1/2</text>
  <text id="text4166" transform="translate(120.86 155.02)" font-size="6.46" fill="#231f20" font-family="Neusa-Medium, Neusa" font-weight="500" style="isolation: isolate">1/3</text>
  <text id="text4177" transform="translate(227.37 155.02)" font-size="6.46" fill="#231f20" font-family="Neusa-Medium, Neusa" font-weight="500" style="isolation: isolate">2/3</text>
  <text id="text4188" transform="translate(95.66 204.14)" font-size="6.46" fill="#231f20" font-family="Neusa-Medium, Neusa" font-weight="500" style="isolation: isolate">1/4</text>
  <text id="text4199" transform="translate(253.93 204.14)" font-size="6.46" fill="#231f20" font-family="Neusa-Medium, Neusa" font-weight="500" style="isolation: isolate">3/4</text>
  <text id="text4210" transform="translate(79.65 253.26)" font-size="6.46" fill="#231f20" font-family="Neusa-Medium, Neusa" font-weight="500" style="isolation: isolate">1/5</text>
  <text id="text4221" transform="translate(142.63 253.26)" font-size="6.46" fill="#231f20" font-family="Neusa-Medium, Neusa" font-weight="500" style="isolation: isolate">2/5</text>
  <text id="text4232" transform="translate(205.87 253.26)" font-size="6.46" fill="#231f20" font-family="Neusa-Medium, Neusa" font-weight="500" style="isolation: isolate">3/5</text>
  <text id="text4243" transform="translate(269.63 253.26)" font-size="6.46" fill="#231f20" font-family="Neusa-Medium, Neusa" font-weight="500" style="isolation: isolate">4/5</text>
  <text id="text4254" transform="translate(68.65 302.38)" font-size="6.46" fill="#231f20" font-family="Neusa-Medium, Neusa" font-weight="500" style="isolation: isolate">1/6</text>
  <text id="text4265" transform="translate(280.41 302.38)" font-size="6.46" fill="#231f20" font-family="Neusa-Medium, Neusa" font-weight="500" style="isolation: isolate">5/6</text>
  <text id="text4276-6" transform="translate(61.95 351.5)" font-size="6.46" fill="#231f20" font-family="Neusa-Medium, Neusa" font-weight="500" style="isolation: isolate">1/7</text>
  <text id="text4287-0" transform="translate(107.22 351.5)" font-size="6.46" fill="#231f20" font-family="Neusa-Medium, Neusa" font-weight="500" style="isolation: isolate">2/7</text>
  <text id="text4298-8" transform="translate(153.62 351.5)" font-size="6.46" fill="#231f20" font-family="Neusa-Medium, Neusa" font-weight="500" style="isolation: isolate">3/7</text>
  <text id="text4309-9" transform="translate(197.54 351.5)" font-size="6.46" fill="#231f20" font-family="Neusa-Medium, Neusa" font-weight="500" style="isolation: isolate">4/7</text>
  <text id="text4320-9" transform="translate(243.12 351.5)" font-size="6.46" fill="#231f20" font-family="Neusa-Medium, Neusa" font-weight="500" style="isolation: isolate">5/7</text>
  <text id="text4331-9" transform="translate(287.86 351.5)" font-size="6.46" fill="#231f20" font-family="Neusa-Medium, Neusa" font-weight="500" style="isolation: isolate">6/7</text>
  <text id="text4480" transform="translate(174.5 403.18) scale(0.96 1)" font-size="5.95" fill="#231f20" font-family="Neusa-Medium, Neusa" font-weight="500" style="isolation: isolate">1/2</text>
  <text id="text4491" transform="translate(121.51 403.18) scale(0.96 1)" font-size="5.95" fill="#231f20" font-family="Neusa-Medium, Neusa" font-weight="500" style="isolation: isolate">1/3</text>
  <text id="text4502" transform="translate(228.27 403.18) scale(0.96 1)" font-size="5.95" fill="#231f20" font-family="Neusa-Medium, Neusa" font-weight="500" style="isolation: isolate">2/3</text>
  <text id="text4513" transform="translate(95.52 403.18) scale(0.96 1)" font-size="5.95" fill="#231f20" font-family="Neusa-Medium, Neusa" font-weight="500" style="isolation: isolate">1/4</text>
  <text id="text4524" transform="translate(254.3 403.18) scale(0.96 1)" font-size="5.95" fill="#231f20" font-family="Neusa-Medium, Neusa" font-weight="500" style="isolation: isolate">3/4</text>
  <text id="text4535" transform="translate(80.04 403.18) scale(0.96 1)" font-size="5.95" fill="#231f20" font-family="Neusa-Medium, Neusa" font-weight="500" style="isolation: isolate">1/5</text>
  <text id="text4546" transform="translate(142.22 403.18) scale(0.96 1)" font-size="5.95" fill="#231f20" font-family="Neusa-Medium, Neusa" font-weight="500" style="isolation: isolate">2/5</text>
  <text id="text4557" transform="translate(207.3 403.18) scale(0.96 1)" font-size="5.95" fill="#231f20" font-family="Neusa-Medium, Neusa" font-weight="500" style="isolation: isolate">3/5</text>
  <text id="text4568" transform="translate(269.48 403.18) scale(0.96 1)" font-size="5.95" fill="#231f20" font-family="Neusa-Medium, Neusa" font-weight="500" style="isolation: isolate">4/5</text>
  <text id="text4579" transform="translate(69.84 403.18) scale(0.96 1)" font-size="5.95" fill="#231f20" font-family="Neusa-Medium, Neusa" font-weight="500" style="isolation: isolate">1/6</text>
  <text id="text4590" transform="translate(279.72 403.18) scale(0.96 1)" font-size="5.95" fill="#231f20" font-family="Neusa-Medium, Neusa" font-weight="500" style="isolation: isolate">5/6</text>
  <text id="text4601" transform="translate(59.37 403.18) scale(0.96 1)" font-size="5.95" fill="#231f20" font-family="Neusa-Medium, Neusa" font-weight="500" style="isolation: isolate">1/7</text>
  <text id="text4612" transform="translate(107.35 403.18) scale(0.96 1)" font-size="5.95" fill="#231f20" font-family="Neusa-Medium, Neusa" font-weight="500" style="isolation: isolate">2/7</text>
  <text id="text4623" transform="translate(152.16 403.18) scale(0.96 1)" font-size="5.95" fill="#231f20" font-family="Neusa-Medium, Neusa" font-weight="500" style="isolation: isolate">3/7</text>
  <text id="text4634" transform="translate(197.13 403.18) scale(0.96 1)" font-size="5.95" fill="#231f20" font-family="Neusa-Medium, Neusa" font-weight="500" style="isolation: isolate">4/7</text>
  <text id="text4645" transform="translate(242.7 403.18) scale(0.96 1)" font-size="5.95" fill="#231f20" font-family="Neusa-Medium, Neusa" font-weight="500" style="isolation: isolate">5/7</text>
  <text id="text4656" transform="translate(290.41 403.18) scale(0.96 1)" font-size="5.95" fill="#231f20" font-family="Neusa-Medium, Neusa" font-weight="500" style="isolation: isolate">6/7</text>
  <text id="text4667" transform="translate(335.13 403.18) scale(0.96 1)" font-size="5.95" fill="#231f20" font-family="Neusa-Medium, Neusa" font-weight="500" style="isolation: isolate">1</text>
  <text id="text4678" transform="translate(20.28 403.18) scale(0.96 1)" font-size="5.95" fill="#231f20" font-family="Neusa-Medium, Neusa" font-weight="500" style="isolation: isolate">0</text>
  <g id="shape101-1">
    <path id="path3763" d="M20.69,395.68H336.54" fill="none" stroke="#242526" stroke-linecap="round" stroke-linejoin="round" stroke-width="1.5"/>
  </g>
  <g id="shape81-273">
    <path id="path4379" d="M178.61,384.38v10" fill="none" stroke="#abb1b8" stroke-linecap="round" stroke-linejoin="round" stroke-width="2.25"/>
  </g>
  <g id="shape88-276">
    <path id="path4384" d="M99.65,384.38v10" fill="none" stroke="#f2a33b" stroke-linecap="round" stroke-linejoin="round" stroke-width="2.25"/>
  </g>
  <g id="shape89-279">
    <path id="path4389" d="M257.58,384.38v10" fill="none" stroke="#f2a33b" stroke-linecap="round" stroke-linejoin="round" stroke-width="2.25"/>
  </g>
  <g id="shape97-282">
    <path id="path4394" d="M147,384.38v10" fill="none" stroke="#fbd230" stroke-linecap="round" stroke-linejoin="round" stroke-width="2.25"/>
  </g>
  <g id="shape98-285">
    <path id="path4399" d="M83.86,384.38v10" fill="none" stroke="#fbd230" stroke-linecap="round" stroke-linejoin="round" stroke-width="2.25"/>
  </g>
  <g id="shape99-288">
    <path id="path4404" d="M273.35,384.38v10" fill="none" stroke="#fbd230" stroke-linecap="round" stroke-linejoin="round" stroke-width="2.25"/>
  </g>
  <g id="shape100-291">
    <path id="path4409" d="M210.18,384.38v10" fill="none" stroke="#fbd230" stroke-linecap="round" stroke-linejoin="round" stroke-width="2.25"/>
  </g>
  <g id="shape102-294">
    <path id="path4414" d="M231.26,384.38v10" fill="none" stroke="#eb5b44" stroke-linecap="round" stroke-linejoin="round" stroke-width="2.25"/>
  </g>
  <g id="shape103-297">
    <path id="path4419" d="M126,384.38v10" fill="none" stroke="#eb5b44" stroke-linecap="round" stroke-linejoin="round" stroke-width="2.25"/>
  </g>
  <g id="shape104-300">
    <path id="path4424" d="M73.33,384.38v10" fill="none" stroke="#00a850" stroke-linecap="round" stroke-linejoin="round" stroke-width="2.25"/>
  </g>
  <g id="shape105-303">
    <path id="path4429" d="M283.9,384.38v10" fill="none" stroke="#00a850" stroke-linecap="round" stroke-linejoin="round" stroke-width="2.25"/>
  </g>
  <g id="shape106-306">
    <path id="path4434" d="M291.42,384.38v10" fill="none" stroke="#00aeea" stroke-linecap="round" stroke-linejoin="round" stroke-width="2.25"/>
  </g>
  <g id="shape107-309">
    <path id="path4439" d="M65.81,384.38v10" fill="none" stroke="#00aeea" stroke-linecap="round" stroke-linejoin="round" stroke-width="2.25"/>
  </g>
  <g id="shape108-312">
    <path id="path4444" d="M20.69,384.38v10" fill="none" stroke="#242526" stroke-linecap="round" stroke-linejoin="round" stroke-width="2.25"/>
  </g>
  <g id="shape109-315">
    <path id="path4449" d="M336.54,384.38v10" fill="none" stroke="#575e60" stroke-linecap="round" stroke-linejoin="round" stroke-width="2.25"/>
  </g>
  <g id="shape110-318">
    <path id="path4454" d="M246.21,384.38v10" fill="none" stroke="#00aeea" stroke-linecap="round" stroke-linejoin="round" stroke-width="2.25"/>
  </g>
  <g id="shape111-321">
    <path id="path4459" d="M201.18,384.38v10" fill="none" stroke="#00aeea" stroke-linecap="round" stroke-linejoin="round" stroke-width="2.25"/>
  </g>
  <g id="shape112-324">
    <path id="path4464" d="M156,384.38v10" fill="none" stroke="#00aeea" stroke-linecap="round" stroke-linejoin="round" stroke-width="2.25"/>
  </g>
  <g id="shape113-327">
    <path id="path4469" d="M110.93,384.38v10" fill="none" stroke="#00aeea" stroke-linecap="round" stroke-linejoin="round" stroke-width="2.25"/>
  </g>
  <g id="shape44-108">
    <path id="path4016" d="M178.63,112.23v271" fill="none" stroke="#abb1b8" stroke-linecap="round" stroke-linejoin="round" stroke-width="0.75"/>
  </g>
  <g id="shape46-114">
    <path id="path4026" d="M257.63,210.77V383.21" fill="none" stroke="#f2a33b" stroke-linecap="round" stroke-linejoin="round" stroke-width="0.75"/>
  </g>
  <g id="shape47-117">
    <path id="path4031" d="M147.05,260V383.22" fill="none" stroke="#fbd230" stroke-linecap="round" stroke-linejoin="round" stroke-width="0.75"/>
  </g>
  <g id="shape49-123">
    <path id="path4041" d="M273.42,260V383.21" fill="none" stroke="#fbd230" stroke-linecap="round" stroke-linejoin="round" stroke-width="0.75"/>
  </g>
  <g id="shape50-126">
    <path id="path4046" d="M210.22,260V383.22" fill="none" stroke="#fbd230" stroke-linecap="round" stroke-linejoin="round" stroke-width="0.75"/>
  </g>
  <g id="shape51-129">
    <path id="path4051" d="M231.3,161.5V383.22" fill="none" stroke="#eb5b44" stroke-linecap="round" stroke-linejoin="round" stroke-width="0.75"/>
  </g>
  <g id="shape53-135">
    <path id="path4061" d="M73.31,309.31v73.9" fill="none" stroke="#00a850" stroke-linecap="round" stroke-linejoin="round" stroke-width="0.75"/>
  </g>
  <g id="shape54-138">
    <path id="path4066" d="M284,309.31v73.9" fill="none" stroke="#00a850" stroke-linecap="round" stroke-linejoin="round" stroke-width="0.75"/>
  </g>
  <g id="shape55-141">
    <path id="path4071" d="M291.49,358.58v24.64" fill="none" stroke="#00aeea" stroke-linecap="round" stroke-linejoin="round" stroke-width="0.75"/>
  </g>
  <g id="shape57-147">
    <path id="path4081" d="M20.65,63V383.21" fill="none" stroke="#242526" stroke-linecap="round" stroke-linejoin="round" stroke-width="0.75"/>
  </g>
  <g id="shape73-153">
    <path id="path4091" d="M246.26,358.5v24.63" fill="none" stroke="#00aeea" stroke-linecap="round" stroke-linejoin="round" stroke-width="0.75"/>
  </g>
  <g id="shape74-156">
    <path id="path4096" d="M201.21,358.58v24.63" fill="none" stroke="#00aeea" stroke-linecap="round" stroke-linejoin="round" stroke-width="0.75"/>
  </g>
  <g id="shape75-159">
    <path id="path4101" d="M156,358.58v24.64" fill="none" stroke="#00aeea" stroke-linecap="round" stroke-linejoin="round" stroke-width="0.75"/>
  </g>
  <g id="shape76-162">
    <path id="path4106" d="M110.93,358.58v24.64" fill="none" stroke="#00aeea" stroke-linecap="round" stroke-linejoin="round" stroke-width="0.75"/>
  </g>
  <g id="shape43-267">
    <path id="path4369" d="M20.69,383.05H336.54" fill="none" stroke="#242526" stroke-linecap="round" stroke-linejoin="round" stroke-width="1.5"/>
  </g>
  <path id="path6856-7" d="M182.7,112.27a4.11,4.11,0,0,1-8.22,0v0a4.11,4.11,0,0,1,8.22,0Z" fill="#bbc0c6" stroke="#231f20" stroke-width="2.45"/>
  <g id="shape45-111">
    <path id="path4021" d="M99.64,210.77V383.22" fill="none" stroke="#f2a33b" stroke-linecap="round" stroke-linejoin="round" stroke-width="0.75"/>
  </g>
  <g id="shape48-120">
    <path id="path4036" d="M83.85,260V383.21" fill="none" stroke="#fbd230" stroke-linecap="round" stroke-linejoin="round" stroke-width="0.75"/>
  </g>
  <g id="shape52-132">
    <path id="path4056" d="M126,161.5V383.21" fill="none" stroke="#eb5b44" stroke-linecap="round" stroke-linejoin="round" stroke-width="0.75"/>
  </g>
  <g id="shape56-144">
    <path id="path4076" d="M65.79,358.58v24.64" fill="none" stroke="#00aeea" stroke-linecap="round" stroke-linejoin="round" stroke-width="0.75"/>
  </g>
  <path id="path4400" d="M336.63,63V395.52" fill="none" stroke="#575e60" stroke-miterlimit="3" stroke-width="1.45"/>
  <path id="path6856-2" d="M130,161.51a4.11,4.11,0,1,1-8.21.06v-.06a4.11,4.11,0,0,1,8.21,0Z" fill="#e94644" stroke="#231f20" stroke-width="2.45"/>
  <path id="path6856-3" d="M103.83,210.76a4.11,4.11,0,1,1-8.21.05v-.05a4.11,4.11,0,0,1,8.21,0Z" fill="#f2a33b" stroke="#231f20" stroke-width="2.45"/>
  <path id="path6856-6" d="M88,259.89a4.11,4.11,0,1,1-8.21.05v-.05a4.11,4.11,0,0,1,8.21-.05Z" fill="#fbd230" stroke="#231f20" stroke-width="2.45"/>
  <path id="path6856" d="M77.48,309.28a4.11,4.11,0,0,1-8.21.05v-.05a4.11,4.11,0,0,1,8.21,0Z" fill="#00a850" stroke="#231f20" stroke-width="2.45"/>
  <path id="path6856-8" d="M69.89,358.43a4.11,4.11,0,1,1-8.21.05v-.05a4.11,4.11,0,0,1,8.21-.05Z" fill="#00aeea" stroke="#231f20" stroke-width="2.45"/>
  <path id="path6856-78" d="M339.24,63.2a2.7,2.7,0,1,1-2.7-2.7A2.69,2.69,0,0,1,339.24,63.2Z" fill="#231f20" stroke="#231f20" stroke-width="2.45"/>
  <text transform="translate(131.09 30.23)" font-size="12.56" fill="#231f20" font-family="Neusa-Medium, Neusa" font-weight="500"><tspan letter-spacing="-0.04em">S</tspan><tspan x="5.74" y="0" letter-spacing="-0.01em">T</tspan><tspan x="11.24" y="0">RING </tspan><tspan x="36.59" y="0" letter-spacing="-0.04em">O</tspan><tspan x="42.57" y="0" letter-spacing="-0.02em">V</tspan><tspan x="49.02" y="0">E</tspan><tspan x="54.02" y="0" letter-spacing="-0.06em">R</tspan><tspan x="59.47" y="0" letter-spacing="-0.04em">T</tspan><tspan x="64.65" y="0" letter-spacing="-0.01em">O</tspan><tspan x="70.98" y="0" letter-spacing="0em">NES</tspan></text>
</svg>
