<svg xmlns="http://www.w3.org/2000/svg" viewBox="0 0 1190.55 1683.78">
  <g style="isolation: isolate">
    <g id="Layer_1" data-name="Layer 1">
      <rect x="-26.19" y="-35.94" width="1257.16" height="1743.76" fill="#58595b"/>
      <g>
        <rect x="328.87" y="141.83" width="387.34" height="1476.46" rx="6.11" fill="#808285"/>
        <rect x="554.11" y="197.6" width="20.23" height="96.17" rx="4.17" fill="#ee342e"/>
        <rect x="577.17" y="197.6" width="20.23" height="96.17" rx="4.17" fill="#eee824"/>
        <rect x="438.83" y="197.6" width="20.23" height="96.17" rx="4.17" fill="#bcbec0"/>
        <rect x="461.88" y="197.6" width="20.23" height="96.17" rx="4.17" fill="#68c073"/>
        <rect x="484.94" y="197.6" width="20.23" height="96.17" rx="4.17" fill="#3976bb"/>
        <rect x="508" y="197.6" width="20.23" height="96.17" rx="4.17" fill="#bcbec0"/>
        <rect x="531.05" y="197.6" width="20.23" height="96.17" rx="4.17" fill="#bcbec0"/>
        <g>
          <g opacity="0.75" style="mix-blend-mode: multiply">
            <rect x="454.8" y="203.27" width="11.6" height="55.17" rx="2.39" fill="#468e34"/>
          </g>
          <rect x="454.8" y="197.6" width="11.6" height="55.17" rx="2.39" fill="#64bc46"/>
        </g>
        <g>
          <g opacity="0.75" style="mix-blend-mode: multiply">
            <rect x="477.86" y="203.27" width="11.6" height="55.17" rx="2.39" fill="#231f20"/>
          </g>
          <rect x="477.86" y="197.6" width="11.6" height="55.17" rx="2.39" fill="#58595b"/>
        </g>
        <g>
          <g opacity="0.75" style="mix-blend-mode: multiply">
            <rect x="569.81" y="203.27" width="11.6" height="55.17" rx="2.39" fill="#231f20"/>
          </g>
          <rect x="569.81" y="197.6" width="11.6" height="55.17" rx="2.39" fill="#58595b"/>
        </g>
        <g>
          <g opacity="0.75" style="mix-blend-mode: multiply">
            <rect x="523.95" y="203.27" width="11.6" height="55.17" rx="2.39" fill="#3f397b"/>
          </g>
          <rect x="523.95" y="197.6" width="11.6" height="55.17" rx="2.39" fill="#5450a2"/>
        </g>
        <g>
          <g opacity="0.75" style="mix-blend-mode: multiply">
            <rect x="547" y="203.27" width="11.6" height="55.17" rx="2.39" fill="#b21f68"/>
          </g>
          <rect x="547" y="197.6" width="11.6" height="55.17" rx="2.39" fill="#ee328a"/>
        </g>
        <rect x="554.11" y="314.59" width="20.23" height="96.17" rx="4.17" fill="#ee342e"/>
        <rect x="577.17" y="314.59" width="20.23" height="96.17" rx="4.17" fill="#bcbec0"/>
        <g>
          <g opacity="0.75" style="mix-blend-mode: multiply">
            <rect x="569.81" y="320.26" width="11.6" height="55.17" rx="2.39" fill="#b6611c"/>
          </g>
          <rect x="569.81" y="314.59" width="11.6" height="55.17" rx="2.39" fill="#f5832b"/>
        </g>
        <rect x="438.83" y="314.59" width="20.23" height="96.17" rx="4.17" fill="#87c540"/>
        <rect x="461.88" y="314.59" width="20.23" height="96.17" rx="4.17" fill="#68c073"/>
        <rect x="484.94" y="314.59" width="20.23" height="96.17" rx="4.17" fill="#bcbec0"/>
        <rect x="508" y="314.59" width="20.23" height="96.17" rx="4.17" fill="#2356a7"/>
        <rect x="531.05" y="314.59" width="20.23" height="96.17" rx="4.17" fill="#9f59a3"/>
        <g>
          <g opacity="0.75" style="mix-blend-mode: multiply">
            <rect x="454.8" y="320.26" width="11.6" height="55.17" rx="2.39" fill="#231f20"/>
          </g>
          <rect x="454.8" y="314.59" width="11.6" height="55.17" rx="2.39" fill="#58595b"/>
        </g>
        <g>
          <g opacity="0.75" style="mix-blend-mode: multiply">
            <rect x="477.86" y="320.26" width="11.6" height="55.17" rx="2.39" fill="#4698a4"/>
          </g>
          <rect x="477.86" y="314.59" width="11.6" height="55.17" rx="2.39" fill="#5ec8d8"/>
        </g>
        <g>
          <g opacity="0.75" style="mix-blend-mode: multiply">
            <rect x="523.95" y="320.26" width="11.6" height="55.17" rx="2.39" fill="#231f20"/>
          </g>
          <rect x="523.95" y="314.59" width="11.6" height="55.17" rx="2.39" fill="#58595b"/>
        </g>
        <g>
          <g opacity="0.75" style="mix-blend-mode: multiply">
            <rect x="547" y="320.26" width="11.6" height="55.17" rx="2.39" fill="#231f20"/>
          </g>
          <rect x="547" y="314.59" width="11.6" height="55.17" rx="2.39" fill="#58595b"/>
        </g>
        <rect x="554.11" y="431.58" width="20.23" height="96.17" rx="4.17" fill="#bcbec0"/>
        <rect x="577.17" y="431.58" width="20.23" height="96.17" rx="4.17" fill="#eee824"/>
        <g>
          <g opacity="0.75" style="mix-blend-mode: multiply">
            <rect x="569.81" y="437.25" width="11.6" height="55.17" rx="2.39" fill="#b6611c"/>
          </g>
          <rect x="569.81" y="431.58" width="11.6" height="55.17" rx="2.39" fill="#f5832b"/>
        </g>
        <rect x="438.83" y="431.58" width="20.23" height="96.17" rx="4.17" fill="#bcbec0"/>
        <rect x="461.88" y="431.58" width="20.23" height="96.17" rx="4.17" fill="#bcbec0"/>
        <rect x="484.94" y="431.58" width="20.23" height="96.17" rx="4.17" fill="#3976bb"/>
        <rect x="508" y="431.58" width="20.23" height="96.17" rx="4.17" fill="#bcbec0"/>
        <rect x="531.05" y="431.58" width="20.23" height="96.17" rx="4.17" fill="#bcbec0"/>
        <g>
          <g opacity="0.75" style="mix-blend-mode: multiply">
            <rect x="454.8" y="437.25" width="11.6" height="55.17" rx="2.39" fill="#468e34"/>
          </g>
          <rect x="454.8" y="431.58" width="11.6" height="55.17" rx="2.39" fill="#64bc46"/>
        </g>
        <g>
          <g opacity="0.75" style="mix-blend-mode: multiply">
            <rect x="477.86" y="437.25" width="11.6" height="55.17" rx="2.39" fill="#4698a4"/>
          </g>
          <rect x="477.86" y="431.58" width="11.6" height="55.17" rx="2.39" fill="#5ec8d8"/>
        </g>
        <g>
          <g opacity="0.75" style="mix-blend-mode: multiply">
            <rect x="523.95" y="437.25" width="11.6" height="55.17" rx="2.39" fill="#3f397b"/>
          </g>
          <rect x="523.95" y="431.58" width="11.6" height="55.17" rx="2.39" fill="#5450a2"/>
        </g>
        <g>
          <g opacity="0.75" style="mix-blend-mode: multiply">
            <rect x="547" y="437.25" width="11.6" height="55.17" rx="2.39" fill="#b21f68"/>
          </g>
          <rect x="547" y="431.58" width="11.6" height="55.17" rx="2.39" fill="#ee328a"/>
        </g>
        <rect x="554.11" y="548.57" width="20.23" height="96.17" rx="4.17" fill="#ee342e"/>
        <rect x="577.17" y="548.57" width="20.23" height="96.17" rx="4.17" fill="#eee824"/>
        <g>
          <g opacity="0.75" style="mix-blend-mode: multiply">
            <rect x="569.81" y="554.23" width="11.6" height="55.17" rx="2.39" fill="#231f20"/>
          </g>
          <rect x="569.81" y="548.57" width="11.6" height="55.17" rx="2.39" fill="#58595b"/>
        </g>
        <rect x="438.83" y="548.57" width="20.23" height="96.17" rx="4.17" fill="#87c540"/>
        <rect x="461.88" y="548.57" width="20.23" height="96.17" rx="4.17" fill="#68c073"/>
        <rect x="484.94" y="548.57" width="20.23" height="96.17" rx="4.17" fill="#3976bb"/>
        <rect x="508" y="548.57" width="20.23" height="96.17" rx="4.17" fill="#2356a7"/>
        <rect x="531.05" y="548.57" width="20.23" height="96.17" rx="4.17" fill="#9f59a3"/>
        <g>
          <g opacity="0.75" style="mix-blend-mode: multiply">
            <rect x="454.8" y="554.23" width="11.6" height="55.17" rx="2.39" fill="#231f20"/>
          </g>
          <rect x="454.8" y="548.57" width="11.6" height="55.17" rx="2.39" fill="#58595b"/>
        </g>
        <g>
          <g opacity="0.75" style="mix-blend-mode: multiply">
            <rect x="477.86" y="554.23" width="11.6" height="55.17" rx="2.39" fill="#231f20"/>
          </g>
          <rect x="477.86" y="548.57" width="11.6" height="55.17" rx="2.39" fill="#58595b"/>
        </g>
        <g>
          <g opacity="0.75" style="mix-blend-mode: multiply">
            <rect x="523.95" y="554.23" width="11.6" height="55.17" rx="2.39" fill="#231f20"/>
          </g>
          <rect x="523.95" y="548.57" width="11.6" height="55.17" rx="2.39" fill="#58595b"/>
        </g>
        <g>
          <g opacity="0.75" style="mix-blend-mode: multiply">
            <rect x="547" y="554.23" width="11.6" height="55.17" rx="2.39" fill="#231f20"/>
          </g>
          <rect x="547" y="548.57" width="11.6" height="55.17" rx="2.39" fill="#58595b"/>
        </g>
        <rect x="554.11" y="665.55" width="20.23" height="96.17" rx="4.17" fill="#bcbec0"/>
        <rect x="577.17" y="665.55" width="20.23" height="96.17" rx="4.17" fill="#bcbec0"/>
        <g>
          <g opacity="0.75" style="mix-blend-mode: multiply">
            <rect x="569.81" y="671.22" width="11.6" height="55.17" rx="2.39" fill="#b6611c"/>
          </g>
          <rect x="569.81" y="665.55" width="11.6" height="55.17" rx="2.39" fill="#f5832b"/>
        </g>
        <rect x="438.83" y="665.55" width="20.23" height="96.17" rx="4.17" fill="#87c540"/>
        <rect x="461.88" y="665.55" width="20.23" height="96.17" rx="4.17" fill="#bcbec0"/>
        <rect x="484.94" y="665.55" width="20.23" height="96.17" rx="4.17" fill="#bcbec0"/>
        <rect x="508" y="665.55" width="20.23" height="96.17" rx="4.17" fill="#2356a7"/>
        <rect x="531.05" y="665.55" width="20.23" height="96.17" rx="4.17" fill="#bcbec0"/>
        <g>
          <g opacity="0.75" style="mix-blend-mode: multiply">
            <rect x="454.8" y="671.22" width="11.6" height="55.17" rx="2.39" fill="#468e34"/>
          </g>
          <rect x="454.8" y="665.55" width="11.6" height="55.17" rx="2.39" fill="#64bc46"/>
        </g>
        <g>
          <g opacity="0.75" style="mix-blend-mode: multiply">
            <rect x="477.86" y="671.22" width="11.6" height="55.17" rx="2.39" fill="#4698a4"/>
          </g>
          <rect x="477.86" y="665.55" width="11.6" height="55.17" rx="2.39" fill="#5ec8d8"/>
        </g>
        <g>
          <g opacity="0.75" style="mix-blend-mode: multiply">
            <rect x="523.95" y="671.22" width="11.6" height="55.17" rx="2.39" fill="#3f397b"/>
          </g>
          <rect x="523.95" y="665.55" width="11.6" height="55.17" rx="2.39" fill="#5450a2"/>
        </g>
        <g>
          <g opacity="0.75" style="mix-blend-mode: multiply">
            <rect x="547" y="671.22" width="11.6" height="55.17" rx="2.39" fill="#b21f68"/>
          </g>
          <rect x="547" y="665.55" width="11.6" height="55.17" rx="2.39" fill="#ee328a"/>
        </g>
        <rect x="554.11" y="782.54" width="20.23" height="96.17" rx="4.17" fill="#ee342e"/>
        <rect x="577.17" y="782.54" width="20.23" height="96.17" rx="4.17" fill="#eee824"/>
        <g>
          <g opacity="0.75" style="mix-blend-mode: multiply">
            <rect x="569.81" y="788.21" width="11.6" height="55.17" rx="2.39" fill="#231f20"/>
          </g>
          <rect x="569.81" y="782.54" width="11.6" height="55.17" rx="2.39" fill="#58595b"/>
        </g>
        <rect x="438.83" y="782.54" width="20.23" height="96.17" rx="4.17" fill="#bcbec0"/>
        <rect x="461.88" y="782.54" width="20.23" height="96.17" rx="4.17" fill="#68c073"/>
        <rect x="484.94" y="782.54" width="20.23" height="96.17" rx="4.17" fill="#3976bb"/>
        <rect x="508" y="782.54" width="20.23" height="96.17" rx="4.17" fill="#bcbec0"/>
        <rect x="531.05" y="782.54" width="20.23" height="96.17" rx="4.17" fill="#9f59a3"/>
        <g>
          <g opacity="0.75" style="mix-blend-mode: multiply">
            <rect x="454.8" y="788.21" width="11.6" height="55.17" rx="2.39" fill="#468e34"/>
          </g>
          <rect x="454.8" y="782.54" width="11.6" height="55.17" rx="2.39" fill="#64bc46"/>
        </g>
        <g>
          <g opacity="0.75" style="mix-blend-mode: multiply">
            <rect x="477.86" y="788.21" width="11.6" height="55.17" rx="2.39" fill="#231f20"/>
          </g>
          <rect x="477.86" y="782.54" width="11.6" height="55.17" rx="2.39" fill="#58595b"/>
        </g>
        <g>
          <g opacity="0.75" style="mix-blend-mode: multiply">
            <rect x="523.95" y="788.21" width="11.6" height="55.17" rx="2.39" fill="#3f397b"/>
          </g>
          <rect x="523.95" y="782.54" width="11.6" height="55.17" rx="2.39" fill="#5450a2"/>
        </g>
        <g>
          <g opacity="0.75" style="mix-blend-mode: multiply">
            <rect x="547" y="788.21" width="11.6" height="55.17" rx="2.39" fill="#231f20"/>
          </g>
          <rect x="547" y="782.54" width="11.6" height="55.17" rx="2.39" fill="#58595b"/>
        </g>
        <rect x="554.11" y="899.53" width="20.23" height="96.17" rx="4.17" fill="#bcbec0"/>
        <rect x="577.17" y="899.53" width="20.23" height="96.17" rx="4.17" fill="#bcbec0"/>
        <g>
          <g opacity="0.75" style="mix-blend-mode: multiply">
            <rect x="569.81" y="905.2" width="11.6" height="55.17" rx="2.39" fill="#b6611c"/>
          </g>
          <rect x="569.81" y="899.53" width="11.6" height="55.17" rx="2.39" fill="#f5832b"/>
        </g>
        <rect x="438.83" y="899.53" width="20.23" height="96.17" rx="4.17" fill="#87c540"/>
        <rect x="461.88" y="899.53" width="20.23" height="96.17" rx="4.17" fill="#68c073"/>
        <rect x="484.94" y="899.53" width="20.23" height="96.17" rx="4.17" fill="#bcbec0"/>
        <rect x="508" y="899.53" width="20.23" height="96.17" rx="4.17" fill="#2356a7"/>
        <rect x="531.05" y="899.53" width="20.23" height="96.17" rx="4.17" fill="#9f59a3"/>
        <g>
          <g opacity="0.75" style="mix-blend-mode: multiply">
            <rect x="454.8" y="905.2" width="11.6" height="55.17" rx="2.39" fill="#231f20"/>
          </g>
          <rect x="454.8" y="899.53" width="11.6" height="55.17" rx="2.39" fill="#58595b"/>
        </g>
        <g>
          <g opacity="0.75" style="mix-blend-mode: multiply">
            <rect x="477.86" y="905.2" width="11.6" height="55.17" rx="2.39" fill="#4698a4"/>
          </g>
          <rect x="477.86" y="899.53" width="11.6" height="55.17" rx="2.39" fill="#5ec8d8"/>
        </g>
        <g>
          <g opacity="0.75" style="mix-blend-mode: multiply">
            <rect x="523.95" y="905.2" width="11.6" height="55.17" rx="2.39" fill="#231f20"/>
          </g>
          <rect x="523.95" y="899.53" width="11.6" height="55.17" rx="2.39" fill="#58595b"/>
        </g>
        <g>
          <g opacity="0.75" style="mix-blend-mode: multiply">
            <rect x="547" y="905.2" width="11.6" height="55.17" rx="2.39" fill="#b21f68"/>
          </g>
          <rect x="547" y="899.53" width="11.6" height="55.17" rx="2.39" fill="#ee328a"/>
        </g>
        <rect x="554.11" y="1016.52" width="20.23" height="96.17" rx="4.17" fill="#ee342e"/>
        <rect x="577.17" y="1016.52" width="20.23" height="96.17" rx="4.17" fill="#eee824"/>
        <g>
          <g opacity="0.75" style="mix-blend-mode: multiply">
            <rect x="569.81" y="1022.19" width="11.6" height="55.17" rx="2.39" fill="#231f20"/>
          </g>
          <rect x="569.81" y="1016.52" width="11.6" height="55.17" rx="2.39" fill="#58595b"/>
        </g>
        <rect x="438.83" y="1016.52" width="20.23" height="96.17" rx="4.17" fill="#bcbec0"/>
        <rect x="461.88" y="1016.52" width="20.23" height="96.17" rx="4.17" fill="#bcbec0"/>
        <rect x="484.94" y="1016.52" width="20.23" height="96.17" rx="4.17" fill="#3976bb"/>
        <rect x="508" y="1016.52" width="20.23" height="96.17" rx="4.17" fill="#bcbec0"/>
        <rect x="531.05" y="1016.52" width="20.23" height="96.17" rx="4.17" fill="#bcbec0"/>
        <g>
          <g opacity="0.75" style="mix-blend-mode: multiply">
            <rect x="454.8" y="1022.19" width="11.6" height="55.17" rx="2.39" fill="#468e34"/>
          </g>
          <rect x="454.8" y="1016.52" width="11.6" height="55.17" rx="2.39" fill="#64bc46"/>
        </g>
        <g>
          <g opacity="0.75" style="mix-blend-mode: multiply">
            <rect x="477.86" y="1022.19" width="11.6" height="55.17" rx="2.39" fill="#4698a4"/>
          </g>
          <rect x="477.86" y="1016.52" width="11.6" height="55.17" rx="2.39" fill="#5ec8d8"/>
        </g>
        <g>
          <g opacity="0.75" style="mix-blend-mode: multiply">
            <rect x="523.95" y="1022.19" width="11.6" height="55.17" rx="2.39" fill="#3f397b"/>
          </g>
          <rect x="523.95" y="1016.52" width="11.6" height="55.17" rx="2.39" fill="#5450a2"/>
        </g>
        <g>
          <g opacity="0.75" style="mix-blend-mode: multiply">
            <rect x="547" y="1022.19" width="11.6" height="55.17" rx="2.39" fill="#b21f68"/>
          </g>
          <rect x="547" y="1016.52" width="11.6" height="55.17" rx="2.39" fill="#ee328a"/>
        </g>
        <rect x="554.11" y="1133.5" width="20.23" height="96.17" rx="4.17" fill="#ee342e"/>
        <rect x="577.17" y="1133.5" width="20.23" height="96.17" rx="4.17" fill="#bcbec0"/>
        <g>
          <g opacity="0.75" style="mix-blend-mode: multiply">
            <rect x="569.81" y="1139.17" width="11.6" height="55.17" rx="2.39" fill="#b6611c"/>
          </g>
          <rect x="569.81" y="1133.5" width="11.6" height="55.17" rx="2.39" fill="#f5832b"/>
        </g>
        <rect x="438.83" y="1133.5" width="20.23" height="96.17" rx="4.17" fill="#87c540"/>
        <rect x="461.88" y="1133.5" width="20.23" height="96.17" rx="4.17" fill="#68c073"/>
        <rect x="484.94" y="1133.5" width="20.23" height="96.17" rx="4.17" fill="#3976bb"/>
        <rect x="508" y="1133.5" width="20.23" height="96.17" rx="4.17" fill="#2356a7"/>
        <rect x="531.05" y="1133.5" width="20.23" height="96.17" rx="4.17" fill="#9f59a3"/>
        <g>
          <g opacity="0.75" style="mix-blend-mode: multiply">
            <rect x="454.8" y="1139.17" width="11.6" height="55.17" rx="2.39" fill="#231f20"/>
          </g>
          <rect x="454.8" y="1133.5" width="11.6" height="55.17" rx="2.39" fill="#58595b"/>
        </g>
        <g>
          <g opacity="0.75" style="mix-blend-mode: multiply">
            <rect x="477.86" y="1139.17" width="11.6" height="55.17" rx="2.39" fill="#231f20"/>
          </g>
          <rect x="477.86" y="1133.5" width="11.6" height="55.17" rx="2.39" fill="#58595b"/>
        </g>
        <g>
          <g opacity="0.75" style="mix-blend-mode: multiply">
            <rect x="523.95" y="1139.17" width="11.6" height="55.17" rx="2.39" fill="#231f20"/>
          </g>
          <rect x="523.95" y="1133.5" width="11.6" height="55.17" rx="2.39" fill="#58595b"/>
        </g>
        <g>
          <g opacity="0.75" style="mix-blend-mode: multiply">
            <rect x="547" y="1139.17" width="11.6" height="55.17" rx="2.39" fill="#231f20"/>
          </g>
          <rect x="547" y="1133.5" width="11.6" height="55.17" rx="2.39" fill="#58595b"/>
        </g>
        <rect x="554.11" y="1250.49" width="20.23" height="96.17" rx="4.17" fill="#bcbec0"/>
        <rect x="577.17" y="1250.49" width="20.23" height="96.17" rx="4.17" fill="#eee824"/>
        <g>
          <g opacity="0.75" style="mix-blend-mode: multiply">
            <rect x="569.81" y="1256.16" width="11.6" height="55.17" rx="2.39" fill="#b6611c"/>
          </g>
          <rect x="569.81" y="1250.49" width="11.6" height="55.17" rx="2.39" fill="#f5832b"/>
        </g>
        <rect x="438.83" y="1250.49" width="20.23" height="96.17" rx="4.17" fill="#bcbec0"/>
        <rect x="461.88" y="1250.49" width="20.23" height="96.17" rx="4.17" fill="#bcbec0"/>
        <rect x="484.94" y="1250.49" width="20.23" height="96.17" rx="4.17" fill="#bcbec0"/>
        <rect x="508" y="1250.49" width="20.23" height="96.17" rx="4.17" fill="#2356a7"/>
        <rect x="531.05" y="1250.49" width="20.23" height="96.17" rx="4.17" fill="#bcbec0"/>
        <g>
          <g opacity="0.75" style="mix-blend-mode: multiply">
            <rect x="454.8" y="1256.16" width="11.6" height="55.17" rx="2.39" fill="#468e34"/>
          </g>
          <rect x="454.8" y="1250.49" width="11.6" height="55.17" rx="2.39" fill="#64bc46"/>
        </g>
        <g>
          <g opacity="0.75" style="mix-blend-mode: multiply">
            <rect x="477.86" y="1256.16" width="11.6" height="55.17" rx="2.39" fill="#4698a4"/>
          </g>
          <rect x="477.86" y="1250.49" width="11.6" height="55.17" rx="2.39" fill="#5ec8d8"/>
        </g>
        <g>
          <g opacity="0.75" style="mix-blend-mode: multiply">
            <rect x="523.95" y="1256.16" width="11.6" height="55.17" rx="2.39" fill="#3f397b"/>
          </g>
          <rect x="523.95" y="1250.49" width="11.6" height="55.17" rx="2.39" fill="#5450a2"/>
        </g>
        <g>
          <g opacity="0.75" style="mix-blend-mode: multiply">
            <rect x="547" y="1256.16" width="11.6" height="55.17" rx="2.39" fill="#b21f68"/>
          </g>
          <rect x="547" y="1250.49" width="11.6" height="55.17" rx="2.39" fill="#ee328a"/>
        </g>
        <rect x="554.11" y="1367.48" width="20.23" height="96.17" rx="4.17" fill="#ee342e"/>
        <rect x="577.17" y="1367.48" width="20.23" height="96.17" rx="4.17" fill="#eee824"/>
        <g>
          <g opacity="0.75" style="mix-blend-mode: multiply">
            <rect x="569.81" y="1373.15" width="11.6" height="55.17" rx="2.39" fill="#231f20"/>
          </g>
          <rect x="569.81" y="1367.48" width="11.6" height="55.17" rx="2.39" fill="#58595b"/>
        </g>
        <rect x="438.83" y="1367.48" width="20.23" height="96.17" rx="4.17" fill="#87c540"/>
        <rect x="461.88" y="1367.48" width="20.23" height="96.17" rx="4.17" fill="#68c073"/>
        <rect x="484.94" y="1367.48" width="20.23" height="96.17" rx="4.17" fill="#3976bb"/>
        <rect x="508" y="1367.48" width="20.23" height="96.17" rx="4.17" fill="#bcbec0"/>
        <rect x="531.05" y="1367.48" width="20.23" height="96.17" rx="4.17" fill="#9f59a3"/>
        <g>
          <g opacity="0.75" style="mix-blend-mode: multiply">
            <rect x="454.8" y="1373.15" width="11.6" height="55.17" rx="2.39" fill="#231f20"/>
          </g>
          <rect x="454.8" y="1367.48" width="11.6" height="55.17" rx="2.39" fill="#58595b"/>
        </g>
        <g>
          <g opacity="0.75" style="mix-blend-mode: multiply">
            <rect x="477.86" y="1373.15" width="11.6" height="55.17" rx="2.39" fill="#231f20"/>
          </g>
          <rect x="477.86" y="1367.48" width="11.6" height="55.17" rx="2.39" fill="#58595b"/>
        </g>
        <g>
          <g opacity="0.75" style="mix-blend-mode: multiply">
            <rect x="523.95" y="1373.15" width="11.6" height="55.17" rx="2.39" fill="#3f397b"/>
          </g>
          <rect x="523.95" y="1367.48" width="11.6" height="55.17" rx="2.39" fill="#5450a2"/>
        </g>
        <g>
          <g opacity="0.75" style="mix-blend-mode: multiply">
            <rect x="547" y="1373.15" width="11.6" height="55.17" rx="2.39" fill="#231f20"/>
          </g>
          <rect x="547" y="1367.48" width="11.6" height="55.17" rx="2.39" fill="#58595b"/>
        </g>
        <rect x="554.11" y="1484.47" width="20.23" height="96.17" rx="4.17" fill="#bcbec0"/>
        <rect x="577.17" y="1484.47" width="20.23" height="96.17" rx="4.17" fill="#bcbec0"/>
        <g>
          <g opacity="0.75" style="mix-blend-mode: multiply">
            <rect x="569.81" y="1490.14" width="11.6" height="55.17" rx="2.39" fill="#b6611c"/>
          </g>
          <rect x="569.81" y="1484.47" width="11.6" height="55.17" rx="2.39" fill="#f5832b"/>
        </g>
        <rect x="438.83" y="1484.47" width="20.23" height="96.17" rx="4.17" fill="#87c540"/>
        <rect x="461.88" y="1484.47" width="20.23" height="96.17" rx="4.17" fill="#bcbec0"/>
        <rect x="484.94" y="1484.47" width="20.23" height="96.17" rx="4.17" fill="#bcbec0"/>
        <rect x="508" y="1484.47" width="20.23" height="96.17" rx="4.17" fill="#2356a7"/>
        <rect x="531.05" y="1484.47" width="20.23" height="96.17" rx="4.17" fill="#9f59a3"/>
        <g>
          <g opacity="0.75" style="mix-blend-mode: multiply">
            <rect x="454.8" y="1490.14" width="11.6" height="55.17" rx="2.39" fill="#468e34"/>
          </g>
          <rect x="454.8" y="1484.47" width="11.6" height="55.17" rx="2.39" fill="#64bc46"/>
        </g>
        <g>
          <g opacity="0.75" style="mix-blend-mode: multiply">
            <rect x="477.86" y="1490.14" width="11.6" height="55.17" rx="2.39" fill="#4698a4"/>
          </g>
          <rect x="477.86" y="1484.47" width="11.6" height="55.17" rx="2.39" fill="#5ec8d8"/>
        </g>
        <g>
          <g opacity="0.75" style="mix-blend-mode: multiply">
            <rect x="523.95" y="1490.14" width="11.6" height="55.17" rx="2.39" fill="#231f20"/>
          </g>
          <rect x="523.95" y="1484.47" width="11.6" height="55.17" rx="2.39" fill="#58595b"/>
        </g>
        <g>
          <g opacity="0.75" style="mix-blend-mode: multiply">
            <rect x="547" y="1490.14" width="11.6" height="55.17" rx="2.39" fill="#b21f68"/>
          </g>
          <rect x="547" y="1484.47" width="11.6" height="55.17" rx="2.39" fill="#ee328a"/>
        </g>
        <text transform="translate(619.53 176.27)" font-size="30.29" fill="#fff" font-family="OpenSans, Open Sans">Minor</text>
        <text transform="translate(336.59 176.27)" font-size="30.29" fill="#fff" font-family="OpenSans, Open Sans">Major</text>
        <text transform="translate(273.4 176.27)" font-size="30.29" fill="#fff" font-family="OpenSans, Open Sans">4</text>
        <text transform="translate(770.66 176.27)" font-size="30.29" fill="#fff" font-family="OpenSans, Open Sans">4</text>
        <text transform="translate(176.75 176.27)" font-size="30.29" fill="#fff" font-family="OpenSans, Open Sans">5</text>
        <text transform="translate(861.27 176.27)" font-size="30.29" fill="#fff" font-family="OpenSans, Open Sans">5</text>
        <text transform="translate(976.27 176.27)" font-size="30.29" fill="#fff" font-family="OpenSans, Open Sans">7</text>
        <g>
          <g>
            <circle cx="376.53" cy="599.38" r="30.9" fill="#87c540"/>
            <path d="M381.47,593.76a4.89,4.89,0,0,0-1.11-1.25,5,5,0,0,0-1.5-.84,5.11,5.11,0,0,0-1.75-.3,5.82,5.82,0,0,0-2.84.65,5.27,5.27,0,0,0-1.89,1.74,7.42,7.42,0,0,0-1.06,2.47,12.47,12.47,0,0,0-.33,2.88,11.46,11.46,0,0,0,.33,2.76,7.29,7.29,0,0,0,1.06,2.41,5.43,5.43,0,0,0,1.89,1.73,5.81,5.81,0,0,0,2.84.64,4.56,4.56,0,0,0,3.55-1.39,6.35,6.35,0,0,0,1.57-3.66H387a11.73,11.73,0,0,1-1,3.82,9.1,9.1,0,0,1-2.09,2.91,8.78,8.78,0,0,1-3,1.83,11.13,11.13,0,0,1-3.82.63,11.6,11.6,0,0,1-4.66-.9,10,10,0,0,1-3.48-2.48,10.83,10.83,0,0,1-2.18-3.71,13.48,13.48,0,0,1-.76-4.59,13.94,13.94,0,0,1,.76-4.69,11.1,11.1,0,0,1,2.18-3.77,9.87,9.87,0,0,1,3.48-2.53,11.43,11.43,0,0,1,4.66-.91,11.28,11.28,0,0,1,3.52.53,9.57,9.57,0,0,1,3,1.56,8.62,8.62,0,0,1,2.16,2.55,9.06,9.06,0,0,1,1.08,3.47H382A4.18,4.18,0,0,0,381.47,593.76Z" fill="#fff"/>
          </g>
          <g>
            <circle cx="376.53" cy="715.65" r="30.9" fill="#64bc46"/>
            <g>
              <path d="M373.45,710a5.06,5.06,0,0,0-1.11-1.25,5.29,5.29,0,0,0-1.49-.83,5.21,5.21,0,0,0-1.76-.3,5.82,5.82,0,0,0-2.84.65,5.33,5.33,0,0,0-1.89,1.73,7.57,7.57,0,0,0-1.06,2.48,12.38,12.38,0,0,0-.33,2.87,11.6,11.6,0,0,0,.33,2.77,7.29,7.29,0,0,0,1.06,2.41,5.31,5.31,0,0,0,1.89,1.72,5.82,5.82,0,0,0,2.84.65,4.56,4.56,0,0,0,3.55-1.39,6.37,6.37,0,0,0,1.57-3.66H379a11.73,11.73,0,0,1-1,3.82,9.06,9.06,0,0,1-2.09,2.9,8.78,8.78,0,0,1-3,1.83,11.13,11.13,0,0,1-3.82.64,11.51,11.51,0,0,1-4.65-.9,9.94,9.94,0,0,1-3.49-2.48,10.83,10.83,0,0,1-2.18-3.71,13.5,13.5,0,0,1-.76-4.6,14,14,0,0,1,.76-4.69,11.2,11.2,0,0,1,2.18-3.77,9.91,9.91,0,0,1,3.49-2.52,12,12,0,0,1,8.17-.38,9.57,9.57,0,0,1,3,1.56,8.58,8.58,0,0,1,2.16,2.54,9.11,9.11,0,0,1,1.08,3.48H374A4.29,4.29,0,0,0,373.45,710Z" fill="#fff"/>
              <path d="M385.79,726.55v-5.18l-3.12.63v-2.93l3.12-.63v-4.93l-3.12.63v-2.93l3.12-.7v-4.92l1.3-.22v4.89l3.47-.79V704l1.33-.23v5.47l3.15-.67v3l-3.15.63v4.9l3.15-.6v2.93l-3.15.67v4.64l-1.33.25v-4.61l-3.47.82v5.21Zm1.3-8.43,3.47-.79v-4.92l-3.47.85Z" fill="#fff"/>
            </g>
          </g>
          <g>
            <circle cx="376.53" cy="831.91" r="30.9" fill="#68c073"/>
            <path d="M377.62,820.64a11.64,11.64,0,0,1,4.05.7,8.92,8.92,0,0,1,3.26,2.08,9.71,9.71,0,0,1,2.14,3.47,14,14,0,0,1,.78,4.9,15.56,15.56,0,0,1-.64,4.54,9.87,9.87,0,0,1-1.91,3.6,9,9,0,0,1-3.18,2.39,10.82,10.82,0,0,1-4.5.87h-9.73V820.64ZM377.27,839a6.4,6.4,0,0,0,2.08-.35,4.55,4.55,0,0,0,1.8-1.15,5.86,5.86,0,0,0,1.27-2.1,9.4,9.4,0,0,0,.47-3.16,13.22,13.22,0,0,0-.33-3.08,6.22,6.22,0,0,0-1.09-2.35,4.93,4.93,0,0,0-2-1.5,7.93,7.93,0,0,0-3.08-.52h-3.53V839Z" fill="#fff"/>
          </g>
          <g>
            <circle cx="376.53" cy="948.18" r="30.9" fill="#5ec8d8"/>
            <g>
              <path d="M370.42,936.54a11.41,11.41,0,0,1,4.05.7,8.72,8.72,0,0,1,3.26,2.08,9.53,9.53,0,0,1,2.14,3.47,14,14,0,0,1,.78,4.9,15.28,15.28,0,0,1-.64,4.54,9.87,9.87,0,0,1-1.91,3.6,8.82,8.82,0,0,1-3.18,2.38,10.82,10.82,0,0,1-4.5.87h-9.73V936.54Zm-.35,18.38a6.4,6.4,0,0,0,2.08-.35,4.55,4.55,0,0,0,1.8-1.15,5.86,5.86,0,0,0,1.27-2.1,9.44,9.44,0,0,0,.47-3.16,13.22,13.22,0,0,0-.33-3.08,6.22,6.22,0,0,0-1.09-2.35,4.93,4.93,0,0,0-2-1.5,7.91,7.91,0,0,0-3.07-.52h-3.54v14.21Z" fill="#fff"/>
              <path d="M387.5,959.08V953.9l-3.13.64V951.6l3.13-.63V946l-3.13.64v-2.94l3.13-.7v-4.92l1.29-.22v4.89l3.47-.79v-5.52l1.33-.22v5.46l3.16-.66v3l-3.16.64v4.89l3.16-.6v2.94l-3.16.66v4.64l-1.33.25v-4.61l-3.47.82v5.21Zm1.29-8.43,3.47-.79v-4.92l-3.47.85Z" fill="#fff"/>
            </g>
          </g>
          <g>
            <circle cx="376.53" cy="1064.45" r="30.9" fill="#3976bb"/>
            <path d="M384.3,1052.66v4.17H372.4v4.83h10.93v3.85H372.4V1071h12.16v4.17H367.45v-22.55Z" fill="#fff"/>
          </g>
          <g>
            <circle cx="376.53" cy="1180.71" r="30.9" fill="#2356a7"/>
            <path d="M384.45,1168.93v4.17H373.56v5.21H383v3.85h-9.44v9.31h-5v-22.54Z" fill="#fff"/>
          </g>
          <g>
            <circle cx="376.53" cy="1296.98" r="30.9" fill="#5450a2"/>
            <g>
              <path d="M376.69,1285.34v4.17h-10.9v5.21h9.44v3.85h-9.44v9.31h-5v-22.54Z" fill="#fff"/>
              <path d="M383,1307.88v-5.18l-3.13.63v-2.93l3.13-.63v-4.93l-3.13.63v-2.93l3.13-.7v-4.92l1.29-.22v4.89l3.48-.79v-5.52l1.32-.23v5.47l3.16-.67v3l-3.16.63v4.9l3.16-.6v2.93l-3.16.67V1306l-1.32.25v-4.61l-3.48.82v5.21Zm1.29-8.43,3.48-.79v-4.92l-3.48.85Z" fill="#fff"/>
            </g>
          </g>
          <g>
            <circle cx="376.53" cy="1413.25" r="30.9" fill="#9f59a3"/>
            <path d="M379.34,1423.85a8.35,8.35,0,0,1-3.25.68,11.56,11.56,0,0,1-4.66-.9,10,10,0,0,1-3.48-2.48,10.83,10.83,0,0,1-2.18-3.71,13.5,13.5,0,0,1-.76-4.6,14,14,0,0,1,.76-4.69,11.2,11.2,0,0,1,2.18-3.77,10,10,0,0,1,3.48-2.52,11.4,11.4,0,0,1,4.66-.92,10.83,10.83,0,0,1,3.36.52,9.57,9.57,0,0,1,2.94,1.53,8.55,8.55,0,0,1,2.16,2.5,8.27,8.27,0,0,1,1,3.41h-4.73a4.71,4.71,0,0,0-1.71-2.84,5,5,0,0,0-3.06-1,5.79,5.79,0,0,0-2.84.65,5.45,5.45,0,0,0-1.9,1.73,7.77,7.77,0,0,0-1.05,2.48,12.38,12.38,0,0,0-.33,2.87,11.6,11.6,0,0,0,.33,2.77,7.48,7.48,0,0,0,1.05,2.41,5.42,5.42,0,0,0,1.9,1.72,5.79,5.79,0,0,0,2.84.65,4.84,4.84,0,0,0,5.37-4.86h-5v-3.7h9.47V1424h-3.16l-.5-2.56A7.42,7.42,0,0,1,379.34,1423.85Z" fill="#fff"/>
          </g>
          <g>
            <circle cx="376.53" cy="250.58" r="30.9" fill="#ee342e"/>
            <path d="M379.12,239.31l8.43,22.54H382.4l-1.7-5h-8.43l-1.77,5h-5L374,239.31Zm.28,13.83-2.84-8.27h-.06l-2.94,8.27Z" fill="#fff"/>
          </g>
          <g>
            <circle cx="376.53" cy="366.85" r="30.9" fill="#f5832b"/>
            <g>
              <path d="M372.5,355.72l8.43,22.54h-5.15l-1.71-5h-8.43l-1.76,5h-5l8.52-22.54Zm.28,13.83-2.84-8.27h-.07l-2.93,8.27Z" fill="#fff"/>
              <path d="M386.29,378.26v-5.17l-3.12.63v-2.94l3.12-.63v-4.93l-3.12.64v-2.94l3.12-.69V357.3l1.3-.22V362l3.47-.79v-5.52l1.33-.22v5.46l3.15-.66v3l-3.15.63v4.89l3.15-.6v2.94l-3.15.66v4.64l-1.33.25V372l-3.47.82v5.21Zm1.3-8.43,3.47-.79v-4.92l-3.47.85Z" fill="#fff"/>
            </g>
          </g>
          <g>
            <circle cx="376.53" cy="483.12" r="30.9" fill="#eee824"/>
            <path d="M379.32,471.85a14,14,0,0,1,2.94.28,6.38,6.38,0,0,1,2.27.93,4.32,4.32,0,0,1,1.47,1.72,6,6,0,0,1,.52,2.65,4.93,4.93,0,0,1-.77,2.85,5.76,5.76,0,0,1-2.29,1.86,5.4,5.4,0,0,1,3.11,2.1,6.26,6.26,0,0,1,1,3.61,6.09,6.09,0,0,1-.67,2.95,5.67,5.67,0,0,1-1.78,2,7.78,7.78,0,0,1-2.56,1.17,11.64,11.64,0,0,1-2.95.38H368.72V471.85Zm-.63,9.12a3.57,3.57,0,0,0,2.18-.63,2.38,2.38,0,0,0,.85-2,2.64,2.64,0,0,0-.28-1.3,2.14,2.14,0,0,0-.76-.79,3.07,3.07,0,0,0-1.09-.39,6.63,6.63,0,0,0-1.28-.11h-4.64V481Zm.29,9.56a6.37,6.37,0,0,0,1.39-.14,3.38,3.38,0,0,0,1.17-.47,2.41,2.41,0,0,0,.8-.9,3.09,3.09,0,0,0,.3-1.45,2.92,2.92,0,0,0-1-2.48,4.19,4.19,0,0,0-2.59-.74h-5.4v6.18Z" fill="#fff"/>
          </g>
          <g>
            <circle cx="376.53" cy="1529.51" r="30.9" fill="#ee328a"/>
            <g>
              <path d="M372.06,1540.11a8.17,8.17,0,0,1-3.25.68,11.56,11.56,0,0,1-4.66-.9,9.91,9.91,0,0,1-3.49-2.48,11.06,11.06,0,0,1-2.18-3.71,13.72,13.72,0,0,1-.75-4.59,14.24,14.24,0,0,1,.75-4.69,11.44,11.44,0,0,1,2.18-3.77,9.9,9.9,0,0,1,3.49-2.53,11.4,11.4,0,0,1,4.66-.91,10.83,10.83,0,0,1,3.36.52,9.8,9.8,0,0,1,2.94,1.53,8.26,8.26,0,0,1,3.2,5.9h-4.73a4.78,4.78,0,0,0-1.71-2.84,5,5,0,0,0-3.06-.94,5.79,5.79,0,0,0-2.84.64,5.38,5.38,0,0,0-1.9,1.74,7.58,7.58,0,0,0-1.05,2.48,11.81,11.81,0,0,0-.34,2.87,11,11,0,0,0,.34,2.76,7.53,7.53,0,0,0,1.05,2.42A5.52,5.52,0,0,0,366,1536a5.79,5.79,0,0,0,2.84.65,4.85,4.85,0,0,0,5.37-4.87h-5v-3.69h9.47v12.19H375.5l-.5-2.56A7.44,7.44,0,0,1,372.06,1540.11Z" fill="#fff"/>
              <path d="M386.08,1540.29v-5.18l-3.13.63v-2.94l3.13-.63v-4.92l-3.13.63v-2.94l3.13-.69v-4.93l1.29-.22V1524l3.48-.78v-5.53l1.32-.22v5.46l3.16-.66v3l-3.16.63v4.89l3.16-.6v2.94l-3.16.66v4.64l-1.32.26v-4.61l-3.48.82v5.21Zm1.29-8.43,3.48-.79v-4.93l-3.48.85Z" fill="#fff"/>
            </g>
          </g>
        </g>
        <g>
          <g>
            <circle cx="282.9" cy="599.38" r="30.9" fill="#2356a7"/>
            <path d="M290.82,587.6v4.17H279.93V597h9.44v3.85h-9.44v9.31h-5V587.6Z" fill="#fff"/>
          </g>
          <g>
            <circle cx="282.9" cy="715.65" r="30.9" fill="#5450a2"/>
            <g>
              <path d="M283.06,704v4.17h-10.9v5.21h9.44v3.85h-9.44v9.31h-5V704Z" fill="#fff"/>
              <path d="M289.34,726.55v-5.18l-3.13.63v-2.93l3.13-.63v-4.93l-3.13.63v-2.93l3.13-.7v-4.92l1.29-.22v4.89l3.48-.79V704l1.32-.23v5.47l3.16-.67v3l-3.16.63v4.9l3.16-.6v2.93l-3.16.67v4.64l-1.32.25v-4.61l-3.48.82v5.21Zm1.29-8.43,3.48-.79v-4.92l-3.48.85Z" fill="#fff"/>
            </g>
          </g>
          <g>
            <circle cx="282.9" cy="831.91" r="30.9" fill="#9f59a3"/>
            <path d="M285.71,842.52a8.35,8.35,0,0,1-3.25.68,11.56,11.56,0,0,1-4.66-.91,9.84,9.84,0,0,1-3.48-2.47,10.93,10.93,0,0,1-2.18-3.71,13.5,13.5,0,0,1-.76-4.6,14,14,0,0,1,.76-4.69,11.2,11.2,0,0,1,2.18-3.77,10,10,0,0,1,3.48-2.52,11.4,11.4,0,0,1,4.66-.92,10.83,10.83,0,0,1,3.36.52,9.57,9.57,0,0,1,2.94,1.53,8.55,8.55,0,0,1,2.16,2.5,8.27,8.27,0,0,1,1,3.41h-4.73a4.71,4.71,0,0,0-1.71-2.84,4.9,4.9,0,0,0-3.06-1,5.79,5.79,0,0,0-2.84.64,5.57,5.57,0,0,0-1.9,1.74,7.67,7.67,0,0,0-1.05,2.48,12.38,12.38,0,0,0-.33,2.87,11.6,11.6,0,0,0,.33,2.77,7.48,7.48,0,0,0,1.05,2.41,5.42,5.42,0,0,0,1.9,1.72,5.79,5.79,0,0,0,2.84.65,4.84,4.84,0,0,0,5.37-4.86h-5v-3.7h9.47v12.19h-3.16l-.5-2.56A7.42,7.42,0,0,1,285.71,842.52Z" fill="#fff"/>
          </g>
          <g>
            <circle cx="282.9" cy="948.18" r="30.9" fill="#ee328a"/>
            <g>
              <path d="M278.43,958.78a8.17,8.17,0,0,1-3.25.68,11.56,11.56,0,0,1-4.66-.9,10,10,0,0,1-3.49-2.48,11.16,11.16,0,0,1-2.18-3.71,13.72,13.72,0,0,1-.75-4.59,14.24,14.24,0,0,1,.75-4.69,11.44,11.44,0,0,1,2.18-3.77,9.9,9.9,0,0,1,3.49-2.53,11.4,11.4,0,0,1,4.66-.91,10.83,10.83,0,0,1,3.36.52,9.58,9.58,0,0,1,2.94,1.53,8.26,8.26,0,0,1,3.2,5.9H280a4.78,4.78,0,0,0-1.71-2.84,5,5,0,0,0-3.06-.94,5.79,5.79,0,0,0-2.84.64,5.38,5.38,0,0,0-1.9,1.74,7.58,7.58,0,0,0-1.05,2.48,11.81,11.81,0,0,0-.34,2.87,11,11,0,0,0,.34,2.76,7.53,7.53,0,0,0,1.05,2.42,5.52,5.52,0,0,0,1.9,1.72,5.79,5.79,0,0,0,2.84.64,4.84,4.84,0,0,0,5.37-4.86h-5v-3.69H285V959h-3.16l-.5-2.56A7.44,7.44,0,0,1,278.43,958.78Z" fill="#fff"/>
              <path d="M292.45,959v-5.18l-3.13.63v-2.94l3.13-.63v-4.92l-3.13.63v-2.94l3.13-.69V938l1.29-.22v4.89l3.48-.79v-5.52l1.32-.22v5.46l3.16-.66v3l-3.16.63v4.89l3.16-.6v2.94l-3.16.66v4.64l-1.32.26v-4.61l-3.48.82v5.21Zm1.29-8.43,3.48-.79v-4.93l-3.48.85Z" fill="#fff"/>
            </g>
          </g>
          <g>
            <circle cx="282.9" cy="1064.45" r="30.9" fill="#ee342e"/>
            <path d="M285.49,1053.18l8.43,22.54h-5.15l-1.7-5h-8.43l-1.77,5h-5l8.52-22.54Zm.28,13.82-2.84-8.27h-.06l-2.94,8.27Z" fill="#fff"/>
          </g>
          <g>
            <circle cx="282.9" cy="1180.71" r="30.9" fill="#f5832b"/>
            <g>
              <path d="M278.87,1169.58l8.43,22.55h-5.15l-1.71-5H272l-1.76,5h-5l8.52-22.55Zm.28,13.83-2.84-8.27h-.07l-2.93,8.27Z" fill="#fff"/>
              <path d="M292.66,1192.13V1187l-3.12.63v-2.94l3.12-.63v-4.92l-3.12.63v-2.94l3.12-.69v-4.93l1.3-.22v4.89l3.47-.78v-5.53l1.33-.22v5.46l3.15-.66v3l-3.15.63v4.89l3.15-.6V1185l-3.15.66v4.64l-1.33.26v-4.61l-3.47.82v5.21Zm1.3-8.43,3.47-.79V1178l-3.47.85Z" fill="#fff"/>
            </g>
          </g>
          <g>
            <circle cx="282.9" cy="1296.98" r="30.9" fill="#eee824"/>
            <path d="M285.69,1285.71a14,14,0,0,1,2.94.28,6.38,6.38,0,0,1,2.27.93,4.38,4.38,0,0,1,1.47,1.72,6,6,0,0,1,.52,2.66,4.92,4.92,0,0,1-.77,2.84,5.68,5.68,0,0,1-2.29,1.86,5.4,5.4,0,0,1,3.11,2.1,6.27,6.27,0,0,1,1,3.62,6.12,6.12,0,0,1-.67,3,5.64,5.64,0,0,1-1.78,2,7.78,7.78,0,0,1-2.56,1.17,11.64,11.64,0,0,1-2.95.38H275.09v-22.54Zm-.63,9.12a3.57,3.57,0,0,0,2.18-.63,2.37,2.37,0,0,0,.85-2,2.64,2.64,0,0,0-.28-1.3,2.14,2.14,0,0,0-.76-.79,3.28,3.28,0,0,0-1.09-.39,7.53,7.53,0,0,0-1.28-.11H280v5.27Zm.29,9.57a7,7,0,0,0,1.39-.14,3.6,3.6,0,0,0,1.17-.48,2.41,2.41,0,0,0,.8-.9,3.09,3.09,0,0,0,.3-1.45,2.93,2.93,0,0,0-1-2.48,4.19,4.19,0,0,0-2.59-.74H280v6.19Z" fill="#fff"/>
          </g>
          <g>
            <circle cx="282.9" cy="1413.25" r="30.9" fill="#87c540"/>
            <path d="M287.84,1407.62a5.06,5.06,0,0,0-1.11-1.25,5,5,0,0,0-1.5-.83,5.11,5.11,0,0,0-1.75-.3,5.81,5.81,0,0,0-2.84.64,5.27,5.27,0,0,0-1.89,1.74,7.48,7.48,0,0,0-1.06,2.48,12.32,12.32,0,0,0-.33,2.87,11.46,11.46,0,0,0,.33,2.76,7.34,7.34,0,0,0,1.06,2.42,5.4,5.4,0,0,0,1.89,1.72,5.82,5.82,0,0,0,2.84.65,4.59,4.59,0,0,0,3.55-1.39,6.4,6.4,0,0,0,1.57-3.66h4.8a11.79,11.79,0,0,1-1,3.82,9.17,9.17,0,0,1-2.09,2.9,8.78,8.78,0,0,1-3,1.83,11.13,11.13,0,0,1-3.82.63,11.6,11.6,0,0,1-4.66-.9,9.87,9.87,0,0,1-3.48-2.48,10.74,10.74,0,0,1-2.18-3.71,13.48,13.48,0,0,1-.76-4.59,14,14,0,0,1,.76-4.69,11.1,11.1,0,0,1,2.18-3.77,10,10,0,0,1,3.48-2.53,11.43,11.43,0,0,1,4.66-.91,11.28,11.28,0,0,1,3.52.54,9.17,9.17,0,0,1,3,1.56,8.46,8.46,0,0,1,2.16,2.54,9.12,9.12,0,0,1,1.08,3.47h-4.8A4.18,4.18,0,0,0,287.84,1407.62Z" fill="#fff"/>
          </g>
          <g>
            <circle cx="282.9" cy="250.58" r="30.9" fill="#68c073"/>
            <path d="M284,239.31a11.64,11.64,0,0,1,4.05.7,8.8,8.8,0,0,1,3.26,2.08,9.71,9.71,0,0,1,2.14,3.47,14,14,0,0,1,.78,4.9,15.56,15.56,0,0,1-.64,4.54,9.87,9.87,0,0,1-1.91,3.6,9,9,0,0,1-3.18,2.39,10.82,10.82,0,0,1-4.5.86h-9.73V239.31Zm-.35,18.38a6.4,6.4,0,0,0,2.08-.35,4.55,4.55,0,0,0,1.8-1.15,5.86,5.86,0,0,0,1.27-2.1,9.4,9.4,0,0,0,.47-3.16,13.22,13.22,0,0,0-.33-3.08,6.22,6.22,0,0,0-1.09-2.35,4.93,4.93,0,0,0-2-1.5,7.93,7.93,0,0,0-3.08-.52h-3.53v14.21Z" fill="#fff"/>
          </g>
          <g>
            <circle cx="282.9" cy="366.85" r="30.9" fill="#5ec8d8"/>
            <g>
              <path d="M276.79,355.21a11.64,11.64,0,0,1,4,.69A8.86,8.86,0,0,1,284.1,358a9.53,9.53,0,0,1,2.14,3.47,14,14,0,0,1,.78,4.9,15.28,15.28,0,0,1-.64,4.54,9.87,9.87,0,0,1-1.91,3.6,8.93,8.93,0,0,1-3.18,2.38,10.82,10.82,0,0,1-4.5.87h-9.73V355.21Zm-.35,18.37a6.39,6.39,0,0,0,2.08-.34,4.47,4.47,0,0,0,1.8-1.16,5.73,5.73,0,0,0,1.27-2.09,9.44,9.44,0,0,0,.47-3.16,13.16,13.16,0,0,0-.33-3.08,6.15,6.15,0,0,0-1.09-2.35,4.85,4.85,0,0,0-2-1.5,7.91,7.91,0,0,0-3.07-.52H272v14.2Z" fill="#fff"/>
              <path d="M293.87,377.75v-5.18l-3.13.64v-2.94l3.13-.63v-4.93l-3.13.63v-2.93l3.13-.7v-4.92l1.29-.22v4.89l3.48-.79v-5.52l1.32-.22v5.46l3.16-.67v3l-3.16.64v4.89l3.16-.6v2.93l-3.16.67v4.64l-1.32.25v-4.61l-3.48.82v5.21Zm1.29-8.43,3.48-.79v-4.92l-3.48.85Z" fill="#fff"/>
            </g>
          </g>
          <g>
            <circle cx="282.9" cy="483.12" r="30.9" fill="#3976bb"/>
            <path d="M290.67,471.33v4.17h-11.9v4.83H289.7v3.85H278.77v5.53h12.16v4.17H273.82V471.33Z" fill="#fff"/>
          </g>
          <g>
            <circle cx="282.9" cy="1529.51" r="30.9" fill="#64bc46"/>
            <g>
              <path d="M279.82,1523.89a4.71,4.71,0,0,0-1.11-1.25,5.08,5.08,0,0,0-1.49-.84,5.21,5.21,0,0,0-1.76-.3,5.82,5.82,0,0,0-2.84.65,5.27,5.27,0,0,0-1.89,1.74,7.42,7.42,0,0,0-1.06,2.47,12.47,12.47,0,0,0-.33,2.88,11.52,11.52,0,0,0,.33,2.76,7.29,7.29,0,0,0,1.06,2.41,5.43,5.43,0,0,0,1.89,1.73,5.81,5.81,0,0,0,2.84.64,4.56,4.56,0,0,0,3.55-1.39,6.35,6.35,0,0,0,1.57-3.66h4.8a11.73,11.73,0,0,1-1,3.82,9.1,9.1,0,0,1-2.09,2.91,8.78,8.78,0,0,1-3,1.83,11.13,11.13,0,0,1-3.82.63,11.51,11.51,0,0,1-4.65-.9,9.94,9.94,0,0,1-3.49-2.48,10.83,10.83,0,0,1-2.18-3.71,13.48,13.48,0,0,1-.76-4.59,13.94,13.94,0,0,1,.76-4.69,11.1,11.1,0,0,1,2.18-3.77,9.81,9.81,0,0,1,3.49-2.53,12.17,12.17,0,0,1,8.17-.38,9.57,9.57,0,0,1,3,1.56,8.62,8.62,0,0,1,2.16,2.55,9.06,9.06,0,0,1,1.08,3.47h-4.8A4.18,4.18,0,0,0,279.82,1523.89Z" fill="#fff"/>
              <path d="M292.16,1540.41v-5.17l-3.12.63v-2.94l3.12-.63v-4.93L289,1528v-2.94l3.12-.69v-4.93l1.3-.22v4.89l3.47-.79v-5.52l1.33-.22v5.46l3.15-.66v3l-3.15.63v4.89l3.15-.6v2.94l-3.15.66v4.64l-1.33.25v-4.61l-3.47.82v5.22Zm1.3-8.43,3.47-.79v-4.92l-3.47.85Z" fill="#fff"/>
            </g>
          </g>
        </g>
        <g>
          <g>
            <circle cx="190.19" cy="599.38" r="30.9" fill="#9f59a3"/>
            <path d="M193,610a8.17,8.17,0,0,1-3.25.68,11.56,11.56,0,0,1-4.66-.9,9.91,9.91,0,0,1-3.49-2.48,11.06,11.06,0,0,1-2.18-3.71,13.72,13.72,0,0,1-.75-4.59,14.28,14.28,0,0,1,.75-4.69,11.44,11.44,0,0,1,2.18-3.77,10,10,0,0,1,3.49-2.53,11.4,11.4,0,0,1,4.66-.91,10.83,10.83,0,0,1,3.36.52,9.8,9.8,0,0,1,2.94,1.53,8.42,8.42,0,0,1,2.16,2.5,8.22,8.22,0,0,1,1,3.41h-4.73a4.78,4.78,0,0,0-1.71-2.85,5,5,0,0,0-3.06-.94,5.79,5.79,0,0,0-2.84.64,5.38,5.38,0,0,0-1.9,1.74,7.67,7.67,0,0,0-1,2.48,11.81,11.81,0,0,0-.34,2.87,11,11,0,0,0,.34,2.76,7.53,7.53,0,0,0,1,2.42,5.52,5.52,0,0,0,1.9,1.72,5.79,5.79,0,0,0,2.84.65,4.85,4.85,0,0,0,5.37-4.87h-5V598h9.47v12.19h-3.16l-.5-2.56A7.44,7.44,0,0,1,193,610Z" fill="#fff"/>
          </g>
          <g>
            <circle cx="190.19" cy="715.65" r="30.9" fill="#ee328a"/>
            <g>
              <path d="M185.72,726.25a8.35,8.35,0,0,1-3.25.68,11.56,11.56,0,0,1-4.66-.9,10,10,0,0,1-3.49-2.48,11,11,0,0,1-2.18-3.71,13.73,13.73,0,0,1-.76-4.59,14.19,14.19,0,0,1,.76-4.69,11.27,11.27,0,0,1,2.18-3.77,9.9,9.9,0,0,1,3.49-2.53,11.4,11.4,0,0,1,4.66-.92,10.93,10.93,0,0,1,3.36.53,9.21,9.21,0,0,1,2.93,1.53,8.27,8.27,0,0,1,2.17,2.49,8.47,8.47,0,0,1,1,3.41h-4.74a4.73,4.73,0,0,0-1.7-2.84,5,5,0,0,0-3.06-1,5.83,5.83,0,0,0-2.85.65,5.35,5.35,0,0,0-1.89,1.74,7.63,7.63,0,0,0-1.06,2.47,12.47,12.47,0,0,0-.33,2.88,11.52,11.52,0,0,0,.33,2.76,7.5,7.5,0,0,0,1.06,2.41,5.51,5.51,0,0,0,1.89,1.73,5.83,5.83,0,0,0,2.85.64,4.84,4.84,0,0,0,5.36-4.86h-5v-3.69h9.47v12.18h-3.16l-.51-2.55A7.43,7.43,0,0,1,185.72,726.25Z" fill="#fff"/>
              <path d="M199.74,726.42v-5.17l-3.13.63v-2.94l3.13-.63v-4.93l-3.13.64v-2.94l3.13-.69v-4.93l1.29-.22v4.89l3.47-.79v-5.52l1.33-.22v5.46l3.16-.66v3l-3.16.63v4.89l3.16-.6v2.94l-3.16.66v4.64l-1.33.25V720.2L201,721v5.21ZM201,718l3.47-.79v-4.92l-3.47.85Z" fill="#fff"/>
            </g>
          </g>
          <g>
            <circle cx="190.19" cy="831.91" r="30.9" fill="#ee342e"/>
            <path d="M192.77,820.64l8.43,22.55h-5.14l-1.71-5h-8.43l-1.76,5h-5l8.52-22.55Zm.29,13.83-2.84-8.27h-.07l-2.93,8.27Z" fill="#fff"/>
          </g>
          <g>
            <circle cx="190.19" cy="948.18" r="30.9" fill="#f5832b"/>
            <g>
              <path d="M186.15,937.05l8.43,22.54h-5.14l-1.71-5H179.3l-1.77,5h-5l8.52-22.54Zm.29,13.83-2.84-8.27h-.07l-2.93,8.27Z" fill="#fff"/>
              <path d="M200,959.59v-5.17l-3.13.63v-2.94l3.13-.63v-4.93l-3.13.64v-2.94l3.13-.69v-4.93l1.29-.22v4.89l3.48-.79V937l1.32-.22v5.46l3.16-.66v3l-3.16.63v4.89l3.16-.6v2.94l-3.16.66v4.64l-1.32.25v-4.6l-3.48.82v5.21Zm1.29-8.43,3.48-.78v-4.93l-3.48.85Z" fill="#fff"/>
            </g>
          </g>
          <g>
            <circle cx="190.19" cy="1064.45" r="30.9" fill="#eee824"/>
            <path d="M193,1053.18a14,14,0,0,1,2.94.28,6.38,6.38,0,0,1,2.27.93,4.4,4.4,0,0,1,1.47,1.72,6,6,0,0,1,.52,2.65,5,5,0,0,1-.77,2.85,5.76,5.76,0,0,1-2.29,1.86,5.44,5.44,0,0,1,3.11,2.1,6.91,6.91,0,0,1,.36,6.56,5.68,5.68,0,0,1-1.78,2,7.78,7.78,0,0,1-2.56,1.17,11.64,11.64,0,0,1-2.95.38H182.37v-22.54Zm-.63,9.12a3.57,3.57,0,0,0,2.18-.63,2.38,2.38,0,0,0,.85-2.05,2.64,2.64,0,0,0-.28-1.3,2.14,2.14,0,0,0-.76-.79,3.14,3.14,0,0,0-1.09-.39A6.7,6.7,0,0,0,192,1057h-4.64v5.27Zm.29,9.57a6.21,6.21,0,0,0,1.38-.15,3.23,3.23,0,0,0,1.17-.47,2.35,2.35,0,0,0,.81-.9,3.09,3.09,0,0,0,.3-1.45,2.92,2.92,0,0,0-1-2.48,4.21,4.21,0,0,0-2.59-.74h-5.4v6.19Z" fill="#fff"/>
          </g>
          <g>
            <circle cx="190.19" cy="1180.71" r="30.9" fill="#87c540"/>
            <path d="M195.13,1175.09a5.09,5.09,0,0,0-1.11-1.25,5,5,0,0,0-1.5-.84,5.15,5.15,0,0,0-1.75-.3,5.79,5.79,0,0,0-2.84.65,5.38,5.38,0,0,0-1.9,1.74,7.62,7.62,0,0,0-1.05,2.47,12.47,12.47,0,0,0-.34,2.88,11.46,11.46,0,0,0,.34,2.76,7.53,7.53,0,0,0,1.05,2.42,5.52,5.52,0,0,0,1.9,1.72,5.79,5.79,0,0,0,2.84.64,4.59,4.59,0,0,0,3.55-1.38,6.4,6.4,0,0,0,1.56-3.67h4.8a11.18,11.18,0,0,1-1,3.82,9.08,9.08,0,0,1-2.08,2.91,8.78,8.78,0,0,1-3,1.83,11.13,11.13,0,0,1-3.82.63,11.56,11.56,0,0,1-4.66-.9,10,10,0,0,1-3.49-2.48,11,11,0,0,1-2.17-3.71,13.48,13.48,0,0,1-.76-4.59,13.94,13.94,0,0,1,.76-4.69,11.25,11.25,0,0,1,2.17-3.77,9.9,9.9,0,0,1,3.49-2.53,11.4,11.4,0,0,1,4.66-.91,11.28,11.28,0,0,1,3.52.53,9.8,9.8,0,0,1,3,1.56,8.62,8.62,0,0,1,2.16,2.55,8.94,8.94,0,0,1,1.07,3.47H195.7A4.18,4.18,0,0,0,195.13,1175.09Z" fill="#fff"/>
          </g>
          <g>
            <circle cx="190.19" cy="1296.98" r="30.9" fill="#64bc46"/>
            <g>
              <path d="M187.11,1291.35a5.15,5.15,0,0,0-2.61-2.08,5.15,5.15,0,0,0-1.75-.3,5.79,5.79,0,0,0-2.84.65,5.45,5.45,0,0,0-1.9,1.73,7.77,7.77,0,0,0-1,2.48,12.47,12.47,0,0,0-.33,2.88,11.58,11.58,0,0,0,.33,2.76,7.48,7.48,0,0,0,1,2.41,5.42,5.42,0,0,0,1.9,1.72,5.79,5.79,0,0,0,2.84.65,4.56,4.56,0,0,0,3.55-1.39,6.44,6.44,0,0,0,1.57-3.66h4.79a11.48,11.48,0,0,1-1,3.82,9.22,9.22,0,0,1-2.09,2.9,8.78,8.78,0,0,1-3,1.83,10.9,10.9,0,0,1-3.82.64,11.56,11.56,0,0,1-4.66-.9,10,10,0,0,1-3.48-2.48,10.83,10.83,0,0,1-2.18-3.71,13.48,13.48,0,0,1-.76-4.59,13.94,13.94,0,0,1,.76-4.69,11.25,11.25,0,0,1,2.18-3.78,10,10,0,0,1,3.48-2.52,11.4,11.4,0,0,1,4.66-.92,11.28,11.28,0,0,1,3.52.54,9.57,9.57,0,0,1,3,1.56,8.58,8.58,0,0,1,2.16,2.54,9.11,9.11,0,0,1,1.08,3.48h-4.8A4.29,4.29,0,0,0,187.11,1291.35Z" fill="#fff"/>
              <path d="M199.45,1307.88v-5.18l-3.12.63v-2.93l3.12-.63v-4.93l-3.12.63v-2.93l3.12-.7v-4.92l1.3-.22v4.89l3.47-.79v-5.52l1.33-.23v5.47l3.15-.67v3l-3.15.63v4.9l3.15-.6v2.93l-3.15.67V1306l-1.33.25v-4.61l-3.47.82v5.21Zm1.3-8.43,3.47-.79v-4.92l-3.47.85Z" fill="#fff"/>
            </g>
          </g>
          <g>
            <circle cx="190.19" cy="1413.25" r="30.9" fill="#68c073"/>
            <path d="M191.27,1402a11.66,11.66,0,0,1,4.06.7,8.8,8.8,0,0,1,3.25,2.08,9.72,9.72,0,0,1,2.15,3.47,14,14,0,0,1,.77,4.9,15.57,15.57,0,0,1-.63,4.54,10,10,0,0,1-1.91,3.6,8.91,8.91,0,0,1-3.19,2.39,10.75,10.75,0,0,1-4.5.87h-9.72V1402Zm-.34,18.38A6.4,6.4,0,0,0,193,1420a4.58,4.58,0,0,0,1.8-1.15,5.71,5.71,0,0,0,1.26-2.1,9.1,9.1,0,0,0,.48-3.16,12.6,12.6,0,0,0-.34-3.07,6.25,6.25,0,0,0-1.08-2.36,4.93,4.93,0,0,0-2-1.5,8,8,0,0,0-3.08-.52h-3.53v14.21Z" fill="#fff"/>
          </g>
          <g>
            <circle cx="190.19" cy="250.58" r="30.9" fill="#3976bb"/>
            <path d="M198,238.8V243h-11.9v4.83H197v3.85H186.06v5.53h12.16v4.16H181.1V238.8Z" fill="#fff"/>
          </g>
          <g>
            <circle cx="190.19" cy="366.85" r="30.9" fill="#2356a7"/>
            <path d="M198.11,355.07v4.17H187.22v5.2h9.44v3.86h-9.44v9.31h-5V355.07Z" fill="#fff"/>
          </g>
          <g>
            <circle cx="190.19" cy="483.12" r="30.9" fill="#5450a2"/>
            <g>
              <path d="M190.34,471.48v4.16H179.45v5.21h9.44v3.86h-9.44V494h-5V471.48Z" fill="#fff"/>
              <path d="M196.63,494v-5.18l-3.13.63v-2.93l3.13-.64V481l-3.13.63v-2.94l3.13-.69v-4.93l1.29-.22v4.9l3.47-.79v-5.53l1.33-.22v5.46l3.16-.66v3l-3.16.63v4.89l3.16-.6v2.94l-3.16.66v4.65l-1.33.25V487.8l-3.47.82v5.21Zm1.29-8.43,3.47-.79v-4.93l-3.47.86Z" fill="#fff"/>
            </g>
          </g>
          <g>
            <circle cx="190.19" cy="1529.51" r="30.9" fill="#5ec8d8"/>
            <g>
              <path d="M184.07,1517.87a11.43,11.43,0,0,1,4.06.7,8.68,8.68,0,0,1,3.25,2.08,9.64,9.64,0,0,1,2.15,3.47,14,14,0,0,1,.77,4.9,15.62,15.62,0,0,1-.63,4.54,10,10,0,0,1-1.91,3.6,8.77,8.77,0,0,1-3.19,2.38,10.6,10.6,0,0,1-4.5.87h-9.72v-22.54Zm-.34,18.38a6.4,6.4,0,0,0,2.08-.35,4.69,4.69,0,0,0,1.8-1.15,5.71,5.71,0,0,0,1.26-2.1,9.18,9.18,0,0,0,.48-3.16,13.22,13.22,0,0,0-.33-3.08,6.37,6.37,0,0,0-1.09-2.35,4.93,4.93,0,0,0-2-1.5,8,8,0,0,0-3.08-.52h-3.53v14.21Z" fill="#fff"/>
              <path d="M201.15,1540.41v-5.17l-3.12.63v-2.94l3.12-.63v-4.93L198,1528v-2.94l3.12-.69v-4.93l1.3-.22v4.89l3.47-.79v-5.52l1.33-.22v5.46l3.16-.66v3l-3.16.63v4.89l3.16-.6v2.94l-3.16.66v4.64l-1.33.25v-4.61l-3.47.82v5.22Zm1.3-8.43,3.47-.79v-4.92l-3.47.85Z" fill="#fff"/>
            </g>
          </g>
        </g>
        <text transform="translate(474.61 176.27)" font-size="30.29" fill="#fff" font-family="OpenSans, Open Sans">Scales</text>
        <rect x="623.5" y="568.48" width="78.56" height="61.81" fill="#ee342e"/>
        <rect x="623.5" y="684.74" width="78.56" height="61.81" fill="#f5832b"/>
        <rect x="623.5" y="801.01" width="78.56" height="61.81" fill="#eee824"/>
        <rect x="623.5" y="917.28" width="78.56" height="61.81" fill="#87c540"/>
        <rect x="623.5" y="1033.54" width="78.56" height="61.81" fill="#64bc46"/>
        <rect x="623.5" y="1149.81" width="78.56" height="61.81" fill="#68c073"/>
        <rect x="623.5" y="1266.08" width="78.56" height="61.81" fill="#5ec8d8"/>
        <rect x="623.5" y="1382.34" width="78.56" height="61.81" fill="#3976bb"/>
        <rect x="623.5" y="219.68" width="78.56" height="61.81" fill="#5450a2"/>
        <rect x="623.5" y="335.95" width="78.56" height="61.81" fill="#9f59a3"/>
        <rect x="623.5" y="452.21" width="78.56" height="61.81" fill="#ee328a"/>
        <rect x="623.5" y="1498.61" width="78.56" height="61.81" fill="#2356a7"/>
        <text transform="translate(630.43 262.55)" font-size="32.49" fill="#fff" font-family="HelveticaNeue-Bold, Helvetica Neue" font-weight="700">F#m</text>
        <text transform="translate(636.77 379.81)" font-size="32.49" fill="#fff" font-family="HelveticaNeue-Bold, Helvetica Neue" font-weight="700">Gm</text>
        <text transform="translate(627.74 495.71)" font-size="32.49" fill="#fff" font-family="HelveticaNeue-Bold, Helvetica Neue" font-weight="700">G#m</text>
        <text transform="translate(637.97 611.84)" font-size="32.49" fill="#fff" font-family="HelveticaNeue-Bold, Helvetica Neue" font-weight="700">Am</text>
        <text transform="translate(628.94 728.1)" font-size="32.49" fill="#fff" font-family="HelveticaNeue-Bold, Helvetica Neue" font-weight="700">A#m</text>
        <text transform="translate(637.66 844.51)" font-size="32.49" fill="#fff" font-family="HelveticaNeue-Bold, Helvetica Neue" font-weight="700">Bm</text>
        <text transform="translate(637.06 961.15)" font-size="32.49" fill="#fff" font-family="HelveticaNeue-Bold, Helvetica Neue" font-weight="700">Cm</text>
        <text transform="translate(628.03 1077.42)" font-size="32.49" fill="#fff" font-family="HelveticaNeue-Bold, Helvetica Neue" font-weight="700">C#m</text>
        <text transform="translate(637.06 1192.62)" font-size="32.49" fill="#fff" font-family="HelveticaNeue-Bold, Helvetica Neue" font-weight="700">Dm</text>
        <text transform="translate(626.99 1310.08)" font-size="32.49" fill="#fff" font-family="HelveticaNeue-Bold, Helvetica Neue" font-weight="700">D#m</text>
        <text transform="translate(637.54 1426.21)" font-size="32.49" fill="#fff" font-family="HelveticaNeue-Bold, Helvetica Neue" font-weight="700">Em</text>
        <text transform="translate(638.43 1542.61)" font-size="32.49" fill="#fff" font-family="HelveticaNeue-Bold, Helvetica Neue" font-weight="700">Fm</text>
        <rect x="737.68" y="568.48" width="78.88" height="61.81" fill="#68c073"/>
        <rect x="737.68" y="684.74" width="78.88" height="61.81" fill="#5ec8d8"/>
        <rect x="737.68" y="801.01" width="78.88" height="61.81" fill="#3976bb"/>
        <rect x="737.68" y="917.28" width="78.88" height="61.81" fill="#2356a7"/>
        <rect x="737.68" y="1033.54" width="78.88" height="61.81" fill="#5450a2"/>
        <rect x="737.68" y="1149.81" width="78.88" height="61.81" fill="#9f59a3"/>
        <rect x="737.68" y="1266.08" width="78.88" height="61.81" fill="#ee328a"/>
        <rect x="737.68" y="1382.34" width="78.88" height="61.81" fill="#ee342e"/>
        <rect x="737.68" y="219.68" width="78.88" height="61.81" fill="#eee824"/>
        <rect x="737.68" y="335.95" width="78.88" height="61.81" fill="#87c540"/>
        <rect x="737.68" y="452.21" width="78.88" height="61.81" fill="#64bc46"/>
        <rect x="737.68" y="1498.61" width="78.88" height="61.81" fill="#f5832b"/>
        <text transform="translate(743.74 1075.72)" font-size="32.49" fill="#fff" font-family="HelveticaNeue-Bold, Helvetica Neue" font-weight="700">F#m</text>
        <text transform="translate(750.59 1192.62)" font-size="32.49" fill="#fff" font-family="HelveticaNeue-Bold, Helvetica Neue" font-weight="700">Gm</text>
        <text transform="translate(741.56 1310.08)" font-size="32.49" fill="#fff" font-family="HelveticaNeue-Bold, Helvetica Neue" font-weight="700">G#m</text>
        <text transform="translate(751.79 1426.21)" font-size="32.49" fill="#fff" font-family="HelveticaNeue-Bold, Helvetica Neue" font-weight="700">Am</text>
        <text transform="translate(742.76 1542.61)" font-size="32.49" fill="#fff" font-family="HelveticaNeue-Bold, Helvetica Neue" font-weight="700">A#m</text>
        <text transform="translate(751.48 265.93)" font-size="32.49" fill="#fff" font-family="HelveticaNeue-Bold, Helvetica Neue" font-weight="700">Bm</text>
        <text transform="translate(750.88 382.57)" font-size="32.49" fill="#fff" font-family="HelveticaNeue-Bold, Helvetica Neue" font-weight="700">Cm</text>
        <rect x="834.32" y="1382.34" width="78.88" height="61.81" fill="#eee824"/>
        <rect x="834.32" y="1498.61" width="78.88" height="61.81" fill="#87c540"/>
        <text transform="translate(853.81 1428.59)" font-size="32.49" fill="#fff" font-family="HelveticaNeue-Bold, Helvetica Neue" font-weight="700">B7</text>
        <text transform="translate(853.21 1545.23)" font-size="32.49" fill="#fff" font-family="HelveticaNeue-Bold, Helvetica Neue" font-weight="700">C7</text>
        <text transform="translate(741.85 498.84)" font-size="32.49" fill="#fff" font-family="HelveticaNeue-Bold, Helvetica Neue" font-weight="700">C#m</text>
        <text transform="translate(750.88 614.05)" font-size="32.49" fill="#fff" font-family="HelveticaNeue-Bold, Helvetica Neue" font-weight="700">Dm</text>
        <text transform="translate(741.85 728.1)" font-size="32.49" fill="#fff" font-family="HelveticaNeue-Bold, Helvetica Neue" font-weight="700">D#m</text>
        <text transform="translate(751.88 844.51)" font-size="32.49" fill="#fff" font-family="HelveticaNeue-Bold, Helvetica Neue" font-weight="700">Em</text>
        <text transform="translate(752.25 961.16)" font-size="32.49" fill="#fff" font-family="HelveticaNeue-Bold, Helvetica Neue" font-weight="700">Fm</text>
        <rect x="834.84" y="335.5" width="78.88" height="61.81" fill="#68c073"/>
        <rect x="834.84" y="451.76" width="78.88" height="61.81" fill="#5ec8d8"/>
        <rect x="834.84" y="568.03" width="78.88" height="61.81" fill="#3976bb"/>
        <rect x="834.84" y="684.29" width="78.88" height="61.81" fill="#2356a7"/>
        <rect x="834.84" y="800.56" width="78.88" height="61.81" fill="#5450a2"/>
        <rect x="834.84" y="916.83" width="78.88" height="61.81" fill="#9f59a3"/>
        <rect x="834.84" y="1033.09" width="78.88" height="61.81" fill="#ee328a"/>
        <rect x="834.84" y="1149.36" width="78.88" height="61.81" fill="#ee342e"/>
        <rect x="834.84" y="219.23" width="78.88" height="61.81" fill="#64bc46"/>
        <rect x="834.84" y="1265.63" width="78.88" height="61.81" fill="#f5832b"/>
        <text transform="translate(846.58 842.73)" font-size="32.49" fill="#fff" font-family="HelveticaNeue-Bold, Helvetica Neue" font-weight="700">F#7</text>
        <text transform="translate(853.43 959.64)" font-size="32.49" fill="#fff" font-family="HelveticaNeue-Bold, Helvetica Neue" font-weight="700">G7</text>
        <text transform="translate(844.4 1077.1)" font-size="32.49" fill="#fff" font-family="HelveticaNeue-Bold, Helvetica Neue" font-weight="700">G#7</text>
        <text transform="translate(854.63 1193.23)" font-size="32.49" fill="#fff" font-family="HelveticaNeue-Bold, Helvetica Neue" font-weight="700">A7</text>
        <text transform="translate(845.6 1309.63)" font-size="32.49" fill="#fff" font-family="HelveticaNeue-Bold, Helvetica Neue" font-weight="700">A#7</text>
        <text transform="translate(844.69 265.86)" font-size="32.49" fill="#fff" font-family="HelveticaNeue-Bold, Helvetica Neue" font-weight="700">C#7</text>
        <text transform="translate(853.72 381.06)" font-size="32.49" fill="#fff" font-family="HelveticaNeue-Bold, Helvetica Neue" font-weight="700">D7</text>
        <text transform="translate(844.69 495.12)" font-size="32.49" fill="#fff" font-family="HelveticaNeue-Bold, Helvetica Neue" font-weight="700">D#7</text>
        <text transform="translate(854.72 611.53)" font-size="32.49" fill="#fff" font-family="HelveticaNeue-Bold, Helvetica Neue" font-weight="700">E7</text>
        <text transform="translate(855.09 728.17)" font-size="32.49" fill="#fff" font-family="HelveticaNeue-Bold, Helvetica Neue" font-weight="700">F7</text>
        <rect x="929.81" y="568.54" width="108.81" height="61.81" fill="#eee824"/>
        <rect x="929.81" y="684.81" width="108.81" height="61.81" fill="#87c540"/>
        <text transform="translate(944.02 614.79)" font-size="32.49" fill="#fff" font-family="HelveticaNeue-Bold, Helvetica Neue" font-weight="700">Bdim</text>
        <text transform="translate(943.42 731.44)" font-size="32.49" fill="#fff" font-family="HelveticaNeue-Bold, Helvetica Neue" font-weight="700">Cdim</text>
        <rect x="930.53" y="916.46" width="108.81" height="61.81" fill="#68c073"/>
        <rect x="930.53" y="1032.73" width="108.81" height="61.81" fill="#5ec8d8"/>
        <rect x="930.53" y="1149" width="108.81" height="61.81" fill="#3976bb"/>
        <rect x="930.53" y="1265.26" width="108.81" height="61.81" fill="#2356a7"/>
        <rect x="930.53" y="1381.53" width="108.81" height="61.81" fill="#5450a2"/>
        <rect x="930.53" y="1497.79" width="108.81" height="61.81" fill="#9f59a3"/>
        <rect x="930.53" y="219.29" width="108.81" height="61.81" fill="#ee328a"/>
        <rect x="930.53" y="335.56" width="108.81" height="61.81" fill="#ee342e"/>
        <rect x="930.53" y="800.2" width="108.81" height="61.81" fill="#64bc46"/>
        <rect x="930.53" y="451.83" width="108.81" height="61.81" fill="#f5832b"/>
        <text transform="translate(936.79 1423.7)" font-size="32.49" fill="#fff" font-family="HelveticaNeue-Bold, Helvetica Neue" font-weight="700">F#dim</text>
        <text transform="translate(943.65 1540.61)" font-size="32.49" fill="#fff" font-family="HelveticaNeue-Bold, Helvetica Neue" font-weight="700">Gdim</text>
        <text transform="translate(943.65 263.3)" font-size="32.49" fill="#fff" font-family="HelveticaNeue-Bold, Helvetica Neue" font-weight="700">Gdim</text>
        <text transform="translate(944.85 379.43)" font-size="32.49" fill="#fff" font-family="HelveticaNeue-Bold, Helvetica Neue" font-weight="700">Adim</text>
        <text transform="translate(935.81 495.83)" font-size="32.49" fill="#fff" font-family="HelveticaNeue-Bold, Helvetica Neue" font-weight="700">A#dim</text>
        <text transform="translate(934.9 846.83)" font-size="32.49" fill="#fff" font-family="HelveticaNeue-Bold, Helvetica Neue" font-weight="700">C#dim</text>
        <text transform="translate(943.94 962.03)" font-size="32.49" fill="#fff" font-family="HelveticaNeue-Bold, Helvetica Neue" font-weight="700">Ddim</text>
        <text transform="translate(934.9 1076.08)" font-size="32.49" fill="#fff" font-family="HelveticaNeue-Bold, Helvetica Neue" font-weight="700">D#dim</text>
        <text transform="translate(944.93 1192.49)" font-size="32.49" fill="#fff" font-family="HelveticaNeue-Bold, Helvetica Neue" font-weight="700">Edim</text>
        <text transform="translate(945.31 1309.14)" font-size="32.49" fill="#fff" font-family="HelveticaNeue-Bold, Helvetica Neue" font-weight="700">Fdim</text>
        <line x1="151.21" y1="190.66" x2="1039.34" y2="190.66" fill="none" stroke="#939598" stroke-width="3.84"/>
      </g>
      <text transform="translate(66.27 78.72)" font-size="32" fill="#fff" font-family="CameronSans"><tspan xml:space="preserve">www.chromatone.center  </tspan><tspan x="351.31" y="0" xml:space="preserve" font-family="CameronSansBold, CameronSans">     Chroma</tspan><tspan x="510.66" y="0" letter-spacing="-0.18em">T</tspan><tspan x="523.66" y="0">one </tspan><tspan x="583.19" y="0" xml:space="preserve" font-family="MyriadPro-Regular, Myriad Pro">       </tspan><tspan x="630.67" y="0">Color Music Notation System</tspan></text>
    </g>
  </g>
</svg>
