<?xml version="1.0" encoding="UTF-8" ?>
<!DOCTYPE svg PUBLIC "-//W3C//DTD SVG 1.1//EN" "http://www.w3.org/Graphics/SVG/1.1/DTD/svg11.dtd">
<svg width="539pt" height="252pt" viewBox="0 0 539 252" version="1.1" xmlns="http://www.w3.org/2000/svg">
<g id="#ffffffff">
<path fill="#ffffff" opacity="1.00" d=" M 0.00 0.00 L 539.00 0.00 L 539.00 252.00 L 0.00 252.00 L 0.00 0.00 M 88.72 29.66 C 81.04 42.59 78.43 58.12 79.43 73.00 C 60.29 73.00 41.14 73.00 22.00 73.00 C 22.00 73.75 22.00 75.25 22.00 76.00 C 41.18 76.00 60.35 76.00 79.53 76.00 C 80.05 80.02 80.86 83.99 81.59 87.97 C 76.83 92.21 71.96 96.34 67.59 100.99 C 52.39 101.01 37.20 101.00 22.00 101.00 C 22.00 102.33 22.00 103.67 22.00 105.00 C 35.92 105.00 49.83 104.99 63.75 105.00 C 57.26 112.21 51.37 120.09 47.42 128.99 C 38.95 129.01 30.47 129.00 22.00 129.00 C 22.00 130.33 22.00 131.66 22.00 133.00 C 29.92 133.00 37.83 133.00 45.75 133.00 C 43.34 140.72 42.23 149.15 44.71 157.00 C 37.14 156.99 29.57 157.00 22.00 157.00 C 22.00 158.33 22.00 159.66 22.00 161.00 C 30.09 160.99 38.18 161.02 46.27 160.98 C 52.69 173.37 64.94 182.15 78.52 184.98 C 59.68 185.03 40.84 184.98 22.00 185.00 C 22.00 186.33 22.00 187.66 22.00 189.00 C 48.93 189.00 75.85 189.00 102.78 189.00 C 103.86 195.01 105.54 200.93 106.18 207.01 C 106.65 216.21 99.20 224.00 90.87 226.72 C 84.82 228.95 78.08 228.17 72.29 225.56 C 77.84 224.59 84.06 222.14 86.43 216.60 C 89.47 209.45 84.94 200.70 77.87 198.09 C 71.52 196.09 64.46 200.06 62.04 206.09 C 58.32 215.08 63.68 226.20 72.77 229.39 C 86.18 234.30 104.09 227.49 108.30 213.18 C 110.50 205.09 107.01 196.97 105.78 189.00 C 170.78 188.98 235.78 189.03 300.78 188.98 C 295.84 190.95 290.41 193.79 288.52 199.13 C 286.85 204.10 289.76 209.15 293.71 212.05 C 292.25 212.02 290.80 211.99 289.35 211.97 C 283.97 203.72 273.32 200.91 263.99 200.88 C 254.78 201.16 244.00 203.51 238.88 211.98 C 233.92 212.02 228.96 211.99 224.00 212.00 C 224.00 214.00 224.00 216.00 224.00 218.00 C 228.69 218.00 233.39 217.99 238.09 218.01 C 239.78 224.55 246.18 228.31 252.35 229.79 C 261.29 231.93 270.92 231.59 279.61 228.56 C 284.55 226.91 288.98 223.23 290.23 218.00 C 295.14 218.00 300.05 218.00 304.95 218.00 L 305.05 216.41 C 314.38 217.82 324.44 217.38 332.99 213.03 C 337.93 210.59 341.53 204.80 339.77 199.26 C 337.76 193.85 332.22 191.00 327.19 188.97 C 392.79 189.04 458.40 188.98 524.00 189.00 C 524.00 150.33 524.00 111.67 524.00 73.00 C 386.30 73.00 248.60 73.00 110.89 73.00 C 112.30 66.80 112.97 60.37 112.16 54.04 C 110.64 41.41 104.58 29.86 97.29 19.63 C 93.97 22.55 90.98 25.85 88.72 29.66 Z" />
<path fill="#ffffff" opacity="1.00" d=" M 90.98 41.98 C 93.02 38.42 96.70 34.67 101.22 35.96 C 105.23 39.80 107.31 45.50 106.84 51.02 C 106.29 59.30 101.77 66.62 96.81 73.01 C 92.25 72.99 87.68 73.01 83.12 72.99 C 83.65 62.32 85.42 51.28 90.98 41.98 Z" />
<path fill="#ffffff" opacity="1.00" d=" M 83.05 76.01 C 86.80 75.99 90.54 76.00 94.29 76.00 C 91.05 79.56 87.62 82.95 84.05 86.17 C 83.47 82.81 83.13 79.42 83.05 76.01 Z" />
<path fill="#ffffff" opacity="1.00" d=" M 109.95 76.00 C 241.30 75.99 372.65 76.00 504.00 76.00 C 504.00 84.33 504.00 92.67 504.00 101.00 C 367.14 101.00 230.28 101.00 93.43 101.00 C 100.56 93.91 106.70 85.61 109.95 76.00 Z" />
<path fill="#ffffff" opacity="1.00" d=" M 509.00 76.00 C 512.33 76.00 515.66 76.00 519.00 76.00 C 519.00 84.33 519.00 92.67 519.00 101.00 C 515.66 101.00 512.33 101.00 509.00 101.00 C 509.00 92.67 509.00 84.33 509.00 76.00 Z" />
<path fill="#ffffff" opacity="1.00" d=" M 88.35 105.00 C 226.90 105.00 365.45 105.00 504.00 105.00 C 504.00 113.00 504.00 121.00 504.00 129.00 C 367.02 129.00 230.04 129.00 93.05 129.00 C 91.55 120.99 89.38 113.09 88.35 105.00 Z" />
<path fill="#ffffff" opacity="1.00" d=" M 509.00 105.00 C 512.33 105.00 515.66 105.00 519.00 105.00 C 519.00 113.00 519.00 121.00 519.00 129.00 C 515.66 129.00 512.33 129.00 509.00 129.00 C 509.00 121.00 509.00 113.00 509.00 105.00 Z" />
<path fill="#ffffff" opacity="1.00" d=" M 63.08 128.99 C 69.41 120.66 77.39 113.78 85.63 107.42 C 87.14 114.61 88.65 121.80 90.15 129.00 C 81.13 129.00 72.11 129.01 63.08 128.99 Z" />
<path fill="#ffffff" opacity="1.00" d=" M 60.26 132.99 C 67.53 133.00 74.80 133.01 82.07 132.99 C 73.70 137.72 67.43 147.10 69.04 157.00 C 63.98 157.00 58.93 157.00 53.87 157.00 C 52.76 148.52 55.70 140.05 60.26 132.99 Z" />
<path fill="#ffffff" opacity="1.00" d=" M 111.93 132.99 C 242.62 133.01 373.31 132.99 504.00 133.00 C 504.00 141.00 504.00 149.00 504.00 157.00 C 377.52 157.00 251.04 157.00 124.56 157.00 C 124.99 147.43 120.03 138.07 111.93 132.99 Z" />
<path fill="#ffffff" opacity="1.00" d=" M 509.00 133.00 C 512.33 133.00 515.66 133.00 519.00 133.00 C 519.00 141.00 519.00 149.00 519.00 157.00 C 515.66 157.00 512.33 157.00 509.00 157.00 C 509.00 149.00 509.00 141.00 509.00 133.00 Z" />
<path fill="#ffffff" opacity="1.00" d=" M 95.72 141.36 C 99.40 141.11 103.27 141.46 106.40 143.59 C 111.13 146.46 113.79 151.68 114.81 156.97 C 109.55 157.03 104.29 156.99 99.02 157.00 C 97.92 151.79 96.79 146.58 95.72 141.36 Z" />
<path fill="#ffffff" opacity="1.00" d=" M 76.30 156.97 C 76.52 148.23 85.03 142.88 92.90 141.86 C 93.98 146.90 95.01 151.95 96.07 157.00 C 89.48 156.98 82.89 157.03 76.30 156.97 Z" />
<path fill="#ffffff" opacity="1.00" d=" M 54.73 161.01 C 59.96 160.99 65.18 161.00 70.40 161.01 C 73.42 166.70 79.42 169.96 85.59 171.10 C 81.96 168.50 78.60 165.33 77.03 161.04 C 83.65 160.96 90.28 161.02 96.90 161.00 C 98.27 167.55 99.65 174.09 100.99 180.65 C 83.83 188.68 60.42 179.47 54.73 161.01 Z" />
<path fill="#ffffff" opacity="1.00" d=" M 99.87 161.00 C 104.85 161.01 109.82 160.98 114.80 161.02 C 114.34 168.49 109.42 174.64 103.69 179.00 C 102.42 173.00 101.14 167.00 99.87 161.00 Z" />
<path fill="#ffffff" opacity="1.00" d=" M 123.87 161.00 C 250.58 161.00 377.29 161.00 504.00 161.00 C 504.00 169.00 504.00 177.00 504.00 185.00 C 370.93 185.00 237.86 184.99 104.79 185.01 C 104.74 184.41 104.63 183.22 104.58 182.62 C 113.28 178.03 121.23 170.79 123.87 161.00 Z" />
<path fill="#ffffff" opacity="1.00" d=" M 509.00 161.00 C 512.33 161.00 515.66 161.00 519.00 161.00 C 519.00 169.00 519.00 177.00 519.00 185.00 C 515.66 185.00 512.33 185.00 509.00 185.00 C 509.00 177.00 509.00 169.00 509.00 161.00 Z" />
<path fill="#ffffff" opacity="1.00" d=" M 98.30 184.15 C 99.33 183.42 100.97 183.43 102.12 183.91 C 102.56 185.78 98.71 185.61 98.30 184.15 Z" />
<path fill="#ffffff" opacity="1.00" d=" M 304.49 190.65 C 308.28 188.92 312.75 189.11 316.71 190.18 C 321.88 191.71 324.77 196.79 326.68 201.47 C 327.90 204.58 329.06 208.60 326.50 211.37 C 323.04 214.85 317.64 214.84 313.09 214.47 C 306.67 213.03 301.84 207.09 300.53 200.80 C 299.78 197.10 300.63 192.28 304.49 190.65 Z" />
<path fill="#ffffff" opacity="1.00" d=" M 253.31 205.30 C 257.28 202.84 262.37 203.02 266.73 204.19 C 270.63 205.26 273.18 208.64 275.10 211.97 C 266.79 212.02 258.47 212.01 250.15 211.98 C 250.55 209.52 251.10 206.80 253.31 205.30 Z" />
<path fill="#ffffff" opacity="1.00" d=" M 251.36 218.03 C 260.12 217.97 268.89 218.00 277.65 218.01 C 278.00 220.33 278.48 222.94 276.86 224.93 C 273.78 228.66 268.45 228.75 264.02 228.59 C 258.14 227.96 253.84 223.05 251.36 218.03 Z" />
</g>
<g id="#000000ff">
<path fill="#000000" opacity="1.00" d=" M 88.72 29.66 C 90.98 25.85 93.97 22.55 97.29 19.63 C 104.58 29.86 110.64 41.41 112.16 54.04 C 112.97 60.37 112.30 66.80 110.89 73.00 C 248.60 73.00 386.30 73.00 524.00 73.00 C 524.00 111.67 524.00 150.33 524.00 189.00 C 458.40 188.98 392.79 189.04 327.19 188.97 C 332.22 191.00 337.76 193.85 339.77 199.26 C 341.53 204.80 337.93 210.59 332.99 213.03 C 324.44 217.38 314.38 217.82 305.05 216.41 L 304.95 218.00 C 300.05 218.00 295.14 218.00 290.23 218.00 C 288.98 223.23 284.55 226.91 279.61 228.56 C 270.92 231.59 261.29 231.93 252.35 229.79 C 246.18 228.31 239.78 224.55 238.09 218.01 C 233.39 217.99 228.69 218.00 224.00 218.00 C 224.00 216.00 224.00 214.00 224.00 212.00 C 228.96 211.99 233.92 212.02 238.88 211.98 C 244.00 203.51 254.78 201.16 263.99 200.88 C 273.32 200.91 283.97 203.72 289.35 211.97 C 290.80 211.99 292.25 212.02 293.71 212.05 C 289.76 209.15 286.85 204.10 288.52 199.13 C 290.41 193.79 295.84 190.95 300.78 188.98 C 235.78 189.03 170.78 188.98 105.78 189.00 C 107.01 196.97 110.50 205.09 108.30 213.18 C 104.09 227.49 86.18 234.30 72.77 229.39 C 63.68 226.20 58.32 215.08 62.04 206.09 C 64.46 200.06 71.52 196.09 77.87 198.09 C 84.94 200.70 89.47 209.45 86.43 216.60 C 84.06 222.14 77.84 224.59 72.29 225.56 C 78.08 228.17 84.82 228.95 90.87 226.72 C 99.20 224.00 106.65 216.21 106.18 207.01 C 105.54 200.93 103.86 195.01 102.78 189.00 C 75.85 189.00 48.93 189.00 22.00 189.00 C 22.00 187.66 22.00 186.33 22.00 185.00 C 40.84 184.98 59.68 185.03 78.52 184.98 C 64.94 182.15 52.69 173.37 46.27 160.98 C 38.18 161.02 30.09 160.99 22.00 161.00 C 22.00 159.66 22.00 158.33 22.00 157.00 C 29.57 157.00 37.14 156.99 44.71 157.00 C 42.23 149.15 43.34 140.72 45.75 133.00 C 37.83 133.00 29.92 133.00 22.00 133.00 C 22.00 131.66 22.00 130.33 22.00 129.00 C 30.47 129.00 38.95 129.01 47.42 128.99 C 51.37 120.09 57.26 112.21 63.75 105.00 C 49.83 104.99 35.92 105.00 22.00 105.00 C 22.00 103.67 22.00 102.33 22.00 101.00 C 37.20 101.00 52.39 101.01 67.59 100.99 C 71.96 96.34 76.83 92.21 81.59 87.97 C 80.86 83.99 80.05 80.02 79.53 76.00 C 60.35 76.00 41.18 76.00 22.00 76.00 C 22.00 75.25 22.00 73.75 22.00 73.00 C 41.14 73.00 60.29 73.00 79.43 73.00 C 78.43 58.12 81.04 42.59 88.72 29.66 M 90.98 41.98 C 85.42 51.28 83.65 62.32 83.12 72.99 C 87.68 73.01 92.25 72.99 96.81 73.01 C 101.77 66.62 106.29 59.30 106.84 51.02 C 107.31 45.50 105.23 39.80 101.22 35.96 C 96.70 34.67 93.02 38.42 90.98 41.98 M 83.05 76.01 C 83.13 79.42 83.47 82.81 84.05 86.17 C 87.62 82.95 91.05 79.56 94.29 76.00 C 90.54 76.00 86.80 75.99 83.05 76.01 M 109.95 76.00 C 106.70 85.61 100.56 93.91 93.43 101.00 C 230.28 101.00 367.14 101.00 504.00 101.00 C 504.00 92.67 504.00 84.33 504.00 76.00 C 372.65 76.00 241.30 75.99 109.95 76.00 M 509.00 76.00 C 509.00 84.33 509.00 92.67 509.00 101.00 C 512.33 101.00 515.66 101.00 519.00 101.00 C 519.00 92.67 519.00 84.33 519.00 76.00 C 515.66 76.00 512.33 76.00 509.00 76.00 M 88.35 105.00 C 89.38 113.09 91.55 120.99 93.05 129.00 C 230.04 129.00 367.02 129.00 504.00 129.00 C 504.00 121.00 504.00 113.00 504.00 105.00 C 365.45 105.00 226.90 105.00 88.35 105.00 M 509.00 105.00 C 509.00 113.00 509.00 121.00 509.00 129.00 C 512.33 129.00 515.66 129.00 519.00 129.00 C 519.00 121.00 519.00 113.00 519.00 105.00 C 515.66 105.00 512.33 105.00 509.00 105.00 M 63.08 128.99 C 72.11 129.01 81.13 129.00 90.15 129.00 C 88.65 121.80 87.14 114.61 85.63 107.42 C 77.39 113.78 69.41 120.66 63.08 128.99 M 60.26 132.99 C 55.70 140.05 52.76 148.52 53.87 157.00 C 58.93 157.00 63.98 157.00 69.04 157.00 C 67.43 147.10 73.70 137.72 82.07 132.99 C 74.80 133.01 67.53 133.00 60.26 132.99 M 111.93 132.99 C 120.03 138.07 124.99 147.43 124.56 157.00 C 251.04 157.00 377.52 157.00 504.00 157.00 C 504.00 149.00 504.00 141.00 504.00 133.00 C 373.31 132.99 242.62 133.01 111.93 132.99 M 509.00 133.00 C 509.00 141.00 509.00 149.00 509.00 157.00 C 512.33 157.00 515.66 157.00 519.00 157.00 C 519.00 149.00 519.00 141.00 519.00 133.00 C 515.66 133.00 512.33 133.00 509.00 133.00 M 95.72 141.36 C 96.79 146.58 97.92 151.79 99.02 157.00 C 104.29 156.99 109.55 157.03 114.81 156.97 C 113.79 151.68 111.13 146.46 106.40 143.59 C 103.27 141.46 99.40 141.11 95.72 141.36 M 76.30 156.97 C 82.89 157.03 89.48 156.98 96.07 157.00 C 95.01 151.95 93.98 146.90 92.90 141.86 C 85.03 142.88 76.52 148.23 76.30 156.97 M 54.73 161.01 C 60.42 179.47 83.83 188.68 100.99 180.65 C 99.65 174.09 98.27 167.55 96.90 161.00 C 90.28 161.02 83.65 160.96 77.03 161.04 C 78.60 165.33 81.96 168.50 85.59 171.10 C 79.42 169.96 73.42 166.70 70.40 161.01 C 65.18 161.00 59.96 160.99 54.73 161.01 M 99.87 161.00 C 101.14 167.00 102.42 173.00 103.69 179.00 C 109.42 174.64 114.34 168.49 114.80 161.02 C 109.82 160.98 104.85 161.01 99.87 161.00 M 123.87 161.00 C 121.23 170.79 113.28 178.03 104.58 182.62 C 104.63 183.22 104.74 184.41 104.79 185.01 C 237.86 184.99 370.93 185.00 504.00 185.00 C 504.00 177.00 504.00 169.00 504.00 161.00 C 377.29 161.00 250.58 161.00 123.87 161.00 M 509.00 161.00 C 509.00 169.00 509.00 177.00 509.00 185.00 C 512.33 185.00 515.66 185.00 519.00 185.00 C 519.00 177.00 519.00 169.00 519.00 161.00 C 515.66 161.00 512.33 161.00 509.00 161.00 M 98.30 184.15 C 98.71 185.61 102.56 185.78 102.12 183.91 C 100.97 183.43 99.33 183.42 98.30 184.15 M 304.49 190.65 C 300.63 192.28 299.78 197.10 300.53 200.80 C 301.84 207.09 306.67 213.03 313.09 214.47 C 317.64 214.84 323.04 214.85 326.50 211.37 C 329.06 208.60 327.90 204.58 326.68 201.47 C 324.77 196.79 321.88 191.71 316.71 190.18 C 312.75 189.11 308.28 188.92 304.49 190.65 M 253.31 205.30 C 251.10 206.80 250.55 209.52 250.15 211.98 C 258.47 212.01 266.79 212.02 275.10 211.97 C 273.18 208.64 270.63 205.26 266.73 204.19 C 262.37 203.02 257.28 202.84 253.31 205.30 M 251.36 218.03 C 253.84 223.05 258.14 227.96 264.02 228.59 C 268.45 228.75 273.78 228.66 276.86 224.93 C 278.48 222.94 278.00 220.33 277.65 218.01 C 268.89 218.00 260.12 217.97 251.36 218.03 Z" />
</g>
</svg>
