<svg enable-background="new 0 0 500 255" height="255" viewBox="0 0 500 255" width="500" xmlns="http://www.w3.org/2000/svg"><g fill="#9c9c9c" stroke="#1b1b1b" stroke-miterlimit="6" transform="translate(-125 -404.86218)"><path d="m248.599 576.716c-31.647 15.417-46.259 22.331-85.027 39.894 19.285-21.204 39.446-43.555 58.428-65.636l-77.705-42.509 83.506 13.93-18.271-59.74 42.984 38.913 54.95-77.342-18.171 104.264 55.664-3.277-50.614 31.103 32.657 44.499-51.578-12.708-21.547 46.54z"/><path d="m509 626.239c-1.375-.981-3.063-2.48-3.752-3.33-2.943-3.635-7.394-14.498-11.283-27.547-2.296-7.699-4.718-14.574-5.381-15.275-.965-1.02-3.003.369-10.146 6.914-9.688 8.875-18.525 15.075-24.127 16.924-1.949.644-5.851.948-8.668.678-4.685-.45-5.536-.952-9.923-5.85-6.83-7.627-10.72-15.845-10.72-22.649 0-11.9 4.828-16.15 29.353-25.832 15.08-5.954 18.125-9.107 11.049-11.442-2.004-.661-13.851-1.535-26.75-1.972-24.274-.823-29.65-1.723-35.595-5.955-4.073-2.9-6.057-6.947-6.057-12.356 0-12.213 11.053-14.281 46.399-8.68 20.776 3.292 30.184 3.751 33.104 1.616 1.782-1.303 1.794-1.519.216-3.928-.919-1.402-8.46-7.832-16.758-14.289-16.246-12.642-21.637-18.038-25.036-25.06-4.392-9.072-.61-17.939 10.144-23.786 4.396-2.39 6.941-3.022 13.566-3.37 7.502-.394 8.573-.199 13.401 2.428 6.916 3.764 10.25 7.874 17.464 21.527 3.3 6.246 6.45 11.356 7 11.356s3.855-5.802 7.345-12.893c7.295-14.822 13.165-21.725 20.052-23.58 5.377-1.448 10.354-.455 13.269 2.647 3.343 3.557 3.734 15.401.938 28.325-7.068 32.67-7.41 39.056-2.229 41.629 3.945 1.959 7.815-.274 17.04-9.833 9.763-10.118 16.987-14.466 22.277-13.408 5.412 1.083 11.526 5.397 16.118 11.376 6.312 8.217 8.689 13.375 8.689 18.851 0 4.14-.452 5.125-3.822 8.331-4.412 4.198-10.726 6.495-23.675 8.613-18.739 3.065-21.638 3.73-23.768 5.455-2.037 1.649-2.086 1.967-.712 4.588.812 1.549 7.156 8.732 14.099 15.961 16.806 17.502 20.641 24.129 17.489 30.222-1.57 3.036-5.843 5.216-10.226 5.216-3.461 0-10.666-2.642-22.386-8.208-18.58-8.825-20.133-8.345-11.999 3.71 10.685 15.834 12.265 22.434 6.702 27.996-4.164 4.163-8.765 5.533-20.703 6.162-8.044.426-9.881.23-11.998-1.282z"/></g></svg>