<svg id="Layer_1" data-name="Layer 1" xmlns="http://www.w3.org/2000/svg" viewBox="0 0 283.46 283.46">
  <g>
    <g>
      <path d="M104.37,130.87v-.08a74.7,74.7,0,0,1,37.36-64.71A74.72,74.72,0,1,0,67.07,195.54h0A74.69,74.69,0,0,1,104.37,130.87Z" fill="#ec008c"/>
      <path d="M253.83,130.79a74.72,74.72,0,0,0-112.1-64.71,74.68,74.68,0,0,1,37.37,64.71,74.69,74.69,0,0,1,37.44,64.67A74.68,74.68,0,0,0,253.83,130.79Z" fill="#fced00"/>
      <path d="M104.37,130.79v.08a74.61,74.61,0,0,1,74.73-.08,74.68,74.68,0,0,0-37.37-64.71A74.7,74.7,0,0,0,104.37,130.79Z" fill="#ec2124"/>
      <path d="M141.73,195.5a74.68,74.68,0,0,1-74.66,0,74.74,74.74,0,0,0,149.47,0v-.08a74.7,74.7,0,0,1-74.81,0Z" fill="#00aeef"/>
      <path d="M141.73,195.5a74.68,74.68,0,0,1-37.36-64.63,74.69,74.69,0,0,0-37.3,64.67h0a74.68,74.68,0,0,0,74.66,0Z" fill="#2e3091"/>
      <path d="M179.1,130.79h0a74.68,74.68,0,0,1-37.37,64.71,74.7,74.7,0,0,0,74.81,0A74.69,74.69,0,0,0,179.1,130.79Z" fill="#00a550"/>
      <path d="M104.37,130.87a74.68,74.68,0,0,0,37.36,64.63,74.68,74.68,0,0,0,37.37-64.71h0a74.61,74.61,0,0,0-74.73.08Z" fill="#231f20"/>
      <text transform="translate(204 124.91)" font-size="32" fill="#231f20" font-family="Neusa-SemiBold, Neusa" font-weight="600">Y</text>
      <text transform="translate(59.31 125.76)" font-size="32" fill="#231f20" font-family="Neusa-SemiBold, Neusa" font-weight="600">M</text>
      <text transform="translate(134.17 243.85)" font-size="32" fill="#231f20" font-family="Neusa-SemiBold, Neusa" font-weight="600">C</text>
    </g>
    <text transform="translate(39.59 40.4)" font-size="32" font-family="Neusa-Medium, Neusa" font-weight="500"><tspan letter-spacing="-0.01em">S</tspan><tspan x="15.78" y="0">ubt</tspan><tspan x="51.04" y="0" letter-spacing="-0.02em">r</tspan><tspan x="58.94" y="0">a</tspan><tspan x="71.52" y="0" letter-spacing="-0.02em">c</tspan><tspan x="83.1" y="0">ti</tspan><tspan x="98.4" y="0" letter-spacing="-0.04em">v</tspan><tspan x="111.33" y="0">e model</tspan></text>
  </g>
</svg>
