<svg id="Layer_1" data-name="Layer 1" xmlns="http://www.w3.org/2000/svg" viewBox="0 0 283.46 283.46">
  <g>
    <g>
      <path d="M216.39,130.78h0a74.68,74.68,0,0,1-37.29,64.67v.08a74.71,74.71,0,0,1-37.37,64.71,74.73,74.73,0,1,0,74.66-129.47Z" fill="#00a550"/>
      <path d="M104.37,195.54a74.69,74.69,0,0,1-37.44-64.67,74.72,74.72,0,0,0,74.8,129.38A74.69,74.69,0,0,1,104.37,195.54Z" fill="#2e3091"/>
      <path d="M179.1,195.54v-.08a74.68,74.68,0,0,1-74.73.08,74.69,74.69,0,0,0,37.36,64.71A74.71,74.71,0,0,0,179.1,195.54Z" fill="#00aeef"/>
      <path d="M141.73,130.83a74.64,74.64,0,0,1,74.66-.05,74.73,74.73,0,0,0-149.46,0v.08a74.62,74.62,0,0,1,74.8,0Z" fill="#ec2124"/>
      <path d="M141.73,130.83a74.69,74.69,0,0,1,37.37,64.63,74.68,74.68,0,0,0,37.29-64.67h0a74.64,74.64,0,0,0-74.66.05Z" fill="#fced00"/>
      <path d="M104.37,195.54h0a74.67,74.67,0,0,1,37.36-64.71,74.62,74.62,0,0,0-74.8,0A74.69,74.69,0,0,0,104.37,195.54Z" fill="#ec008c"/>
      <path d="M141.73,130.83a74.67,74.67,0,0,0-37.36,64.71h0a74.68,74.68,0,0,0,74.73-.08A74.69,74.69,0,0,0,141.73,130.83Z" fill="#fff"/>
      <text transform="matrix(1, 0.03, -0.03, 1, 134.06, 102.56)" font-size="32" fill="#fff" font-family="Neusa-SemiBold, Neusa" font-weight="600">R</text>
      <text transform="matrix(1, 0.03, -0.03, 1, 201.35, 227.63)" font-size="32" fill="#fff" font-family="Neusa-SemiBold, Neusa" font-weight="600">G</text>
      <text transform="matrix(1, 0.03, -0.03, 1, 71.35, 227.64)" font-size="32" fill="#fff" font-family="Neusa-SemiBold, Neusa" font-weight="600">B</text>
    </g>
    <text transform="translate(62.27 40.4)" font-size="32" font-family="Neusa-Medium, Neusa" font-weight="500"><tspan letter-spacing="-0.03em">A</tspan><tspan x="16.1" y="0">dd</tspan><tspan x="41.25" y="0" letter-spacing="-0.02em">i</tspan><tspan x="45.82" y="0">ti</tspan><tspan x="61.12" y="0" letter-spacing="-0.04em">v</tspan><tspan x="74.05" y="0">e model</tspan></text>
  </g>
</svg>
