<?xml version="1.0" encoding="utf-8"?>
<!-- Generator: Adobe Illustrator 24.3.0, SVG Export Plug-In . SVG Version: 6.00 Build 0)  -->
<svg version="1.1" id="Layer_1" xmlns="http://www.w3.org/2000/svg" xmlns:xlink="http://www.w3.org/1999/xlink" x="0px" y="0px"
	 viewBox="0 0 283.5 283.5" style="enable-background:new 0 0 283.5 283.5;" xml:space="preserve">
<style type="text/css">
	.st0{fill:#00A550;}
	.st1{fill:#2E3091;}
	.st2{fill:#00AEEF;}
	.st3{fill:#EC2124;}
	.st4{fill:#FCED00;}
	.st5{fill:#EC008C;}
	.st6{fill:#FFFFFF;}
	.st7{enable-background:new    ;}
</style>
<g>
	<g>
		<path class="st0" d="M216.4,130.8c0,26.7-14.2,51.3-37.3,64.7v0.1c0,26.7-14.2,51.4-37.4,64.7c35.6,20.9,81.4,9.1,102.3-26.5
			s9.1-81.4-26.5-102.3C217.1,131.2,216.8,131,216.4,130.8L216.4,130.8z"/>
		<path class="st1" d="M104.4,195.5c-23.1-13.3-37.4-38-37.4-64.7C31.2,151.5,19,197.2,39.6,233s66.4,47.9,102.1,27.3
			C118.6,246.9,104.4,222.2,104.4,195.5z"/>
		<path class="st2" d="M179.1,195.5L179.1,195.5c-23.1,13.3-51.6,13.3-74.7,0c0,26.7,14.2,51.4,37.4,64.7
			C164.9,246.9,179.1,222.2,179.1,195.5z"/>
		<path class="st3" d="M141.7,130.8c23.1-13.4,51.6-13.4,74.7,0c0-41.3-33.5-74.7-74.7-74.7s-74.7,33.5-74.7,74.7v0.1
			C90.1,117.5,118.6,117.5,141.7,130.8L141.7,130.8z"/>
		<path class="st4" d="M141.7,130.8c23.1,13.3,37.3,38,37.4,64.6c23.1-13.4,37.3-38,37.3-64.7C193.3,117.5,164.8,117.5,141.7,130.8z
			"/>
		<path class="st5" d="M104.4,195.5c0-26.7,14.2-51.4,37.4-64.7c-23.1-13.4-51.7-13.4-74.8,0C66.9,157.5,81.2,182.2,104.4,195.5z"/>
		<path class="st6" d="M141.7,130.8c-23.1,13.3-37.4,38-37.4,64.7c23.1,13.3,51.6,13.3,74.7-0.1
			C179.1,168.8,164.8,144.2,141.7,130.8z"/>
		<path class="st6" d="M141.7,80.4c3.3,0.1,6.8,1.6,6.7,6.1l0,1.1c-0.1,2.9-1.8,4.3-3.8,5l3.6,10.4l-3-0.1l-3.2-9.6l-3.1-0.1
			l-0.3,9.5l-2.8-0.1l0.7-22.4L141.7,80.4z M145.6,86.8c0.1-2.8-1.8-3.7-3.6-3.7l-2.8-0.1l-0.2,7.5l2.8,0.1c1.8,0.1,3.8-0.7,3.8-3.5
			L145.6,86.8z"/>
		<path class="st6" d="M203.5,212.7c0.2-5.9,3.5-7.6,6.7-7.5c3.1,0.1,6.3,1.9,6.2,7.8l0,0.3l-2.8-0.1l0-0.2c0-3.7-1.6-5-3.5-5
			c-2-0.1-3.7,1.2-3.8,5.2l-0.2,6.9c-0.1,4,1.5,5.3,3.5,5.4c1.9,0.1,3.7-1.1,3.8-5.1l0.1-1.8l-3.5-0.1l0.1-2.7l6.3,0.2l-0.1,4.7
			c-0.2,6-3.5,7.6-6.7,7.6c-3.2-0.1-6.4-2-6.2-7.9L203.5,212.7z"/>
		<path class="st6" d="M79.2,205.5c3.1,0.1,6.4,1.6,6.2,5.5l0,1c-0.1,2.3-1.4,3.7-3.1,4.4c2.2,0.8,3.4,2.6,3.4,5.2l0,0.9
			c-0.1,3.7-2.8,5.6-6.9,5.5l-5.7-0.2l0.7-22.4L79.2,205.5z M82.8,221.3c0.1-2.3-1.4-3.6-3.8-3.7l-2.8-0.1L76,225l2.8,0.1
			c2.4,0.1,4-1,4-3.4L82.8,221.3z M82.7,211.5c0.1-2.3-1.7-3.3-3.6-3.4l-2.6-0.1l-0.2,6.9l2.6,0.1c2,0.1,3.7-0.8,3.8-3.1L82.7,211.5
			z"/>
	</g>
	<path d="M74,33.6h-6.3l-1.8,6.8h-2.1L69.5,18h2.6l5.8,22.4h-2.1L74,33.6z M73.7,31.5l-2.8-10.9L68,31.5H73.7z"/>
	<g class="st7">
		<path d="M89.5,18v22.4h-1.4l-0.2-2.1c-0.8,1.7-2.2,2.4-3.8,2.4c-2.2,0-4.4-1.3-4.4-5.6v-5.3c0-4.3,2.3-5.6,4.4-5.6
			c1.5,0,2.8,0.6,3.5,2.1V18H89.5z M81.5,34.2c0,3.9,1.4,4.9,3.1,4.9c1.7,0,3.1-1,3.1-4.9v-3.5c0-3.9-1.4-4.9-3.1-4.9
			c-1.6,0-3.1,1-3.1,4.9V34.2z"/>
		<path d="M102,18v22.4h-1.4l-0.2-2.1c-0.8,1.7-2.2,2.4-3.8,2.4c-2.2,0-4.4-1.3-4.4-5.6v-5.3c0-4.3,2.3-5.6,4.4-5.6
			c1.5,0,2.8,0.6,3.5,2.1V18H102z M94.1,34.2c0,3.9,1.4,4.9,3.1,4.9c1.7,0,3.1-1,3.1-4.9v-3.5c0-3.9-1.4-4.9-3.1-4.9
			c-1.6,0-3.1,1-3.1,4.9V34.2z"/>
	</g>
	<path d="M105.2,19.7h2.1v2h-2.1V19.7z M105.3,24.4h1.8v16h-1.8V24.4z"/>
	<g class="st7">
		<path d="M113.5,34.3c0,4.3,0.8,4.7,3,4.7h0.4v1.6h-0.8c-2.7,0-4.4-0.8-4.4-5.8V26h-2.4v-1.6h2.4v-4.9h1.8v4.9h3.4V26h-3.4V34.3z"
			/>
		<path d="M119.7,19.7h2.1v2h-2.1V19.7z M119.9,24.4h1.8v16h-1.8V24.4z"/>
	</g>
	<polygon points="136.5,24.4 131.5,40.4 129.5,40.4 124.6,24.4 126.4,24.4 130.5,37.7 134.6,24.4 	"/>
	<g class="st7">
		<path d="M137.6,29.7c0-4.3,2.5-5.6,4.9-5.6c2.3,0,4.9,1.3,4.9,5.6v3.5h-7.9v1.4c0,3.5,1.4,4.4,3.1,4.4c1.5,0,2.9-0.8,3.1-3.8h1.8
			c-0.1,4.2-2.6,5.4-4.9,5.4c-2.3,0-4.9-1.3-4.9-5.6V29.7z M145.6,30c0-3.4-1.5-4.3-3.1-4.3c-1.6,0-3.1,0.9-3.1,4.3v1.7h6.1V30z"/>
		<path d="M161.4,26.5c0.8-1.6,2.2-2.4,3.8-2.4c1.6,0,3.3,0.7,4,2.9c0.7-2,2.2-2.9,4-2.9c2.2,0,4.4,1.3,4.4,5.6v10.7h-1.8v-9.8
			c0-3.9-1.5-4.9-3.1-4.9c-1.5,0-2.8,0.7-3,3.5v11.1h-1.8v-9.8c0-3.9-1.5-4.9-3.1-4.9c-1.6,0-3.1,0.9-3.1,4.3v10.3h-1.8v-16h1.4
			L161.4,26.5z"/>
		<path d="M180.2,29.7c0-4.3,2.5-5.6,4.9-5.6s4.9,1.3,4.9,5.6V35c0,4.3-2.5,5.6-4.9,5.6s-4.9-1.3-4.9-5.6V29.7z M188.2,30.6
			c0-3.9-1.5-4.9-3.1-4.9c-1.7,0-3.1,1-3.1,4.9v3.5c0,3.9,1.3,4.9,3.1,4.9c1.7,0,3.1-1,3.1-4.9V30.6z"/>
		<path d="M202.4,18v22.4H201l-0.2-2.1c-0.8,1.7-2.2,2.4-3.8,2.4c-2.2,0-4.4-1.3-4.4-5.6v-5.3c0-4.3,2.3-5.6,4.4-5.6
			c1.5,0,2.8,0.6,3.5,2.1V18H202.4z M194.4,34.2c0,3.9,1.4,4.9,3.1,4.9c1.7,0,3.1-1,3.1-4.9v-3.5c0-3.9-1.4-4.9-3.1-4.9
			c-1.6,0-3.1,1-3.1,4.9V34.2z"/>
		<path d="M205.2,29.7c0-4.3,2.5-5.6,4.9-5.6c2.3,0,4.9,1.3,4.9,5.6v3.5H207v1.4c0,3.5,1.4,4.4,3.1,4.4c1.5,0,2.9-0.8,3.1-3.8h1.8
			c-0.1,4.2-2.6,5.4-4.9,5.4c-2.3,0-4.9-1.3-4.9-5.6V29.7z M213.1,30c0-3.4-1.5-4.3-3.1-4.3c-1.6,0-3.1,0.9-3.1,4.3v1.7h6.1V30z"/>
		<rect x="217.8" y="18" width="1.8" height="22.4"/>
	</g>
</g>
</svg>
