<?xml version="1.0" encoding="iso-8859-1"?>
<!-- Generator: Adobe Illustrator 19.0.0, SVG Export Plug-In . SVG Version: 6.00 Build 0)  -->
<svg version="1.1" id="Layer_1" xmlns="http://www.w3.org/2000/svg" xmlns:xlink="http://www.w3.org/1999/xlink" x="0px" y="0px"
	 viewBox="0 0 496 496" style="enable-background:new 0 0 496 496;" xml:space="preserve">
<path style="fill:#F74D19;" d="M12.8,24C5.6,24,0,29.6,0,36.8v317.6c0,7.2,5.6,12.8,12.8,12.8s12.8-5.6,12.8-12.8V36.8
	C25.6,29.6,19.2,24,12.8,24z"/>
<path style="fill:#FF7A17;" d="M71.2,89.6c-7.2,0-12.8,5.6-12.8,12.8v252c0,7.2,5.6,12.8,12.8,12.8c7.2,0,12.8-5.6,12.8-12.8v-252
	C84,95.2,78.4,89.6,71.2,89.6z"/>
<path style="fill:#F74D19;" d="M130.4,142.4c-7.2,0-12.8,5.6-12.8,12.8v200c0,7.2,5.6,12.8,12.8,12.8s12.8-5.6,12.8-12.8v-200
	C143.2,148,137.6,142.4,130.4,142.4z"/>
<path style="fill:#FF7A17;" d="M188.8,251.2c-7.2,0-12.8,5.6-12.8,12.8v90.4c0,7.2,5.6,12.8,12.8,12.8s12.8-5.6,12.8-12.8V264
	C201.6,256.8,196,251.2,188.8,251.2z"/>
<path style="fill:#F74D19;" d="M248,198.4c-7.2,0-12.8,5.6-12.8,12.8v143.2c0,7.2,5.6,12.8,12.8,12.8c7.2,0,12.8-5.6,12.8-12.8
	V211.2C260.8,204,255.2,198.4,248,198.4z"/>
<path style="fill:#FF7A17;" d="M307.2,156.8c-7.2,0-12.8,5.6-12.8,12.8v184.8c0,7.2,5.6,12.8,12.8,12.8c7.2,0,12.8-5.6,12.8-12.8
	V169.6C319.2,162.4,313.6,156.8,307.2,156.8z"/>
<path style="fill:#F74D19;" d="M365.6,60c-7.2,0-12.8,5.6-12.8,12.8v281.6c0,7.2,5.6,12.8,12.8,12.8s12.8-5.6,12.8-12.8V72.8
	C378.4,65.6,372.8,60,365.6,60z"/>
<path style="fill:#FF7A17;" d="M424.8,28.8c-7.2,0-12.8,5.6-12.8,12.8v312.8c0,7.2,5.6,12.8,12.8,12.8c7.2,0,12.8-5.6,12.8-12.8
	V40.8C436.8,34.4,431.2,28.8,424.8,28.8z"/>
<path style="fill:#F74D19;" d="M483.2,160.8c-7.2,0-12.8,5.6-12.8,12.8v180.8c0,7.2,5.6,12.8,12.8,12.8s12.8-5.6,12.8-12.8V173.6
	C496,166.4,490.4,160.8,483.2,160.8z"/>
<path style="fill:#717B7C;" d="M59.2,357.6v101.6c0,7.2,5.6,12.8,12.8,12.8c7.2,0,12.8-5.6,12.8-12.8V357.6H59.2z"/>
<g>
	<path style="fill:#3F4A4C;" d="M0,357.6v101.6c0,7.2,5.6,12.8,12.8,12.8s12.8-5.6,12.8-12.8V357.6H0z"/>
	<path style="fill:#3F4A4C;" d="M117.6,357.6v101.6c0,7.2,5.6,12.8,12.8,12.8s12.8-5.6,12.8-12.8V357.6H117.6z"/>
</g>
<path style="fill:#717B7C;" d="M176.8,357.6v101.6c0,7.2,5.6,12.8,12.8,12.8s12.8-5.6,12.8-12.8V357.6H176.8z"/>
<path style="fill:#3F4A4C;" d="M235.2,357.6v101.6c0,7.2,5.6,12.8,12.8,12.8c7.2,0,12.8-5.6,12.8-12.8V357.6H235.2z"/>
<path style="fill:#717B7C;" d="M294.4,357.6v101.6c0,7.2,5.6,12.8,12.8,12.8c7.2,0,12.8-5.6,12.8-12.8V357.6H294.4z"/>
<path style="fill:#3F4A4C;" d="M352.8,357.6v101.6c0,7.2,5.6,12.8,12.8,12.8s12.8-5.6,12.8-12.8V357.6H352.8z"/>
<path style="fill:#717B7C;" d="M412,357.6v101.6c0,7.2,5.6,12.8,12.8,12.8c7.2,0,12.8-5.6,12.8-12.8V357.6H412z"/>
<path style="fill:#3F4A4C;" d="M470.4,357.6v101.6c0,7.2,5.6,12.8,12.8,12.8s12.8-5.6,12.8-12.8V357.6H470.4z"/>
<g>
</g>
<g>
</g>
<g>
</g>
<g>
</g>
<g>
</g>
<g>
</g>
<g>
</g>
<g>
</g>
<g>
</g>
<g>
</g>
<g>
</g>
<g>
</g>
<g>
</g>
<g>
</g>
<g>
</g>
</svg>
