<?xml version="1.0" encoding="utf-8"?>
<!-- Generator: Adobe Illustrator 24.3.0, SVG Export Plug-In . SVG Version: 6.00 Build 0)  -->
<svg version="1.1" id="Layer_1" xmlns="http://www.w3.org/2000/svg" xmlns:xlink="http://www.w3.org/1999/xlink" x="0px" y="0px"
	 viewBox="0 0 283.5 283.5" enable-background="new 0 0 283.5 283.5" xml:space="preserve">
<g>
	<path fill="#EAEAEA" d="M75.3,194.7l-37.4,29.8c24.3,30.5,61.8,50,103.8,50v-47.8C114.9,226.7,90.9,214.2,75.3,194.7z"/>
	<path fill="#B3B3B3" d="M141.7,226.7v47.8c42,0,79.5-19.5,103.8-50l-37.4-29.8C192.6,214.2,168.6,226.7,141.7,226.7z"/>
	<path fill="#D9D9D8" d="M56.8,141.7c0-6.5,0.8-12.8,2.1-18.9l-46.7-10.6c-2.2,9.5-3.3,19.4-3.3,29.5c0,31.3,10.8,60.1,29,82.8
		l37.4-29.8C63.7,180.2,56.8,161.8,56.8,141.7z"/>
	<path fill="#EAEAEA" d="M104.9,65.2L84.1,22.1c-35.9,17.3-62.8,50.3-71.9,90.1l46.7,10.6C64.7,97.4,81.9,76.3,104.9,65.2z"/>
	<path fill="#D9D9D8" d="M226.7,141.7c0,20-7,38.4-18.5,53l37.4,29.8c18.1-22.7,29-51.5,29-82.8c0-10.2-1.1-20.1-3.3-29.6
		l-46.7,10.7C225.9,128.9,226.7,135.2,226.7,141.7z"/>
	<path fill="#B3B3B3" d="M199.4,22.1l-20.8,43.1c23,11.1,40.2,32.2,46,57.7l46.7-10.7C262.2,72.4,235.3,39.4,199.4,22.1z"/>
	<path fill="#D9D9D8" d="M141.7,56.8c13.2,0,25.7,3,36.9,8.4l20.8-43.1c-17.4-8.4-37-13.1-57.6-13.1c-20.7,0-40.2,4.7-57.6,13.1
		l20.8,43.1C116,59.8,128.5,56.8,141.7,56.8z"/>
</g>
<g>
	<g>
		<g>
			<path d="M127.2,32.9c-0.1-0.5-0.1-1.1-0.2-1.6c-0.1-0.5-0.1-1.1-0.2-1.7l-0.4-3c-0.1-0.6-0.2-1.2-0.2-1.8s-0.1-1.1-0.2-1.6
				l1.1,1.5l-1.3,0.2c-0.5,0.1-1,0.1-1.4,0.2c-0.4,0-0.8,0.1-1.2,0.1l-0.2-2l8.4-1l0.2,2c-0.4,0-0.8,0.1-1.2,0.1
				c-0.4,0-0.9,0.1-1.4,0.2l-1.3,0.2l0.7-1.8c0.1,0.5,0.1,1.1,0.2,1.6s0.1,1.1,0.2,1.8l0.4,3c0.1,0.6,0.1,1.2,0.2,1.7
				c0.1,0.5,0.1,1,0.2,1.6L127.2,32.9z"/>
			<path d="M136.9,32.2c-0.6,0-1.2,0-1.7-0.2c-0.5-0.2-0.9-0.4-1.2-0.8c-0.3-0.3-0.6-0.7-0.7-1.2c-0.2-0.4-0.3-0.9-0.3-1.4
				c0-0.7,0.1-1.3,0.3-1.9s0.7-1,1.2-1.4s1.2-0.5,2-0.6c0.6,0,1.2,0,1.7,0.2s0.9,0.4,1.2,0.7s0.6,0.7,0.8,1.2
				c0.2,0.4,0.3,0.9,0.3,1.4c0,0.7-0.1,1.4-0.3,1.9s-0.7,1-1.2,1.4C138.4,32,137.7,32.2,136.9,32.2z M136.8,30.5
				c0.4,0,0.6-0.1,0.9-0.3s0.4-0.5,0.5-0.8c0.1-0.3,0.1-0.6,0.1-1c0-0.4-0.1-0.8-0.2-1.1c-0.1-0.3-0.3-0.5-0.6-0.7
				c-0.2-0.1-0.5-0.2-0.8-0.2c-0.3,0-0.6,0.1-0.9,0.3c-0.2,0.2-0.4,0.4-0.5,0.7s-0.2,0.6-0.1,1c0,0.3,0.1,0.7,0.2,1
				c0.1,0.3,0.3,0.5,0.6,0.7S136.5,30.5,136.8,30.5z"/>
			<path d="M141.8,31.9c0-0.5,0-1,0-1.5s0-1,0-1.6l0-0.7c0-0.5,0-1.1,0-1.6s0-1.1,0-1.7l1.8-0.1l0.1,1.2l0.2,0
				c0.2-0.2,0.4-0.4,0.6-0.6c0.2-0.2,0.5-0.3,0.8-0.5c0.3-0.1,0.6-0.2,1-0.2c0.7,0,1.2,0.2,1.6,0.7s0.5,1.1,0.5,1.9
				c0,0.3,0,0.6,0,0.9c0,0.3,0,0.5,0,0.8c0,0.6,0,1.1,0,1.6c0,0.5,0,1,0,1.5l-2.1-0.1c0-0.5,0-1,0-1.5s0-1,0-1.5l0-1.1
				c0-0.4,0-0.7-0.2-0.9c-0.1-0.2-0.4-0.3-0.7-0.3c-0.2,0-0.4,0-0.6,0.1c-0.2,0.1-0.3,0.2-0.5,0.3c-0.1,0.1-0.3,0.3-0.4,0.5l0,1.5
				c0,0.5,0,1,0,1.5c0,0.5,0,1,0,1.5L141.8,31.9z"/>
			<path d="M149.9,32.2c0-0.5,0.1-1,0.1-1.5c0-0.5,0.1-1,0.1-1.6l0.1-0.7c0-0.5,0.1-0.9,0.1-1.3c0-0.4,0.1-0.7,0.1-1s0.1-0.7,0.1-1
				l2.1,0.1c0,0.3-0.1,0.7-0.1,1c0,0.3-0.1,0.7-0.1,1.1s-0.1,0.8-0.1,1.3l-0.1,0.7c0,0.6-0.1,1.1-0.1,1.6s-0.1,1-0.1,1.5L149.9,32.2
				z M151.6,24.1c-0.4,0-0.7-0.2-0.9-0.4c-0.2-0.2-0.3-0.5-0.3-0.9c0-0.4,0.2-0.7,0.4-0.8c0.2-0.2,0.6-0.3,1-0.2
				c0.4,0,0.7,0.2,0.9,0.4s0.3,0.5,0.3,0.9c0,0.4-0.2,0.7-0.4,0.9C152.4,24.1,152,24.2,151.6,24.1z"/>
			<path d="M157,33.1c-0.8-0.1-1.5-0.4-2-0.7c-0.5-0.4-0.9-0.9-1.1-1.5c-0.2-0.6-0.3-1.2-0.2-1.9c0.1-0.7,0.3-1.3,0.7-1.8
				c0.3-0.5,0.8-0.9,1.4-1.2c0.6-0.3,1.3-0.3,2-0.2c0.3,0,0.6,0.1,0.8,0.2c0.3,0.1,0.5,0.2,0.8,0.3c0.2,0.1,0.4,0.2,0.6,0.4
				l-0.4,1.8c-0.2-0.2-0.5-0.3-0.7-0.4c-0.2-0.1-0.4-0.2-0.6-0.2c-0.2,0-0.3-0.1-0.5-0.1c-0.5-0.1-1,0-1.3,0.3
				c-0.4,0.3-0.6,0.7-0.7,1.3c-0.1,0.4,0,0.7,0.1,1.1c0.1,0.3,0.3,0.6,0.6,0.8c0.3,0.2,0.7,0.3,1.1,0.4c0.2,0,0.3,0,0.5,0
				c0.2,0,0.4,0,0.5-0.1s0.4-0.1,0.5-0.2l-0.1,1.8c-0.2,0-0.4,0.1-0.6,0.1c-0.2,0-0.5,0-0.7,0C157.6,33.2,157.3,33.2,157,33.1z"/>
		</g>
	</g>
	<g>
		<g>
			<path d="M206.6,53.3c-0.3-0.2-0.7-0.5-1-0.8c-0.3-0.3-0.6-0.6-0.8-1s-0.4-0.6-0.6-0.8l1.3-1.6c0.2,0.3,0.3,0.7,0.6,1
				c0.2,0.3,0.4,0.6,0.7,0.9c0.2,0.3,0.5,0.5,0.8,0.7c0.3,0.2,0.5,0.3,0.7,0.4c0.2,0.1,0.5,0.1,0.7,0c0.2-0.1,0.4-0.2,0.5-0.4
				c0.2-0.2,0.2-0.4,0.2-0.7s-0.1-0.5-0.3-0.8c-0.2-0.3-0.4-0.6-0.7-1c-0.4-0.5-0.7-1-0.9-1.4s-0.3-0.9-0.3-1.3
				c0-0.4,0.2-0.9,0.6-1.4c0.4-0.5,0.8-0.8,1.2-1c0.5-0.2,1-0.3,1.6-0.2c0.6,0.1,1.2,0.4,1.8,0.9c0.3,0.2,0.5,0.4,0.7,0.6
				c0.2,0.2,0.5,0.4,0.7,0.7s0.4,0.5,0.5,0.7c0.2,0.2,0.3,0.4,0.4,0.6l-1.4,1.6c-0.1-0.3-0.3-0.6-0.5-0.9c-0.2-0.3-0.4-0.6-0.6-0.8
				c-0.2-0.2-0.4-0.4-0.6-0.6c-0.2-0.2-0.5-0.3-0.7-0.4c-0.2-0.1-0.5-0.1-0.7,0c-0.2,0-0.4,0.2-0.5,0.3c-0.1,0.2-0.2,0.4-0.2,0.6
				c0,0.2,0.1,0.4,0.2,0.7c0.1,0.3,0.4,0.6,0.6,0.9c0.5,0.7,0.9,1.3,1.1,1.7c0.2,0.5,0.3,0.9,0.2,1.4c-0.1,0.4-0.3,0.8-0.6,1.3
				c-0.4,0.5-0.8,0.9-1.3,1.1c-0.5,0.2-1,0.3-1.7,0.1C208,54.2,207.3,53.8,206.6,53.3z"/>
			<path d="M212.1,57.6c-0.5-0.5-0.8-1-0.8-1.5c0-0.6,0.3-1.1,0.8-1.8c0.2-0.2,0.4-0.4,0.5-0.6c0.2-0.2,0.3-0.4,0.5-0.5
				c0.3-0.4,0.6-0.7,0.8-0.9c0.2-0.3,0.5-0.5,0.7-0.8c0.2-0.2,0.4-0.5,0.6-0.7l1.7,1.3c-0.3,0.4-0.7,0.8-1,1.1
				c-0.3,0.4-0.6,0.8-1,1.2l-0.8,0.9c-0.3,0.3-0.4,0.6-0.5,0.8c0,0.2,0.1,0.5,0.4,0.7c0.1,0.1,0.3,0.2,0.5,0.3c0.2,0,0.4,0.1,0.6,0
				c0.2,0,0.4-0.1,0.6-0.1l1-1.1c0.3-0.4,0.7-0.8,1-1.1c0.3-0.4,0.6-0.7,0.9-1.1l1.6,1.4c-0.3,0.4-0.6,0.8-1,1.1
				c-0.3,0.4-0.7,0.8-1.1,1.3l-0.5,0.6c-0.4,0.4-0.7,0.8-1,1.2c-0.3,0.4-0.6,0.7-1,1.1l-1.4-1.2l0.7-0.9l-0.1-0.1
				c-0.3,0.1-0.5,0.1-0.9,0.1c-0.3,0-0.6,0-0.9-0.1C212.7,58,212.4,57.9,212.1,57.6z"/>
			<path d="M214.7,63.3c0.4-0.4,0.7-0.7,1.1-1.1c0.4-0.4,0.7-0.7,1.1-1.2l2.4-2.4c0.4-0.4,0.8-0.8,1.2-1.2c0.4-0.4,0.8-0.8,1.2-1.2
				l1.4,1.2l-0.6,0.7l0.1,0.1c0.3-0.1,0.5-0.1,0.8,0c0.3,0,0.5,0.1,0.7,0.2c0.2,0.1,0.5,0.3,0.7,0.5c0.4,0.4,0.7,0.9,0.8,1.5
				c0.1,0.5,0,1.1-0.3,1.6c-0.2,0.6-0.6,1.1-1.1,1.6c-0.5,0.5-1,0.8-1.5,1.1c-0.5,0.3-1.1,0.4-1.6,0.3c-0.5,0-1-0.3-1.5-0.8
				c-0.2-0.2-0.4-0.4-0.5-0.6c-0.1-0.2-0.2-0.4-0.2-0.7c0-0.2,0-0.5,0-0.7l-0.1-0.1l-0.4,0.4c-0.4,0.4-0.7,0.7-1,1.1
				c-0.3,0.3-0.7,0.7-1,1L214.7,63.3z M220.2,62.6c0.2,0.2,0.5,0.4,0.8,0.4s0.6,0,0.8-0.2s0.5-0.3,0.8-0.6c0.2-0.2,0.4-0.5,0.6-0.8
				c0.1-0.3,0.2-0.6,0.1-0.8c0-0.3-0.2-0.5-0.4-0.8c-0.1-0.1-0.2-0.2-0.4-0.3c-0.1-0.1-0.3-0.1-0.5-0.1c-0.2,0-0.3,0-0.5,0l-1.7,1.7
				c-0.1,0.2-0.1,0.3-0.1,0.5c0,0.2,0,0.3,0.1,0.5C219.9,62.3,220,62.4,220.2,62.6z"/>
			<path d="M224.6,70c-0.6-0.7-1-1.4-1.1-2c-0.1-0.6-0.1-1.3,0.2-1.8c0.2-0.6,0.6-1.1,1.2-1.6c0.5-0.5,1.1-0.8,1.7-1
				c0.6-0.2,1.2-0.2,1.7,0c0.6,0.2,1.1,0.5,1.6,1.1c0.4,0.5,0.7,1,0.8,1.5c0.1,0.5,0.1,1-0.1,1.5c-0.2,0.5-0.5,1-1.1,1.4
				c-0.1,0.1-0.3,0.2-0.4,0.3c-0.1,0.1-0.2,0.2-0.4,0.2l-0.7-1.8c0.1,0,0.1-0.1,0.2-0.1c0.1,0,0.1-0.1,0.1-0.1
				c0.4-0.3,0.6-0.6,0.6-1c0.1-0.3,0-0.7-0.3-0.9c-0.2-0.2-0.4-0.3-0.6-0.4c-0.3-0.1-0.5,0-0.8,0.1c-0.3,0.1-0.6,0.3-0.9,0.5
				l-0.3,0.2c-0.3,0.3-0.5,0.6-0.6,0.9c-0.1,0.3-0.1,0.6-0.1,1c0.1,0.3,0.3,0.7,0.6,1.1c0.1,0.1,0.3,0.3,0.5,0.5
				c0.2,0.2,0.4,0.3,0.6,0.5c0.2,0.1,0.5,0.3,0.7,0.4l-1.3,1.2c-0.2-0.1-0.4-0.2-0.6-0.3c-0.2-0.1-0.4-0.3-0.7-0.5
				C225.1,70.5,224.9,70.2,224.6,70z M225.1,65.4l0.8-0.7l3,3.2l0.6,1.2l-0.7,0.6L225.1,65.4z"/>
			<path d="M227.2,72.7c0.4-0.3,0.8-0.6,1.2-0.9c0.4-0.3,0.8-0.6,1.2-1l0.6-0.4c0.4-0.3,0.9-0.7,1.3-1c0.4-0.3,0.9-0.7,1.3-1
				l1.2,1.3l-1,0.9l0.1,0.1c0.4-0.1,0.8-0.1,1.1-0.1c0.3,0,0.5,0.1,0.7,0.3c0.2,0.1,0.4,0.3,0.5,0.5c0.1,0.1,0.1,0.2,0.2,0.3
				c0.1,0.1,0.1,0.2,0.2,0.4l-1.7,1.1c-0.1-0.2-0.2-0.3-0.3-0.4s-0.2-0.2-0.3-0.4c-0.1-0.1-0.2-0.2-0.3-0.3
				c-0.1-0.1-0.2-0.2-0.4-0.2c-0.1-0.1-0.3-0.1-0.5-0.1c-0.2,0-0.4,0-0.6,0.1l-0.8,0.6c-0.4,0.3-0.8,0.6-1.2,0.9
				c-0.4,0.3-0.7,0.6-1.1,0.9L227.2,72.7z"/>
			<path d="M232.3,79.9c-0.3-0.4-0.5-0.8-0.6-1.2c-0.1-0.4,0-0.8,0.1-1.1c0.2-0.4,0.5-0.7,1-1c0.3-0.2,0.5-0.4,0.8-0.5
				s0.5-0.4,0.8-0.6c0.3-0.2,0.6-0.4,0.9-0.6c0.3-0.2,0.7-0.5,1-0.7c0.4-0.3,0.8-0.6,1.2-0.8c0.4-0.3,0.7-0.5,1.1-0.8l1.5,1.5
				c-0.3,0.2-0.6,0.4-0.9,0.6c-0.3,0.2-0.5,0.4-0.8,0.6c-0.3,0.2-0.6,0.4-0.9,0.7l-3,2.1c-0.4,0.2-0.6,0.5-0.7,0.8
				c-0.1,0.3,0,0.5,0.2,0.8c0.1,0.1,0.2,0.2,0.4,0.4c0.1,0.1,0.3,0.2,0.5,0.3l-1.3,1.1c-0.1-0.1-0.3-0.1-0.4-0.3
				c-0.2-0.1-0.3-0.3-0.5-0.4C232.5,80.2,232.4,80,232.3,79.9z M234.8,73.6l1.3-0.9l3.1,4.4l-1.3,0.9c-0.3-0.4-0.5-0.7-0.8-1.1
				c-0.3-0.4-0.5-0.7-0.7-1.1l-0.5-0.8L234.8,73.6z"/>
			<path d="M235.6,85.1c-0.3-0.6-0.5-1.1-0.6-1.6c-0.1-0.5,0-1,0.1-1.4c0.1-0.4,0.4-0.9,0.7-1.2c0.3-0.4,0.7-0.7,1.1-0.9
				c0.6-0.4,1.2-0.6,1.8-0.6c0.6,0,1.2,0.1,1.8,0.4c0.6,0.3,1.1,0.8,1.5,1.5c0.3,0.5,0.5,1,0.6,1.5c0.1,0.5,0.1,1-0.1,1.4
				c-0.1,0.4-0.3,0.8-0.6,1.2c-0.3,0.4-0.7,0.7-1.1,1c-0.6,0.4-1.2,0.6-1.9,0.6c-0.6,0-1.2-0.1-1.8-0.4
				C236.5,86.2,236,85.8,235.6,85.1z M237.1,84.2c0.2,0.3,0.4,0.5,0.7,0.6c0.3,0.1,0.6,0.1,0.9,0.1s0.6-0.2,0.9-0.4
				c0.4-0.2,0.6-0.5,0.8-0.7c0.2-0.3,0.3-0.5,0.3-0.8c0-0.3-0.1-0.6-0.2-0.8c-0.2-0.3-0.4-0.5-0.7-0.6c-0.3-0.1-0.6-0.1-0.9-0.1
				c-0.3,0.1-0.6,0.2-1,0.4c-0.3,0.2-0.5,0.4-0.7,0.7c-0.2,0.3-0.3,0.5-0.4,0.8C236.8,83.6,236.9,83.9,237.1,84.2z"/>
			<path d="M238.3,89.2c0.5-0.2,0.9-0.5,1.3-0.7c0.4-0.2,0.9-0.5,1.4-0.7l0.6-0.3c0.5-0.2,1-0.5,1.5-0.7c0.5-0.2,1-0.5,1.5-0.8
				l0.9,1.5l-1.1,0.6l0.1,0.2c0.3,0,0.6,0.1,0.8,0.2c0.3,0.1,0.5,0.3,0.8,0.5c0.2,0.2,0.5,0.5,0.6,0.8c0.3,0.6,0.4,1.2,0.2,1.7
				c-0.2,0.5-0.7,1-1.4,1.3c-0.3,0.1-0.5,0.3-0.8,0.4c-0.2,0.1-0.5,0.2-0.7,0.4c-0.5,0.3-1,0.5-1.4,0.7c-0.4,0.2-0.9,0.4-1.3,0.7
				l-1-1.9c0.5-0.2,0.9-0.5,1.3-0.7c0.4-0.2,0.9-0.4,1.3-0.7l1-0.5c0.4-0.2,0.6-0.4,0.7-0.6c0.1-0.2,0.1-0.5-0.1-0.8
				c-0.1-0.2-0.2-0.3-0.4-0.4c-0.2-0.1-0.3-0.2-0.5-0.3c-0.2-0.1-0.4-0.1-0.6-0.1l-1.3,0.7c-0.5,0.2-0.9,0.5-1.3,0.7
				c-0.4,0.2-0.8,0.4-1.3,0.7L238.3,89.2z"/>
			<path d="M241.8,96.5c0.5-0.2,0.9-0.4,1.3-0.6c0.4-0.2,0.9-0.4,1.5-0.6l0.6-0.3c0.4-0.2,0.8-0.4,1.2-0.5c0.3-0.1,0.7-0.3,1-0.4
				c0.3-0.1,0.6-0.3,0.9-0.4l0.9,1.9c-0.3,0.1-0.6,0.3-0.9,0.4c-0.3,0.1-0.6,0.3-1,0.4c-0.3,0.2-0.7,0.3-1.2,0.5l-0.6,0.3
				c-0.5,0.2-1,0.5-1.5,0.6c-0.4,0.2-0.9,0.4-1.3,0.6L241.8,96.5z M249.7,94.1c-0.2-0.4-0.2-0.7-0.1-1c0.1-0.3,0.3-0.5,0.7-0.7
				c0.3-0.2,0.7-0.2,0.9,0c0.3,0.1,0.5,0.4,0.7,0.8c0.2,0.4,0.2,0.7,0.1,1c-0.1,0.3-0.3,0.5-0.6,0.7c-0.4,0.2-0.7,0.2-1,0
				C250.1,94.7,249.9,94.5,249.7,94.1z"/>
			<path d="M244.4,103.1c-0.3-0.7-0.4-1.4-0.3-2.1c0.1-0.6,0.4-1.2,0.8-1.7c0.4-0.5,0.9-0.8,1.6-1.1c0.7-0.3,1.3-0.4,1.9-0.3
				c0.6,0.1,1.2,0.3,1.7,0.7c0.5,0.4,0.9,0.9,1.2,1.7c0.1,0.3,0.2,0.5,0.2,0.8c0.1,0.3,0.1,0.5,0.1,0.8c0,0.3,0,0.5,0,0.7l-1.8,0.5
				c0-0.3,0.1-0.6,0.1-0.8c0-0.2,0-0.4-0.1-0.6c0-0.2-0.1-0.3-0.1-0.5c-0.2-0.5-0.5-0.8-0.9-1c-0.4-0.2-0.9-0.2-1.5,0
				c-0.4,0.1-0.7,0.3-0.9,0.6c-0.2,0.3-0.4,0.6-0.4,0.9c0,0.4,0,0.7,0.2,1.2c0.1,0.2,0.1,0.3,0.2,0.5c0.1,0.2,0.2,0.3,0.3,0.4
				c0.1,0.1,0.3,0.3,0.4,0.4l-1.7,0.8c-0.1-0.1-0.2-0.3-0.4-0.5c-0.1-0.2-0.3-0.4-0.4-0.6C244.7,103.7,244.5,103.4,244.4,103.1z"/>
		</g>
	</g>
	<g>
		<g>
			<path d="M246.9,196.1c-0.5-0.3-1-0.6-1.5-0.9c-0.5-0.3-1-0.6-1.6-1l-3.1-1.9c-0.6-0.3-1.1-0.7-1.6-1c-0.5-0.3-1-0.6-1.6-0.9
				l1-2.3c0.7,0,1.3,0.1,1.9,0.1c0.6,0,1.2,0.1,1.8,0.1l3.6,0.2l0.1-0.2l-2.5-2.5c-0.4-0.4-0.9-0.8-1.3-1.3
				c-0.4-0.4-0.9-0.9-1.4-1.3l1-2.3c0.6,0.2,1.2,0.4,1.7,0.5c0.6,0.2,1.2,0.4,1.8,0.5l3.5,1.1c0.6,0.2,1.2,0.4,1.8,0.5
				c0.5,0.2,1.1,0.3,1.6,0.5l-1,2.2c-0.7-0.2-1.4-0.4-2.1-0.6c-0.7-0.2-1.3-0.4-1.9-0.6l-2.5-0.8l-0.1,0.2l2.1,2
				c0.5,0.5,1.1,1,1.6,1.5c0.5,0.5,1,0.9,1.5,1.4l-0.7,1.5c-0.4,0-0.8-0.1-1.3-0.1c-0.5,0-0.9-0.1-1.4-0.1c-0.5,0-1-0.1-1.4-0.1
				l-3-0.2l-0.1,0.2l2.2,1.3c0.5,0.3,1.1,0.6,1.7,1c0.6,0.4,1.2,0.7,1.9,1.1L246.9,196.1z"/>
			<path d="M254.3,178.2c-0.3,0.9-0.7,1.6-1.2,2.1c-0.5,0.5-1.1,0.8-1.8,0.9c-0.7,0.1-1.4,0-2.1-0.2c-0.7-0.2-1.4-0.6-1.8-1
				c-0.5-0.5-0.8-1-0.9-1.6c-0.1-0.6-0.1-1.3,0.2-2.1c0.2-0.7,0.5-1.2,0.9-1.6c0.4-0.4,0.9-0.6,1.4-0.7c0.6-0.1,1.2,0,1.9,0.2
				c0.2,0.1,0.4,0.1,0.5,0.2c0.1,0.1,0.3,0.1,0.4,0.2l-1.3,1.6c-0.1,0-0.1-0.1-0.2-0.1c-0.1,0-0.1-0.1-0.2-0.1
				c-0.5-0.2-0.9-0.2-1.3,0s-0.6,0.4-0.7,0.8c-0.1,0.3-0.1,0.5,0,0.8c0.1,0.3,0.3,0.5,0.5,0.7c0.2,0.2,0.6,0.4,1,0.5l0.4,0.1
				c0.4,0.1,0.8,0.2,1.2,0.1c0.4-0.1,0.7-0.2,0.9-0.5s0.5-0.6,0.6-1.1c0.1-0.2,0.1-0.4,0.2-0.7c0-0.3,0.1-0.5,0.1-0.8
				c0-0.3,0-0.6,0-0.8l1.8,0.5c0,0.2,0,0.5,0,0.7c0,0.3,0,0.6-0.1,0.9C254.5,177.5,254.4,177.9,254.3,178.2z M249.8,180.3l-1.2-0.4
				l1.4-4.5l0.8-1.1l0.9,0.3L249.8,180.3z"/>
			<path d="M256.4,171.1c-0.2,0.7-0.5,1.2-1,1.5c-0.5,0.3-1,0.6-1.7,0.6s-1.3,0-2-0.2c-0.7-0.2-1.4-0.5-1.9-0.8
				c-0.5-0.4-0.9-0.8-1.1-1.3c-0.2-0.5-0.3-1.1-0.1-1.8c0.1-0.3,0.2-0.6,0.3-0.8c0.1-0.2,0.3-0.4,0.5-0.6c0.2-0.2,0.4-0.3,0.6-0.4
				l0-0.2l-0.7-0.2c-0.6-0.1-1.2-0.3-1.8-0.4c-0.6-0.1-1.2-0.3-1.8-0.4l0.4-2.3c0.6,0.1,1.2,0.3,1.8,0.4s1.3,0.3,1.9,0.5l4.1,1
				c0.6,0.2,1.2,0.3,1.7,0.4c0.5,0.1,1,0.2,1.5,0.4l-0.5,1.9l-1-0.1l0,0.2c0.2,0.2,0.4,0.5,0.5,0.8c0.1,0.3,0.2,0.5,0.2,0.8
				C256.5,170.5,256.5,170.8,256.4,171.1z M254.7,169.8c0-0.2,0.1-0.4,0-0.6c0-0.2-0.1-0.4-0.2-0.5c-0.1-0.2-0.2-0.3-0.4-0.4
				l-2.5-0.6c-0.2,0.1-0.3,0.2-0.4,0.3c-0.1,0.1-0.2,0.2-0.3,0.4c-0.1,0.2-0.2,0.3-0.2,0.5c-0.1,0.3-0.1,0.7,0.1,0.9
				c0.1,0.3,0.3,0.5,0.6,0.7c0.3,0.2,0.6,0.3,1,0.4c0.3,0.1,0.7,0.1,1,0.1c0.3,0,0.6-0.1,0.9-0.3
				C254.5,170.4,254.6,170.2,254.7,169.8z"/>
			<path d="M249.2,161.8c-0.1,0.4-0.2,0.7-0.5,0.9c-0.2,0.2-0.6,0.3-1,0.2c-0.4-0.1-0.7-0.3-0.8-0.5c-0.2-0.3-0.2-0.6-0.1-1.1
				s0.3-0.7,0.5-0.9c0.3-0.2,0.6-0.3,1-0.2c0.4,0.1,0.7,0.3,0.9,0.5C249.3,161.1,249.3,161.4,249.2,161.8z M257.7,164.6
				c-0.5-0.1-1.1-0.2-1.6-0.3c-0.5-0.1-1.1-0.2-1.7-0.3l-0.8-0.1c-0.5-0.1-0.9-0.2-1.3-0.2c-0.4-0.1-0.8-0.1-1.1-0.2
				c-0.3-0.1-0.7-0.1-1.1-0.2l0.4-2.3c0.4,0.1,0.7,0.1,1.1,0.2c0.4,0.1,0.7,0.1,1.1,0.2c0.4,0.1,0.9,0.2,1.4,0.3l0.8,0.1
				c0.6,0.1,1.2,0.2,1.7,0.3c0.5,0.1,1,0.2,1.6,0.3L257.7,164.6z"/>
			<path d="M258.9,158.4c-0.1,0.4-0.2,0.8-0.4,1.1c-0.2,0.3-0.5,0.5-0.9,0.7c-0.4,0.1-0.8,0.2-1.2,0.1c-0.4-0.1-0.8-0.2-1.1-0.4
				c-0.3-0.2-0.5-0.4-0.6-0.7c-0.2-0.3-0.3-0.5-0.3-0.8c-0.1-0.3-0.1-0.6-0.1-0.9l-0.1-2.1c-0.3-0.1-0.5,0-0.7,0.1
				c-0.2,0.1-0.3,0.3-0.4,0.5c-0.1,0.2-0.2,0.5-0.2,0.8c0,0.2,0,0.4,0,0.6c0,0.2,0,0.4,0,0.7c0,0.2,0.1,0.5,0.1,0.7
				c0.1,0.2,0.1,0.5,0.2,0.7l-1.9-0.1c0-0.2-0.1-0.4-0.1-0.7c0-0.3-0.1-0.5-0.1-0.8c0-0.3,0-0.6,0-0.9c0-0.3,0-0.6,0.1-1
				c0.1-0.6,0.2-1.2,0.5-1.6c0.2-0.4,0.6-0.7,1-0.9c0.4-0.2,1-0.2,1.6-0.2c0.2,0,0.5,0.1,0.9,0.1c0.4,0,0.7,0.1,1,0.1l0.7,0.1
				c0.4,0.1,0.8,0.1,1.2,0.2s0.8,0.1,1.3,0.2l-0.3,1.9l-1,0l0,0.2c0.2,0.2,0.3,0.4,0.5,0.6c0.2,0.2,0.3,0.5,0.4,0.8
				C258.9,157.7,258.9,158,258.9,158.4z M257.3,157.2c0-0.2,0-0.4-0.1-0.5c-0.1-0.2-0.2-0.4-0.3-0.5c-0.1-0.2-0.3-0.3-0.5-0.5
				l-1.2-0.2c0,0.1,0.1,0.1,0.1,0.2c0,0.1,0,0.2,0.1,0.4c0,0.2,0,0.4,0.1,0.8c0,0.2,0.1,0.3,0.1,0.5c0.1,0.1,0.2,0.3,0.3,0.3
				c0.1,0.1,0.3,0.1,0.5,0.2c0.3,0,0.5,0,0.7-0.2C257.2,157.6,257.2,157.4,257.3,157.2z"/>
			<path d="M259.5,151.6c-0.5,0-1.1-0.1-1.6-0.1c-0.5,0-1.1-0.1-1.7-0.1l-0.8,0c-0.6,0-1.2-0.1-1.8-0.1c-0.6,0-1.2-0.1-1.8-0.1
				l0-1.9l1.3,0l0-0.2c-0.2-0.2-0.5-0.4-0.7-0.7c-0.2-0.3-0.4-0.5-0.5-0.9c-0.1-0.3-0.2-0.7-0.1-1.1c0-0.8,0.3-1.3,0.8-1.7
				s1.2-0.5,2-0.5c0.3,0,0.6,0,0.9,0.1c0.3,0,0.6,0,0.9,0c0.6,0,1.2,0.1,1.7,0.1c0.5,0,1,0.1,1.6,0.1l-0.1,2.3
				c-0.5,0-1.1-0.1-1.6-0.1c-0.5,0-1-0.1-1.6-0.1l-1.2-0.1c-0.4,0-0.8,0-1,0.2c-0.2,0.1-0.4,0.4-0.4,0.8c0,0.2,0,0.4,0.1,0.6
				c0.1,0.2,0.2,0.4,0.3,0.5c0.1,0.2,0.3,0.3,0.5,0.4l1.6,0.1c0.6,0,1.1,0.1,1.6,0.1c0.5,0,1,0.1,1.6,0.1L259.5,151.6z"/>
			<path d="M260.1,139.1c0,0.6-0.1,1-0.2,1.4c-0.2,0.4-0.4,0.7-0.8,0.9c-0.4,0.2-0.9,0.3-1.5,0.3c-0.3,0-0.7,0-1,0
				c-0.3,0-0.7,0-1.1,0c-0.4,0-0.8,0-1.2,0c-0.4,0-0.9,0-1.4,0c-0.6,0-1.1,0-1.6,0c-0.5,0-1,0-1.5,0l-0.4-2.2c0.4,0,0.8,0,1.1,0
				c0.4,0,0.7,0,1.1,0c0.4,0,0.8,0,1.2,0l4-0.1c0.5,0,0.8-0.1,1.1-0.3c0.2-0.2,0.4-0.5,0.4-0.8c0-0.2,0-0.3-0.1-0.5
				c-0.1-0.2-0.2-0.4-0.3-0.6l1.8-0.2c0.1,0.1,0.2,0.3,0.2,0.5s0.1,0.4,0.1,0.7C260.1,138.6,260.1,138.9,260.1,139.1z M254,143.1
				l-1.7,0l-0.1-5.7l1.7,0c0,0.5,0,1,0,1.4c0,0.5,0,0.9,0,1.4l0,1L254,143.1z"/>
		</g>
	</g>
	<g>
		<g>
			<path d="M42.9,94.3c-0.2,0.4-0.4,0.7-0.7,1.1c-0.3,0.4-0.5,0.7-0.8,1c-0.3,0.3-0.5,0.5-0.7,0.7l-1.8-1c0.3-0.2,0.6-0.5,0.9-0.7
				c0.3-0.3,0.5-0.5,0.7-0.8c0.2-0.3,0.4-0.6,0.5-0.9c0.1-0.3,0.2-0.6,0.3-0.8c0-0.3,0-0.5-0.1-0.7c-0.1-0.2-0.3-0.3-0.5-0.5
				c-0.2-0.1-0.5-0.1-0.7-0.1c-0.2,0.1-0.5,0.2-0.7,0.5c-0.3,0.2-0.5,0.5-0.8,0.9c-0.4,0.5-0.8,0.9-1.2,1.1
				c-0.4,0.3-0.8,0.5-1.3,0.5c-0.4,0-0.9-0.1-1.5-0.3c-0.5-0.3-1-0.6-1.2-1c-0.3-0.4-0.4-0.9-0.4-1.5c0-0.6,0.2-1.2,0.5-2
				c0.1-0.3,0.3-0.6,0.5-0.8s0.4-0.5,0.5-0.8s0.4-0.5,0.6-0.7c0.2-0.2,0.4-0.4,0.5-0.5l1.8,1.1c-0.3,0.2-0.6,0.4-0.8,0.6
				s-0.5,0.5-0.7,0.7c-0.2,0.3-0.4,0.5-0.5,0.7c-0.1,0.3-0.2,0.5-0.2,0.8c0,0.2,0,0.5,0.1,0.7c0.1,0.2,0.2,0.3,0.4,0.4
				c0.2,0.1,0.4,0.1,0.6,0.1c0.2,0,0.4-0.2,0.6-0.4c0.2-0.2,0.5-0.5,0.8-0.8c0.6-0.6,1.1-1.1,1.5-1.4s0.9-0.5,1.3-0.5
				c0.4,0,0.9,0.1,1.4,0.3c0.6,0.3,1,0.6,1.3,1.1c0.3,0.4,0.4,1,0.4,1.6C43.5,92.7,43.3,93.4,42.9,94.3z"/>
			<path d="M46.1,88.1c-0.4,0.6-0.8,1-1.3,1.1c-0.5,0.1-1.2,0-1.9-0.5c-0.3-0.2-0.5-0.3-0.7-0.4c-0.2-0.1-0.4-0.2-0.6-0.4
				c-0.4-0.2-0.8-0.4-1.1-0.6c-0.3-0.2-0.6-0.3-0.9-0.5c-0.3-0.2-0.6-0.3-0.8-0.5l1-1.9c0.4,0.3,0.9,0.5,1.3,0.7
				c0.4,0.2,0.9,0.5,1.3,0.8l1,0.6c0.4,0.2,0.7,0.3,0.9,0.3c0.3,0,0.5-0.2,0.6-0.5c0.1-0.2,0.2-0.3,0.2-0.5c0-0.2,0-0.4-0.1-0.6
				s-0.1-0.4-0.2-0.6l-1.3-0.8c-0.5-0.3-0.9-0.5-1.3-0.7c-0.4-0.2-0.8-0.5-1.3-0.7l1.1-1.8c0.4,0.2,0.9,0.5,1.3,0.7s0.9,0.5,1.5,0.9
				l0.7,0.4c0.5,0.3,1,0.6,1.4,0.8c0.4,0.2,0.8,0.5,1.3,0.7l-0.9,1.5l-1-0.5l-0.1,0.2c0.1,0.2,0.2,0.5,0.3,0.8
				c0.1,0.3,0.1,0.6,0,0.9C46.4,87.4,46.3,87.7,46.1,88.1z"/>
			<path d="M51.4,79.5c-0.2,0.3-0.4,0.5-0.6,0.6c-0.2,0.2-0.5,0.3-0.7,0.4s-0.5,0.1-0.8,0.1l-0.1,0.1l0.6,0.7l-0.9,1.4
				c-0.4-0.3-0.8-0.6-1.2-0.8c-0.4-0.3-0.8-0.6-1.3-0.9L43.1,79c-0.5-0.3-0.9-0.6-1.4-1c-0.5-0.3-0.9-0.6-1.4-0.9l1-1.9
				c0.5,0.3,0.9,0.6,1.4,1s1,0.7,1.5,1l0.5,0.4l0.1-0.1c-0.1-0.2-0.1-0.4-0.1-0.7c0-0.2,0-0.5,0.1-0.7c0.1-0.2,0.2-0.5,0.3-0.7
				c0.3-0.5,0.8-0.9,1.3-1c0.5-0.2,1.1-0.2,1.6,0c0.6,0.1,1.2,0.4,1.8,0.8c0.5,0.4,1,0.8,1.3,1.3s0.6,1,0.6,1.5
				C51.9,78.5,51.8,79,51.4,79.5z M49.5,79.2c0.2-0.3,0.3-0.6,0.2-0.8c0-0.3-0.1-0.6-0.3-0.8s-0.4-0.5-0.7-0.7
				c-0.3-0.2-0.6-0.3-0.9-0.4c-0.3-0.1-0.6-0.1-0.9,0c-0.3,0.1-0.5,0.3-0.7,0.5c-0.1,0.1-0.2,0.3-0.2,0.4c0,0.2-0.1,0.3-0.1,0.5
				c0,0.2,0,0.3,0.1,0.5l2,1.4c0.2,0,0.4,0,0.5,0s0.3-0.1,0.5-0.2C49.3,79.5,49.4,79.4,49.5,79.2z"/>
			<path d="M55.6,73.8c-0.3,0.4-0.7,0.7-1,0.9C54.3,75,53.9,75,53.5,75c-0.4-0.1-0.8-0.3-1.3-0.6c-0.2-0.2-0.5-0.4-0.8-0.6
				c-0.3-0.2-0.5-0.4-0.8-0.6c-0.3-0.2-0.6-0.4-0.9-0.7s-0.6-0.5-1-0.8c-0.4-0.3-0.8-0.6-1.2-0.9c-0.4-0.3-0.7-0.5-1.1-0.8l1-1.9
				c0.3,0.2,0.6,0.4,0.8,0.6c0.3,0.2,0.5,0.4,0.8,0.6c0.3,0.2,0.6,0.4,0.9,0.7l2.9,2.2c0.3,0.3,0.6,0.4,0.9,0.4
				c0.3,0,0.5-0.1,0.7-0.4c0.1-0.1,0.2-0.3,0.2-0.4s0.1-0.4,0.1-0.6l1.4,0.9c0,0.1-0.1,0.3-0.1,0.5c-0.1,0.2-0.2,0.4-0.3,0.6
				C55.9,73.5,55.8,73.7,55.6,73.8z M48.9,73.3l-1.3-1l3.3-4.2l1.3,1c-0.3,0.4-0.5,0.7-0.8,1.1c-0.3,0.4-0.5,0.7-0.8,1L50,71.9
				L48.9,73.3z"/>
			<path d="M59.6,69.1c-0.4,0.5-0.9,0.8-1.3,1.1c-0.5,0.2-0.9,0.3-1.4,0.3s-0.9-0.1-1.4-0.3c-0.4-0.2-0.8-0.4-1.2-0.8
				c-0.5-0.5-0.9-1-1.1-1.6c-0.2-0.6-0.3-1.2-0.2-1.8c0.1-0.6,0.5-1.2,1-1.9c0.4-0.5,0.8-0.8,1.3-1c0.5-0.2,0.9-0.3,1.4-0.4
				c0.5,0,0.9,0.1,1.4,0.3c0.4,0.2,0.9,0.4,1.2,0.8c0.5,0.5,0.9,1,1.2,1.6c0.2,0.6,0.3,1.2,0.2,1.8C60.5,67.9,60.1,68.5,59.6,69.1z
				 M58.3,68c0.2-0.3,0.4-0.5,0.4-0.8c0-0.3-0.1-0.6-0.2-0.9c-0.2-0.3-0.4-0.6-0.6-0.8c-0.3-0.3-0.6-0.5-0.9-0.6
				c-0.3-0.1-0.6-0.1-0.9,0c-0.3,0.1-0.5,0.2-0.7,0.5c-0.2,0.3-0.4,0.5-0.4,0.8s0,0.6,0.2,0.9c0.1,0.3,0.4,0.6,0.6,0.8
				c0.3,0.2,0.5,0.4,0.9,0.5c0.3,0.1,0.6,0.1,0.9,0.1C57.8,68.4,58.1,68.2,58.3,68z"/>
			<path d="M62.7,65.3c-0.4-0.4-0.7-0.7-1-1.1c-0.3-0.3-0.7-0.7-1.1-1.1l-0.5-0.5c-0.4-0.4-0.8-0.8-1.1-1.2
				c-0.4-0.4-0.8-0.8-1.2-1.2L59,59l0.9,0.8l0.1-0.1c0-0.3-0.1-0.6,0-0.9s0.1-0.6,0.2-0.9s0.3-0.6,0.6-0.8c0.5-0.5,1-0.7,1.6-0.7
				c0.6,0,1.1,0.4,1.7,1c0.2,0.2,0.4,0.4,0.6,0.6c0.2,0.2,0.4,0.4,0.6,0.6c0.4,0.4,0.8,0.8,1.1,1.1c0.3,0.3,0.7,0.7,1,1.1l-1.5,1.5
				c-0.4-0.4-0.7-0.7-1-1s-0.7-0.7-1-1.1l-0.8-0.8c-0.3-0.3-0.6-0.5-0.8-0.5c-0.2-0.1-0.5,0-0.7,0.3c-0.1,0.1-0.2,0.3-0.3,0.5
				c-0.1,0.2-0.1,0.4-0.1,0.6c0,0.2,0,0.4,0.1,0.6l1,1c0.4,0.4,0.7,0.7,1,1.1c0.3,0.3,0.7,0.7,1,1L62.7,65.3z"/>
			<path d="M64,52.9c-0.3,0.3-0.6,0.4-0.9,0.4c-0.3,0-0.6-0.1-0.9-0.5C62,52.6,61.9,52.3,62,52c0-0.3,0.2-0.6,0.5-0.9
				c0.3-0.3,0.6-0.4,0.9-0.4c0.3,0,0.6,0.1,0.8,0.4c0.3,0.3,0.4,0.6,0.3,0.9C64.5,52.4,64.3,52.6,64,52.9z M68.6,59.7
				c-0.3-0.4-0.7-0.7-1-1.1c-0.3-0.4-0.7-0.8-1-1.2l-0.5-0.5c-0.3-0.4-0.6-0.7-0.8-0.9c-0.2-0.3-0.5-0.5-0.7-0.8
				c-0.2-0.2-0.4-0.5-0.7-0.7l1.6-1.4c0.2,0.3,0.4,0.5,0.7,0.8c0.2,0.3,0.5,0.5,0.7,0.8c0.2,0.3,0.5,0.6,0.8,1l0.5,0.5
				c0.4,0.4,0.7,0.8,1,1.2c0.3,0.4,0.6,0.7,1,1.1L68.6,59.7z"/>
			<path d="M74.2,55.3c-0.6,0.5-1.3,0.8-1.9,0.9s-1.2,0-1.8-0.2c-0.6-0.3-1.1-0.7-1.5-1.2c-0.4-0.6-0.7-1.1-0.9-1.8
				c-0.1-0.6-0.1-1.2,0.1-1.8c0.2-0.6,0.6-1.1,1.3-1.6c0.2-0.2,0.5-0.3,0.7-0.5c0.2-0.1,0.5-0.3,0.7-0.3c0.2-0.1,0.5-0.2,0.7-0.2
				l1,1.5c-0.3,0-0.6,0.1-0.8,0.2c-0.2,0.1-0.4,0.2-0.6,0.3c-0.2,0.1-0.3,0.2-0.4,0.3c-0.4,0.3-0.6,0.7-0.7,1.2
				c0,0.5,0.1,0.9,0.5,1.4c0.2,0.3,0.5,0.5,0.8,0.7c0.3,0.1,0.6,0.2,1,0.1c0.3-0.1,0.7-0.2,1.1-0.5c0.1-0.1,0.3-0.2,0.4-0.4
				c0.1-0.1,0.2-0.3,0.3-0.4c0.1-0.2,0.2-0.3,0.2-0.5l1.2,1.4c-0.1,0.2-0.2,0.3-0.3,0.5c-0.1,0.2-0.3,0.4-0.5,0.5
				C74.7,54.9,74.5,55.1,74.2,55.3z"/>
		</g>
	</g>
	<g>
		<g>
			<path d="M24,130c0-0.4,0.1-0.9,0.2-1.4c0.1-0.5,0.3-0.9,0.4-1.3c0.2-0.4,0.3-0.7,0.4-1l2.2,0.4c-0.2,0.3-0.4,0.7-0.6,1.1
				c-0.2,0.4-0.3,0.7-0.4,1.1c-0.1,0.4-0.2,0.7-0.2,1.1c0,0.3,0,0.6,0,0.9c0.1,0.3,0.2,0.5,0.3,0.6c0.2,0.2,0.4,0.3,0.7,0.3
				c0.3,0,0.5,0,0.7-0.2c0.2-0.2,0.4-0.4,0.6-0.7c0.2-0.3,0.4-0.7,0.5-1.2c0.3-0.6,0.5-1.2,0.8-1.6c0.3-0.4,0.7-0.8,1.1-1
				s1-0.3,1.6-0.2c0.6,0.1,1.2,0.3,1.6,0.6c0.5,0.3,0.8,0.8,1,1.4c0.2,0.6,0.3,1.3,0.2,2.2c0,0.3-0.1,0.7-0.2,1
				c-0.1,0.3-0.2,0.7-0.3,1c-0.1,0.3-0.2,0.6-0.3,0.9c-0.1,0.3-0.2,0.5-0.4,0.7l-2.2-0.4c0.2-0.3,0.4-0.6,0.6-1
				c0.2-0.3,0.3-0.7,0.4-1s0.2-0.6,0.2-0.9c0-0.3,0-0.6,0-0.8c-0.1-0.3-0.2-0.5-0.3-0.6c-0.1-0.2-0.3-0.3-0.6-0.3
				c-0.2,0-0.5,0-0.6,0.1s-0.4,0.3-0.5,0.6c-0.2,0.3-0.3,0.6-0.5,1.1c-0.3,0.8-0.7,1.5-1,2c-0.3,0.5-0.7,0.8-1.1,1
				c-0.4,0.2-0.9,0.2-1.5,0.2c-0.7-0.1-1.2-0.3-1.7-0.6c-0.5-0.3-0.8-0.8-1-1.5C24,131.8,24,131,24,130z"/>
			<path d="M23.5,138.3c0-0.8,0.2-1.3,0.7-1.7c0.5-0.4,1.1-0.6,2-0.6c0.3,0,0.6,0,0.9,0c0.2,0,0.5,0,0.8,0c0.5,0,0.9,0,1.3,0
				c0.4,0,0.7,0,1.1,0c0.3,0,0.7,0,1,0l0,2.3c-0.5,0-1.1,0-1.6,0c-0.5,0-1.1,0-1.6,0l-1.3,0c-0.4,0-0.8,0.1-1,0.2
				c-0.2,0.1-0.3,0.4-0.4,0.8c0,0.2,0,0.4,0.1,0.6c0.1,0.2,0.2,0.3,0.3,0.5c0.1,0.2,0.3,0.3,0.5,0.4l1.6,0c0.6,0,1.1,0,1.6,0
				c0.5,0,1,0,1.6,0l0,2.3c-0.5,0-1.1,0-1.6,0c-0.5,0-1.1,0-1.9,0l-0.9,0c-0.6,0-1.2,0-1.7,0c-0.5,0-1,0-1.6,0l0-1.9l1.2-0.1l0-0.2
				c-0.2-0.2-0.5-0.4-0.7-0.6c-0.2-0.2-0.4-0.5-0.5-0.8C23.6,139.1,23.5,138.7,23.5,138.3z"/>
			<path d="M23.7,149.8c0-0.3,0-0.6,0.1-0.9c0.1-0.3,0.2-0.5,0.3-0.8c0.2-0.2,0.3-0.4,0.6-0.6l0-0.2l-1-0.2l-0.1-1.8
				c0.5,0,1.1-0.1,1.6-0.1c0.5,0,1.1-0.1,1.7-0.1l4.2-0.3c0.6,0,1.2-0.1,1.8-0.1c0.6,0,1.2-0.1,1.8-0.1l0.3,2.3
				c-0.6,0-1.2,0.1-1.8,0.1c-0.6,0-1.3,0.1-2,0.1l-0.7,0l0,0.2c0.2,0.1,0.4,0.3,0.6,0.5c0.2,0.2,0.3,0.4,0.4,0.7
				c0.1,0.2,0.1,0.5,0.2,0.8c0,0.7-0.1,1.2-0.4,1.7c-0.3,0.5-0.8,0.9-1.4,1.1c-0.6,0.3-1.3,0.4-2,0.5c-0.7,0-1.4,0-2-0.2
				c-0.6-0.2-1.1-0.5-1.5-0.9C24,151.1,23.8,150.5,23.7,149.8z M25.6,148.9c0,0.4,0.1,0.7,0.4,0.9c0.2,0.2,0.5,0.4,0.8,0.5
				c0.3,0.1,0.7,0.1,1,0.1c0.4,0,0.7-0.1,1-0.2c0.3-0.1,0.5-0.3,0.7-0.6c0.2-0.2,0.2-0.6,0.2-0.9c0-0.2,0-0.3-0.1-0.5
				c-0.1-0.2-0.2-0.3-0.3-0.4c-0.1-0.1-0.2-0.2-0.4-0.3l-2.6,0.2c-0.2,0.1-0.3,0.2-0.4,0.4c-0.1,0.1-0.2,0.3-0.3,0.5
				C25.6,148.5,25.6,148.6,25.6,148.9z"/>
			<path d="M24.3,155c0.5-0.1,1.1-0.2,1.6-0.3c0.5-0.1,1.1-0.2,1.7-0.3l0.8-0.1c0.6-0.1,1.2-0.2,1.7-0.3c0.6-0.1,1.2-0.2,1.8-0.3
				l0.4,1.9l-1.3,0.3l0,0.2c0.3,0.1,0.5,0.3,0.8,0.5c0.3,0.2,0.5,0.4,0.6,0.7c0.2,0.3,0.3,0.6,0.4,1c0.1,0.6,0,1-0.2,1.4
				c-0.2,0.4-0.6,0.6-1.1,0.8l0,0.2c-0.1,0.1-0.3,0.1-0.4,0.1c-0.2,0-0.3,0.1-0.5,0.1c-0.3,0.1-0.6,0.1-0.9,0.2
				c-0.3,0-0.6,0.1-0.9,0.1c-0.6,0.1-1.2,0.2-1.7,0.3c-0.5,0.1-1,0.2-1.6,0.3l-0.4-2.2c0.5-0.1,1.1-0.2,1.6-0.3
				c0.5-0.1,1-0.2,1.6-0.3l1.2-0.2c0.4-0.1,0.8-0.2,1-0.4c0.2-0.2,0.3-0.4,0.2-0.8c0-0.2-0.1-0.4-0.2-0.5c-0.1-0.2-0.3-0.3-0.4-0.4
				c-0.2-0.1-0.4-0.2-0.5-0.3l-1.6,0.3c-0.6,0.1-1.1,0.2-1.6,0.3c-0.5,0.1-1,0.2-1.5,0.3L24.3,155z M25.8,164.2
				c0.5-0.1,1.1-0.2,1.6-0.3c0.5-0.1,1-0.2,1.6-0.3l1.2-0.2c0.4-0.1,0.8-0.2,1-0.4c0.2-0.2,0.3-0.4,0.2-0.8c0-0.2-0.1-0.4-0.2-0.5
				c-0.1-0.2-0.3-0.3-0.4-0.4c-0.2-0.1-0.4-0.2-0.6-0.3l1.6-0.6l0,0.2c0.3,0.1,0.5,0.3,0.8,0.5c0.3,0.2,0.5,0.5,0.7,0.7
				c0.2,0.3,0.3,0.6,0.4,1c0.1,0.7,0,1.3-0.4,1.8c-0.4,0.4-1,0.7-1.9,0.9c-0.3,0.1-0.6,0.1-0.9,0.2c-0.3,0-0.6,0.1-0.9,0.1
				c-0.6,0.1-1.2,0.2-1.7,0.3c-0.5,0.1-1,0.2-1.6,0.3L25.8,164.2z"/>
			<path d="M27.5,172.4c-0.2-0.9-0.3-1.8-0.1-2.5c0.2-0.7,0.5-1.2,1-1.7c0.5-0.4,1.1-0.8,1.9-1c0.8-0.2,1.5-0.2,2.1-0.1
				c0.7,0.1,1.2,0.4,1.7,0.8c0.5,0.4,0.8,1.1,1,1.8c0.2,0.7,0.2,1.3,0.1,1.8c-0.1,0.5-0.4,1-0.8,1.4c-0.4,0.4-1,0.7-1.7,0.9
				c-0.2,0.1-0.4,0.1-0.5,0.1c-0.2,0-0.3,0.1-0.5,0.1L32,172c0.1,0,0.1,0,0.2,0c0.1,0,0.1,0,0.2,0c0.5-0.1,0.8-0.3,1.1-0.7
				c0.2-0.3,0.3-0.6,0.2-1c-0.1-0.3-0.2-0.5-0.4-0.7c-0.2-0.2-0.5-0.3-0.8-0.3c-0.3,0-0.7,0-1.1,0.1l-0.4,0.1
				c-0.4,0.1-0.8,0.3-1,0.5c-0.3,0.2-0.4,0.5-0.5,0.9c-0.1,0.4,0,0.8,0.1,1.3c0.1,0.2,0.1,0.4,0.2,0.7s0.2,0.5,0.4,0.7
				c0.1,0.2,0.3,0.5,0.5,0.7l-1.8,0.6c-0.1-0.2-0.3-0.4-0.4-0.6c-0.1-0.2-0.3-0.5-0.4-0.8C27.8,173.1,27.6,172.8,27.5,172.4z
				 M30.2,168.3l1.2-0.3l1.3,4.5l0,1.4l-0.9,0.2L30.2,168.3z"/>
			<path d="M29.7,179.5c-0.2-0.7-0.2-1.3,0-1.8c0.2-0.5,0.6-1,1.1-1.4c0.5-0.4,1.1-0.7,1.8-0.9c0.7-0.2,1.4-0.4,2-0.3
				c0.6,0,1.2,0.2,1.7,0.5c0.5,0.3,0.8,0.8,1,1.4c0.1,0.3,0.1,0.6,0.2,0.8c0,0.3,0,0.5-0.1,0.7c-0.1,0.2-0.2,0.4-0.3,0.6l0.1,0.2
				l0.7-0.2c0.6-0.2,1.2-0.4,1.7-0.6c0.6-0.2,1.1-0.4,1.7-0.6l0.9,2.1c-0.6,0.2-1.1,0.4-1.7,0.6c-0.6,0.2-1.2,0.4-1.9,0.6l-4,1.4
				c-0.6,0.2-1.1,0.4-1.6,0.6c-0.5,0.2-1,0.3-1.5,0.5l-0.6-1.8l0.9-0.5l-0.1-0.2c-0.3-0.1-0.6-0.2-0.8-0.4s-0.5-0.3-0.6-0.6
				C29.9,180,29.8,179.8,29.7,179.5z M31.8,179.7c0.1,0.2,0.2,0.4,0.3,0.5c0.1,0.1,0.3,0.2,0.4,0.3c0.2,0.1,0.3,0.1,0.5,0.2l2.4-0.8
				c0.1-0.1,0.2-0.3,0.2-0.5c0.1-0.2,0.1-0.3,0.1-0.5c0-0.2,0-0.3-0.1-0.5c-0.1-0.3-0.3-0.6-0.6-0.7c-0.3-0.2-0.5-0.2-0.9-0.3
				c-0.3,0-0.7,0-1,0.2c-0.3,0.1-0.6,0.3-0.9,0.5c-0.3,0.2-0.4,0.5-0.6,0.7C31.7,179,31.7,179.3,31.8,179.7z"/>
			<path d="M32.2,185.7c0.5-0.2,1-0.4,1.5-0.6c0.5-0.2,1-0.4,1.6-0.6l0.7-0.3c0.5-0.2,0.9-0.4,1.3-0.5c0.4-0.2,0.7-0.3,1-0.4
				c0.3-0.1,0.7-0.3,1-0.4l0.9,2.1c-0.3,0.1-0.7,0.3-1,0.4c-0.3,0.1-0.7,0.3-1.1,0.4c-0.4,0.2-0.8,0.3-1.3,0.5l-0.7,0.3
				c-0.6,0.2-1.1,0.5-1.6,0.6c-0.5,0.2-1,0.4-1.5,0.6L32.2,185.7z M40.7,183.4c-0.2-0.4-0.2-0.7-0.1-1c0.1-0.3,0.3-0.5,0.8-0.7
				c0.4-0.2,0.7-0.2,1,0c0.3,0.2,0.5,0.4,0.7,0.8c0.2,0.4,0.2,0.8,0.1,1.1c-0.1,0.3-0.4,0.5-0.7,0.7c-0.4,0.2-0.8,0.2-1,0
				C41.1,184.1,40.9,183.8,40.7,183.4z"/>
			<path d="M34.5,191.6c-0.2-0.4-0.3-0.8-0.2-1.1c0-0.4,0.1-0.7,0.4-1c0.2-0.3,0.5-0.6,0.9-0.8c0.4-0.2,0.8-0.3,1.1-0.3
				c0.3,0,0.6,0.1,0.9,0.2c0.3,0.1,0.5,0.3,0.7,0.5c0.2,0.2,0.4,0.4,0.6,0.7l1.2,1.8c0.3-0.1,0.5-0.3,0.5-0.4
				c0.1-0.2,0.1-0.4,0.1-0.6c0-0.2-0.1-0.5-0.3-0.8c-0.1-0.2-0.2-0.3-0.3-0.5c-0.1-0.2-0.2-0.3-0.4-0.5c-0.1-0.2-0.3-0.4-0.5-0.5
				c-0.2-0.2-0.4-0.3-0.6-0.5l1.7-0.9c0.1,0.1,0.3,0.3,0.5,0.5c0.2,0.2,0.3,0.4,0.5,0.6c0.2,0.2,0.3,0.5,0.5,0.8
				c0.2,0.3,0.3,0.6,0.5,0.9c0.3,0.6,0.4,1.1,0.5,1.6c0,0.5-0.1,0.9-0.3,1.3c-0.3,0.4-0.7,0.7-1.2,1c-0.2,0.1-0.5,0.2-0.8,0.4
				c-0.3,0.2-0.6,0.3-0.9,0.4l-0.7,0.3c-0.3,0.2-0.7,0.3-1.1,0.5c-0.4,0.2-0.8,0.4-1.2,0.6l-0.8-1.8l0.9-0.6l-0.1-0.2
				c-0.2,0-0.5-0.1-0.7-0.2c-0.3-0.1-0.5-0.3-0.7-0.5C34.9,192.2,34.7,191.9,34.5,191.6z M36.5,191.6c0.1,0.2,0.2,0.3,0.3,0.4
				c0.2,0.1,0.3,0.2,0.5,0.3c0.2,0.1,0.4,0.1,0.7,0.1l1.1-0.5c-0.1,0-0.1-0.1-0.2-0.2c-0.1-0.1-0.2-0.2-0.3-0.3
				c-0.1-0.1-0.3-0.4-0.5-0.6c-0.1-0.1-0.2-0.3-0.4-0.3c-0.1-0.1-0.3-0.1-0.4-0.1c-0.2,0-0.3,0-0.5,0.1c-0.3,0.1-0.4,0.3-0.4,0.5
				C36.3,191.2,36.4,191.4,36.5,191.6z"/>
			<path d="M37.6,197.6c0.5-0.3,0.9-0.5,1.4-0.8c0.4-0.3,0.9-0.5,1.5-0.9l0.7-0.4c0.5-0.3,1-0.6,1.5-0.9c0.5-0.3,1-0.6,1.6-0.9
				l1.1,1.6l-1.1,0.7l0.1,0.2c0.3,0,0.6,0.1,0.9,0.2s0.6,0.3,0.9,0.5c0.3,0.2,0.5,0.5,0.7,0.8c0.4,0.7,0.5,1.3,0.3,1.8
				c-0.2,0.6-0.7,1.1-1.5,1.5c-0.3,0.2-0.6,0.3-0.8,0.5c-0.2,0.1-0.5,0.3-0.8,0.4c-0.5,0.3-1,0.6-1.5,0.8c-0.4,0.3-0.9,0.5-1.4,0.8
				l-1.1-2c0.5-0.3,0.9-0.5,1.4-0.8s0.9-0.5,1.4-0.8l1.1-0.6c0.4-0.2,0.6-0.5,0.8-0.7c0.1-0.2,0.1-0.5-0.1-0.9
				c-0.1-0.2-0.2-0.3-0.4-0.5c-0.2-0.1-0.4-0.2-0.6-0.3c-0.2-0.1-0.4-0.1-0.6-0.1l-1.4,0.8c-0.5,0.3-1,0.5-1.4,0.8
				c-0.4,0.2-0.9,0.5-1.4,0.8L37.6,197.6z"/>
			<path d="M44,208.4c-0.3-0.5-0.5-0.9-0.6-1.3c-0.1-0.4,0-0.8,0.2-1.2c0.2-0.4,0.5-0.7,1.1-1.1c0.3-0.2,0.6-0.4,0.8-0.6
				c0.3-0.2,0.6-0.4,0.9-0.6c0.3-0.2,0.6-0.4,1-0.7c0.4-0.2,0.7-0.5,1.1-0.8c0.5-0.3,0.9-0.6,1.3-0.9c0.4-0.3,0.8-0.5,1.2-0.8
				l1.6,1.6c-0.3,0.2-0.6,0.4-0.9,0.6c-0.3,0.2-0.6,0.4-0.9,0.6c-0.3,0.2-0.7,0.4-1,0.7l-3.3,2.2c-0.4,0.3-0.6,0.5-0.7,0.8
				c-0.1,0.3-0.1,0.6,0.2,0.9c0.1,0.1,0.2,0.3,0.4,0.4c0.2,0.1,0.3,0.2,0.5,0.3l-1.5,1.1c-0.1-0.1-0.3-0.2-0.5-0.3
				c-0.2-0.1-0.3-0.3-0.5-0.5C44.3,208.7,44.1,208.5,44,208.4z M46.9,201.7l1.4-1l3.2,4.8l-1.4,1c-0.3-0.4-0.5-0.8-0.8-1.2
				c-0.3-0.4-0.5-0.8-0.8-1.2l-0.6-0.8L46.9,201.7z"/>
		</g>
	</g>
	<g>
		<g>
			<path d="M63.3,230.2c0.3-0.4,0.7-0.8,1-1.2c0.3-0.4,0.7-0.8,1.1-1.3l2.1-2.6c0.4-0.5,0.8-0.9,1.1-1.3c0.3-0.4,0.7-0.8,1-1.2
				c0.3,0.2,0.6,0.5,0.9,0.8c0.3,0.3,0.7,0.5,1,0.8c0.3,0.3,0.7,0.6,1.1,0.9c0.6,0.5,1,1,1.3,1.5c0.3,0.5,0.5,1.1,0.5,1.7
				c0,0.6,0,1.2-0.3,1.8c-0.2,0.6-0.6,1.2-1.1,1.8c-0.4,0.5-0.9,1-1.4,1.3c-0.5,0.3-1.1,0.6-1.7,0.6c-0.6,0.1-1.2,0-1.9-0.2
				c-0.7-0.2-1.4-0.6-2.1-1.3c-0.3-0.3-0.7-0.5-0.9-0.8c-0.3-0.2-0.6-0.5-0.8-0.7C63.8,230.7,63.5,230.5,63.3,230.2z M66.2,230.3
				L67,231c0.5,0.4,1.1,0.7,1.6,0.7c0.5,0.1,1,0,1.4-0.3c0.4-0.2,0.9-0.6,1.2-1.1c0.3-0.3,0.5-0.7,0.7-1.1c0.2-0.4,0.2-0.7,0.2-1
				c0-0.3-0.1-0.7-0.3-1c-0.2-0.3-0.4-0.6-0.8-0.9l-1-0.8c-0.2,0.2-0.4,0.5-0.6,0.7c-0.2,0.2-0.4,0.5-0.7,0.8l-1.4,1.7
				c-0.2,0.3-0.5,0.6-0.7,0.8C66.5,229.8,66.3,230.1,66.2,230.3z"/>
			<path d="M74,238.8c-0.5-0.4-0.9-0.7-1.2-1.2c-0.3-0.4-0.4-0.9-0.5-1.3c-0.1-0.4,0-0.9,0.1-1.3c0.1-0.4,0.3-0.9,0.6-1.2
				c0.4-0.6,0.9-1,1.4-1.3c0.5-0.3,1.1-0.4,1.7-0.4c0.6,0,1.2,0.3,1.9,0.7c0.5,0.3,0.9,0.7,1.1,1.1c0.3,0.4,0.4,0.8,0.5,1.3
				c0.1,0.4,0,0.9-0.1,1.3c-0.1,0.4-0.3,0.9-0.6,1.3c-0.4,0.6-0.9,1-1.4,1.3c-0.5,0.3-1.1,0.4-1.7,0.4
				C75.2,239.5,74.6,239.2,74,238.8z M74.9,237.4c0.3,0.2,0.6,0.3,0.9,0.3c0.3,0,0.6-0.1,0.8-0.3c0.3-0.2,0.5-0.4,0.7-0.7
				c0.2-0.3,0.4-0.6,0.4-1c0.1-0.3,0-0.6-0.1-0.8c-0.1-0.3-0.3-0.5-0.5-0.6c-0.3-0.2-0.6-0.3-0.8-0.3c-0.3,0-0.6,0.1-0.8,0.3
				c-0.3,0.2-0.5,0.4-0.7,0.7c-0.2,0.3-0.3,0.6-0.4,0.9c-0.1,0.3-0.1,0.6,0,0.9C74.5,237,74.6,237.2,74.9,237.4z"/>
			<path d="M78.6,241.7c0.2-0.4,0.5-0.8,0.7-1.2c0.2-0.4,0.5-0.8,0.8-1.3l0.3-0.6c0.3-0.5,0.5-0.9,0.8-1.4c0.3-0.5,0.5-0.9,0.8-1.4
				l1.5,0.8l-0.5,1.1l0.1,0.1c0.2-0.1,0.5-0.2,0.8-0.3c0.3-0.1,0.6-0.1,0.9,0c0.3,0,0.6,0.1,0.9,0.3c0.5,0.3,0.7,0.6,0.9,0.9
				c0.1,0.4,0.1,0.8-0.1,1.3l0.1,0.1c0,0.1-0.1,0.3-0.1,0.4s-0.1,0.3-0.2,0.4c-0.1,0.3-0.3,0.5-0.4,0.7c-0.1,0.2-0.3,0.5-0.4,0.7
				c-0.3,0.5-0.5,0.9-0.8,1.3c-0.2,0.4-0.5,0.8-0.7,1.2l-1.8-1c0.2-0.4,0.5-0.8,0.7-1.2c0.2-0.4,0.5-0.8,0.7-1.2l0.5-1
				c0.2-0.3,0.3-0.6,0.3-0.9c0-0.2-0.2-0.4-0.4-0.6c-0.2-0.1-0.3-0.1-0.5-0.1c-0.2,0-0.4,0-0.5,0.1c-0.2,0.1-0.4,0.1-0.5,0.2
				l-0.7,1.2c-0.3,0.4-0.5,0.9-0.7,1.3c-0.2,0.4-0.5,0.8-0.7,1.2L78.6,241.7z M85.8,245.9c0.2-0.4,0.5-0.8,0.7-1.2
				c0.2-0.4,0.5-0.8,0.7-1.2l0.5-1c0.2-0.3,0.3-0.6,0.3-0.9c0-0.2-0.2-0.4-0.4-0.6c-0.2-0.1-0.3-0.1-0.5-0.1c-0.2,0-0.4,0-0.5,0.1
				c-0.2,0.1-0.4,0.1-0.5,0.2l0.5-1.4l0.2,0.1c0.3-0.1,0.5-0.2,0.8-0.3c0.3-0.1,0.6-0.1,0.9,0c0.3,0,0.6,0.1,0.9,0.3
				c0.6,0.3,0.9,0.8,1,1.3c0.1,0.5-0.1,1.1-0.5,1.8c-0.1,0.3-0.3,0.5-0.4,0.7c-0.1,0.2-0.3,0.5-0.4,0.7c-0.3,0.5-0.5,0.9-0.8,1.3
				c-0.2,0.4-0.5,0.8-0.7,1.2L85.8,245.9z"/>
			<path d="M89.4,247.7c0.2-0.4,0.4-0.9,0.6-1.3c0.2-0.4,0.4-0.9,0.7-1.4l0.3-0.6c0.2-0.4,0.4-0.8,0.5-1.1c0.2-0.3,0.3-0.6,0.5-0.9
				c0.1-0.3,0.3-0.6,0.4-0.9l1.9,0.9c-0.1,0.3-0.3,0.6-0.4,0.9c-0.1,0.3-0.3,0.6-0.5,0.9c-0.2,0.3-0.3,0.7-0.6,1.1l-0.3,0.6
				c-0.3,0.5-0.5,1-0.7,1.4c-0.2,0.4-0.4,0.8-0.6,1.3L89.4,247.7z M93.8,241c-0.3-0.2-0.6-0.4-0.7-0.6c-0.1-0.3-0.1-0.6,0.1-0.9
				c0.2-0.3,0.4-0.5,0.7-0.6s0.6,0,1,0.1c0.3,0.2,0.6,0.4,0.7,0.7c0.1,0.3,0.1,0.6-0.1,0.9c-0.2,0.4-0.4,0.6-0.7,0.6
				C94.4,241.3,94.1,241.2,93.8,241z"/>
			<path d="M93.1,249.5c0.2-0.4,0.4-0.9,0.6-1.3c0.2-0.4,0.4-0.9,0.6-1.4l0.3-0.6c0.2-0.5,0.4-1,0.6-1.5c0.2-0.5,0.4-1,0.6-1.5
				l1.6,0.6l-0.4,1.1l0.2,0.1c0.2-0.1,0.5-0.3,0.8-0.4c0.3-0.1,0.6-0.1,0.9-0.1c0.3,0,0.6,0.1,1,0.2c0.6,0.3,1,0.7,1.2,1.2
				c0.2,0.5,0.1,1.1-0.2,1.9c-0.1,0.3-0.2,0.5-0.3,0.8c-0.1,0.2-0.2,0.5-0.3,0.7c-0.2,0.5-0.4,1-0.6,1.4c-0.2,0.4-0.4,0.9-0.6,1.3
				l-1.9-0.8c0.2-0.5,0.4-0.9,0.5-1.3c0.2-0.4,0.4-0.9,0.6-1.3l0.4-1c0.2-0.4,0.2-0.7,0.2-0.9c0-0.2-0.2-0.4-0.5-0.6
				c-0.2-0.1-0.4-0.1-0.5-0.1s-0.4,0-0.5,0.1c-0.2,0.1-0.3,0.2-0.5,0.3l-0.5,1.3c-0.2,0.5-0.4,0.9-0.6,1.3c-0.2,0.4-0.4,0.8-0.5,1.3
				L93.1,249.5z"/>
			<path d="M102.2,253.3c-0.4-0.1-0.7-0.3-0.9-0.6c-0.2-0.3-0.4-0.5-0.4-0.9s0-0.7,0.1-1.1c0.1-0.4,0.3-0.7,0.5-0.9
				c0.2-0.2,0.5-0.3,0.7-0.4c0.3-0.1,0.5-0.1,0.8-0.1c0.3,0,0.5,0,0.8,0.1l1.9,0.3c0.1-0.2,0.1-0.4,0.1-0.6
				c-0.1-0.2-0.2-0.3-0.4-0.5c-0.2-0.1-0.4-0.2-0.7-0.3c-0.1,0-0.3-0.1-0.5-0.1c-0.2,0-0.4-0.1-0.6-0.1c-0.2,0-0.4,0-0.6,0
				c-0.2,0-0.5,0-0.7,0l0.5-1.7c0.2,0,0.4,0,0.6,0c0.2,0,0.5,0,0.7,0.1c0.3,0,0.5,0.1,0.8,0.1c0.3,0.1,0.6,0.1,0.8,0.2
				c0.5,0.2,1,0.4,1.3,0.7c0.3,0.3,0.5,0.6,0.6,1c0.1,0.4,0,0.9-0.2,1.4c-0.1,0.2-0.2,0.5-0.3,0.8c-0.1,0.3-0.2,0.6-0.3,0.8
				l-0.2,0.6c-0.1,0.3-0.2,0.7-0.3,1c-0.1,0.3-0.2,0.7-0.4,1.1l-1.7-0.6l0.2-0.9l-0.1,0c-0.2,0.1-0.4,0.2-0.6,0.3s-0.5,0.2-0.8,0.2
				C102.8,253.5,102.6,253.4,102.2,253.3z M103.5,252.1c0.2,0.1,0.3,0.1,0.5,0c0.2,0,0.3-0.1,0.5-0.2s0.3-0.2,0.5-0.4l0.3-1
				c-0.1,0-0.1,0-0.2,0c-0.1,0-0.2,0-0.4,0c-0.2,0-0.4,0-0.7-0.1c-0.2,0-0.3,0-0.5,0c-0.1,0-0.3,0.1-0.4,0.2
				c-0.1,0.1-0.2,0.2-0.2,0.4c-0.1,0.2-0.1,0.4,0,0.6C103.2,251.9,103.3,252,103.5,252.1z"/>
			<path d="M108,255c0.1-0.5,0.3-0.9,0.4-1.4c0.1-0.4,0.3-0.9,0.4-1.5l0.2-0.7c0.1-0.5,0.3-1,0.4-1.5c0.1-0.5,0.3-1,0.4-1.6l1.7,0.3
				l-0.2,1.2l0.2,0c0.2-0.2,0.4-0.3,0.7-0.5c0.3-0.1,0.5-0.2,0.9-0.3c0.3,0,0.6,0,1,0.1c0.7,0.2,1.1,0.5,1.3,1
				c0.2,0.5,0.2,1.1,0,1.9c-0.1,0.3-0.2,0.6-0.2,0.8c-0.1,0.2-0.1,0.5-0.2,0.8c-0.1,0.5-0.3,1-0.4,1.5c-0.1,0.4-0.2,0.9-0.4,1.4
				l-2-0.5c0.1-0.5,0.3-0.9,0.4-1.4c0.1-0.4,0.2-0.9,0.4-1.4l0.3-1.1c0.1-0.4,0.1-0.7,0-0.9c-0.1-0.2-0.3-0.4-0.6-0.5
				c-0.2-0.1-0.4-0.1-0.6,0c-0.2,0-0.4,0.1-0.5,0.2c-0.2,0.1-0.3,0.2-0.5,0.3l-0.4,1.4c-0.1,0.5-0.3,1-0.4,1.4
				c-0.1,0.4-0.2,0.9-0.4,1.4L108,255z"/>
			<path d="M116.5,251.8l0.3-1.5l5,1l-0.3,1.5c-0.4-0.1-0.8-0.2-1.3-0.3c-0.4-0.1-0.8-0.2-1.2-0.3l-0.9-0.2L116.5,251.8z
				 M118.9,257.9c-0.5-0.1-0.9-0.3-1.2-0.5c-0.3-0.2-0.5-0.5-0.7-0.9c-0.1-0.4-0.1-0.8,0-1.4c0.1-0.3,0.1-0.6,0.2-0.9
				c0.1-0.3,0.1-0.6,0.2-1c0.1-0.3,0.1-0.7,0.2-1.1c0.1-0.4,0.2-0.8,0.2-1.2c0.1-0.5,0.2-1,0.3-1.4c0.1-0.4,0.2-0.8,0.3-1.3l2,0
				c-0.1,0.3-0.1,0.7-0.2,1c-0.1,0.3-0.1,0.6-0.2,1c-0.1,0.3-0.1,0.7-0.2,1.1l-0.7,3.5c-0.1,0.4-0.1,0.7,0,1
				c0.1,0.2,0.3,0.4,0.7,0.5c0.1,0,0.3,0,0.5,0c0.2,0,0.4-0.1,0.5-0.1l-0.2,1.6c-0.1,0-0.3,0.1-0.5,0.1c-0.2,0-0.4,0-0.6,0
				C119.3,258,119.1,257.9,118.9,257.9z"/>
		</g>
	</g>
	<g>
		<g>
			<path d="M153.4,259.5c-0.4,0-0.8,0-1.2,0c-0.4,0-0.8-0.1-1.2-0.1c-0.4-0.1-0.7-0.1-0.9-0.2l0-2c0.3,0.1,0.7,0.3,1,0.4
				c0.4,0.1,0.7,0.2,1.1,0.2c0.3,0,0.7,0,1,0c0.3,0,0.6-0.1,0.8-0.2s0.4-0.2,0.5-0.4c0.1-0.2,0.2-0.4,0.1-0.6c0-0.3-0.1-0.5-0.3-0.6
				c-0.2-0.1-0.4-0.3-0.8-0.4s-0.7-0.2-1.1-0.3c-0.6-0.1-1.1-0.3-1.6-0.5c-0.4-0.2-0.8-0.5-1-0.8c-0.3-0.3-0.4-0.8-0.5-1.4
				c-0.1-0.6,0-1.1,0.2-1.5c0.2-0.5,0.6-0.8,1-1.1s1.1-0.5,1.9-0.6c0.3,0,0.6,0,0.9,0c0.3,0,0.6,0,0.9,0.1s0.6,0.1,0.8,0.1
				c0.3,0.1,0.5,0.1,0.7,0.2l0,2c-0.3-0.2-0.6-0.3-0.9-0.4c-0.3-0.1-0.6-0.2-0.9-0.2c-0.3,0-0.6,0-0.8,0c-0.3,0-0.5,0.1-0.7,0.2
				c-0.2,0.1-0.4,0.2-0.5,0.4c-0.1,0.2-0.2,0.4-0.1,0.6c0,0.2,0.1,0.4,0.2,0.5c0.1,0.1,0.3,0.3,0.6,0.3c0.3,0.1,0.6,0.2,1,0.3
				c0.8,0.2,1.4,0.3,1.9,0.5c0.5,0.2,0.8,0.5,1,0.8c0.2,0.3,0.4,0.8,0.4,1.3c0.1,0.6,0,1.1-0.2,1.6s-0.6,0.9-1.1,1.2
				C155,259.3,154.3,259.4,153.4,259.5z"/>
			<path d="M160.7,258.6c-0.7,0.1-1.2,0-1.6-0.3c-0.4-0.3-0.7-0.9-0.8-1.7c-0.1-0.3-0.1-0.6-0.1-0.8c0-0.2-0.1-0.4-0.1-0.7
				c-0.1-0.4-0.1-0.8-0.2-1.2c-0.1-0.3-0.1-0.7-0.2-1s-0.1-0.6-0.2-0.9l2-0.4c0.1,0.5,0.2,1,0.2,1.4c0.1,0.5,0.2,0.9,0.2,1.4
				l0.2,1.1c0.1,0.4,0.2,0.7,0.3,0.9c0.2,0.2,0.4,0.2,0.8,0.2c0.2,0,0.3-0.1,0.5-0.2c0.1-0.1,0.3-0.2,0.4-0.4
				c0.1-0.2,0.2-0.3,0.3-0.5l-0.2-1.4c-0.1-0.5-0.2-1-0.2-1.4s-0.2-0.9-0.2-1.4l2-0.3c0.1,0.5,0.2,0.9,0.2,1.4
				c0.1,0.5,0.2,1,0.3,1.6l0.1,0.8c0.1,0.6,0.2,1.1,0.3,1.5c0.1,0.5,0.2,0.9,0.2,1.4l-1.7,0.3l-0.3-1.1l-0.2,0
				c-0.1,0.2-0.3,0.5-0.4,0.7c-0.2,0.2-0.4,0.4-0.7,0.6C161.4,258.4,161.1,258.5,160.7,258.6z"/>
			<path d="M170.9,256.5c-0.3,0.1-0.6,0.1-0.8,0.1c-0.3,0-0.5-0.1-0.7-0.2c-0.2-0.1-0.5-0.2-0.7-0.4l-0.1,0l0,0.9l-1.6,0.4
				c-0.1-0.5-0.2-0.9-0.3-1.4s-0.2-0.9-0.4-1.5l-0.9-3.7c-0.1-0.5-0.3-1.1-0.4-1.6c-0.1-0.5-0.3-1.1-0.4-1.6l1.9-0.7
				c0.1,0.5,0.3,1.1,0.4,1.6c0.1,0.5,0.3,1.1,0.4,1.7l0.1,0.6l0.2,0c0.1-0.2,0.2-0.4,0.3-0.6c0.1-0.2,0.3-0.3,0.5-0.4
				c0.2-0.1,0.4-0.2,0.7-0.3c0.6-0.1,1.1-0.1,1.6,0.1c0.5,0.2,0.9,0.5,1.2,1s0.6,1,0.7,1.7c0.2,0.6,0.2,1.2,0.1,1.8
				c-0.1,0.6-0.2,1.1-0.6,1.5C171.9,256,171.5,256.3,170.9,256.5z M169.7,255c0.3-0.1,0.6-0.2,0.7-0.5c0.2-0.2,0.3-0.5,0.3-0.8
				c0-0.3,0-0.6-0.1-0.9c-0.1-0.3-0.2-0.6-0.4-0.9c-0.2-0.2-0.4-0.4-0.6-0.5c-0.2-0.1-0.5-0.1-0.8-0.1c-0.2,0-0.3,0.1-0.4,0.2
				c-0.1,0.1-0.2,0.2-0.3,0.3c-0.1,0.1-0.2,0.3-0.2,0.4l0.6,2.3c0.1,0.1,0.2,0.2,0.4,0.3c0.1,0.1,0.3,0.1,0.5,0.2
				C169.3,255,169.5,255,169.7,255z"/>
			<path d="M177.5,254.6c-0.6,0.2-1.1,0.2-1.6,0c-0.5-0.2-0.9-0.5-1.3-1c-0.4-0.5-0.6-1-0.8-1.6c-0.2-0.6-0.3-1.3-0.3-1.8
				c0-0.6,0.2-1.1,0.5-1.5c0.3-0.4,0.7-0.7,1.3-0.9c0.3-0.1,0.5-0.1,0.7-0.1c0.2,0,0.5,0,0.7,0.1c0.2,0.1,0.4,0.2,0.6,0.3l0.2-0.1
				l-0.2-0.6c-0.2-0.5-0.3-1-0.5-1.6c-0.2-0.5-0.3-1-0.5-1.6l1.9-0.8c0.2,0.5,0.3,1,0.5,1.6c0.2,0.5,0.4,1.1,0.6,1.7l1.2,3.6
				c0.2,0.5,0.3,1,0.5,1.5c0.1,0.4,0.3,0.9,0.4,1.3l-1.6,0.5l-0.4-0.8l-0.1,0c-0.1,0.3-0.2,0.5-0.3,0.7s-0.3,0.4-0.5,0.6
				C178,254.4,177.8,254.5,177.5,254.6z M177.7,252.7c0.2-0.1,0.3-0.1,0.5-0.2c0.1-0.1,0.2-0.2,0.3-0.4c0.1-0.1,0.1-0.3,0.2-0.5
				l-0.7-2.2c-0.1-0.1-0.3-0.2-0.4-0.2c-0.1,0-0.3-0.1-0.5-0.1c-0.2,0-0.3,0-0.5,0.1c-0.3,0.1-0.5,0.3-0.7,0.5
				c-0.1,0.2-0.2,0.5-0.2,0.8c0,0.3,0,0.6,0.1,0.9c0.1,0.3,0.2,0.6,0.4,0.8c0.2,0.2,0.4,0.4,0.7,0.5S177.4,252.8,177.7,252.7z"/>
			<path d="M186.3,251.4c-0.6,0.2-1.1,0.3-1.6,0.3c-0.5,0-0.9-0.1-1.4-0.3c-0.4-0.2-0.8-0.5-1.1-0.8c-0.3-0.3-0.5-0.7-0.7-1.2
				c-0.3-0.6-0.4-1.2-0.3-1.9c0.1-0.6,0.3-1.2,0.6-1.6c0.4-0.5,0.9-0.9,1.7-1.2c0.6-0.2,1.1-0.3,1.6-0.3c0.5,0,0.9,0.1,1.3,0.3
				c0.4,0.2,0.8,0.5,1.1,0.8s0.5,0.8,0.7,1.2c0.3,0.6,0.4,1.3,0.3,1.9c-0.1,0.6-0.3,1.2-0.6,1.7C187.5,250.7,187,251.1,186.3,251.4z
				 M185.6,249.8c0.3-0.1,0.5-0.3,0.7-0.6c0.1-0.3,0.2-0.5,0.2-0.9c0-0.3-0.1-0.6-0.2-0.9c-0.2-0.4-0.3-0.7-0.6-0.9
				c-0.2-0.2-0.5-0.4-0.7-0.4c-0.3-0.1-0.5,0-0.8,0.1c-0.3,0.1-0.5,0.3-0.7,0.6c-0.1,0.2-0.2,0.5-0.2,0.8c0,0.3,0.1,0.6,0.2,1
				c0.1,0.3,0.3,0.6,0.5,0.8c0.2,0.2,0.5,0.4,0.8,0.5C185,250,185.3,250,185.6,249.8z"/>
			<path d="M191.2,249.2c-0.2-0.4-0.4-0.9-0.6-1.3s-0.4-0.9-0.7-1.4l-0.3-0.6c-0.2-0.5-0.5-0.9-0.7-1.4c-0.2-0.5-0.5-0.9-0.7-1.4
				l1.5-0.9l0.6,1l0.2-0.1c0-0.3,0.1-0.5,0.2-0.8c0.1-0.3,0.2-0.5,0.4-0.8c0.2-0.2,0.4-0.4,0.8-0.6c0.5-0.2,0.9-0.3,1.3-0.2
				s0.7,0.3,1,0.7l0.1,0c0.1,0.1,0.2,0.2,0.2,0.3c0.1,0.1,0.2,0.3,0.2,0.4c0.1,0.3,0.3,0.5,0.4,0.7c0.1,0.2,0.2,0.5,0.4,0.7
				c0.3,0.5,0.5,0.9,0.7,1.4c0.2,0.4,0.4,0.8,0.7,1.3l-1.8,0.9c-0.2-0.4-0.4-0.9-0.6-1.3c-0.2-0.4-0.4-0.8-0.7-1.3l-0.5-1
				c-0.2-0.4-0.4-0.6-0.6-0.7c-0.2-0.1-0.4-0.1-0.7,0c-0.2,0.1-0.3,0.2-0.4,0.3c-0.1,0.1-0.2,0.3-0.2,0.5c-0.1,0.2-0.1,0.4-0.1,0.5
				l0.6,1.3c0.2,0.5,0.5,0.9,0.7,1.3c0.2,0.4,0.4,0.8,0.6,1.2L191.2,249.2z M198.6,245.3c-0.2-0.4-0.4-0.9-0.6-1.3
				c-0.2-0.4-0.4-0.8-0.7-1.3l-0.5-1c-0.2-0.4-0.4-0.6-0.6-0.7c-0.2-0.1-0.4-0.1-0.7,0c-0.2,0.1-0.3,0.2-0.4,0.3
				c-0.1,0.1-0.2,0.3-0.2,0.5c-0.1,0.2-0.1,0.4-0.1,0.6l-0.9-1.2l0.2-0.1c0-0.3,0.1-0.5,0.2-0.8c0.1-0.3,0.3-0.5,0.5-0.8
				s0.5-0.4,0.8-0.6c0.6-0.3,1.1-0.4,1.6-0.2c0.5,0.2,0.9,0.7,1.3,1.4c0.1,0.3,0.3,0.5,0.4,0.7c0.1,0.2,0.2,0.5,0.4,0.7
				c0.3,0.5,0.5,0.9,0.7,1.4c0.2,0.4,0.4,0.8,0.7,1.3L198.6,245.3z"/>
			<path d="M198.9,236c-0.3,0.2-0.6,0.3-0.9,0.2c-0.3,0-0.5-0.2-0.7-0.6c-0.2-0.3-0.2-0.6-0.1-0.9c0.1-0.3,0.3-0.5,0.6-0.7
				c0.3-0.2,0.6-0.3,0.9-0.2c0.3,0.1,0.5,0.2,0.7,0.5c0.2,0.3,0.3,0.7,0.2,0.9C199.5,235.6,199.3,235.8,198.9,236z M202.1,243.3
				c-0.3-0.4-0.5-0.8-0.7-1.2c-0.2-0.4-0.5-0.8-0.8-1.3l-0.4-0.6c-0.2-0.4-0.4-0.7-0.6-1c-0.2-0.3-0.4-0.6-0.5-0.9
				c-0.2-0.3-0.3-0.5-0.5-0.8l1.7-1.1c0.2,0.3,0.3,0.6,0.5,0.8c0.2,0.3,0.3,0.6,0.5,0.9c0.2,0.3,0.4,0.7,0.6,1.1l0.4,0.6
				c0.3,0.5,0.6,0.9,0.8,1.3c0.2,0.4,0.5,0.8,0.7,1.2L202.1,243.3z"/>
			<path d="M205.6,241.2c-0.3-0.4-0.5-0.8-0.8-1.2c-0.3-0.4-0.5-0.8-0.9-1.3l-0.4-0.6c-0.3-0.4-0.6-0.9-0.9-1.3
				c-0.3-0.4-0.6-0.9-0.9-1.3l1.4-1l0.7,0.9l0.1-0.1c0-0.3,0-0.5,0.1-0.8c0.1-0.3,0.2-0.6,0.4-0.8c0.2-0.3,0.4-0.5,0.7-0.7
				c0.6-0.4,1.1-0.5,1.6-0.4c0.5,0.1,1,0.5,1.5,1.2c0.2,0.2,0.3,0.5,0.5,0.7c0.1,0.2,0.3,0.4,0.5,0.7c0.3,0.5,0.6,0.9,0.9,1.3
				c0.3,0.4,0.5,0.8,0.8,1.2l-1.7,1.1c-0.3-0.4-0.5-0.8-0.8-1.2c-0.3-0.4-0.5-0.8-0.8-1.2l-0.6-0.9c-0.2-0.3-0.4-0.5-0.7-0.6
				c-0.2-0.1-0.5,0-0.8,0.1c-0.2,0.1-0.3,0.2-0.4,0.4c-0.1,0.2-0.2,0.3-0.2,0.5c0,0.2-0.1,0.4,0,0.6l0.8,1.2
				c0.3,0.4,0.6,0.8,0.8,1.2c0.3,0.4,0.5,0.8,0.8,1.2L205.6,241.2z"/>
			<path d="M213.9,235.6c-0.3,0.2-0.6,0.4-1,0.4c-0.3,0.1-0.7,0-1-0.1c-0.3-0.1-0.6-0.4-0.8-0.7c-0.2-0.3-0.4-0.6-0.4-0.9
				c-0.1-0.3,0-0.6,0-0.8c0.1-0.3,0.2-0.5,0.3-0.7c0.1-0.2,0.3-0.4,0.5-0.6l1.3-1.4c-0.1-0.2-0.3-0.3-0.5-0.4c-0.2,0-0.4,0-0.6,0
				c-0.2,0.1-0.4,0.2-0.6,0.4c-0.1,0.1-0.2,0.2-0.4,0.3c-0.1,0.1-0.3,0.3-0.4,0.4c-0.1,0.2-0.3,0.3-0.4,0.5
				c-0.1,0.2-0.2,0.4-0.3,0.6l-1.1-1.3c0.1-0.2,0.2-0.3,0.3-0.5c0.1-0.2,0.3-0.4,0.5-0.6c0.2-0.2,0.4-0.4,0.6-0.6
				c0.2-0.2,0.4-0.4,0.7-0.6c0.4-0.4,0.9-0.6,1.3-0.7c0.4-0.1,0.8-0.1,1.2,0c0.4,0.1,0.8,0.4,1.1,0.9c0.1,0.2,0.3,0.4,0.5,0.6
				c0.2,0.3,0.4,0.5,0.5,0.7l0.4,0.5c0.2,0.3,0.4,0.6,0.7,0.8c0.2,0.3,0.5,0.6,0.7,0.9l-1.4,1.1l-0.7-0.6l-0.1,0.1
				c0,0.2,0,0.4-0.1,0.7c0,0.2-0.1,0.5-0.3,0.7C214.3,235.1,214.1,235.4,213.9,235.6z M213.5,233.8c0.1-0.1,0.2-0.2,0.3-0.4
				c0.1-0.2,0.1-0.3,0.1-0.5c0-0.2,0-0.4,0-0.6l-0.6-0.8c0,0.1,0,0.1-0.1,0.2c0,0.1-0.1,0.2-0.2,0.3c-0.1,0.1-0.3,0.3-0.4,0.5
				c-0.1,0.1-0.2,0.3-0.2,0.4c0,0.1-0.1,0.3,0,0.4c0,0.1,0.1,0.3,0.2,0.4c0.2,0.2,0.3,0.3,0.5,0.3C213.2,234,213.4,234,213.5,233.8z
				"/>
			<path d="M218.5,231.7c-0.3-0.4-0.6-0.7-0.9-1.1c-0.3-0.3-0.6-0.7-1-1.1L216,229c-0.4-0.4-0.7-0.8-1.1-1.2
				c-0.4-0.4-0.7-0.8-1.1-1.2l1.2-1.2l0.9,0.8l0.1-0.1c0-0.3,0-0.6,0-0.8c0-0.3,0.1-0.6,0.2-0.9c0.1-0.3,0.3-0.5,0.6-0.8
				c0.5-0.5,1-0.7,1.6-0.6c0.5,0.1,1.1,0.4,1.6,1c0.2,0.2,0.4,0.4,0.6,0.6c0.2,0.2,0.4,0.4,0.5,0.6c0.4,0.4,0.7,0.8,1,1.1
				c0.3,0.3,0.6,0.7,1,1.1l-1.5,1.4c-0.3-0.4-0.6-0.7-0.9-1.1c-0.3-0.3-0.6-0.7-1-1.1l-0.7-0.8c-0.3-0.3-0.5-0.5-0.8-0.5
				c-0.2-0.1-0.5,0-0.7,0.2c-0.1,0.1-0.3,0.3-0.3,0.5c-0.1,0.2-0.1,0.3-0.1,0.5s0,0.4,0,0.6l0.9,1.1c0.3,0.4,0.7,0.7,1,1.1
				c0.3,0.3,0.6,0.7,0.9,1L218.5,231.7z"/>
			<path d="M226.7,224.1c-0.4,0.4-0.7,0.6-1.1,0.8c-0.4,0.1-0.7,0.2-1.1,0.1c-0.4-0.1-0.8-0.3-1.1-0.7c-0.2-0.2-0.4-0.4-0.7-0.6
				c-0.2-0.2-0.5-0.4-0.7-0.7c-0.2-0.2-0.5-0.5-0.8-0.8c-0.3-0.3-0.6-0.6-0.9-0.9c-0.4-0.4-0.7-0.7-1-1c-0.3-0.3-0.6-0.6-0.9-0.9
				l1.2-1.7c0.3,0.2,0.5,0.5,0.7,0.7c0.2,0.2,0.5,0.5,0.7,0.7c0.2,0.2,0.5,0.5,0.8,0.8l2.5,2.5c0.3,0.3,0.6,0.5,0.8,0.5
				c0.3,0,0.5-0.1,0.8-0.3c0.1-0.1,0.2-0.2,0.3-0.4s0.1-0.3,0.2-0.5l1.3,1.1c0,0.1-0.1,0.3-0.2,0.5c-0.1,0.2-0.2,0.3-0.3,0.5
				C227,223.8,226.9,224,226.7,224.1z M220.4,222.8l-1.1-1.1l3.6-3.7l1.1,1.1c-0.3,0.3-0.6,0.6-0.9,0.9c-0.3,0.3-0.6,0.6-0.9,0.9
				l-0.6,0.6L220.4,222.8z"/>
		</g>
	</g>
</g>
<g>
	<g>
		<g>
			<path d="M140.8,50.8c0-0.4,0-0.8,0-1.2c0-0.4,0-0.8,0-1.3l0-2.7c0-0.5,0-1,0-1.4c0-0.4,0-0.8,0-1.3l1.9,0c0,0.4,0,0.9,0,1.3
				c0,0.4,0,0.9,0,1.4l0,2.7c0,0.5,0,0.9,0,1.3c0,0.4,0,0.8,0,1.2L140.8,50.8z"/>
		</g>
	</g>
	<g>
		<g>
			<path d="M213.1,85.3c0.3-0.3,0.7-0.5,1-0.8c0.3-0.2,0.7-0.5,1.1-0.8l2.1-1.6c0.4-0.3,0.8-0.6,1.1-0.8c0.3-0.3,0.7-0.5,1-0.8
				l1.1,1.5c-0.3,0.3-0.7,0.5-1,0.8c-0.3,0.2-0.7,0.5-1.1,0.8l-2.1,1.6c-0.4,0.3-0.7,0.6-1.1,0.8c-0.3,0.2-0.6,0.5-1,0.8L213.1,85.3
				z"/>
			<path d="M215.2,88.1c0.3-0.2,0.7-0.5,1-0.7c0.3-0.2,0.7-0.5,1.1-0.8l2.2-1.6c0.4-0.3,0.8-0.6,1.1-0.8c0.3-0.2,0.7-0.5,1-0.7
				l1.1,1.5c-0.4,0.3-0.7,0.5-1,0.7c-0.3,0.2-0.7,0.5-1.1,0.8l-2.2,1.6c-0.4,0.3-0.8,0.5-1.1,0.8c-0.3,0.2-0.7,0.5-1,0.7L215.2,88.1
				z"/>
		</g>
	</g>
	<g>
		<g>
			<path d="M66.6,88.1c-0.4-0.1-0.8-0.3-1.3-0.4c-0.4-0.2-0.9-0.3-1.2-0.4l-2.5-0.9c-0.3-0.1-0.6-0.2-0.9-0.3
				c-0.3-0.1-0.7-0.2-1-0.4c-0.3-0.1-0.7-0.2-1-0.3l1.2-1.6c0.5,0.2,1,0.4,1.6,0.6c0.6,0.2,1.1,0.4,1.6,0.6l2.8,1.1l0.1-0.1L64,83.6
				c-0.3-0.4-0.7-0.9-1-1.3c-0.4-0.5-0.7-0.9-1-1.3l1.2-1.6c0.2,0.3,0.4,0.6,0.6,0.8c0.2,0.3,0.4,0.6,0.6,0.9
				c0.2,0.3,0.4,0.5,0.6,0.8l1.6,2.1c0.2,0.3,0.5,0.7,0.8,1.1c0.3,0.4,0.5,0.7,0.8,1.1L66.6,88.1z"/>
			<path d="M70.2,83.4c-0.3-0.3-0.7-0.5-1-0.8c-0.3-0.3-0.7-0.5-1-0.9L66.1,80c-0.4-0.3-0.8-0.6-1.1-0.9c-0.3-0.3-0.6-0.5-1-0.8
				l1.2-1.4c0.3,0.3,0.7,0.6,1,0.8c0.3,0.3,0.7,0.6,1.1,0.9l2.1,1.7c0.4,0.3,0.7,0.6,1,0.9c0.3,0.3,0.6,0.5,1,0.8L70.2,83.4z"/>
			<path d="M72.4,80.7c-0.3-0.3-0.6-0.6-0.9-0.8c-0.3-0.3-0.6-0.6-1-0.9l-2-1.8c-0.4-0.3-0.7-0.7-1-0.9c-0.3-0.3-0.6-0.6-1-0.9
				l1.3-1.4c0.3,0.3,0.6,0.6,1,0.9c0.3,0.3,0.7,0.6,1,0.9l2,1.8c0.4,0.3,0.7,0.6,1,0.9c0.3,0.3,0.6,0.5,0.9,0.8L72.4,80.7z"/>
		</g>
	</g>
	<g>
		<g>
			<path d="M44.5,162.7c0.4-0.2,0.8-0.5,1.2-0.7c0.4-0.3,0.9-0.5,1.2-0.7l2.4-1.4c0.3-0.2,0.6-0.3,0.9-0.5c0.3-0.2,0.7-0.4,1-0.6
				s0.7-0.4,1-0.6l0.5,2.1c-0.5,0.3-1,0.5-1.6,0.8c-0.6,0.3-1.1,0.6-1.6,0.8l-2.9,1.5l0,0.1l3.2,0.1c0.6,0,1.2,0.1,1.8,0.1
				c0.6,0,1.2,0.1,1.8,0.1l0.5,2.1c-0.4,0-0.7-0.1-1.1-0.1c-0.4,0-0.8-0.1-1.1-0.1c-0.4,0-0.7-0.1-1.1-0.1l-2.8-0.2
				c-0.4,0-0.9-0.1-1.4-0.1c-0.5,0-1-0.1-1.4-0.1L44.5,162.7z"/>
			<path d="M46.2,169.3c0.4-0.1,0.9-0.3,1.3-0.4c0.4-0.1,0.9-0.3,1.4-0.4l2.8-0.8c0.5-0.2,1-0.3,1.4-0.4c0.4-0.1,0.9-0.3,1.3-0.4
				l0.6,1.9c-0.5,0.1-0.9,0.3-1.3,0.4c-0.4,0.1-0.9,0.3-1.4,0.4l-2.8,0.8c-0.5,0.2-1,0.3-1.4,0.4c-0.4,0.1-0.8,0.3-1.3,0.4
				L46.2,169.3z"/>
		</g>
	</g>
	<g>
		<g>
			<path d="M97.3,231.1c0.1-0.4,0.1-0.8,0.2-1.3c0.1-0.4,0.1-0.9,0.2-1.2l0.4-2.5c0-0.3,0.1-0.6,0.1-0.9c0.1-0.3,0.1-0.7,0.2-1
				c0.1-0.3,0.1-0.7,0.2-1l1.8,0.9c-0.1,0.5-0.2,1-0.3,1.6c-0.1,0.6-0.2,1.1-0.3,1.6l-0.6,2.8l0.1,0.1l1.9-2.2
				c0.3-0.4,0.7-0.8,1.1-1.2c0.4-0.4,0.7-0.8,1.1-1.2l1.7,0.9c-0.2,0.2-0.5,0.5-0.7,0.7c-0.2,0.3-0.5,0.5-0.7,0.7
				c-0.2,0.2-0.4,0.5-0.7,0.7l-1.8,1.8c-0.3,0.3-0.6,0.6-0.9,0.9c-0.3,0.3-0.6,0.6-0.9,0.9L97.3,231.1z"/>
		</g>
	</g>
	<g>
		<g>
			<path d="M180.5,233.7c-0.2-0.4-0.3-0.7-0.5-1.1c-0.2-0.4-0.3-0.8-0.5-1.2l-1-2.4c-0.2-0.5-0.4-0.9-0.5-1.2
				c-0.2-0.4-0.3-0.7-0.5-1.1l1.7-0.7c0.2,0.4,0.3,0.8,0.5,1.1c0.2,0.4,0.3,0.8,0.5,1.2l1,2.4c0.2,0.4,0.4,0.8,0.5,1.2
				c0.2,0.4,0.3,0.7,0.5,1.1L180.5,233.7z"/>
			<path d="M185.5,231.4c-0.3-0.3-0.6-0.6-0.9-0.9c-0.3-0.3-0.6-0.6-0.9-0.9l-1.8-1.8c-0.2-0.2-0.4-0.4-0.7-0.7
				c-0.2-0.2-0.5-0.5-0.7-0.7c-0.2-0.2-0.5-0.5-0.7-0.7l1.8-0.9c0.3,0.4,0.7,0.8,1.1,1.2c0.4,0.4,0.7,0.8,1.1,1.2l1.9,2.1l0.1-0.1
				l-0.6-2.8c-0.1-0.5-0.2-1-0.3-1.6c-0.1-0.5-0.2-1.1-0.3-1.6l1.7-0.9c0.1,0.3,0.1,0.7,0.2,1c0.1,0.3,0.1,0.7,0.2,1
				c0.1,0.3,0.1,0.6,0.2,0.9l0.4,2.5c0.1,0.4,0.1,0.8,0.2,1.2c0.1,0.4,0.1,0.9,0.2,1.3L185.5,231.4z"/>
		</g>
	</g>
	<g>
		<g>
			<path d="M237,171.5c-0.4-0.1-0.9-0.3-1.3-0.4c-0.4-0.1-0.9-0.3-1.4-0.4l-2.8-0.8c-0.5-0.2-1-0.3-1.4-0.4
				c-0.4-0.1-0.9-0.3-1.3-0.4l0.6-2c0.5,0.1,0.9,0.3,1.3,0.4c0.4,0.1,0.9,0.3,1.4,0.4l2.8,0.8c0.5,0.2,1,0.3,1.4,0.4
				c0.4,0.1,0.8,0.3,1.3,0.4L237,171.5z"/>
			<path d="M238.1,167.6c-0.5-0.1-0.9-0.2-1.3-0.3c-0.4-0.1-0.9-0.2-1.4-0.4l-2.9-0.7c-0.5-0.1-1-0.3-1.5-0.4s-0.9-0.2-1.3-0.3
				l0.5-2c0.5,0.1,0.9,0.2,1.3,0.3s0.9,0.2,1.5,0.4l2.8,0.7c0.5,0.1,1,0.2,1.4,0.4c0.4,0.1,0.9,0.2,1.3,0.3L238.1,167.6z"/>
			<path d="M239.1,163.8c-0.5-0.1-0.9-0.2-1.3-0.3c-0.4-0.1-0.9-0.2-1.4-0.3l-2.9-0.6c-0.5-0.1-1-0.2-1.5-0.3
				c-0.4-0.1-0.9-0.2-1.4-0.3l0.4-2c0.5,0.1,0.9,0.2,1.4,0.3c0.4,0.1,0.9,0.2,1.5,0.3l2.9,0.6c0.5,0.1,1,0.2,1.4,0.3
				c0.4,0.1,0.9,0.2,1.3,0.3L239.1,163.8z"/>
		</g>
	</g>
</g>
<g id="notes_2_">
	<g id="circles">
		<circle id="c1" fill="#D9D9D8" cx="141.7" cy="77.5" r="12.5"/>
		<circle id="c2" fill="#B3B3B3" cx="173.9" cy="86.1" r="12.5"/>
		<circle id="c3" fill="#B3B3B3" cx="197.4" cy="109.6" r="12.5"/>
		<circle id="c4" fill="#D9D9D8" cx="206" cy="141.7" r="12.5"/>
		<circle id="c5" fill="#D9D9D8" cx="197.4" cy="173.9" r="12.5"/>
		<circle id="c6" fill="#B3B3B3" cx="173.9" cy="197.4" r="12.5"/>
		<circle id="c7" fill="#999998" cx="141.7" cy="206" r="12.5"/>
		<circle id="c8" fill="#EAEAEA" cx="109.6" cy="197.4" r="12.5"/>
		<circle id="c9" fill="#D9D9D8" cx="86.1" cy="173.9" r="12.5"/>
		<circle id="c10" fill="#D9D9D8" cx="77.5" cy="141.7" r="12.5"/>
		<circle id="c11" fill="#EAEAEA" cx="86.1" cy="109.6" r="12.5"/>
		<circle id="c12" fill="#EAEAEA" cx="109.6" cy="86.1" r="12.5"/>
	</g>
</g>
</svg>
