<svg id="Layer_1" data-name="Layer 1" xmlns="http://www.w3.org/2000/svg" xmlns:xlink="http://www.w3.org/1999/xlink" viewBox="0 0 171.66 172.01">
  <defs>
    <clipPath id="clip-path">
      <rect y="-0.54" width="172.55" height="172.55" fill="none"/>
    </clipPath>
  </defs>
  <g clip-path="url(#clip-path)">
    <polygon points="85.36 92.37 49.1 155.19 121.63 155.19 85.36 92.37" fill="#f5832b"/>
    <text transform="translate(72.35 139.52)" font-size="21.8" fill="#fff" font-family="Neusa-SemiBold, Neusa" font-weight="600">A#</text>
    <polygon points="127.77 152.03 164.04 89.21 91.5 89.21 127.77 152.03" fill="#00a99d" opacity="0.5"/>
    <polygon points="126.75 19.45 90.49 82.26 163.02 82.26 126.75 19.45" fill="#00a99d"/>
    <polygon points="170.06 78.36 206.32 15.54 133.79 15.54 170.06 78.36" fill="#92278f" opacity="0.5"/>
    <polygon points="42.34 19.45 6.08 82.26 78.61 82.26 42.34 19.45" fill="#ec008c"/>
    <polygon points="42.34 152.03 78.61 89.21 6.08 89.21 42.34 152.03" fill="#ec008c" opacity="0.5"/>
    <polygon points="85.36 78.36 121.63 15.54 49.1 15.54 85.36 78.36" fill="#fff200" opacity="0.5"/>
    <g>
      <line x1="103.89" y1="789.08" x2="594.55" y2="-60.78" fill="none" stroke="#231f20" stroke-miterlimit="10"/>
      <line x1="18.85" y1="789.08" x2="509.51" y2="-60.78" fill="none" stroke="#231f20" stroke-miterlimit="10"/>
      <line x1="-66.19" y1="789.08" x2="424.47" y2="-60.78" fill="none" stroke="#231f20" stroke-miterlimit="10"/>
      <line x1="-151.23" y1="789.08" x2="339.43" y2="-60.78" fill="none" stroke="#231f20" stroke-miterlimit="10"/>
      <line x1="-236.27" y1="789.08" x2="254.39" y2="-60.78" fill="none" stroke="#231f20" stroke-miterlimit="10"/>
      <line x1="-321.31" y1="789.08" x2="169.35" y2="-60.78" fill="none" stroke="#231f20" stroke-miterlimit="10"/>
      <line x1="-406.35" y1="789.08" x2="84.31" y2="-60.78" fill="none" stroke="#231f20" stroke-miterlimit="10"/>
    </g>
    <g>
      <line x1="661.17" y1="789.08" x2="170.5" y2="-60.78" fill="none" stroke="#231f20" stroke-miterlimit="10"/>
      <line x1="576.13" y1="789.08" x2="85.46" y2="-60.78" fill="none" stroke="#231f20" stroke-miterlimit="10"/>
      <line x1="491.09" y1="789.08" x2="0.42" y2="-60.78" fill="none" stroke="#231f20" stroke-miterlimit="10"/>
      <line x1="406.05" y1="789.08" x2="-84.62" y2="-60.78" fill="none" stroke="#231f20" stroke-miterlimit="10"/>
      <line x1="321.01" y1="789.08" x2="-169.66" y2="-60.78" fill="none" stroke="#231f20" stroke-miterlimit="10"/>
      <line x1="235.97" y1="789.08" x2="-254.7" y2="-60.78" fill="none" stroke="#231f20" stroke-miterlimit="10"/>
      <line x1="150.93" y1="789.08" x2="-339.74" y2="-60.78" fill="none" stroke="#231f20" stroke-miterlimit="10"/>
      <line x1="65.89" y1="789.08" x2="-424.78" y2="-60.78" fill="none" stroke="#231f20" stroke-miterlimit="10"/>
    </g>
    <g>
      <line x1="-192.01" y1="159.77" x2="733.24" y2="159.77" fill="none" stroke="#231f20" stroke-miterlimit="10"/>
      <line x1="-192.01" y1="86.07" x2="733.24" y2="86.07" fill="none" stroke="#231f20" stroke-miterlimit="10"/>
      <line x1="-192.01" y1="12.37" x2="733.24" y2="12.37" fill="none" stroke="#231f20" stroke-miterlimit="10"/>
    </g>
    <g>
      <circle cx="41.78" cy="158.99" r="15.13" fill="#f5832b"/>
      <path d="M39.23,153.69l4.33,11.58H40.92L40,162.69H35.72l-.91,2.58H32.25l4.37-11.58Zm.15,7.1-1.46-4.25h0l-1.51,4.25Z" fill="#fff"/>
      <path d="M46.32,165.27v-2.66l-1.61.32v-1.51l1.61-.32v-2.53l-1.61.33v-1.51l1.61-.36V154.5l.66-.11v2.51l1.78-.4v-2.84l.69-.11v2.8l1.62-.34v1.54l-1.62.32v2.52l1.62-.31v1.51l-1.62.34v2.38l-.69.13v-2.37l-1.78.42v2.68Zm.66-4.33,1.78-.41V158l-1.78.44Z" fill="#fff"/>
    </g>
    <g>
      <circle cx="128.34" cy="159.41" r="15.13" fill="#2e3192"/>
      <path d="M132.7,153.62v2.14h-5.59v2.67H132v2h-4.85v4.78h-2.55V153.62Z" fill="#fff"/>
    </g>
    <g>
      <circle cx="171.64" cy="86.29" r="15.13" fill="#ee342e"/>
      <path d="M173,80.8l4.33,11.57h-2.64l-.88-2.58h-4.33l-.91,2.58H166l4.38-11.57Zm.15,7.1-1.46-4.25h0l-1.5,4.25Z" fill="#fff"/>
    </g>
    <g>
      <circle cx="85.36" cy="86.22" r="15.13" fill="#00a99d"/>
      <path d="M85.23,80.58a6.19,6.19,0,0,1,2.09.35A4.65,4.65,0,0,1,89,82a5,5,0,0,1,1.1,1.79,7.3,7.3,0,0,1,.4,2.51,7.86,7.86,0,0,1-.33,2.33,5,5,0,0,1-1,1.85,4.6,4.6,0,0,1-1.64,1.23,5.63,5.63,0,0,1-2.31.44h-5V80.58ZM85.06,90a3.29,3.29,0,0,0,1.07-.18,2.34,2.34,0,0,0,.92-.59,2.86,2.86,0,0,0,.65-1.08,4.77,4.77,0,0,0,.24-1.62A7,7,0,0,0,87.77,85a3,3,0,0,0-.56-1.2,2.36,2.36,0,0,0-1-.77,4,4,0,0,0-1.58-.27H82.79V90Z" fill="#fff"/>
    </g>
    <g>
      <circle cx="-0.14" cy="86.22" r="15.13" fill="#ec008c"/>
      <path d="M1.09,92a4.31,4.31,0,0,1-1.67.35A5.92,5.92,0,0,1-3,91.91a5.16,5.16,0,0,1-1.79-1.27,5.6,5.6,0,0,1-1.12-1.91,7,7,0,0,1-.39-2.36A7.29,7.29,0,0,1-5.88,84,5.79,5.79,0,0,1-4.76,82,5.1,5.1,0,0,1-3,80.73a5.93,5.93,0,0,1,2.39-.47,5.59,5.59,0,0,1,1.73.27,5.16,5.16,0,0,1,1.51.78A4.63,4.63,0,0,1,3.77,82.6a4.23,4.23,0,0,1,.53,1.75H1.87A2.38,2.38,0,0,0,1,82.89,2.49,2.49,0,0,0-.58,82.4,3,3,0,0,0-2,82.73a2.77,2.77,0,0,0-1,.89,3.86,3.86,0,0,0-.54,1.28,5.92,5.92,0,0,0-.17,1.47,5.58,5.58,0,0,0,.17,1.42A3.74,3.74,0,0,0-3,89a2.74,2.74,0,0,0,1,.88,2.89,2.89,0,0,0,1.46.34,2.8,2.8,0,0,0,2-.64,2.87,2.87,0,0,0,.8-1.86H-.38v-1.9H4.48v6.26H2.86L2.6,90.8A3.8,3.8,0,0,1,1.09,92Z" fill="#fff"/>
    </g>
    <g>
      <circle cx="43.44" cy="12.37" r="15.13" fill="#fff200"/>
      <path d="M44.68,6.64a7.83,7.83,0,0,1,1.51.14,3.3,3.3,0,0,1,1.16.48,2.2,2.2,0,0,1,.76.89,3.05,3.05,0,0,1,.27,1.36A2.59,2.59,0,0,1,48,11a2.92,2.92,0,0,1-1.18.95A2.8,2.8,0,0,1,48.4,13a3.21,3.21,0,0,1,.53,1.86,3.24,3.24,0,0,1-.34,1.51,3,3,0,0,1-.92,1.05,4,4,0,0,1-1.31.6,6,6,0,0,1-1.52.19H39.23V6.64Zm-.33,4.68A1.79,1.79,0,0,0,45.47,11,1.21,1.21,0,0,0,45.91,10a1.45,1.45,0,0,0-.14-.67,1.07,1.07,0,0,0-.39-.4,1.71,1.71,0,0,0-.56-.21,4.65,4.65,0,0,0-.66-.05H41.78v2.7Zm.15,4.91a3.23,3.23,0,0,0,.71-.07,1.8,1.8,0,0,0,.6-.24,1.33,1.33,0,0,0,.42-.46,1.67,1.67,0,0,0,.15-.75,1.5,1.5,0,0,0-.5-1.27,2.12,2.12,0,0,0-1.33-.38H41.78v3.17Z" fill="#fff"/>
    </g>
    <g>
      <circle cx="128.34" cy="12.37" r="15.13" fill="#92278f"/>
      <path d="M129.17,6.76V8.9h-5.59v2.67h4.84v2h-4.84v4.78H121V6.76Z" fill="#fff"/>
      <path d="M132.4,18.33V15.67l-1.61.33V14.49l1.61-.33V11.64l-1.61.32V10.45l1.61-.35V7.57l.66-.12V10l1.78-.41V6.72l.68-.11V9.42l1.62-.35v1.54l-1.62.33v2.51l1.62-.31v1.51l-1.62.34v2.38l-.68.13V15.14l-1.78.42v2.67Zm.66-4.33,1.78-.4V11.07l-1.78.44Z" fill="#fff"/>
    </g>
    <text transform="translate(36.95 66.59)" font-size="21.8" fill="#fff" font-family="Neusa-SemiBold, Neusa" font-weight="600">G</text>
    <text transform="translate(82.05 46.23)" font-size="21.8" fill="#fff" font-family="Neusa-SemiBold, Neusa" font-weight="600">b</text>
    <text transform="translate(121.48 66.59)" font-size="21.8" fill="#fff" font-family="Neusa-SemiBold, Neusa" font-weight="600">D</text>
    <text transform="translate(159.78 46.23)" font-size="21.8" fill="#fff" font-family="Neusa-SemiBold, Neusa" font-weight="600">F#</text>
    <text transform="translate(36.82 114.38)" font-size="21.8" fill="#fff" font-family="Neusa-SemiBold, Neusa" font-weight="600">g</text>
    <text transform="translate(123.67 114.38)" font-size="21.8" fill="#fff" font-family="Neusa-SemiBold, Neusa" font-weight="600">d</text>
    <rect x="-59.08" y="-11.16" width="639.17" height="421.25" fill="none" stroke="#231f20" stroke-miterlimit="10"/>
    <polygon points="43.16 111.58 43.16 61.58 -0.14 36.58 -43.44 61.58 -43.44 111.58 -0.14 136.58 43.16 111.58" fill="#ec008c" opacity="0.25"/>
    <polygon points="129.9 110.73 129.9 60.73 86.6 35.73 43.3 60.73 43.3 110.73 86.6 135.73 129.9 110.73" fill="#00a99d" opacity="0.25"/>
    <polygon points="86.6 185.94 86.6 135.94 43.3 110.94 0 135.94 0 185.94 43.3 210.94 86.6 185.94" fill="#f5832b" opacity="0.25"/>
    <polygon points="86.32 36.51 86.32 -13.49 43.02 -38.49 -0.28 -13.49 -0.28 36.51 43.02 61.51 86.32 36.51" fill="#fff200" opacity="0.25"/>
    <polygon points="172.96 35.94 172.96 -14.06 129.66 -39.06 86.36 -14.06 86.36 35.94 129.66 60.94 172.96 35.94" fill="#92278f" opacity="0.25"/>
    <polygon points="215.85 110.91 215.85 60.91 172.55 35.91 129.25 60.91 129.25 110.91 172.55 135.91 215.85 110.91" fill="#ee342e" opacity="0.25"/>
    <polygon points="172.49 185.37 172.49 135.37 129.19 110.37 85.89 135.37 85.89 185.37 129.19 210.37 172.49 185.37" fill="#2e3192" opacity="0.25"/>
  </g>
</svg>
