<svg height="100" viewBox="0 0 530 100" width="520" xmlns="http://www.w3.org/2000/svg"><path d="m3 20h10v50h-10z" fill="#fff" stroke="#888"/><path d="m13 20h10v50h-10z" fill="#fff" stroke="#888"/><path d="m10.5 20h5v25h-5z" stroke="#000"/><path d="m23 20h10v50h-10z" fill="#fff" stroke="#888"/><path d="m33 20h10v50h-10z" fill="#fff" stroke="#888"/><path d="m43 20h10v50h-10z" fill="#fff" stroke="#888"/><path d="m53 20h10v50h-10z" fill="#fff" stroke="#888"/><path d="m63 20h10v50h-10z" fill="#fff" stroke="#888"/><path d="m73 20h10v50h-10z" fill="#fff" stroke="#888"/><path d="m83 20h10v50h-10z" fill="#fff" stroke="#888"/><g stroke="#000"><path d="m30.5 20h5v25h-5z"/><path d="m40.5 20h5v25h-5z"/><path d="m60.5 20h5v25h-5z"/><path d="m70.5 20h5v25h-5z"/><path d="m80.5 20h5v25h-5z"/><path d="m23 75h70"/><path d="m23 78v-6"/><path d="m93 78v-6"/></g><text font-size="10" x="54" y="90">1</text><path d="m93 20h10v50h-10z" fill="#fff" stroke="#888"/><path d="m103 20h10v50h-10z" fill="#fff" stroke="#888"/><path d="m113 20h10v50h-10z" fill="#fff" stroke="#888"/><path d="m123 20h10v50h-10z" fill="#fff" stroke="#888"/><path d="m133 20h10v50h-10z" fill="#fff" stroke="#888"/><path d="m143 20h10v50h-10z" fill="#fff" stroke="#888"/><path d="m153 20h10v50h-10z" fill="#fff" stroke="#888"/><path d="m100.5 20h5v25h-5z" stroke="#000"/><path d="m110.5 20h5v25h-5z" stroke="#000"/><path d="m130.5 20h5v25h-5z" stroke="#000"/><path d="m140.5 20h5v25h-5z" stroke="#000"/><path d="m150.5 20h5v25h-5z" stroke="#000"/><path d="m93 15h70" stroke="#000"/><path d="m93 18v-6" stroke="#000"/><path d="m163 18v-6" stroke="#000"/><text font-size="10" x="124" y="10">2</text><path d="m163 20h10v50h-10z" fill="#fff" stroke="#888"/><path d="m173 20h10v50h-10z" fill="#fff" stroke="#888"/><path d="m183 20h10v50h-10z" fill="#fff" stroke="#888"/><path d="m193 20h10v50h-10z" fill="#fff" stroke="#888"/><path d="m203 20h10v50h-10z" fill="#fff" stroke="#888"/><path d="m213 20h10v50h-10z" fill="#fff" stroke="#888"/><path d="m223 20h10v50h-10z" fill="#fff" stroke="#888"/><path d="m170.5 20h5v25h-5z" stroke="#000"/><path d="m180.5 20h5v25h-5z" stroke="#000"/><path d="m200.5 20h5v25h-5z" stroke="#000"/><path d="m210.5 20h5v25h-5z" stroke="#000"/><path d="m220.5 20h5v25h-5z" stroke="#000"/><path d="m163 75h70" stroke="#000"/><path d="m163 78v-6" stroke="#000"/><path d="m233 78v-6" stroke="#000"/><text font-size="10" x="194" y="90">3</text><path d="m233 20h10v50h-10z" fill="#0ff" stroke="#888"/><path d="m243 20h10v50h-10z" fill="#fff" stroke="#888"/><path d="m253 20h10v50h-10z" fill="#fff" stroke="#888"/><path d="m263 20h10v50h-10z" fill="#fff" stroke="#888"/><path d="m273 20h10v50h-10z" fill="#fff" stroke="#888"/><path d="m283 20h10v50h-10z" fill="#ff0" stroke="#888"/><path d="m293 20h10v50h-10z" fill="#fff" stroke="#888"/><path d="m240.5 20h5v25h-5z" stroke="#000"/><path d="m250.5 20h5v25h-5z" stroke="#000"/><path d="m270.5 20h5v25h-5z" stroke="#000"/><path d="m280.5 20h5v25h-5z" stroke="#000"/><path d="m290.5 20h5v25h-5z" stroke="#000"/><path d="m233 15h70" stroke="#000"/><path d="m233 18v-6" stroke="#000"/><path d="m303 18v-6" stroke="#000"/><text font-size="10" x="264" y="10">4</text><path d="m303 20h10v50h-10z" fill="#fff" stroke="#888"/><path d="m313 20h10v50h-10z" fill="#fff" stroke="#888"/><path d="m323 20h10v50h-10z" fill="#fff" stroke="#888"/><path d="m333 20h10v50h-10z" fill="#fff" stroke="#888"/><path d="m343 20h10v50h-10z" fill="#fff" stroke="#888"/><path d="m353 20h10v50h-10z" fill="#fff" stroke="#888"/><path d="m363 20h10v50h-10z" fill="#fff" stroke="#888"/><path d="m310.5 20h5v25h-5z" stroke="#000"/><path d="m320.5 20h5v25h-5z" stroke="#000"/><path d="m340.5 20h5v25h-5z" stroke="#000"/><path d="m350.5 20h5v25h-5z" stroke="#000"/><path d="m360.5 20h5v25h-5z" stroke="#000"/><path d="m303 75h70" stroke="#000"/><path d="m303 78v-6" stroke="#000"/><path d="m373 78v-6" stroke="#000"/><text font-size="10" x="334" y="90">5</text><path d="m373 20h10v50h-10z" fill="#fff" stroke="#888"/><path d="m383 20h10v50h-10z" fill="#fff" stroke="#888"/><path d="m393 20h10v50h-10z" fill="#fff" stroke="#888"/><path d="m403 20h10v50h-10z" fill="#fff" stroke="#888"/><path d="m413 20h10v50h-10z" fill="#fff" stroke="#888"/><path d="m423 20h10v50h-10z" fill="#fff" stroke="#888"/><path d="m433 20h10v50h-10z" fill="#fff" stroke="#888"/><path d="m380.5 20h5v25h-5z" stroke="#000"/><path d="m390.5 20h5v25h-5z" stroke="#000"/><path d="m410.5 20h5v25h-5z" stroke="#000"/><path d="m420.5 20h5v25h-5z" stroke="#000"/><path d="m430.5 20h5v25h-5z" stroke="#000"/><path d="m373 15h70" stroke="#000"/><path d="m373 18v-6" stroke="#000"/><path d="m443 18v-6" stroke="#000"/><text font-size="10" x="404" y="10">6</text><path d="m443 20h10v50h-10z" fill="#fff" stroke="#888"/><path d="m453 20h10v50h-10z" fill="#fff" stroke="#888"/><path d="m463 20h10v50h-10z" fill="#fff" stroke="#888"/><path d="m473 20h10v50h-10z" fill="#fff" stroke="#888"/><path d="m483 20h10v50h-10z" fill="#fff" stroke="#888"/><path d="m493 20h10v50h-10z" fill="#fff" stroke="#888"/><path d="m503 20h10v50h-10z" fill="#fff" stroke="#888"/><path d="m450.5 20h5v25h-5z" stroke="#000"/><path d="m460.5 20h5v25h-5z" stroke="#000"/><path d="m480.5 20h5v25h-5z" stroke="#000"/><path d="m490.5 20h5v25h-5z" stroke="#000"/><path d="m500.5 20h5v25h-5z" stroke="#000"/><path d="m443 75h70" stroke="#000"/><path d="m443 78v-6" stroke="#000"/><path d="m513 78v-6" stroke="#000"/><text font-size="10" x="474" y="90">7</text><path d="m513 20h10v50h-10z" fill="#fff" stroke="#888"/><path d="m3 15h20" stroke="#000"/><path d="m3 18v-6" stroke="#000"/><path d="m23 18v-6" stroke="#000"/><text font-size="10" x="9" y="10">0</text><path d="m513 15h10" stroke="#000"/><path d="m513 18v-6" stroke="#000"/><path d="m523 18v-6" stroke="#000"/><text font-size="10" x="514" y="10">8</text></svg>