<?xml version="1.0" encoding="utf-8"?>
<!-- Generator: Adobe Illustrator 24.3.0, SVG Export Plug-In . SVG Version: 6.00 Build 0)  -->
<svg version="1.1" id="Layer_2_1_" xmlns="http://www.w3.org/2000/svg" xmlns:xlink="http://www.w3.org/1999/xlink" x="0px" y="0px"
	 viewBox="0 0 198.4 198.4" style="enable-background:new 0 0 198.4 198.4;" xml:space="preserve">
<style type="text/css">
	.st0{fill:#EBEBEC;}
	.st1{fill:#231F20;}
	.st2{fill:#EDEDEE;}
	.st3{fill:#EB0D8C;}
	.st4{fill:#922A8E;}
	.st5{fill:#2E3690;}
	.st6{fill:#0D73BB;}
	.st7{fill:#2BACE2;}
	.st8{fill:#00A99D;}
	.st9{fill:#88C541;}
	.st10{fill:#FCEE23;}
	.st11{fill:#F89521;}
	.st12{fill:#EF372F;}
	.st13{fill:#E21A58;}
	.st14{fill:#06A64F;}
</style>
<g>
	<g>
		<path class="st0" d="M169.5,83.6c-4.2-3.2-3.1-2.4-15.6,0.9c19.4-4.8,26.7,24.4,7.3,29.3c-5.4,1.3-15.4-2.2,4.6,3.2
			c9.8-4.6,14.1-16.2,9.6-26.1C174,88.1,172,85.6,169.5,83.6z"/>
		<path class="st0" d="M139.2,59.2c14.4-13.8,35.3,7.9,20.9,21.7c-4,3.9-14.3,5.8,5.6,0.4c9.1-12.9-0.1-31-16.1-31
			C147.5,50.4,149.1,49.3,139.2,59.2z"/>
		<path class="st1" d="M113.9,153.8c4.8,19.4-24.4,26.7-29.3,7.3c-1.3-5.4,2.2-15.4-3.2,4.6c7,15.2,28.7,15.1,35.7,0L113.9,153.8z"
			/>
		<path class="st0" d="M59.2,139.2c-14.4,13.8-35.3-7.8-20.9-21.7c4-3.9,14.3-5.8-5.6-0.5c-9.6,13.6,1.1,32.4,17.8,30.9L59.2,139.2z
			"/>
		<path class="st0" d="M139.2,139.2c13.8,14.4-7.9,35.3-21.7,20.9c-3.9-4.1-5.8-14.4-0.4,5.6c8.9,6.2,21.2,4.1,27.4-4.8
			c1.8-2.6,3-5.6,3.4-8.7C148.5,147.2,148.5,148.4,139.2,139.2z"/>
		<path class="st1" d="M153.9,113.8c19.2,5.5,10.8,34.5-8.4,29c-5.3-1.5-12.2-9.5,2.4,5.1c16.9,1.5,27.3-17.6,17.8-30.9L153.9,113.8
			z"/>
		<path class="st0" d="M84.6,153.8c-5.5,19.2-34.5,10.8-29-8.4c1.5-5.3,9.5-12.2-5.1,2.4c-1.5,16.8,17.5,27.3,30.9,17.8L84.6,153.8z
			"/>
		<path class="st0" d="M84.6,44.6c-4.8-19.3,24.4-26.7,29.3-7.3c1.3,5.4-2.2,15.3,3.2-4.6c-6.9-15.2-28.7-15.1-35.7,0L84.6,44.6z"/>
		<path class="st1" d="M113.9,44.6c5.5-19.2,34.5-10.8,29,8.3c-1.6,5.4-9.5,12.1,5.1-2.4c1.6-16.8-17.4-27.4-30.9-17.8L113.9,44.6z"
			/>
		<path class="st1" d="M59.2,59.2C45.4,44.8,67.1,23.9,81,38.3c3.8,4,5.8,14.3,0.4-5.6c-8.9-6.3-21.1-4.2-27.4,4.7
			c-1.8,2.6-3,5.6-3.4,8.8C49.9,51.3,50,50,59.2,59.2z"/>
		<path class="st1" d="M44.6,113.8c-19.3,4.8-26.6-24.5-7.3-29.3c5.4-1.3,15.2,2.1-4.2-3.1c-0.3-0.1-0.6,0-0.8,0.1
			c-14.8,7.2-14.5,28.2,0,35.3C32.9,117.1,32.2,117.2,44.6,113.8z"/>
		<path class="st0" d="M45.2,84.5C26,79,33.8,50.1,53,55.6c5.4,1.6,12.2,9.5-2.5-5.1c-10.8-1-20.4,7-21.4,17.8
			c-0.3,3.2,0.2,6.4,1.4,9.3C32.6,82.4,32.6,81.4,45.2,84.5z"/>
	</g>
	<g>
		<path class="st2" d="M85.1,151.3c4.6-16.4,4.8-23.6,13.3-24.3c0-15.5,0.7-10.3-6.9-14.7c-3.8-2.2-3.4-1-28.4,24
			c7.4-3.8,16.5-0.9,20.3,6.5C84.8,145.4,85.4,148.4,85.1,151.3z"/>
		<path class="st2" d="M114.2,99.3c0,8.7-4.1,5.5,9,13.1c2.2-3.5,6.5-5.1,10.4-4c38.2,10.1,1.7,5.1,10-14.9
			c3.5-8.5,19.6-10.5-26.4,1.8C115.4,95.8,114.1,97.4,114.2,99.3z"/>
		<path class="st2" d="M113.9,154c0.1,0,0,0-0.1-0.4C113.8,153.7,113.9,153.9,113.9,154z"/>
		<path class="st2" d="M122.5,113.6c-13.3-7.7-9-5.2-15.8-1.3c-7.5,4.3-6.8-0.8-6.8,14.7c8.7,0.6,9,8,14,26.6
			c-3.7-13.6,11.7-24.3,23.2-16.2C125.2,125.2,118.9,121.4,122.5,113.6z"/>
		<path class="st2" d="M139,59.4L139,59.4L139,59.4z"/>
		<path class="st2" d="M139.2,59.3l-0.2,0.2L139.2,59.3z"/>
		<path class="st2" d="M136.6,77.6c-6.5-11.2,4.2-19.9,1.9-17.7c-12.5,12.2-16.7,20.3-25,15.9c-4,7-6.8,9.8-3.7,12.9
			c7,7-3.5,8,39.5-3.5C144.1,85,139.3,82.2,136.6,77.6z"/>
		<path class="st2" d="M113.8,44.8c-4,14.9-25.2,14.8-29.1,0c0.3,1.2,0.5,2.4,0.5,3.6C89.2,62,93.9,70,86,75.2
			c3.9,6.8,5,10.8,9.2,9.5c11.1-3.1,7.4,7,17.1-9.7C105.7,70.3,108.6,64.4,113.8,44.8z"/>
		<path class="st2" d="M84.6,44.5c-0.1,0,0-0.1,0.1,0.3C84.6,44.7,84.6,44.6,84.6,44.5z"/>
		<path class="st2" d="M113.9,44.6L113.9,44.6C113.8,44.9,113.8,44.9,113.9,44.6z"/>
		<path class="st2" d="M64.1,108.8c-36.5,9.9-2.4-3.7-0.3,18.1c0.8,8.8-11.7,18.5,21.8-15.1c2.8-2.8-0.1-5.3-1-8.7
			c-1.1-4.4-6.3-3.2-13.4-3.2C71,104.2,68.1,107.8,64.1,108.8z"/>
		<path class="st2" d="M73.9,74.1c-27.8-27.5,1.6-4.8-16.3,8.2c-8.6,6.2-17.2-0.1-10.1,3.3c15.5,4.4,22.8,4.6,23.6,13
			c8.7,0,12.4,1,13.5-3.2c1.8-6.8,7.1-7.6,4.7-11.8l-4.5-7.7C81.1,77.7,76.8,77,73.9,74.1z"/>
		<path class="st2" d="M44.4,84.5c0,0.1-0.1,0,0.4,0.1L44.4,84.5z"/>
		<path class="st1" d="M113.4,47.2c-4.3,16.4-8,22.9-1.1,27.9c4.9,3,9.2,2.1,12.3-0.9c15.1-15.5,14.3-14.7,14.4-14.8
			C129.1,69.3,111.9,61.3,113.4,47.2z"/>
		<path class="st1" d="M59.2,59.1c-0.8-0.8-1.3-1.6-0.6-0.5C59.3,59.3,59.1,59.2,59.2,59.1z"/>
		<path class="st1" d="M86,75.2c3.5-2.2,5.1-6.3,4-10.3c-9.5-34.8,0.6-11.9-12.1-3.9c-3.4,3.8-12.6,4.2-18.5-1.6
			C72.6,72.6,76.6,80.5,86,75.2z"/>
		<path class="st1" d="M59.2,59.1L59.2,59.1C59.5,59.5,59.5,59.5,59.2,59.1z"/>
		<path class="st1" d="M44.4,113.9c-1.1,0.2-3.4,0.5-1.1,0.4C44.4,113.9,44.4,114,44.4,113.9z"/>
		<path class="st1" d="M44.4,113.9c0,0.1-0.1,0,0.5-0.1L44.4,113.9z"/>
		<path class="st1" d="M71.1,98.6C70.3,90,61.5,89.2,46.7,85c11.6,5.6,11.1,25.3-1.8,28.8C61.7,109.3,71.4,109.7,71.1,98.6z"/>
		<path class="st1" d="M84.5,154.1c-0.3,0.9-0.3,0.7-0.2,1.5C84.5,154,84.6,154.1,84.5,154.1z"/>
		<path class="st1" d="M84.5,154.1c0.1,0,0,0.1,0.1-0.5C84.6,153.8,84.6,153.9,84.5,154.1z"/>
		<path class="st1" d="M99.8,127c-10.4-0.7-11,10.7-15.2,26.6c3.8-14.1,23.5-15.1,28.7-1.4C108.5,134.5,108.4,127.6,99.8,127z"/>
		<path class="st1" d="M153.9,113.9c0.7,0.2,0.9,0.3,0.5,0.1C153.8,113.8,153.9,113.8,153.9,113.9z"/>
		<path class="st1" d="M139.3,139.3c0.6,0.6,0.4,0.5,0.8,0.7C139.1,139.1,139.4,139.2,139.3,139.3z"/>
		<path class="st1" d="M153.9,113.9L153.9,113.9C153.5,113.8,153.5,113.7,153.9,113.9z"/>
		<path class="st1" d="M122.5,113.6c4.6-9.9,14.6-4.2,31.1,0.2c-14.8-4-25.5,14.3-14.6,25.2C126.4,126.4,118.7,121.7,122.5,113.6z"
			/>
		<path class="st1" d="M139.3,139.3L139.3,139.3C138.9,138.9,139,138.9,139.3,139.3z"/>
		<path class="st2" d="M84.1,44.7c0.1,0.2-0.1-0.4,1.1,3.8C85.2,47.8,85.1,44.4,84.1,44.7z"/>
		<path class="st1" d="M59.1,59.2c0.1-0.1,0.2,0-0.5-0.6C58.6,58.7,59,59.4,59.1,59.2z"/>
		<path class="st3" d="M59.1,59.2c0.1-0.1,0.2,0-0.5-0.6C58.6,58.7,59,59.4,59.1,59.2z"/>
		<path class="st1" d="M59.2,59.2c-0.2,0.2-0.4-0.2,1.8,2C60.4,60.5,59.8,59.8,59.2,59.2z"/>
		<path class="st3" d="M59.2,59.2c-0.2,0.2-0.4-0.2,1.8,2C60.4,60.5,59.8,59.8,59.2,59.2z"/>
		<path class="st2" d="M44.4,84.7l3.1,0.9C47.2,85.5,44.5,84.2,44.4,84.7z"/>
		<path class="st4" d="M44.4,84.7l3.1,0.9C47.2,85.5,44.5,84.2,44.4,84.7z"/>
		<path class="st1" d="M44.4,114.1c0.1,0,0.3-0.4-1.1,0.2C43.7,114.3,44,114.2,44.4,114.1z"/>
		<path class="st5" d="M44.4,114.1c0.1,0,0.3-0.4-1.1,0.2C43.7,114.3,44,114.2,44.4,114.1z"/>
		<path class="st1" d="M44.9,113.8c-1.5,0.4,0.6,0.1,2.5-0.4C46.5,113.4,45.7,113.6,44.9,113.8z"/>
		<path class="st5" d="M44.9,113.8c-1.5,0.4,0.6,0.1,2.5-0.4C46.5,113.4,45.7,113.6,44.9,113.8z"/>
		<path class="st1" d="M84.5,154.1c-0.1,0-0.2-0.2-0.2,0.8C84.3,154.8,84.6,154.1,84.5,154.1z"/>
		<path class="st6" d="M84.5,154.1c-0.1,0-0.2-0.2-0.2,0.8C84.3,154.8,84.6,154.1,84.5,154.1z"/>
		<path class="st1" d="M85.1,151.3c-0.9,3.1-0.8,2.7-0.6,2.8C84.8,153.2,85,152.2,85.1,151.3z"/>
		<path class="st6" d="M85.1,151.3c-0.9,3.1-0.8,2.7-0.6,2.8C84.8,153.2,85,152.2,85.1,151.3z"/>
		<path class="st2" d="M113.3,152.2c0.3,1.2,0.8,2.6,0.4,1.4C113.7,153.1,113.5,152.7,113.3,152.2z"/>
		<path class="st7" d="M113.3,152.2c0.3,1.2,0.8,2.6,0.4,1.4C113.7,153.1,113.5,152.7,113.3,152.2z"/>
		<path class="st1" d="M139.2,139.4c-0.1,0.1,0.5,0.4,0.6,0.4C139.2,139.2,139.3,139.3,139.2,139.4z"/>
		<path class="st8" d="M139.2,139.4c-0.1,0.1,0.5,0.4,0.6,0.4C139.2,139.2,139.3,139.3,139.2,139.4z"/>
		<path class="st1" d="M137,137.3c2.3,2.4,2,2.1,2.3,1.9C138.6,138.6,137.8,137.9,137,137.3z"/>
		<path class="st8" d="M137,137.3c2.3,2.4,2,2.1,2.3,1.9C138.6,138.6,137.8,137.9,137,137.3z"/>
		<path class="st9" d="M153.9,113.8C154.5,114,154.6,114,153.9,113.8C153.9,113.8,153.9,113.8,153.9,113.8z"/>
		<path class="st9" d="M151.7,113.1c2.3,1,2.7,0.7,1.6,0.4L151.7,113.1z"/>
		<path class="st10" d="M139,59.5l-0.2,0.2L139,59.5z"/>
		<path class="st11" d="M139,59.4c0.2-0.3,0.3-0.1,0.2-0.2L139,59.4z"/>
		<path class="st11" d="M113.4,47.2c0.8-3.1,0.5-2.8,0.4-2.4C113.6,45.6,113.4,46.4,113.4,47.2z"/>
	</g>
	<g id="круги">
		<path class="st12" d="M84.7,44.8c-5.2-19.3,24-27.1,29.1-7.8S89.8,64.1,84.7,44.8z"/>
		<path class="st13" d="M59.4,59.4C45.3,45.3,66.6,24,80.8,38.1S73.6,73.5,59.4,59.4z"/>
		<path class="st3" d="M44.9,84.6c-19.3-5.2-11.5-34.3,7.8-29.1S64.1,89.8,44.9,84.6z"/>
		<path class="st4" d="M44.9,113.8c-19.3,5.2-27.1-24-7.8-29.1S64.1,108.6,44.9,113.8z"/>
		<path class="st5" d="M59.4,139c-14.1,14.1-35.4-7.2-21.3-21.3S73.6,124.9,59.4,139z"/>
		<path class="st6" d="M84.7,153.6c-5.2,19.3-34.3,11.5-29.1-7.8S89.8,134.3,84.7,153.6z"/>
		<path class="st7" d="M113.8,153.6c5.2,19.3-24,27.1-29.1,7.8S108.6,134.3,113.8,153.6z"/>
		<path class="st8" d="M139,139c14.1,14.1-7.2,35.4-21.3,21.3S124.9,124.9,139,139z"/>
		<path class="st14" d="M153.6,113.8c19.3,5.2,11.5,34.3-7.8,29.1S134.3,108.6,153.6,113.8z"/>
		<path class="st9" d="M153.6,84.6c19.3-5.2,27.1,24,7.8,29.1S134.3,89.8,153.6,84.6z"/>
		<path class="st10" d="M139,59.4c14.1-14.1,35.4,7.2,21.3,21.3S124.9,73.5,139,59.4z"/>
		<path class="st11" d="M113.8,44.8c5.2-19.3,34.3-11.5,29.1,7.8S108.6,64.1,113.8,44.8z"/>
	</g>
</g>
</svg>
