<svg xmlns="http://www.w3.org/2000/svg" viewBox="0 0 198.43 198.43">
  <g id="Layer_3" data-name="Layer 3">
    <g>
      <g>
        <path d="M81.5,164.49c5.81-20.52,6.08-29.59,16.7-30.41,0-19.49.86-12.9-8.6-18.43-4.75-2.77-4.25-1.29-35.59,30.07A18.89,18.89,0,0,1,81.5,164.49Z" fill="#f1f2f2"/>
        <path d="M118.63,99.35c0,10.86-5.1,6.91,11.24,16.36a11.7,11.7,0,0,1,13.09-5c47.94,12.67,2.12,6.38,12.52-18.7,4.42-10.64,24.52-13.19-33.12,2.26A5.13,5.13,0,0,0,118.63,99.35Z" fill="#f1f2f2"/>
        <path d="M128.36,117.28c-16.69-9.64-11.24-6.54-19.83-1.59-9.38,5.41-8.53-1-8.53,18.38,10.86.7,11.32,10.06,17.5,33.31-4.58-17,14.74-30.46,29.11-20.37C131.82,131.78,123.88,127,128.36,117.28Z" fill="#f1f2f2"/>
        <path d="M146.13,72.13c-8.11-14,5.24-24.95,2.4-22.18-15.63,15.32-20.92,25.39-31.38,19.91-5,8.73-8.57,12.25-4.69,16.13,8.82,8.83-4.38,10,49.52-4.42A18.88,18.88,0,0,1,146.13,72.13Z" fill="#f1f2f2"/>
        <path d="M117.49,31.05c-5,18.68-31.56,18.59-36.53,0a18.51,18.51,0,0,1,.64,4.56c5,17,10.94,27.06,1.09,33.54,4.88,8.44,6.24,13.44,11.52,12,13.93-3.85,9.32,8.76,21.41-12.2C107.29,62.93,111,55.57,117.49,31.05Z" fill="#f1f2f2"/>
        <path d="M55.18,111.22c-45.75,12.46-3-4.58-.41,22.74,1,11-14.72,23.14,27.31-18.88,3.47-3.46-.14-6.68-1.23-10.93-1.39-5.48-8-3.9-16.85-3.9A11.72,11.72,0,0,1,55.18,111.22Z" fill="#f1f2f2"/>
        <path d="M67.48,67.69c-34.83-34.54,2-6-20.4,10.29-10.8,7.84-21.57-.1-12.7,4.21C53.77,87.68,63,87.94,64,98.45c10.85,0,15.52,1.25,16.91-4,2.28-8.56,8.87-9.53,5.86-14.73L81.12,70A11.82,11.82,0,0,1,67.48,67.69Z" fill="#f1f2f2"/>
        <path d="M187.29,79.67c-5.22-4-3.89-3-19.58,1.19,24.25-6,33.43,30.64,9.14,36.69-6.78,1.69-19.24-2.7,5.79,4C199.4,113.92,202,90.94,187.29,79.67Z" fill="#f1f2f2"/>
        <path d="M149.36,49.07c18-17.33,44.25,9.9,26.21,27.25-5,4.84-17.88,7.22,7.07.54C194.1,60.74,182.54,38,162.49,38,159.71,38,161.74,36.69,149.36,49.07Z" fill="#f1f2f2"/>
        <path d="M49.09,149.35c-18,17.35-44.26-9.84-26.25-27.22,5-4.85,18-7.26-7-.57-12,17,1.38,40.57,22.34,38.73Z" fill="#f1f2f2"/>
        <path d="M149.36,149.34c17.34,18-9.87,44.25-27.23,26.22-4.89-5.08-7.26-18-.55,7.07,14.88,10.55,36.2,1.58,38.62-16.94C161,159.34,161,160.94,149.36,149.34Z" fill="#f1f2f2"/>
        <path d="M80.88,167.69c-6.93,24-43.27,13.57-36.33-10.47,1.92-6.68,11.91-15.24-6.4,3.07-2,21,21.9,34.27,38.72,22.34Z" fill="#f1f2f2"/>
        <path d="M80.89,30.72c-6-24.25,30.63-33.43,36.68-9.14,1.7,6.79-2.7,19.22,4-5.79-8.71-19.06-36-18.94-44.7,0Z" fill="#f1f2f2"/>
        <path d="M31.44,80.78c-24-6.93-14.26-43.19,9.78-36.25,6.8,2,15.28,11.95-3.07-6.41a24.67,24.67,0,0,0-25,34C15.7,78.18,15.65,76.86,31.44,80.78Z" fill="#f1f2f2"/>
      </g>
      <g>
        <path d="M117.62,167.92c.13,0,0,.07-.14-.53A3.18,3.18,0,0,1,117.62,167.92Z" fill="#fff"/>
        <path d="M149.13,49.31l-.09.1Z" fill="#fff"/>
        <path d="M149.33,49.12l-.2.19Z" fill="#fff"/>
        <path d="M80.88,30.68c-.13,0,0-.08.08.36C80.93,30.93,80.91,30.81,80.88,30.68Z" fill="#fff"/>
        <path d="M117.58,30.76h0C117.46,31.15,117.47,31.14,117.58,30.76Z" fill="#fff"/>
        <path d="M30.53,80.78c0,.13-.14,0,.54.17Z" fill="#fff"/>
        <path d="M125.5,51.81A18.93,18.93,0,0,1,117,34c-5.42,20.54-10,28.66-1.33,34.91l1.53.94a11.67,11.67,0,0,0,13.87-2c19-19.4,18-18.36,18.06-18.49a18.9,18.9,0,0,1-22,3.36Z" fill="#231f20"/>
        <path d="M49,49c-1-1-1.63-2-.77-.66C49.23,49.15,48.89,49.1,49,49Z" fill="#231f20"/>
        <path d="M82.69,69.14a11.52,11.52,0,0,0,5-12.88c-4.31-15.73-5.84-23.46-6.19-23.34-.5.16,0,12.79-9,18.44L71.2,52.81a18.89,18.89,0,0,1-21.87-3.5C64.45,64.48,70.55,75,81.12,70Z" fill="#231f20"/>
        <path d="M49,49l0,0C49.41,49.4,49.45,49.43,49,49Z" fill="#231f20"/>
        <path d="M30.45,117.62c-1.36.32-4.22.62-1.36.51C30.52,117.57,30.48,117.75,30.45,117.62Z" fill="#231f20"/>
        <path d="M30.45,117.62c0,.13-.09,0,.61-.14Z" fill="#231f20"/>
        <path d="M64,98.45c-1-10.75-12-11.75-30.65-17,6.29,3,10.29,10.2,10.57,17.18l-.08,1.67c-.45,8.15-4.84,15.11-12.73,17.23,19.21-5.15,32.36-5.13,32.94-17.23Z" fill="#231f20"/>
        <path d="M80.78,168c-.33,1.13-.42.88-.3,1.88C80.73,167.9,80.91,168,80.78,168Z" fill="#231f20"/>
        <path d="M80.78,168c.13,0,0,.11.18-.61C80.91,167.58,80.84,167.78,80.78,168Z" fill="#231f20"/>
        <path d="M100,134.07a12,12,0,0,0-1.8,0C87,135,86.58,146.22,81,167.37c4.75-17.67,29.5-19,36-1.73C110.9,143.44,110.69,134.77,100,134.07Z" fill="#231f20"/>
        <path d="M167.75,117.58c.87.25,1.13.39.62.13C167.62,117.54,167.77,117.46,167.75,117.58Z" fill="#231f20"/>
        <path d="M149.45,149.45c.73.8.56.67,1,.87C149.17,149.24,149.57,149.32,149.45,149.45Z" fill="#231f20"/>
        <path d="M167.75,117.58v0C167.31,117.45,167.24,117.44,167.75,117.58Z" fill="#231f20"/>
        <path d="M128.36,117.28c5.76-12.44,18.26-5.32,39,.2-18.49-5-31.52,18.46-17.8,32.18C133.82,133.88,123.65,127.44,128.36,117.28Z"/>
        <path d="M149.45,149.45l0,0C149,149,149,149,149.45,149.45Z" fill="#231f20"/>
        <path d="M80.2,30.87c.09.27-.16-.55,1.4,4.73C81.59,34.78,81.45,30.54,80.2,30.87Z" fill="#fff"/>
        <path d="M48.87,49.12c.14-.15.28,0-.63-.81C48.32,48.44,48.74,49.24,48.87,49.12Z" fill="#231f20"/>
        <path d="M48.87,49.12c.14-.15.28,0-.63-.81C48.32,48.44,48.74,49.24,48.87,49.12Z" fill="#eb0d8c"/>
        <path d="M49,49c-.2.21-.54-.2,2.27,2.58A18,18,0,0,0,49,49Z" fill="#231f20"/>
        <path d="M49,49c-.2.21-.54-.2,2.27,2.58A18,18,0,0,0,49,49Z" fill="#eb0d8c"/>
        <path d="M30.45,81.09c.3.07-.5-.16,3.93,1.1C34,82,30.62,80.45,30.45,81.09Z" fill="#fff"/>
        <path d="M30.45,81.09c.3.07-.5-.16,3.93,1.1C34,82,30.62,80.45,30.45,81.09Z" fill="#922a8e"/>
        <path d="M30.47,117.92c.13,0,.36-.48-1.38.21A6.39,6.39,0,0,0,30.47,117.92Z" fill="#231f20"/>
        <path d="M30.47,117.92c.13,0,.36-.48-1.38.21A6.39,6.39,0,0,0,30.47,117.92Z" fill="#2e3690"/>
        <path d="M31.06,117.48c-1.9.5.76.07,3.11-.56A18.28,18.28,0,0,0,31.06,117.48Z" fill="#231f20"/>
        <path d="M31.06,117.48c-1.9.5.76.07,3.11-.56A18.28,18.28,0,0,0,31.06,117.48Z" fill="#2e3690"/>
        <path d="M80.71,168c-.13,0-.26-.21-.27,1.06C80.48,168.89,80.84,168,80.71,168Z" fill="#231f20"/>
        <path d="M80.71,168c-.13,0-.26-.21-.27,1.06C80.48,168.89,80.84,168,80.71,168Z" fill="#0d73bb"/>
        <path d="M81.5,164.49c-1.1,3.85-1,3.41-.72,3.49A17.81,17.81,0,0,0,81.5,164.49Z" fill="#231f20"/>
        <path d="M81.5,164.49c-1.1,3.85-1,3.41-.72,3.49A17.81,17.81,0,0,0,81.5,164.49Z" fill="#0d73bb"/>
        <path d="M116.93,165.64c.4,1.46,1,3.21.57,1.74C117.34,166.78,117.14,166.21,116.93,165.64Z" fill="#fff"/>
        <path d="M116.93,165.64c.4,1.46,1,3.21.57,1.74C117.34,166.78,117.14,166.21,116.93,165.64Z" fill="#2bace2"/>
        <path d="M149.33,149.57c-.13.12.62.5.74.56C149.38,149.32,149.47,149.43,149.33,149.57Z" fill="#231f20"/>
        <path d="M149.33,149.57c-.13.12.62.5.74.56C149.38,149.32,149.47,149.43,149.33,149.57Z" fill="#00a99d"/>
        <path d="M146.61,147c2.9,3,2.57,2.69,2.84,2.44A19.18,19.18,0,0,0,146.61,147Z" fill="#231f20"/>
        <path d="M146.61,147c2.9,3,2.57,2.69,2.84,2.44A19.18,19.18,0,0,0,146.61,147Z" fill="#00a99d"/>
        <path d="M167.75,117.56c.73.19.91.22,0-.12A.56.56,0,0,1,167.75,117.56Z" fill="#88c541"/>
        <path d="M165.06,116.66c2.83,1.21,3.43.91,2,.54Z" fill="#88c541"/>
        <path d="M149,49.41c-.1.1-.19.21-.28.31C148.84,49.62,148.94,49.52,149,49.41Z" fill="#fcee23"/>
        <path d="M149.08,49.35c.29-.33.34-.14.21-.26Z" fill="#f89521"/>
        <path d="M117,34c1-3.89.69-3.5.54-3A19.76,19.76,0,0,0,117,34Z" fill="#f89521"/>
        <path d="M117.58,167.69c6,24.27-30.64,33.44-36.69,9.16-1.69-6.78,2.72-19.28-4,5.78,8.76,19.09,36,18.92,44.71,0Z" fill="#231f20"/>
        <path d="M167.71,117.56c24,6.92,13.58,43.26-10.47,36.33C150.56,152,142,142,160.3,160.28c21.25,1.87,34.21-22,22.34-38.72Z" fill="#231f20"/>
        <path d="M117.58,30.72c6.91-24,43.26-13.6,36.34,10.46-1.95,6.76-11.89,15.22,6.38-3,2-21-21.86-34.3-38.71-22.34Z" fill="#231f20"/>
        <path d="M49.09,49.07C31.76,31.06,59,4.82,76.33,22.85c4.83,5,7.22,17.91.56-7.06A24.66,24.66,0,0,0,38.26,32.72C37.41,39.15,37.57,37.54,49.09,49.07Z" fill="#231f20"/>
        <path d="M30.74,117.57c-24.26,6-33.4-30.67-9.11-36.7,6.72-1.67,19,2.63-5.27-3.86a1.52,1.52,0,0,0-1,.09c-18.52,9-18.24,35.37,0,44.22a1.5,1.5,0,0,0,1,.1Z" fill="#231f20"/>
      </g>
      <g id="круги">
        <path d="M81,31c-6.47-24.14,30-34,36.52-9.79S87.44,55.2,81,31Z" fill="#ef372f"/>
        <path d="M49.33,49.31c-17.67-17.68,9-44.43,26.74-26.73S67.05,67,49.33,49.31Z" fill="#e21a58"/>
        <path d="M31.07,81C6.92,74.47,16.68,38,40.85,44.43S55.24,87.42,31.07,81Z" fill="#eb0d8c"/>
        <path d="M31.06,117.48C6.92,124-2.9,87.44,21.27,81S55.22,111,31.06,117.48Z" fill="#922a8e"/>
        <path d="M49.32,149.11c-17.67,17.67-44.43-9-26.72-26.74S67,131.41,49.32,149.11Z" fill="#2e3690"/>
        <path d="M81,167.37c-6.47,24.15-43,14.39-36.51-9.78S87.45,143.18,81,167.37Z" fill="#0d73bb"/>
        <path d="M117.5,167.38c6.46,24.14-30,34-36.53,9.77S111,143.19,117.5,167.38Z" fill="#2bace2"/>
        <path d="M149.13,149.11c17.68,17.67-9,44.43-26.74,26.73S131.42,131.41,149.13,149.11Z" fill="#00a99d"/>
        <path d="M167.4,117.48c24.14,6.46,14.38,43-9.79,36.51S143.21,111,167.4,117.48Z" fill="#06a64f"/>
        <path d="M167.4,81c24.14-6.47,33.95,30,9.77,36.52S143.25,87.41,167.4,81Z" fill="#88c541"/>
        <path d="M149.13,49.31c17.68-17.67,44.43,9,26.73,26.73S131.4,67,149.13,49.31Z" fill="#fcee23"/>
        <path d="M117.49,31.05C124,6.9,160.49,16.66,154,40.83S111,55.23,117.49,31.05Z" fill="#f89521"/>
      </g>
    </g>
  </g>
</svg>
