<svg viewBox="0 0 198.43 198.43" xmlns="http://www.w3.org/2000/svg"><path d="m151.69 45.15a18.68 18.68 0 1 0 -32.36-18.68 18.42 18.42 0 0 0 -1.33 2.82l-.05.17a18.77 18.77 0 0 0 -.84 3.17l-11.57 43.73a6.09 6.09 0 0 0 10.3 6l33.5-33.93a18.7 18.7 0 0 0 2.35-3.28z" fill="#333132"/><path d="m171.69 78.63a18.68 18.68 0 0 0 -18.69-32.36 17.86 17.86 0 0 0 -2.54 1.8l-.12.12a18.15 18.15 0 0 0 -2.34 2.31l-31.9 32.09a6.07 6.07 0 0 0 5.94 10.29l46-12.63a18.75 18.75 0 0 0 3.65-1.62z" fill="#f1f2f2"/><path d="m172.27 117.63a18.68 18.68 0 1 0 -3.1-37.09h-.17a17.76 17.76 0 0 0 -3.16.86l-43.68 11.87a6.08 6.08 0 0 0 0 11.89l46.14 12a19.23 19.23 0 0 0 3.97.47z" fill="#f1f2f2"/><path d="m153.28 151.69a18.68 18.68 0 1 0 18.72-32.36 19 19 0 0 0 -2.83-1.31l-.17-.02a18.77 18.77 0 0 0 -3.17-.84l-43.74-11.58a6.08 6.08 0 0 0 -5.94 10.3l33.93 33.5a18.32 18.32 0 0 0 3.2 2.31z" fill="#333132"/><path d="m119.79 171.69a18.68 18.68 0 1 0 30.57-21.22l-.13-.12a18.08 18.08 0 0 0 -2.32-2.31l-32.09-31.9a6.08 6.08 0 0 0 -10.3 5.94l12.63 46a18.75 18.75 0 0 0 1.64 3.61z" fill="#f1f2f2"/><path d="m80.79 172.27a18.69 18.69 0 1 0 37.09-3.1v-.17a19.63 19.63 0 0 0 -.86-3.16l-11.84-43.68a6.08 6.08 0 0 0 -11.89 0l-12 46.14a18.57 18.57 0 0 0 -.5 3.97z" fill="#333132"/><path d="m46.73 153.28a18.68 18.68 0 1 0 32.36 18.72 19 19 0 0 0 1.31-2.83v-.17a17.87 17.87 0 0 0 .84-3.17l11.59-43.74a6.08 6.08 0 0 0 -10.3-5.94l-33.5 33.93a17.87 17.87 0 0 0 -2.3 3.2z" fill="#f1f2f2"/><path d="m26.73 119.79a18.68 18.68 0 1 0 21.27 30.57l.12-.13a18.83 18.83 0 0 0 2.32-2.32l31.9-32.09a6.09 6.09 0 0 0 -6-10.3l-46 12.63a19 19 0 0 0 -3.61 1.64z" fill="#f1f2f2"/><path d="m26.15 80.79a18.69 18.69 0 1 0 3.1 37.09h.16a19.75 19.75 0 0 0 3.17-.86l43.67-11.84a6.08 6.08 0 0 0 0-11.89l-46.13-12a18.67 18.67 0 0 0 -3.97-.5z" fill="#333132"/><path d="m45.15 46.73a18.68 18.68 0 0 0 -18.68 32.36 18.42 18.42 0 0 0 2.82 1.31h.17a17.87 17.87 0 0 0 3.17.84l43.73 11.65a6.09 6.09 0 0 0 6-10.3l-33.98-33.5a18.23 18.23 0 0 0 -3.23-2.36z" fill="#f1f2f2"/><path d="m78.63 26.73a18.68 18.68 0 0 0 -32.36 18.68 18 18 0 0 0 1.8 2.59l.12.12a18.91 18.91 0 0 0 2.33 2.32l32.09 31.9a6.08 6.08 0 0 0 10.29-6l-12.63-46a19 19 0 0 0 -1.64-3.61z" fill="#333132"/><path d="m117.63 26.15a18.68 18.68 0 1 0 -37.09 3.1v.16a17.87 17.87 0 0 0 .86 3.17l11.87 43.68a6.08 6.08 0 0 0 11.89 0l12-46.13a19.33 19.33 0 0 0 .47-3.98z" fill="#f1f2f2"/><path d="m84.42 30.12c-5.24-19.55 24.33-27.51 29.58-7.93s-24.33 27.49-29.58 7.93z" fill="#ef372f"/><path d="m51.85 46.77c-14.31-14.32 7.33-36 21.66-21.65s-7.3 36.02-21.66 21.65z" fill="#e21a58"/><path d="m32 77.48c-19.58-5.24-11.67-34.83 7.91-29.58s11.65 34.83-7.91 29.58z" fill="#eb0d8c"/><path d="m30.12 114c-19.55 5.24-27.51-24.33-7.93-29.58s27.49 24.34 7.93 29.58z" fill="#922a8e"/><path d="m46.77 146.58c-14.32 14.31-36-7.33-21.65-21.66s36 7.32 21.65 21.66z" fill="#2e3690"/><path d="m77.48 166.45c-5.24 19.55-34.83 11.66-29.58-7.93s34.83-11.66 29.58 7.93z" fill="#0d73bb"/><path d="m114 168.31c5.24 19.56-24.34 27.51-29.58 7.92s24.35-27.51 29.58-7.92z" fill="#2bace2"/><path d="m146.58 151.66c14.32 14.31-7.33 36-21.66 21.65s7.31-35.99 21.66-21.65z" fill="#00a99d"/><path d="m166.45 121c19.56 5.24 11.66 34.83-7.92 29.58s-11.67-34.88 7.92-29.58z" fill="#06a64f"/><path d="m168.31 84.42c19.56-5.23 27.51 24.34 7.92 29.58s-27.48-24.34-7.92-29.58z" fill="#88c541"/><path d="m151.66 51.85c14.31-14.31 36 7.32 21.65 21.66s-36.02-7.3-21.65-21.66z" fill="#fcee23"/><path d="m121 32c5.24-19.56 34.83-11.66 29.58 7.93s-34.88 11.64-29.58-7.93z" fill="#f89521"/><g fill="#fff"><path d="m103.64 30.84c-2.52 0-1.85.43-2.56-1.68-4.46 0-3.57-.44-4.27 1.68-2.68 0-2.64 1.86 1.28-9.33 3.03 0 1.64-1.8 5.55 9.33zm-4.41-7.21c-1.61 4.8-2 3.81 1.28 3.81z"/><path d="m135.41 41.09c-2.51 0-1.85.44-2.55-1.68-4.46 0-3.57-.43-4.28 1.68-2.68 0-2.64 1.87 1.28-9.32 3.04 0 1.65-1.77 5.55 9.32zm-4.4-7.2c-1.61 4.79-2.06 3.8 1.28 3.8z"/><path d="m143.35 34.52c-.26 1.64.16 1.3-1.65 1.3-.26 1.56-.57 1.2 1.25 1.2-.27 1.63.17 1.3-1.67 1.3-.43 2.6 0 2.1-1.71 2.1.44-2.65.76-2.1-1-2.1-.43 2.6 0 2.1-1.69 2.1.43-2.65.78-2.1-1.11-2.1.27-1.63-.17-1.3 1.68-1.3.26-1.56.58-1.2-1.28-1.2.27-1.64-.17-1.3 1.69-1.3.43-2.6 0-2.1 1.69-2.1-.43 2.64-.75 2.1 1 2.1.43-2.61 0-2.1 1.7-2.1-.42 2.64-.77 2.1 1.1 2.1zm-4.57 2.48c1.71 0 1.31.32 1.56-1.2-1.7.02-1.34-.29-1.56 1.2z"/><path d="m171.81 104.23c-8.29.06-5-13.1 2.33-9.1 2.89 1.57.93 2 .09 2.52-1.85-3.36-7.86.23-4.63 3.94a3 3 0 0 0 4.63-.47c.84.49 2.79.95-.09 2.52a4.89 4.89 0 0 1 -2.33.59z"/><path d="m158.62 140.41c-8.29.06-5-13.11 2.33-9.1 2.88 1.57.93 2 .09 2.52a3 3 0 0 0 -4.62-.48c-2.28 2.61.44 6.58 3.64 4.91 1.65-.86 0-1.54 2.56 0a4.61 4.61 0 0 1 -4 2.15z"/><path d="m170.9 133.66c-.27 1.64.16 1.3-1.65 1.3-.26 1.56-.58 1.2 1.25 1.2-.27 1.63.17 1.29-1.68 1.29-.43 2.61 0 2.1-1.7 2.1.43-2.64.75-2.1-1-2.1-.42 2.6 0 2.1-1.69 2.1.44-2.64.79-2.1-1.1-2.1.27-1.62-.17-1.29 1.69-1.29.26-1.56.58-1.2-1.28-1.2.27-1.64-.17-1.3 1.69-1.3.43-2.6 0-2.1 1.69-2.1-.44 2.64-.76 2.1 1 2.1.43-2.61 0-2.1 1.71-2.1-.45 2.64-.83 2.1 1.07 2.1zm-4.57 2.5c1.71 0 1.31.32 1.56-1.2-1.71.04-1.31-.31-1.56 1.2z"/><path d="m131.87 157.29c3.6 0 5.37-.31 6.9 1.34 2.81 3 .75 8-3.19 8-4.94-.08-3.71 1.84-3.71-9.34zm1.84 7.57c2.08 0 3 .15 3.84-.8a3.23 3.23 0 0 0 0-4.2c-1.05-1.14-2.55-.81-3.84-.81z"/><path d="m91.35 167.1c3.55 0 5.35-.33 6.9 1.35 2.81 3 .75 8-3.2 8-4.93-.09-3.7 1.83-3.7-9.35zm1.84 7.57c2.15 0 3 .15 3.84-.8a3.23 3.23 0 0 0 0-4.2c-1-1.14-2.55-.82-3.84-.82z"/><path d="m107.88 169.86c-.26 1.64.17 1.3-1.65 1.3-.26 1.56-.57 1.2 1.26 1.2-.27 1.63.16 1.3-1.68 1.3-.43 2.6 0 2.1-1.71 2.1.44-2.65.76-2.1-1-2.1-.43 2.59 0 2.1-1.69 2.1.43-2.65.78-2.1-1.11-2.1.27-1.63-.16-1.3 1.68-1.3.26-1.56.58-1.2-1.28-1.2.27-1.64-.17-1.3 1.69-1.3.43-2.6 0-2.1 1.71-2.1-.44 2.64-.76 2.1 1 2.1.43-2.61 0-2.1 1.7-2.1-.43 2.64-.8 2.1 1.08 2.1zm-4.56 2.5c1.7 0 1.3.31 1.55-1.2-1.7 0-1.3-.31-1.55 1.2z"/><path d="m62.63 162.36c0 2.78-.89 2.1 3.93 2.1 0 2.35 1.15 1.76-5.77 1.76 0-11.76-1.72-9.34 5.7-9.34 0 2.35.78 1.76-3.86 1.76 0 2.59-.9 2 3.53 2 0 2.29.84 1.72-3.53 1.72z"/><path d="m39.21 131.05c0 2.33.85 1.75-3.74 1.75 0 2.88-.94 2.22 3.63 2.22 0 2.29.91 1.75-3.62 1.75 0 4.47.58 3.6-1.83 3.6 0-11.74-1.65-9.32 5.56-9.32z"/><path d="m26.53 94.73c0 2.33.85 1.76-3.73 1.76 0 2.87-.94 2.21 3.62 2.21 0 2.29.92 1.76-3.62 1.76 0 4.47.58 3.59-1.84 3.59.04-11.74-1.67-9.32 5.57-9.32z"/><path d="m34.91 97.48c-.27 1.65.16 1.31-1.65 1.31-.26 1.56-.58 1.2 1.25 1.2-.27 1.62.17 1.29-1.68 1.29-.43 2.6 0 2.1-1.7 2.1.43-2.65.75-2.1-1-2.1-.43 2.59 0 2.1-1.7 2.1.44-2.64.79-2.1-1.1-2.1.26-1.63-.17-1.29 1.68-1.29.26-1.56.58-1.2-1.28-1.2.27-1.65-.17-1.31 1.68-1.31.43-2.6 0-2.1 1.7-2.1-.44 2.65-.76 2.1 1 2.1.43-2.61 0-2.1 1.7-2.1-.43 2.62-.81 2.1 1.1 2.1zm-4.57 2.52c1.7 0 1.3.31 1.56-1.2-1.72-.01-1.31-.32-1.56 1.2z"/><path d="m36.7 62.85c5.47 0 4.67-.24 4.67.72a4.3 4.3 0 0 1 -4.59 4.43c-6.65.11-6.56-9.73-.09-9.7a4.73 4.73 0 0 1 4.06 2.18c-2.48 1.43-1 .79-2.58 0-4.63-2.36-6.75 5.65-1.36 5.75a2.6 2.6 0 0 0 2.72-1.77c-3.53.01-2.83.54-2.83-1.61z"/><path d="m59 36.08c5.47 0 4.67-.24 4.67.72a4.32 4.32 0 0 1 -4.58 4.49c-8.43.14-5.06-13 2.26-9.12 2.91 1.56 1 2 .12 2.49a2.88 2.88 0 0 0 -2.47-1.29c-5.32-.07-3 8.73 1.89 5.65a2.27 2.27 0 0 0 1-1.31c-3.48 0-2.89.47-2.89-1.63z"/><path d="m72 34.52c-.27 1.64.16 1.3-1.65 1.3-.26 1.56-.58 1.2 1.25 1.2-.27 1.63.17 1.3-1.68 1.3-.43 2.6 0 2.1-1.7 2.1.44-2.65.75-2.1-1-2.1-.43 2.59 0 2.1-1.69 2.1.43-2.65.77-2.1-1.1-2.1.27-1.63-.17-1.3 1.68-1.3.26-1.56.58-1.2-1.28-1.2.27-1.64-.17-1.3 1.69-1.3.43-2.6 0-2.1 1.69-2.1-.43 2.64-.75 2.1 1 2.1.43-2.61 0-2.1 1.7-2.1-.43 2.64-.78 2.1 1.09 2.1zm-4.58 2.48c1.71 0 1.31.32 1.56-1.2-1.71.02-1.31-.29-1.56 1.2z"/><path d="m164.08 63a2.53 2.53 0 0 1 .39 4.08c-1.1 1-1.93.76-6 .76 0-11.21-1.23-9.28 3.67-9.34 2.71-.01 3.71 3.15 1.94 4.5zm-2-2.77c-2.31 0-1.83-.53-1.83 2 1.91 0 2.19.09 2.55-.29a1 1 0 0 0 -.68-1.69zm-1.83 5.89c2.28 0 2.5.08 2.89-.32a1.15 1.15 0 0 0 0-1.57c-.41-.41-.68-.31-2.89-.31z"/></g></svg>