<svg viewBox="0 0 311.81 311.81" xmlns="http://www.w3.org/2000/svg"><path d="m257 104.91a116.32 116.32 0 0 1 11.69 28.15l-37.69 10.14a76.11 76.11 0 0 0 -20.2-35l27.6-27.5a116.41 116.41 0 0 1 18.6 24.21z" fill="#fff200"/><path d="m55 221.5a116.45 116.45 0 0 1 -11.68-28.14l37.61-10.14a76 76 0 0 0 20.2 35l-27.6 27.5a116.86 116.86 0 0 1 -18.53-24.22z" fill="#2e3192"/><path d="m97.69 62.23a116.89 116.89 0 0 1 28.14-11.69l10.17 37.62a76 76 0 0 0 -35 20.19l-27.5-27.59a116.11 116.11 0 0 1 24.19-18.53z" fill="#e11156"/><path d="m214.29 264.19a117.05 117.05 0 0 1 -28.14 11.69l-10.15-37.62a76 76 0 0 0 35-20.19l27.5 27.6a116.41 116.41 0 0 1 -24.21 18.52z" fill="#00a99d"/><path d="m214.28 62.23a116.41 116.41 0 0 1 24.19 18.52l-27.47 27.6a76 76 0 0 0 -35-20.19l10.15-37.62a117 117 0 0 1 28.13 11.69z" fill="#f7941d"/><path d="m97.7 264.19a116.74 116.74 0 0 1 -24.2-18.52l27.5-27.6a76 76 0 0 0 35 20.19l-10.15 37.62a117 117 0 0 1 -28.15-11.69z" fill="#0072bc"/><path d="m55 104.91a116.45 116.45 0 0 1 18.54-24.19l27.59 27.5a76 76 0 0 0 -20.19 35l-37.62-10.22a117 117 0 0 1 11.68-28.09z" fill="#ec008c"/><path d="m257 221.51a116.79 116.79 0 0 1 -18.53 24.19l-27.59-27.5a76 76 0 0 0 20.19-35l37.61 10.15a116.55 116.55 0 0 1 -11.68 28.16z" fill="#00a651"/><path d="m272.59 163.21a116.74 116.74 0 0 1 -3.95 30.22l-37.65-10a76 76 0 0 0 .01-40.43l37.65-10a116.59 116.59 0 0 1 3.95 30.2z" fill="#87c540"/><path d="m39.39 163.2a116.72 116.72 0 0 1 4-30.21l37.61 10.01a76.06 76.06 0 0 0 0 40.39l-37.65 10a116.74 116.74 0 0 1 -3.96-30.19z" fill="#92278f"/><path d="m156 46.61a116.72 116.72 0 0 1 30.21 4l-10 37.65a76.06 76.06 0 0 0 -40.39 0l-10-37.65a116.61 116.61 0 0 1 30.18-4z" fill="#ee342e"/><path d="m156 279.81a116.72 116.72 0 0 1 -30.21-3.95l10-37.65a75.76 75.76 0 0 0 40.38 0l10 37.65a116.61 116.61 0 0 1 -30.17 3.95z" fill="#00aeef"/><g stroke="#a7a9ac" stroke-linecap="round" stroke-linejoin="round"><path d="m155.63 88.23-37.27 140.77"/><path d="m146 102.75c3.36 9 3.49 9 3.49 9"/><path d="m156.93 106.63c-7.18 5.16-7.18 4.82-7.18 4.82"/><path d="m117.49 98.32 38.08 140.5"/><path d="m116.32 115.75c7.41 6.12 7.53 6.06 7.53 6.06"/><path d="m127.77 113.61c-3.64 8.06-3.81 7.77-3.81 7.77"/><path d="m90.45 125.84 103.23 102.64"/><path d="m98.15 141.53c9.49 1.59 9.55 1.47 9.55 1.47"/><path d="m107 134c.88 8.8.59 8.63.59 8.63"/><path d="m80.33 163.53 140.4 38.47"/><path d="m94.76 173.39c9-3.29 9-3.42 9-3.42"/><path d="m98.72 162.43c5.1 7.23 4.77 7.22 4.77 7.22"/><path d="m90.4 201.13 140.5-38.08"/><path d="m107.83 202.3c6.12-7.41 6.06-7.53 6.06-7.53"/><path d="m105.7 190.85c8 3.64 7.76 3.81 7.76 3.81"/><path d="m118.36 229 102.64-103.28"/><path d="m134 221.25c1.6-9.48 1.48-9.55 1.48-9.55"/><path d="m126.47 212.4c8.79-.87 8.63-.58 8.63-.58"/><path d="m155.57 238.82 37.27-140.72"/><path d="m165.31 224.31c-3.36-9-3.5-9-3.5-9"/><path d="m154.32 220.44c7.18-5.16 7.18-4.83 7.18-4.83"/><path d="m193.71 228.73-38.08-140.5"/><path d="m194.86 211c-7.42-6.12-7.53-6-7.53-6"/><path d="m183.41 213.18c3.64-8.05 3.8-7.77 3.8-7.77"/><path d="m192.84 98.1-102.63 103.23"/><path d="m177.16 105.8c-1.59 9.48-1.48 9.55-1.48 9.55"/><path d="m184.74 114.65c-8.8.88-8.63.59-8.63.59"/><path d="m220.83 125.45-140.5 38.08"/><path d="m203.39 124.28c-6.12 7.41-6 7.53-6 7.53"/><path d="m205.53 135.73c-8.05-3.64-7.77-3.81-7.77-3.81"/><path d="m231.17 163.11-140.72-37.27"/><path d="m216.39 153.31c-9 3.36-9 3.5-9 3.5"/><path d="m212.52 164.3c-5.16-7.18-4.83-7.18-4.83-7.18"/><path d="m220.72 201-103.23-102.68"/><path d="m213 186.28c-9.48-1.59-9.55-1.48-9.55-1.48"/><path d="m204.19 193.86c-.88-8.8-.59-8.63-.59-8.63"/></g><text fill="#231f20" font-family="Neusa-Medium, Neusa" font-size="14" font-weight="500" letter-spacing="-.02em" transform="translate(141.6 23.82)">t<tspan letter-spacing="0em" x="4.14" y="0">onic/</tspan><tspan letter-spacing="-.01em"><tspan x="-.99" y="14">o</tspan><tspan letter-spacing="-.02em" x="4.33" y="14">c</tspan><tspan letter-spacing="-.02em" x="9.39" y="14">ta</tspan><tspan letter-spacing="-.04em" x="18.8" y="14">v</tspan><tspan letter-spacing="0em" x="24.46" y="14">e</tspan></tspan></text><text fill="#fff" font-family="Neusa-DemiBold, Neusa" font-size="14" font-weight="300" transform="translate(149.46 71.67)">1/1</text><text fill="#fff" font-family="Neusa-DemiBold, Neusa" font-size="14" font-weight="300" transform="translate(193.09 85)">16/15</text><text fill="#9da4ab" font-family="Neusa-DemiBold, Neusa" font-size="14" font-weight="300" transform="translate(231.5 119.51)">9/8</text><text fill="#fff" font-family="Neusa-DemiBold, Neusa" font-size="14" font-weight="300" transform="translate(242.35 168.74)">6/5</text><text fill="#fff" font-family="Neusa-DemiBold, Neusa" font-size="14" font-weight="300" transform="translate(228.93 218.48)">5/4</text><text fill="#fff" font-family="Neusa-DemiBold, Neusa" font-size="14" font-weight="300" transform="translate(195.46 252.13)">4/3</text><text fill="#fff" font-family="Neusa-DemiBold, Neusa" font-size="14" font-weight="300" transform="translate(98.17 252.13)">3/2</text><text fill="#fff" font-family="Neusa-DemiBold, Neusa" font-size="14" font-weight="300" transform="translate(62.91 218.48)">8/5</text><text fill="#fff" font-family="Neusa-DemiBold, Neusa" font-size="14" font-weight="300" transform="translate(49.91 169.74)">5/3</text><text fill="#fff" font-family="Neusa-DemiBold, Neusa" font-size="14" font-weight="300" transform="translate(139.72 264)">45/32</text><text fill="#fff" font-family="Neusa-DemiBold, Neusa" font-size="14" font-weight="300" transform="translate(62.96 119.51)">9/5</text><text fill="#fff" font-family="Neusa-DemiBold, Neusa" font-size="14" font-weight="300" transform="translate(96.51 85)">15/8</text><text fill="#231f20" font-family="Neusa-Medium, Neusa" font-size="14" font-weight="500" transform="translate(140.82 297.49)">t<tspan letter-spacing="-.01em" x="4.38" y="0">r</tspan><tspan letter-spacing="-.02em" x="7.88" y="0">i</tspan><tspan letter-spacing="-.02em" x="9.88" y="0">t</tspan><tspan x="14.03" y="0">one</tspan></text><text fill="#231f20" font-family="Neusa-Medium, Neusa" font-size="14" font-weight="500" transform="translate(215.03 43.03)">minor<tspan x="0" y="14">second</tspan></text><text fill="#231f20" font-family="Neusa-Medium, Neusa" font-size="14" font-weight="500" transform="translate(263.37 92.44)">m<tspan letter-spacing="-.07em" x="9.04" y="0">a</tspan><tspan letter-spacing="0em" x="13.64" y="0">jor</tspan><tspan x="0" y="14">second</tspan></text><text fill="#231f20" font-family="Neusa-Medium, Neusa" font-size="14" font-weight="500" transform="translate(265.37 220.94)">m<tspan letter-spacing="-.07em" x="9.04" y="0">a</tspan><tspan letter-spacing="0em" x="13.64" y="0">jor</tspan><tspan x="0" y="14">thi</tspan><tspan letter-spacing="-.02em" x="12.31" y="14">r</tspan><tspan x="15.67" y="14">d</tspan></text><text fill="#231f20" font-family="Neusa-Medium, Neusa" font-size="14" font-weight="500" transform="translate(21.89 92.44)">minor<tspan x="-10.3" y="14">s</tspan><tspan letter-spacing="-.04em" x="-5.04" y="14">e</tspan><tspan letter-spacing="-.04em" x="-.17" y="14">v</tspan><tspan x="5.49" y="14">e</tspan><tspan letter-spacing="-.03em" x="10.88" y="14">n</tspan><tspan x="16.04" y="14">th</tspan></text><path d="m279.26 157.51a1.82 1.82 0 0 1 3.38.22 1.74 1.74 0 0 1 1.73-1.26c.95 0 1.94.58 1.94 2.47v4.66h-.78v-4.28c0-1.7-.64-2.13-1.36-2.13s-1.24.32-1.33 1.53v4.88h-.78v-4.28c0-1.7-.64-2.13-1.36-2.13s-1.34.39-1.34 1.9v4.51h-.79v-7h.6z" fill="#231f20"/><path d="m287.65 154.55h.91v.86h-.91zm.06 2h.79v7h-.79z" fill="#231f20"/><path d="m290.61 157.51a1.74 1.74 0 0 1 1.65-1c.95 0 1.94.58 1.94 2.47v4.66h-.79v-4.28c0-1.7-.64-2.13-1.35-2.13s-1.35.4-1.35 2v4.45h-.78v-7h.59z" fill="#231f20"/><path d="m295.39 158.94c0-1.88 1.1-2.47 2.13-2.47s2.14.58 2.14 2.47v2.31c0 1.89-1.11 2.47-2.14 2.47s-2.13-.59-2.13-2.47zm3.49.38c0-1.7-.65-2.13-1.36-2.13s-1.34.43-1.34 2.13v1.55c0 1.69.58 2.13 1.35 2.13s1.35-.44 1.35-2.13z" fill="#231f20"/><path d="m301.63 157.69a2 2 0 0 1 1.8-1.22v.71c-1 0-1.72.68-1.73 2.24v4.18h-.78v-7h.59z" fill="#231f20"/><path d="m280.26 174.94c0 1.87.36 2.06 1.32 2.07h.17v.72h-.35c-1.18 0-1.92-.34-1.92-2.56v-3.86h-1.07v-.71h1.07v-2.14h.78v2.14h1.49v.71h-1.49z" fill="#231f20"/><path d="m283.77 171.43a1.64 1.64 0 0 1 1.55-1c.95 0 1.94.58 1.94 2.47v4.66h-.78v-4.28c0-1.7-.64-2.13-1.36-2.13s-1.35.4-1.35 2v4.45h-.77v-9.8h.78z" fill="#231f20"/><path d="m288.6 168.55h.91v.86h-.91zm.06 2h.79v7h-.79z" fill="#231f20"/><path d="m291.59 171.69a2 2 0 0 1 1.8-1.22v.71c-1 0-1.72.68-1.73 2.24v4.18h-.78v-7h.59z" fill="#231f20"/><path d="m298.41 167.8v9.8h-.6l-.08-.92a1.74 1.74 0 0 1 -1.66 1c-.95 0-1.94-.58-1.94-2.47v-2.31c0-1.89 1-2.47 1.94-2.47a1.64 1.64 0 0 1 1.55.93v-3.6zm-3.49 7.07c0 1.69.61 2.13 1.35 2.13s1.35-.44 1.35-2.13v-1.55c0-1.7-.62-2.13-1.35-2.13s-1.35.43-1.35 2.13z" fill="#231f20"/><text fill="#231f20" font-family="Neusa-Medium, Neusa" font-size="14" font-weight="500" transform="translate(6.64 163.6)">m<tspan letter-spacing="-.07em" x="9.04" y="0">a</tspan><tspan letter-spacing="0em" x="13.64" y="0">jor</tspan><tspan x="3.56" y="14">s</tspan><tspan letter-spacing="-.01em" x="8.82" y="14">i</tspan><tspan letter-spacing="-.01em" x="10.93" y="14">x</tspan><tspan x="16.44" y="14">th</tspan></text><text fill="#231f20" font-family="Neusa-Medium, Neusa" font-size="14" font-weight="500" transform="translate(17.01 220.94)">minor<tspan x="3.16" y="14">s</tspan><tspan letter-spacing="-.01em" x="8.43" y="14">i</tspan><tspan letter-spacing="-.01em" x="10.54" y="14">x</tspan><tspan x="16.04" y="14">th</tspan></text><text fill="#231f20" font-family="Neusa-Medium, Neusa" font-size="14" font-weight="500" transform="translate(72.84 43.03)">m<tspan letter-spacing="-.07em" x="9.04" y="0">a</tspan><tspan letter-spacing="0em" x="13.64" y="0">jor</tspan><tspan x="-9.91" y="14">s</tspan><tspan letter-spacing="-.04em" x="-4.65" y="14">e</tspan><tspan letter-spacing="-.04em" x=".22" y="14">v</tspan><tspan x="5.88" y="14">e</tspan><tspan letter-spacing="-.03em" x="11.27" y="14">n</tspan><tspan x="16.44" y="14">th</tspan></text><text fill="#231f20" font-family="Neusa-Medium, Neusa" font-size="14" font-weight="500" transform="translate(219.03 273.94)">minor<tspan x="0" y="14">second</tspan></text><path d="m60.13 267.86a1.72 1.72 0 0 1 1.65-1c.95 0 1.94.57 1.94 2.46v2.31c0 1.89-1 2.47-1.94 2.47a1.65 1.65 0 0 1 -1.55-.93v3.09h-.78v-9.29h.55zm2.81 1.81c0-1.68-.62-2.13-1.36-2.13s-1.35.45-1.34 2.13v1.55c0 1.7.62 2.13 1.34 2.13s1.36-.43 1.36-2.13z" fill="#231f20"/><path d="m64.87 269.28c0-1.88 1.1-2.46 2.13-2.46s2.14.57 2.14 2.46v1.51h-3.48v.63c0 1.52.61 1.92 1.35 1.92s1.29-.35 1.34-1.67h.79c0 1.83-1.13 2.39-2.14 2.39s-2.13-.59-2.13-2.47zm3.48.13c0-1.49-.68-1.88-1.35-1.88s-1.34.38-1.34 1.89v.76h2.69z" fill="#231f20"/><path d="m71.08 268a2 2 0 0 1 1.8-1.22v.7c-1 0-1.72.68-1.72 2.24v4.18h-.79v-7h.63z" fill="#231f20"/><path d="m77.25 264v.72h-.2c-.93 0-1.29.25-1.29 1.92v.29h1.49v.73h-1.49v6.27h-.76v-6.27h-1.09v-.66h1.09v-.47c0-2.06.73-2.45 1.91-2.47z" fill="#231f20"/><path d="m78 269.28c0-1.88 1.1-2.46 2.13-2.46s2.14.57 2.14 2.46v1.51h-3.48v.63c0 1.52.61 1.92 1.35 1.92s1.29-.35 1.34-1.67h.79c0 1.83-1.13 2.39-2.14 2.39s-2.13-.59-2.13-2.47zm3.48.13c0-1.49-.67-1.88-1.34-1.88s-1.35.38-1.35 1.89v.76h2.69z" fill="#231f20"/><path d="m83.39 269.28c0-1.88 1.11-2.46 2.13-2.46s2.08.54 2.13 2.33v.25h-.77c0-1.48-.68-1.87-1.35-1.87s-1.35.43-1.35 2.13v1.55c0 1.69.59 2.13 1.35 2.13s1.33-.4 1.35-1.87h.77v.23c0 1.8-1.12 2.36-2.13 2.36s-2.13-.59-2.13-2.47z" fill="#231f20"/><path d="m90.26 271.28c0 1.87.36 2.06 1.32 2.08h.17v.71h-.35c-1.18 0-1.93-.34-1.92-2.56v-3.86h-1.07v-.71h1.07v-2.14h.78v2.14h1.49v.71h-1.49z" fill="#231f20"/><path d="m75.47 278v.72h-.17c-.94 0-1.32.24-1.32 1.9v.31h1.49v.73h-1.47v6.27h-.8v-6.27h-1.07v-.66h1.06v-.47c0-2.07.75-2.45 1.93-2.47zm2.14.88v.86h-.9v-.86zm-.06 2.05v7h-.78v-7z" fill="#231f20"/><path d="m82.16 278v.72h-.16c-.92 0-1.28.25-1.29 1.92v.29h1.49v.73h-1.53v6.27h-.78v-6.27h-1.07v-.66h1.07v-.47c0-2.06.73-2.45 1.9-2.47z" fill="#231f20"/><path d="m84.65 285.28c0 1.87.36 2.06 1.32 2.08h.16v.71h-.34c-1.19 0-1.93-.34-1.93-2.56v-3.86h-1.06v-.71h1.06v-2.14h.79v2.14h1.48v.71h-1.48z" fill="#231f20"/><path d="m88.16 281.77a1.61 1.61 0 0 1 1.54-.95c1 0 2 .57 2 2.46v4.66h-.79v-4.28c0-1.7-.64-2.13-1.36-2.13s-1.34.4-1.34 2v4.45h-.79v-9.8h.79z" fill="#231f20"/></svg>