<svg xmlns="http://www.w3.org/2000/svg" version="1.1" width="800px" height="600px" viewBox="0 0 800 600">
<path fill="#CCC" d="M0 0h800v600h-800z" />
<ellipse fill="#0086CC" stroke="#000" cx="652" cy="300" rx="70" ry="60" />
<ellipse fill="#5A7B9C" stroke="#000" cx="400" cy="300" rx="76" ry="46" />
<ellipse fill="#A1C1E6" stroke="#000" cx="400" cy="150" rx="76" ry="46" />
<ellipse fill="#1B405E" stroke="#000" cx="400" cy="450" rx="76" ry="46" />
<ellipse fill="#787878" stroke="#000" cx="148" cy="300" rx="76" ry="46" />
<ellipse fill="#FFF" stroke="#000" cx="148" cy="100" rx="76" ry="46" />
<ellipse stroke="#000" cx="147.856" cy="500.0029" rx="76" ry="46" />
<path d="M603.8 414.6c2-0.3 4.7-0.6 8-0.6c4.1 0 7.2 1 9.1 2.7c1.7 1.5 2.8 3.9 2.8 6.8c0 2.9-0.9 5.2-2.5 6.9c-2.3 2.4-5.8 3.6-9.9 3.6c-1.2 0-2.4-0-3.4-0.3v13h-4.2V414.6zM608 430.2c0.9 0.2 2.1 0.3 3.5 0.3c5 0 8.1-2.5 8.1-6.9c0-4.3-3.1-6.4-7.6-6.4c-1.8 0-3.2 0.1-3.9 0.3V430.2zM644.2 441c0 2 0.1 4 0.3 5.6h-3.8l-0.3-2.9h-0.1c-1.3 1.8-3.8 3.5-7.1 3.5c-4.7 0-7.1-3.3-7.1-6.7c0-5.6 5-8.7 14-8.6v-0.5c0-1.9-0.5-5.4-5.3-5.3c-2.2 0-4.5 0.6-6.1 1.7l-1-2.8c1.9-1.2 4.8-2 7.7-2c7.1 0 8.8 4.8 8.8 9.5V441zM640.2 434.7c-4.6-0.1-9.8 0.7-9.8 5.2c0 2.8 1.8 4 3.9 4c3.1 0 5-1.9 5.7-3.9c0.1-0.5 0.2-1 0.2-1.3V434.7zM655.8 416.8c0 1.4-1 2.6-2.7 2.6c-1.5 0-2.5-1.2-2.5-2.6c0-1.4 1.1-2.6 2.6-2.6C654.7 414.2 655.8 415.3 655.8 416.8zM651.1 446.6v-23.2h4.2v23.2H651.1zM662.3 429.6c0-2.4-0-4.4-0.2-6.3h3.7l0.2 3.8h0.1c1.2-2.2 3.8-4.3 7.7-4.3c3.2 0 8.2 1.9 8.2 9.9v13.8h-4.2v-13.4c0-3.7-1.4-6.9-5.4-6.9c-2.7 0-4.9 2-5.7 4.3c-0.2 0.5-0.3 1.2-0.3 2v14h-4.2V429.6zM693.8 417.8v5.6h6v3.2h-6v12.5c0 2.9 0.8 4.5 3.2 4.5c1.2 0 1.8-0.1 2.4-0.3l0.2 3.2c-0.8 0.3-2.1 0.6-3.7 0.6c-2 0-3.6-0.7-4.6-1.8c-1.2-1.3-1.6-3.4-1.6-6.1v-12.7h-3.6v-3.2h3.6v-4.3L693.8 417.8zM706.7 435.7c0.1 5.7 3.7 8.1 8 8.1c3 0 4.9-0.5 6.4-1.2l0.8 3c-1.5 0.7-4.1 1.5-7.8 1.5c-7.2 0-11.4-4.8-11.4-11.8s4.1-12.5 10.9-12.5c7.6 0 9.6 6.6 9.6 10.9c0 0.9-0 1.5-0.1 2H706.7zM719.1 432.7c0-2.6-1.1-6.8-5.9-6.8c-4.3 0-6.1 3.9-6.5 6.8H719.1zM728.4 430.6c0-2.7-0-5.1-0.2-7.2h3.7l0.2 4.6h0.1c1.1-3.1 3.6-5.1 6.5-5.1c0.4 0 0.8 0 1.2 0.1v4c-0.4-0.1-0.9-0.1-1.4-0.1c-3 0-5.1 2.2-5.7 5.4c-0.1 0.6-0.1 1.3-0.1 2v12.4h-4.2V430.6zM743.5 442.3c1.3 0.8 3.5 1.6 5.6 1.6c3 0 4.5-1.5 4.5-3.5c0-2-1.2-3.1-4.3-4.2c-4.2-1.5-6.2-3.8-6.2-6.6c0-3.7 3.1-6.8 8-6.8c2.4 0 4.4 0.6 5.7 1.4l-1 3.1c-0.9-0.6-2.6-1.4-4.8-1.4c-2.5 0-3.8 1.4-3.8 3.2c0 1.9 1.3 2.8 4.4 4c4 1.5 6.1 3.5 6.1 7c0 4.1-3.2 7-8.6 7c-2.5 0-4.9-0.7-6.5-1.6L743.5 442.3zM767.6 413.4c-1.1 4-3.2 9.2-4.5 11.4l-2.7 0.3c1-2.8 2.3-7.8 2.8-11.2L767.6 413.4zM536.2 503.2c-1.5 0.8-4.6 1.5-8.5 1.5c-9.1 0-15.9-5.8-15.9-16.4c0-10.2 6.9-17 16.9-17c4 0 6.6 0.9 7.7 1.4l-1.1 3.4c-1.5-0.8-3.8-1.3-6.5-1.3c-7.6 0-12.6 4.8-12.6 13.3c0 8 4.6 13 12.4 13c2.6 0 5.2-0.5 6.9-1.3L536.2 503.2zM561.9 492.4c0 8.6-6 12.3-11.6 12.3c-6.2 0-11.1-4.6-11.1-12c0-7.7 5.1-12.3 11.5-12.3C557.4 480.5 561.9 485.3 561.9 492.4zM543.5 492.6c0 5.1 2.9 8.9 7 8.9c4 0 7.1-3.8 7.1-9c0-3.9-2-8.9-7-8.9C545.7 483.6 543.5 488.2 543.5 492.6zM567.2 470.1h4.2v34.1h-4.2V470.1zM599.6 492.4c0 8.6-6 12.3-11.6 12.3c-6.2 0-11.1-4.6-11.1-12c0-7.7 5.1-12.3 11.5-12.3C595 480.5 599.6 485.3 599.6 492.4zM581.2 492.6c0 5.1 2.9 8.9 7 8.9c4 0 7.1-3.8 7.1-9c0-3.9-2-8.9-7-8.9C583.3 483.6 581.2 488.2 581.2 492.6zM604.9 488.2c0-2.7-0-5.1-0.2-7.2h3.7l0.2 4.6h0.1c1.1-3.1 3.6-5.1 6.5-5.1c0.4 0 0.8 0 1.2 0.1v4c-0.4-0.1-0.9-0.1-1.4-0.1c-3 0-5.1 2.2-5.7 5.4c-0.1 0.6-0.1 1.3-0.1 2v12.4h-4.2V488.2zM658.2 490c-0.2-4.5-0.5-10-0.5-14h-0.1c-1.2 3.7-2.4 7.8-4.1 12.3l-5.7 15.7h-3.2l-5.3-15.4c-1.5-4.6-2.8-8.7-3.7-12.6h-0.1c-0.1 4-0.3 9.4-0.6 14.3l-0.9 13.9h-4l2.3-32.4h5.3l5.5 15.6c1.3 4 2.4 7.5 3.3 10.9h0.1c0.9-3.3 2-6.8 3.5-10.9l5.8-15.6h5.3l2 32.4h-4.1L658.2 490zM674.6 474.4c0 1.4-1 2.6-2.7 2.6c-1.5 0-2.5-1.2-2.5-2.6c0-1.4 1.1-2.6 2.6-2.6C673.6 471.8 674.6 472.9 674.6 474.4zM669.9 504.2v-23.2h4.2v23.2H669.9zM683.1 481l3.3 5c0.9 1.3 1.6 2.4 2.4 3.7h0.1c0.8-1.3 1.5-2.5 2.4-3.8l3.2-4.9h4.6l-7.9 11.2l8.1 12h-4.8l-3.5-5.2c-0.9-1.3-1.7-2.6-2.5-4h-0.1c-0.8 1.4-1.5 2.6-2.4 4l-3.4 5.2h-4.7l8.3-11.9l-7.9-11.4H683.1zM708.1 474.4c0 1.4-1 2.6-2.7 2.6c-1.5 0-2.5-1.2-2.5-2.6c0-1.4 1.1-2.6 2.6-2.6C707 471.8 708.1 472.9 708.1 474.4zM703.4 504.2v-23.2h4.2v23.2H703.4zM714.6 487.2c0-2.4-0-4.4-0.2-6.3h3.7l0.2 3.8h0.1c1.2-2.2 3.8-4.3 7.7-4.3c3.2 0 8.2 1.9 8.2 9.9v13.8h-4.2V490.8c0-3.7-1.4-6.9-5.4-6.9c-2.7 0-4.9 2-5.7 4.3c-0.2 0.5-0.3 1.2-0.3 2v14h-4.2V487.2zM761.1 500.8c0 5.4-1.1 8.6-3.3 10.7c-2.3 2.1-5.6 2.8-8.5 2.8c-2.8 0-5.9-0.7-7.7-1.9l1.1-3.3c1.5 1 3.9 1.9 6.8 1.9c4.3 0 7.5-2.3 7.5-8.2v-2.5h-0.1c-1.2 2.2-3.8 3.9-7.4 3.9c-5.8 0-9.9-4.9-9.9-11.3c0-7.9 5.1-12.3 10.5-12.3c4 0 6.2 2.1 7.2 4h0.1l0.1-3.5h3.7c-0.1 1.6-0.2 3.6-0.2 6.3V500.8zM756.9 490.1c0-0.7-0-1.3-0.2-1.9c-0.8-2.5-2.8-4.5-5.9-4.5c-4 0-6.9 3.4-6.9 8.8c0 4.6 2.4 8.4 6.9 8.4c2.6 0 5-1.6 5.9-4.3c0.2-0.7 0.3-1.5 0.3-2.3V490.1zM522.6 533h-9.8v-3.6h24v3.6h-9.9v28.8h-4.2V533zM539.1 550.9c0.1 5.7 3.7 8.1 8 8.1c3 0 4.9-0.5 6.4-1.2l0.8 3c-1.5 0.7-4.1 1.5-7.8 1.5c-7.2 0-11.4-4.8-11.4-11.8s4.1-12.5 10.9-12.5c7.6 0 9.6 6.6 9.6 10.9c0 0.9-0 1.5-0.1 2H539.1zM551.5 547.9c0-2.6-1.1-6.8-5.9-6.8c-4.3 0-6.1 3.9-6.5 6.8H551.5zM560.8 545.8c0-2.7-0-5.1-0.2-7.2h3.7l0.2 4.6h0.1c1.1-3.1 3.6-5.1 6.5-5.1c0.4 0 0.8 0 1.2 0.1v4c-0.4-0.1-0.9-0.1-1.4-0.1c-3 0-5.1 2.2-5.7 5.4c-0.1 0.6-0.1 1.3-0.1 2v12.4h-4.2V545.8zM576.7 544.8c0-2.4-0.1-4.4-0.2-6.3h3.7l0.2 3.8h0.1c1.3-2.2 3.5-4.3 7.3-4.3c3.1 0 5.5 1.9 6.5 4.7h0.1c0.7-1.3 1.7-2.3 2.6-3c1.4-1.1 2.9-1.6 5.1-1.6c3.1 0 7.7 2 7.7 10.1v13.6h-4.1v-13.1c0-4.5-1.7-7.2-5-7.2c-2.4 0-4.3 1.8-5 3.8c-0.2 0.6-0.3 1.3-0.3 2.1v14.4h-4.1v-13.9c0-3.7-1.6-6.3-4.8-6.3c-2.6 0-4.6 2.1-5.2 4.2c-0.2 0.6-0.3 1.3-0.3 2.1v14h-4.1V544.8zM621.4 532c0 1.4-1 2.6-2.7 2.6c-1.5 0-2.5-1.2-2.5-2.6c0-1.4 1.1-2.6 2.6-2.6C620.4 529.4 621.4 530.5 621.4 532zM616.7 561.8v-23.2h4.2v23.2H616.7zM628 544.8c0-2.4-0-4.4-0.2-6.3h3.7l0.2 3.8h0.1c1.2-2.2 3.8-4.3 7.7-4.3c3.2 0 8.2 1.9 8.2 9.9v13.8h-4.2v-13.4c0-3.7-1.4-6.9-5.4-6.9c-2.7 0-4.9 2-5.7 4.3c-0.2 0.5-0.3 1.2-0.3 2v14h-4.2V544.8zM675.6 550c0 8.6-6 12.3-11.6 12.3c-6.2 0-11.1-4.6-11.1-12c0-7.7 5.1-12.3 11.5-12.3C671.1 538.1 675.6 542.9 675.6 550zM657.3 550.2c0 5.1 2.9 8.9 7 8.9c4 0 7.1-3.8 7.1-9c0-3.9-2-8.9-7-8.9C659.4 541.2 657.3 545.8 657.3 550.2zM681 527.7h4.2v34.1h-4.2V527.7zM713.3 550c0 8.6-6 12.3-11.6 12.3c-6.2 0-11.1-4.6-11.1-12c0-7.7 5.1-12.3 11.5-12.3C708.8 538.1 713.3 542.9 713.3 550zM694.9 550.2c0 5.1 2.9 8.9 7 8.9c4 0 7.1-3.8 7.1-9c0-3.9-2-8.9-7-8.9C697.1 541.2 694.9 545.8 694.9 550.2zM738.5 558.4c0 5.4-1.1 8.6-3.3 10.7c-2.3 2.1-5.6 2.8-8.5 2.8c-2.8 0-5.9-0.7-7.7-1.9l1.1-3.3c1.5 1 3.9 1.9 6.8 1.9c4.3 0 7.5-2.3 7.5-8.2v-2.5h-0.1c-1.2 2.2-3.8 3.9-7.4 3.9c-5.8 0-9.9-4.9-9.9-11.3c0-7.9 5.1-12.3 10.5-12.3c4 0 6.2 2.1 7.2 4h0.1l0.1-3.5h3.7c-0.1 1.6-0.2 3.6-0.2 6.3V558.4zM734.3 547.7c0-0.7-0-1.3-0.2-1.9c-0.8-2.5-2.8-4.5-5.9-4.5c-4 0-6.9 3.4-6.9 8.8c0 4.6 2.4 8.4 6.9 8.4c2.6 0 5-1.6 5.9-4.3c0.2-0.7 0.3-1.5 0.3-2.3V547.7zM747 538.6l5 13.7c0.6 1.5 1.2 3.4 1.5 4.8h0.1c0.4-1.4 0.9-3.2 1.5-4.8l4.6-13.6h4.5l-6.3 16.6c-3 8-5.1 12-8 14.5c-2.1 1.8-4.1 2.5-5.2 2.7l-1.1-3.5c1.1-0.3 2.4-1 3.7-2.1c1.2-0.9 2.5-2.5 3.6-4.7c0.2-0.4 0.3-0.8 0.3-1s-0.1-0.6-0.3-1.1l-8.5-21.4H747z" />
<path fill="#FFF" d="M620.5 267.1c1.6-0.3 3.7-0.5 6.3-0.5c3.3 0 5.7 0.7 7.1 2.1c1.4 1.3 2.2 3 2.2 5.4c0 2.3-0.6 4.1-2 5.5c-1.8 1.9-4.6 2.8-7.8 2.8c-0.9 0-1.9-0-2.6-0.2v10.2h-3.3V267.1zM623.8 279.4c0.7 0.2 1.6 0.3 2.7 0.3c4 0 6.4-2 6.4-5.4c0-3.4-2.4-5-6-5c-1.5 0-2.5 0.1-3.2 0.3V279.4zM655.3 287.3c0 1.9 0 3.6 0.1 5h-2.9l-0.2-2.9h-0.1c-0.8 1.5-2.8 3.4-6.1 3.4c-2.8 0-6.3-1.6-6.3-8V274h3.4v10.1c0 3.5 1.1 5.9 4.1 5.9c2.2 0 3.8-1.6 4.4-3c0.2-0.4 0.3-1.1 0.3-1.7V274h3.4V287.3zM660.7 279.7c0-2.2-0-4-0.1-5.7h2.9l0.1 3.7h0.1c0.8-2.4 2.8-4 5.1-4c0.3 0 0.6 0 0.9 0.1v3.2c-0.3-0.1-0.6-0.1-1.2-0.1c-2.3 0-4 1.8-4.4 4.2c-0.1 0.4-0.1 1.1-0.1 1.6v9.8h-3.4V279.7zM674.6 283.8c0.1 4.5 2.9 6.3 6.3 6.3c2.4 0 3.9-0.4 5-0.9l0.6 2.4c-1.2 0.5-3.3 1.2-6.1 1.2c-5.7 0-9-3.8-9-9.2c0-5.6 3.3-9.9 8.6-9.9c6 0 7.6 5.2 7.6 8.6c0 0.6-0 1.2-0.1 1.6H674.6zM684.4 281.4c0-2.1-0.8-5.4-4.6-5.4c-3.4 0-4.8 3-5.1 5.4H684.4zM631.8 329.3c-1.2 0.6-3.7 1.3-6.7 1.3c-7.1 0-12.6-4.5-12.6-12.9c0-8 5.4-13.3 13.3-13.3c3.2 0 5.1 0.6 6.1 1.2l-0.8 2.7c-1.3-0.6-2.9-1.1-5.1-1.1c-6 0-10 3.8-10 10.5c0 6.3 3.6 10.3 9.8 10.3c2 0 4.1-0.4 5.4-1.1L631.8 329.3zM651.9 320.8c0 6.7-4.7 9.7-9.1 9.7c-4.9 0-8.8-3.7-8.8-9.5c0-6.1 4.1-9.7 9-9.7C648.3 311.4 651.9 315.2 651.9 320.8zM637.4 321c0 4 2.3 7 5.6 7c3.2 0 5.6-2.9 5.6-7.1c0-3.2-1.6-7-5.5-7C639.2 313.9 637.4 317.5 637.4 321zM656.1 303.2h3.4v26.9h-3.4V303.2zM681.6 320.8c0 6.7-4.7 9.7-9.1 9.7c-4.9 0-8.8-3.7-8.8-9.5c0-6.1 4.1-9.7 9-9.7C678.1 311.4 681.6 315.2 681.6 320.8zM667.1 321c0 4 2.3 7 5.6 7c3.2 0 5.6-2.9 5.6-7.1c0-3.2-1.6-7-5.5-7C668.8 313.9 667.1 317.5 667.1 321zM685.8 317.5c0-2.2-0-4-0.1-5.7h2.9l0.1 3.7h0.1c0.8-2.4 2.8-4 5.1-4c0.3 0 0.6 0 0.9 0.1v3.2c-0.3-0.1-0.6-0.1-1.2-0.1c-2.3 0-4 1.8-4.4 4.2c-0.1 0.4-0.1 1.1-0.1 1.6v9.8h-3.4V317.5z" />
<path d="M377.3 140.5h-7.8v-2.8h18.9v2.8h-7.8v22.7h-3.4V140.5zM394.3 139.7c0 1.2-0.8 2-2.1 2c-1.3 0-2-0.9-2-2s0.8-2.1 2.1-2.1C393.5 137.6 394.3 138.6 394.3 139.7zM390.7 163.2v-18.3h3.4v18.3H390.7zM399.5 149.8c0-1.9-0-3.5-0.1-4.9h2.9l0.2 3h0.1c0.9-1.7 3-3.4 6.1-3.4c2.5 0 6.5 1.5 6.5 7.8v10.9h-3.4v-10.5c0-2.9-1.1-5.4-4.2-5.4c-2.2 0-3.9 1.6-4.4 3.4c-0.1 0.4-0.2 0.9-0.2 1.6v11h-3.4V149.8zM424.4 140.5v4.4h4.7v2.5h-4.7v9.9c0 2.3 0.6 3.6 2.5 3.6c0.9 0 1.5-0.1 1.9-0.2l0.1 2.5c-0.6 0.2-1.7 0.4-2.9 0.4c-1.6 0-2.8-0.5-3.6-1.4c-0.9-1.1-1.3-2.6-1.3-4.8v-10h-2.8v-2.5h2.8v-3.4L424.4 140.5z" />
<path fill="#FFF" d="M370.5 291h-7.8v-2.8h18.9v2.8h-7.8v22.7h-3.4V291zM398.2 304.3c0 6.7-4.7 9.7-9.1 9.7c-4.9 0-8.8-3.7-8.8-9.5c0-6.1 4.1-9.7 9-9.7C394.6 295 398.2 298.7 398.2 304.3zM383.7 304.5c0 4 2.3 7 5.6 7c3.2 0 5.6-2.9 5.6-7.1c0-3.2-1.6-7-5.5-7C385.4 297.4 383.7 301.1 383.7 304.5zM402.4 300.2c0-1.9-0-3.5-0.1-4.9h2.9l0.2 3h0.1c0.9-1.7 3-3.4 6.1-3.4c2.5 0 6.5 1.5 6.5 7.8v10.9h-3.4v-10.5c0-2.9-1.1-5.4-4.2-5.4c-2.2 0-3.9 1.6-4.4 3.4c-0.1 0.4-0.2 0.9-0.2 1.6v11h-3.4V300.2zM425.2 305c0.1 4.5 2.9 6.3 6.3 6.3c2.4 0 3.9-0.4 5-0.9l0.6 2.4c-1.2 0.5-3.3 1.2-6.1 1.2c-5.7 0-9-3.8-9-9.2c0-5.6 3.3-9.9 8.6-9.9c6 0 7.6 5.2 7.6 8.6c0 0.6-0 1.2-0.1 1.6H425.2zM435 302.6c0-2.1-0.8-5.4-4.6-5.4c-3.4 0-4.8 3-5.1 5.4H435z" />
<path fill="#FFF" d="M110.3 487.9c1.5-0.3 3.8-0.5 6-0.5c3.3 0 5.4 0.5 6.9 1.9c1.4 0.9 2.2 2.5 2.2 4.5c0 2.5-1.7 4.6-4.3 5.6v0.1c2.4 0.5 5.2 2.5 5.2 6.3c0 2.2-0.8 3.9-2.2 5.1c-1.8 1.6-4.6 2.4-8.8 2.4c-2.3 0-4-0.1-5.1-0.3V487.9zM113.5 498.4h2.9c3.5 0 5.5-1.9 5.5-4.3c0-2.9-2.2-4.2-5.6-4.2c-1.5 0-2.4 0.1-2.9 0.2V498.4zM113.5 510.6c0.6 0.1 1.6 0.1 2.7 0.1c3.4 0 6.5-1.3 6.5-4.9c0-3.5-2.9-4.9-6.6-4.9h-2.7V510.6zM130.7 486.2h3.4v26.9h-3.4V486.2zM152.5 508.7c0 1.6 0.1 3.2 0.3 4.4h-2.9l-0.3-2.3h-0.1c-1.1 1.5-2.9 2.7-5.6 2.7c-3.7 0-5.6-2.6-5.6-5.2c0-4.4 3.9-6.8 11-6.8v-0.4c0-1.5-0.4-4.2-4.2-4.2c-1.8 0-3.5 0.5-4.8 1.4l-0.7-2.2c1.5-0.9 3.8-1.6 6.1-1.6c5.6 0 6.9 3.8 6.9 7.5V508.7zM149.2 503.8c-3.7-0.1-7.8 0.5-7.8 4.1c0 2.2 1.5 3.2 3.2 3.2c2.4 0 4-1.5 4.5-3c0.1-0.4 0.1-0.7 0.1-1.1V503.8zM170.9 512.4c-0.8 0.4-2.8 1.1-5.2 1.1c-5.6 0-9.1-3.8-9.1-9.3c0-5.7 3.9-9.8 9.9-9.8c2 0 3.7 0.5 4.6 0.9l-0.7 2.5c-0.8-0.4-2-0.8-3.9-0.8c-4.2 0-6.5 3.2-6.5 6.9c0 4.2 2.7 6.8 6.3 6.8c1.9 0 3.2-0.4 4.1-0.8L170.9 512.4zM178 503.1h0.1c0.4-0.6 1.1-1.5 1.6-2.1l5.4-6.3h4l-7 7.6l8.1 10.8h-4.1l-6.3-8.8l-1.7 1.9v6.9h-3.3v-26.9h3.3V503.1z" />
<path fill="#FFF" d="M354.4 457.1c1.5 0.9 3.6 1.7 5.9 1.7c3.4 0 5.4-1.8 5.4-4.3c0-2.3-1.4-3.8-4.8-5c-4.2-1.5-6.7-3.7-6.7-7.2c0-4 3.3-6.9 8.2-6.9c2.5 0 4.5 0.6 5.6 1.3l-0.9 2.7c-0.8-0.5-2.5-1.3-4.8-1.3c-3.5 0-4.8 2.1-4.8 3.8c0 2.4 1.6 3.6 5 4.9c4.3 1.7 6.5 3.8 6.5 7.5c0 3.9-2.8 7.4-8.9 7.4c-2.4 0-5.1-0.7-6.5-1.7L354.4 457.1zM373.3 434.3h3.4v11.4h0.1c0.5-0.9 1.4-1.8 2.4-2.4c0.9-0.5 2.2-0.9 3.4-0.9c2.4 0 6.4 1.5 6.4 7.8v10.9h-3.4v-10.5c0-2.9-1.1-5.4-4.2-5.4c-2.2 0-3.8 1.5-4.4 3.3c-0.2 0.5-0.2 0.9-0.2 1.6v11h-3.4V434.3zM407.1 456.7c0 1.6 0.1 3.2 0.3 4.4h-2.9l-0.3-2.3h-0.1c-1.1 1.5-2.9 2.7-5.6 2.7c-3.7 0-5.6-2.6-5.6-5.2c0-4.4 3.9-6.8 11-6.8v-0.4c0-1.5-0.4-4.2-4.2-4.2c-1.8 0-3.5 0.5-4.8 1.4l-0.7-2.2c1.5-0.9 3.8-1.6 6.1-1.6c5.6 0 6.9 3.8 6.9 7.5V456.7zM404 451.8c-3.7-0.1-7.8 0.5-7.8 4.1c0 2.2 1.5 3.2 3.2 3.2c2.4 0 4-1.5 4.5-3c0.1-0.4 0.1-0.7 0.1-1.1V451.8zM428.4 434.3v22.2c0 1.6 0.1 3.5 0.1 4.7h-2.9l-0.1-3.2h-0.1c-0.9 2-3.2 3.6-6.2 3.6c-4.4 0-7.9-3.8-7.9-9.3c-0-6.1 3.8-9.8 8.2-9.8c2.8 0 4.7 1.4 5.6 2.7h0.1v-10.9H428.4zM425 450.2c0-0.4-0-0.9-0.1-1.4c-0.5-2.1-2.3-3.8-4.8-3.8c-3.5 0-5.5 3-5.5 7c0 3.7 1.9 6.7 5.4 6.7c2.2 0 4.3-1.5 4.8-4c0.1-0.4 0.1-0.9 0.1-1.5V450.2zM435.7 452.5c0.1 4.5 2.9 6.3 6.3 6.3c2.4 0 3.9-0.4 5-0.9l0.6 2.4c-1.2 0.5-3.3 1.2-6.1 1.2c-5.7 0-9-3.8-9-9.2c0-5.6 3.3-9.9 8.6-9.9c6 0 7.6 5.2 7.6 8.6c0 0.6-0 1.2-0.1 1.6H435.7zM445.5 450.1c0-2.1-0.8-5.4-4.6-5.4c-3.4 0-4.8 3-5.1 5.4H445.5z" />
<path fill="#FFF" d="M134.2 313.1c-1.5 0.5-4.4 1.4-7.9 1.4c-3.9 0-7-0.9-9.6-3.4c-2.2-2.1-3.6-5.6-3.6-9.5c0-7.6 5.2-13.1 13.8-13.1c2.9 0 5.2 0.6 6.4 1.2l-0.8 2.7c-1.4-0.6-3-1.1-5.7-1.1c-6.2 0-10.3 3.9-10.3 10.3c0 6.5 3.9 10.3 9.9 10.3c2.2 0 3.7-0.3 4.4-0.6v-7.6h-5.1v-2.6h8.4V313.1zM139.1 301.7c0-2.2-0-4-0.1-5.7h2.9l0.1 3.7h0.1c0.8-2.4 2.8-4 5.1-4c0.3 0 0.6 0 0.9 0.1v3.2c-0.3-0.1-0.6-0.1-1.2-0.1c-2.3 0-4 1.8-4.4 4.2c-0.1 0.4-0.1 1.1-0.1 1.6v9.8h-3.4V301.7zM164.1 309.9c0 1.6 0.1 3.2 0.3 4.4h-2.9l-0.3-2.3h-0.1c-1.1 1.5-2.9 2.7-5.6 2.7c-3.7 0-5.6-2.6-5.6-5.2c0-4.4 3.9-6.8 11-6.8v-0.4c0-1.5-0.4-4.2-4.2-4.2c-1.8 0-3.5 0.5-4.8 1.4l-0.7-2.2c1.5-0.9 3.8-1.6 6.1-1.6c5.6 0 6.9 3.8 6.9 7.5V309.9zM160.8 304.9c-3.7-0.1-7.8 0.5-7.8 4.1c0 2.2 1.5 3.2 3.2 3.2c2.4 0 4-1.5 4.5-3c0.1-0.4 0.1-0.7 0.1-1.1V304.9zM170.4 296l4 10.8c0.4 1.3 0.9 2.6 1.3 3.8h0.1c0.3-1.1 0.7-2.5 1.2-3.8l3.7-10.7h3.5l-5 13c-2.4 6.3-4 9.5-6.3 11.4c-1.7 1.4-3.3 2-4.1 2.1l-0.8-2.7c0.8-0.3 1.9-0.8 2.9-1.6c0.9-0.7 2-2 2.8-3.7c0.1-0.3 0.3-0.6 0.3-0.8s-0.1-0.4-0.3-0.8l-6.7-16.9H170.4z" />
<path d="M109.7 112.8l-6.5-25.5h3.5l3 12.9c0.7 3.2 1.5 6.3 1.9 8.8h0.1c0.4-2.5 1.3-5.6 2.1-8.8l3.4-12.8h3.5l3.2 12.9c0.7 3 1.4 6.1 1.8 8.7h0.1c0.5-2.8 1.3-5.7 2-8.8l3.4-12.8h3.4l-7.2 25.5h-3.5l-3.3-13.2c-0.8-3.3-1.4-5.8-1.7-8.3h-0.1c-0.4 2.5-1.1 5-2 8.3l-3.7 13.2H109.7zM137.2 85.9h3.4v11.4h0.1c0.5-0.9 1.4-1.8 2.4-2.4c0.9-0.5 2.2-0.9 3.4-0.9c2.4 0 6.4 1.5 6.4 7.8v10.9h-3.4v-10.5c0-2.9-1.1-5.4-4.2-5.4c-2.2 0-3.8 1.5-4.4 3.3c-0.2 0.5-0.2 0.9-0.2 1.6v11h-3.4V85.9zM161.8 89.4c0 1.2-0.8 2-2.1 2c-1.3 0-2-0.9-2-2c0-1.2 0.8-2.1 2.1-2.1C161 87.3 161.8 88.2 161.8 89.4zM158.2 112.8V94.5h3.4v18.3H158.2zM171 90.1v4.4h4.7v2.5h-4.7v9.9c0 2.3 0.6 3.6 2.5 3.6c0.9 0 1.5-0.1 1.9-0.2l0.1 2.5c-0.6 0.2-1.7 0.4-2.9 0.4c-1.6 0-2.8-0.5-3.6-1.4c-0.9-1.1-1.3-2.6-1.3-4.8v-10h-2.8v-2.5h2.8V91.1L171 90.1zM181.2 104.3c0.1 4.5 2.9 6.3 6.3 6.3c2.4 0 3.9-0.4 5-0.9l0.6 2.4c-1.2 0.5-3.3 1.2-6.1 1.2c-5.7 0-9-3.8-9-9.2c0-5.6 3.3-9.9 8.6-9.9c6 0 7.6 5.2 7.6 8.6c0 0.6-0 1.2-0.1 1.6H181.2zM190.9 101.9c0-2.1-0.8-5.4-4.6-5.4c-3.4 0-4.8 3-5.1 5.4H190.9z" />
<path d="M141.5 217.8L148.4 243.9 155.4 217.8M155.2 383.8L148.3 357.8 141.3 383.8M286.7 133.4L313.6 133.5 290.4 119.9M287.3 310L313.4 303 287.3 296.1M288.4 480L311.5 466.2 284.6 466.5M394.2 220.8L401.2 246.9 408.1 220.8M408 378.8L401 352.8 394 378.8M490.6 395.7L472.2 415.4 497.9 407.6M500.9 190.9L475.2 182.7 493.4 202.6M513.3 296.2L487.3 303.2 513.3 310.2" />
<path fill="none" stroke="#000" stroke-width="3" d="M148.3 169.1L148.3 222.6M148.3 431.8L148.3 379.1M236.6 112.6L293.1 128M236.6 487.4L291.1 472M239.6 303.1L292.1 303.1M401.1 206.1L401.1 225.6M401.1 392.8L401.1 374.1M565.1 303.1L508.6 303.1M586.1 253.8L493.2 194.1M586.1 344.3L490.2 404.1" />
</svg>
