<?xml version="1.0" encoding="utf-8"?>
<!-- Generator: Adobe Illustrator 24.3.0, SVG Export Plug-In . SVG Version: 6.00 Build 0)  -->
<svg version="1.1" xmlns="http://www.w3.org/2000/svg" xmlns:xlink="http://www.w3.org/1999/xlink" x="0px" y="0px"
	 viewBox="0 0 1636.5 755.5" style="enable-background:new 0 0 1636.5 755.5;" xml:space="preserve">
<style type="text/css">
	.st0{display:none;}
	.st1{display:inline;fill:#FCF9E7;stroke:#000000;stroke-width:1.7694;stroke-linecap:round;stroke-miterlimit:11.3386;}
	.st2{display:none;opacity:0.5743;}
	
		.st3{display:inline;opacity:0.4118;fill:none;stroke:#000000;stroke-width:8.5039;stroke-linecap:round;stroke-miterlimit:11.3386;enable-background:new    ;}
	.st4{display:inline;fill:none;stroke:#D40000;stroke-width:8.5039;stroke-miterlimit:11.3386;}
	.st5{opacity:0.12;fill:#FF3100;}
	.st6{opacity:0.12;fill:#FFF500;}
	.st7{opacity:0.12;fill:#43FF66;}
	.st8{opacity:0.12;fill:#00D6F0;}
	.st9{fill:#00F3FF;}
	.st10{fill:#0DFF00;}
	.st11{fill:#F2FF00;}
	.st12{fill:#FF3100;}
	.st13{opacity:9.000000e-02;}
</style>
<g id="svg8" inkscape:version="1.0 (4035a4fb49, 2020-05-01)" sodipodi:docname="Wheel of acoustics 2.svg" xmlns:cc="http://creativecommons.org/ns#" xmlns:dc="http://purl.org/dc/elements/1.1/" xmlns:inkscape="http://www.inkscape.org/namespaces/inkscape" xmlns:rdf="http://www.w3.org/1999/02/22-rdf-syntax-ns#" xmlns:sodipodi="http://sodipodi.sourceforge.net/DTD/sodipodi-0.dtd" xmlns:svg="http://www.w3.org/2000/svg">
	
		<sodipodi:namedview  bordercolor="#666666" borderlayer="true" borderopacity="1.0" fit-margin-bottom="0" fit-margin-left="0" fit-margin-right="0" fit-margin-top="0" id="base" inkscape:current-layer="layer9" inkscape:cx="995.3032" inkscape:cy="989.93472" inkscape:document-rotation="0" inkscape:document-units="mm" inkscape:pageopacity="0.0" inkscape:pageshadow="2" inkscape:snap-global="true" inkscape:window-height="728" inkscape:window-maximized="0" inkscape:window-width="1350" inkscape:window-x="0" inkscape:window-y="0" inkscape:zoom="0.28890794" pagecolor="#ffffff" showgrid="false">
		</sodipodi:namedview>
	
		<g id="layer7" transform="translate(-36.729198,-39.185417)" inkscape:groupmode="layer" inkscape:label="D" sodipodi:insensitive="true" class="st0">
		<circle id="path833-3-1-7" class="st1" cx="925.4" cy="783.1" r="707.8"/>
	</g>
	
		<g id="g2295" transform="translate(63.27079,60.814571)" inkscape:groupmode="layer" inkscape:label="checking line" sodipodi:insensitive="true" class="st2">
		<rect id="rect2281" x="-22.8" y="-170.8" class="st3" width="849.3" height="849.3"/>
		<rect id="rect2283" x="826.5" y="-170.8" class="st3" width="849.3" height="849.3"/>
		<rect id="rect2285" x="-22.8" y="678.5" class="st3" width="849.3" height="849.3"/>
		<rect id="rect2287" x="826.5" y="678.5" class="st3" width="849.3" height="849.3"/>
		<path id="path2303" class="st4" d="M1675.8,677l-1698.6,3"/>
	</g>
	<rect x="98.5" y="61.3" width="1" height="633.3"/>
	<g>
		<rect x="99" y="61.3" class="st5" width="363.3" height="598.8"/>
		<rect x="462.3" y="61.3" class="st6" width="363.3" height="598.8"/>
		<rect x="825.7" y="61.3" class="st7" width="363.3" height="598.8"/>
		<rect x="1189" y="61.3" class="st8" width="363.3" height="598.8"/>
	</g>
	<g>
		<path d="M190,158.7c0.9-2.5,15.5-44.3,16.3-46.6h10c0.8,2.4,15.3,44.1,16.1,46.6h-8c-0.9-2.6-12.9-39.9-12.9-39.9h-0.7
			c0,0-12.3,37.2-13.1,39.9H190z M199.6,147.7l0.7-5.9H223l0.6,5.9H199.6z"/>
		<path d="M232.3,131.6v-5.4h23.6v5.4C253.7,131.6,232.3,131.6,232.3,131.6z M248.7,159.5c-2.2,0-4.2-0.4-5.7-1.1
			c-1.6-0.7-2.8-1.9-3.6-3.5c-0.8-1.6-1.2-3.6-1.2-6.1c0-1.7,0-31.1,0-33.2l6.9-1.4c0,1.7,0,32.6,0,32.6c0,2.2,0.4,3.9,1.3,5
			c0.9,1.1,2.3,1.7,4.2,1.7c0.8,0,1.6-0.1,2.5-0.4c0.9-0.3,1.7-0.7,2.5-1.3l0.5,5.9c-0.5,0.3-1.1,0.6-1.9,0.9
			c-0.8,0.2-1.6,0.4-2.6,0.6C250.7,159.4,249.7,159.5,248.7,159.5z"/>
		<path d="M259.4,131.6v-5.4H283v5.4C280.8,131.6,259.4,131.6,259.4,131.6z M275.8,159.5c-2.2,0-4.2-0.4-5.7-1.1
			c-1.6-0.7-2.8-1.9-3.6-3.5c-0.8-1.6-1.2-3.6-1.2-6.1c0-1.7,0-31.1,0-33.2l6.9-1.4c0,1.7,0,32.6,0,32.6c0,2.2,0.4,3.9,1.3,5
			c0.9,1.1,2.3,1.7,4.2,1.7c0.8,0,1.6-0.1,2.5-0.4c0.9-0.3,1.7-0.7,2.5-1.3l0.5,5.9c-0.5,0.3-1.1,0.6-1.9,0.9
			c-0.8,0.2-1.6,0.4-2.6,0.6C277.8,159.4,276.8,159.5,275.8,159.5z"/>
		<path d="M297.8,159.4c-1.9,0-3.5-0.4-5-1.1c-1.5-0.8-2.6-1.8-3.4-3.3c-0.8-1.4-1.3-3.2-1.3-5.2c0-1.8,0.3-3.3,0.9-4.6
			c0.6-1.2,1.4-2.2,2.5-3s2.2-1.4,3.4-1.8c1.3-0.4,2.5-0.8,3.8-0.9l9.6-1.5c0.1-1.8-0.2-3.2-0.8-4.2s-1.5-1.6-2.6-2
			s-2.4-0.5-3.8-0.5c-0.7,0-1.5,0.1-2.4,0.2c-0.9,0.1-1.8,0.3-2.7,0.5c-0.9,0.3-1.9,0.6-3,0.9c-1,0.4-2.1,0.8-3.2,1.3l-0.4-6.2
			c0.8-0.3,1.7-0.6,2.7-0.9c1-0.3,2.1-0.6,3.3-0.8c1.2-0.3,2.4-0.4,3.6-0.6s2.5-0.2,3.8-0.2c2.6,0,4.8,0.4,6.6,1.1
			c1.8,0.8,3.2,2,4.2,3.6c1,1.7,1.5,3.8,1.5,6.5c0,1,0,20.1,0,22h-6.3l-0.4-4.3h-0.6c-0.6,0.8-1.4,1.6-2.4,2.4
			c-0.9,0.8-2.1,1.4-3.4,1.9C300.8,159.2,299.4,159.4,297.8,159.4z M300.1,153.8c1,0,2.1-0.2,3.1-0.7c1-0.5,2-1.1,2.8-2
			s1.6-1.9,2.3-3.2v-5.8c-0.3,0.2-0.7,0.4-1.3,0.6c-0.5,0.2-1.3,0.4-2.3,0.6c-1,0.2-2.5,0.5-4.3,0.8c-1.1,0.2-2,0.5-2.7,0.9
			c-0.8,0.5-1.4,1.1-1.8,1.8c-0.4,0.7-0.6,1.6-0.6,2.6c0,1.6,0.5,2.7,1.5,3.4C297.6,153.5,298.8,153.8,300.1,153.8z"/>
		<path d="M339.1,159.4c-3.6,0-6.6-0.7-9.1-2.2s-4.4-3.5-5.7-6c-1.3-2.6-2-5.4-2-8.7c0-3.2,0.6-6.2,1.8-8.7c1.2-2.6,3.1-4.6,5.5-6.1
			c2.4-1.5,5.4-2.2,8.9-2.2c1.3,0,2.5,0.1,3.8,0.3c1.3,0.2,2.4,0.5,3.5,0.8c1.1,0.4,2.1,0.8,2.9,1.3l-0.6,6.2
			c-1.2-0.7-2.4-1.2-3.4-1.6c-1.1-0.4-2-0.6-2.9-0.8c-0.9-0.1-1.7-0.2-2.5-0.2c-3,0-5.4,1-7.2,2.9c-1.8,2-2.7,4.6-2.7,7.9
			c0,2.1,0.4,4,1.2,5.7c0.8,1.7,2.1,3,3.7,4c1.6,1,3.7,1.5,6.1,1.5c0.9,0,1.8-0.1,2.7-0.2c0.9-0.2,1.8-0.4,2.6-0.8s1.7-0.8,2.5-1.3
			l0.5,6.2c-0.7,0.3-1.6,0.7-2.5,1s-2,0.5-3.2,0.7C341.9,159.3,340.6,159.4,339.1,159.4z"/>
		<path d="M356.6,158.7c0-2.4,0-45.4,0-47.9l7-0.8c0,2.6,0,46.4,0,48.6H356.6z M377.9,158.7c-1.3-1.4-12.7-13.9-12.7-13.9h-2.4V140
			h2.6c0,0,10.6-12.3,11.9-13.7h8.4c-1.8,1.9-15.7,17.2-15.7,17.2l-0.3-3.2l6.1,7c1.8,1.9,9,9.7,10.8,11.6H377.9z"/>
	</g>
	<g>
		<path d="M548.9,158.7c0-2.6,0-44,0-46.6c1.9,0,15.2,0,17.2,0c3.6,0,6.8,0.5,9.5,1.6c2.8,1,5.1,2.5,7,4.5c1.9,2,3.4,4.4,4.4,7.3
			c1,2.9,1.5,6.1,1.5,9.8c0,3.3-0.4,6.4-1.3,9.2s-2.3,5.3-4.2,7.5c-1.9,2.1-4.4,3.8-7.5,5c-3.1,1.2-6.9,1.8-11.4,1.8
			C562.2,158.7,550.6,158.7,548.9,158.7z M556.6,152.4h7.5c4,0,7.2-0.8,9.6-2.3c2.4-1.5,4.1-3.6,5.2-6.2c1-2.6,1.6-5.6,1.6-8.9
			c0-2.5-0.3-4.8-0.9-6.9c-0.6-2.1-1.6-3.8-2.8-5.3c-1.3-1.5-2.9-2.6-4.9-3.4c-2-0.8-4.3-1.2-7.1-1.2h-8.1
			C556.6,120.1,556.6,150.8,556.6,152.4z"/>
		<path d="M611.8,159.5c-4,0-7.3-0.7-9.8-2.2c-2.6-1.5-4.5-3.5-5.7-6.1c-1.2-2.6-1.8-5.5-1.8-8.9c0-3.3,0.6-6.2,1.8-8.8
			s2.9-4.5,5.2-6c2.3-1.4,5.1-2.1,8.3-2.1c2.8,0,5.2,0.5,7.3,1.6c2,1.1,3.6,2.6,4.7,4.7s1.6,4.7,1.6,7.8c0,0.8,0,1.6,0,2.2
			c0,0.7-0.1,1.3-0.2,2l-6.1-2.7c0-0.3,0.1-0.6,0.1-1c0-0.3,0-0.6,0-0.9c0-2.7-0.7-4.8-2-6.2c-1.3-1.5-3.1-2.2-5.2-2.2
			c-1.7,0-3.1,0.5-4.4,1.4c-1.2,0.9-2.2,2.2-2.9,3.8s-1,3.4-1,5.5v1c0,2.3,0.4,4.3,1.2,5.9c0.8,1.7,2,2.9,3.7,3.8
			c1.6,0.9,3.7,1.3,6.2,1.3c1,0,2-0.1,3.2-0.2c1.1-0.2,2.3-0.4,3.4-0.8c1.2-0.3,2.2-0.8,3.3-1.3l0.3,6.1c-0.8,0.4-1.8,0.8-2.9,1.1
			c-1.1,0.3-2.3,0.6-3.7,0.8C614.7,159.4,613.3,159.5,611.8,159.5z M597.2,143.7V139l21.6-0.3l4.2,1.7v3.3H597.2z"/>
		<path d="M645.6,159.4c-3.6,0-6.6-0.7-9.1-2.2s-4.4-3.5-5.7-6c-1.3-2.6-2-5.4-2-8.7c0-3.2,0.6-6.2,1.8-8.7c1.2-2.6,3.1-4.6,5.5-6.1
			c2.4-1.5,5.4-2.2,8.9-2.2c1.3,0,2.5,0.1,3.8,0.3c1.3,0.2,2.4,0.5,3.5,0.8c1.1,0.4,2.1,0.8,2.9,1.3l-0.6,6.2
			c-1.2-0.7-2.4-1.2-3.4-1.6c-1.1-0.4-2-0.6-2.9-0.8c-0.9-0.1-1.7-0.2-2.5-0.2c-3,0-5.4,1-7.2,2.9c-1.8,2-2.7,4.6-2.7,7.9
			c0,2.1,0.4,4,1.2,5.7c0.8,1.7,2.1,3,3.7,4c1.6,1,3.7,1.5,6.1,1.5c0.9,0,1.8-0.1,2.7-0.2c0.9-0.2,1.8-0.4,2.6-0.8s1.7-0.8,2.5-1.3
			l0.5,6.2c-0.7,0.3-1.6,0.7-2.5,1s-2,0.5-3.2,0.7C648.4,159.3,647.1,159.4,645.6,159.4z"/>
		<path d="M670.8,159.4c-1.9,0-3.5-0.4-5-1.1c-1.5-0.8-2.6-1.8-3.4-3.3c-0.8-1.4-1.3-3.2-1.3-5.2c0-1.8,0.3-3.3,0.9-4.6
			c0.6-1.2,1.4-2.2,2.5-3s2.2-1.4,3.4-1.8c1.3-0.4,2.5-0.8,3.8-0.9l9.6-1.5c0.1-1.8-0.2-3.2-0.8-4.2s-1.5-1.6-2.6-2
			s-2.4-0.5-3.8-0.5c-0.7,0-1.5,0.1-2.4,0.2c-0.9,0.1-1.8,0.3-2.7,0.5c-0.9,0.3-1.9,0.6-3,0.9c-1,0.4-2.1,0.8-3.2,1.3l-0.4-6.2
			c0.8-0.3,1.7-0.6,2.7-0.9c1-0.3,2.1-0.6,3.3-0.8c1.2-0.3,2.4-0.4,3.6-0.6s2.5-0.2,3.8-0.2c2.6,0,4.8,0.4,6.6,1.1
			c1.8,0.8,3.2,2,4.2,3.6c1,1.7,1.5,3.8,1.5,6.5c0,1,0,20.1,0,22h-6.3l-0.4-4.3h-0.6c-0.6,0.8-1.4,1.6-2.4,2.4
			c-0.9,0.8-2.1,1.4-3.4,1.9C673.8,159.2,672.4,159.4,670.8,159.4z M673.1,153.8c1,0,2.1-0.2,3.1-0.7c1-0.5,2-1.1,2.8-2
			s1.6-1.9,2.3-3.2v-5.8c-0.3,0.2-0.7,0.4-1.3,0.6c-0.5,0.2-1.3,0.4-2.3,0.6c-1,0.2-2.5,0.5-4.3,0.8c-1.1,0.2-2,0.5-2.7,0.9
			c-0.8,0.5-1.4,1.1-1.8,1.8c-0.4,0.7-0.6,1.6-0.6,2.6c0,1.6,0.5,2.7,1.5,3.4C670.6,153.5,671.8,153.8,673.1,153.8z"/>
		<path d="M699.2,171.5c0.9-2.2,4.4-11,5.3-13.2v1.5c-0.8-2.2-11.3-31.3-12.2-33.6l7.5-0.3c0.8,2.7,7.8,25.4,7.8,25.4h0.7
			c0,0,7.6-22.6,8.4-25.1h7.4c-0.7,1.7-16.7,42.7-17.7,45L699.2,171.5z"/>
	</g>
	<g>
		<path d="M916.1,160.3c-1.9,0-3.9-0.2-5.9-0.5c-2-0.3-3.8-0.8-5.6-1.3c-1.7-0.5-3.1-1-4.1-1.6l0.6-7.2c1.5,0.9,3.1,1.6,4.7,2.2
			c1.6,0.6,3.2,1.1,4.9,1.4s3.3,0.5,4.9,0.5c1.8,0,3.4-0.2,4.8-0.7c1.4-0.5,2.5-1.2,3.3-2.2c0.8-1,1.2-2.3,1.2-3.8
			c0-1.5-0.4-2.7-1.3-3.7c-0.9-1-2.2-1.8-3.8-2.6c-1.7-0.7-3.7-1.4-6-2.1c-2.9-0.9-5.4-1.9-7.5-3s-3.6-2.5-4.7-4.1
			c-1.1-1.7-1.6-3.8-1.6-6.4c0-2.5,0.6-4.8,1.7-6.8c1.2-2,2.9-3.5,5.2-4.7c2.3-1.1,5.2-1.7,8.7-1.7c1.4,0,2.8,0.1,4.2,0.3
			c1.4,0.2,2.8,0.5,4.1,0.8c1.3,0.3,2.5,0.7,3.5,1.1c1.1,0.4,2,0.8,2.8,1.3l-0.7,7.1c-1.3-0.9-2.7-1.6-4.2-2.2
			c-1.5-0.6-3-1.1-4.4-1.4c-1.4-0.3-2.8-0.5-4-0.5c-1.6,0-3.1,0.2-4.4,0.7s-2.4,1.1-3.2,2.1c-0.8,0.9-1.2,2.1-1.2,3.5
			c0,1.3,0.3,2.4,1,3.3c0.7,0.9,1.8,1.7,3.3,2.4c1.5,0.7,3.4,1.4,5.8,2.2c3.7,1.2,6.7,2.4,8.8,3.6c2.2,1.2,3.7,2.6,4.6,4.3
			c0.9,1.6,1.4,3.7,1.4,6.1c0,2.6-0.6,5-1.7,7c-1.2,2-3,3.7-5.5,4.8C923.2,159.7,920,160.3,916.1,160.3z"/>
		<path d="M949.5,160.3c-3.4,0-5.9-1-7.5-3c-1.6-2-2.4-4.9-2.4-8.6c0-1.4,0-20.1,0-21.7l7-0.3c0,2.4,0,20.1,0,20.1
			c0,2.3,0.4,4.1,1.2,5.3c0.8,1.2,2.3,1.8,4.4,1.8c1.2,0,2.3-0.3,3.3-0.8c1-0.5,2-1.2,2.8-2.1c0.8-0.9,1.6-1.8,2.3-2.9
			c0,0,0-18.9,0-21.2h7c0,2.4,0,30.1,0,32.5h-6l-0.3-5.6h-0.7c-0.7,1-1.6,2-2.6,3c-1.1,1-2.3,1.8-3.7,2.4
			C952.9,160,951.3,160.3,949.5,160.3z"/>
		<path d="M986.7,160.3c-1.4,0-2.8-0.1-4.2-0.3c-1.4-0.2-2.7-0.5-3.9-0.8c-1.2-0.4-2.3-0.8-3.2-1.2l0.5-6.3c1,0.6,2,1.1,3.2,1.5
			c1.2,0.4,2.4,0.8,3.6,1c1.3,0.2,2.5,0.3,3.8,0.3c1,0,2-0.1,2.9-0.3s1.6-0.6,2.1-1.2c0.5-0.6,0.8-1.5,0.8-2.6
			c0-0.8-0.3-1.4-0.8-1.9c-0.5-0.5-1.3-1-2.5-1.4c-1.1-0.4-2.7-0.9-4.6-1.4c-1.8-0.5-3.4-1.1-4.7-1.8c-1.3-0.7-2.4-1.7-3.1-2.9
			c-0.7-1.2-1.1-2.8-1.1-4.7c0-3.2,1-5.6,3-7.4c2-1.7,4.7-2.6,8.1-2.6c1.4,0,2.8,0.1,4.2,0.3c1.4,0.2,2.6,0.5,3.7,0.9
			c1.1,0.4,2.1,0.7,2.9,1.1l-0.6,6.3c-1-0.6-2.1-1.2-3.3-1.6c-1.2-0.4-2.3-0.7-3.4-0.9c-1.1-0.2-2-0.3-2.7-0.3
			c-0.8,0-1.7,0.1-2.4,0.3c-0.8,0.2-1.4,0.6-1.8,1.2c-0.5,0.6-0.7,1.3-0.7,2.2c0,0.7,0.2,1.4,0.5,1.9s1,1,1.9,1.4
			c0.9,0.4,2.3,0.9,4,1.4c2.2,0.6,4.1,1.3,5.6,2c1.5,0.7,2.7,1.6,3.5,2.7c0.8,1.1,1.2,2.7,1.2,4.7c0,2-0.4,3.8-1.3,5.3
			c-0.9,1.5-2.2,2.8-4.1,3.6C992.2,159.8,989.7,160.3,986.7,160.3z"/>
		<path d="M1003,132.4V127h23.6v5.4C1024.4,132.4,1003,132.4,1003,132.4z M1019.4,160.3c-2.2,0-4.2-0.4-5.7-1.1
			c-1.6-0.7-2.8-1.9-3.6-3.5c-0.8-1.6-1.2-3.6-1.2-6.1c0-1.7,0-31.1,0-33.2l6.9-1.4c0,1.7,0,32.6,0,32.6c0,2.2,0.4,3.9,1.3,5
			c0.9,1.1,2.3,1.7,4.2,1.7c0.8,0,1.6-0.1,2.5-0.4c0.9-0.3,1.7-0.7,2.5-1.3l0.5,5.9c-0.5,0.3-1.1,0.6-1.9,0.9
			c-0.8,0.2-1.6,0.4-2.6,0.6C1021.4,160.2,1020.4,160.3,1019.4,160.3z"/>
		<path d="M1041.4,160.2c-1.9,0-3.5-0.4-5-1.1s-2.6-1.8-3.4-3.3c-0.8-1.4-1.3-3.2-1.3-5.2c0-1.8,0.3-3.3,0.9-4.6
			c0.6-1.2,1.4-2.2,2.5-3s2.2-1.4,3.4-1.8s2.5-0.8,3.8-0.9l9.6-1.5c0.1-1.8-0.2-3.2-0.8-4.2s-1.5-1.6-2.6-2
			c-1.1-0.3-2.4-0.5-3.8-0.5c-0.7,0-1.5,0.1-2.4,0.2c-0.9,0.1-1.8,0.3-2.7,0.5c-0.9,0.3-1.9,0.6-3,0.9c-1,0.4-2.1,0.8-3.2,1.3
			l-0.4-6.2c0.8-0.3,1.7-0.6,2.7-0.9c1-0.3,2.1-0.6,3.3-0.8c1.2-0.3,2.4-0.4,3.6-0.6s2.5-0.2,3.8-0.2c2.6,0,4.8,0.4,6.6,1.1
			c1.8,0.8,3.2,2,4.2,3.6c1,1.7,1.5,3.8,1.5,6.5c0,1,0,20.1,0,22h-6.3l-0.4-4.3h-0.6c-0.6,0.8-1.4,1.6-2.4,2.4
			c-0.9,0.8-2.1,1.4-3.4,1.9S1043,160.2,1041.4,160.2z M1043.7,154.6c1,0,2.1-0.2,3.1-0.7c1-0.5,2-1.1,2.8-2
			c0.9-0.9,1.6-1.9,2.3-3.2V143c-0.3,0.2-0.7,0.4-1.3,0.6c-0.5,0.2-1.3,0.4-2.3,0.6c-1,0.2-2.5,0.5-4.3,0.8c-1.1,0.2-2,0.5-2.7,0.9
			c-0.8,0.5-1.4,1.1-1.8,1.8c-0.4,0.7-0.6,1.6-0.6,2.6c0,1.6,0.5,2.7,1.5,3.4C1041.2,154.3,1042.3,154.6,1043.7,154.6z"/>
		<path d="M1071.6,120.4c-1.4,0-2.5-0.4-3.4-1.1c-0.9-0.7-1.3-1.9-1.3-3.4c0-1.5,0.4-2.6,1.3-3.3c0.9-0.8,2-1.1,3.4-1.1
			c1.5,0,2.6,0.4,3.4,1.2c0.8,0.8,1.3,1.9,1.3,3.3c0,1.6-0.4,2.7-1.3,3.4C1074.3,120,1073.1,120.4,1071.6,120.4z M1068.2,159.5
			c0-2.4,0-30.9,0-32.5l7-0.2c0,1.6,0,30.3,0,32.7H1068.2z"/>
		<path d="M1085.4,159.5c0-2.4,0-30,0-32.5l6-0.4l0.3,5.9h0.7c0.7-1,1.6-2,2.7-3s2.3-1.8,3.8-2.4c1.4-0.6,3.1-0.9,4.9-0.9
			c3.4,0,5.9,1,7.5,2.9c1.6,2,2.4,4.8,2.4,8.6c0,1.4,0,19.4,0,21.7h-7c0-2.4,0-19.7,0-19.7c0-2.4-0.4-4.1-1.2-5.3
			c-0.8-1.2-2.3-1.8-4.4-1.8c-1.3,0-2.4,0.3-3.5,0.8c-1,0.5-2,1.2-2.8,2.1c-0.8,0.9-1.6,1.8-2.3,2.9c0,0,0,18.8,0,21.2H1085.4z"/>
	</g>
	<g>
		<path d="M1263.1,159.5c0-2.6,0-44,0-46.6c1.3,0,14.3,0,16.5,0c3.6,0,6.7,0.4,9.2,1.3c2.5,0.8,4.3,2.2,5.6,4.1
			c1.2,1.9,1.9,4.4,1.9,7.6c0,2.6-0.5,5-1.5,7.1c-1,2.1-2.7,3.9-5,5.1c-2.3,1.3-5.4,2-9.3,2l2.7-3.2c0,0,16.2,21.5,17.1,22.7h-8.9
			c-1.4-1.9-16-21.9-16-21.9l4.6,4h-10.8v-6.2h8.5c2.4,0,4.3-0.3,5.9-0.8c1.6-0.6,2.7-1.5,3.5-2.7c0.8-1.3,1.2-3,1.2-5.1
			c0-1.7-0.3-3.1-0.8-4.1c-0.5-1-1.3-1.8-2.1-2.3c-0.9-0.5-1.8-0.8-2.9-1c-1-0.2-2.1-0.2-3.1-0.2h-14.1l5.3-5.1c0,2.7,0,42.9,0,45.4
			H1263.1z"/>
		<path d="M1319.8,160.3c-4,0-7.3-0.7-9.8-2.2c-2.6-1.5-4.5-3.5-5.7-6.1c-1.2-2.6-1.8-5.5-1.8-8.9c0-3.3,0.6-6.2,1.8-8.8
			s2.9-4.5,5.2-6c2.3-1.4,5.1-2.1,8.3-2.1c2.8,0,5.2,0.5,7.3,1.6c2,1.1,3.6,2.6,4.7,4.7s1.6,4.7,1.6,7.8c0,0.8,0,1.6,0,2.2
			c0,0.7-0.1,1.3-0.2,2l-6.1-2.7c0-0.3,0.1-0.6,0.1-1c0-0.3,0-0.6,0-0.9c0-2.7-0.7-4.8-2-6.2c-1.3-1.5-3.1-2.2-5.2-2.2
			c-1.7,0-3.1,0.5-4.4,1.4c-1.2,0.9-2.2,2.2-2.9,3.8s-1,3.4-1,5.5v1c0,2.3,0.4,4.3,1.2,5.9s2,2.9,3.7,3.8c1.6,0.9,3.7,1.3,6.2,1.3
			c1,0,2-0.1,3.2-0.2c1.1-0.2,2.3-0.4,3.4-0.8c1.2-0.3,2.2-0.8,3.3-1.3l0.3,6.1c-0.8,0.4-1.8,0.8-2.9,1.1c-1.1,0.3-2.3,0.6-3.7,0.8
			C1322.8,160.2,1321.3,160.3,1319.8,160.3z M1305.2,144.5v-4.8l21.6-0.3l4.2,1.7v3.3H1305.2z"/>
		<path d="M1339,159.5c0-2.4,0-45.4,0-47.9l7-0.8c0,2.6,0,46.2,0,48.6H1339z"/>
		<path d="M1371.3,160.3c-4,0-7.3-0.7-9.8-2.2c-2.6-1.5-4.5-3.5-5.7-6.1c-1.2-2.6-1.8-5.5-1.8-8.9c0-3.3,0.6-6.2,1.8-8.8
			c1.2-2.5,2.9-4.5,5.2-6c2.3-1.4,5.1-2.1,8.3-2.1c2.8,0,5.2,0.5,7.3,1.6c2,1.1,3.6,2.6,4.7,4.7s1.6,4.7,1.6,7.8c0,0.8,0,1.6,0,2.2
			c0,0.7-0.1,1.3-0.2,2l-6.1-2.7c0-0.3,0.1-0.6,0.1-1s0-0.6,0-0.9c0-2.7-0.7-4.8-2-6.2c-1.3-1.5-3.1-2.2-5.2-2.2
			c-1.7,0-3.1,0.5-4.4,1.4c-1.2,0.9-2.2,2.2-2.9,3.8c-0.7,1.6-1,3.4-1,5.5v1c0,2.3,0.4,4.3,1.2,5.9c0.8,1.7,2,2.9,3.7,3.8
			c1.6,0.9,3.7,1.3,6.2,1.3c1,0,2-0.1,3.2-0.2c1.1-0.2,2.3-0.4,3.4-0.8c1.2-0.3,2.2-0.8,3.3-1.3l0.3,6.1c-0.8,0.4-1.8,0.8-2.9,1.1
			c-1.1,0.3-2.3,0.6-3.7,0.8C1374.3,160.2,1372.8,160.3,1371.3,160.3z M1356.7,144.5v-4.8l21.6-0.3l4.2,1.7v3.3H1356.7z"/>
		<path d="M1398.2,160.2c-1.9,0-3.5-0.4-5-1.1c-1.5-0.8-2.6-1.8-3.4-3.3c-0.8-1.4-1.3-3.2-1.3-5.2c0-1.8,0.3-3.3,0.9-4.6
			c0.6-1.2,1.4-2.2,2.5-3c1-0.8,2.2-1.4,3.4-1.8c1.3-0.4,2.5-0.8,3.8-0.9l9.6-1.5c0.1-1.8-0.2-3.2-0.8-4.2s-1.5-1.6-2.6-2
			s-2.4-0.5-3.8-0.5c-0.7,0-1.5,0.1-2.4,0.2c-0.9,0.1-1.8,0.3-2.7,0.5c-0.9,0.3-1.9,0.6-3,0.9c-1,0.4-2.1,0.8-3.2,1.3l-0.4-6.2
			c0.8-0.3,1.7-0.6,2.7-0.9c1-0.3,2.1-0.6,3.3-0.8s2.4-0.4,3.6-0.6s2.5-0.2,3.8-0.2c2.6,0,4.8,0.4,6.6,1.1c1.8,0.8,3.2,2,4.2,3.6
			c1,1.7,1.5,3.8,1.5,6.5c0,1,0,20.1,0,22h-6.3l-0.4-4.3h-0.6c-0.6,0.8-1.4,1.6-2.4,2.4c-0.9,0.8-2.1,1.4-3.4,1.9
			C1401.3,159.9,1399.8,160.2,1398.2,160.2z M1400.5,154.6c1,0,2.1-0.2,3.1-0.7c1-0.5,2-1.1,2.8-2s1.6-1.9,2.3-3.2V143
			c-0.3,0.2-0.7,0.4-1.3,0.6c-0.5,0.2-1.3,0.4-2.3,0.6c-1,0.2-2.5,0.5-4.3,0.8c-1.1,0.2-2,0.5-2.7,0.9c-0.8,0.5-1.4,1.1-1.8,1.8
			c-0.4,0.7-0.6,1.6-0.6,2.6c0,1.6,0.5,2.7,1.5,3.4S1399.2,154.6,1400.5,154.6z"/>
		<path d="M1434.6,160.3c-1.4,0-2.8-0.1-4.2-0.3c-1.4-0.2-2.7-0.5-3.9-0.8c-1.2-0.4-2.3-0.8-3.2-1.2l0.5-6.3c1,0.6,2,1.1,3.2,1.5
			c1.2,0.4,2.4,0.8,3.6,1c1.3,0.2,2.5,0.3,3.8,0.3c1,0,2-0.1,2.9-0.3s1.6-0.6,2.1-1.2s0.8-1.5,0.8-2.6c0-0.8-0.3-1.4-0.8-1.9
			c-0.5-0.5-1.3-1-2.5-1.4c-1.1-0.4-2.7-0.9-4.6-1.4c-1.8-0.5-3.4-1.1-4.7-1.8s-2.4-1.7-3.1-2.9c-0.7-1.2-1.1-2.8-1.1-4.7
			c0-3.2,1-5.6,3-7.4c2-1.7,4.7-2.6,8.1-2.6c1.4,0,2.8,0.1,4.2,0.3c1.4,0.2,2.6,0.5,3.7,0.9c1.1,0.4,2.1,0.7,2.9,1.1l-0.6,6.3
			c-1-0.6-2.1-1.2-3.3-1.6c-1.2-0.4-2.3-0.7-3.4-0.9c-1.1-0.2-2-0.3-2.7-0.3c-0.8,0-1.7,0.1-2.4,0.3c-0.8,0.2-1.4,0.6-1.8,1.2
			s-0.7,1.3-0.7,2.2c0,0.7,0.2,1.4,0.5,1.9c0.3,0.5,1,1,1.9,1.4c0.9,0.4,2.3,0.9,4,1.4c2.2,0.6,4.1,1.3,5.6,2
			c1.5,0.7,2.7,1.6,3.5,2.7s1.2,2.7,1.2,4.7c0,2-0.4,3.8-1.3,5.3c-0.9,1.5-2.2,2.8-4.1,3.6C1440,159.8,1437.6,160.3,1434.6,160.3z"
			/>
		<path d="M1470.2,160.3c-4,0-7.3-0.7-9.8-2.2c-2.6-1.5-4.5-3.5-5.7-6.1c-1.2-2.6-1.8-5.5-1.8-8.9c0-3.3,0.6-6.2,1.8-8.8
			s2.9-4.5,5.2-6c2.3-1.4,5.1-2.1,8.3-2.1c2.8,0,5.2,0.5,7.3,1.6c2,1.1,3.6,2.6,4.7,4.7s1.6,4.7,1.6,7.8c0,0.8,0,1.6,0,2.2
			c0,0.7-0.1,1.3-0.2,2l-6.1-2.7c0-0.3,0.1-0.6,0.1-1s0-0.6,0-0.9c0-2.7-0.7-4.8-2-6.2c-1.3-1.5-3.1-2.2-5.2-2.2
			c-1.7,0-3.1,0.5-4.4,1.4c-1.2,0.9-2.2,2.2-2.9,3.8s-1,3.4-1,5.5v1c0,2.3,0.4,4.3,1.2,5.9c0.8,1.7,2,2.9,3.7,3.8
			c1.6,0.9,3.7,1.3,6.2,1.3c1,0,2-0.1,3.2-0.2c1.1-0.2,2.3-0.4,3.4-0.8c1.2-0.3,2.2-0.8,3.3-1.3l0.3,6.1c-0.8,0.4-1.8,0.8-2.9,1.1
			c-1.1,0.3-2.3,0.6-3.7,0.8C1473.2,160.2,1471.7,160.3,1470.2,160.3z M1455.6,144.5v-4.8l21.6-0.3l4.2,1.7v3.3H1455.6z"/>
	</g>
	<g>
		<path d="M82.5,418.2c-1.8,0.7-34.4,12.8-35.9,13.3v-3.9c2.6-1,32.1-11.6,32.1-11.6v-0.4c0,0-29.4-10.6-32.1-11.6v-3.8
			c1.4,0.5,34,12.5,35.9,13.2V418.2z"/>
		<path d="M83,386.7c0,2-0.4,3.8-1.1,5.3c-0.7,1.5-1.7,2.8-2.9,3.9c-1.2,1.1-2.6,1.9-4.2,2.4c-1.6,0.5-3.2,0.8-5,0.8
			c-2.5,0-4.7-0.5-6.6-1.5c-1.9-1-3.5-2.4-4.6-4.3c-1.1-1.9-1.7-4-1.7-6.5c0-1.9,0.3-3.6,1-5.2c0.6-1.5,1.6-2.8,2.7-3.9
			s2.5-1.9,4.1-2.4c1.6-0.5,3.3-0.8,5.1-0.8c2.5,0,4.7,0.5,6.7,1.5c2,1,3.6,2.4,4.7,4.2S83,384.2,83,386.7z M80.1,386.7
			c0-2-0.5-3.6-1.5-5c-1-1.3-2.2-2.3-3.8-3c-1.6-0.7-3.2-1-5-1c-2,0-3.7,0.4-5.2,1.1c-1.5,0.7-2.7,1.7-3.5,3.1
			c-0.8,1.3-1.2,2.9-1.2,4.7c0,2,0.4,3.6,1.3,5c0.9,1.3,2.1,2.4,3.6,3.1c1.5,0.7,3.2,1,5,1c1.8,0,3.4-0.3,5-1c1.6-0.7,2.8-1.7,3.8-3
			C79.6,390.4,80.1,388.7,80.1,386.7z"/>
		<path d="M82.5,367.1c-1.9,0-34.9,0-36.8,0l-0.5-3.2c2,0,35.4,0,37.3,0V367.1z"/>
		<path d="M83,347.6c0,2.7-0.8,4.6-2.3,5.8c-1.5,1.2-3.8,1.8-6.6,1.8c-1.1,0-15.3,0-16.5,0l-0.1-3.2c1.8,0,16,0,16,0
			c2.1,0,3.8-0.4,4.9-1.2c1.1-0.8,1.6-2.2,1.6-4.2c0-1.2-0.2-2.2-0.7-3.2c-0.5-1-1.2-1.9-2-2.7c-0.8-0.8-1.7-1.5-2.8-2.2
			c0,0-15,0-16.9,0v-3.2c1.9,0,23.1,0,24.9,0v2.9l-4.5,0.1v0.4c0.7,0.5,1.5,1.2,2.3,2c0.8,0.8,1.4,1.8,2,3
			C82.7,344.9,83,346.2,83,347.6z"/>
		<path d="M82.5,294.6c-1.9,0-15.8,0-15.8,0c-2.1,0-3.8,0.4-4.9,1.1c-1.1,0.7-1.6,2-1.6,4c0,1.2,0.2,2.2,0.7,3.2
			c0.5,0.9,1.2,1.8,2,2.6c0.8,0.8,1.7,1.5,2.8,2.1l-3.5,0.5v-0.4c-0.8-0.6-1.6-1.3-2.3-2.1c-0.8-0.8-1.4-1.8-2-2.9
			c-0.5-1.1-0.8-2.4-0.8-3.9c0-2.6,0.8-4.5,2.4-5.6c1.6-1.1,3.8-1.7,6.6-1.7c1.1,0,14.7,0,16.5,0V294.6z M82.5,326.6
			c-1.9,0-23,0-24.9,0l-0.2-2.9l4.7-0.1v-0.4c-0.7-0.5-1.5-1.2-2.2-2s-1.4-1.8-1.9-2.9S57,316,57,314.6c0-2.1,0.5-3.7,1.5-4.8
			c1-1.1,2.5-1.8,4.4-2.1l0.2-0.2c0.4-0.1,0.9-0.1,1.3-0.2c0.5,0,1-0.1,1.5-0.1c1.1,0,14.7,0,16.5,0v3.2c-1.9,0-15.8,0-15.8,0
			c-2.1,0-3.8,0.4-4.9,1.1c-1.1,0.7-1.6,2-1.6,4c0,1.2,0.3,2.2,0.8,3.2c0.5,0.9,1.2,1.8,2,2.6c0.8,0.8,1.7,1.5,2.7,2.1
			c0,0,15,0,16.9,0V326.6z"/>
		<path d="M83,271.8c0,2.9-0.6,5.3-1.7,7.2c-1.1,1.9-2.7,3.3-4.7,4.2c-2,0.9-4.2,1.4-6.8,1.4c-2.5,0-4.7-0.5-6.7-1.4
			c-1.9-0.9-3.5-2.2-4.6-3.9c-1.1-1.7-1.6-3.7-1.6-6c0-2,0.4-3.8,1.2-5.3c0.8-1.5,2-2.7,3.6-3.5c1.6-0.8,3.5-1.2,5.8-1.2
			c0.6,0,1.2,0,1.6,0c0.5,0,1,0.1,1.5,0.2l-1.7,2.9c-0.3,0-0.5-0.1-0.8-0.1s-0.5,0-0.7,0c-2.6,0-4.6,0.6-5.9,1.9
			c-1.3,1.3-1.9,3-1.9,5c0,1.7,0.4,3.2,1.3,4.4c0.8,1.2,2,2.1,3.5,2.8c1.5,0.6,3.2,1,5.1,1h0.4c2.1,0,3.9-0.4,5.4-1.1
			c1.5-0.7,2.7-1.8,3.5-3.2c0.8-1.4,1.2-3.3,1.2-5.5c0-0.8-0.1-1.7-0.2-2.5c-0.1-0.9-0.3-1.7-0.6-2.6c-0.3-0.9-0.6-1.7-1.1-2.5
			l3-0.2c0.4,0.6,0.7,1.4,0.9,2.2c0.3,0.8,0.5,1.8,0.6,2.7C82.9,269.8,83,270.8,83,271.8z M70.7,283.3h-2.5v-17.7l0.6-2.1h1.9V283.3
			z"/>
	</g>
	<g>
		<path d="M787.6,712.6c0-2,0-33.4,0-35.4l1.4,2.7c0,0-12.7,0-14.1,0v-3.2h28.9v3.2c-1.4,0-14.1,0-14.1,0l1.5-2.7c0,2,0,33.4,0,35.4
			H787.6z"/>
		<path d="M811.6,681.4c-0.8,0-1.4-0.2-1.9-0.7s-0.7-1.1-0.7-2.1c0-0.9,0.2-1.6,0.7-2.1c0.5-0.5,1.1-0.7,1.9-0.7s1.4,0.2,1.9,0.7
			c0.5,0.5,0.7,1.2,0.7,2c0,0.9-0.2,1.6-0.7,2.1S812.5,681.4,811.6,681.4z M810.1,712.6c0-1.9,0-23.7,0-24.9l3.2-0.1
			c0,1.2,0,23.2,0,25H810.1z"/>
		<path d="M822.7,712.6c0-1.9,0-23,0-24.9l2.9-0.2l0.1,4.7h0.4c0.5-0.7,1.2-1.5,2-2.2s1.8-1.4,2.9-1.9s2.4-0.8,3.8-0.8
			c2.1,0,3.7,0.5,4.8,1.5c1.1,1,1.8,2.5,2.1,4.4l0.2,0.2c0.1,0.4,0.1,0.9,0.2,1.3c0,0.5,0.1,1,0.1,1.5c0,1.1,0,14.7,0,16.5h-3.2
			c0-1.9,0-15.8,0-15.8c0-2.1-0.4-3.8-1.1-4.9c-0.7-1.1-2-1.6-4-1.6c-1.2,0-2.2,0.3-3.2,0.8c-0.9,0.5-1.8,1.2-2.6,2
			c-0.8,0.8-1.5,1.7-2.1,2.7c0,0,0,15,0,16.9H822.7z M854.7,712.6c0-1.9,0-15.8,0-15.8c0-2.1-0.4-3.8-1.1-4.9c-0.7-1.1-2-1.6-4-1.6
			c-1.2,0-2.2,0.2-3.2,0.7c-0.9,0.5-1.8,1.2-2.6,2c-0.8,0.8-1.5,1.7-2.1,2.8l-0.5-3.5h0.4c0.6-0.8,1.3-1.6,2.1-2.3
			c0.8-0.8,1.8-1.4,2.9-2c1.1-0.5,2.4-0.8,3.9-0.8c2.6,0,4.5,0.8,5.6,2.4c1.1,1.6,1.7,3.8,1.7,6.6c0,1.1,0,14.7,0,16.5H854.7z"/>
		<path d="M877.5,713.1c-2.9,0-5.3-0.6-7.2-1.7c-1.9-1.1-3.3-2.7-4.2-4.7c-0.9-2-1.4-4.2-1.4-6.8c0-2.5,0.5-4.7,1.4-6.7
			c0.9-1.9,2.2-3.5,3.9-4.6c1.7-1.1,3.7-1.6,6-1.6c2,0,3.8,0.4,5.3,1.2c1.5,0.8,2.7,2,3.5,3.6c0.8,1.6,1.2,3.5,1.2,5.8
			c0,0.6,0,1.2,0,1.6c0,0.5-0.1,1-0.2,1.5l-2.9-1.7c0-0.3,0.1-0.5,0.1-0.8s0-0.5,0-0.7c0-2.6-0.6-4.6-1.9-5.9c-1.3-1.3-3-1.9-5-1.9
			c-1.7,0-3.2,0.4-4.4,1.3c-1.2,0.8-2.1,2-2.8,3.5c-0.6,1.5-1,3.2-1,5.1v0.4c0,2.1,0.4,3.9,1.1,5.4c0.7,1.5,1.8,2.7,3.2,3.5
			c1.4,0.8,3.3,1.2,5.5,1.2c0.8,0,1.7-0.1,2.5-0.2c0.9-0.1,1.7-0.3,2.6-0.6c0.9-0.3,1.7-0.6,2.5-1.1l0.2,3c-0.6,0.4-1.4,0.7-2.2,0.9
			c-0.8,0.3-1.8,0.5-2.7,0.6C879.6,713,878.5,713.1,877.5,713.1z M866,700.8v-2.5h17.7l2.1,0.6v1.9H866z"/>
	</g>
	<path class="st9" d="M1552.3,665.8c-72.6,0-137.1-10.6-191.7-31.6c-43.9-16.8-81.6-40.4-112-69.9c-52-50.5-64.6-100.5-65.1-102.6
		c-0.7-3,1.1-6.1,4.2-6.8c3-0.7,6.1,1.1,6.8,4.2c0.1,0.5,12.5,49.4,62.5,97.6c29.3,28.3,65.7,50.9,108.2,67.1
		c53.2,20.3,116.2,30.6,187.2,30.6c3.1,0,5.7,2.5,5.7,5.7S1555.5,665.8,1552.3,665.8z"/>
	<path class="st10" d="M1189,466.1H825.7c-3.1,0-5.7-2.5-5.7-5.7s2.5-5.7,5.7-5.7H1189c3.1,0,5.7,2.5,5.7,5.7
		S1192.1,466.1,1189,466.1z"/>
	<path class="st11" d="M825.7,466.1c-66.7,0-124.4-7.4-171.8-21.9c-41.1-12.6-75.7-31.1-102.8-54.8c-49.9-43.8-67.1-98.6-79.7-138.7
		c-4.9-15.5-9-28.8-14.2-39.1c-1.4-2.8-0.3-6.2,2.5-7.6s6.2-0.3,7.6,2.5c5.5,11.1,9.8,24.8,14.8,40.8
		c12.8,40.9,28.8,91.9,76.3,133.6c25.9,22.7,59.1,40.4,98.6,52.5c46.2,14.2,102.9,21.4,168.4,21.4c3.1,0,5.7,2.5,5.7,5.7
		S828.8,466.1,825.7,466.1z"/>
	<path class="st12" d="M99,665.8c-1.1,0-2.2-0.3-3.2-1c-2.6-1.8-3.2-5.3-1.4-7.9c0.8-1.1,79.2-114.1,162.8-225.7
		c153-204.2,190.4-227.8,205.2-227.8c3.1,0,5.7,2.5,5.7,5.7s-2.5,5.7-5.7,5.7c-4.4,0-20.5,6.7-73.8,68.5
		c-32.2,37.3-73.3,89.4-122.3,154.8c-83.5,111.4-161.8,224.2-162.6,225.4C102.6,665,100.8,665.8,99,665.8z"/>
	<rect x="57.4" y="659.7" width="1494.9" height="1"/>
	<g class="st13">
		<path d="M147.6,560.3c5.1-15.6,90.1-275,94.9-289.7h86.1c4.9,15.2,89.2,274.2,94.2,289.7h-69.1c-4.3-15.4-66.4-233-66.4-233h-4.9
			c0,0-63.4,217.7-67.8,233H147.6z M217.5,499.8l7.1-50H354l5.7,50H217.5z"/>
		<path d="M529.4,560.3c0-15.6,0-273.8,0-289.7c11.4,0,101.5,0,115.2,0c22.1,0,41.7,3.2,58.9,9.5c17.2,6.4,31.7,15.7,43.6,28
			c11.8,12.3,20.9,27.4,27.1,45.2c6.2,17.8,9.3,38.2,9.3,61c0,20.4-2.7,39.5-8.2,57.2s-14.2,33.1-26.2,46.4
			c-12,13.3-27.8,23.6-47.4,31.1c-19.6,7.4-43.6,11.2-71.9,11.2C616.8,560.3,539.7,560.3,529.4,560.3z M596.3,506.9h33.3
			c20.9,0,37.4-4.1,49.7-12.2c12.3-8.1,21.1-19.2,26.5-33.3c5.4-14.1,8.1-30,8.1-47.7c0-13.4-1.6-25.6-4.8-36.6
			c-3.2-11-8.1-20.4-14.6-28.3c-6.6-7.9-14.9-14-25.1-18.3s-22.3-6.4-36.4-6.4h-36.8C596.3,333.2,596.3,498.2,596.3,506.9z"/>
		<path d="M1012.7,565.6c-11.9,0-24.2-1-36.9-3c-12.7-2-24.5-4.6-35.5-7.7c-11-3.1-20-6.2-26.9-9.3l4.7-58.9
			c9.5,5.3,19.4,9.8,29.7,13.5c10.3,3.7,20.5,6.6,30.7,8.6s20,3,29.5,3c9.2,0,17.3-1.1,24.2-3.4s12.3-5.7,16.1-10.5
			c3.9-4.7,5.8-10.8,5.8-18.3c0-7.6-2.5-13.8-7.4-18.8c-4.9-4.9-12.1-9.3-21.3-13c-9.3-3.7-20.3-7.4-33-11.1
			c-17.5-5.1-32.5-11.1-45-18c-12.5-6.8-22.1-15.6-28.7-26.4c-6.6-10.8-10-24.6-10-41.5c0-17.1,3.7-32,11.2-44.9
			c7.4-12.9,18.7-23,33.8-30.3c15.1-7.3,34.2-11,57.2-11c8.9,0,18,0.6,27.1,1.7c9.1,1.2,18,2.7,26.5,4.6c8.5,1.9,16.5,4.1,23.9,6.5
			c7.4,2.4,13.8,5,19.2,7.7l-5.1,58.9c-8.7-5.4-17.6-10-26.9-13.6c-9.3-3.7-18.4-6.5-27.4-8.4c-9-2-17.2-2.9-24.5-2.9
			c-8.3,0-15.7,1.2-22.3,3.5c-6.6,2.3-12,5.7-15.9,10.1c-4,4.4-6,10-6,16.8c0,6.6,1.9,12.2,5.6,16.8c3.7,4.5,9.5,8.5,17.3,12
			c7.8,3.5,17.8,7,30.2,10.7c23.2,6.9,41.4,14.1,54.8,21.6s22.9,16.6,28.5,27.1c5.6,10.6,8.4,23.8,8.4,39.6
			c0,17.9-3.9,33.4-11.6,46.6s-19.8,23.5-36.2,30.8C1059.9,561.9,1038.7,565.6,1012.7,565.6z"/>
		<path d="M1260.1,560.3c0-15.7,0-273.8,0-289.7c8.7,0,97.2,0,110.9,0c23.7,0,43.7,2.6,60,7.8c16.3,5.2,28.7,13.9,37.2,26
			c8.5,12.1,12.7,28.7,12.7,49.9c0,16.7-3.3,31.6-9.9,44.9c-6.6,13.3-17.1,23.8-31.6,31.5c-14.5,7.7-33.4,11.6-56.9,11.8l25.8-24.8
			c0,0,91.6,135.1,96.5,142.6h-75.8c-7.3-11.4-88-137.1-88-137.1l40,30.3h-67.6v-47.7h48.5c10.7,0,19.7-1.3,27.1-4
			c7.4-2.6,13-7.1,17-13.5c3.9-6.4,5.9-15,5.9-26c0-8.4-1.3-15.1-3.8-20.1c-2.5-5-5.8-8.9-10-11.8c-4.1-2.8-8.7-4.8-13.7-5.9
			c-5-1.1-10.2-1.6-15.4-1.6h-91l47.5-41.6c0,16.4,0,263.4,0,279.1H1260.1z"/>
	</g>
</g>
<g id="Layer_2">
</g>
</svg>
