<svg viewBox="0 0 1104.47 1104.5" xmlns="http://www.w3.org/2000/svg"><g transform="translate(-47.08 -49.59)"><path d="m1077.53 325.71a553.17 553.17 0 0 1 55.39 133.29l-178.16 48.09a360 360 0 0 0 -95.66-165.69l130.69-130.27a552.27 552.27 0 0 1 87.74 114.58z" fill="#fff100"/><path d="m121.06 877.92a552 552 0 0 1 -55.35-133.27l178.15-48a360.08 360.08 0 0 0 95.66 165.69l-130.69 130.21a552.53 552.53 0 0 1 -87.77-114.63z" fill="#2e3191"/><path d="m323.19 123.58a552 552 0 0 1 133.27-55.35l48.05 178.15a359.78 359.78 0 0 0 -165.63 95.62l-130.26-130.68a551.86 551.86 0 0 1 114.57-87.74z" fill="#ec145a"/><path d="m875.43 1080.1a552.52 552.52 0 0 1 -133.26 55.35l-48.06-178.15a359.78 359.78 0 0 0 165.63-95.63l130.26 130.7a552.23 552.23 0 0 1 -114.57 87.73z" fill="#009b8f"/><path d="m875.41 123.57a553.1 553.1 0 0 1 114.59 87.74l-130.28 130.69a359.65 359.65 0 0 0 -165.64-95.63l48.06-178.15a553.16 553.16 0 0 1 133.27 55.35z" fill="#f6921e"/><path d="m323.22 1080.1a552.77 552.77 0 0 1 -114.57-87.73l130.26-130.7a359.88 359.88 0 0 0 165.64 95.63l-48.06 178.16a553 553 0 0 1 -133.27-55.36z" fill="#0071bb"/><path d="m121.06 325.7a553.05 553.05 0 0 1 87.73-114.56l130.71 130.25a359.88 359.88 0 0 0 -95.63 165.61l-178.17-48a553 553 0 0 1 55.36-133.3z" fill="#eb008b"/><path d="m1077.57 878a552.9 552.9 0 0 1 -87.74 114.57l-130.71-130.28a359.78 359.78 0 0 0 95.64-165.64l178.16 48.06a552.92 552.92 0 0 1 -55.35 133.29z" fill="#00a551"/><path d="m1151.55 601.86a553.13 553.13 0 0 1 -18.7 143.1l-178.32-47.46a359.84 359.84 0 0 0 0-191.26l178.32-47.46a553 553 0 0 1 18.7 143.08z" fill="#8bc53f"/><path d="m47.08 601.81a552.57 552.57 0 0 1 18.7-143.09l178.32 47.47a359.57 359.57 0 0 0 0 191.26l-178.33 47.45a553.05 553.05 0 0 1 -18.69-143.09z" fill="#90278e"/><path d="m599.3 49.59a552.92 552.92 0 0 1 143.08 18.7l-47.45 178.32a359.87 359.87 0 0 0 -191.27 0l-47.45-178.32a553 553 0 0 1 143.09-18.7z" fill="#ec1c24"/><path d="m599.33 1154.08a552.56 552.56 0 0 1 -143.09-18.69l47.46-178.32a359.84 359.84 0 0 0 191.26 0l47.45 178.32a552.92 552.92 0 0 1 -143.08 18.69z" fill="#00adee"/><path d="m922 415.48a372.54 372.54 0 0 1 37.38 90l-120.19 32.43a242.92 242.92 0 0 0 -64.57-111.85l88.21-87.91a372.7 372.7 0 0 1 59.17 77.33z" fill="#d2bc2a"/><path d="m276.56 788.15a372.57 372.57 0 0 1 -37.36-89.95l120.23-32.43a243.12 243.12 0 0 0 64.57 111.85l-88.2 87.89a372.49 372.49 0 0 1 -59.24-77.36z" fill="#32327f"/><path d="m413 279.07a372.63 372.63 0 0 1 89.94-37.35l32.39 120.28a242.62 242.62 0 0 0 -111.78 64.54l-87.91-88.2a372.41 372.41 0 0 1 77.36-59.27z" fill="#c72254"/><path d="m785.66 924.61a373.16 373.16 0 0 1 -89.93 37.39l-32.44-120.27a242.72 242.72 0 0 0 111.78-64.53l87.93 88.2a373 373 0 0 1 -77.34 59.21z" fill="#008579"/><path d="m785.63 279.06a372.76 372.76 0 0 1 77.37 59.22l-88 88.21a242.76 242.76 0 0 0 -111.74-64.49l32.43-120.24a373 373 0 0 1 89.94 37.3z" fill="#cd7b2d"/><path d="m413 924.61a374.16 374.16 0 0 1 -77.32-59.2l87.92-88.21a242.62 242.62 0 0 0 111.77 64.53l-32.43 120.27a372.86 372.86 0 0 1 -89.94-37.39z" fill="#00669a"/><path d="m276.55 415.48a373.06 373.06 0 0 1 59.21-77.32l88.24 87.9a243 243 0 0 0 -64.54 111.78l-120.27-32.43a372.83 372.83 0 0 1 37.36-89.93z" fill="#c71a78"/><path d="m922.07 788.2a373.32 373.32 0 0 1 -59.21 77.32l-88.21-87.91a242.62 242.62 0 0 0 64.55-111.78l120.23 32.44a373.16 373.16 0 0 1 -37.36 89.93z" fill="#008f4c"/><path d="m972 601.87a372.87 372.87 0 0 1 -12.62 96.57l-120.38-32.04a242.86 242.86 0 0 0 0-129.06l120.34-32a372.67 372.67 0 0 1 12.66 96.53z" fill="#79a242"/><path d="m226.62 601.8a373.22 373.22 0 0 1 12.63-96.56l120.33 32a242.76 242.76 0 0 0 0 129.07l-120.35 32a373.8 373.8 0 0 1 -12.61-96.51z" fill="#822b7c"/><path d="m599.3 229.14a373.08 373.08 0 0 1 96.55 12.61l-32 120.35a242.93 242.93 0 0 0 -129.08 0l-32-120.34a373.24 373.24 0 0 1 96.53-12.62z" fill="#c8252c"/><path d="m599.32 974.53a373.64 373.64 0 0 1 -96.56-12.6l32-120.35a242.67 242.67 0 0 0 129.08 0l32 120.34a372.75 372.75 0 0 1 -96.57 12.61z" fill="#0093ba"/><path d="m818.26 475.39a253.37 253.37 0 0 1 25.37 61.07l-81.59 22a164.9 164.9 0 0 0 -43.79-75.85l59.84-59.64a253.09 253.09 0 0 1 40.17 52.42z" fill="#a79038"/><path d="m380.33 728.24a252.16 252.16 0 0 1 -25.33-61l81.55-22a165 165 0 0 0 43.8 75.86l-59.81 59.67a253.07 253.07 0 0 1 -40.21-52.53z" fill="#33346e"/><path d="m472.87 382.85a252.76 252.76 0 0 1 61-25.34l22 81.57a164.57 164.57 0 0 0 -75.84 43.79l-59.61-59.87a252.7 252.7 0 0 1 52.45-40.15z" fill="#a52b4d"/><path d="m725.75 820.84a253.33 253.33 0 0 1 -61 25.34l-22-81.57a164.94 164.94 0 0 0 75.84-43.79l59.64 59.84a252.94 252.94 0 0 1 -52.48 40.18z" fill="#007163"/><path d="m725.72 382.84a253.43 253.43 0 0 1 52.45 40.16l-59.64 59.85a164.38 164.38 0 0 0 -75.83-43.78l22-81.58a253.16 253.16 0 0 1 61.02 25.35z" fill="#a66535"/><path d="m472.91 820.84a253.88 253.88 0 0 1 -52.46-40.18l59.63-59.86a164.94 164.94 0 0 0 75.85 43.8l-22 81.58a253.56 253.56 0 0 1 -61.02-25.34z" fill="#005a7e"/><path d="m380.33 475.39a253.17 253.17 0 0 1 40.17-52.45l59.84 59.63a164.9 164.9 0 0 0 -43.79 75.85l-81.55-22.02a253 253 0 0 1 25.34-61z" fill="#a42868"/><path d="m818.3 728.28a253.66 253.66 0 0 1 -40.17 52.46l-59.85-59.63a164.77 164.77 0 0 0 43.79-75.85l81.57 22a254 254 0 0 1 -25.34 61z" fill="#007a48"/><path d="m852.17 601.87a253.3 253.3 0 0 1 -8.56 65.52l-81.61-21.74a164.69 164.69 0 0 0 0-87.59l81.66-21.7a253.11 253.11 0 0 1 8.57 65.51z" fill="#678342"/><path d="m346.46 601.81a253.43 253.43 0 0 1 8.54-65.53l81.67 21.72a164.75 164.75 0 0 0 0 87.57l-81.67 21.75a253.22 253.22 0 0 1 -8.54-65.51z" fill="#722f6b"/><path d="m599.3 349a253.09 253.09 0 0 1 65.5 8.56l-21.72 81.65a164.75 164.75 0 0 0 -87.57 0l-21.72-81.64a253.54 253.54 0 0 1 65.51-8.57z" fill="#a62c32"/><path d="m599.33 854.7a253.6 253.6 0 0 1 -65.51-8.56l21.72-81.64a164.34 164.34 0 0 0 87.57 0l21.73 81.64a252.73 252.73 0 0 1 -65.51 8.56z" fill="#007c90"/><path d="m746 517.09a169.62 169.62 0 0 1 17 40.91l-54.67 14.73a110.5 110.5 0 0 0 -29.33-50.83l40.11-40a169.28 169.28 0 0 1 26.89 35.19z" fill="#806e3c"/><path d="m452.55 686.54a169.41 169.41 0 0 1 -17-40.89l54.65-14.75a110.3 110.3 0 0 0 29.35 50.83l-40.09 40a170 170 0 0 1 -26.91-35.19z" fill="#35355c"/><path d="m514.57 455.07a169.42 169.42 0 0 1 40.91-17l14.73 54.67a110.07 110.07 0 0 0 -50.82 29.34l-40-40.1a169.36 169.36 0 0 1 35.18-26.91z" fill="#843046"/><path d="m684.05 748.62a169.15 169.15 0 0 1 -40.9 17l-14.74-54.66a110.3 110.3 0 0 0 50.82-29.34l40 40.09a169.73 169.73 0 0 1 -35.18 26.91z" fill="#005d4f"/><path d="m684 455.06a170 170 0 0 1 35.18 26.94l-40 40.1a110.07 110.07 0 0 0 -50.82-29.34l14.76-54.69a170 170 0 0 1 40.88 16.99z" fill="#835339"/><path d="m514.61 748.62a170.17 170.17 0 0 1 -35.18-27l40-40.13a110.71 110.71 0 0 0 50.85 29.39l-14.78 54.73a170.69 170.69 0 0 1 -40.89-16.99z" fill="#214f65"/><path d="m452.56 517.09a169 169 0 0 1 26.91-35.16l40.1 40a110.73 110.73 0 0 0 -29.34 50.84l-54.68-14.77a169.49 169.49 0 0 1 17-40.88z" fill="#832f59"/><path d="m746.08 686.59a170.07 170.07 0 0 1 -26.92 35.16l-40.11-40a110.26 110.26 0 0 0 29.34-50.75l54.68 14.75a170.69 170.69 0 0 1 -17 40.89z" fill="#006543"/><path d="m768.78 601.87a170.34 170.34 0 0 1 -5.73 43.9l-54.74-14.56a111.56 111.56 0 0 0 4-29.36 112.84 112.84 0 0 0 -4-29.37l54.69-14.54a170.2 170.2 0 0 1 5.76 43.93z" fill="#556940"/><path d="m429.85 601.8a169.77 169.77 0 0 1 5.73-43.89l54.72 14.56a110.57 110.57 0 0 0 0 58.69l-54.72 14.57a169.77 169.77 0 0 1 -5.73-43.93z" fill="#60335b"/><path d="m599.3 432.37a169.53 169.53 0 0 1 43.9 5.72l-14.56 54.73a110.57 110.57 0 0 0 -58.69 0l-14.56-54.72a169.07 169.07 0 0 1 43.91-5.73z" fill="#843135"/><path d="m599.33 771.31a169.5 169.5 0 0 1 -43.91-5.73l14.58-54.72a110.31 110.31 0 0 0 58.69 0l14.57 54.72a169.61 169.61 0 0 1 -43.91 5.72z" fill="#00656e"/><path d="m642.7 677a86.78 86.78 0 1 0 -118.52-31.83 86.81 86.81 0 0 0 118.52 31.83z" fill="#363639"/><path d="m583.07 541a63.42 63.42 0 0 1 47.73 6.27 62.87 62.87 0 0 1 29.33 70.82 63 63 0 0 1 -6.25 15.28 63.72 63.72 0 0 1 -10 13 63 63 0 1 1 -60.81-105.37z" fill="none"/><path d="m690.59 577.29a.25.25 0 0 1 0 .07s0 0 0 0l-30.52 8.12s0 0 0 .07a61.33 61.33 0 0 0 -16.29-28.21s0 0 .05 0l22.32-22.34s0 0 0 .06l13.2-13.24a114.23 114.23 0 0 1 29.32 50.78z" fill="#5c513c"/><path d="m666.18 535s0 0 0-.06l-22.29 22.37s0 0-.05 0a61.57 61.57 0 0 0 -28.25-16.31.12.12 0 0 0 .08 0l8.11-30.52 4.82-18.06a113.89 113.89 0 0 1 50.72 29.29z" fill="#5f433a"/><path d="m532.45 668.64 22.28-22.36h.06a61.81 61.81 0 0 0 28.21 16.34l-8.09 30.57-4.91 18.04a113 113 0 0 1 -27.27-11.35 114.54 114.54 0 0 1 -23.51-18l13.2-13.24z" fill="#2f424d"/><path d="m532.5 534.93-.06.06 22.36 22.28-.09.11a61.43 61.43 0 0 0 -16.24 28.17.17.17 0 0 1 0-.07l-30.47-8.16s0 0 0 0l-18.06-4.8a.06.06 0 0 0 0 0 114.37 114.37 0 0 1 29.34-50.79z" fill="#603348"/><path d="m666.19 668.7-22.39-22.26.09-.1a63.72 63.72 0 0 0 10-13 63 63 0 0 0 6.25-15.28v.12l30.54 8.17 18.06 4.8a114 114 0 0 1 -29.37 50.85l-13.24-13.2z" fill="#284f3e"/><path d="m690.62 626.4 18.06 4.8v-.05a113 113 0 0 0 3.81-29.29 114.71 114.71 0 0 0 -3.84-29.33l-18.06 4.8a.25.25 0 0 1 0 .07s0 0 0 0l-30.52 8.12s0 0 0 .07a62 62 0 0 1 0 32.56v.12l30.54 8.17z" fill="#44503d"/><path d="m489.94 572.49a.06.06 0 0 0 0 0 114.07 114.07 0 0 0 0 58.62l18.06-4.78s0 0 0 0l30.51-8.11a.2.2 0 0 1 0-.07 61.72 61.72 0 0 1 0-32.59.17.17 0 0 1 0-.07l-30.51-8.17s0 0 0 0zm18 4.83s0 0 0 0a0 0 0 0 0 .06 0z" fill="#4c3549"/><path d="m623.81 510.52 4.82-18.06a114 114 0 0 0 -58.65 0l4.81 18.06h.07l8.12 30.5h.14a61.46 61.46 0 0 1 32.52 0 .12.12 0 0 0 .08 0l8.11-30.52z" fill="#613438"/><path d="m574.81 693.16-4.81 18.07a114.17 114.17 0 0 0 58.61 0l-4.81-18.07h-.08l-8.11-30.51h-.14a61.28 61.28 0 0 1 -32.58-.07l-8.09 30.57z" fill="#254f50"/><path d="m508 626.29 30.51-8.11a.2.2 0 0 1 0-.07 61.47 61.47 0 0 0 16.29 28.21h-.06l-22.28 22.36-13.2 13.24a114.28 114.28 0 0 1 -29.26-50.77l18-4.82s0-.03 0-.04z" fill="#36364a"/><path d="m574.85 510.5 8.12 30.5h.14a61.36 61.36 0 0 0 -28.33 16.36l.09-.11-22.4-22.25.06-.06-13.24-13.19a114.24 114.24 0 0 1 50.71-29.29l4.81 18.06z" fill="#61343f"/><path d="m623.77 693.19-8.11-30.51h-.14a61.73 61.73 0 0 0 28.33-16.35l-.09.1 22.35 22.29h-.06l13.32 13.28a114.39 114.39 0 0 1 -50.71 29.28l-4.81-18.07z" fill="#23483f"/><path d="m508 577.37a0 0 0 0 0 0 0s0 0 0 0z" fill="#603348"/><path d="m541.59 127.64h2.61v8.64h5l7.58 11.82h-2.78l-6.3-9.69h-3.5v9.69h-2.61zm5.84 9.17 3.16-5.73c1.69-3.09 2.76-3.81 4.61-3.81a3.06 3.06 0 0 1 1.12.19l-.44 2.44a2.46 2.46 0 0 0 -.74-.13c-.9 0-1.45.36-2.67 2.58l-2.75 5z" fill="#fff"/><path d="m559.44 133h2.12l.21 1.75h.09a8 8 0 0 1 4.83-2.13c3.91 0 6 3 6 7.72 0 5.17-3.1 8.18-6.57 8.18a6.92 6.92 0 0 1 -4.2-1.75l.07 2.64v5.13h-2.56zm10.61 7.37c0-3.35-1.15-5.59-4-5.59-1.28 0-2.57.71-4 2.07v7.94a5.94 5.94 0 0 0 3.69 1.58c2.46-.05 4.31-2.31 4.31-6.05z" fill="#fff"/><path d="m575.37 144.17c0-3.31 2.85-5 9.3-5.66 0-1.95-.65-3.83-3.12-3.83a8.27 8.27 0 0 0 -4.52 1.63l-1-1.76a11.18 11.18 0 0 1 6-2c3.69 0 5.26 2.46 5.26 6.23v9.3h-2.12l-.22-1.81h-.08a8.06 8.06 0 0 1 -5 2.18 4.11 4.11 0 0 1 -4.5-4.28zm9.3.23v-4.21c-5.07.61-6.79 1.86-6.79 3.8 0 1.72 1.17 2.42 2.65 2.42s2.68-.71 4.14-2.01z" fill="#fff"/><path d="m590.9 140.54c0-5 3.41-8 7.29-8a6.35 6.35 0 0 1 4.43 1.78l-1.31 1.7a4.4 4.4 0 0 0 -3-1.34c-2.74 0-4.75 2.36-4.75 5.83s1.9 5.8 4.68 5.8a5.45 5.45 0 0 0 3.56-1.51l1.11 1.72a7.37 7.37 0 0 1 -4.9 1.92c-4.01.03-7.11-2.88-7.11-7.9z" fill="#fff"/><path d="m606.24 133h2.56v6.15h7.29v-6.15h2.56v15.1h-2.56v-6.73h-7.29v6.73h-2.56z" fill="#fff"/><path d="m623.76 133h2.57v5.58h2.12c3.61 0 6 1.43 6 4.74s-2.43 4.83-6 4.83h-4.69zm4.43 13.11c2.55 0 3.78-.88 3.78-2.8s-1.23-2.73-3.78-2.73h-1.86v5.53zm8.91-13.11h2.57v15.1h-2.57z" fill="#fff"/><path d="m644.78 133h2.49v6.3c0 1.6-.13 3.64-.23 5.59h.11c.56-.94 1.45-2.32 2-3.24l5.73-8.65h2.38v15.1h-2.5v-6.3c0-1.61.14-3.63.26-5.59h-.13c-.56.93-1.44 2.33-2 3.24l-5.74 8.65h-2.38zm1.45-7.49h2.11c.06 1.78.71 3.26 2.77 3.26s2.71-1.48 2.78-3.26h2.11c-.12 2.43-1.38 4.77-4.88 4.77s-4.76-2.39-4.89-4.82z" fill="#fff"/><g fill="#404041"><path d="m754.4 216c0-6.55 3.61-10.53 8.75-10.53s8.74 4 8.74 10.53-3.6 10.68-8.74 10.68-8.75-4.13-8.75-10.68zm14.8 0c0-5.1-2.4-8.24-6.05-8.24s-6.06 3.14-6.06 8.24 2.41 8.39 6.06 8.39 6.05-3.29 6.05-8.39z"/><path d="m776.06 211.15h2.11l.22 1.75h.09a8 8 0 0 1 4.83-2.12c3.91 0 6 3 6 7.72 0 5.16-3.11 8.18-6.57 8.18a6.85 6.85 0 0 1 -4.2-1.76l.07 2.65v5.13h-2.56zm10.61 7.37c0-3.34-1.15-5.59-4-5.59-1.28 0-2.58.71-4 2.07v7.94a5.88 5.88 0 0 0 3.69 1.58c2.46 0 4.31-2.26 4.31-6z"/><path d="m792 222.37c0-3.3 2.85-5 9.3-5.65 0-1.95-.65-3.83-3.12-3.83a8.34 8.34 0 0 0 -4.52 1.62l-1-1.76a11.18 11.18 0 0 1 6-2c3.69 0 5.26 2.45 5.26 6.23v9.29h-2.12l-.22-1.81h-.08a8.07 8.07 0 0 1 -5 2.19 4.12 4.12 0 0 1 -4.5-4.28zm9.3.24v-4.21c-5.07.61-6.79 1.85-6.79 3.79 0 1.72 1.17 2.42 2.65 2.42s2.67-.71 4.13-2z"/><path d="m808.64 211.15h2.57v6.15h7.28v-6.15h2.56v15.15h-2.56v-6.73h-7.28v6.73h-2.57z"/><path d="m829.34 217.39h3.73v-6.24h2.3v6.24h3.73l5.33 8.91h-2.78l-3.81-6.83h-2.47v6.83h-2.3v-6.83h-2.48l-3.8 6.83h-2.79zm-1.76-2c-.72-1.76-1.4-2.08-2.19-2.08a1.31 1.31 0 0 0 -.5.08l-.46-2.4a2.29 2.29 0 0 1 .9-.17c1.64 0 2.91.7 4 3.24l1.9 4.47-2.18.42zm9.64 3.14 1.91-4.47c1.07-2.54 2.33-3.24 4-3.24a2.29 2.29 0 0 1 .9.17l-.46 2.4a1.38 1.38 0 0 0 -.5-.08c-.79 0-1.47.32-2.19 2.08l-1.45 3.56z"/><path d="m845.74 218.75c0-4.94 3.33-8 6.81-8 3.87 0 6.05 2.77 6.05 7.11a7.49 7.49 0 0 1 -.12 1.45h-10.2c.18 3.21 2.14 5.29 5 5.29a6.54 6.54 0 0 0 3.77-1.21l.92 1.69a8.89 8.89 0 0 1 -5 1.57c-3.97.03-7.23-2.93-7.23-7.9zm10.6-1.24c0-3-1.37-4.69-3.74-4.69-2.13 0-4 1.71-4.35 4.69z"/><path d="m862.33 211.15h5.84c3.3 0 5.58 1.08 5.58 3.84a3.22 3.22 0 0 1 -2.52 3.24v.11a3.61 3.61 0 0 1 3.16 3.63c0 3-2.48 4.33-6 4.33h-6.08zm5.38 6.36c2.54 0 3.52-.87 3.52-2.27s-1-2.25-3.33-2.25h-3v4.52zm.41 7c2.52 0 3.73-1 3.73-2.66 0-1.53-1.32-2.47-3.89-2.47h-3.11v5.13z"/><path d="m878.17 211.15h2.57v5.58h2.13c3.6 0 6 1.43 6 4.75s-2.43 4.82-6 4.82h-4.7zm4.43 13.11c2.55 0 3.78-.87 3.78-2.8s-1.23-2.73-3.78-2.73h-1.86v5.53zm8.92-13.11h2.56v15.15h-2.56z"/><path d="m899.19 211.15h2.5v6.3c0 1.61-.14 3.64-.24 5.59h.11c.57-.93 1.46-2.31 2-3.24l5.73-8.65h2.38v15.15h-2.49v-6.3c0-1.6.13-3.63.25-5.59h-.13c-.56.94-1.44 2.33-2 3.24l-5.74 8.65h-2.38zm1.46-7.48h2.1c.06 1.77.71 3.26 2.77 3.26s2.72-1.49 2.78-3.26h2.1c-.12 2.42-1.38 4.76-4.88 4.76s-4.75-2.34-4.87-4.76z"/><path d="m971.64 390.21h4.36v-8.64h2.47v8.64h4.36l6.75 11.79h-2.86l-5.3-9.69h-2.95v9.69h-2.47v-9.69h-3l-5.3 9.69h-2.86zm-2.64-3.92c-1.06-2.27-1.78-2.59-2.67-2.59a2.41 2.41 0 0 0 -.74.13l-.44-2.44a3 3 0 0 1 1.12-.19c1.84 0 3.12.69 4.61 3.81l2.63 5.72-2.28.51zm12 4.44 2.63-5.72c1.49-3.12 2.77-3.81 4.61-3.81a3 3 0 0 1 1.12.19l-.44 2.44a2.4 2.4 0 0 0 -.73-.13c-.9 0-1.62.32-2.68 2.59l-2.22 4.95z"/><path d="m991 394.48c0-4.94 3.32-8 6.81-8 3.86 0 6 2.77 6 7.11a7.49 7.49 0 0 1 -.12 1.45h-10.2c.18 3.21 2.15 5.29 5 5.29a6.67 6.67 0 0 0 3.78-1.21l.91 1.68a8.87 8.87 0 0 1 -5 1.58c-3.96.03-7.18-2.93-7.18-7.9zm10.59-1.24c0-3-1.37-4.69-3.74-4.69-2.13 0-4 1.71-4.34 4.69z"/><path d="m1005.36 402.15.48-2.36a2.07 2.07 0 0 0 .69.13c1.07 0 1.76-1 2-3.21.41-3.27.79-6.54 1.17-9.83h9.3v15.12h-2.56v-13h-4.71c-.33 2.78-.65 5.6-1 8.38-.43 3.38-1.77 5.06-4 5.06a3.43 3.43 0 0 1 -1.37-.29z"/><path d="m1027.48 389h-5.07v-2.09h12.71v2.09h-5.07v13h-2.57z"/><path d="m1038.5 386.88h2.56v5.58h2.13c3.6 0 6 1.43 6 4.74s-2.43 4.83-6 4.83h-4.69zm4.42 13.11c2.55 0 3.79-.87 3.79-2.8s-1.24-2.73-3.79-2.73h-1.86v5.54zm8.92-13.11h2.56v15.12h-2.56z"/><path d="m1059.51 386.88h2.5v6.3c0 1.61-.13 3.64-.24 5.59h.11c.57-.93 1.46-2.31 2-3.24l5.73-8.65h2.39v15.12h-2.49v-6.3c0-1.6.13-3.63.25-5.59h-.13c-.56.93-1.44 2.33-2 3.24l-5.74 8.65h-2.38zm1.46-7.48h2.1c.06 1.77.71 3.26 2.78 3.26s2.71-1.49 2.77-3.26h2.1c-.12 2.42-1.38 4.76-4.87 4.76s-4.76-2.34-4.85-4.76z"/><path d="m988.83 611.7.54-2.39a2.49 2.49 0 0 0 .87.16c1.08 0 1.88-.63 2.86-5.48.85-4.26 1.55-8.34 2.35-12.85h10.22v20.46h-2.6v-18.25h-5.59c-.67 3.73-1.27 7.3-1.94 10.93-1.18 6.25-2.51 7.7-5 7.7a4.73 4.73 0 0 1 -1.71-.28z"/><path d="m1010.09 607.67c0-3.3 2.85-4.95 9.31-5.65 0-1.95-.65-3.83-3.13-3.83a8.4 8.4 0 0 0 -4.52 1.62l-1-1.76a11.15 11.15 0 0 1 6-2c3.7 0 5.26 2.45 5.26 6.23v9.29h-2.12l-.21-1.81h-.09a8 8 0 0 1 -5 2.19 4.12 4.12 0 0 1 -4.5-4.28zm9.31.24v-4.21c-5.08.61-6.8 1.85-6.8 3.79 0 1.72 1.17 2.42 2.66 2.42s2.67-.71 4.14-2z"/><path d="m1026.75 596.45h2.49v6.3c0 1.61-.13 3.64-.24 5.59h.11c.57-.93 1.46-2.31 2-3.24l5.74-8.65h2.38v15.15h-2.5v-6.3c0-1.6.13-3.63.25-5.59h-.12c-.57.93-1.45 2.33-2 3.24l-5.74 8.65h-2.38zm1.45-7.48h2.11c.06 1.77.7 3.26 2.77 3.26s2.71-1.49 2.77-3.26h2.15c-.12 2.42-1.38 4.76-4.88 4.76s-4.8-2.34-4.92-4.73z"/><path d="m1044.36 596.45h3l3 7.1c.45 1.26.92 2.48 1.35 3.7h.12c.47-1.22 1-2.44 1.4-3.7l2.88-7.1h2.89v15.15h-2.33v-6.81c0-1.34.18-3.65.28-5.22h-.12c-.44 1.2-1 2.46-1.4 3.59l-2.87 7h-1.7l-2.94-7c-.43-1.13-1-2.41-1.4-3.59h-.12c.11 1.57.28 3.88.28 5.22v6.81h-2.31z"/><path d="m1063 604.05c0-5.06 3.31-8 7-8s7 2.91 7 8-3.31 7.93-7 7.93-7-2.92-7-7.93zm11.4 0c0-3.48-1.77-5.84-4.37-5.84s-4.38 2.36-4.38 5.84 1.77 5.79 4.38 5.79 4.34-2.32 4.34-5.79z"/><path d="m1081 596.45h5.83c3.31 0 5.58 1.08 5.58 3.84a3.21 3.21 0 0 1 -2.52 3.24v.11a3.61 3.61 0 0 1 3.16 3.63c0 3-2.47 4.33-6 4.33h-6.05zm5.38 6.36c2.54 0 3.52-.87 3.52-2.27s-1-2.25-3.34-2.25h-3v4.52zm.4 7c2.52 0 3.74-1 3.74-2.66 0-1.53-1.33-2.47-3.89-2.47h-3.11v5.13z"/><path d="m1096.84 596.45h2.56v5.55h2.13c3.61 0 6 1.43 6 4.74s-2.42 4.83-6 4.83h-4.69zm4.42 13.11c2.56 0 3.79-.87 3.79-2.8s-1.23-2.73-3.79-2.73h-1.86v5.53zm8.92-13.11h2.57v15.15h-2.57z"/><path d="m1117.86 596.45h2.49v6.3c0 1.61-.13 3.64-.24 5.59h.11c.57-.93 1.46-2.31 2-3.24l5.74-8.65h2.38v15.15h-2.5v-6.3c0-1.6.13-3.63.25-5.59h-.09c-.57.93-1.45 2.33-2 3.24l-5.74 8.65h-2.38zm1.45-7.48h2.11c.06 1.77.71 3.26 2.77 3.26s2.71-1.49 2.77-3.26h2.11c-.12 2.42-1.38 4.76-4.88 4.76s-4.76-2.34-4.88-4.73z"/><path d="m943.38 839 1.47-1.79a7.54 7.54 0 0 0 5.86 2.48c2.65 0 4.82-1.42 4.82-4s-2-3.82-5.51-3.82h-2.32v-2h1.7c3.59 0 5.08-1.23 5.08-3.51s-1.71-3.28-4-3.28a6.94 6.94 0 0 0 -4.79 1.91l-1.38-1.74a9 9 0 0 1 6.24-2.46c3.85 0 6.5 2 6.5 5.24a4.62 4.62 0 0 1 -3 4.61v.13a4.91 4.91 0 0 1 4.1 5c0 3.94-3.28 6.19-7.36 6.19a9.67 9.67 0 0 1 -7.41-2.96z"/><path d="m960.77 834c0-4.93 3.33-8 6.82-8 3.86 0 6 2.77 6 7.11a7.68 7.68 0 0 1 -.12 1.46h-10.2c.18 3.21 2.15 5.29 5 5.29a6.61 6.61 0 0 0 3.77-1.21l.92 1.68a8.89 8.89 0 0 1 -5 1.57c-3.96.1-7.19-2.9-7.19-7.9zm10.6-1.24c0-3-1.37-4.69-3.74-4.69-2.13 0-4 1.71-4.34 4.69z"/><path d="m975.13 841.69.48-2.35a2.36 2.36 0 0 0 .69.12c1.06 0 1.76-1 2-3.2.41-3.28.79-6.55 1.17-9.84h9.3v15.16h-2.56v-13.07h-4.71c-.33 2.79-.66 5.6-1 8.39-.43 3.37-1.77 5.05-4 5.05a3.27 3.27 0 0 1 -1.37-.26z"/><path d="m992.8 834c0-4.93 3.32-8 6.81-8 3.86 0 6 2.77 6 7.11a8.59 8.59 0 0 1 -.12 1.46h-10.16c.18 3.21 2.15 5.29 5 5.29a6.66 6.66 0 0 0 3.77-1.21l.91 1.68a8.87 8.87 0 0 1 -5 1.57c-4.01.1-7.21-2.9-7.21-7.9zm10.59-1.24c0-3-1.37-4.69-3.74-4.69-2.13 0-4 1.71-4.34 4.69z"/><path d="m1009.39 826.42h2.61v6.15h7.29v-6.15h2.56v15.16h-2.56v-6.73h-7.29v6.73h-2.56z"/><path d="m1026.91 826.42h2.57v5.58h2.12c3.61 0 6 1.43 6 4.75s-2.42 4.83-6 4.83h-4.69zm4.43 13.11c2.55 0 3.78-.87 3.78-2.79s-1.23-2.74-3.78-2.74h-1.86v5.53zm8.91-13.11h2.57v15.16h-2.57z"/><path d="m1047.93 826.42h2.49v6.3c0 1.61-.13 3.65-.24 5.6h.12c.56-.94 1.45-2.32 2-3.24l5.73-8.66h2.38v15.16h-2.5v-6.3c0-1.61.13-3.64.25-5.6h-.12c-.57.94-1.45 2.33-2 3.24l-5.74 8.66h-2.38zm1.45-7.48h2.11c.06 1.77.71 3.26 2.77 3.26s2.71-1.49 2.78-3.26h2.1c-.12 2.42-1.38 4.77-4.88 4.77s-4.76-2.35-4.88-4.77z"/><path d="m783.68 992.22h3.14l3.92 10.93c.49 1.4 1 2.85 1.45 4.27h.13c.49-1.42.92-2.87 1.41-4.27l3.88-10.93h3.13v20.46h-2.42v-11.26c0-1.79.2-4.25.33-6h-.12l-1.63 4.58-3.85 10.58h-1.72l-3.88-10.58-1.62-4.66h-.12c.13 1.8.33 4.26.33 6v11.26h-2.36z"/><path d="m809.89 1005.37 2.13.77-4.57 6.54h-2.9zm4.57 1.33h-2.8c-3 0-5.94-1.33-5.94-4.68s2.56-4.49 5.95-4.49h5.33v15.15h-2.57zm0-1.87v-5.32h-2.37c-2.37 0-3.8.78-3.8 2.57s1.43 2.75 3.8 2.75z"/><path d="m825.46 999.62h-5.07v-2.09h12.71v2.09h-5.1v13.06h-2.57z"/><path d="m836.48 997.53h2.52v6.15h7.29v-6.15h2.56v15.15h-2.56v-6.68h-7.29v6.73h-2.56z"/><path d="m854 997.53h2.57v5.58h2.12c3.61 0 6 1.43 6 4.74s-2.43 4.83-6 4.83h-4.69zm4.43 13.11c2.55 0 3.78-.88 3.78-2.8s-1.23-2.73-3.78-2.73h-1.86v5.53zm8.91-13.11h2.57v15.15h-2.57z"/><path d="m875 997.53h2.49v6.3c0 1.6-.13 3.64-.24 5.59h.12c.56-.93 1.45-2.32 2-3.24l5.73-8.65h2.38v15.15h-2.48v-6.3c0-1.61.14-3.63.26-5.59h-.13l-2 3.24-5.74 8.65h-2.39zm1.45-7.49h2.11c.06 1.78.71 3.26 2.77 3.26s2.71-1.48 2.78-3.26h2.1c-.12 2.43-1.38 4.77-4.88 4.77s-4.73-2.34-4.86-4.81z"/><path d="m546.21 1061.39h11.79v2.2h-9.19v18.26h-2.61z"/><path d="m557.1 1074.29c0-5 3.31-8 7-8s7 2.92 7 8-3.3 7.93-7 7.93-7-2.91-7-7.93zm11.4 0c0-3.47-1.77-5.83-4.38-5.83s-4.37 2.36-4.37 5.83 1.77 5.8 4.37 5.8 4.38-2.32 4.38-5.8z"/><path d="m572.89 1082 .48-2.36a2.35 2.35 0 0 0 .69.13c1.07 0 1.76-1 2-3.21.41-3.28.79-6.55 1.17-9.83h9.3v15.15h-2.53v-13.06h-4.71c-.33 2.78-.65 5.59-1 8.38q-.66 5.05-4 5a3.47 3.47 0 0 1 -1.4-.2z"/><path d="m590.16 1088.07.5-2a4.05 4.05 0 0 0 1.16.22c1.71 0 2.79-1.37 3.42-3.25l.34-1.12-6.08-15.18h2.64l3.1 8.38c.47 1.32 1 2.87 1.47 4.27h.13c.43-1.37.86-2.93 1.27-4.27l2.7-8.38h2.51l-5.71 16.4c-1.07 3-2.63 5.28-5.67 5.28a4.89 4.89 0 0 1 -1.78-.35z"/><path d="m605.35 1072.67c0-10.26 3.72-11.85 9.49-12.72a8.92 8.92 0 0 0 3.14-.86l.53 2.33a7.65 7.65 0 0 1 -3.14 1c-5.6.85-7.55 1.28-7.55 10.76 0 4.39 1.57 6.94 4.65 6.94 2.34 0 4-2.32 4-5.75 0-3.13-1.45-5.1-4.08-5.1-1.48 0-3.08.67-4.64 2.79l-.09-1.92a6.67 6.67 0 0 1 5.38-2.86c3.59 0 6.08 2.67 6.08 7.09 0 4.82-3 7.88-6.66 7.88-4.46-.03-7.11-3.47-7.11-9.58z"/><path d="m622.08 1074.29c0-5 3.31-8 7-8s7 2.92 7 8-3.31 7.93-7 7.93-7-2.91-7-7.93zm11.4 0c0-3.47-1.77-5.83-4.38-5.83s-4.37 2.36-4.37 5.83 1.77 5.8 4.37 5.8 4.38-2.32 4.38-5.8z"/><path d="m640.11 1066.7h2.49v6.3c0 1.6-.13 3.64-.24 5.59h.12c.56-.93 1.45-2.32 2-3.24l5.73-8.65h2.38v15.15h-2.5v-6.3c0-1.61.13-3.63.25-5.59h-.12l-2 3.24-5.74 8.65h-2.38zm1.45-7.49h2.11c.06 1.78.71 3.26 2.77 3.26s2.71-1.48 2.77-3.26h2.11c-.12 2.43-1.38 4.77-4.88 4.77s-4.76-2.34-4.88-4.77z"/></g><path d="m293.1 1012.78.54-2.4a2.29 2.29 0 0 0 .87.17c1.08 0 1.88-.63 2.86-5.48.85-4.27 1.55-8.34 2.36-12.85h10.27v20.46h-2.6v-18.26h-5.6c-.67 3.74-1.27 7.31-1.94 10.93-1.17 6.26-2.51 7.7-5 7.7a4.8 4.8 0 0 1 -1.76-.27z" fill="#fff"/><path d="m314.36 1008.75c0-3.3 2.85-5 9.31-5.66 0-2-.65-3.83-3.13-3.83a8.41 8.41 0 0 0 -4.52 1.63l-1-1.76a11.18 11.18 0 0 1 6-2c3.7 0 5.27 2.46 5.27 6.23v9.3h-2.12l-.22-1.81h-.08a8.09 8.09 0 0 1 -5 2.18 4.12 4.12 0 0 1 -4.51-4.28zm9.31.23v-4.21c-5.08.62-6.79 1.86-6.79 3.8 0 1.72 1.17 2.42 2.65 2.42s2.67-.71 4.14-1.99z" fill="#fff"/><path d="m329.6 1011.13 1.12-1.67a6.64 6.64 0 0 0 4.41 1.55c2.07 0 3.76-1 3.76-2.73s-1.38-2.56-3.86-2.56h-2.09v-1.84h1.73c2.42 0 3.63-.9 3.63-2.38s-1.3-2.3-3.14-2.3a6.5 6.5 0 0 0 -4.12 1.33l-1.07-1.7a8.84 8.84 0 0 1 5.33-1.68c2.94 0 5.51 1.32 5.51 4.08a3.63 3.63 0 0 1 -2.51 3.38v.12a3.74 3.74 0 0 1 3.15 3.78c0 2.81-2.85 4.54-6.11 4.54a8.51 8.51 0 0 1 -5.74-1.92z" fill="#fff"/><path d="m343.59 1018.9.5-2a4.12 4.12 0 0 0 1.16.22c1.71 0 2.79-1.37 3.42-3.25l.34-1.12-6.08-15.18h2.64l3.1 8.39c.47 1.31 1 2.86 1.47 4.26h.13c.43-1.37.86-2.93 1.27-4.26l2.7-8.39h2.51l-5.71 16.4c-1.07 3-2.63 5.28-5.67 5.28a4.89 4.89 0 0 1 -1.78-.35z" fill="#fff"/><path d="m359.67 997.53h2.12l.22 1.75h.08a8 8 0 0 1 4.83-2.13c3.92 0 6 3 6 7.72 0 5.17-3.1 8.18-6.56 8.18a6.84 6.84 0 0 1 -4.2-1.75l.07 2.64v5.13h-2.57zm10.61 7.37c0-3.35-1.14-5.59-4-5.59-1.28 0-2.58.71-4.05 2.07v7.94a5.94 5.94 0 0 0 3.69 1.58c2.52 0 4.36-2.26 4.36-6z" fill="#fff"/><path d="m377 997.53h2.56v6.15h7.29v-6.15h2.56v15.15h-2.56v-6.68h-7.29v6.73h-2.56z" fill="#fff"/><path d="m394.5 997.53h2.57v5.58h2.12c3.61 0 6 1.43 6 4.74s-2.43 4.83-6 4.83h-4.69zm4.43 13.11c2.55 0 3.78-.88 3.78-2.8s-1.23-2.73-3.78-2.73h-1.86v5.53zm8.91-13.11h2.57v15.15h-2.57z" fill="#fff"/><path d="m415.52 997.53h2.48v6.3c0 1.6-.13 3.64-.23 5.59h.11c.56-.93 1.45-2.32 2-3.24l5.73-8.65h2.39v15.15h-2.49v-6.3c0-1.61.13-3.63.25-5.59h-.13l-2 3.24-5.74 8.65h-2.38zm1.48-7.53h2.11c.06 1.78.71 3.26 2.77 3.26s2.72-1.48 2.78-3.26h2.1c-.12 2.43-1.38 4.77-4.88 4.77s-4.78-2.3-4.88-4.77z" fill="#fff"/><path d="m126.77 831.37c0-6.6 3.89-10.63 9.08-10.63a7.63 7.63 0 0 1 5.63 2.53l-1.43 1.73a5.57 5.57 0 0 0 -4.16-1.93c-3.86 0-6.43 3.17-6.43 8.27s2.45 8.36 6.33 8.36a6.14 6.14 0 0 0 4.75-2.3l1.46 1.6a7.9 7.9 0 0 1 -6.28 3c-5.13 0-8.95-4-8.95-10.63z" fill="#fff"/><path d="m145.52 826.42h2.48v6.3c0 1.61-.13 3.65-.24 5.6h.11c.57-.94 1.46-2.32 2-3.24l5.73-8.66h2.4v15.16h-2.49v-6.3c0-1.61.13-3.64.25-5.6h-.13c-.56.94-1.44 2.33-2 3.24l-5.75 8.66h-2.38z" fill="#fff"/><path d="m163.14 826.42h2.56v6.15h7.3v-6.15h2.56v15.16h-2.56v-6.73h-7.3v6.73h-2.56z" fill="#fff"/><path d="m180.66 826.42h2.5v6.3c0 1.61-.13 3.65-.24 5.6h.08c.57-.94 1.46-2.32 2-3.24l5.73-8.66h2.38v15.16h-2.49v-6.3c0-1.61.13-3.64.25-5.6h-.12c-.57.94-1.45 2.33-2 3.24l-5.75 8.66h-2.38z" fill="#fff"/><path d="m198.28 826.42h2.49v6.3c0 1.61-.13 3.65-.23 5.6h.11c.56-.94 1.45-2.32 2-3.24l5.73-8.66h2.38v15.16h-2.49v-6.3c0-1.61.13-3.64.25-5.6h-.13c-.56.94-1.44 2.33-2 3.24l-5.74 8.66h-2.38zm1.45-7.48h2.11c.06 1.78.71 3.26 2.77 3.26s2.72-1.48 2.78-3.26h2.1c-.12 2.42-1.38 4.77-4.88 4.77s-4.75-2.35-4.88-4.77z" fill="#fff"/><path d="m67.15 601.32c0-5 3.49-7.62 9.33-7.62h1.25c5.85 0 9.33 2.67 9.33 7.62s-3.48 7.75-9.33 7.75h-1.25c-5.84 0-9.33-2.8-9.33-7.75zm10.74 5.75c4.29 0 6.67-2.13 6.67-5.75s-2.38-5.62-6.67-5.62h-1.57c-4.29 0-6.66 2-6.66 5.62s2.37 5.75 6.66 5.75zm-1.89-16.28h2.29v21.21h-2.29z" fill="#fff"/><path d="m91.08 596.47h2.5v6.3c0 1.61-.13 3.65-.24 5.6h.11c.57-.94 1.46-2.32 2-3.25l5.73-8.65h2.38v15.15h-2.49v-6.3c0-1.6.13-3.63.25-5.59h-.12c-.57.94-1.45 2.33-2 3.24l-5.75 8.65h-2.37z" fill="#fff"/><path d="m107.57 604.07c0-5.06 3.31-8 7-8s7 2.91 7 8-3.31 7.93-7 7.93-7-2.91-7-7.93zm11.4 0c0-3.47-1.77-5.84-4.37-5.84s-4.38 2.37-4.38 5.84 1.77 5.79 4.38 5.79 4.4-2.32 4.4-5.79z" fill="#fff"/><path d="m123.36 611.74.48-2.35a2.37 2.37 0 0 0 .7.12c1.06 0 1.75-1 2-3.2.4-3.28.78-6.55 1.16-9.84h9.3v15.15h-2.57v-13.06h-4.7c-.33 2.79-.66 5.6-1 8.39-.43 3.37-1.78 5-4 5a3.47 3.47 0 0 1 -1.37-.21z" fill="#fff"/><path d="m141 604.07c0-4.93 3.33-8 6.81-8 3.87 0 6 2.77 6 7.11a8.59 8.59 0 0 1 -.12 1.46h-10.2c.18 3.2 2.14 5.29 5 5.29a6.64 6.64 0 0 0 3.77-1.21l.92 1.68a8.89 8.89 0 0 1 -5 1.57c-3.93.03-7.18-2.92-7.18-7.9zm10.6-1.24c0-3-1.37-4.69-3.74-4.69-2.13 0-4 1.71-4.35 4.69z" fill="#fff"/><path d="m160.64 598.56h-5.08v-2.09h12.72v2.09h-5.08v13.06h-2.56z" fill="#fff"/><path d="m170.09 604.07c0-5.06 3.31-8 7-8s7 2.91 7 8-3.31 7.93-7 7.93-7-2.91-7-7.93zm11.4 0c0-3.47-1.77-5.84-4.38-5.84s-4.37 2.37-4.37 5.84 1.77 5.79 4.37 5.79 4.38-2.32 4.38-5.79z" fill="#fff"/><path d="m188.12 596.47h5.88c3.31 0 5.58 1.09 5.58 3.84a3.21 3.21 0 0 1 -2.52 3.24v.11a3.61 3.61 0 0 1 3.16 3.63c0 3-2.48 4.33-6 4.33h-6.07zm5.38 6.36c2.54 0 3.52-.87 3.52-2.27s-1-2.25-3.34-2.25h-3v4.52zm.4 7c2.52 0 3.73-1 3.73-2.65 0-1.54-1.32-2.47-3.89-2.47h-3.1v5.12z" fill="#fff"/><path d="m204 596.47h2.56v5.58h2.13c3.6 0 6 1.43 6 4.75s-2.43 4.82-6 4.82h-4.69zm4.42 13.11c2.55 0 3.79-.87 3.79-2.79s-1.24-2.74-3.79-2.74h-1.86v5.53zm8.92-13.11h2.56v15.15h-2.6z" fill="#fff"/><path d="m225 596.47h2.5v6.3c0 1.61-.13 3.65-.24 5.6h.11c.57-.94 1.46-2.32 2-3.25l5.73-8.65h2.38v15.15h-2.48v-6.3c0-1.6.13-3.63.25-5.59h-.13c-.56.94-1.44 2.33-2 3.24l-5.75 8.65h-2.37zm1.46-7.48h2.1c.07 1.77.71 3.26 2.78 3.26s2.71-1.49 2.77-3.26h2.11c-.13 2.42-1.39 4.76-4.88 4.76s-4.79-2.34-4.91-4.75z" fill="#fff"/><path d="m125.54 391.73c0-5 3.48-7.62 9.33-7.62h1.25c5.84 0 9.33 2.67 9.33 7.62s-3.49 7.74-9.33 7.74h-1.25c-5.87 0-9.33-2.79-9.33-7.74zm10.74 5.75c4.29 0 6.66-2.13 6.66-5.75s-2.37-5.62-6.66-5.62h-1.57c-4.29 0-6.67 2-6.67 5.62s2.38 5.75 6.67 5.75zm-1.93-16.28h2.29v21.21h-2.29z" fill="#fff"/><path d="m148 408.25.5-2a4 4 0 0 0 1.15.22c1.71 0 2.79-1.37 3.42-3.25l.34-1.12-6.08-15.18h2.65l3.09 8.39c.48 1.31 1 2.87 1.48 4.27h.12c.43-1.38.86-2.93 1.27-4.27l2.71-8.39h2.51l-5.71 16.4c-1.07 3-2.64 5.28-5.68 5.28a4.84 4.84 0 0 1 -1.77-.35z" fill="#fff"/><path d="m164 386.88h2.56v6.23h4.26l5.78 8.89h-2.82l-4.21-6.83h-3v6.83h-2.57zm5 7.34 2-4.47c1.17-2.66 2.33-3.25 4-3.25a2.29 2.29 0 0 1 .9.18l-.46 2.4a1.4 1.4 0 0 0 -.51-.09c-.78 0-1.41.29-2.18 2.08l-1.53 3.57z" fill="#fff"/><path d="m177.9 394.48c0-5.06 3.42-8 7.29-8a6.42 6.42 0 0 1 4.44 1.78l-1.32 1.7a4.36 4.36 0 0 0 -3-1.34c-2.75 0-4.76 2.36-4.76 5.84s1.9 5.79 4.69 5.79a5.47 5.47 0 0 0 3.56-1.51l1.11 1.72a7.38 7.38 0 0 1 -4.9 1.93c-4.01.02-7.11-2.9-7.11-7.91z" fill="#fff"/><path d="m193.24 386.88h2.5v6.3c0 1.61-.13 3.64-.24 5.59h.11c.57-.93 1.46-2.32 2-3.24l5.73-8.65h2.39v15.12h-2.5v-6.3c0-1.6.13-3.63.25-5.59h-.12c-.57.93-1.45 2.33-2 3.24l-5.73 8.65h-2.39z" fill="#fff"/><path d="m214.64 394.72 2.13.77-4.57 6.51h-2.9zm4.58 1.34h-2.81c-3 0-5.94-1.34-5.94-4.69s2.56-4.49 5.95-4.49h5.36v15.12h-2.56zm0-1.87v-5.33h-2.38c-2.37 0-3.8.78-3.8 2.57s1.43 2.76 3.8 2.76z" fill="#fff"/><path d="m295.9 205.84h3.1l4 10.94c.49 1.39 1 2.84 1.45 4.26h.13c.49-1.42.92-2.87 1.41-4.26l3.88-10.94h3.13v20.46h-2.42v-11.3c0-1.78.2-4.24.33-6h-.12l-1.63 4.66-3.85 10.59h-1.72l-3.88-10.59-1.66-4.66h-.12c.13 1.81.33 4.27.33 6v11.3h-2.36z" fill="#fff"/><path d="m317.39 222.37c0-3.3 2.85-5 9.31-5.65 0-1.95-.66-3.83-3.13-3.83a8.4 8.4 0 0 0 -4.52 1.62l-1-1.76a11.15 11.15 0 0 1 5.95-2c3.7 0 5.26 2.45 5.26 6.23v9.29h-2.12l-.21-1.81h-.09a8 8 0 0 1 -5 2.19 4.12 4.12 0 0 1 -4.45-4.28zm9.31.24v-4.21c-5.08.61-6.8 1.85-6.8 3.79 0 1.72 1.17 2.42 2.66 2.42s2.67-.71 4.14-2z" fill="#fff"/><path d="m331.81 226.42.48-2.36a2.07 2.07 0 0 0 .69.13c1.06 0 1.75-1 2-3.21.4-3.27.78-6.54 1.17-9.83h9.3v15.15h-2.56v-13.06h-4.69c-.33 2.79-.66 5.6-1 8.38-.43 3.38-1.78 5.06-4 5.06a3.38 3.38 0 0 1 -1.39-.26z" fill="#fff"/><path d="m350.6 211.15h2.5v6.3c0 1.61-.14 3.64-.24 5.59h.14c.57-.93 1.46-2.31 2-3.24l5.73-8.65h2.38v15.15h-2.51v-6.3c0-1.6.13-3.63.25-5.59h-.13c-.56.94-1.44 2.33-2 3.24l-5.72 8.65h-2.4z" fill="#fff"/><path d="m368.22 211.15h2.56v6.15h7.29v-6.15h2.56v15.15h-2.56v-6.73h-7.29v6.73h-2.56z" fill="#fff"/><path d="m384.62 218.75c0-5.06 3.3-8 7-8s7 2.91 7 8-3.31 7.93-7 7.93-7-2.92-7-7.93zm11.39 0c0-3.48-1.77-5.84-4.37-5.84s-4.38 2.36-4.38 5.84 1.77 5.79 4.38 5.79 4.36-2.32 4.36-5.79z" fill="#fff"/><path d="m402.64 211.15h5.83c3.31 0 5.58 1.08 5.58 3.84a3.21 3.21 0 0 1 -2.52 3.24v.11a3.61 3.61 0 0 1 3.16 3.63c0 3-2.47 4.33-6 4.33h-6.07zm5.38 6.36c2.54 0 3.52-.87 3.52-2.27s-1-2.25-3.33-2.25h-3v4.52zm.4 7c2.52 0 3.74-1 3.74-2.66 0-1.53-1.33-2.47-3.89-2.47h-3.11v5.13z" fill="#fff"/><path d="m418.48 211.15h2.57v5.58h2.12c3.61 0 6 1.43 6 4.75s-2.42 4.82-6 4.82h-4.69zm4.43 13.11c2.55 0 3.78-.87 3.78-2.8s-1.23-2.73-3.78-2.73h-1.86v5.53zm8.91-13.11h2.57v15.15h-2.57z" fill="#fff"/><path d="m439.5 211.15h2.5v6.3c0 1.61-.13 3.64-.24 5.59h.12c.56-.93 1.45-2.31 2-3.24l5.73-8.65h2.39v15.15h-2.5v-6.3c0-1.6.13-3.63.25-5.59h-.12c-.57.94-1.45 2.33-2 3.24l-5.74 8.65h-2.39zm1.45-7.48h2.11c.06 1.77.71 3.26 2.77 3.26s2.71-1.49 2.77-3.26h2.11c-.12 2.42-1.38 4.76-4.88 4.76s-4.76-2.34-4.83-4.76z" fill="#fff"/><path d="m609.8 300.74h-9l-2.55 10.13h-4.61l8.73-36.65h5.8l8.83 36.65h-4.61zm-.62-4.64-3.88-16.45-3.9 16.45z" fill="#fff"/><path d="m746.37 343.33h-9l-2.55 10.13h-4.61l8.79-36.64h5.79l8.76 36.64h-4.61zm-.62-4.64-3.88-16.45-3.87 16.45z" fill="#404041"/><path d="m781.54 332.73-1.29 5.88h6.16l-1.24 4.48h-6.17l-2.52 10.37h-4.82l2.52-10.37h-5.98l-2.52 10.37h-4.82l2.52-10.37h-6l1.31-4.48h6l1.29-5.88h-5.98l1.3-4.48h6l2.77-11.43h4.82l-2.77 11.43h5.88l2.79-11.43h4.83l-2.8 11.43h6.18l-1.31 4.48zm-4.82 0h-5.92l-1.29 5.88h5.92z" fill="#404041"/><path d="m872.63 429c5.08 0 10.47 2.36 10.47 8.64v1.62a7.6 7.6 0 0 1 -4.89 7.41 8.17 8.17 0 0 1 5.79 8.33v1.45c0 6-4.29 9.27-11 9.27h-9.24v-36.72zm6.64 25.74c0-3.83-2.46-5.78-6.42-5.78h-4.52v12.23h4.52c3.94 0 6.42-1.91 6.42-5.79zm-.67-15.95c0-3.84-3-5.31-6.05-5.31h-4.22v11.23h4.22c3.24 0 6.05-1.54 6.05-5.31z" fill="#fff"/><path d="m903.89 596.11c0-9.69 5.45-12.67 10.69-12.67 5 0 10.21 2.78 10.48 12v1h-4.61v-.84c-.31-5.66-2.79-7.62-5.84-7.62-3.28 0-6 2.11-6 8.61v11.35c0 6.52 2.69 8.63 6 8.63 3 0 5.47-1.93 5.83-7.52v-1h4.6v.92c-.24 9.22-5.46 12-10.47 12-5.24 0-10.69-3-10.69-12.66z" fill="#fff"/><path d="m846.6 750.59c0-9.68 5.46-12.67 10.69-12.67 5 0 10.21 2.78 10.48 12v1h-4.61v-.84c-.31-5.66-2.79-7.62-5.84-7.62-3.28 0-6 2.11-6 8.61v11.35c0 6.53 2.68 8.64 6 8.64 3 0 5.48-1.93 5.83-7.52v-1h4.61v.92c-.25 9.23-5.47 12-10.48 12-5.23 0-10.69-3-10.69-12.67z" fill="#404041"/><path d="m895.05 754.3-1.29 5.89h6.16l-1.25 4.48h-6.22l-2.52 10.33h-4.82l2.52-10.37h-5.93l-2.51 10.37h-4.82l2.51-10.37h-6l1.3-4.48h6l1.29-5.89h-6l1.31-4.47h6l2.76-11.44h4.83l-2.77 11.44h5.89l2.8-11.44h4.82l-2.8 11.44h6.16l-1.3 4.47zm-4.82 0h-5.93l-1.3 5.89h5.93z" fill="#404041"/><path d="m761.86 850.44c5.13 0 10.63 2.71 10.63 12.67v11.3c0 10-5.5 12.67-10.63 12.67h-9.64v-36.64zm6 13.08c0-6.5-2.82-8.61-6-8.61h-5v27.7h5c3.2 0 6-2.11 6-8.63z" fill="#fff"/><path d="m588.39 892.81c5.13 0 10.63 2.71 10.63 12.67v11.31c0 10-5.5 12.67-10.63 12.67h-9.64v-36.65zm6 13.08c0-6.5-2.82-8.61-6-8.61h-5v27.72h5c3.2 0 6-2.11 6-8.64z" fill="#404041"/><path d="m627.52 908.72-1.29 5.89h6.16l-1.25 4.48h-6.22l-2.52 10.37h-4.82l2.52-10.37h-5.93l-2.51 10.37h-4.82l2.51-10.37h-6l1.3-4.48h6l1.29-5.89h-6l1.31-4.47h6l2.77-11.44h4.83l-2.77 11.44h5.92l2.8-11.44h4.82l-2.8 11.44h6.18l-1.3 4.47zm-4.82 0h-5.93l-1.29 5.89h5.93z" fill="#404041"/><path d="m447.18 855.82v11.23h10.73v4.47h-10.73v12h11.25v4.48h-15.86v-36.65h15.86v4.47z" fill="#fff"/><path d="m336.91 742.25v11.75h10.33v4.47h-10.33v16h-4.61v-36.69h15.46v4.47z" fill="#fff"/><path d="m278.19 588.62v11.74h10.32v4.47h-10.32v16h-4.61v-36.68h15.42v4.47z" fill="#404041"/><path d="m316.33 600.06-1.33 5.88h6.16l-1.16 4.48h-6.22l-2.52 10.37h-4.82l2.52-10.37h-5.96l-2.51 10.37h-4.82l2.51-10.37h-6l1.3-4.48h6l1.29-5.88h-5.95l1.31-4.48h6l2.77-11.43h4.83l-2.77 11.43h5.89l2.8-11.43h4.82l-2.8 11.43h6.16l-1.3 4.48zm-4.82 0h-5.93l-1.29 5.88h5.93z" fill="#404041"/><path d="m327.7 440.73c0-9.68 5.34-12.66 10.57-12.66 5.07 0 10.4 2.87 10.52 12.36v.57h-4.5v-.37c-.18-6.05-2.91-8.07-6-8.07-3.28 0-6 2.11-6 8.61v11.33c0 6.52 2.68 8.63 6 8.63s6-2 6-8.48v-3h-5.75v-4.47h10.27v7.75c0 9.74-5.41 12.67-10.54 12.67s-10.57-3-10.57-12.67z" fill="#fff"/><path d="m424.44 329.52c0-9.68 5.33-12.67 10.57-12.67 5.07 0 10.4 2.88 10.52 12.37v.55h-4.53v-.38c-.18-6.05-2.91-8.07-6-8.07-3.28 0-6 2.11-6 8.61v11.35c0 6.53 2.68 8.64 6 8.64s6-2 6-8.48v-3h-5.75v-4.44h10.27v7.75c0 9.74-5.41 12.67-10.54 12.67s-10.57-3-10.57-12.67z" fill="#404041"/><path d="m474.14 333.23-1.29 5.89h6.15l-1.25 4.48h-6.22l-2.53 10.4h-4.8l2.52-10.37h-5.93l-2.51 10.37h-4.82l2.54-10.4h-6l1.31-4.48h6l1.29-5.89h-5.95l1.31-4.47h6l2.77-11.44h4.83l-2.77 11.44h5.89l2.8-11.44h4.82l-2.8 11.44h6.16l-1.3 4.47zm-4.82 0h-5.93l-1.29 5.89h5.9z" fill="#404041"/><g fill="#fff" opacity=".6"><path d="m380.25 594-4.51 17.53h-2.05l-4.5-17.53h1.65l3.88 14.93 3.88-14.93z"/><path d="m381.63 595.34h1.63v1.53h-1.63zm.11 3.66h1.41v12.52h-1.41z"/><path d="m385.51 603.18c0-3.35 2-4.41 3.81-4.41s3.83 1 3.83 4.41v4.13c0 3.38-2 4.41-3.83 4.41s-3.81-1.05-3.81-4.41zm6.24.68c0-3-1.16-3.8-2.42-3.8s-2.41.76-2.41 3.8v2.77c0 3 1.05 3.81 2.41 3.81s2.43-.79 2.42-3.81z"/><path d="m395.46 594h1.41v17.53h-1.41z"/><path d="m399 603.18c0-3.35 2-4.41 3.81-4.41s3.82 1 3.82 4.41v2.7h-6.22v1.12c0 2.72 1.09 3.44 2.41 3.44s2.31-.63 2.41-3h1.4c-.06 3.27-2 4.26-3.82 4.26s-3.81-1.05-3.81-4.41zm6.22.24c0-2.67-1.21-3.36-2.41-3.36s-2.4.68-2.4 3.36v1.37h4.81z"/><path d="m411.28 606.76c0 3.34.64 3.69 2.35 3.71h.3v1.28h-.62c-2.12 0-3.44-.61-3.44-4.58v-6.91h-1.87v-1.26h1.9v-3.83h1.41v3.83h2.65v1.26h-2.65z"/><path d="m478.32 787.4h-4.92l-1.4 5.33h-1.63l4.51-17.53h2l4.51 17.53h-1.63zm-.25-1.65-2.21-8.55-2.22 8.55z"/><path d="m490.41 791.45v1.28h-7.49v-1.09l5.88-10.13h-5.6v-1.3h7.14v1.1l-5.86 10.14z"/><path d="m500.08 780.21v12.52h-1.08l-.16-1.63a3.1 3.1 0 0 1 -2.95 1.86c-1.7 0-3.47-1-3.47-4.41v-8.34h1.41v7.66c0 3 1.14 3.8 2.42 3.8s2.41-.71 2.41-3.5v-8z"/><path d="m503.68 782.17a3.5 3.5 0 0 1 3.22-2.17v1.27c-1.74 0-3.08 1.21-3.09 4v7.48h-1.4v-12.54h1.06z"/><path d="m508.3 784.39c0-3.35 2-4.41 3.81-4.41s3.82 1 3.82 4.41v2.7h-6.22v1.12c0 2.72 1.09 3.44 2.41 3.44s2.31-.63 2.4-3h1.41c-.06 3.27-2 4.26-3.82 4.26s-3.81-1-3.81-4.41zm6.22.24c0-2.67-1.21-3.36-2.41-3.36s-2.4.68-2.4 3.36v1.37h4.81z"/><path d="m457.23 416.22c0-4.63 2.59-6.06 5.09-6.06s4.84 1.32 5 5.65v.41h-1.64v-.38c-.18-3.11-1.66-4.1-3.35-4.1s-3.42 1.08-3.42 4.7v5.4c0 3.62 1.61 4.7 3.42 4.7s3.13-1 3.35-4v-.45h1.64v.39c-.15 4.35-2.61 5.68-5 5.68s-5.09-1.43-5.09-6.06z"/><path d="m470.6 417.35a3.5 3.5 0 0 1 3.22-2.18v1.27c-1.73 0-3.07 1.2-3.08 4v7.49h-1.41v-12.53h1.07z"/><path d="m475.66 411.74h1.62v1.53h-1.62zm.1 3.66h1.41v12.52h-1.41z"/><path d="m481 417a3.26 3.26 0 0 1 6 .39 3.11 3.11 0 0 1 3.1-2.25c1.69 0 3.47 1 3.47 4.41v8.34h-1.41v-7.66c0-3-1.14-3.81-2.42-3.81s-2.21.58-2.37 2.74v8.73h-1.37v-7.66c0-3-1.15-3.81-2.42-3.81s-2.4.69-2.41 3.4v8.07h-1.4v-12.49h1.06z"/><path d="m497 424.41a2.26 2.26 0 0 0 2.44 2.42c1.37 0 2.43-.59 2.43-2.29s-1-2.26-2.52-2.7-3.41-1.08-3.41-3.39 1.68-3.28 3.58-3.28a3.5 3.5 0 0 1 3.62 3.63v.2h-1.44v-.25a2.14 2.14 0 0 0 -2.2-2.34c-1.23 0-2.19.48-2.19 1.93s1.57 2 2.41 2.22c2.65.7 3.52 2.06 3.52 3.88 0 2.61-1.75 3.64-3.83 3.64a3.65 3.65 0 0 1 -3.84-3.66v-.28h1.43z"/><path d="m505.13 419.58c0-3.36 2-4.41 3.81-4.41s3.84 1 3.84 4.41v4.13c0 3.38-2 4.41-3.84 4.41s-3.81-1.05-3.81-4.41zm6.24.68c0-3-1.16-3.81-2.42-3.81s-2.41.77-2.41 3.81v2.74c0 3 1 3.81 2.41 3.81s2.43-.79 2.42-3.81z"/><path d="m516.25 417a3.08 3.08 0 0 1 2.94-1.86c1.7 0 3.47 1 3.47 4.41v8.34h-1.4v-7.66c0-3-1.15-3.81-2.43-3.81s-2.41.71-2.41 3.51v8h-1.42v-12.53h1.07z"/><path d="m680.32 415.21c0-4.64 2.59-6.06 5.1-6.06s5.12 1.4 5.12 6.06v5.79c0 4.66-2.67 6.06-5.12 6.06s-5.1-1.42-5.1-6.06zm8.55.21c0-3.62-1.68-4.69-3.45-4.69s-3.42 1.07-3.42 4.69v5.4c0 3.63 1.61 4.7 3.43 4.7s3.45-1.07 3.45-4.7z"/><path d="m694.23 416.34a3.49 3.49 0 0 1 3.22-2.18v1.26c-1.74 0-3.08 1.21-3.09 4v7.48h-1.36v-12.52h1z"/><path d="m706.6 414.38v12.52h-1.07l-.14-1.63a3 3 0 0 1 -2.93 1.83c-1.7 0-3.51-1-3.51-4.4v-4.14c0-3.37 1.81-4.4 3.51-4.4a3.07 3.07 0 0 1 2.93 1.78l.14-1.56zm-6.24 7.62c0 3 1.1 3.81 2.43 3.81s2.4-.79 2.4-3.81v-2.76c0-3-1.11-3.81-2.41-3.81s-2.42.77-2.42 3.81z"/><path d="m710.22 416a3.06 3.06 0 0 1 2.94-1.85c1.7 0 3.47 1 3.47 4.4v8.34h-1.4v-7.65c0-3.05-1.15-3.81-2.43-3.81s-2.41.71-2.41 3.5v8h-1.39v-12.55h1.06z"/><path d="m718.76 418.56c0-3.37 1.78-4.4 3.48-4.4a3.11 3.11 0 0 1 3 1.8l.15-1.58h1.07v12.49c0 3.31-2 4.34-3.81 4.34a3.5 3.5 0 0 1 -3.65-2.83h1.46a2.11 2.11 0 0 0 2.18 1.54c1.3 0 2.4-.68 2.41-3.3v-1.41a2.91 2.91 0 0 1 -2.77 1.69c-1.7 0-3.48-1-3.48-4.4zm6.24.69c0-3-1.09-3.81-2.4-3.81s-2.42.77-2.43 3.81v2.62c0 3 1.11 3.81 2.42 3.81s2.41-.79 2.41-3.81z"/><path d="m728.63 418.56c0-3.35 2-4.4 3.81-4.4s3.82 1 3.82 4.4v2.71h-6.26v1.11c0 2.72 1.09 3.44 2.41 3.44s2.31-.63 2.4-3h1.41c-.06 3.27-2 4.26-3.82 4.26s-3.81-1.05-3.81-4.4zm6.22.24c0-2.67-1.21-3.36-2.41-3.36s-2.4.68-2.4 3.37v1.36h4.81z"/><path d="m790.42 608.69v1.58h-7.42v-17.53h1.64v16z"/><path d="m792.88 594.09h1.63v1.53h-1.63zm.11 3.66h1.41v12.52h-1.4z"/><path d="m798.18 599.38a3.26 3.26 0 0 1 6.05.39 3.11 3.11 0 0 1 3.1-2.25c1.69 0 3.47 1 3.47 4.41v8.34h-1.41v-7.66c0-3-1.15-3.81-2.42-3.81s-2.22.58-2.37 2.74v8.73h-1.41v-7.66c0-3-1.15-3.81-2.42-3.81s-2.41.69-2.41 3.4v8.07h-1.36v-12.52h1z"/><path d="m812.94 601.93c0-3.36 2-4.41 3.81-4.41s3.82 1 3.82 4.41v2.7h-6.22v1.12c0 2.72 1.09 3.43 2.41 3.44s2.31-.63 2.41-3h1.4c-.06 3.28-2 4.27-3.82 4.27s-3.81-1.05-3.81-4.41zm6.22.24c0-2.68-1.21-3.36-2.41-3.37s-2.4.69-2.4 3.37v1.36h4.81z"/><path d="m712.75 775.2v17.53h-1.59v-13.54l-4.26 13.54h-1.13l-4.26-13.54v13.54h-1.59v-17.53h2l4.47 14.27 4.46-14.27z"/><path d="m715.62 776.55h1.63v1.53h-1.63zm.11 3.66h1.41v12.52h-1.41z"/><path d="m720.92 781.84a3.09 3.09 0 0 1 3-1.85c1.69 0 3.47 1 3.47 4.4v8.34h-1.41v-7.66c0-3-1.14-3.8-2.42-3.8s-2.41.71-2.41 3.5v8h-1.41v-12.56h1.07z"/><path d="m732 788c0 3.34.65 3.69 2.36 3.71h.3v1.29h-.66c-2.12 0-3.44-.61-3.44-4.57v-6.92h-1.91v-1.26h1.91v-3.83h1.44v3.83h2.66v1.26h-2.66z"/><path d="m585.38 387.72c2.62 0 5.52 1.09 5.52 4.74v1a4 4 0 0 1 -2.48 3.88l2.78 7.94h-2.94l-2.33-7.08h-1.86v7.08h-2.78v-17.56zm2.81 5.12a2.18 2.18 0 0 0 -2.39-2.44h-1.73v5.09h1.73a2.2 2.2 0 0 0 2.39-2.45z"/><path d="m592.23 396.9c0-3.35 2.12-4.4 4-4.4s4 1 4 4.4v3h-5.63v.75c0 2.12.66 2.7 1.65 2.71s1.58-.48 1.64-2.2h2.34c0 3.32-2.14 4.32-4 4.32s-4-1.05-4-4.4zm5.64.28c0-2-.78-2.55-1.64-2.56s-1.64.53-1.65 2.57v.91h3.29z"/><path d="m609.69 387.71v17.53h-1.69l-.3-1.3a3 3 0 0 1 -2.76 1.5c-1.59 0-3.29-1-3.29-4.4v-4.13c0-3.37 1.7-4.41 3.29-4.41a2.7 2.7 0 0 1 2.37 1.17v-6zm-5.69 12.16c0 2.72.62 3.45 1.67 3.45s1.65-.73 1.63-3.45v-1.8c0-2.74-.66-3.45-1.65-3.45s-1.65.71-1.65 3.45z"/><path d="m583.12 811.58c0-4.63 2.62-6.06 5.13-6.06s4.93 1.35 5 5.81v.5h-2.75v-.42c-.11-2.3-1-3.19-2.24-3.19s-2.28.94-2.28 3.54v5.47c0 2.61 1 3.55 2.28 3.55s2.11-.88 2.24-3.16v-.47h2.78v.5c-.09 4.47-2.62 5.83-5 5.83s-5.13-1.43-5.13-6.06z"/><path d="m602.55 810.74v12.62c0 3.22-2.13 4.23-4 4.23a3.67 3.67 0 0 1 -3.88-3.16h2.39a1.41 1.41 0 0 0 1.46 1c1 0 1.65-.53 1.66-2.44v-.94a2.71 2.71 0 0 1 -2.38 1.2c-1.59 0-3.28-1-3.28-4.41v-8.11h2.34v7c0 2.74.66 3.45 1.66 3.45s1.65-.71 1.66-3.46v-7z"/><path d="m612.07 810.76v12.52h-1.66l-.28-1.28a3 3 0 0 1 -2.71 1.48c-1.59 0-3.36-1-3.36-4.41v-4.13c0-3.37 1.77-4.41 3.36-4.41a2.94 2.94 0 0 1 2.69 1.44l.3-1.21zm-5.66 7.14c0 2.73.62 3.46 1.67 3.46s1.65-.73 1.63-3.46v-1.79c0-2.75-.65-3.45-1.65-3.45s-1.65.7-1.65 3.45z"/><path d="m615.91 812a3 3 0 0 1 2.73-1.51c1.59 0 3.28 1 3.28 4.41v8.34h-2.34v-7.17c0-2.75-.66-3.46-1.66-3.46s-1.66.6-1.66 2.85v7.78h-2.34v-12.48h1.66z"/><path d="m772 496.1-4.21 10.61v6.92h-2.79v-6.91l-4.17-10.62h2.9l2.7 7.43 2.75-7.43z"/><path d="m771.21 505.29c0-3.35 2.11-4.41 4-4.41s4 1 4 4.41v2.95h-5.63v.76c0 2.12.66 2.7 1.65 2.71s1.57-.48 1.64-2.2h2.34c0 3.32-2.15 4.32-4 4.32s-4-1.05-4-4.41zm5.63.27c0-2-.77-2.55-1.64-2.55s-1.64.53-1.64 2.57v.91h3.28z"/><path d="m780.94 496.1h2.35v17.53h-2.35z"/><path d="m785.12 496.1h2.35v17.53h-2.35z"/><path d="m789.12 505.29c0-3.35 2.11-4.41 4-4.41s4 1 4 4.41v4.13c0 3.38-2.14 4.41-4 4.41s-4-1.05-4-4.41zm5.65 1.17c0-2.75-.69-3.45-1.65-3.45s-1.65.7-1.65 3.45v1.8c0 2.72.59 3.45 1.66 3.45s1.66-.73 1.64-3.45z"/><path d="m812.43 501.11-2.65 12.52h-2.84l-1.79-7.94-1.79 7.94h-2.84l-2.65-12.52h2.36l1.88 9.37 2-9.37h2l2 9.37 1.89-9.37z"/><path d="m761 701.86c0-4.63 2.56-6.06 5.06-6.06s5 1.38 5 6v.2h-2.7v-.18c-.07-2.43-1.06-3.34-2.31-3.34s-2.28.94-2.28 3.54v5.46c0 2.61 1 3.56 2.28 3.56s2.31-.89 2.31-3.46v-1.13h-2.24v-2.69h5v3.92c0 4.65-2.57 6.06-5 6.06s-5.12-1.41-5.12-6.04z"/><path d="m775 702.65a3.63 3.63 0 0 1 3.16-1.84v2.11c-1.74 0-2.87 1-2.89 3.51v7.13h-2.34v-12.56h1.66z"/><path d="m779.25 705.22c0-3.36 2.11-4.41 4-4.41s4 1 4 4.41v2.95h-5.63v.75c0 2.12.66 2.71 1.65 2.71s1.58-.48 1.64-2.2h2.34c0 3.32-2.15 4.33-4 4.33s-4-1.06-4-4.41zm5.64.27c0-2-.78-2.55-1.64-2.56s-1.64.54-1.65 2.57v.91h3.29z"/><path d="m788.79 705.22c0-3.36 2.12-4.41 4-4.41s4 1 4 4.41v2.95h-5.63v.75c0 2.12.66 2.71 1.65 2.71s1.58-.48 1.64-2.2h2.34c0 3.32-2.14 4.33-4 4.33s-4-1.06-4-4.41zm5.64.27c0-2-.78-2.55-1.64-2.56s-1.64.54-1.65 2.57v.91h3.29z"/><path d="m800.47 702.32a3 3 0 0 1 2.73-1.51c1.59 0 3.28 1 3.28 4.41v8.34h-2.34v-7.18c0-2.74-.66-3.45-1.66-3.45s-1.66.59-1.66 2.84v7.79h-2.34v-12.56h1.66z"/><path d="m391.53 496.1v17.53h-2.69v-11l-3.17 11h-1.74l-3.17-11v11h-2.69v-17.53h3.4l3.33 11.69 3.33-11.69z"/><path d="m401.11 501.11v12.52h-1.66l-.28-1.27a3 3 0 0 1 -2.71 1.47c-1.59 0-3.36-1-3.36-4.41v-4.13c0-3.37 1.77-4.41 3.36-4.41a3 3 0 0 1 2.7 1.44l.29-1.21zm-5.66 7.15c0 2.72.63 3.45 1.67 3.45s1.65-.73 1.64-3.45v-1.8c0-2.75-.66-3.45-1.65-3.45s-1.66.7-1.66 3.45z"/><path d="m402.82 505.29c0-3.36 1.7-4.4 3.29-4.4a3 3 0 0 1 2.76 1.47l.3-1.26h1.67v12.47c0 3.33-2.12 4.37-4 4.37a3.68 3.68 0 0 1 -3.88-3.16h2.4a1.4 1.4 0 0 0 1.46 1c1 0 1.65-.53 1.66-2.45v-.93a2.69 2.69 0 0 1 -2.38 1.2c-1.59 0-3.29-1-3.29-4.4zm5.66 1.17c0-2.73-.62-3.45-1.64-3.45s-1.66.72-1.67 3.45v1.71c0 2.74.64 3.45 1.66 3.45s1.65-.71 1.65-3.45z"/><path d="m412.54 505.29c0-3.36 2.11-4.41 4-4.41s4 1 4 4.41v2.95h-5.64v.76c0 2.13.66 2.71 1.65 2.72s1.57-.48 1.64-2.2h2.34c0 3.32-2.15 4.32-4 4.32s-4-1.05-4-4.41zm5.63.27c0-2-.77-2.55-1.64-2.55s-1.64.53-1.65 2.57v.91h3.29z"/><path d="m424.21 502.4a3 3 0 0 1 2.73-1.52c1.59 0 3.29 1 3.29 4.41v8.34h-2.35v-7.17c0-2.75-.66-3.45-1.65-3.45s-1.66.59-1.67 2.84v7.78h-2.34v-12.52h1.66z"/><path d="m435.29 508.7c0 2.55.42 3 1.8 3h.33v2.12h-.95c-2 0-3.52-.79-3.52-4.51v-6.13h-1.55v-2.11h1.6v-3.83h2.34v3.83h2.13v2.11h-2.13z"/><path d="m446.62 501.11v12.52h-1.62l-.29-1.27a3 3 0 0 1 -2.71 1.47c-1.59 0-3.35-1-3.35-4.41v-4.13c0-3.37 1.76-4.41 3.35-4.41a3 3 0 0 1 2.7 1.44l.3-1.21zm-5.62 7.15c0 2.72.63 3.45 1.67 3.45s1.65-.73 1.64-3.45v-1.8c0-2.75-.66-3.45-1.65-3.45s-1.66.7-1.66 3.45z"/><path d="m408.83 693.52c2.43 0 5 1.13 5 4.13v.9a3.61 3.61 0 0 1 -2.13 3.44 3.87 3.87 0 0 1 2.52 3.85v.78c0 2.88-2.05 4.43-5.26 4.43h-4.56v-17.53zm2.57 12.2a2.21 2.21 0 0 0 -2.5-2.37h-1.72v5h1.72a2.21 2.21 0 0 0 2.5-2.37zm-.27-7.33a2.11 2.11 0 0 0 -2.35-2.17h-1.59v4.58h1.59a2.08 2.08 0 0 0 2.35-2.16z"/><path d="m415.94 693.52h2.35v17.53h-2.35z"/><path d="m428 698.53v12.52h-1.66l-.33-1.29a3 3 0 0 1 -2.73 1.52c-1.59 0-3.29-1-3.29-4.41v-8.34h2.35v7.17c0 2.75.66 3.45 1.66 3.45s1.65-.59 1.66-2.84v-7.78z"/><path d="m429.63 702.71c0-3.35 2.11-4.41 4-4.41s4 1 4 4.41v2.95h-5.63v.75c0 2.13.66 2.71 1.65 2.72s1.57-.48 1.64-2.2h2.34c0 3.32-2.15 4.32-4 4.32s-4-1-4-4.41zm5.63.27c0-2-.77-2.55-1.64-2.55s-1.62.57-1.62 2.57v.91h3.29z"/></g></g></svg>