<svg enable-background="new 0 0 283.5 283.5" viewBox="0 0 283.5 283.5" xmlns="http://www.w3.org/2000/svg"><path d="m104.4 130.9c0-26.8 14.2-51.4 37.4-64.8-35.8-20.6-81.5-8.4-102.1 27.4s-8.3 81.4 27.4 102.1c0-26.7 14.2-51.4 37.3-64.7z" fill="#ec008c"/><path d="m253.8 130.8c0-41.3-33.4-74.7-74.7-74.7-13.1 0-26 3.5-37.4 10 23.1 13.3 37.4 38 37.4 64.7 23.1 13.3 37.4 38 37.4 64.7 23.1-13.4 37.3-38 37.3-64.7z" fill="#fced00"/><path d="m104.4 130.8c23.1-13.3 51.6-13.3 74.7 0 0-26.7-14.2-51.4-37.4-64.7-23.1 13.3-37.3 38-37.3 64.7z" fill="#ec2124"/><path d="m141.7 195.5c-23.1 13.3-51.6 13.3-74.7 0 .5 41.3 34.3 74.3 75.6 73.9 40.6-.5 73.4-33.3 73.9-73.9v-.1c-23.1 13.4-51.6 13.4-74.8.1z" fill="#00aeef"/><path d="m141.7 195.5c-23.1-13.3-37.3-38-37.4-64.6-23.1 13.4-37.3 38-37.3 64.7 23.2 13.3 51.6 13.3 74.7-.1z" fill="#2e3091"/><path d="m179.1 130.8c0 26.7-14.2 51.4-37.4 64.7 23.1 13.4 51.7 13.4 74.8 0 0-26.7-14.2-51.4-37.4-64.7z" fill="#00a550"/><g fill="#231f20"><path d="m104.4 130.9c0 26.7 14.3 51.3 37.4 64.6 23.1-13.3 37.4-38 37.4-64.7-23.2-13.4-51.7-13.3-74.8.1z"/><path d="m219.2 102.5-5.5 13.4v9h-3v-9l-5.4-13.4h3l3.9 10.2 4-10.2z"/><path d="m77.8 103.4v22.4h-2.8v-15.7l-4.7 15.7h-1.8l-4.8-15.7v15.7h-2.7v-22.4h3.4l5 16.5 4.9-16.5z"/><path d="m135.9 228.9c0-5.9 3.3-7.7 6.5-7.7 3.1 0 6.2 1.7 6.4 7.3v.6h-2.8v-.5c-.2-3.5-1.7-4.7-3.6-4.7-2 0-3.6 1.3-3.6 5.3v6.9c0 4 1.6 5.3 3.6 5.3 1.8 0 3.3-1.2 3.6-4.6v-.6h2.8v.6c-.1 5.6-3.3 7.4-6.4 7.4-3.2 0-6.5-1.8-6.5-7.7z"/></g><path d="m43.1 33.7c0 3.7 2.4 5 4.5 5 2.6 0 4.5-1.3 4.5-4.3 0-2.9-1.9-3.9-4.6-4.7-2.2-.6-5.8-1.6-5.8-6 0-4.5 3.1-6 6.1-6 2.9 0 6.1 1.8 6.1 7h-2c0-3.5-2.1-5-4.1-5-2.1 0-4 1.2-4 3.8.1 3.3 3.1 3.7 4.5 4.1 4.1 1.1 5.8 3.1 5.8 6.5 0 4.9-3 6.5-6.6 6.5-3 0-6.5-1.8-6.5-7h2.1z"/><g enable-background="new"><path d="m66.6 24.4v16h-1.4l-.2-2.1c-.8 1.7-2.2 2.4-3.8 2.4-2.2 0-4.4-1.3-4.4-5.6v-10.7h1.8v9.8c0 3.9 1.5 4.9 3.1 4.9s3.1-.9 3.1-4.5v-10.2z"/><path d="m71.3 26.2c.7-1.5 2.1-2.1 3.5-2.1 2.2 0 4.4 1.3 4.4 5.6v5.3c0 4.3-2.3 5.6-4.4 5.6-1.6 0-3-.7-3.8-2.4l-.2 2.1h-1.4v-22.3h1.8v8.2zm6.2 4.4c0-3.9-1.5-4.9-3.1-4.9-1.7 0-3.1 1-3.1 4.9v3.5c0 3.9 1.3 4.9 3.1 4.9 1.7 0 3.1-1 3.1-4.9z"/><path d="m86 34.3c0 4.3.8 4.7 3 4.7h.4v1.6h-.8c-2.7 0-4.4-.8-4.4-5.8v-8.8h-2.4v-1.6h2.4v-4.9h1.8v4.9h3.4v1.6h-3.4z"/></g><path d="m93.8 26.9c.8-1.8 2.4-2.8 4.1-2.8v1.6c-2.2 0-3.9 1.5-3.9 5.1v9.6h-1.8v-16h1.4z"/><path d="m109.6 24.4v16h-1.4l-.2-2.1c-.8 1.7-2.2 2.3-3.7 2.3-2.2 0-4.5-1.3-4.5-5.6v-5.3c0-4.3 2.3-5.6 4.5-5.6 1.6 0 3 .7 3.7 2.3l.2-2zm-8 9.8c0 3.9 1.4 4.9 3.1 4.9s3.1-1 3.1-4.9v-3.5c0-3.9-1.4-4.9-3.1-4.9-1.6 0-3.1 1-3.1 4.9z"/><path d="m112.4 29.7c0-4.3 2.5-5.6 4.9-5.6 2.3 0 4.7 1.2 4.9 5.3v.6h-1.8c-.1-3.4-1.5-4.3-3.1-4.3-1.7 0-3.1 1-3.1 4.9v3.5c0 3.9 1.3 4.9 3.1 4.9 1.6 0 3-.9 3.1-4.3h1.8v.5c-.1 4.1-2.6 5.4-4.9 5.4s-4.9-1.3-4.9-5.6z"/><g enable-background="new"><path d="m128.1 34.3c0 4.3.8 4.7 3 4.7h.4v1.6h-.8c-2.7 0-4.4-.8-4.4-5.8v-8.8h-2.4v-1.6h2.4v-4.9h1.8v4.9h3.4v1.6h-3.4z"/><path d="m134.3 19.7h2.1v2h-2.1zm.2 4.7h1.8v16h-1.8z"/></g><path d="m151.1 24.4-5 16h-2l-4.9-16h1.8l4.1 13.3 4.1-13.3z"/><g enable-background="new"><path d="m152.2 29.7c0-4.3 2.5-5.6 4.9-5.6 2.3 0 4.9 1.3 4.9 5.6v3.5h-8v1.4c0 3.5 1.4 4.4 3.1 4.4 1.5 0 2.9-.8 3.1-3.8h1.8c-.1 4.2-2.6 5.4-4.9 5.4s-4.9-1.3-4.9-5.6zm8 .3c0-3.4-1.5-4.3-3.1-4.3s-3.1.9-3.1 4.3v1.7h6.1v-1.7z"/><path d="m176 26.5c.8-1.6 2.2-2.4 3.8-2.4s3.3.7 4 2.9c.7-2 2.2-2.9 4-2.9 2.2 0 4.4 1.3 4.4 5.6v10.7h-1.8v-9.8c0-3.9-1.5-4.9-3.1-4.9-1.5 0-2.8.7-3 3.5v11.1h-1.8v-9.8c0-3.9-1.5-4.9-3.1-4.9s-3.1.9-3.1 4.3v10.3h-1.8v-16h1.4z"/><path d="m194.8 29.7c0-4.3 2.5-5.6 4.9-5.6 2.3 0 4.9 1.3 4.9 5.6v5.3c0 4.3-2.5 5.6-4.9 5.6-2.3 0-4.9-1.3-4.9-5.6zm8 .9c0-3.9-1.5-4.9-3.1-4.9-1.7 0-3.1 1-3.1 4.9v3.5c0 3.9 1.3 4.9 3.1 4.9 1.7 0 3.1-1 3.1-4.9z"/><path d="m217 18v22.4h-1.4l-.2-2.1c-.8 1.7-2.2 2.4-3.8 2.4-2.2 0-4.4-1.3-4.4-5.6v-5.3c0-4.3 2.3-5.6 4.4-5.6 1.5 0 2.8.6 3.5 2.1v-8.3zm-8 16.2c0 3.9 1.4 4.9 3.1 4.9s3.1-1 3.1-4.9v-3.5c0-3.9-1.4-4.9-3.1-4.9-1.6 0-3.1 1-3.1 4.9z"/><path d="m219.8 29.7c0-4.3 2.5-5.6 4.9-5.6 2.3 0 4.9 1.3 4.9 5.6v3.5h-7.9v1.4c0 3.5 1.4 4.4 3.1 4.4 1.5 0 2.9-.8 3.1-3.8h1.8c-.1 4.2-2.6 5.4-4.9 5.4s-4.9-1.3-4.9-5.6v-5.3zm7.9.3c0-3.4-1.5-4.3-3.1-4.3s-3.1.9-3.1 4.3v1.7h6.1v-1.7z"/><path d="m232.4 18h1.8v22.4h-1.8z"/></g></svg>