<svg enable-background="new 0 0 357 425.6" viewBox="0 0 357 425.6" xmlns="http://www.w3.org/2000/svg"><path d="m20.6 161.5c48.3-18.1 58.6-17.9 105.6 0 44.2 17.8 59 18.4 105 0s61.7-17.5 105.4 0c-44.1 18.1-62 17.7-105.4 0s-58.5-18-105.3 0-56.9 18.5-105.3 0z" fill="none" stroke="#231f20" stroke-width="1.42"/><path d="m99.7 210.8c33.2-18.1 46.6-17.6 79.1.2s43.8 18 78.9 0 42.6-18.4 78.9 0c-36.2 18.1-43.9 17.9-79.1 0-33.1-17.8-44.2-18.4-78.6 0s-46.5 17.2-79.2-.2c-32.7-17.5-47.1-17.5-78.6 0 32 16.7 45.4 18.1 78.6 0z" fill="none" stroke="#231f20" stroke-width="1.42"/><path d="m201.2 358.5c-19.3-17.8-26.4-17.9-44.9 0s-26.4 18.2-45.5 0-26.2-18-45.1 0c-18.6 17.7-26.3 17.7-45.1 0 20.1-17.8 25.1-17.9 45.2 0 18.9 17.8 26.7 17.9 45 0 18.5-18.1 26.5-17.5 45.2 0s26.4 17.8 45.2 0c18.9-17.8 26.5-17.9 45.1 0s27.2 17.6 45.2 0 27.2-17.8 45.1 0c-18.2 18-26.6 17.9-45.1 0s-27.3-18-45.2 0-26 17.5-45.1 0z" fill="none" stroke="#231f20" stroke-width="1.42"/><path d="m125.9 309.3c22.5 17.8 30.5 18.2 52.7 0s30.9-18 52.7 0 30.5 18 52.6 0c21.7-17.7 30.7-17.7 52.6 0-23.4 17.8-29.3 17.9-52.7 0-22.1-17.8-31.1-17.9-52.4 0-21.5 18.1-31.2 17.8-52.7 0-21.8-18-30.7-17.8-52.8 0s-30.9 17.9-52.6 0-31.8-17.6-52.7 0c21.1 17.6 31.1 18 52.7 0 21-18 30.4-17.5 52.6 0z" fill="none" stroke="#231f20" stroke-width="1.42"/><path d="m336.5 260c-25.1 18-36.4 17.5-63.1 0-27-17.8-36.1-18.3-62.9 0s-37.5 18-63.7 0-36.6-18-63.1 0c-26 17.7-36.8 17.7-63.1 0 28.1-17.8 35.2-17.9 63.3 0 26.5 17.8 37.3 17.9 62.9 0 25.9-18.1 37.8-17.8 63.7 0 26.1 18 36.4 17.8 62.9 0s37.1-17.9 63.1 0z" fill="none" stroke="#231f20" stroke-width="1.42"/><path d="m336.5 112.3c-65.5 18.1-91.6 18.1-158 0-65-17.7-92.1-17.7-157.9 0 70.3 17.8 88 17.9 158.4 0 66.4-17.8 93.4-17.9 157.5 0z" fill="none" stroke="#231f20" stroke-width="1.42"/><path d="m336.5 63.2c-129.5 17.9-181.8 19.1-315.9 0 134.1-19.4 183.6-18.1 315.9 0z" fill="none" stroke="#231f20" stroke-width="1.42"/><g fill="#231f20"><g enable-background="new"><path d="m176.2 102v3.9h-.4v-3.9h-.4v-.4h.8z"/><path d="m178.6 101.4h.4l-1.8 4.5h-.4z"/><path d="m180.9 101.6c.6 0 1.2.3 1.2 1.3 0 1.3-2 1.4-2.1 2.6h2.1v.4h-2.6v-.2c0-1.6 2.2-1.6 2.2-2.8 0-.7-.4-.9-.8-.9h-.1c-.4 0-.8.2-.9.8h-.4v-.1c.2-.8.8-1.1 1.4-1.1z"/></g><g enable-background="new"><path d="m121.9 151.2v3.9h-.4v-3.9h-.4v-.4h.8z"/><path d="m124.3 150.5h.4l-1.8 4.5h-.4z"/><path d="m126.6 150.7c.5 0 1.2.3 1.2 1.1v.1c0 .5-.3.8-.7.9.4.1.7.5.7 1v.1c0 .8-.6 1.2-1.3 1.2h-.1c-.5 0-1.2-.3-1.3-1.2h.4c.1.7.5.9.9.9h.1c.4 0 .8-.3.8-.8 0-.5-.4-.8-.9-.8h-.4v-.4h.4c.4 0 .9-.2.9-.8 0-.5-.5-.7-.8-.7h-.1c-.4 0-.8.2-.9.8h-.4c.1-.8.8-1.2 1.3-1.2h.2z"/></g><g enable-background="new"><path d="m229 150.7c.6 0 1.2.3 1.2 1.3 0 1.3-2 1.4-2.1 2.6h2.1v.4h-2.6v-.2c0-1.6 2.2-1.6 2.2-2.8 0-.7-.4-.9-.8-.9h-.1c-.4 0-.8.2-.9.8h-.4v-.1c.1-.8.8-1.1 1.4-1.1z"/><path d="m232.5 150.5h.4l-1.8 4.5h-.4z"/><path d="m234.8 150.7c.5 0 1.2.3 1.2 1.1v.1c0 .5-.3.8-.7.9.4.1.7.5.7 1v.1c0 .8-.6 1.2-1.3 1.2h-.1c-.5 0-1.2-.3-1.3-1.2h.4c.1.7.5.9.9.9h.1c.4 0 .8-.3.8-.8 0-.5-.4-.8-.9-.8h-.4v-.4h.4c.4 0 .9-.2.9-.8 0-.5-.5-.7-.8-.7h-.1c-.4 0-.8.2-.9.8h-.4c.1-.8.8-1.2 1.3-1.2h.2z"/></g><g enable-background="new"><path d="m96.7 200.3v3.9h-.4v-3.9h-.4v-.4h.8z"/><path d="m99.1 199.6h.4l-1.8 4.5h-.4z"/><path d="m102.7 203.2h-.4v1h-.4v-1h-1.9v-.5l1.3-2.8h.4l-1.3 2.9h1.4v-1.9h.4v1.9h.4v.4z"/></g><g enable-background="new"><path d="m255.6 199.8c.5 0 1.2.3 1.2 1.1v.1c0 .5-.3.8-.7.9.4.1.7.5.7 1v.1c0 .8-.6 1.2-1.3 1.2h-.1c-.5 0-1.2-.3-1.3-1.2h.4c.1.7.5.9.9.9h.1c.4 0 .8-.3.8-.8 0-.5-.4-.8-.9-.8h-.4v-.4h.4c.4 0 .9-.2.9-.8 0-.5-.5-.7-.8-.7h-.1c-.4 0-.8.2-.9.8h-.4c.1-.8.8-1.2 1.3-1.2h.2z"/><path d="m259.1 199.6h.4l-1.8 4.5h-.4z"/><path d="m262.8 203.2h-.4v1h-.4v-1h-1.9v-.5l1.3-2.8h.4l-1.3 2.9h1.4v-1.9h.4v1.9h.4v.4z"/></g><g enable-background="new"><path d="m80.7 249.4v3.9h-.4v-3.9h-.4v-.4h.8z"/><path d="m83.1 248.7h.4l-1.8 4.5h-.4z"/><path d="m86.4 249v.4h-1.7v1.3h.5.7c.6.1.9.6.9 1.1v.3c0 .8-.6 1.2-1.2 1.2h-.1c-.5 0-1.2-.3-1.3-1.2h.4c.1.7.5.9.9.9h.1c.4 0 .8-.3.8-.8v-.3c0-.6-.4-.8-.9-.8h-1.1v-2.1z"/></g><g enable-background="new"><path d="m144.2 248.9c.6 0 1.2.3 1.2 1.3 0 1.3-2 1.4-2.1 2.6h2.1v.4h-2.6v-.2c0-1.6 2.2-1.6 2.2-2.8 0-.7-.4-.9-.8-.9h-.1c-.4 0-.8.2-.9.8h-.4v-.1c.2-.7.8-1 1.4-1.1z"/><path d="m147.8 248.7h.4l-1.8 4.5h-.4z"/><path d="m151.1 249v.4h-1.7v1.3h.5.7c.6.1.9.6.9 1.1v.3c0 .8-.6 1.2-1.2 1.2h-.3c-.5 0-1.2-.3-1.3-1.2h.4c.1.7.5.9.9.9h.1c.4 0 .8-.3.8-.8v-.3c0-.6-.4-.8-.9-.8h-1.1v-2.1z"/></g><g enable-background="new"><path d="m207.5 248.9c.5 0 1.2.3 1.2 1.1v.1c0 .5-.3.8-.7.9.4.1.7.5.7 1v.1c0 .8-.6 1.2-1.3 1.2h-.1c-.5 0-1.2-.3-1.3-1.2h.4c.1.7.5.9.9.9h.1c.4 0 .8-.3.8-.8 0-.5-.4-.8-.9-.8h-.3v-.4h.4c.4 0 .9-.2.9-.8 0-.5-.5-.7-.8-.7h-.1c-.4 0-.8.2-.9.8h-.4c.1-.8.8-1.2 1.3-1.2h.1z"/><path d="m211.1 248.7h.4l-1.8 4.5h-.4z"/><path d="m214.4 249v.4h-1.7v1.3h.5.7c.6.1.9.6.9 1.1v.3c0 .8-.6 1.2-1.2 1.2h-.1c-.5 0-1.2-.3-1.3-1.2h.4c.1.7.5.9.9.9h.1c.4 0 .8-.3.8-.8v-.3c0-.6-.4-.8-.9-.8h-1.1v-2.1z"/></g><g enable-background="new"><path d="m272.6 252.3h-.4v1h-.4v-1h-1.9v-.5l1.3-2.8h.4l-1.3 2.9h1.4v-1.9h.4v1.9h.4v.4z"/><path d="m274.9 248.7h.4l-1.8 4.5h-.4z"/><path d="m278.2 249v.4h-1.7v1.3h.5.7c.6.1.9.6.9 1.1v.3c0 .8-.6 1.2-1.2 1.2h-.1c-.5 0-1.2-.3-1.3-1.2h.4c.1.7.5.9.9.9h.1c.4 0 .8-.3.8-.8v-.3c0-.6-.4-.8-.9-.8h-1.3v-2.1z"/></g><g enable-background="new"><path d="m69.7 298.5v3.9h-.4v-3.9h-.4v-.4h.8z"/><path d="m72.1 297.9h.4l-1.8 4.5h-.4z"/><path d="m73 299.6c0-1.2.7-1.6 1.4-1.6.6 0 1.2.3 1.3 1.2h-.4c0-.6-.4-.8-.8-.8-.5 0-.9.3-.9 1.2v.7c.1-.3.4-.5.8-.5h.3c.9 0 1.1.7 1.1 1.3s-.3 1.3-1.2 1.3h-.3c-.8 0-1.2-.6-1.2-1.3v-1.5zm1.5 2.4c.6 0 .8-.5.8-.9s-.2-.9-.8-.9h-.2c-.6 0-.8.5-.8.9s.2.9.8.9z"/></g><g enable-background="new"><path d="m283 298.1v.4h-1.7v1.3h.5.7c.6.1.9.6.9 1.1v.3c0 .8-.6 1.2-1.2 1.2h-.2c-.5 0-1.2-.3-1.3-1.2h.4c.1.7.5.9.9.9h.1c.4 0 .8-.3.8-.8v-.3c0-.6-.4-.8-.9-.8h-1.1v-2.1z"/><path d="m285.6 297.9h.4l-1.8 4.5h-.4z"/><path d="m286.6 299.6c0-1.2.7-1.6 1.3-1.6s1.2.3 1.3 1.2h-.4c0-.6-.4-.8-.8-.8-.5 0-.9.3-.9 1.2v.7c.1-.3.4-.5.8-.5h.3c.9 0 1.1.7 1.1 1.3s-.3 1.3-1.2 1.3h-.3c-.8 0-1.2-.6-1.2-1.3zm1.4 2.4c.6 0 .8-.5.8-.9s-.2-.9-.8-.9h-.2c-.6 0-.8.5-.8.9s.2.9.8.9z"/></g><g enable-background="new"><path d="m63 347.6v3.9h-.4v-3.9h-.4v-.4h.8z"/><path d="m65.4 347h.4l-1.8 4.5h-.4z"/><path d="m68.8 347.2v.3l-1.7 3.9h-.4l1.7-3.9h-2v-.4h2.4z"/></g><g enable-background="new"><path d="m108.8 347.2c.6 0 1.2.3 1.2 1.3 0 1.3-2 1.4-2.1 2.6h2.1v.4h-2.6v-.2c0-1.6 2.2-1.6 2.2-2.8 0-.7-.4-.9-.8-.9h-.1c-.4 0-.8.2-.9.8h-.4v-.1c.2-.8.8-1.1 1.4-1.1z"/><path d="m112.4 347h.4l-1.8 4.5h-.4z"/><path d="m115.8 347.2v.3l-1.7 3.9h-.4l1.7-3.9h-2v-.4h2.4z"/></g><g enable-background="new"><path d="m155.2 347.2c.5 0 1.2.3 1.2 1.1v.1c0 .5-.3.8-.7.9.4.1.7.5.7 1v.1c0 .8-.6 1.2-1.3 1.2h-.1c-.5 0-1.2-.3-1.3-1.2h.4c.1.7.5.9.9.9h.1c.4 0 .8-.3.8-.8 0-.5-.4-.8-.9-.8h-.4v-.4h.4c.4 0 .9-.2.9-.8 0-.5-.5-.7-.8-.7h-.1c-.4 0-.8.2-.9.8h-.4c.1-.8.8-1.2 1.3-1.2h.2z"/><path d="m158.8 347h.4l-1.8 4.5h-.4z"/><path d="m162.2 347.2v.3l-1.7 3.9h-.4l1.7-3.9h-2v-.4h2.4z"/></g><g enable-background="new"><path d="m200.5 350.5h-.4v1h-.4v-1h-1.9v-.5l1.3-2.8h.4l-1.3 2.9h1.4v-1.9h.4v1.9h.4v.4z"/><path d="m202.8 347h.4l-1.8 4.5h-.4z"/><path d="m206.2 347.2v.3l-1.7 3.9h-.4l1.7-3.9h-2v-.4h2.4z"/></g><g enable-background="new"><path d="m245.7 347.2v.4h-1.7v1.3h.5.7c.6.1.9.6.9 1.1v.3c0 .8-.6 1.2-1.2 1.2h-.1c-.5 0-1.2-.3-1.3-1.2h.4c.1.7.5.9.9.9h.1c.4 0 .8-.3.8-.8v-.3c0-.6-.4-.8-.9-.8h-1.1v-2.1z"/><path d="m248.3 347h.4l-1.8 4.5h-.4z"/><path d="m251.8 347.2v.3l-1.7 3.9h-.4l1.7-3.9h-2v-.4h2.4z"/></g><g enable-background="new"><path d="m288.1 348.7c0-1.2.7-1.6 1.4-1.6.6 0 1.2.3 1.3 1.2h-.4c0-.6-.4-.8-.8-.8-.5 0-.9.3-.9 1.2v.7c.1-.3.4-.5.8-.5h.3c.9 0 1.1.7 1.1 1.3s-.3 1.3-1.2 1.3h-.3c-.8 0-1.2-.6-1.2-1.3v-1.5zm1.5 2.4c.6 0 .8-.5.8-.9s-.2-.9-.8-.9h-.2c-.6 0-.8.5-.8.9s.2.9.8.9z"/><path d="m293.1 347h.4l-1.8 4.5h-.4z"/><path d="m296.5 347.2v.3l-1.7 3.9h-.4l1.7-3.9h-2v-.4h2.4z"/></g><g enable-background="new"><path d="m175.4 399.6v3.6h-.4v-3.6h-.3v-.4h.7z"/><path d="m177.5 399h.4l-1.6 4.2h-.4z"/><path d="m179.6 399.2c.5 0 1.1.3 1.1 1.2 0 1.2-1.8 1.3-1.9 2.4h1.8v.4h-2.3v-.2c0-1.4 1.9-1.5 1.9-2.6 0-.6-.4-.8-.7-.8-.3 0-.7.2-.8.8h-.4c.2-.9.7-1.2 1.3-1.2z"/></g><g enable-background="new"><path d="m122.4 399.6v3.6h-.4v-3.6h-.3v-.4h.7z"/><path d="m124.6 399h.4l-1.6 4.2h-.4z"/><path d="m126.6 399.2c.4 0 1.1.3 1.1 1v.1c0 .4-.3.7-.6.8.4.1.6.5.6.9v.1c0 .7-.6 1.1-1.1 1.1h-.1c-.5 0-1.1-.3-1.1-1.2h.4c.1.6.5.8.8.8h.1c.4 0 .7-.2.7-.7 0-.5-.3-.7-.8-.7h-.3v-.4h.3c.4 0 .8-.2.8-.7 0-.5-.4-.7-.7-.7h-.1c-.3 0-.7.2-.8.8h-.4c.1-.9.6-1.2 1.2-1.2z"/></g><g enable-background="new"><path d="m229.7 399.2c.5 0 1.1.3 1.1 1.2 0 1.2-1.8 1.3-1.9 2.4h1.8v.4h-2.3v-.2c0-1.4 1.9-1.5 1.9-2.6 0-.6-.4-.8-.7-.8-.3 0-.7.2-.8.8h-.4c.2-.9.7-1.2 1.3-1.2z"/><path d="m232.8 399h.4l-1.6 4.2h-.4z"/><path d="m234.9 399.2c.4 0 1.1.3 1.1 1v.1c0 .4-.3.7-.6.8.4.1.6.5.6.9v.1c0 .7-.6 1.1-1.1 1.1h-.1c-.5 0-1.1-.3-1.1-1.2h.4c.1.6.5.8.8.8h.1c.4 0 .7-.2.7-.7 0-.5-.3-.7-.8-.7h-.3v-.4h.3c.4 0 .8-.2.8-.7 0-.5-.4-.7-.7-.7h-.1c-.3 0-.7.2-.8.8h-.4c.1-.9.6-1.2 1.2-1.2z"/></g><g enable-background="new"><path d="m96.4 399.6v3.6h-.4v-3.6h-.3v-.4h.7z"/><path d="m98.6 399h.4l-1.6 4.2h-.4z"/><path d="m101.8 402.3h-.4v.9h-.4v-.9h-1.6v-.4l1.2-2.6h.4l-1.2 2.7h1.3v-1.7h.4v1.7h.4v.3z"/></g><g enable-background="new"><path d="m255.7 399.2c.4 0 1.1.3 1.1 1v.1c0 .4-.3.7-.6.8.4.1.6.5.6.9v.1c0 .7-.6 1.1-1.1 1.1h-.1c-.5 0-1.1-.3-1.1-1.2h.4c.1.6.5.8.8.8h.1c.4 0 .7-.2.7-.7 0-.5-.3-.7-.8-.7h-.3v-.4h.3c.4 0 .8-.2.8-.7 0-.5-.4-.7-.7-.7h-.1c-.3 0-.7.2-.8.8h-.4c.1-.9.7-1.2 1.2-1.2z"/><path d="m258.9 399h.4l-1.6 4.2h-.4z"/><path d="m262.1 402.3h-.4v.9h-.4v-.9h-1.6v-.4l1.2-2.6h.4l-1.2 2.7h1.3v-1.7h.4v1.7h.4v.3z"/></g><g enable-background="new"><path d="m81 399.6v3.6h-.4v-3.6h-.3v-.4h.7z"/><path d="m83.1 399h.4l-1.6 4.2h-.4z"/><path d="m86 399.2v.4h-1.5v1.2h.5.6c.5.1.8.5.8 1v.3c0 .7-.6 1.1-1.1 1.1h-.1c-.5 0-1.1-.3-1.1-1.1h.4c.1.6.5.8.8.8h.1c.4 0 .7-.2.7-.8v-.2c0-.5-.3-.7-.8-.7h-1v-1.9h1.7z"/></g><g enable-background="new"><path d="m143.6 399.2c.5 0 1.1.3 1.1 1.2 0 1.2-1.8 1.3-1.9 2.4h1.8v.4h-2.3v-.2c0-1.4 1.9-1.5 1.9-2.6 0-.6-.4-.8-.7-.8-.3 0-.7.2-.8.8h-.4c.2-.9.8-1.2 1.3-1.2z"/><path d="m146.8 399h.4l-1.6 4.2h-.4z"/><path d="m149.7 399.2v.4h-1.5v1.2h.5.6c.5.1.8.5.8 1v.3c0 .7-.6 1.1-1.1 1.1h-.1c-.5 0-1.1-.3-1.1-1.1h.4c.1.6.5.8.8.8h.1c.4 0 .7-.2.7-.8v-.2c0-.5-.3-.7-.8-.7h-1v-1.9h1.7z"/></g><g enable-background="new"><path d="m208.7 399.2c.4 0 1.1.3 1.1 1v.1c0 .4-.3.7-.6.8.4.1.6.5.6.9v.1c0 .7-.6 1.1-1.1 1.1h-.1c-.5 0-1.1-.3-1.1-1.2h.4c.1.6.5.8.8.8h.1c.4 0 .7-.2.7-.7 0-.5-.3-.7-.8-.7h-.3v-.4h.3c.4 0 .8-.2.8-.7 0-.5-.4-.7-.7-.7h-.1c-.3 0-.7.2-.8.8h-.4c.1-.9.7-1.2 1.2-1.2z"/><path d="m211.9 399h.4l-1.6 4.2h-.4z"/><path d="m214.8 399.2v.4h-1.5v1.2h.5.6c.5.1.8.5.8 1v.3c0 .7-.6 1.1-1.1 1.1h-.1c-.5 0-1.1-.3-1.1-1.1h.4c.1.6.5.8.8.8h.1c.4 0 .7-.2.7-.8v-.2c0-.5-.3-.7-.8-.7h-1v-1.9h1.7z"/></g><g enable-background="new"><path d="m272.1 402.3h-.4v.9h-.4v-.9h-1.6v-.4l1.2-2.6h.4l-1.2 2.7h1.3v-1.7h.4v1.7h.4v.3z"/><path d="m274.1 399h.4l-1.6 4.2h-.4z"/><path d="m277.1 399.2v.4h-1.5v1.2h.5.6c.5.1.8.5.8 1v.3c0 .7-.6 1.1-1.1 1.1h-.1c-.5 0-1.1-.3-1.1-1.1h.4c.1.6.5.8.8.8h.1c.4 0 .7-.2.7-.8v-.2c0-.5-.3-.7-.8-.7h-1v-1.9h1.7z"/></g><g enable-background="new"><path d="m70.8 399.6v3.6h-.4v-3.6h-.4v-.4h.7v.4z"/><path d="m72.9 399h.4l-1.6 4.2h-.4z"/><path d="m73.7 400.6c0-1.1.6-1.4 1.2-1.4.5 0 1.1.3 1.1 1.1h-.4c0-.6-.4-.8-.7-.8-.4 0-.8.2-.8 1.1v.6c.1-.3.4-.5.7-.5h.2c.8 0 1 .7 1 1.2s-.2 1.2-1 1.2h-.2c-.7 0-1-.5-1.1-1.2zm1.3 2.3c.5 0 .7-.4.7-.8s-.2-.8-.7-.8h-.2c-.5 0-.7.4-.7.8s.2.8.7.8z"/></g><g enable-background="new"><path d="m282 399.2v.4h-1.5v1.2h.5.6c.5.1.8.5.8 1v.3c0 .7-.6 1.1-1.1 1.1h-.1c-.5 0-1.1-.3-1.1-1.1h.4c.1.6.5.8.8.8h.1c.4 0 .7-.2.7-.8v-.2c0-.5-.3-.7-.8-.7h-1v-1.9h1.7z"/><path d="m284.3 399h.4l-1.6 4.2h-.4z"/><path d="m285.2 400.6c0-1.1.6-1.4 1.2-1.4.5 0 1.1.3 1.1 1.1h-.4c0-.6-.4-.8-.7-.8-.4 0-.8.2-.8 1.1v.6c.1-.3.4-.5.7-.5h.2c.8 0 1 .7 1 1.2s-.2 1.2-1 1.2h-.2c-.7 0-1-.5-1.1-1.2zm1.2 2.3c.5 0 .7-.4.7-.8s-.2-.8-.7-.8h-.2c-.5 0-.7.4-.7.8s.2.8.7.8z"/></g><g enable-background="new"><path d="m60.3 399.6v3.6h-.4v-3.6h-.3v-.4h.7z"/><path d="m62.4 399h.4l-1.6 4.2h-.4z"/><path d="m65.4 399.2v.3l-1.5 3.6h-.4l1.5-3.6h-1.8v-.4h2.2z"/></g><g enable-background="new"><path d="m108.8 399.2c.5 0 1.1.3 1.1 1.2 0 1.2-1.8 1.3-1.9 2.4h1.8v.4h-2.3v-.2c0-1.4 1.9-1.5 1.9-2.6 0-.6-.4-.8-.7-.8-.3 0-.7.2-.8.8h-.4c.2-.9.7-1.2 1.3-1.2z"/><path d="m111.9 399h.4l-1.6 4.2h-.4z"/><path d="m114.9 399.2v.3l-1.5 3.6h-.4l1.5-3.6h-1.8v-.4h2.2z"/></g><g enable-background="new"><path d="m153.6 399.2c.4 0 1.1.3 1.1 1v.1c0 .4-.3.7-.6.8.4.1.6.5.6.9v.1c0 .7-.6 1.1-1.1 1.1h-.1c-.5 0-1.1-.3-1.1-1.2h.4c.1.6.5.8.8.8h.1c.4 0 .7-.2.7-.7 0-.5-.3-.7-.8-.7h-.3v-.4h.3c.4 0 .8-.2.8-.7 0-.5-.4-.7-.7-.7h-.1c-.3 0-.7.2-.8.8h-.4c.1-.9.6-1.2 1.2-1.2z"/><path d="m156.8 399h.4l-1.6 4.2h-.4z"/><path d="m159.8 399.2v.3l-1.5 3.6h-.4l1.5-3.6h-1.8v-.4h2.2z"/></g><g enable-background="new"><path d="m199.7 402.3h-.4v.9h-.3v-.9h-1.6v-.4l1.2-2.6h.4l-1.2 2.7h1.3v-1.7h.4v1.7h.4v.3z"/><path d="m201.8 399h.4l-1.6 4.2h-.4z"/><path d="m204.8 399.2v.3l-1.5 3.6h-.4l1.5-3.6h-1.8v-.4h2.2z"/></g><g enable-background="new"><path d="m245 399.2v.4h-1.5v1.2h.5.6c.5.1.8.5.8 1v.3c0 .7-.6 1.1-1.1 1.1h-.1c-.5 0-1.1-.3-1.1-1.1h.4c.1.6.5.8.8.8h.1c.4 0 .7-.2.7-.8v-.2c0-.5-.3-.7-.8-.7h-1v-1.9h1.7z"/><path d="m247.3 399h.4l-1.6 4.2h-.4z"/><path d="m250.3 399.2v.3l-1.5 3.6h-.4l1.5-3.6h-1.8v-.4h2.2z"/></g><g enable-background="new"><path d="m290.6 400.6c0-1.1.6-1.4 1.2-1.4.5 0 1.1.3 1.1 1.1h-.4c0-.6-.4-.8-.7-.8-.4 0-.8.2-.8 1.1v.6c.1-.3.4-.5.7-.5h.2c.8 0 1 .7 1 1.2s-.2 1.2-1 1.2h-.2c-.7 0-1-.5-1.1-1.2zm1.3 2.3c.5 0 .7-.4.7-.8s-.2-.8-.7-.8h-.2c-.5 0-.7.4-.7.8s.2.8.7.8z"/><path d="m295 399h.4l-1.6 4.2h-.4z"/><path d="m298.1 399.2v.3l-1.5 3.6h-.4l1.5-3.6h-1.8v-.4h2.2z"/></g><path d="m336 399.6v3.6h-.4v-3.6h-.3v-.4h.7z"/><path d="m20.6 400.6c0-1.1.6-1.4 1.2-1.4s1.2.3 1.2 1.4v1.2c0 1.1-.6 1.4-1.2 1.4s-1.2-.3-1.2-1.4zm1.9.1c0-.9-.4-1.1-.8-1.1s-.8.3-.8 1.1v1c0 .9.4 1.1.8 1.1s.8-.3.8-1.1z"/></g><path d="m20.7 395.7h315.9" fill="none" stroke="#242526" stroke-linecap="round" stroke-linejoin="round" stroke-width="1.5"/><path d="m178.6 384.4v10" fill="none" stroke="#abb1b8" stroke-linecap="round" stroke-linejoin="round" stroke-width="2.25"/><path d="m99.7 384.4v10" fill="none" stroke="#f2a33b" stroke-linecap="round" stroke-linejoin="round" stroke-width="2.25"/><path d="m257.6 384.4v10" fill="none" stroke="#f2a33b" stroke-linecap="round" stroke-linejoin="round" stroke-width="2.25"/><path d="m147 384.4v10" fill="none" stroke="#fbd230" stroke-linecap="round" stroke-linejoin="round" stroke-width="2.25"/><path d="m83.9 384.4v10" fill="none" stroke="#fbd230" stroke-linecap="round" stroke-linejoin="round" stroke-width="2.25"/><path d="m273.4 384.4v10" fill="none" stroke="#fbd230" stroke-linecap="round" stroke-linejoin="round" stroke-width="2.25"/><path d="m210.2 384.4v10" fill="none" stroke="#fbd230" stroke-linecap="round" stroke-linejoin="round" stroke-width="2.25"/><path d="m231.3 384.4v10" fill="none" stroke="#eb5b44" stroke-linecap="round" stroke-linejoin="round" stroke-width="2.25"/><path d="m126 384.4v10" fill="none" stroke="#eb5b44" stroke-linecap="round" stroke-linejoin="round" stroke-width="2.25"/><path d="m73.3 384.4v10" fill="none" stroke="#00a850" stroke-linecap="round" stroke-linejoin="round" stroke-width="2.25"/><path d="m283.9 384.4v10" fill="none" stroke="#00a850" stroke-linecap="round" stroke-linejoin="round" stroke-width="2.25"/><path d="m291.4 384.4v10" fill="none" stroke="#00aeea" stroke-linecap="round" stroke-linejoin="round" stroke-width="2.25"/><path d="m65.8 384.4v10" fill="none" stroke="#00aeea" stroke-linecap="round" stroke-linejoin="round" stroke-width="2.25"/><path d="m20.7 384.4v10" fill="none" stroke="#242526" stroke-linecap="round" stroke-linejoin="round" stroke-width="2.25"/><path d="m336.5 384.4v10" fill="none" stroke="#575e60" stroke-linecap="round" stroke-linejoin="round" stroke-width="2.25"/><path d="m246.2 384.4v10" fill="none" stroke="#00aeea" stroke-linecap="round" stroke-linejoin="round" stroke-width="2.25"/><path d="m201.2 384.4v10" fill="none" stroke="#00aeea" stroke-linecap="round" stroke-linejoin="round" stroke-width="2.25"/><path d="m156 384.4v10" fill="none" stroke="#00aeea" stroke-linecap="round" stroke-linejoin="round" stroke-width="2.25"/><path d="m110.9 384.4v10" fill="none" stroke="#00aeea" stroke-linecap="round" stroke-linejoin="round" stroke-width="2.25"/><path d="m178.6 112.2v271" fill="none" stroke="#abb1b8" stroke-linecap="round" stroke-linejoin="round" stroke-width=".75"/><path d="m257.6 210.8v172.4" fill="none" stroke="#f2a33b" stroke-linecap="round" stroke-linejoin="round" stroke-width=".75"/><path d="m147.1 260v123.2" fill="none" stroke="#fbd230" stroke-linecap="round" stroke-linejoin="round" stroke-width=".75"/><path d="m273.4 260v123.2" fill="none" stroke="#fbd230" stroke-linecap="round" stroke-linejoin="round" stroke-width=".75"/><path d="m210.2 260v123.2" fill="none" stroke="#fbd230" stroke-linecap="round" stroke-linejoin="round" stroke-width=".75"/><path d="m231.3 161.5v221.7" fill="none" stroke="#eb5b44" stroke-linecap="round" stroke-linejoin="round" stroke-width=".75"/><path d="m73.3 309.3v73.9" fill="none" stroke="#00a850" stroke-linecap="round" stroke-linejoin="round" stroke-width=".75"/><path d="m284 309.3v73.9" fill="none" stroke="#00a850" stroke-linecap="round" stroke-linejoin="round" stroke-width=".75"/><path d="m291.5 358.6v24.6" fill="none" stroke="#00aeea" stroke-linecap="round" stroke-linejoin="round" stroke-width=".75"/><path d="m20.6 63v320.2" fill="none" stroke="#242526" stroke-linecap="round" stroke-linejoin="round" stroke-width=".75"/><path d="m246.3 358.5v24.6" fill="none" stroke="#00aeea" stroke-linecap="round" stroke-linejoin="round" stroke-width=".75"/><path d="m201.2 358.6v24.6" fill="none" stroke="#00aeea" stroke-linecap="round" stroke-linejoin="round" stroke-width=".75"/><path d="m156 358.6v24.6" fill="none" stroke="#00aeea" stroke-linecap="round" stroke-linejoin="round" stroke-width=".75"/><path d="m110.9 358.6v24.6" fill="none" stroke="#00aeea" stroke-linecap="round" stroke-linejoin="round" stroke-width=".75"/><path d="m20.7 383h315.9" fill="none" stroke="#242526" stroke-linecap="round" stroke-linejoin="round" stroke-width="1.5"/><path d="m182.7 112.3c0 2.3-1.8 4.1-4.1 4.1s-4.1-1.8-4.1-4.1c0-2.3 1.8-4.1 4.1-4.1s4.1 1.8 4.1 4.1z" fill="#bbc0c6" stroke="#231f20" stroke-width="2.45"/><path d="m99.6 210.8v172.4" fill="none" stroke="#f2a33b" stroke-linecap="round" stroke-linejoin="round" stroke-width=".75"/><path d="m83.8 260v123.2" fill="none" stroke="#fbd230" stroke-linecap="round" stroke-linejoin="round" stroke-width=".75"/><path d="m126 161.5v221.7" fill="none" stroke="#eb5b44" stroke-linecap="round" stroke-linejoin="round" stroke-width=".75"/><path d="m65.8 358.6v24.6" fill="none" stroke="#00aeea" stroke-linecap="round" stroke-linejoin="round" stroke-width=".75"/><path d="m336.6 63v332.5" fill="none" stroke="#575e60" stroke-miterlimit="3" stroke-width="1.45"/><path d="m130 161.5c.1 2.3-1.6 4.2-3.9 4.3s-4.2-1.6-4.3-3.9c0-.1 0-.3 0-.4v-.1c.1-2.3 2-4 4.3-3.9 2.1.2 3.8 1.9 3.9 4z" fill="#e94644" stroke="#231f20" stroke-width="2.45"/><path d="m103.8 210.8c.1 2.3-1.6 4.2-3.9 4.3s-4.2-1.6-4.3-3.9c0-.1 0-.3 0-.4v-.1c.1-2.3 2-4 4.3-3.9 2.1.2 3.8 1.8 3.9 4z" fill="#f2a33b" stroke="#231f20" stroke-width="2.45"/><path d="m88 259.9c.1 2.3-1.6 4.2-3.9 4.3s-4.2-1.6-4.3-3.9c0-.1 0-.3 0-.4.1-2.3 2-4 4.3-3.9 2.1.1 3.8 1.7 3.9 3.9z" fill="#fbd230" stroke="#231f20" stroke-width="2.45"/><path d="m77.5 309.3c-.1 2.3-2 4-4.3 3.9-2.1-.1-3.8-1.8-3.9-3.9.1-2.3 2-4 4.3-3.9 2.1.1 3.8 1.8 3.9 3.9z" fill="#00a850" stroke="#231f20" stroke-width="2.45"/><path d="m69.9 358.4c.1 2.3-1.6 4.2-3.9 4.3s-4.2-1.6-4.3-3.9c0-.1 0-.3 0-.4.1-2.3 2-4 4.3-3.9 2.1.1 3.8 1.8 3.9 3.9z" fill="#00aeea" stroke="#231f20" stroke-width="2.45"/><path d="m339.2 63.2c0 1.5-1.2 2.7-2.7 2.7s-2.7-1.2-2.7-2.7 1.2-2.7 2.7-2.7 2.7 1.2 2.7 2.7z" fill="#231f20" stroke="#231f20" stroke-width="2.45"/><path d="m132.5 27.6c0 1.4.9 1.9 1.8 1.9 1 0 1.8-.5 1.8-1.7s-.8-1.5-1.8-1.8c-.8-.2-2.3-.6-2.3-2.3 0-1.8 1.2-2.3 2.4-2.3s2.4.7 2.4 2.8h-.8c0-1.4-.8-2-1.6-2s-1.6.5-1.6 1.5c0 1.3 1.2 1.5 1.8 1.6 1.6.4 2.3 1.2 2.3 2.5 0 1.9-1.2 2.5-2.6 2.5-1.2 0-2.5-.7-2.6-2.7z" fill="#231f20"/><path d="m141.9 22.2h-1.8v8h-.8v-8h-1.8v-.8h4.5v.8z" fill="#231f20"/><g enable-background="new" fill="#231f20"><path d="m145.2 21.4c1.3 0 2.6.5 2.6 2.3v.4c0 1.2-.8 1.8-1.6 2l1.7 4.1h-.9l-1.6-3.9h-1.5v3.9h-.8v-8.8zm1.8 2.4c0-1.3-.9-1.6-1.7-1.6h-1.3v3.3h1.3c.8 0 1.7-.3 1.7-1.6z"/><path d="m149.3 21.4h.8v8.8h-.8z"/><path d="m156.5 21.4v8.8h-.8l-3.3-6.9v6.9h-.8v-8.8h.8l3.3 6.9v-6.9z"/><path d="m158.1 24.4c0-2.3 1.3-3 2.5-3s2.5.7 2.5 2.9v.1h-.8v-.1c-.1-1.7-.9-2.2-1.7-2.2-.9 0-1.7.5-1.7 2.4v2.7c0 1.8.8 2.4 1.7 2.4s1.7-.5 1.7-2.3v-.9h-1.6v-.8h2.4v1.8c0 2.3-1.3 3-2.5 3-1.3 0-2.5-.7-2.5-3z"/></g><path d="m168.4 24.4c0-2.3 1.3-3 2.6-3 1.2 0 2.6.7 2.6 3v2.9c0 2.3-1.3 3-2.6 3s-2.6-.7-2.6-3zm4.3.1c0-1.8-.8-2.4-1.7-2.4s-1.7.5-1.7 2.4v2.7c0 1.8.8 2.4 1.7 2.4s1.7-.5 1.7-2.4z" fill="#231f20"/><path d="m179.8 21.4-2.3 8.8h-1l-2.3-8.8h.8l1.9 7.5 1.9-7.5z" fill="#231f20"/><path d="m181.7 22.2v3.1h2.9v.8h-2.9v3.3h3v.8h-3.8v-8.8h3.8v.8z" fill="#231f20"/><path d="m187.9 21.4c1.3 0 2.6.5 2.6 2.3v.4c0 1.2-.8 1.8-1.6 2l1.7 4.1h-.9l-1.6-3.9h-1.5v3.9h-.8v-8.8zm1.9 2.4c0-1.3-.9-1.6-1.7-1.6h-1.3v3.3h1.3c.8 0 1.7-.3 1.7-1.6z" fill="#231f20"/><path d="m195.6 22.2h-1.8v8h-.8v-8h-1.8v-.8h4.5v.8z" fill="#231f20"/><path d="m196.4 24.4c0-2.3 1.3-3 2.6-3 1.2 0 2.6.7 2.6 3v2.9c0 2.3-1.3 3-2.6 3s-2.6-.7-2.6-3zm4.3.1c0-1.8-.8-2.4-1.7-2.4s-1.7.5-1.7 2.4v2.7c0 1.8.8 2.4 1.7 2.4s1.7-.5 1.7-2.4z" fill="#231f20"/><g enable-background="new" fill="#231f20"><path d="m207.7 21.4v8.8h-.8l-3.3-6.9v6.9h-.8v-8.8h.8l3.3 6.9v-6.9z"/><path d="m210.1 22.2v3.1h2.9v.8h-2.9v3.3h3v.8h-3.8v-8.8h3.8v.8z"/><path d="m214.8 27.6c0 1.4.9 1.9 1.8 1.9 1 0 1.8-.5 1.8-1.7s-.8-1.5-1.8-1.8c-.8-.2-2.3-.6-2.3-2.3 0-1.8 1.2-2.3 2.4-2.3s2.4.7 2.4 2.8h-.8c0-1.4-.8-2-1.6-2s-1.6.5-1.6 1.5c0 1.3 1.2 1.5 1.8 1.6 1.6.4 2.3 1.2 2.3 2.5 0 1.9-1.2 2.5-2.6 2.5-1.2 0-2.5-.7-2.6-2.7z"/></g></svg>