<svg viewBox="0 0 704.79 452.38" xmlns="http://www.w3.org/2000/svg"><g stroke="#000"><path d="m79.07 9v389.88" fill="none" stroke-width="1.42"/><path d="m68.46 387.27h617.85" fill="#f00" stroke-width="1.42"/><path d="m82.6 19.38 10.11 16 22 38.26 20.7 35.62c.09.16.18.31.28.46l19.74 29.17a5.39 5.39 0 0 0 .4.54l19.74 24.36 21.84 24.37 13.08 13.58.38.36 16.34 14.85 18.13 15.25.38.3 14.75 10.94c.13.1.28.2.42.29l14.68 9.46 18.19 11 18.43 10.1 18.18 9.47 14.79 6.83c.16.08.32.14.49.21l21.44 8.2 16.75 5.7.6.18 13.56 3.47 10.49 2.59.5.11 12.13 2.18.49.07 11.11 1.29a7.83 7.83 0 0 0 1.28 0l9.1-.43a8 8 0 0 0 1.94-.33l13.56-4.18a5.52 5.52 0 0 0 .53-.18l16.53-6.4a9.37 9.37 0 0 1 1-.31l10.53-2.49a8.3 8.3 0 0 1 1.4-.21l8-.42a8 8 0 0 1 1.77.11l5.71 1a7.77 7.77 0 0 1 2.57.93l8.44 4.85a7.5 7.5 0 0 1 .88.59l11.07 8.51 11 7.88c.19.14.38.26.58.38l5.94 3.52a7.35 7.35 0 0 0 1.2.58l2.9 1.11a7.31 7.31 0 0 0 1.59.42l1.06.17a7.91 7.91 0 0 0 4.19-.49l2.49-1a7.85 7.85 0 0 0 2.88-2l6.58-7.32c.11-.12.21-.24.31-.37l10.33-13c.17-.22.33-.44.48-.67l10.38-16.32 10.06-16.52c.12-.2.25-.39.39-.58l6-8.19a8 8 0 0 1 2-1.9l4.94-3.26a7.82 7.82 0 0 1 2.92-1.18l4.58-.84a8 8 0 0 1 2.84 0l2.29.42a7.89 7.89 0 0 1 4.23 2.27l5.54 5.72a7.3 7.3 0 0 1 1 1.19l8.2 12.64a7.52 7.52 0 0 0 1.11 1.35l1.92 1.87a7.87 7.87 0 0 0 5.68 2.24 7.93 7.93 0 0 0 3.93-1.16l3-1.82a7.87 7.87 0 0 0 2.35-2.21l6-8.59a7.84 7.84 0 0 0 1-2l5.5-16.27a7.38 7.38 0 0 0 .31-1.23l1.55-9.33a8.18 8.18 0 0 1 .33-1.27l6.35-18.44" fill="none" stroke-linecap="round" stroke-linejoin="round" stroke-width="2.83"/><path d="m67.46 52.75h11.54" fill="none" stroke-width="1.42"/><path d="m67.46 89.89h11.54" fill="none" stroke-width="1.42"/><path d="m67.46 127h11.54" fill="none" stroke-width="1.42"/><path d="m67.46 164.18h11.54" fill="none" stroke-width="1.42"/><path d="m67.46 201.32h11.54" fill="none" stroke-width="1.42"/><path d="m67.46 238.46h11.54" fill="none" stroke-width="1.42"/><path d="m67.46 275.61h11.54" fill="none" stroke-width="1.42"/><path d="m67.46 312.75h11.54" fill="none" stroke-width="1.42"/><path d="m67.46 349.89h11.54" fill="none" stroke-width="1.42"/><path d="m67.46 15.61h11.54" fill="none" stroke-width="1.42"/><path d="m622.85 388v11.57" fill="none" stroke-width="1.42"/><path d="m562.41 388v11.57" fill="none" stroke-width="1.42"/><path d="m502 388v11.57" fill="none" stroke-width="1.42"/><path d="m441.52 388v11.57" fill="none" stroke-width="1.42"/><path d="m381.08 388v11.57" fill="none" stroke-width="1.42"/><path d="m320.64 388v11.57" fill="none" stroke-width="1.42"/><path d="m260.2 388v11.57" fill="none" stroke-width="1.42"/><path d="m199.76 388v11.57" fill="none" stroke-width="1.42"/><path d="m139.32 388v11.57" fill="none" stroke-width="1.42"/><path d="m683.29 388v11.57" fill="none" stroke-width="1.42"/></g><path d="m311.59 33.57c2.74 0 5.76 1.2 5.76 5v1c0 3.57-2.88 4.89-5.56 4.95h-2.66v8.27h-1.79v-19.22zm4 5.22c0-2.77-1.94-3.5-3.78-3.5h-2.69v7.47h2.69c1.83 0 3.78-.78 3.78-3.51z"/><path d="m318.55 43.62c0-3.67 2.16-4.82 4.17-4.82s4.18 1.12 4.18 4.82v3h-6.8v1.18c0 3 1.19 3.76 2.63 3.76s2.53-.68 2.63-3.26h1.54c-.06 3.58-2.2 4.67-4.18 4.67s-4.16-1.15-4.16-4.82zm6.8.26c0-2.92-1.31-3.67-2.62-3.68s-2.63.75-2.64 3.69v1.49h5.26z"/><path d="m330.71 41.19a3.83 3.83 0 0 1 3.52-2.39v1.38c-1.9 0-3.36 1.33-3.37 4.38v8.19h-1.54v-13.7h1.17z"/><path d="m336 43.62c0-3.67 2.16-4.82 4.17-4.82s4.06 1.07 4.16 4.57v.49h-1.51c-.06-2.9-1.32-3.66-2.65-3.66s-2.63.84-2.63 4.17v3c0 3.3 1.15 4.17 2.64 4.17s2.6-.78 2.65-3.66h1.5v.45c-.08 3.52-2.19 4.61-4.16 4.61s-4.17-1.12-4.17-4.79z"/><path d="m346.49 43.62c0-3.67 2.15-4.82 4.16-4.82s4.18 1.12 4.18 4.82v3h-6.83v1.18c0 3 1.19 3.76 2.64 3.76 1.29 0 2.52-.68 2.63-3.26h1.53c-.06 3.58-2.2 4.67-4.17 4.67s-4.17-1.15-4.17-4.82zm6.8.26c0-2.92-1.32-3.67-2.63-3.68s-2.66.8-2.66 3.69v1.49h5.27z"/><path d="m357.32 35h1.78v1.68h-1.78zm.12 4h1.56v13.7h-1.54z"/><path d="m371.63 39.05-4.21 13.69h-1.77l-4.21-13.69h1.56l3.53 11.35 3.54-11.35z"/><path d="m372.64 43.62c0-3.67 2.15-4.82 4.16-4.82s4.2 1.12 4.2 4.82v3h-6.8v1.18c0 3 1.19 3.76 2.64 3.76 1.29 0 2.52-.68 2.63-3.26h1.53c-.06 3.58-2.2 4.67-4.17 4.67s-4.17-1.15-4.17-4.82zm6.8.26c0-2.92-1.32-3.67-2.63-3.68s-2.63.75-2.63 3.69v1.49h5.26z"/><path d="m391.37 33.57v19.18h-1.17l-.2-1.75a3.37 3.37 0 0 1 -3.24 2c-1.86 0-3.8-1.13-3.8-4.82v-4.56c0-3.69 1.94-4.82 3.8-4.82a3.19 3.19 0 0 1 3 1.81v-7zm-6.83 13.83c0 3.3 1.21 4.16 2.66 4.16s2.63-.86 2.62-4.16v-3c0-3.33-1.21-4.17-2.63-4.17s-2.65.84-2.65 4.17z"/><path d="m403.81 40.68a3.18 3.18 0 0 1 3-1.88c1.86 0 3.8 1.13 3.8 4.82v9.13h-1.51v-8.38c0-3.33-1.25-4.17-2.65-4.17s-2.64.78-2.64 3.84v8.71h-1.54v-19.18h1.54z"/><path d="m421.46 39.05v13.7h-1.17l-.18-1.75a3.36 3.36 0 0 1 -3.22 2c-1.86 0-3.8-1.14-3.8-4.83v-9.12h1.54v8.38c0 3.32 1.25 4.16 2.65 4.16s2.64-.78 2.64-3.83v-8.71z"/><path d="m425.34 40.83a3.57 3.57 0 0 1 6.62.43 3.4 3.4 0 0 1 3.39-2.46c1.85 0 3.8 1.13 3.8 4.82v9.13h-1.54v-8.38c0-3.33-1.26-4.17-2.65-4.17s-2.43.63-2.6 3v9.55h-1.54v-8.38c0-3.33-1.25-4.17-2.65-4.17s-2.63.76-2.63 3.73v8.82h-1.54v-13.7h1.17z"/><path d="m449.86 39.05v13.7h-1.16l-.16-1.75a3.33 3.33 0 0 1 -3.21 2c-1.85 0-3.83-1.13-3.83-4.82v-4.56c0-3.69 2-4.82 3.83-4.82a3.36 3.36 0 0 1 3.21 2l.16-1.7zm-6.86 8.35c0 3.3 1.2 4.17 2.65 4.17s2.64-.87 2.63-4.17v-3c0-3.33-1.21-4.17-2.63-4.17s-2.65.77-2.65 4.14z"/><path d="m453.82 40.83a3.38 3.38 0 0 1 3.22-2c1.86 0 3.8 1.13 3.8 4.82v9.13h-1.53v-8.41c0-3.33-1.26-4.17-2.66-4.17s-2.65.8-2.65 3.8v8.71h-1.54v-13.66h1.17z"/><path d="m473.21 40.68a3.19 3.19 0 0 1 3-1.88c1.85 0 3.79 1.13 3.79 4.82v9.13h-1.53v-8.38c0-3.33-1.26-4.17-2.66-4.17s-2.63.78-2.63 3.84v8.71h-1.54v-19.18h1.54z"/><path d="m482.39 43.62c0-3.67 2.16-4.82 4.17-4.82s4.18 1.12 4.18 4.82v3h-6.8v1.18c0 3 1.18 3.76 2.63 3.76s2.53-.68 2.63-3.26h1.54c-.06 3.58-2.21 4.67-4.18 4.67s-4.17-1.15-4.17-4.82zm6.8.26c0-2.92-1.31-3.67-2.63-3.68s-2.62.75-2.63 3.69v1.49h5.26z"/><path d="m501.31 39.05v13.7h-1.16l-.15-1.75a3.35 3.35 0 0 1 -3.21 2c-1.86 0-3.84-1.13-3.84-4.82v-4.56c0-3.69 2-4.82 3.84-4.82a3.36 3.36 0 0 1 3.2 2l.16-1.7zm-6.82 8.35c0 3.3 1.2 4.17 2.66 4.17s2.63-.87 2.62-4.17v-3c0-3.33-1.21-4.17-2.63-4.17s-2.65.84-2.65 4.17z"/><path d="m505.32 41.19a3.83 3.83 0 0 1 3.52-2.39v1.38c-1.89 0-3.36 1.33-3.37 4.38v8.19h-1.54v-13.7h1.17z"/><path d="m510.85 35h1.78v1.68h-1.78zm.12 4h1.54v13.7h-1.51z"/><path d="m516.65 40.83a3.37 3.37 0 0 1 3.22-2c1.86 0 3.8 1.13 3.8 4.82v9.13h-1.54v-8.41c0-3.33-1.25-4.17-2.65-4.17s-2.64.78-2.64 3.84v8.71h-1.53v-13.7h1.16z"/><path d="m526 43.62c0-3.69 1.94-4.82 3.8-4.82a3.38 3.38 0 0 1 3.23 2l.17-1.74h1.17v13.66c0 3.61-2.17 4.74-4.17 4.74a3.81 3.81 0 0 1 -4-3.09h1.59a2.3 2.3 0 0 0 2.38 1.69c1.43 0 2.63-.76 2.64-3.62v-1.55a3.16 3.16 0 0 1 -3 1.86c-1.86 0-3.8-1.13-3.8-4.82zm6.82.75c0-3.32-1.19-4.17-2.62-4.17s-2.66.85-2.66 4.17v2.87c0 3.31 1.21 4.17 2.65 4.17s2.63-.86 2.63-4.17z"/><path d="m311.68 429.5v5.62h4.86v1.39h-4.86v7h-1.43v-15.4h6.5v1.39z"/><path d="m319.47 434.23a3.08 3.08 0 0 1 2.83-1.91v1.11c-1.52 0-2.7 1.06-2.71 3.51v6.58h-1.23v-11h.93z"/><path d="m323.53 436.19c0-2.95 1.73-3.87 3.35-3.87s3.35.9 3.35 3.87v2.37h-5.46v1c0 2.38 1 3 2.12 3s2-.56 2.11-2.62h1.23c-.05 2.87-1.77 3.74-3.35 3.74s-3.35-.92-3.35-3.87zm5.46.21c0-2.35-1.06-2.95-2.11-3s-2.11.6-2.11 3v1.2h4.23z"/><path d="m338.72 432.51v14.59h-1.23v-4.84a2.58 2.58 0 0 1 -2.44 1.45c-1.49 0-3.05-.91-3.05-3.87v-3.63c0-3 1.56-3.88 3.05-3.88a2.7 2.7 0 0 1 2.6 1.63l.13-1.45zm-5.48 6.73c0 2.67 1 3.34 2.13 3.34s2.11-.67 2.11-3.34v-2.43c0-2.65-.92-3.35-2.11-3.35s-2.13.7-2.13 3.35z"/><path d="m347.45 432.52v11h-.94l-.14-1.44a2.72 2.72 0 0 1 -2.59 1.64c-1.49 0-3-.91-3-3.88v-7.32h1.22v6.72c0 2.67 1 3.35 2.13 3.35s2.12-.63 2.12-3.08v-7z"/><path d="m349.31 436.19c0-2.95 1.73-3.87 3.35-3.87s3.35.9 3.35 3.87v2.37h-5.46v1c0 2.38 1 3 2.12 3s2-.56 2.11-2.62h1.22c0 2.87-1.76 3.74-3.35 3.74s-3.34-.92-3.34-3.87zm5.46.21c0-2.35-1-2.95-2.11-3s-2.11.6-2.11 3v1.2h4.22z"/><path d="m359 434a2.71 2.71 0 0 1 2.59-1.63c1.49 0 3.05.91 3.05 3.87v7.33h-1.24v-6.73c0-2.67-1-3.35-2.12-3.35s-2.12.63-2.12 3.08v7h-1.16v-11h.93z"/><path d="m366.54 436.19c0-2.95 1.73-3.87 3.35-3.87s3.26.85 3.34 3.66v.4h-1.23c0-2.33-1.06-2.94-2.13-2.94s-2.11.68-2.11 3.35v2.43c0 2.65.92 3.35 2.12 3.35s2.08-.63 2.12-2.94h1.21v.37c-.06 2.83-1.76 3.7-3.34 3.7s-3.35-.92-3.35-3.87z"/><path d="m381.61 432.51v11.19c-.1 2.74-1.78 3.6-3.34 3.6a3.06 3.06 0 0 1 -3.2-2.49h1.27a1.85 1.85 0 0 0 1.92 1.36c1.14 0 2.11-.6 2.12-2.9v-1.27a2.56 2.56 0 0 1 -2.44 1.5c-1.49 0-3.05-.91-3.05-3.87v-7.13h1.24v6.53c0 2.67 1 3.34 2.12 3.34s2.12-.67 2.13-3.35v-6.53z"/><path d="m393.72 427v1.39h-1a1.18 1.18 0 0 0 -1.12 1.25v14.36a1.17 1.17 0 0 0 1.12 1.23h1v1.39h-1.25a2.29 2.29 0 0 1 -2.37-2.44v-14.72a2.29 2.29 0 0 1 2.37-2.44z"/><path d="m404.42 428.11v15.41h-1.42v-7.21h-5.34v7.21h-1.43v-15.41h1.43v6.81h5.34v-6.81z"/><path d="m413.19 442.39v1.13h-6.58v-1l5.18-8.9h-4.93v-1.14h6.28v1l-5.14 8.91z"/><path d="m416.35 427a2.29 2.29 0 0 1 2.37 2.44v14.69a2.29 2.29 0 0 1 -2.37 2.44h-1.26v-1.37h1a1.17 1.17 0 0 0 1.12-1.23v-14.32a1.18 1.18 0 0 0 -1.12-1.25h-1v-1.4z"/><path d="m50.58 9.61a2.78 2.78 0 0 1 2.88 2.66v.21a2.33 2.33 0 0 1 -1.57 2.22 2.34 2.34 0 0 1 1.69 2.3v.21a2.82 2.82 0 0 1 -3 2.81h-.47a2.81 2.81 0 0 1 -3-2.81v-.21a2.34 2.34 0 0 1 1.68-2.32 2.33 2.33 0 0 1 -1.57-2.23v-.21a2.78 2.78 0 0 1 2.88-2.63zm2 7.46a1.85 1.85 0 0 0 -2.11-1.93h-.2a1.85 1.85 0 0 0 -2.1 1.93v.1a1.85 1.85 0 0 0 2 1.91h.42a1.86 1.86 0 0 0 2-1.91zm-.12-4.75a1.76 1.76 0 0 0 -1.88-1.74h-.43a1.76 1.76 0 0 0 -1.87 1.74v.1a1.75 1.75 0 0 0 2 1.75h.21a1.75 1.75 0 0 0 2-1.75z"/><path d="m54.86 13.34c0-2.86 1.6-3.74 3.14-3.74s3.16.87 3.16 3.74v3c0 2.87-1.65 3.73-3.16 3.73s-3.14-.88-3.14-3.73zm5.27.13c0-2.23-1-2.89-2.13-2.89s-2.11.66-2.11 2.89v2.72c0 2.24 1 2.9 2.11 2.9s2.13-.66 2.13-2.9z"/><path d="m53.86 46.76v.81l-4.11 9.43h-1.06l4-9.26h-4.77v-1z"/><path d="m54.86 50.4c0-2.86 1.6-3.74 3.14-3.74s3.16.87 3.16 3.74v3c0 2.87-1.65 3.73-3.16 3.73s-3.14-.88-3.14-3.73zm5.27.13c0-2.23-1-2.89-2.13-2.89s-2.11.66-2.11 2.89v2.72c0 2.24 1 2.9 2.11 2.9s2.13-.66 2.13-2.9z"/><path d="m47.19 87.45c0-2.85 1.69-3.73 3.23-3.73a2.77 2.77 0 0 1 3 2.93h-1a1.83 1.83 0 0 0 -2-2c-1.13 0-2.23.61-2.23 2.84v1.59a2.14 2.14 0 0 1 2-1.19h.61c2.11 0 2.71 1.76 2.71 3.14s-.65 3.1-2.84 3.11h-.67c-1.89 0-2.81-1.34-2.85-3.16zm3.46 5.76c1.36 0 1.84-1.1 1.84-2.14s-.47-2.16-1.84-2.16h-.59c-1.37 0-1.83 1.12-1.83 2.16s.47 2.13 1.83 2.14z"/><path d="m54.86 87.46c0-2.86 1.6-3.74 3.14-3.74s3.16.87 3.16 3.74v3c0 2.87-1.65 3.73-3.16 3.73s-3.14-.88-3.14-3.73zm5.27.13c0-2.23-1-2.89-2.13-2.89s-2.11.66-2.11 2.89v2.72c0 2.24 1 2.9 2.11 2.9s2.13-.66 2.13-2.9z"/><path d="m52.89 120.89v1h-4.19v3.06h1.22a7 7 0 0 1 1.61.1 2.59 2.59 0 0 1 2 2.71v.73a2.8 2.8 0 0 1 -3 2.78h-.27a3 3 0 0 1 -3.08-3v-.08h1a2.16 2.16 0 0 0 2.18 2.07h.17a1.87 1.87 0 0 0 2-2v-.61c0-1.33-.92-1.89-2.27-1.89h-2.59v-4.92z"/><path d="m54.86 124.52c0-2.86 1.6-3.74 3.14-3.74s3.16.87 3.16 3.74v3c0 2.87-1.65 3.73-3.16 3.73s-3.14-.88-3.14-3.73zm5.27.13c0-2.23-1-2.89-2.13-2.89s-2.11.66-2.11 2.89v2.72c0 2.24 1 2.9 2.11 2.9s2.13-.66 2.13-2.9z"/><path d="m53.68 165.89h-1v2.29h-1v-2.29h-4.45v-1.14l3.2-6.8h1l-3.19 7h3.4v-4.46h1v4.46h1z"/><path d="m54.86 161.58c0-2.86 1.6-3.74 3.14-3.74s3.16.87 3.16 3.74v3c0 2.87-1.65 3.74-3.16 3.74s-3.14-.88-3.14-3.74zm5.27.13c0-2.23-1-2.89-2.13-2.89s-2.11.66-2.11 2.89v2.72c0 2.24 1 2.9 2.11 2.9s2.13-.66 2.13-2.9z"/><path d="m50.57 194.91a2.74 2.74 0 0 1 2.89 2.67v.22a2.25 2.25 0 0 1 -1.57 2.2 2.33 2.33 0 0 1 1.68 2.35v.21a2.81 2.81 0 0 1 -3 2.81h-.26a3.06 3.06 0 0 1 -3.08-3v-.06h1a2.16 2.16 0 0 0 2.19 2.07h.16a1.86 1.86 0 0 0 2-1.86v-.1a1.92 1.92 0 0 0 -2.19-2h-.9v-.95h.9a1.85 1.85 0 0 0 2.08-1.81v-.1a1.8 1.8 0 0 0 -1.87-1.73h-.2a2.14 2.14 0 0 0 -2.14 1.94h-1v-.09a3.1 3.1 0 0 1 3.06-2.83z"/><path d="m54.86 198.64c0-2.85 1.6-3.73 3.14-3.73s3.16.86 3.16 3.73v3c0 2.87-1.65 3.74-3.16 3.74s-3.14-.88-3.14-3.74zm5.27.13c0-2.23-1-2.89-2.13-2.89s-2.11.66-2.11 2.89v2.72c0 2.24 1 2.9 2.11 2.9s2.13-.66 2.13-2.9z"/><path d="m50.64 232a2.85 2.85 0 0 1 2.93 3.08c0 3.14-4.76 3.44-5 6.22h4.95v1h-6.17v-.58c0-3.72 5.19-3.89 5.19-6.64a1.92 1.92 0 0 0 -1.92-2.08h-.12a2.19 2.19 0 0 0 -2.11 2h-1v-.12a3.08 3.08 0 0 1 3-2.88z"/><path d="m54.86 235.7c0-2.85 1.6-3.73 3.14-3.73s3.16.86 3.16 3.73v3c0 2.87-1.65 3.74-3.16 3.74s-3.14-.88-3.14-3.74zm5.27.14c0-2.24-1-2.9-2.13-2.9s-2.11.66-2.11 2.9v2.71c0 2.24 1 2.9 2.11 2.9s2.13-.66 2.13-2.9z"/><path d="m53.16 270.15v9.21h-1v-9.21h-.92v-1h1.95z"/><path d="m54.86 272.76c0-2.85 1.6-3.73 3.14-3.73s3.16.86 3.16 3.73v3c0 2.87-1.65 3.74-3.16 3.74s-3.14-.88-3.14-3.74zm5.27.14c0-2.24-1-2.9-2.13-2.9s-2.11.66-2.11 2.9v2.71c0 2.24 1 2.9 2.11 2.9s2.13-.66 2.13-2.9z"/><path d="m54.86 309.82c0-2.85 1.6-3.73 3.14-3.73s3.16.86 3.16 3.73v3c0 2.87-1.65 3.74-3.16 3.74s-3.14-.88-3.14-3.74zm5.27.14c0-2.24-1-2.9-2.13-2.9s-2.11.66-2.11 2.9v2.71c0 2.24 1 2.9 2.11 2.9s2.13-.66 2.13-2.9z"/><path d="m49.9 348.84v1h-3.83v-1z"/><path d="m53.16 344.27v9.22h-1v-9.22h-.92v-1h1.95z"/><path d="m54.86 346.89c0-2.86 1.6-3.74 3.14-3.74s3.16.86 3.16 3.74v3c0 2.87-1.65 3.74-3.16 3.74s-3.14-.88-3.14-3.74zm5.27.13c0-2.23-1-2.9-2.13-2.9s-2.11.67-2.11 2.9v2.71c0 2.24 1 2.91 2.11 2.91s2.13-.67 2.13-2.91z"/><path d="m46 385.9v1h-3.81v-1z"/><path d="m50.64 380.22a2.85 2.85 0 0 1 2.93 3.08c0 3.15-4.77 3.44-5 6.22h4.95v1h-6.17v-.52c0-3.72 5.19-3.89 5.19-6.63a1.93 1.93 0 0 0 -1.92-2.14h-.12a2.18 2.18 0 0 0 -2.11 2h-1v-.12a3.08 3.08 0 0 1 3-2.88z"/><path d="m54.86 384c0-2.86 1.6-3.74 3.14-3.74s3.16.86 3.16 3.74v3c0 2.88-1.65 3.74-3.16 3.74s-3.14-.88-3.14-3.74zm5.27.13c0-2.23-1-2.9-2.13-2.9s-2.11.67-2.11 2.9v2.72c0 2.23 1 2.9 2.11 2.9s2.13-.67 2.13-2.9z"/><path d="m26.41 314.68c2.54 0 3.41-1.65 3.41-3.08 0-1.82-.89-3.07-2.93-3.07s-2.7 1.33-3.23 3.16c-.42 1.49-1.09 4-4.12 4s-4.11-2.14-4.11-4.18 1.24-4.22 4.83-4.22v1.39c-2.44 0-3.44 1.42-3.44 2.83a2.51 2.51 0 0 0 2.65 2.74c2.25-.05 2.57-2.15 2.85-3.12.77-2.81 2.15-4 4.45-4 3.35 0 4.44 2.09 4.44 4.51 0 2.07-1.21 4.46-4.8 4.47z"/><path d="m23.71 305.49c-2.95 0-3.87-1.73-3.87-3.35s.9-3.37 3.87-3.37h3.63c3 0 3.87 1.76 3.87 3.37s-.92 3.35-3.87 3.35zm.6-5.48c-2.67 0-3.35 1-3.35 2.13s.68 2.11 3.35 2.11h2.43c2.65 0 3.34-.92 3.34-2.12s-.69-2.13-3.34-2.13z"/><path d="m20 290.18h11v.93l-1.43.15a2.68 2.68 0 0 1 1.63 2.58c0 1.5-.91 3.05-3.87 3.05h-7.33v-1.23h6.73c2.67 0 3.35-1 3.35-2.13s-.63-2.12-3.08-2.12h-7z"/><path d="m21.47 287.06a2.71 2.71 0 0 1 -1.63-2.59c0-1.49.9-3.05 3.87-3.05h7.29v1.24h-6.69c-2.67 0-3.35 1-3.35 2.13s.63 2.11 3.08 2.11h7v1.24h-11.04v-.94z"/><path d="m15.63 272.83h15.37v.94l-1.45.13a2.7 2.7 0 0 1 1.62 2.6c0 1.49-.91 3.05-3.87 3.05h-3.59c-3 0-3.87-1.56-3.87-3.05a2.56 2.56 0 0 1 1.45-2.43h-5.66zm11.11 5.49c2.65 0 3.34-1 3.34-2.14s-.69-2.11-3.34-2.11h-2.43c-2.67 0-3.35 1-3.35 2.12s.68 2.13 3.35 2.13z"/><path d="m15.63 260.41c0-2.19 1-4.62 4-4.62h.81c2.87 0 3.92 2.31 4 4.46v2.14h6.56v1.43h-15.37zm4.2-3.22c-2.23 0-2.81 1.56-2.81 3v2.16h6v-2.16c0-1.47-.62-3-2.81-3z"/><path d="m21.75 253.1a3.07 3.07 0 0 1 -1.91-2.83h1.16c0 1.52 1.06 2.7 3.51 2.71h6.49v1.23h-11v-.93z"/><path d="m23.71 249c-2.95 0-3.87-1.73-3.87-3.35s.9-3.35 3.87-3.35h2.37v5.46h1c2.39 0 3-1 3-2.12s-.55-2-2.62-2.11v-1.23c2.88 0 3.75 1.77 3.75 3.35s-.92 3.35-3.87 3.35zm.21-5.46c-2.35 0-3 1.06-3 2.11s.6 2.11 3 2.11h1.2v-4.22z"/><path d="m28 239.46a2 2 0 0 0 2.13-2.13c0-1.21-.52-2.14-2-2.14s-2 .86-2.38 2.21-1 3-3 3-2.89-1.48-2.89-3.15a3.08 3.08 0 0 1 3.14-3.18h.22v1.24h-.22a1.88 1.88 0 0 0 -2 1.94c0 1.08.42 1.92 1.7 1.92s1.72-1.38 1.94-2.12c.62-2.33 1.82-3.09 3.41-3.09 2.3 0 3.2 1.54 3.2 3.37a3.21 3.21 0 0 1 -3.25 3.37h-.24v-1.24z"/><path d="m28 231.19a2 2 0 0 0 2.13-2.13c0-1.21-.52-2.14-2-2.14s-2 .86-2.38 2.21-1 3-3 3-2.89-1.48-2.89-3.15a3.08 3.08 0 0 1 3.14-3.18h.22v1.2h-.22a1.88 1.88 0 0 0 -2 2c0 1.07.42 1.92 1.7 1.92s1.72-1.38 1.94-2.12c.62-2.33 1.82-3.1 3.41-3.1 2.3 0 3.2 1.54 3.2 3.38a3.21 3.21 0 0 1 -3.25 3.35h-.24v-1.24z"/><path d="m20 217.23h11v.93l-1.43.15a2.68 2.68 0 0 1 1.63 2.58c0 1.49-.91 3.05-3.87 3.05h-7.33v-1.23h6.73c2.67 0 3.35-1 3.35-2.13s-.63-2.12-3.08-2.12h-7z"/><path d="m21.75 214.07a3.07 3.07 0 0 1 -1.91-2.83h1.16c0 1.53 1.06 2.7 3.51 2.71h6.49v1.24h-11v-.94z"/><path d="m23.71 210c-2.95 0-3.87-1.73-3.87-3.34s.9-3.36 3.87-3.36h2.37v5.46h1c2.39 0 3-1 3-2.11s-.55-2-2.62-2.12v-1.23c2.88.05 3.75 1.77 3.75 3.35s-.92 3.35-3.87 3.35zm.21-5.46c-2.35 0-3 1.06-3 2.11s.6 2.11 3 2.12h1.2v-4.23z"/><path d="m15.63 194.72v-1.24h15.37v1.24z"/><path d="m23.71 191.6c-2.95 0-3.87-1.73-3.87-3.35s.9-3.35 3.87-3.35h2.37v5.46h1c2.39 0 3-1 3-2.12s-.55-2-2.62-2.11v-1.23c2.88 0 3.75 1.77 3.75 3.35s-.92 3.35-3.87 3.35zm.21-5.46c-2.35 0-3 1.06-3 2.11s.6 2.11 3 2.11h1.2v-4.22z"/><path d="m20 175.86 11 3.38v1.42l-11 3.34v-1.25l9.15-2.75-9.15-2.89z"/><path d="m23.71 175.05c-2.95 0-3.87-1.73-3.87-3.34s.9-3.35 3.87-3.35h2.37v5.45h1c2.39 0 3-.95 3-2.11s-.55-2-2.62-2.11v-1.24c2.88.05 3.75 1.77 3.75 3.36s-.92 3.34-3.87 3.34zm.21-5.46c-2.35 0-3 1.06-3 2.11s.6 2.11 3 2.12h1.2v-4.23z"/><path d="m15.63 166.36v-1.24h15.37v1.24z"/><path d="m14.53 152.82h1.39v1a1.17 1.17 0 0 0 1.25 1.18h14.32a1.17 1.17 0 0 0 1.23-1.12v-1h1.39v1.26a2.28 2.28 0 0 1 -2.44 2.36h-14.67a2.29 2.29 0 0 1 -2.45-2.36z"/><path d="m15.63 144.09h15.37v.91l-1.45.13a2.7 2.7 0 0 1 1.62 2.6c0 1.49-.91 3.05-3.87 3.05h-3.59c-3 0-3.87-1.56-3.87-3.05a2.54 2.54 0 0 1 1.45-2.43h-5.66zm11.11 5.48c2.65 0 3.34-1 3.34-2.13s-.69-2.11-3.34-2.11h-2.43c-2.67 0-3.35 1-3.35 2.12s.68 2.12 3.35 2.12z"/><path d="m15.63 138.08c0-2.14 1-4.4 3.63-4.4h.58a3.24 3.24 0 0 1 3.21 2.24 3.47 3.47 0 0 1 3.55-2.62h.54c2.53 0 3.9 1.8 3.9 4.62v3.76h-15.41zm3.95-3c-1.85 0-2.56 1.49-2.56 3v2.15h5.42v-2.13c0-1.62-.75-3-2.56-3zm7-.32c-1.83 0-2.78 1.21-2.78 3.19v2.3h5.88v-2.25c0-2-.93-3.2-2.78-3.2z"/><path d="m14.53 130.24a2.29 2.29 0 0 1 2.47-2.37h14.67a2.29 2.29 0 0 1 2.44 2.37v1.25h-1.39v-1a1.17 1.17 0 0 0 -1.23-1.12h-14.32a1.18 1.18 0 0 0 -1.25 1.12v1h-1.39z"/><path d="m72.9 407.66v9.56h-1.07v-9.56h-.94v-1h2z"/><path d="m80.16 406.61v1h-4.34v3.17h1.27a7.07 7.07 0 0 1 1.67.11 2.68 2.68 0 0 1 2.12 2.8v.76a2.93 2.93 0 0 1 -3.1 2.89h-.29a3.18 3.18 0 0 1 -3.19-3.07v-.09h1a2.25 2.25 0 0 0 2.27 2.15h.17a2 2 0 0 0 2-2v-.64c0-1.37-1-2-2.35-2h-2.7v-5.1z"/><path d="m82.1 416.18h1v1h-1z"/><path d="m84.56 410.37c0-3 1.75-3.87 3.35-3.87a2.88 2.88 0 0 1 3.12 3h-1.03a1.88 1.88 0 0 0 -2-2c-1.18 0-2.31.63-2.31 2.94v1.64a2.22 2.22 0 0 1 2.08-1.23h.63c2.19 0 2.81 1.83 2.81 3.25s-.68 3.23-3 3.24h-.66c-2 0-2.91-1.4-3-3.29zm3.58 6c1.42 0 1.91-1.15 1.91-2.23s-.48-2.23-1.91-2.23h-.61c-1.42 0-1.9 1.16-1.9 2.23s.49 2.22 1.9 2.23z"/><path d="m133.11 406.51a2.85 2.85 0 0 1 3 2.77v.22a2.33 2.33 0 0 1 -1.63 2.29 2.39 2.39 0 0 1 1.74 2.43v.21a2.9 2.9 0 0 1 -3.1 2.92h-.28a3.18 3.18 0 0 1 -3.19-3.1v-.07h1a2.25 2.25 0 0 0 2.26 2.16h.17a1.93 1.93 0 0 0 2-1.93v-.11c0-1.32-.93-2-2.27-2h-.81v-1h.92a1.92 1.92 0 0 0 2.16-1.88v-.11a1.87 1.87 0 0 0 -1.94-1.79h-.17a2.24 2.24 0 0 0 -2.22 2h-1.05v-.1a3.21 3.21 0 0 1 3.17-2.93z"/><path d="m139.36 407.66v9.56h-1.07v-9.56h-.94v-1h2z"/><path d="m140.83 416.18h1v1h-1z"/><path d="m146.66 406.52a2.94 2.94 0 0 1 3 3.19c0 3.26-4.93 3.57-5.22 6.45h5.13v1h-6.36v-.6c0-3.86 5.39-4 5.39-6.88a2 2 0 0 0 -2-2.22h-.13a2.28 2.28 0 0 0 -2.19 2.11h-1.07v-.13a3.19 3.19 0 0 1 3.15-3z"/><path d="m188.44 410.37c0-3 1.75-3.87 3.35-3.87a2.89 2.89 0 0 1 3.12 3h-1.07a1.89 1.89 0 0 0 -2.05-2c-1.18 0-2.32.63-2.32 2.94v1.64a2.23 2.23 0 0 1 2.09-1.23h.63c2.18 0 2.8 1.83 2.8 3.25s-.67 3.23-2.94 3.24h-.66c-2 0-2.91-1.4-2.95-3.29zm3.58 6c1.42 0 1.91-1.15 1.91-2.23s-.48-2.23-1.91-2.23h-.61c-1.42 0-1.9 1.16-1.9 2.23s.49 2.22 1.9 2.23z"/><path d="m199.6 406.52a2.94 2.94 0 0 1 3 3.19c0 3.26-4.94 3.57-5.22 6.45h5.13v1h-6.36v-.6c0-3.86 5.39-4 5.39-6.88a2 2 0 0 0 -2-2.22h-.13a2.28 2.28 0 0 0 -2.19 2.11h-1.07v-.13a3.19 3.19 0 0 1 3.15-3z"/><path d="m203.9 416.18h1v1h-1z"/><path d="m212.23 406.61v1h-4.34v3.17h1.27a7.07 7.07 0 0 1 1.67.11 2.68 2.68 0 0 1 2.11 2.8v.76a2.91 2.91 0 0 1 -3.09 2.89h-.29a3.17 3.17 0 0 1 -3.19-3.07v-.09h1a2.25 2.25 0 0 0 2.27 2.15h.17a2 2 0 0 0 2-2v-.64c0-1.37-.95-2-2.35-2h-2.71v-5.1z"/><path d="m249.14 407.66v9.56h-1.07v-9.56h-.94v-1h2z"/><path d="m253.9 406.52a2.94 2.94 0 0 1 3 3.19c0 3.26-4.94 3.57-5.22 6.45h5.13v1h-6.36v-.6c0-3.86 5.38-4 5.38-6.88a2 2 0 0 0 -2-2.22h-.13a2.28 2.28 0 0 0 -2.19 2.11h-1.08v-.13a3.19 3.19 0 0 1 3.15-3z"/><path d="m264 406.61v1h-4.33v3.17h1.26a7 7 0 0 1 1.67.11 2.68 2.68 0 0 1 2.12 2.8v.76a2.92 2.92 0 0 1 -3.1 2.89h-.28a3.17 3.17 0 0 1 -3.19-3.07v-.09h1.05a2.24 2.24 0 0 0 2.26 2.15h.17a2 2 0 0 0 2-2v-.64c0-1.37-.95-2-2.35-2h-2.7v-5.1z"/><path d="m309.3 406.52a2.94 2.94 0 0 1 3 3.19c0 3.26-4.94 3.57-5.22 6.45h5.13v1h-6.36v-.6c0-3.86 5.39-4 5.39-6.88a2 2 0 0 0 -2-2.22h-.13a2.28 2.28 0 0 0 -2.19 2.11h-1.07v-.13a3.19 3.19 0 0 1 3.15-3z"/><path d="m319.38 406.61v1h-4.33v3.17h1.26a7 7 0 0 1 1.67.11 2.68 2.68 0 0 1 2.12 2.8v.76a2.91 2.91 0 0 1 -3.09 2.89h-.29a3.17 3.17 0 0 1 -3.19-3.07v-.09h1a2.24 2.24 0 0 0 2.26 2.15h.21a2 2 0 0 0 2-2v-.64c0-1.37-1-2-2.36-2h-2.64v-5.1z"/><path d="m321.43 410.38c0-3 1.65-3.88 3.25-3.88s3.27.9 3.27 3.88v3.09c0 3-1.7 3.88-3.27 3.88s-3.25-.92-3.25-3.88zm5.46.14c0-2.32-1.07-3-2.21-3s-2.19.69-2.19 3v2.81c0 2.32 1 3 2.19 3s2.21-.69 2.21-3z"/><path d="m370.55 406.61v1h-4.34v3.17h1.27a7 7 0 0 1 1.66.11 2.68 2.68 0 0 1 2.12 2.8v.76a2.91 2.91 0 0 1 -3.09 2.89h-.29a3.17 3.17 0 0 1 -3.19-3.07v-.09h1a2.25 2.25 0 0 0 2.27 2.15h.17a2 2 0 0 0 2-2v-.64c0-1.37-.95-2-2.35-2h-2.71v-5.1z"/><path d="m372.59 410.38c0-3 1.66-3.88 3.26-3.88s3.27.9 3.27 3.88v3.09c0 3-1.71 3.88-3.27 3.88s-3.26-.92-3.26-3.88zm5.46.14c0-2.32-1.07-3-2.2-3s-2.19.69-2.19 3v2.81c0 2.32 1 3 2.19 3s2.2-.69 2.2-3z"/><path d="m380.65 410.38c0-3 1.66-3.88 3.26-3.88s3.27.9 3.27 3.88v3.09c0 3-1.7 3.88-3.27 3.88s-3.26-.92-3.26-3.88zm5.47.14c0-2.32-1.08-3-2.21-3s-2.19.69-2.19 3v2.81c0 2.32 1 3 2.19 3s2.21-.69 2.21-3z"/><path d="m425.38 407.66v9.56h-1.07v-9.56h-.94v-1h2z"/><path d="m427.15 410.38c0-3 1.65-3.88 3.25-3.88s3.27.9 3.27 3.88v3.09c0 3-1.7 3.88-3.27 3.88s-3.25-.92-3.25-3.88zm5.46.14c0-2.32-1.08-3-2.21-3s-2.19.69-2.19 3v2.81c0 2.32 1 3 2.19 3s2.21-.69 2.21-3z"/><path d="m435.21 410.38c0-3 1.65-3.88 3.25-3.88s3.28.9 3.28 3.88v3.09c0 3-1.71 3.88-3.28 3.88s-3.25-.92-3.25-3.88zm5.46.14c0-2.32-1.07-3-2.21-3s-2.18.69-2.18 3v2.81c0 2.32 1 3 2.18 3s2.21-.69 2.21-3z"/><path d="m443.27 410.38c0-3 1.66-3.88 3.26-3.88s3.27.9 3.27 3.88v3.09c0 3-1.7 3.88-3.27 3.88s-3.26-.92-3.26-3.88zm5.46.14c0-2.32-1.07-3-2.2-3s-2.19.69-2.19 3v2.81c0 2.32 1 3 2.19 3s2.2-.69 2.2-3z"/><path d="m485.54 406.52a2.94 2.94 0 0 1 3 3.19c0 3.26-4.94 3.57-5.22 6.45h5.13v1h-6.36v-.6c0-3.86 5.39-4 5.39-6.88a2 2 0 0 0 -2-2.22h-.13a2.28 2.28 0 0 0 -2.19 2.11h-1.07v-.13a3.19 3.19 0 0 1 3.15-3z"/><path d="m489.91 410.38c0-3 1.65-3.88 3.25-3.88s3.27.9 3.27 3.88v3.09c0 3-1.7 3.88-3.27 3.88s-3.25-.92-3.25-3.88zm5.46.14c0-2.32-1.07-3-2.21-3s-2.19.69-2.19 3v2.81c0 2.32 1 3 2.19 3s2.21-.69 2.21-3z"/><path d="m498 410.38c0-3 1.66-3.88 3.26-3.88s3.27.9 3.27 3.88v3.09c0 3-1.7 3.88-3.27 3.88s-3.26-.92-3.26-3.88zm5.46.14c0-2.32-1.07-3-2.2-3s-2.19.69-2.19 3v2.81c0 2.32 1 3 2.19 3s2.2-.69 2.2-3z"/><path d="m506 410.38c0-3 1.65-3.88 3.25-3.88s3.27.9 3.27 3.88v3.09c0 3-1.7 3.88-3.27 3.88s-3.25-.92-3.25-3.88zm5.46.14c0-2.32-1.08-3-2.21-3s-2.19.69-2.19 3v2.81c0 2.32 1 3 2.19 3s2.21-.69 2.21-3z"/><path d="m547.59 414.84h-1v2.38h-1.06v-2.38h-4.62v-1.18l3.32-7.05h1.07l-3.3 7.22h3.54v-4.61h1.06v4.61h1z"/><path d="m548.81 410.38c0-3 1.66-3.88 3.26-3.88s3.27.9 3.27 3.88v3.09c0 3-1.7 3.88-3.27 3.88s-3.26-.92-3.26-3.88zm5.47.14c0-2.32-1.08-3-2.21-3s-2.19.69-2.19 3v2.81c0 2.32 1 3 2.19 3s2.21-.69 2.21-3z"/><path d="m556.88 410.38c0-3 1.65-3.88 3.25-3.88s3.28.9 3.28 3.88v3.09c0 3-1.71 3.88-3.28 3.88s-3.25-.92-3.25-3.88zm5.46.14c0-2.32-1.07-3-2.21-3s-2.19.69-2.19 3v2.81c0 2.32 1 3 2.19 3s2.21-.69 2.21-3z"/><path d="m564.94 410.38c0-3 1.66-3.88 3.26-3.88s3.27.9 3.27 3.88v3.09c0 3-1.7 3.88-3.27 3.88s-3.26-.92-3.26-3.88zm5.46.14c0-2.32-1.07-3-2.2-3s-2.19.69-2.19 3v2.81c0 2.32 1 3 2.19 3s2.2-.69 2.2-3z"/><path d="m603.2 406.51a2.89 2.89 0 0 1 3 2.76v.22a2.41 2.41 0 0 1 -1.62 2.3 2.43 2.43 0 0 1 1.74 2.41v.23a2.92 2.92 0 0 1 -3.1 2.91h-.49a2.92 2.92 0 0 1 -3.11-2.91v-.23a2.44 2.44 0 0 1 1.75-2.4 2.44 2.44 0 0 1 -1.64-2.31v-.22a2.9 2.9 0 0 1 3-2.76zm2 7.73a1.91 1.91 0 0 0 -2.18-2h-.21a1.91 1.91 0 0 0 -2.18 2v.11a1.91 1.91 0 0 0 2.06 2h.44a1.93 1.93 0 0 0 2.07-2zm-.12-4.91a1.83 1.83 0 0 0 -2-1.81h-.44a1.83 1.83 0 0 0 -2 1.81v.1a1.81 1.81 0 0 0 2.06 1.81h.21a1.82 1.82 0 0 0 2.07-1.81z"/><path d="m607.64 410.38c0-3 1.66-3.88 3.26-3.88s3.27.9 3.27 3.88v3.09c0 3-1.7 3.88-3.27 3.88s-3.26-.92-3.26-3.88zm5.46.14c0-2.32-1.07-3-2.2-3s-2.19.69-2.19 3v2.81c0 2.32 1 3 2.19 3s2.2-.69 2.2-3z"/><path d="m615.71 410.38c0-3 1.65-3.88 3.25-3.88s3.27.9 3.27 3.88v3.09c0 3-1.7 3.88-3.27 3.88s-3.25-.92-3.25-3.88zm5.46.14c0-2.32-1.08-3-2.21-3s-2.19.69-2.19 3v2.81c0 2.32 1 3 2.19 3s2.21-.69 2.21-3z"/><path d="m623.77 410.38c0-3 1.65-3.88 3.26-3.88s3.27.9 3.27 3.88v3.09c0 3-1.71 3.88-3.27 3.88s-3.26-.92-3.26-3.88zm5.46.14c0-2.32-1.07-3-2.2-3s-2.19.69-2.19 3v2.81c0 2.32 1 3 2.19 3s2.2-.69 2.2-3z"/><path d="m660.37 407.66v9.56h-1.07v-9.56h-.94v-1h2z"/><path d="m661.76 410.37c0-3 1.74-3.87 3.34-3.87a2.89 2.89 0 0 1 3.13 3h-1.07a1.89 1.89 0 0 0 -2.06-2c-1.17 0-2.31.63-2.31 2.94v1.64a2.22 2.22 0 0 1 2.09-1.23h.62c2.19 0 2.81 1.83 2.81 3.25s-.67 3.23-2.94 3.24h-.66c-2 0-2.92-1.4-3-3.29zm3.58 6c1.41 0 1.9-1.15 1.9-2.23s-.48-2.23-1.9-2.23h-.61c-1.42 0-1.9 1.16-1.9 2.23s.49 2.22 1.9 2.23z"/><path d="m669.7 410.38c0-3 1.66-3.88 3.26-3.88s3.27.9 3.27 3.88v3.09c0 3-1.71 3.88-3.27 3.88s-3.26-.92-3.26-3.88zm5.46.14c0-2.32-1.07-3-2.2-3s-2.19.69-2.19 3v2.81c0 2.32 1 3 2.19 3s2.2-.69 2.2-3z"/><path d="m677.76 410.38c0-3 1.66-3.88 3.26-3.88s3.27.9 3.27 3.88v3.09c0 3-1.7 3.88-3.27 3.88s-3.26-.92-3.26-3.88zm5.47.14c0-2.32-1.08-3-2.21-3s-2.19.69-2.19 3v2.81c0 2.32 1 3 2.19 3s2.21-.69 2.21-3z"/><path d="m685.83 410.38c0-3 1.65-3.88 3.25-3.88s3.28.9 3.28 3.88v3.09c0 3-1.71 3.88-3.28 3.88s-3.25-.92-3.25-3.88zm5.46.14c0-2.32-1.07-3-2.21-3s-2.18.69-2.18 3v2.81c0 2.32 1 3 2.18 3s2.21-.69 2.21-3z"/></svg>