<?xml version="1.0" encoding="utf-8"?>
<!-- Generator: Adobe Illustrator 24.3.0, SVG Export Plug-In . SVG Version: 6.00 Build 0)  -->
<svg version="1.1" id="Layer_1" xmlns="http://www.w3.org/2000/svg" xmlns:xlink="http://www.w3.org/1999/xlink" x="0px" y="0px"
	 viewBox="0 0 539 123.5" enable-background="new 0 0 539 123.5" xml:space="preserve">
<circle fill="#E11156" cx="504.2" cy="59.7" r="16.1"/>
<circle fill="#EC008C" cx="461.6" cy="59.7" r="16.1"/>
<circle fill="#92278F" cx="419.1" cy="59.7" r="16.1"/>
<circle fill="#2E3192" cx="376.6" cy="59.7" r="16.1"/>
<circle fill="#0072BC" cx="334.1" cy="59.7" r="16.1"/>
<circle fill="#00AEEF" cx="291.6" cy="59.7" r="16.1"/>
<circle fill="#00A99D" cx="249" cy="59.7" r="16.1"/>
<circle fill="#00A651" cx="206.5" cy="59.7" r="16.1"/>
<circle fill="#8DC63F" cx="164" cy="59.7" r="16.1"/>
<circle fill="#EADF14" cx="121.5" cy="59.7" r="16.1"/>
<circle fill="#F7941D" cx="79" cy="59.7" r="16.1"/>
<circle fill="#ED1C24" cx="36.4" cy="59.7" r="16.1"/>
<g>
	<path fill="#ED1C24" d="M29.3,29.9c-0.8,0-1.6-0.1-2.5-0.2s-1.6-0.3-2.3-0.5c-0.7-0.2-1.3-0.4-1.7-0.7l0.3-3c0.6,0.4,1.3,0.7,2,0.9
		c0.7,0.3,1.4,0.4,2,0.6c0.7,0.1,1.4,0.2,2.1,0.2c0.7,0,1.4-0.1,2-0.3c0.6-0.2,1-0.5,1.4-0.9c0.3-0.4,0.5-1,0.5-1.6
		c0-0.6-0.2-1.2-0.6-1.6c-0.4-0.4-0.9-0.8-1.6-1.1s-1.5-0.6-2.5-0.9c-1.2-0.4-2.3-0.8-3.1-1.3c-0.9-0.5-1.5-1-2-1.7
		c-0.5-0.7-0.7-1.6-0.7-2.7c0-1.1,0.2-2,0.7-2.8c0.5-0.8,1.2-1.5,2.2-2c1-0.5,2.2-0.7,3.7-0.7c0.6,0,1.2,0,1.8,0.1
		c0.6,0.1,1.2,0.2,1.7,0.3s1,0.3,1.5,0.5c0.4,0.2,0.8,0.4,1.2,0.5l-0.3,3c-0.6-0.4-1.1-0.7-1.8-0.9c-0.6-0.3-1.2-0.4-1.9-0.6
		s-1.2-0.2-1.7-0.2c-0.7,0-1.3,0.1-1.8,0.3c-0.6,0.2-1,0.5-1.3,0.9s-0.5,0.9-0.5,1.5c0,0.5,0.1,1,0.4,1.4c0.3,0.4,0.8,0.7,1.4,1
		c0.6,0.3,1.4,0.6,2.4,0.9c1.6,0.5,2.8,1,3.7,1.5c0.9,0.5,1.5,1.1,1.9,1.8c0.4,0.7,0.6,1.5,0.6,2.6c0,1.1-0.2,2.1-0.7,2.9
		c-0.5,0.9-1.3,1.5-2.3,2C32.3,29.7,30.9,29.9,29.3,29.9z"/>
	<path fill="#ED1C24" d="M42.7,29.9c-0.8,0-1.5-0.2-2.1-0.5c-0.6-0.3-1.1-0.8-1.4-1.4c-0.4-0.6-0.5-1.3-0.5-2.2
		c0-0.8,0.1-1.4,0.4-1.9c0.3-0.5,0.6-0.9,1-1.3c0.4-0.3,0.9-0.6,1.4-0.8c0.5-0.2,1.1-0.3,1.6-0.4l4-0.6c0-0.8-0.1-1.3-0.3-1.7
		s-0.6-0.7-1.1-0.8c-0.5-0.1-1-0.2-1.6-0.2c-0.3,0-0.6,0-1,0.1s-0.7,0.1-1.1,0.2c-0.4,0.1-0.8,0.2-1.2,0.4c-0.4,0.2-0.9,0.3-1.3,0.5
		l-0.2-2.6c0.3-0.1,0.7-0.3,1.1-0.4s0.9-0.2,1.4-0.4c0.5-0.1,1-0.2,1.5-0.2s1.1-0.1,1.6-0.1c1.1,0,2,0.2,2.8,0.5
		c0.8,0.3,1.4,0.8,1.8,1.5c0.4,0.7,0.6,1.6,0.6,2.7c0,0.4,0,8.5,0,9.2h-2.6l-0.2-1.8h-0.3c-0.3,0.3-0.6,0.7-1,1
		c-0.4,0.3-0.9,0.6-1.4,0.8C43.9,29.8,43.3,29.9,42.7,29.9z M43.6,27.6c0.4,0,0.9-0.1,1.3-0.3c0.4-0.2,0.8-0.5,1.2-0.8
		c0.4-0.4,0.7-0.8,0.9-1.3v-2.4c-0.1,0.1-0.3,0.2-0.5,0.2s-0.5,0.2-1,0.2s-1,0.2-1.8,0.3c-0.4,0.1-0.8,0.2-1.2,0.4s-0.6,0.4-0.7,0.7
		s-0.3,0.7-0.3,1.1c0,0.7,0.2,1.1,0.6,1.4S43.1,27.6,43.6,27.6z"/>
</g>
<g>
	<path fill="#FFFFFF" d="M32.8,64.3c-0.4,0-0.8,0-1.2-0.1s-0.8-0.2-1.2-0.3c-0.4-0.1-0.7-0.2-0.9-0.3l0.2-2c0.3,0.2,0.6,0.3,1,0.5
		c0.3,0.1,0.7,0.2,1,0.3s0.7,0.1,1,0.1c0.3,0,0.6,0,0.8-0.1s0.4-0.2,0.5-0.3c0.1-0.2,0.2-0.4,0.2-0.6c0-0.3-0.1-0.5-0.2-0.6
		c-0.2-0.2-0.4-0.3-0.7-0.4s-0.7-0.2-1.1-0.4c-0.6-0.2-1.1-0.4-1.5-0.6c-0.4-0.2-0.7-0.5-1-0.9c-0.2-0.4-0.3-0.8-0.3-1.4
		c0-0.6,0.1-1.1,0.4-1.5c0.2-0.4,0.6-0.8,1.1-1c0.5-0.2,1.1-0.4,1.9-0.4c0.3,0,0.6,0,0.9,0.1c0.3,0,0.6,0.1,0.9,0.2
		c0.3,0.1,0.6,0.1,0.8,0.2s0.5,0.2,0.6,0.3l-0.2,2c-0.3-0.2-0.6-0.3-0.9-0.5s-0.6-0.2-0.9-0.3c-0.3-0.1-0.6-0.1-0.8-0.1
		c-0.3,0-0.5,0-0.7,0.1c-0.2,0.1-0.4,0.2-0.5,0.3c-0.1,0.1-0.2,0.3-0.2,0.6c0,0.2,0.1,0.4,0.2,0.6s0.3,0.3,0.6,0.4
		c0.3,0.1,0.6,0.2,1,0.4c0.8,0.2,1.4,0.5,1.8,0.7c0.4,0.3,0.8,0.6,1,0.9s0.3,0.8,0.3,1.3c0,0.6-0.1,1.1-0.4,1.6
		c-0.3,0.4-0.7,0.8-1.2,1C34.4,64.2,33.7,64.3,32.8,64.3z"/>
	<path fill="#FFFFFF" d="M39.4,64.3c-0.4,0-0.7-0.1-1-0.2s-0.5-0.4-0.7-0.7c-0.2-0.3-0.2-0.6-0.2-1c0-0.4,0.1-0.7,0.2-1
		s0.3-0.5,0.5-0.6c0.2-0.2,0.5-0.3,0.7-0.4c0.3-0.1,0.5-0.1,0.8-0.2l1.9-0.3c0-0.3,0-0.5-0.1-0.6c-0.1-0.1-0.3-0.2-0.5-0.3
		c-0.2-0.1-0.5-0.1-0.7-0.1c-0.2,0-0.3,0-0.5,0s-0.4,0.1-0.6,0.1c-0.2,0-0.4,0.1-0.6,0.2s-0.4,0.2-0.6,0.3l-0.1-1.7
		c0.2-0.1,0.4-0.1,0.6-0.2s0.5-0.1,0.7-0.2s0.5-0.1,0.8-0.1c0.3,0,0.6,0,0.9,0c0.6,0,1,0.1,1.5,0.2s0.7,0.4,0.9,0.8s0.3,0.8,0.3,1.4
		c0,0.2,0,4.1,0,4.5h-1.7l-0.1-0.9h-0.1c-0.1,0.2-0.3,0.3-0.5,0.5c-0.2,0.2-0.4,0.3-0.7,0.4S39.7,64.3,39.4,64.3z M40.2,62.7
		c0.2,0,0.3,0,0.5-0.1c0.2-0.1,0.3-0.2,0.4-0.3c0.1-0.1,0.3-0.3,0.4-0.5v-1c-0.1,0-0.1,0.1-0.2,0.1c-0.1,0-0.2,0.1-0.4,0.1
		c-0.2,0-0.4,0.1-0.7,0.1c-0.2,0-0.3,0.1-0.4,0.2c-0.1,0.1-0.2,0.2-0.3,0.3c-0.1,0.1-0.1,0.3-0.1,0.4c0,0.3,0.1,0.4,0.2,0.6
		C39.8,62.6,40,62.7,40.2,62.7z"/>
</g>
<g>
	<path fill="#FFFFFF" d="M327,64.1c0-0.5,0-9.2,0-9.7c0.4,0,3,0,3.9,0c0.8,0,1.4,0.1,2,0.3c0.5,0.2,0.9,0.5,1.2,1s0.4,1,0.4,1.8
		c0,0.6-0.1,1.2-0.3,1.7s-0.6,0.9-1.1,1.1c-0.5,0.3-1.2,0.4-2,0.4c-0.2,0-1.9,0-2.1,0V59h1.5c0.4,0,0.7-0.1,1-0.2s0.4-0.3,0.6-0.5
		c0.1-0.2,0.2-0.5,0.2-0.9c0-0.3,0-0.5-0.1-0.7c-0.1-0.2-0.2-0.3-0.3-0.4s-0.3-0.2-0.5-0.2c-0.2,0-0.3-0.1-0.5-0.1h-2.6l1.1-1.4
		c0,0.5,0,8.8,0,9.3H327z"/>
	<path fill="#FFFFFF" d="M337.3,64.3c-0.4,0-0.7-0.1-1-0.2c-0.3-0.2-0.5-0.4-0.7-0.7c-0.2-0.3-0.2-0.6-0.2-1c0-0.4,0.1-0.7,0.2-1
		s0.3-0.5,0.5-0.6c0.2-0.2,0.5-0.3,0.7-0.4c0.3-0.1,0.5-0.1,0.8-0.2l1.9-0.3c0-0.3,0-0.5-0.1-0.6s-0.3-0.2-0.5-0.3
		c-0.2-0.1-0.5-0.1-0.7-0.1c-0.2,0-0.3,0-0.5,0s-0.4,0.1-0.6,0.1s-0.4,0.1-0.6,0.2s-0.4,0.2-0.6,0.3l-0.1-1.7
		c0.2-0.1,0.4-0.1,0.6-0.2c0.2-0.1,0.5-0.1,0.7-0.2s0.5-0.1,0.8-0.1s0.6,0,0.9,0c0.6,0,1,0.1,1.5,0.2c0.4,0.2,0.7,0.4,0.9,0.8
		s0.3,0.8,0.3,1.4c0,0.2,0,4.1,0,4.5h-1.7l-0.1-0.9h-0.1c-0.1,0.2-0.3,0.3-0.5,0.5c-0.2,0.2-0.4,0.3-0.7,0.4
		C337.9,64.2,337.7,64.3,337.3,64.3z M338.1,62.7c0.2,0,0.3,0,0.5-0.1c0.2-0.1,0.3-0.2,0.4-0.3c0.1-0.1,0.3-0.3,0.4-0.5v-1
		c-0.1,0-0.1,0.1-0.2,0.1c-0.1,0-0.2,0.1-0.4,0.1c-0.2,0-0.4,0.1-0.7,0.1c-0.2,0-0.3,0.1-0.4,0.2c-0.1,0.1-0.2,0.2-0.3,0.3
		c-0.1,0.1-0.1,0.3-0.1,0.4c0,0.3,0.1,0.4,0.2,0.6C337.8,62.6,337.9,62.7,338.1,62.7z"/>
</g>
<g>
	<path fill="#FFFFFF" d="M369.5,64.1c0-0.5,0-9.2,0-9.7c0.4,0,3.4,0,3.8,0c0.7,0,1.4,0.1,2,0.3c0.6,0.2,1.1,0.5,1.5,0.9
		c0.4,0.4,0.7,0.9,0.9,1.5s0.3,1.3,0.3,2c0,0.7-0.1,1.3-0.3,1.9c-0.2,0.6-0.5,1.1-0.9,1.6c-0.4,0.4-0.9,0.8-1.6,1
		c-0.7,0.2-1.5,0.4-2.4,0.4C372.4,64.1,369.8,64.1,369.5,64.1z M371.7,62.3h1.1c0.7,0,1.3-0.1,1.7-0.4c0.4-0.3,0.7-0.6,0.9-1.1
		c0.2-0.5,0.3-1,0.3-1.6c0-0.4-0.1-0.9-0.2-1.2c-0.1-0.4-0.3-0.7-0.5-0.9c-0.2-0.3-0.5-0.5-0.8-0.6c-0.3-0.1-0.7-0.2-1.2-0.2h-1.2
		C371.7,56.5,371.7,62,371.7,62.3z"/>
	<path fill="#FFFFFF" d="M379.3,58.1l-0.5-1.6c0.6-0.3,3.1-1.5,3.7-1.8l-0.1,1.9C381.9,56.8,379.8,57.9,379.3,58.1z M381.4,64.1
		c0-0.5,0-8,0-8.5l1.1-0.9l1,0.1c0,0.5,0,8.8,0,9.3H381.4z"/>
</g>
<g>
	<path fill="#FFFFFF" d="M496.1,64.1c0-0.5,0-9.2,0-9.7h1.9c0.5,0.7,4.1,5.9,4.1,5.9h0.2c0,0,0-5.4,0-5.9h2.1c0,0.5,0,9.2,0,9.7
		h-1.9c-0.4-0.5-4.1-5.9-4.1-5.9h-0.2c0,0,0,5.4,0,5.9H496.1z"/>
	<path fill="#FFFFFF" d="M509.1,64.3c-0.3,0-0.6,0-1-0.1c-0.3,0-0.6-0.1-0.9-0.1c-0.3-0.1-0.5-0.1-0.8-0.2c-0.2-0.1-0.5-0.2-0.7-0.3
		l0.2-1.9c0.2,0.1,0.5,0.2,0.7,0.3s0.5,0.2,0.7,0.3s0.5,0.1,0.7,0.2c0.2,0,0.5,0.1,0.7,0.1c0.6,0,1-0.1,1.3-0.3
		c0.3-0.2,0.4-0.5,0.4-0.8c0-0.4-0.2-0.7-0.5-0.9c-0.3-0.2-0.8-0.3-1.4-0.3c-0.2,0-1,0-1.1,0v-1.5c0.2,0,0.9,0,1,0
		c0.4,0,0.7,0,1-0.1c0.3-0.1,0.4-0.2,0.6-0.4c0.1-0.2,0.2-0.4,0.2-0.6c0-0.4-0.1-0.6-0.4-0.8c-0.3-0.2-0.6-0.3-1.1-0.3
		c-0.2,0-0.4,0-0.7,0.1c-0.2,0-0.4,0.1-0.7,0.2s-0.5,0.2-0.7,0.3c-0.2,0.1-0.4,0.2-0.7,0.4l-0.2-1.9c0.2-0.1,0.4-0.2,0.7-0.3
		s0.5-0.2,0.8-0.2c0.3-0.1,0.6-0.1,0.9-0.2c0.3,0,0.6-0.1,0.9-0.1c0.7,0,1.3,0.1,1.8,0.3c0.5,0.2,0.9,0.5,1.1,0.8
		c0.3,0.4,0.4,0.8,0.4,1.3c0,0.4-0.1,0.7-0.2,1c-0.2,0.3-0.4,0.5-0.6,0.7c-0.3,0.2-0.5,0.3-0.9,0.4v0.2c0.2,0,0.5,0.1,0.7,0.2
		s0.4,0.3,0.6,0.5c0.2,0.2,0.3,0.4,0.5,0.7c0.1,0.3,0.2,0.6,0.2,1c0,0.5-0.1,1-0.4,1.4c-0.3,0.4-0.6,0.7-1.2,1
		C510.6,64.2,509.9,64.3,509.1,64.3z"/>
</g>
<g>
	<path fill="#FFFFFF" d="M72.1,64.1c0-0.5,0-9.2,0-9.7c0.3,0,3.2,0,3.7,0c0.8,0,1.5,0.1,2,0.3c0.5,0.2,1,0.5,1.2,0.9
		c0.3,0.4,0.4,1,0.4,1.7c0,0.6-0.1,1.1-0.3,1.5c-0.2,0.4-0.6,0.8-1.1,1.1c-0.5,0.3-1.1,0.4-1.9,0.4l0.9-0.8c0,0,3.1,4.5,3.2,4.8
		h-2.5c-0.2-0.4-2.9-4.6-2.9-4.6l1.3,1h-2.3v-1.6h1.6c0.4,0,0.7,0,0.9-0.1c0.2-0.1,0.4-0.2,0.6-0.5c0.1-0.2,0.2-0.5,0.2-0.9
		c0-0.3,0-0.5-0.1-0.7c-0.1-0.2-0.2-0.3-0.3-0.4s-0.3-0.2-0.5-0.2s-0.3-0.1-0.5-0.1h-3l1.6-1.4c0,0.5,0,8.8,0,9.3H72.1z"/>
	<path fill="#FFFFFF" d="M81.4,58.1l-0.5-1.6c0.6-0.3,3.1-1.5,3.7-1.8l-0.1,1.9C84,56.8,81.9,57.9,81.4,58.1z M83.5,64.1
		c0-0.5,0-8,0-8.5l1.1-0.9l1,0.1c0,0.5,0,8.8,0,9.3H83.5z"/>
</g>
<g>
	<path fill="#FFFFFF" d="M203.3,64.3c-0.8,0-1.6-0.1-2.2-0.4c-0.6-0.2-1.2-0.6-1.6-1c-0.4-0.4-0.8-1-1-1.6c-0.2-0.6-0.3-1.3-0.3-2
		c0-1,0.2-1.9,0.6-2.6c0.4-0.8,1-1.4,1.7-1.8s1.7-0.6,2.7-0.6c0.3,0,0.7,0,1,0.1c0.3,0,0.6,0.1,0.9,0.2c0.3,0.1,0.6,0.1,0.8,0.2
		c0.2,0.1,0.5,0.2,0.7,0.3l-0.2,2.1c-0.4-0.2-0.7-0.4-1.1-0.5c-0.4-0.1-0.7-0.2-1-0.3c-0.3-0.1-0.6-0.1-0.9-0.1
		c-0.4,0-0.8,0.1-1.2,0.2c-0.4,0.1-0.7,0.3-0.9,0.6c-0.3,0.3-0.5,0.6-0.6,1c-0.1,0.4-0.2,0.8-0.2,1.4c0,0.4,0.1,0.9,0.2,1.2
		c0.1,0.4,0.3,0.7,0.6,1s0.6,0.5,1,0.7c0.4,0.2,0.9,0.3,1.4,0.3c0.3,0,0.5,0,0.8,0c0.3,0,0.5-0.1,0.7-0.1c0.2-0.1,0.5-0.1,0.7-0.2
		c0.2-0.1,0.5-0.2,0.7-0.3l0.3,2c-0.2,0.1-0.4,0.1-0.6,0.2s-0.5,0.1-0.8,0.2c-0.3,0-0.6,0.1-1,0.1C204,64.3,203.7,64.3,203.3,64.3z
		 M204.6,63.8c0-0.5,0-4.4,0-4.7h2.1c0,0.4,0,4.2,0,4.7L204.6,63.8z"/>
	<path fill="#FFFFFF" d="M211.3,64.3c-0.3,0-0.6,0-1-0.1c-0.3,0-0.6-0.1-0.9-0.1c-0.3-0.1-0.5-0.1-0.8-0.2c-0.2-0.1-0.5-0.2-0.7-0.3
		l0.2-1.9c0.2,0.1,0.5,0.2,0.7,0.3s0.5,0.2,0.7,0.3s0.5,0.1,0.7,0.2c0.2,0,0.5,0.1,0.7,0.1c0.6,0,1-0.1,1.3-0.3
		c0.3-0.2,0.4-0.5,0.4-0.8c0-0.4-0.2-0.7-0.5-0.9c-0.3-0.2-0.8-0.3-1.4-0.3c-0.2,0-1,0-1.1,0v-1.5c0.2,0,0.9,0,1,0
		c0.4,0,0.7,0,1-0.1c0.3-0.1,0.4-0.2,0.6-0.4c0.1-0.2,0.2-0.4,0.2-0.6c0-0.4-0.1-0.6-0.4-0.8c-0.3-0.2-0.6-0.3-1.1-0.3
		c-0.2,0-0.4,0-0.7,0.1c-0.2,0-0.4,0.1-0.7,0.2c-0.2,0.1-0.5,0.2-0.7,0.3c-0.2,0.1-0.4,0.2-0.7,0.4l-0.2-1.9
		c0.2-0.1,0.4-0.2,0.7-0.3c0.2-0.1,0.5-0.2,0.8-0.2c0.3-0.1,0.6-0.1,0.9-0.2c0.3,0,0.6-0.1,0.9-0.1c0.7,0,1.3,0.1,1.8,0.3
		c0.5,0.2,0.9,0.5,1.1,0.8c0.3,0.4,0.4,0.8,0.4,1.3c0,0.4-0.1,0.7-0.2,1s-0.4,0.5-0.6,0.7s-0.5,0.3-0.9,0.4v0.2
		c0.2,0,0.5,0.1,0.7,0.2c0.2,0.1,0.4,0.3,0.6,0.5c0.2,0.2,0.3,0.4,0.5,0.7s0.2,0.6,0.2,1c0,0.5-0.1,1-0.4,1.4
		c-0.3,0.4-0.6,0.7-1.2,1C212.8,64.2,212.1,64.3,211.3,64.3z"/>
</g>
<g>
	<path fill="#FFFFFF" d="M240.1,64.1c0.1-0.5,1.1-9.1,1.2-9.7h2.3c0.2,0.6,2.4,6,2.4,6h0.1c0,0,2.1-5.5,2.3-6h2.2
		c0.1,0.5,1.2,9.2,1.2,9.7h-2.1c-0.1-0.7-0.7-5.9-0.7-5.9h-0.1c0,0-1.9,5.4-2,5.9h-1.5c-0.1-0.3-2.3-5.9-2.3-5.9h-0.1
		c0,0-0.6,5.3-0.7,5.9H240.1z"/>
	<path fill="#FFFFFF" d="M253.3,58.1l-0.5-1.6c0.6-0.3,3.1-1.5,3.7-1.8l-0.1,1.9C255.9,56.8,253.8,57.9,253.3,58.1z M255.4,64.1
		c0-0.5,0-8,0-8.5l1.1-0.9l1,0.1c0,0.5,0,8.8,0,9.3H255.4z"/>
</g>
<g>
	<path fill="#FFFFFF" d="M281.8,64.1c0.1-0.5,1.1-9.1,1.2-9.7h2.3c0.2,0.6,2.4,6,2.4,6h0.1c0,0,2.1-5.5,2.3-6h2.2
		c0.1,0.5,1.2,9.2,1.2,9.7h-2.1c-0.1-0.7-0.7-5.9-0.7-5.9h-0.1c0,0-1.9,5.4-2,5.9H287c-0.1-0.3-2.3-5.9-2.3-5.9h-0.1
		c0,0-0.6,5.3-0.7,5.9H281.8z"/>
	<path fill="#FFFFFF" d="M294.8,64.1v-1.4c0.2-0.2,1.2-1,1.5-1.3c0.6-0.5,1.1-0.9,1.5-1.4s0.7-0.8,1-1.2c0.2-0.4,0.3-0.8,0.3-1.2
		c0-0.4-0.1-0.8-0.4-1c-0.2-0.2-0.6-0.3-1.1-0.3c-0.2,0-0.4,0-0.7,0.1c-0.2,0-0.4,0.1-0.7,0.2c-0.2,0.1-0.5,0.2-0.7,0.3
		c-0.2,0.1-0.4,0.2-0.7,0.4l-0.2-2c0.2-0.1,0.4-0.2,0.7-0.3c0.3-0.1,0.5-0.2,0.8-0.2c0.3-0.1,0.6-0.1,0.9-0.2c0.3,0,0.6-0.1,0.9-0.1
		c0.7,0,1.3,0.1,1.7,0.3c0.5,0.2,0.8,0.5,1.1,1s0.4,0.9,0.4,1.5c0,0.5-0.1,1-0.3,1.4s-0.5,0.9-0.9,1.4c-0.4,0.5-0.9,1-1.5,1.4
		l-1.3,1.1l-0.3-0.4c0,0,4,0,4.4,0v1.8H294.8z"/>
</g>
<g>
	<path fill="#FFFFFF" d="M113.9,70.9c0-0.5,0-9.2,0-9.7c0.3,0,3.2,0,3.7,0c0.8,0,1.5,0.1,2,0.3c0.5,0.2,1,0.5,1.2,0.9
		c0.3,0.4,0.4,1,0.4,1.7c0,0.6-0.1,1.1-0.3,1.5c-0.2,0.4-0.6,0.8-1.1,1.1c-0.5,0.3-1.1,0.4-1.9,0.4l0.9-0.8c0,0,3.1,4.5,3.2,4.8
		h-2.5c-0.2-0.4-2.9-4.6-2.9-4.6l1.3,1h-2.3v-1.6h1.6c0.4,0,0.7,0,0.9-0.1c0.2-0.1,0.4-0.2,0.6-0.5c0.1-0.2,0.2-0.5,0.2-0.9
		c0-0.3,0-0.5-0.1-0.7c-0.1-0.2-0.2-0.3-0.3-0.4s-0.3-0.2-0.5-0.2s-0.3-0.1-0.5-0.1h-3l1.6-1.4c0,0.5,0,8.8,0,9.3H113.9z"/>
	<path fill="#FFFFFF" d="M122.9,70.9v-1.4c0.2-0.2,1.2-1,1.5-1.3c0.6-0.5,1.1-0.9,1.5-1.4s0.7-0.8,1-1.2c0.2-0.4,0.3-0.8,0.3-1.2
		c0-0.4-0.1-0.8-0.4-1c-0.2-0.2-0.6-0.3-1.1-0.3c-0.2,0-0.4,0-0.7,0.1c-0.2,0-0.4,0.1-0.7,0.2c-0.2,0.1-0.5,0.2-0.7,0.3
		c-0.2,0.1-0.4,0.2-0.7,0.4l-0.2-2c0.2-0.1,0.4-0.2,0.7-0.3c0.3-0.1,0.5-0.2,0.8-0.2c0.3-0.1,0.6-0.1,0.9-0.2c0.3,0,0.6-0.1,0.9-0.1
		c0.7,0,1.3,0.1,1.7,0.3c0.5,0.2,0.8,0.5,1.1,1s0.4,0.9,0.4,1.5c0,0.5-0.1,1-0.3,1.4s-0.5,0.9-0.9,1.4c-0.4,0.5-0.9,1-1.5,1.4
		l-1.3,1.1l-0.3-0.4c0,0,4,0,4.4,0v1.8H122.9z"/>
</g>
<g>
	<path fill="#FFFFFF" d="M119.2,58.3c-0.8,0-1.6-0.1-2.2-0.4c-0.6-0.2-1.2-0.6-1.6-1c-0.4-0.4-0.8-1-1-1.6c-0.2-0.6-0.3-1.3-0.3-2
		c0-1,0.2-1.9,0.6-2.6c0.4-0.8,1-1.4,1.7-1.8s1.7-0.6,2.7-0.6c0.3,0,0.7,0,1,0.1c0.3,0,0.6,0.1,0.9,0.2c0.3,0.1,0.6,0.1,0.8,0.2
		c0.2,0.1,0.5,0.2,0.7,0.3l-0.2,2.1c-0.4-0.2-0.7-0.4-1.1-0.5c-0.4-0.1-0.7-0.2-1-0.3c-0.3-0.1-0.6-0.1-0.9-0.1
		c-0.4,0-0.8,0.1-1.2,0.2c-0.4,0.1-0.7,0.3-0.9,0.6c-0.3,0.3-0.5,0.6-0.6,1c-0.1,0.4-0.2,0.8-0.2,1.4c0,0.4,0.1,0.9,0.2,1.2
		c0.1,0.4,0.3,0.7,0.6,1s0.6,0.5,1,0.7c0.4,0.2,0.9,0.3,1.4,0.3c0.3,0,0.5,0,0.8,0c0.3,0,0.5-0.1,0.7-0.1c0.2-0.1,0.5-0.1,0.7-0.2
		c0.2-0.1,0.5-0.2,0.7-0.3l0.3,2c-0.2,0.1-0.4,0.1-0.6,0.2s-0.5,0.1-0.8,0.2c-0.3,0-0.6,0.1-1,0.1C119.9,58.2,119.5,58.3,119.2,58.3
		z M120.5,57.8c0-0.5,0-4.4,0-4.7h2.1c0,0.4,0,4.2,0,4.7L120.5,57.8z"/>
	<path fill="#FFFFFF" d="M124.1,52.1l-0.5-1.6c0.6-0.3,3.1-1.5,3.7-1.8l-0.1,1.9C126.7,50.8,124.7,51.8,124.1,52.1z M126.3,58.1
		c0-0.5,0-8,0-8.5l1.1-0.9l1,0.1c0,0.5,0,8.8,0,9.3H126.3z"/>
</g>
<g>
	<path fill="#FFFFFF" d="M156.3,70.9c0-0.5,0-9.2,0-9.7c0.3,0,3.2,0,3.7,0c0.8,0,1.5,0.1,2,0.3c0.5,0.2,1,0.5,1.2,0.9
		c0.3,0.4,0.4,1,0.4,1.7c0,0.6-0.1,1.1-0.3,1.5c-0.2,0.4-0.6,0.8-1.1,1.1c-0.5,0.3-1.1,0.4-1.9,0.4l0.9-0.8c0,0,3.1,4.5,3.2,4.8
		h-2.5c-0.2-0.4-2.9-4.6-2.9-4.6l1.3,1h-2.3v-1.6h1.6c0.4,0,0.7,0,0.9-0.1c0.2-0.1,0.4-0.2,0.6-0.5c0.1-0.2,0.2-0.5,0.2-0.9
		c0-0.3,0-0.5-0.1-0.7c-0.1-0.2-0.2-0.3-0.3-0.4s-0.3-0.2-0.5-0.2s-0.3-0.1-0.5-0.1h-3l1.6-1.4c0,0.5,0,8.8,0,9.3H156.3z"/>
	<path fill="#FFFFFF" d="M168.5,71.1c-0.3,0-0.6,0-1-0.1c-0.3,0-0.6-0.1-0.9-0.1c-0.3-0.1-0.5-0.1-0.8-0.2c-0.2-0.1-0.5-0.2-0.7-0.3
		l0.2-1.9c0.2,0.1,0.5,0.2,0.7,0.3s0.5,0.2,0.7,0.3s0.5,0.1,0.7,0.2c0.2,0,0.5,0.1,0.7,0.1c0.6,0,1-0.1,1.3-0.3
		c0.3-0.2,0.4-0.5,0.4-0.8c0-0.4-0.2-0.7-0.5-0.9c-0.3-0.2-0.8-0.3-1.4-0.3c-0.2,0-1,0-1.1,0v-1.5c0.2,0,0.9,0,1,0
		c0.4,0,0.7,0,1-0.1c0.3-0.1,0.4-0.2,0.6-0.4c0.1-0.2,0.2-0.4,0.2-0.6c0-0.4-0.1-0.6-0.4-0.8c-0.3-0.2-0.6-0.3-1.1-0.3
		c-0.2,0-0.4,0-0.7,0.1c-0.2,0-0.4,0.1-0.7,0.2c-0.2,0.1-0.5,0.2-0.7,0.3c-0.2,0.1-0.4,0.2-0.7,0.4l-0.2-1.9
		c0.2-0.1,0.4-0.2,0.7-0.3c0.2-0.1,0.5-0.2,0.8-0.2c0.3-0.1,0.6-0.1,0.9-0.2c0.3,0,0.6-0.1,0.9-0.1c0.7,0,1.3,0.1,1.8,0.3
		c0.5,0.2,0.9,0.5,1.1,0.8c0.3,0.4,0.4,0.8,0.4,1.3c0,0.4-0.1,0.7-0.2,1s-0.4,0.5-0.6,0.7s-0.5,0.3-0.9,0.4v0.2
		c0.2,0,0.5,0.1,0.7,0.2c0.2,0.1,0.4,0.3,0.6,0.5c0.2,0.2,0.3,0.4,0.5,0.7s0.2,0.6,0.2,1c0,0.5-0.1,1-0.4,1.4
		c-0.3,0.4-0.6,0.7-1.2,1C170,71,169.3,71.1,168.5,71.1z"/>
</g>
<g>
	<path fill="#FFFFFF" d="M160.9,58.3c-0.8,0-1.6-0.1-2.2-0.4c-0.6-0.2-1.2-0.6-1.6-1c-0.4-0.4-0.8-1-1-1.6c-0.2-0.6-0.3-1.3-0.3-2
		c0-1,0.2-1.9,0.6-2.6c0.4-0.8,1-1.4,1.7-1.8s1.7-0.6,2.7-0.6c0.3,0,0.7,0,1,0.1c0.3,0,0.6,0.1,0.9,0.2c0.3,0.1,0.6,0.1,0.8,0.2
		c0.2,0.1,0.5,0.2,0.7,0.3L164,51c-0.4-0.2-0.7-0.4-1.1-0.5c-0.4-0.1-0.7-0.2-1-0.3c-0.3-0.1-0.6-0.1-0.9-0.1
		c-0.4,0-0.8,0.1-1.2,0.2c-0.4,0.1-0.7,0.3-0.9,0.6c-0.3,0.3-0.5,0.6-0.6,1c-0.1,0.4-0.2,0.8-0.2,1.4c0,0.4,0.1,0.9,0.2,1.2
		c0.1,0.4,0.3,0.7,0.6,1s0.6,0.5,1,0.7c0.4,0.2,0.9,0.3,1.4,0.3c0.3,0,0.5,0,0.8,0c0.3,0,0.5-0.1,0.7-0.1c0.2-0.1,0.5-0.1,0.7-0.2
		c0.2-0.1,0.5-0.2,0.7-0.3l0.3,2c-0.2,0.1-0.4,0.1-0.6,0.2s-0.5,0.1-0.8,0.2c-0.3,0-0.6,0.1-1,0.1C161.6,58.2,161.3,58.3,160.9,58.3
		z M162.2,57.8c0-0.5,0-4.4,0-4.7h2.1c0,0.4,0,4.2,0,4.7L162.2,57.8z"/>
	<path fill="#FFFFFF" d="M165.7,58.1v-1.4c0.2-0.2,1.2-1,1.5-1.3c0.6-0.5,1.1-0.9,1.5-1.4s0.7-0.8,1-1.2c0.2-0.4,0.3-0.8,0.3-1.2
		c0-0.4-0.1-0.8-0.4-1c-0.2-0.2-0.6-0.3-1.1-0.3c-0.2,0-0.4,0-0.7,0.1c-0.2,0-0.4,0.1-0.7,0.2c-0.2,0.1-0.5,0.2-0.7,0.3
		c-0.2,0.1-0.4,0.2-0.7,0.4l-0.2-2c0.2-0.1,0.4-0.2,0.7-0.3c0.3-0.1,0.5-0.2,0.8-0.2c0.3-0.1,0.6-0.1,0.9-0.2c0.3,0,0.6-0.1,0.9-0.1
		c0.7,0,1.3,0.1,1.7,0.3c0.5,0.2,0.8,0.5,1.1,1s0.4,0.9,0.4,1.5c0,0.5-0.1,1-0.3,1.4s-0.5,0.9-0.9,1.4c-0.4,0.5-0.9,1-1.5,1.4
		l-1.3,1.1l-0.3-0.4c0,0,4,0,4.4,0v1.8H165.7z"/>
</g>
<g>
	<path fill="#FFFFFF" d="M411.2,70.9c0-0.5,0-9.2,0-9.7c0.4,0,3.4,0,3.8,0c0.7,0,1.4,0.1,2,0.3c0.6,0.2,1.1,0.5,1.5,0.9
		c0.4,0.4,0.7,0.9,0.9,1.5s0.3,1.3,0.3,2c0,0.7-0.1,1.3-0.3,1.9c-0.2,0.6-0.5,1.1-0.9,1.6c-0.4,0.4-0.9,0.8-1.6,1
		c-0.7,0.2-1.5,0.4-2.4,0.4C414.1,70.9,411.6,70.9,411.2,70.9z M413.5,69.2h1.1c0.7,0,1.3-0.1,1.7-0.4c0.4-0.3,0.7-0.6,0.9-1.1
		c0.2-0.5,0.3-1,0.3-1.6c0-0.4-0.1-0.9-0.2-1.2c-0.1-0.4-0.3-0.7-0.5-0.9c-0.2-0.3-0.5-0.5-0.8-0.6c-0.3-0.1-0.7-0.2-1.2-0.2h-1.2
		C413.5,63.4,413.5,68.9,413.5,69.2z"/>
	<path fill="#FFFFFF" d="M420.8,70.9v-1.4c0.2-0.2,1.2-1,1.5-1.3c0.6-0.5,1.1-0.9,1.5-1.4c0.4-0.4,0.7-0.8,1-1.2
		c0.2-0.4,0.3-0.8,0.3-1.2c0-0.4-0.1-0.8-0.4-1c-0.2-0.2-0.6-0.3-1.1-0.3c-0.2,0-0.4,0-0.7,0.1c-0.2,0-0.4,0.1-0.7,0.2
		c-0.2,0.1-0.5,0.2-0.7,0.3c-0.2,0.1-0.4,0.2-0.7,0.4l-0.2-2c0.2-0.1,0.4-0.2,0.7-0.3c0.3-0.1,0.5-0.2,0.8-0.2
		c0.3-0.1,0.6-0.1,0.9-0.2c0.3,0,0.6-0.1,0.9-0.1c0.7,0,1.3,0.1,1.7,0.3c0.5,0.2,0.8,0.5,1.1,1c0.2,0.4,0.4,0.9,0.4,1.5
		c0,0.5-0.1,1-0.3,1.4s-0.5,0.9-0.9,1.4c-0.4,0.5-0.9,1-1.5,1.4l-1.3,1.1l-0.3-0.4c0,0,4,0,4.4,0v1.8H420.8z"/>
</g>
<g>
	<path fill="#FFFFFF" d="M411.9,58.1c0-0.5,0-9.2,0-9.7h1.9c0.5,0.7,4.1,5.9,4.1,5.9h0.2c0,0,0-5.4,0-5.9h2.1c0,0.5,0,9.2,0,9.7
		h-1.9c-0.4-0.5-4.1-5.9-4.1-5.9H414c0,0,0,5.4,0,5.9H411.9z"/>
	<path fill="#FFFFFF" d="M421.9,52.1l-0.5-1.6c0.6-0.3,3.1-1.5,3.7-1.8l-0.1,1.9C424.5,50.8,422.4,51.8,421.9,52.1z M424,58.1
		c0-0.5,0-8,0-8.5l1.1-0.9l1,0.1c0,0.5,0,8.8,0,9.3H424z"/>
</g>
<g>
	<path fill="#FFFFFF" d="M453.7,70.9c0-0.5,0-9.2,0-9.7c0.4,0,3.4,0,3.8,0c0.7,0,1.4,0.1,2,0.3c0.6,0.2,1.1,0.5,1.5,0.9
		c0.4,0.4,0.7,0.9,0.9,1.5s0.3,1.3,0.3,2c0,0.7-0.1,1.3-0.3,1.9c-0.2,0.6-0.5,1.1-0.9,1.6c-0.4,0.4-0.9,0.8-1.6,1
		c-0.7,0.2-1.5,0.4-2.4,0.4C456.6,70.9,454,70.9,453.7,70.9z M455.9,69.2h1.1c0.7,0,1.2-0.1,1.7-0.4c0.4-0.3,0.7-0.6,0.9-1.1
		c0.2-0.5,0.3-1,0.3-1.6c0-0.4-0.1-0.9-0.2-1.2c-0.1-0.4-0.3-0.7-0.5-0.9s-0.5-0.5-0.8-0.6c-0.3-0.1-0.7-0.2-1.2-0.2h-1.2
		C455.9,63.4,455.9,68.9,455.9,69.2z"/>
	<path fill="#FFFFFF" d="M466.5,71.1c-0.3,0-0.6,0-1-0.1s-0.6-0.1-0.9-0.1c-0.3-0.1-0.5-0.1-0.8-0.2c-0.2-0.1-0.5-0.2-0.7-0.3
		l0.2-1.9c0.2,0.1,0.5,0.2,0.7,0.3s0.5,0.2,0.7,0.3s0.5,0.1,0.7,0.2c0.2,0,0.5,0.1,0.7,0.1c0.6,0,1-0.1,1.3-0.3
		c0.3-0.2,0.4-0.5,0.4-0.8c0-0.4-0.2-0.7-0.5-0.9c-0.3-0.2-0.8-0.3-1.4-0.3c-0.2,0-1,0-1.1,0v-1.5c0.2,0,0.9,0,1,0
		c0.4,0,0.7,0,1-0.1s0.4-0.2,0.6-0.4c0.1-0.2,0.2-0.4,0.2-0.6c0-0.4-0.1-0.6-0.4-0.8c-0.3-0.2-0.6-0.3-1.1-0.3c-0.2,0-0.4,0-0.7,0.1
		c-0.2,0-0.4,0.1-0.7,0.2c-0.2,0.1-0.5,0.2-0.7,0.3c-0.2,0.1-0.4,0.2-0.7,0.4l-0.2-1.9c0.2-0.1,0.4-0.2,0.7-0.3
		c0.2-0.1,0.5-0.2,0.8-0.2s0.6-0.1,0.9-0.2c0.3,0,0.6-0.1,0.9-0.1c0.7,0,1.3,0.1,1.8,0.3c0.5,0.2,0.9,0.5,1.1,0.8
		c0.3,0.4,0.4,0.8,0.4,1.3c0,0.4-0.1,0.7-0.2,1c-0.2,0.3-0.4,0.5-0.6,0.7c-0.3,0.2-0.5,0.3-0.9,0.4v0.2c0.2,0,0.5,0.1,0.7,0.2
		c0.2,0.1,0.4,0.3,0.6,0.5c0.2,0.2,0.3,0.4,0.5,0.7c0.1,0.3,0.2,0.6,0.2,1c0,0.5-0.1,1-0.4,1.4c-0.3,0.4-0.6,0.7-1.2,1
		C467.9,71,467.3,71.1,466.5,71.1z"/>
</g>
<g>
	<path fill="#FFFFFF" d="M453.6,58.1c0-0.5,0-9.2,0-9.7h1.9c0.5,0.7,4.1,5.9,4.1,5.9h0.2c0,0,0-5.4,0-5.9h2.1c0,0.5,0,9.2,0,9.7H460
		c-0.4-0.5-4.1-5.9-4.1-5.9h-0.2c0,0,0,5.4,0,5.9H453.6z"/>
	<path fill="#FFFFFF" d="M463.4,58.1v-1.4c0.2-0.2,1.2-1,1.5-1.3c0.6-0.5,1.1-0.9,1.5-1.4c0.4-0.4,0.7-0.8,1-1.2
		c0.2-0.4,0.3-0.8,0.3-1.2c0-0.4-0.1-0.8-0.4-1c-0.2-0.2-0.6-0.3-1.1-0.3c-0.2,0-0.4,0-0.7,0.1c-0.2,0-0.4,0.1-0.7,0.2
		c-0.2,0.1-0.5,0.2-0.7,0.3c-0.2,0.1-0.4,0.2-0.7,0.4l-0.2-2c0.2-0.1,0.4-0.2,0.7-0.3c0.3-0.1,0.5-0.2,0.8-0.2
		c0.3-0.1,0.6-0.1,0.9-0.2c0.3,0,0.6-0.1,0.9-0.1c0.7,0,1.3,0.1,1.7,0.3c0.5,0.2,0.8,0.5,1.1,1c0.2,0.4,0.4,0.9,0.4,1.5
		c0,0.5-0.1,1-0.3,1.4s-0.5,0.9-0.9,1.4c-0.4,0.5-0.9,1-1.5,1.4l-1.3,1.1l-0.3-0.4c0,0,4,0,4.4,0v1.8H463.4z"/>
</g>
<g>
	<path fill="#D7CD26" d="M110.8,110.5c0-1.1,0-18.5,0-19.6c0.5,0,6,0,6.9,0c1.5,0,2.8,0.2,3.8,0.5c1,0.4,1.8,0.9,2.3,1.7
		c0.5,0.8,0.8,1.9,0.8,3.2c0,1.1-0.2,2.1-0.6,3c-0.4,0.9-1.1,1.6-2.1,2.2c-1,0.5-2.3,0.8-3.9,0.8l1.1-1.4c0,0,6.8,9,7.2,9.5h-3.7
		c-0.6-0.8-6.7-9.2-6.7-9.2l1.9,1.7h-4.5v-2.6h3.6c1,0,1.8-0.1,2.5-0.3c0.7-0.2,1.1-0.6,1.5-1.1c0.3-0.5,0.5-1.2,0.5-2.1
		c0-0.7-0.1-1.3-0.3-1.7c-0.2-0.4-0.5-0.7-0.9-0.9c-0.4-0.2-0.8-0.3-1.2-0.4s-0.9-0.1-1.3-0.1h-5.9l2.2-2.1c0,1.1,0,18,0,19.1H110.8
		z"/>
	<path fill="#D7CD26" d="M130.7,94.1c-0.6,0-1.1-0.2-1.4-0.5s-0.5-0.8-0.5-1.4c0-0.6,0.2-1.1,0.5-1.4c0.4-0.3,0.8-0.5,1.4-0.5
		c0.6,0,1.1,0.2,1.4,0.5s0.5,0.8,0.5,1.4c0,0.7-0.2,1.1-0.5,1.4S131.4,94.1,130.7,94.1z M129.3,110.5c0-1,0-13,0-13.6l2.9-0.1
		c0,0.7,0,12.7,0,13.7H129.3z"/>
</g>
<g>
	<path fill="#67B5C5" d="M251.6,110.5c0.1-1,2.3-18.4,2.4-19.6h3.2c0.5,1.3,5.8,14.3,5.8,14.3h0.2c0,0,5.1-13,5.6-14.3h3.2
		c0.1,1.1,2.3,18.5,2.4,19.6h-3.1c-0.2-1.6-1.7-14-1.7-14h-0.2c0,0-4.8,12.8-5.3,14h-2.2c-0.3-0.8-5.6-14-5.6-14h-0.2
		c0,0-1.5,12.4-1.7,14H251.6z"/>
	<path fill="#67B5C5" d="M281.3,110.7c-0.8,0-1.5-0.2-2.1-0.5c-0.6-0.3-1.1-0.8-1.4-1.4c-0.4-0.6-0.5-1.3-0.5-2.2
		c0-0.8,0.1-1.4,0.4-1.9c0.3-0.5,0.6-0.9,1-1.3c0.4-0.3,0.9-0.6,1.4-0.8c0.5-0.2,1.1-0.3,1.6-0.4l4-0.6c0-0.8-0.1-1.3-0.3-1.7
		s-0.6-0.7-1.1-0.8c-0.5-0.1-1-0.2-1.6-0.2c-0.3,0-0.6,0-1,0.1s-0.7,0.1-1.1,0.2c-0.4,0.1-0.8,0.2-1.2,0.4c-0.4,0.2-0.9,0.3-1.3,0.5
		l-0.2-2.6c0.3-0.1,0.7-0.3,1.1-0.4s0.9-0.2,1.4-0.4c0.5-0.1,1-0.2,1.5-0.2s1.1-0.1,1.6-0.1c1.1,0,2,0.2,2.8,0.5
		c0.8,0.3,1.4,0.8,1.8,1.5c0.4,0.7,0.6,1.6,0.6,2.7c0,0.4,0,8.5,0,9.2h-2.6l-0.2-1.8h-0.3c-0.3,0.3-0.6,0.7-1,1
		c-0.4,0.3-0.9,0.6-1.4,0.8C282.6,110.6,282,110.7,281.3,110.7z M282.2,108.4c0.4,0,0.9-0.1,1.3-0.3c0.4-0.2,0.8-0.5,1.2-0.8
		c0.4-0.4,0.7-0.8,0.9-1.3v-2.4c-0.1,0.1-0.3,0.2-0.5,0.2s-0.5,0.2-1,0.2s-1,0.2-1.8,0.3c-0.4,0.1-0.8,0.2-1.2,0.4s-0.6,0.4-0.7,0.7
		s-0.3,0.7-0.3,1.1c0,0.7,0.2,1.1,0.6,1.4S281.7,108.4,282.2,108.4z"/>
</g>
<g>
	<path fill="#8DC63F" d="M160,29.9c-1.7,0-3.2-0.3-4.5-0.8s-2.4-1.2-3.3-2.1s-1.6-2-2-3.2c-0.5-1.2-0.7-2.6-0.7-4
		c0-2,0.4-3.7,1.2-5.2s2-2.7,3.5-3.6s3.3-1.3,5.3-1.3c0.7,0,1.4,0,2,0.1s1.3,0.2,1.8,0.4c0.6,0.2,1.1,0.3,1.6,0.5
		c0.5,0.2,0.9,0.4,1.3,0.5l-0.3,3c-0.8-0.4-1.5-0.8-2.2-1c-0.7-0.3-1.4-0.5-2.1-0.6s-1.3-0.2-1.9-0.2c-1,0-1.9,0.2-2.8,0.5
		s-1.6,0.8-2.2,1.4s-1.1,1.4-1.4,2.3c-0.3,0.9-0.5,1.9-0.5,3.1c0,1,0.1,2,0.4,2.9c0.3,0.9,0.7,1.7,1.3,2.4c0.6,0.7,1.4,1.2,2.3,1.6
		c0.9,0.4,2,0.6,3.3,0.6c0.5,0,1.1,0,1.6-0.1c0.5-0.1,1-0.1,1.5-0.3c0.5-0.1,1-0.3,1.5-0.4s0.9-0.4,1.4-0.7l0.4,2.9
		c-0.3,0.1-0.7,0.3-1.2,0.4c-0.5,0.1-1,0.3-1.6,0.4c-0.6,0.1-1.2,0.2-1.8,0.3S160.6,29.9,160,29.9z M163.5,28.8c0-1,0-8.5,0-9.2h3
		c0,0.7,0,8.2,0,9.1L163.5,28.8z"/>
	<path fill="#8DC63F" d="M173.7,29.9c-0.8,0-1.5-0.2-2.1-0.5c-0.6-0.3-1.1-0.8-1.4-1.4c-0.4-0.6-0.5-1.3-0.5-2.2
		c0-0.8,0.1-1.4,0.4-1.9c0.3-0.5,0.6-0.9,1-1.3c0.4-0.3,0.9-0.6,1.4-0.8c0.5-0.2,1.1-0.3,1.6-0.4l4-0.6c0-0.8-0.1-1.3-0.3-1.7
		s-0.6-0.7-1.1-0.8c-0.5-0.1-1-0.2-1.6-0.2c-0.3,0-0.6,0-1,0.1s-0.7,0.1-1.1,0.2c-0.4,0.1-0.8,0.2-1.2,0.4c-0.4,0.2-0.9,0.3-1.3,0.5
		l-0.2-2.6c0.3-0.1,0.7-0.3,1.1-0.4s0.9-0.2,1.4-0.4c0.5-0.1,1-0.2,1.5-0.2s1.1-0.1,1.6-0.1c1.1,0,2,0.2,2.8,0.5
		c0.8,0.3,1.4,0.8,1.8,1.5c0.4,0.7,0.6,1.6,0.6,2.7c0,0.4,0,8.5,0,9.2h-2.6l-0.2-1.8h-0.3c-0.3,0.3-0.6,0.7-1,1
		c-0.4,0.3-0.9,0.6-1.4,0.8C174.9,29.8,174.3,29.9,173.7,29.9z M174.6,27.6c0.4,0,0.9-0.1,1.3-0.3c0.4-0.2,0.8-0.5,1.2-0.8
		c0.4-0.4,0.7-0.8,0.9-1.3v-2.4c-0.1,0.1-0.3,0.2-0.5,0.2s-0.5,0.2-1,0.2s-1,0.2-1.8,0.3c-0.4,0.1-0.8,0.2-1.2,0.4s-0.6,0.4-0.7,0.7
		s-0.3,0.7-0.3,1.1c0,0.7,0.2,1.1,0.6,1.4S174.1,27.6,174.6,27.6z"/>
</g>
<g>
	<path fill="#92278F" d="M393.6,110.5c0-1.1,0-18.5,0-19.6c0.8,0,6.4,0,7.2,0c1.5,0,2.8,0.2,4,0.7c1.2,0.4,2.2,1.1,3,1.9
		s1.4,1.9,1.8,3.1s0.6,2.6,0.6,4.1c0,1.4-0.2,2.7-0.6,3.9c-0.4,1.2-1,2.2-1.8,3.1c-0.8,0.9-1.9,1.6-3.2,2.1
		c-1.3,0.5-2.9,0.8-4.8,0.8C399.2,110.5,394.3,110.5,393.6,110.5z M396.9,107.8h3.2c1.7,0,3-0.3,4-0.9c1-0.6,1.7-1.5,2.2-2.6
		c0.4-1.1,0.7-2.3,0.7-3.7c0-1.1-0.1-2-0.4-2.9c-0.3-0.9-0.7-1.6-1.2-2.2c-0.5-0.6-1.2-1.1-2.1-1.4s-1.8-0.5-3-0.5h-3.4
		C396.9,94.3,396.9,107.1,396.9,107.8z"/>
	<path fill="#92278F" d="M413.6,110.5c0-1,0-19,0-20.1l2.9-0.3c0,1.1,0,8.9,0,8.9h0.3c0.3-0.4,0.6-0.8,1-1.1
		c0.4-0.4,0.9-0.7,1.5-0.9c0.6-0.3,1.2-0.4,1.9-0.4c1.4,0,2.5,0.4,3.1,1.2c0.7,0.8,1,2,1,3.6c0,0.6,0,8.1,0,9.1h-2.9
		c0-1,0-8.3,0-8.3c0-1-0.2-1.7-0.5-2.2c-0.3-0.5-1-0.8-1.9-0.8c-0.5,0-1,0.1-1.5,0.3c-0.4,0.2-0.8,0.5-1.2,0.9
		c-0.4,0.4-0.7,0.8-1,1.2c0,0,0,7.9,0,8.9H413.6z"/>
	<path fill="#92278F" d="M432.6,110.7c-0.8,0-1.5-0.2-2.1-0.5s-1.1-0.8-1.4-1.4c-0.4-0.6-0.5-1.3-0.5-2.2c0-0.8,0.1-1.4,0.4-1.9
		c0.3-0.5,0.6-0.9,1-1.3c0.4-0.3,0.9-0.6,1.4-0.8c0.5-0.2,1.1-0.3,1.6-0.4l4-0.6c0-0.8-0.1-1.3-0.3-1.7s-0.6-0.7-1.1-0.8
		c-0.5-0.1-1-0.2-1.6-0.2c-0.3,0-0.6,0-1,0.1s-0.7,0.1-1.1,0.2c-0.4,0.1-0.8,0.2-1.2,0.4c-0.4,0.2-0.9,0.3-1.3,0.5l-0.2-2.6
		c0.3-0.1,0.7-0.3,1.1-0.4c0.4-0.1,0.9-0.2,1.4-0.4c0.5-0.1,1-0.2,1.5-0.2c0.5-0.1,1.1-0.1,1.6-0.1c1.1,0,2,0.2,2.8,0.5
		c0.8,0.3,1.4,0.8,1.8,1.5s0.6,1.6,0.6,2.7c0,0.4,0,8.5,0,9.2h-2.6l-0.2-1.8h-0.3c-0.3,0.3-0.6,0.7-1,1c-0.4,0.3-0.9,0.6-1.4,0.8
		C433.9,110.6,433.3,110.7,432.6,110.7z M433.6,108.4c0.4,0,0.9-0.1,1.3-0.3c0.4-0.2,0.8-0.5,1.2-0.8s0.7-0.8,0.9-1.3v-2.4
		c-0.1,0.1-0.3,0.2-0.5,0.2s-0.5,0.2-1,0.2s-1,0.2-1.8,0.3c-0.4,0.1-0.8,0.2-1.2,0.4c-0.3,0.2-0.6,0.4-0.7,0.7
		c-0.2,0.3-0.3,0.7-0.3,1.1c0,0.7,0.2,1.1,0.6,1.4C432.6,108.3,433,108.4,433.6,108.4z"/>
</g>
<g>
	<path fill="#EC008C" d="M450,29.6c0-1.1,0-18.5,0-19.6h2.9c1.1,1.5,9.9,14,9.9,14h0.3c0,0,0-13,0-14h3c0,1.1,0,18.5,0,19.6h-2.8
		c-0.9-1.3-9.9-14.1-9.9-14.1H453c0,0,0,13,0,14.1H450z"/>
	<path fill="#EC008C" d="M471.9,13.2c-0.6,0-1.1-0.2-1.4-0.5s-0.5-0.8-0.5-1.4c0-0.6,0.2-1.1,0.5-1.4c0.4-0.3,0.8-0.5,1.4-0.5
		c0.6,0,1.1,0.2,1.4,0.5c0.4,0.3,0.5,0.8,0.5,1.4c0,0.7-0.2,1.1-0.5,1.4S472.5,13.2,471.9,13.2z M470.5,29.6c0-1,0-13,0-13.6
		l2.9-0.1c0,0.7,0,12.7,0,13.7H470.5z"/>
</g>
<g>
	<path fill="#0072BC" d="M320.4,29.6c0-1.1,0-18.5,0-19.6c0.8,0,5.7,0,7.3,0c1.5,0,2.8,0.2,3.8,0.6c1,0.4,1.8,1,2.3,1.9
		s0.8,2,0.8,3.3c0,1.2-0.2,2.3-0.7,3.3c-0.4,1-1.2,1.7-2.2,2.2c-1,0.5-2.4,0.8-4.2,0.8c-0.4,0-3.9,0-4.2,0v-2.6h3.6
		c1,0,1.9-0.1,2.5-0.4c0.7-0.2,1.1-0.6,1.5-1.2s0.5-1.2,0.5-2.1c0-0.7-0.1-1.3-0.3-1.7c-0.2-0.4-0.5-0.7-0.9-1
		c-0.4-0.2-0.8-0.4-1.2-0.4s-0.9-0.1-1.3-0.1h-5.4l1.6-2.1c0,1.1,0,18,0,19.1H320.4z"/>
	<path fill="#0072BC" d="M340.9,29.9c-0.8,0-1.5-0.2-2.1-0.5c-0.6-0.3-1.1-0.8-1.4-1.4c-0.4-0.6-0.5-1.3-0.5-2.2
		c0-0.8,0.1-1.4,0.4-1.9c0.3-0.5,0.6-0.9,1-1.3s0.9-0.6,1.4-0.8c0.5-0.2,1.1-0.3,1.6-0.4l4-0.6c0-0.8-0.1-1.3-0.3-1.7
		s-0.6-0.7-1.1-0.8c-0.5-0.1-1-0.2-1.6-0.2c-0.3,0-0.6,0-1,0.1s-0.7,0.1-1.1,0.2c-0.4,0.1-0.8,0.2-1.2,0.4s-0.9,0.3-1.3,0.5
		l-0.2-2.6c0.3-0.1,0.7-0.3,1.1-0.4c0.4-0.1,0.9-0.2,1.4-0.4c0.5-0.1,1-0.2,1.5-0.2c0.5-0.1,1.1-0.1,1.6-0.1c1.1,0,2,0.2,2.8,0.5
		c0.8,0.3,1.4,0.8,1.8,1.5c0.4,0.7,0.6,1.6,0.6,2.7c0,0.4,0,8.5,0,9.2h-2.6l-0.2-1.8h-0.3c-0.3,0.3-0.6,0.7-1,1
		c-0.4,0.3-0.9,0.6-1.4,0.8C342.2,29.8,341.6,29.9,340.9,29.9z M341.9,27.6c0.4,0,0.9-0.1,1.3-0.3s0.8-0.5,1.2-0.8
		c0.4-0.4,0.7-0.8,0.9-1.3v-2.4c-0.1,0.1-0.3,0.2-0.5,0.2s-0.5,0.2-1,0.2s-1,0.2-1.8,0.3c-0.4,0.1-0.8,0.2-1.2,0.4
		c-0.3,0.2-0.6,0.4-0.7,0.7c-0.2,0.3-0.3,0.7-0.3,1.1c0,0.7,0.2,1.1,0.6,1.4C340.9,27.4,341.3,27.6,341.9,27.6z"/>
</g>
<path fill="#E2D71D" d="M178.5,84.8h-120c-1.2,0-2.1-1-2.1-2.1s1-2.1,2.1-2.1h120c1.2,0,2.1,1,2.1,2.1S179.7,84.8,178.5,84.8z"/>
<path fill="#67B5C5" d="M311.3,84.8h-82c-1.2,0-2.1-1-2.1-2.1s1-2.1,2.1-2.1h82c1.2,0,2.1,1,2.1,2.1S312.5,84.8,311.3,84.8z"/>
<path fill="#92278F" d="M477.8,84.8H360.7c-1.2,0-2.1-1-2.1-2.1s1-2.1,2.1-2.1h117.2c1.2,0,2.1,1,2.1,2.1S479,84.8,477.8,84.8z"/>
<path fill="#EC008C" d="M520.2,38.9H403.1c-1.2,0-2.1-1-2.1-2.1s1-2.1,2.1-2.1h117.2c1.2,0,2.1,1,2.1,2.1S521.4,38.9,520.2,38.9z"/>
<path fill="#8DC63F" d="M222.6,38.9H105.4c-1.2,0-2.1-1-2.1-2.1s1-2.1,2.1-2.1h117.2c1.2,0,2.1,1,2.1,2.1S223.7,38.9,222.6,38.9z"/>
<path fill="#ED1C24" d="M52.5,38.9H20.4c-1.2,0-2.1-1-2.1-2.1s1-2.1,2.1-2.1h32.1c1.2,0,2.1,1,2.1,2.1S53.7,38.9,52.5,38.9z"/>
<path fill="#0072BC" d="M350.1,38.9H318c-1.2,0-2.1-1-2.1-2.1s1-2.1,2.1-2.1h32.1c1.2,0,2.1,1,2.1,2.1S351.3,38.9,350.1,38.9z"/>
</svg>
