<svg enable-background="new 0 0 283.5 283.5" viewBox="0 0 283.5 283.5" xmlns="http://www.w3.org/2000/svg"><path d="m216.4 130.8c0 26.7-14.2 51.3-37.3 64.7v.1c0 26.7-14.2 51.4-37.4 64.7 35.6 20.9 81.4 9.1 102.3-26.5s9.1-81.4-26.5-102.3c-.4-.3-.7-.5-1.1-.7z" fill="#00a550"/><path d="m104.4 195.5c-23.1-13.3-37.4-38-37.4-64.7-35.8 20.7-48 66.4-27.4 102.2s66.4 47.9 102.1 27.3c-23.1-13.4-37.3-38.1-37.3-64.8z" fill="#2e3091"/><path d="m179.1 195.5c-23.1 13.3-51.6 13.3-74.7 0 0 26.7 14.2 51.4 37.4 64.7 23.1-13.3 37.3-38 37.3-64.7z" fill="#00aeef"/><path d="m141.7 130.8c23.1-13.4 51.6-13.4 74.7 0 0-41.3-33.5-74.7-74.7-74.7s-74.7 33.5-74.7 74.7v.1c23.1-13.4 51.6-13.4 74.7-.1z" fill="#ec2124"/><path d="m141.7 130.8c23.1 13.3 37.3 38 37.4 64.6 23.1-13.4 37.3-38 37.3-64.7-23.1-13.2-51.6-13.2-74.7.1z" fill="#fced00"/><path d="m104.4 195.5c0-26.7 14.2-51.4 37.4-64.7-23.1-13.4-51.7-13.4-74.8 0-.1 26.7 14.2 51.4 37.4 64.7z" fill="#ec008c"/><g fill="#fff"><path d="m141.7 130.8c-23.1 13.3-37.4 38-37.4 64.7 23.1 13.3 51.6 13.3 74.7-.1.1-26.6-14.2-51.2-37.3-64.6z"/><path d="m141.7 80.4c3.3.1 6.8 1.6 6.7 6.1v1.1c-.1 2.9-1.8 4.3-3.8 5l3.6 10.4-3-.1-3.2-9.6-3.1-.1-.3 9.5-2.8-.1.7-22.4zm3.9 6.4c.1-2.8-1.8-3.7-3.6-3.7l-2.8-.1-.2 7.5 2.8.1c1.8.1 3.8-.7 3.8-3.5z"/><path d="m203.5 212.7c.2-5.9 3.5-7.6 6.7-7.5 3.1.1 6.3 1.9 6.2 7.8v.3l-2.8-.1v-.2c0-3.7-1.6-5-3.5-5-2-.1-3.7 1.2-3.8 5.2l-.2 6.9c-.1 4 1.5 5.3 3.5 5.4 1.9.1 3.7-1.1 3.8-5.1l.1-1.8-3.5-.1.1-2.7 6.3.2-.1 4.7c-.2 6-3.5 7.6-6.7 7.6-3.2-.1-6.4-2-6.2-7.9z"/><path d="m79.2 205.5c3.1.1 6.4 1.6 6.2 5.5v1c-.1 2.3-1.4 3.7-3.1 4.4 2.2.8 3.4 2.6 3.4 5.2v.9c-.1 3.7-2.8 5.6-6.9 5.5l-5.7-.2.7-22.4zm3.6 15.8c.1-2.3-1.4-3.6-3.8-3.7l-2.8-.1-.2 7.5 2.8.1c2.4.1 4-1 4-3.4zm-.1-9.8c.1-2.3-1.7-3.3-3.6-3.4l-2.6-.1-.2 6.9 2.6.1c2 .1 3.7-.8 3.8-3.1z"/></g><path d="m74 33.6h-6.3l-1.8 6.8h-2.1l5.7-22.4h2.6l5.8 22.4h-2.1zm-.3-2.1-2.8-10.9-2.9 10.9z"/><g enable-background="new"><path d="m89.5 18v22.4h-1.4l-.2-2.1c-.8 1.7-2.2 2.4-3.8 2.4-2.2 0-4.4-1.3-4.4-5.6v-5.3c0-4.3 2.3-5.6 4.4-5.6 1.5 0 2.8.6 3.5 2.1v-8.3zm-8 16.2c0 3.9 1.4 4.9 3.1 4.9s3.1-1 3.1-4.9v-3.5c0-3.9-1.4-4.9-3.1-4.9-1.6 0-3.1 1-3.1 4.9z"/><path d="m102 18v22.4h-1.4l-.2-2.1c-.8 1.7-2.2 2.4-3.8 2.4-2.2 0-4.4-1.3-4.4-5.6v-5.3c0-4.3 2.3-5.6 4.4-5.6 1.5 0 2.8.6 3.5 2.1v-8.3zm-7.9 16.2c0 3.9 1.4 4.9 3.1 4.9s3.1-1 3.1-4.9v-3.5c0-3.9-1.4-4.9-3.1-4.9-1.6 0-3.1 1-3.1 4.9z"/></g><path d="m105.2 19.7h2.1v2h-2.1zm.1 4.7h1.8v16h-1.8z"/><g enable-background="new"><path d="m113.5 34.3c0 4.3.8 4.7 3 4.7h.4v1.6h-.8c-2.7 0-4.4-.8-4.4-5.8v-8.8h-2.4v-1.6h2.4v-4.9h1.8v4.9h3.4v1.6h-3.4z"/><path d="m119.7 19.7h2.1v2h-2.1zm.2 4.7h1.8v16h-1.8z"/></g><path d="m136.5 24.4-5 16h-2l-4.9-16h1.8l4.1 13.3 4.1-13.3z"/><g enable-background="new"><path d="m137.6 29.7c0-4.3 2.5-5.6 4.9-5.6 2.3 0 4.9 1.3 4.9 5.6v3.5h-7.9v1.4c0 3.5 1.4 4.4 3.1 4.4 1.5 0 2.9-.8 3.1-3.8h1.8c-.1 4.2-2.6 5.4-4.9 5.4s-4.9-1.3-4.9-5.6v-5.3zm8 .3c0-3.4-1.5-4.3-3.1-4.3s-3.1.9-3.1 4.3v1.7h6.1v-1.7z"/><path d="m161.4 26.5c.8-1.6 2.2-2.4 3.8-2.4s3.3.7 4 2.9c.7-2 2.2-2.9 4-2.9 2.2 0 4.4 1.3 4.4 5.6v10.7h-1.8v-9.8c0-3.9-1.5-4.9-3.1-4.9-1.5 0-2.8.7-3 3.5v11.1h-1.8v-9.8c0-3.9-1.5-4.9-3.1-4.9s-3.1.9-3.1 4.3v10.3h-1.8v-16h1.4z"/><path d="m180.2 29.7c0-4.3 2.5-5.6 4.9-5.6s4.9 1.3 4.9 5.6v5.3c0 4.3-2.5 5.6-4.9 5.6s-4.9-1.3-4.9-5.6zm8 .9c0-3.9-1.5-4.9-3.1-4.9-1.7 0-3.1 1-3.1 4.9v3.5c0 3.9 1.3 4.9 3.1 4.9 1.7 0 3.1-1 3.1-4.9z"/><path d="m202.4 18v22.4h-1.4l-.2-2.1c-.8 1.7-2.2 2.4-3.8 2.4-2.2 0-4.4-1.3-4.4-5.6v-5.3c0-4.3 2.3-5.6 4.4-5.6 1.5 0 2.8.6 3.5 2.1v-8.3zm-8 16.2c0 3.9 1.4 4.9 3.1 4.9s3.1-1 3.1-4.9v-3.5c0-3.9-1.4-4.9-3.1-4.9-1.6 0-3.1 1-3.1 4.9z"/><path d="m205.2 29.7c0-4.3 2.5-5.6 4.9-5.6 2.3 0 4.9 1.3 4.9 5.6v3.5h-8v1.4c0 3.5 1.4 4.4 3.1 4.4 1.5 0 2.9-.8 3.1-3.8h1.8c-.1 4.2-2.6 5.4-4.9 5.4s-4.9-1.3-4.9-5.6zm7.9.3c0-3.4-1.5-4.3-3.1-4.3s-3.1.9-3.1 4.3v1.7h6.1v-1.7z"/><path d="m217.8 18h1.8v22.4h-1.8z"/></g></svg>