<svg enable-background="new -9.144 -15.712 446 271" height="271" viewBox="-9.144 -15.712 446 271" width="446" xmlns="http://www.w3.org/2000/svg"><g fill="none"><path d="m33.668 207.832 1-.008 1-.008 1-.009 1-.011 1-.012 1-.013 1-.015 1-.018 1-.019 1-.021 1-.023 1-.027 1-.029 1-.034 1-.041 1-.049 1-.057 1-.061 1-.064 1-.065 1-.064 1-.066 1-.075 1-.092 1-.113 1-.143 1-.168 1-.193 1-.215 1-.231 1-.246 1-.27 1-.308 1-.361 1-.432 1-.522 1-.606 1-.663 1-.687 1-.686 1-.664 1-.687 1-.779 1-.938 1-1.166 1-1.441 1-1.709 1-1.961 1-2.196 1-2.414 1-2.629 1-2.892 1-3.216 1-3.602 1-4.05 1-4.492 1-4.925 1-5.423 1-5.984 1-6.607 1-7.288 1-7.823 1-8.113 1-8.159 1-7.962 1-7.631 1-7.313 1-6.963 1-6.58 1-6.167 1-5.704 1-5.217 1-4.739 1-4.269 1-3.807 1-3.345 1-2.889 1-2.458 1-2.051 1-1.667 1-1.299 1-.958 1-.664 1-.417 1-.216 1-.037 1 .127 1 .25 1 .333 1 .376 1 .385 1 .422 1 .509 1 .648 1 .836 1 1.055 1 1.27 1 1.492 1 1.72 1 1.954 1 2.167 1 2.411 1 2.74 1 3.149 1 3.643 1 4.198 1 4.659 1 4.965 1 5.114 1 5.109 1 5.022 1 4.96 1 4.907 1 4.861 1 4.825 1 4.77 1 4.685 1 4.589 1 4.483 1 4.368 1 4.243 1 4.107 1 3.953 1 3.781 1 3.59 1 3.388 1 3.192 1 3.007 1 2.836 1 2.68 1 2.525 1 2.374 1 2.23 1 2.094 1 1.965 1 1.843 1 1.731 1 1.622 1 1.516 1 1.417 1 1.319 1 1.233 1 1.172 1 1.131 1 1.115 1 1.113 1 1.106 1 1.09 1 1.066 1 1.035 1 1.006 1 .977 1 .938 1 .892 1 .838 1 .779 1 .724 1 .669 1 .613 1 .559 1 .505 1 .453 1 .411 1 .377 1 .355 1 .334 1 .316 1 .299 1 .285 1 .275 1 .264 1 .258 1 .248 1 .237 1 .224 1 .213 1 .202 1 .191 1 .179 1 .17 1 .158 1 .147 1 .139 1 .127 1 .119 1 .109 1 .1 1 .093 1 .084 1 .079 1 .071 1 .065 1 .06 1 .055 1 .048 1 .045 1 .04 1 .037 1 .034 1 .029 1 .028 1 .026 1 .022 1 .022 1 .017 1 .018 1 .013 1 .014 1 .011 1 .01 1 .008 1 .006 1 .006 1 .006 1 .004 1 .003 1 .003 1 .003 1 .003 1 .003 1 .003 1 .005 1 .005 1 .005 1 .006 1 .007 1 .007 1 .005 1 .006 1 .006 1 .002 1 .002 1 .002 1 .002 1 .002 1 .003 1 .004 1 .004 1 .005 1 .004 1 .003 1 .004 1 .004 1 .004 1 .004 1 .006 1 .006 1 .006 1 .004 1 .004 1 .003 1 .003 1 .002 1 .001 1 .002h1l1 .002h1l1 .002h1l1 .002 1 .002 1 .002 1 .002 1 .002 1 .001 1 .001 1 .002h1l1 .001 1 .001h1 1 1l1 .001h1l1 .001h1 1 1 1 1 1l1 .001h1 1l1 .001h1 1 1 1 1 1 1 1 1 1 1 1 1 1 1 1 1 1 1 1 1 1 1 1 1 1 1 1 1 1 1 1 1 1 1 1 1 1 1 1 1 1 1 1 1 1 1 1 1 1 1 1 1 1 1 1 1 1 1 1 1 1 1 1 1 1 1 1 1 1 1 1 1 1 1 1 1 1 1 1 1 1 1 1 1 1 1 1 1 1 1 1 1 1 1 1 1 1 1 1 1 1 1" stroke="#00f" stroke-width="1.75"/><path d="m33.668 207.893h1 1 1 1 1l1-.001h1 1 1 1l1-.001h1 1 1 1 1l1-.001h1l1-.001h1 1l1-.001 1-.001h1 1l1-.002h1l1-.002 1-.001 1-.001 1-.002 1-.002 1-.002 1-.002 1-.002 1-.004 1-.003 1-.003 1-.004 1-.003 1-.004 1-.004 1-.005 1-.005 1-.008 1-.008 1-.009 1-.012 1-.014 1-.014 1-.015 1-.017 1-.018 1-.022 1-.024 1-.029 1-.03 1-.035 1-.041 1-.048 1-.054 1-.061 1-.067 1-.072 1-.076 1-.078 1-.082 1-.086 1-.09 1-.094 1-.097 1-.101 1-.104 1-.109 1-.112 1-.117 1-.121 1-.123 1-.127 1-.128 1-.13 1-.131 1-.135 1-.139 1-.146 1-.15 1-.158 1-.164 1-.17 1-.177 1-.185 1-.192 1-.2 1-.207 1-.216 1-.225 1-.233 1-.24 1-.249 1-.253 1-.26 1-.268 1-.277 1-.287 1-.299 1-.311 1-.326 1-.34 1-.355 1-.375 1-.395 1-.412 1-.432 1-.452 1-.471 1-.494 1-.514 1-.531 1-.547 1-.557 1-.565 1-.579 1-.6 1-.625 1-.658 1-.695 1-.731 1-.771 1-.815 1-.86 1-.91 1-.962 1-1.012 1-1.062 1-1.112 1-1.159 1-1.211 1-1.275 1-1.353 1-1.442 1-1.54 1-1.629 1-1.701 1-1.759 1-1.802 1-1.832 1-1.869 1-1.908 1-1.954 1-2.006 1-2.058 1-2.094 1-2.117 1-2.128 1-2.124 1-2.114 1-2.097 1-2.056 1-1.996 1-1.916 1-1.819 1-1.728 1-1.651 1-1.586 1-1.537 1-1.49 1-1.439 1-1.381 1-1.319 1-1.251 1-1.18 1-1.116 1-1.053 1-.995 1-.94 1-.889 1-.835 1-.784 1-.73 1-.677 1-.626 1-.575 1-.525 1-.476 1-.429 1-.379 1-.332 1-.29 1-.25 1-.214 1-.175 1-.139 1-.102 1-.063 1-.025 1 .014 1 .055 1 .098 1 .143 1 .19 1 .239 1 .286 1 .33 1 .372 1 .413 1 .451 1 .492 1 .531 1 .572 1 .613 1 .656 1 .694 1 .734 1 .771 1 .806 1 .839 1 .873 1 .907 1 .943 1 .978 1 1.013 1 1.047 1 1.077 1 1.105 1 1.128 1 1.15 1 1.171 1 1.189 1 1.204 1 1.215 1 1.225 1 1.233 1 1.243 1 1.25 1 1.259 1 1.269 1 1.274 1 1.28 1 1.283 1 1.285 1 1.284 1 1.284 1 1.284 1 1.284 1 1.284 1 1.283 1 1.283 1 1.278 1 1.272 1 1.264 1 1.253 1 1.244 1 1.234 1 1.229 1 1.219 1 1.212 1 1.205 1 1.201 1 1.2 1 1.203 1 1.208 1 1.209 1 1.205 1 1.196 1 1.182 1 1.166 1 1.148 1 1.126 1 1.097 1 1.063 1 1.023 1 .988 1 .955 1 .928 1 .905 1 .884 1 .862 1 .839 1 .819 1 .797 1 .777 1 .758 1 .737 1 .715 1 .692 1 .67 1 .649 1 .624 1 .6 1 .577 1 .553 1 .528 1 .507 1 .486 1 .466 1 .449 1 .428 1 .412 1 .395 1 .377 1 .359 1 .345 1 .328 1 .313 1 .297 1 .282 1 .267 1 .252 1 .237 1 .219 1 .204 1 .189 1 .175 1 .162 1 .15 1 .141 1 .129 1 .123 1 .115 1 .112 1 .111 1 .105 1 .104 1 .097 1 .092 1 .084 1 .08 1 .074 1 .069 1 .064 1 .059 1 .053 1 .049 1 .046 1 .041 1 .038 1 .035 1 .032 1 .03 1 .027 1 .027 1 .024 1 .024 1 .022 1 .021 1 .019 1 .018 1 .016 1 .016 1 .015 1 .013 1 .013 1 .013 1 .01 1 .011 1 .01 1 .01 1 .007 1 .009 1 .008 1 .007 1 .006 1 .007 1 .005 1 .005 1 .006 1 .004 1 .004 1 .005 1 .004 1 .003 1 .004 1 .003 1 .003 1 .002 1 .003 1 .002 1 .002 1 .002 1 .002 1 .002 1 .002 1 .002 1 .001 1 .001 1 .002 1 .001 1 .001 1 .001 1 .001" stroke="#0f0" stroke-width="1.75"/><path d="m33.668 207.879 1-.001 1-.002 1-.002 1-.002 1-.003 1-.002 1-.004 1-.004 1-.004 1-.003 1-.006 1-.005 1-.007 1-.007 1-.009 1-.009 1-.013 1-.013 1-.013 1-.014 1-.014 1-.013 1-.016 1-.02 1-.024 1-.03 1-.035 1-.041 1-.045 1-.049 1-.053 1-.057 1-.064 1-.076 1-.092 1-.109 1-.128 1-.14 1-.145 1-.144 1-.139 1-.144 1-.163 1-.197 1-.244 1-.303 1-.357 1-.41 1-.458 1-.505 1-.548 1-.602 1-.67 1-.75 1-.842 1-.932 1-1.022 1-1.123 1-1.236 1-1.361 1-1.498 1-1.603 1-1.66 1-1.663 1-1.615 1-1.542 1-1.47 1-1.389 1-1.303 1-1.21 1-1.104 1-.996 1-.888 1-.785 1-.686 1-.586 1-.485 1-.392 1-.301 1-.215 1-.131 1-.055 1 .013 1 .073 1 .122 1 .17 1 .211 1 .245 1 .271 1 .289 1 .3 1 .317 1 .34 1 .375 1 .418 1 .468 1 .514 1 .559 1 .604 1 .646 1 .683 1 .725 1 .78 1 .85 1 .932 1 1.025 1 1.099 1 1.145 1 1.159 1 1.145 1 1.115 1 1.089 1 1.064 1 1.04 1 1.019 1 .992 1 .961 1 .928 1 .899 1 .865 1 .834 1 .8 1 .759 1 .714 1 .663 1 .609 1 .558 1 .512 1 .475 1 .439 1 .411 1 .377 1 .345 1 .315 1 .283 1 .254 1 .224 1 .196 1 .167 1 .139 1 .113 1 .083 1 .052 1 .019 1-.017 1-.052 1-.091 1-.134 1-.181 1-.231 1-.285 1-.339 1-.394 1-.452 1-.511 1-.571 1-.63 1-.687 1-.74 1-.789 1-.836 1-.883 1-.928 1-.971 1-1.014 1-1.057 1-1.095 1-1.125 1-1.148 1-1.165 1-1.176 1-1.188 1-1.204 1-1.218 1-1.24 1-1.256 1-1.275 1-1.293 1-1.31 1-1.33 1-1.349 1-1.369 1-1.387 1-1.404 1-1.421 1-1.439 1-1.455 1-1.474 1-1.493 1-1.514 1-1.534 1-1.555 1-1.572 1-1.592 1-1.607 1-1.625 1-1.639 1-1.653 1-1.661 1-1.668 1-1.671 1-1.676 1-1.679 1-1.681 1-1.682 1-1.684 1-1.682 1-1.677 1-1.669 1-1.658 1-1.645 1-1.628 1-1.61 1-1.59 1-1.567 1-1.543 1-1.516 1-1.481 1-1.442 1-1.398 1-1.35 1-1.3 1-1.248 1-1.194 1-1.138 1-1.079 1-1.016 1-.955 1-.891 1-.829 1-.769 1-.7 1-.62 1-.528 1-.423 1-.31 1-.2 1-.101 1-.01 1 .071 1 .146 1 .229 1 .322 1 .425 1 .538 1 .656 1 .767 1 .87 1 .962 1 1.045 1 1.123 1 1.203 1 1.284 1 1.365 1 1.445 1 1.52 1 1.595 1 1.674 1 1.759 1 1.846 1 1.938 1 2.013 1 2.077 1 2.123 1 2.154 1 2.182 1 2.2 1 2.198 1 2.18 1 2.14 1 2.089 1 2.04 1 2.001 1 1.971 1 1.95 1 1.93 1 1.905 1 1.88 1 1.855 1 1.83 1 1.803 1 1.777 1 1.745 1 1.711 1 1.674 1 1.634 1 1.594 1 1.55 1 1.501 1 1.451 1 1.395 1 1.343 1 1.293 1 1.246 1 1.202 1 1.161 1 1.118 1 1.074 1 1.034 1 .993 1 .953 1 .915 1 .874 1 .835 1 .793 1 .757 1 .717 1 .678 1 .636 1 .592 1 .551 1 .509 1 .474 1 .438 1 .409 1 .379 1 .352 1 .332 1 .314 1 .306 1 .298 1 .291 1 .281 1 .266 1 .251 1 .233 1 .219 1 .203 1 .189 1 .176 1 .161 1 .149 1 .135 1 .125 1 .116 1 .105 1 .096 1 .088 1 .082 1 .077 1 .073 1 .068 1 .066 1 .061 1 .057 1 .053 1 .049 1 .046 1 .043 1 .04 1 .039 1 .035 1 .034 1 .031 1 .029 1 .029 1 .025 1 .024 1 .023 1 .021 1 .019 1 .019 1 .016 1 .016 1 .015 1 .013 1 .014 1 .012 1 .011 1 .01 1 .011 1 .009 1 .009 1 .008 1 .008 1 .007 1 .007 1 .006 1 .005 1 .006 1 .004 1 .005 1 .005 1 .004 1 .003 1 .003 1 .004 1 .002 1 .003 1 .002" stroke="#f00" stroke-width="1.75"/><path d="m423.668 207.832h-390v-200" stroke="#000" stroke-width="1.5"/><path d="m373.668 215.332v-15" stroke="#000" stroke-width="1.5"/><path d="m273.668 215.332v-15" stroke="#000" stroke-width="1.5"/><path d="m173.668 215.332v-15" stroke="#000" stroke-width="1.5"/><path d="m73.668 215.332v-15" stroke="#000" stroke-width="1.5"/><path d="m83.668 211.582v-7.5" stroke="#000"/><path d="m63.668 211.582v-7.5" stroke="#000"/><path d="m53.668 211.582v-7.5" stroke="#000"/><path d="m43.668 211.582v-7.5" stroke="#000"/><path d="m93.668 211.582v-7.5" stroke="#000"/><path d="m103.668 211.582v-7.5" stroke="#000"/><path d="m113.668 211.582v-7.5" stroke="#000"/><path d="m123.668 211.582v-7.5" stroke="#000"/><path d="m133.668 211.582v-7.5" stroke="#000"/><path d="m143.668 211.582v-7.5" stroke="#000"/><path d="m153.668 211.582v-7.5" stroke="#000"/><path d="m163.668 211.582v-7.5" stroke="#000"/><path d="m183.668 211.582v-7.5" stroke="#000"/><path d="m193.668 211.582v-7.5" stroke="#000"/><path d="m203.668 211.582v-7.5" stroke="#000"/><path d="m213.668 211.582v-7.5" stroke="#000"/><path d="m223.668 211.582v-7.5" stroke="#000"/><path d="m233.668 211.582v-7.5" stroke="#000"/><path d="m243.668 211.582v-7.5" stroke="#000"/><path d="m253.668 211.582v-7.5" stroke="#000"/><path d="m263.668 211.582v-7.5" stroke="#000"/><path d="m283.668 211.582v-7.5" stroke="#000"/><path d="m293.668 211.582v-7.5" stroke="#000"/><path d="m303.668 211.582v-7.5" stroke="#000"/><path d="m313.668 211.582v-7.5" stroke="#000"/><path d="m323.668 211.582v-7.5" stroke="#000"/><path d="m333.668 211.582v-7.5" stroke="#000"/><path d="m343.668 211.582v-7.5" stroke="#000"/><path d="m353.668 211.582v-7.5" stroke="#000"/><path d="m363.668 211.582v-7.5" stroke="#000"/><path d="m383.668 211.582v-7.5" stroke="#000"/><path d="m393.668 211.582v-7.5" stroke="#000"/><path d="m403.668 211.582v-7.5" stroke="#000"/><path d="m413.668 211.582v-7.5" stroke="#000"/><path d="m423.668 211.582v-7.5" stroke="#000"/><path d="m26.168 157.832h15" stroke="#000" stroke-width="1.5"/><path d="m26.168 207.832h15" stroke="#000" stroke-width="1.5"/><path d="m26.168 107.832h15" stroke="#000" stroke-width="1.5"/><path d="m26.168 57.832h15" stroke="#000" stroke-width="1.5"/><path d="m26.168 7.832h15" stroke="#000" stroke-width="1.5"/><path d="m29.918 17.832h7.5" stroke="#000"/><path d="m29.918 27.832h7.5" stroke="#000"/><path d="m29.918 37.832h7.5" stroke="#000"/><path d="m29.918 47.832h7.5" stroke="#000"/><path d="m29.918 67.832h7.5" stroke="#000"/><path d="m29.918 77.832h7.5" stroke="#000"/><path d="m29.918 87.832h7.5" stroke="#000"/><path d="m29.918 97.832h7.5" stroke="#000"/><path d="m29.918 117.832h7.5" stroke="#000"/><path d="m29.918 127.832h7.5" stroke="#000"/><path d="m29.918 137.832h7.5" stroke="#000"/><path d="m29.918 147.832h7.5" stroke="#000"/><path d="m29.918 167.832h7.5" stroke="#000"/><path d="m29.918 177.832h7.5" stroke="#000"/><path d="m29.918 187.832h7.5" stroke="#000"/><path d="m29.918 197.832h7.5" stroke="#000"/></g><path d="m4.344 163.457c-1.125 0-1.962-.442-2.512-1.328-.549-.885-.824-2.229-.824-4.031 0-.958.084-1.786.254-2.484.169-.698.406-1.274.711-1.73s.67-.793 1.098-1.012.893-.328 1.398-.328c1.141 0 1.99.44 2.547 1.32s.836 2.211.836 3.992c0 1.844-.298 3.238-.895 4.184s-1.467 1.417-2.613 1.417zm-1.813-5.594c0 1.698.158 2.944.473 3.738s.803 1.191 1.465 1.191c.63 0 1.098-.374 1.402-1.121.305-.747.457-1.905.457-3.473 0-1.198-.078-2.168-.234-2.91s-.374-1.274-.652-1.598c-.279-.323-.616-.484-1.012-.484-.359 0-.66.107-.902.32-.242.214-.438.521-.586.922s-.254.89-.316 1.465c-.063.577-.095 1.227-.095 1.95z"/><path d="m11.289 161.52v1.813h-1.578v-1.813z"/><path d="m13.313 162.902v-1.656h.945c.156.531.392.922.707 1.172s.723.375 1.223.375c.693 0 1.216-.208 1.57-.625s.531-1.039.531-1.867c0-.552-.094-1.009-.281-1.371-.188-.362-.44-.624-.758-.785s-.688-.242-1.109-.242c-.354 0-.659.022-.914.066s-.529.113-.82.207l-.625-.367v-5.141h4.305c.177 0 .305-.014.383-.043.078-.028.141-.073.188-.133s.102-.173.164-.34h.609l-.117 1.813h-4.494v3.43c.271-.114.565-.2.883-.258.318-.057.635-.086.953-.086.62 0 1.169.126 1.648.379s.849.612 1.109 1.078.391 1.007.391 1.621c0 .698-.146 1.297-.438 1.797s-.713.88-1.266 1.141c-.552.261-1.206.391-1.961.391-.899-.001-1.842-.186-2.826-.556z"/><path d="m4.344 213.457c-1.125 0-1.962-.442-2.512-1.328-.549-.885-.824-2.229-.824-4.031 0-.958.084-1.786.254-2.484.169-.698.406-1.274.711-1.73s.67-.793 1.098-1.012.893-.328 1.398-.328c1.141 0 1.99.44 2.547 1.32s.836 2.211.836 3.992c0 1.844-.298 3.238-.895 4.184s-1.467 1.417-2.613 1.417zm-1.813-5.594c0 1.698.158 2.944.473 3.738s.803 1.191 1.465 1.191c.63 0 1.098-.374 1.402-1.121.305-.747.457-1.905.457-3.473 0-1.198-.078-2.168-.234-2.91s-.374-1.274-.652-1.598c-.279-.323-.616-.484-1.012-.484-.359 0-.66.107-.902.32-.242.214-.438.521-.586.922s-.254.89-.316 1.465c-.063.577-.095 1.227-.095 1.95z"/><path d="m11.289 211.52v1.813h-1.578v-1.813z"/><path d="m16.484 213.457c-1.125 0-1.962-.442-2.512-1.328-.549-.885-.824-2.229-.824-4.031 0-.958.084-1.786.254-2.484.169-.698.406-1.274.711-1.73s.67-.793 1.098-1.012.893-.328 1.398-.328c1.141 0 1.99.44 2.547 1.32s.836 2.211.836 3.992c0 1.844-.298 3.238-.895 4.184s-1.467 1.417-2.613 1.417zm-1.812-5.594c0 1.698.158 2.944.473 3.738s.803 1.191 1.465 1.191c.63 0 1.098-.374 1.402-1.121.305-.747.457-1.905.457-3.473 0-1.198-.078-2.168-.234-2.91s-.374-1.274-.652-1.598c-.279-.323-.616-.484-1.012-.484-.359 0-.66.107-.902.32-.242.214-.438.521-.586.922s-.254.89-.316 1.465c-.064.577-.095 1.227-.095 1.95z"/><path d="m5.43 111.293c0 .302.017.53.051.684s.094.279.18.375c.086.097.209.172.371.227s.365.097.609.125c.245.029.568.048.969.059v.57h-5.774v-.57c.578-.026.991-.061 1.238-.105.248-.044.436-.11.566-.199.13-.088.225-.213.285-.375.06-.161.09-.424.09-.789v-6.336c0-.208-.037-.36-.109-.457-.073-.096-.18-.145-.32-.145-.167 0-.404.086-.711.258s-.688.409-1.141.711l-.344-.602 3.656-2.18h.43c-.031.5-.047 1.193-.047 2.078v6.671z"/><path d="m11.289 111.52v1.813h-1.578v-1.813z"/><path d="m16.484 113.457c-1.125 0-1.962-.442-2.512-1.328-.549-.885-.824-2.229-.824-4.031 0-.958.084-1.786.254-2.484.169-.698.406-1.274.711-1.73s.67-.793 1.098-1.012.893-.328 1.398-.328c1.141 0 1.99.44 2.547 1.32s.836 2.211.836 3.992c0 1.844-.298 3.238-.895 4.184s-1.467 1.417-2.613 1.417zm-1.812-5.594c0 1.698.158 2.944.473 3.738s.803 1.191 1.465 1.191c.63 0 1.098-.374 1.402-1.121.305-.747.457-1.905.457-3.473 0-1.198-.078-2.168-.234-2.91s-.374-1.274-.652-1.598c-.279-.323-.616-.484-1.012-.484-.359 0-.66.107-.902.32-.242.214-.438.521-.586.922s-.254.89-.316 1.465c-.064.577-.095 1.227-.095 1.95z"/><path d="m5.43 61.293c0 .302.017.53.051.684s.094.279.18.375c.086.097.209.172.371.227s.365.097.609.125c.245.029.568.048.969.059v.57h-5.774v-.57c.578-.026.991-.061 1.238-.105.248-.044.436-.11.566-.199.13-.088.225-.213.285-.375.06-.161.09-.424.09-.789v-6.336c0-.208-.037-.36-.109-.457-.073-.096-.18-.145-.32-.145-.167 0-.404.086-.711.258s-.688.409-1.141.711l-.344-.602 3.656-2.18h.43c-.031.5-.047 1.193-.047 2.078v6.671z"/><path d="m11.289 61.52v1.813h-1.578v-1.813z"/><path d="m13.313 62.902v-1.656h.945c.156.531.392.922.707 1.172s.723.375 1.223.375c.693 0 1.216-.208 1.57-.625s.531-1.039.531-1.867c0-.552-.094-1.009-.281-1.371-.188-.362-.44-.624-.758-.785s-.688-.242-1.109-.242c-.354 0-.659.022-.914.066s-.529.113-.82.207l-.625-.367v-5.141h4.305c.177 0 .305-.014.383-.043.078-.028.141-.073.188-.133s.102-.173.164-.34h.609l-.117 1.813h-4.494v3.43c.271-.114.565-.2.883-.258.318-.057.635-.086.953-.086.62 0 1.169.126 1.648.379s.849.612 1.109 1.078.391 1.007.391 1.621c0 .698-.146 1.297-.438 1.797s-.713.88-1.266 1.141c-.552.261-1.206.391-1.961.391-.899-.001-1.842-.186-2.826-.556z"/><path d="m5.484 12.082c.255 0 .461-.016.617-.047s.281-.083.375-.156.168-.168.223-.285.124-.298.207-.543h.664l-.133 2.281h-6.43v-.375c.224-.547.526-1.106.906-1.68.38-.573.919-1.247 1.617-2.023.605-.667 1.04-1.172 1.306-1.516.292-.375.509-.699.652-.973s.246-.531.309-.773.094-.485.094-.73c0-.391-.063-.735-.188-1.035s-.316-.536-.574-.707-.582-.258-.973-.258c-.974 0-1.63.542-1.969 1.625h-.945v-1.5c.63-.297 1.22-.512 1.77-.645s1.043-.199 1.48-.199c.969 0 1.701.212 2.195.637.495.424.743 1.04.743 1.847 0 .276-.027.53-.082.762s-.141.461-.258.688-.275.47-.473.73c-.198.261-.416.525-.656.793-.24.269-.654.715-1.242 1.34-.99 1.047-1.716 1.961-2.18 2.742z"/><path d="m11.289 11.52v1.813h-1.578v-1.813z"/><path d="m16.484 13.457c-1.125 0-1.962-.442-2.512-1.328-.549-.885-.824-2.229-.824-4.031 0-.958.084-1.786.254-2.484.169-.698.406-1.274.711-1.73s.67-.793 1.098-1.012.893-.328 1.398-.328c1.141 0 1.99.44 2.547 1.32s.836 2.211.836 3.992c0 1.844-.298 3.238-.895 4.184s-1.467 1.417-2.613 1.417zm-1.812-5.594c0 1.698.158 2.944.473 3.738s.803 1.191 1.465 1.191c.63 0 1.098-.374 1.402-1.121.305-.747.457-1.905.457-3.473 0-1.198-.078-2.168-.234-2.91s-.374-1.274-.652-1.598c-.279-.323-.616-.484-1.012-.484-.359 0-.66.107-.902.32-.242.214-.438.521-.586.922s-.254.89-.316 1.465c-.064.577-.095 1.227-.095 1.95z"/><path d="m392.06 18.301c-.078-.411-.158-.807-.242-1.188-.084-.38-.17-.734-.258-1.063s-.162-.543-.219-.645-.119-.172-.184-.211-.146-.059-.246-.059c-.109 0-.209.025-.297.074-.088.05-.186.136-.289.258-.104.123-.242.314-.414.574l-.508-.336c.328-.495.643-.864.945-1.109.303-.245.658-.367 1.07-.367.162 0 .303.019.426.055.123.037.23.093.324.168.094.076.178.173.25.293s.143.283.211.488c.068.206.131.461.191.766s.113.621.16.949h.078c.5-.703.879-1.217 1.137-1.543.258-.325.475-.567.652-.727.178-.159.348-.271.512-.336s.381-.098.652-.098c.244 0 .445.031.602.094l-.313 1.414h-.547c-.031-.219-.123-.328-.273-.328-.047 0-.096.008-.148.023s-.115.05-.191.102-.186.154-.332.305-.311.336-.492.555-.369.448-.563.688l-.531.664c.094.5.182.933.266 1.297.084.365.158.668.223.91s.123.434.172.574.104.246.16.316.115.12.176.148c.061.029.129.043.207.043.141 0 .277-.055.41-.164s.324-.356.574-.742l.508.336c-.365.542-.693.923-.988 1.145s-.645.332-1.051.332c-.225 0-.414-.041-.57-.121s-.291-.209-.406-.387c-.115-.177-.217-.453-.305-.828-.162-.667-.26-1.177-.297-1.531h-.078c-.553.776-.963 1.333-1.23 1.672-.268.339-.49.589-.664.75-.174.162-.344.275-.508.34s-.381.098-.652.098c-.244 0-.445-.031-.602-.094l.313-1.414h.547c.031.219.123.328.273.328.072 0 .15-.02.23-.059s.197-.133.348-.281.359-.381.625-.699c.265-.317.65-.793 1.156-1.429z"/><path d="m396.532 12.48h-6.883v-.828h6.883z"/><path d="m400.49 17.879c0 1.823.293 3.326.879 4.508s1.48 1.974 2.684 2.375l-.188.602c-1.525-.401-2.695-1.265-3.508-2.59s-1.219-2.931-1.219-4.816c0-1.88.408-3.485 1.223-4.816.814-1.331 1.982-2.196 3.504-2.598l.211.602c-1.219.401-2.121 1.184-2.707 2.348s-.879 2.625-.879 4.385z"/><path d="m403.837 21.449c.238-.292.479-.595.719-.91.238-.315.531-.715.875-1.199l3.5-4.969c-.006-.531-.029-.977-.07-1.336-.043-.359-.1-.645-.172-.855-.074-.211-.17-.366-.289-.465-.121-.099-.285-.148-.492-.148-.172 0-.348.05-.523.148-.178.099-.436.302-.773.609l-.406-.453c.479-.474.875-.795 1.191-.965.314-.169.629-.254.941-.254.4 0 .707.094.922.281.213.188.363.483.453.887.088.404.133.994.133 1.77 0 .255-.006.625-.016 1.109l-.031 1.234c-.043 1.172-.063 2.094-.063 2.766 0 .542.012.965.035 1.27s.061.535.113.691c.051.156.117.262.195.316s.174.082.289.082c.135 0 .279-.045.434-.137.152-.091.342-.256.566-.496l.438.438c-.34.344-.674.612-1.004.805-.332.192-.625.289-.879.289-.297 0-.523-.06-.68-.18s-.27-.317-.34-.594c-.07-.276-.105-.682-.105-1.219 0-.739.055-1.95.164-3.633h-.078c-1.563 2.292-2.742 4.125-3.539 5.5h-1.586z"/><path d="m415.399 17.879c0-1.76-.292-3.223-.875-4.387s-1.487-1.946-2.711-2.348l.211-.602c1.521.401 2.688 1.267 3.504 2.598.815 1.331 1.223 2.937 1.223 4.816 0 1.886-.406 3.491-1.219 4.816s-1.981 2.188-3.508 2.59l-.188-.602c1.203-.401 2.098-1.193 2.684-2.375s.879-2.683.879-4.506z"/><path d="m392.154 43.348c-.15-.911-.357-2.01-.617-3.297-.275-1.375-.459-2.227-.547-2.555-.109-.396-.225-.648-.344-.758-.072-.067-.164-.102-.273-.102-.166 0-.322.068-.469.203-.146.136-.326.37-.539.703l-.508-.336c.359-.536.695-.915 1.008-1.137.313-.221.662-.332 1.047-.332.213 0 .396.029.547.086.104.042.209.111.313.207.104.097.197.23.277.402s.15.365.211.578c.061.214.127.521.199.922.125.672.246 1.379.363 2.121s.217 1.431.301 2.066c.506-.729.934-1.442 1.285-2.141.352-.698.604-1.305.758-1.82s.23-.935.23-1.258c0-.245-.053-.411-.156-.5-.104-.088-.281-.141-.531-.156l.078-.383h2.055l.211.391c-.396 1.083-.932 2.242-1.609 3.477-.666 1.208-1.43 2.412-2.289 3.609-.822 1.141-1.508 1.966-2.055 2.477-.381.349-.748.599-1.102.75-.281.114-.58.172-.898.172-.109 0-.236-.009-.379-.027-.143-.019-.254-.043-.332-.074l.336-1.516h.617c0 .333.115.5.344.5.303 0 .654-.189 1.055-.566.399-.377.872-.946 1.413-1.706z"/><path d="m396.969 33.98h-6.883v-.828h6.883z"/><path d="m400.927 39.379c0 1.823.293 3.326.879 4.508s1.48 1.974 2.684 2.375l-.188.602c-1.525-.401-2.695-1.265-3.508-2.59s-1.219-2.931-1.219-4.816c0-1.88.408-3.485 1.223-4.816.814-1.331 1.982-2.196 3.504-2.598l.211.602c-1.219.401-2.121 1.184-2.707 2.348s-.879 2.625-.879 4.385z"/><path d="m404.275 42.949c.238-.292.479-.595.719-.91.238-.315.531-.715.875-1.199l3.5-4.969c-.006-.531-.029-.977-.07-1.336-.043-.359-.1-.645-.172-.855-.074-.211-.17-.366-.289-.465-.121-.099-.285-.148-.492-.148-.172 0-.348.05-.523.148-.178.099-.436.302-.773.609l-.406-.453c.479-.474.875-.795 1.191-.965.314-.169.629-.254.941-.254.4 0 .707.094.922.281.213.188.363.483.453.887.088.404.133.994.133 1.77 0 .255-.006.625-.016 1.109l-.031 1.234c-.043 1.172-.063 2.094-.063 2.766 0 .542.012.965.035 1.27s.061.535.113.691c.051.156.117.262.195.316s.174.082.289.082c.135 0 .279-.045.434-.137.152-.091.342-.256.566-.496l.438.438c-.34.344-.674.612-1.004.805-.332.192-.625.289-.879.289-.297 0-.523-.06-.68-.18s-.27-.317-.34-.594c-.07-.276-.105-.682-.105-1.219 0-.739.055-1.95.164-3.633h-.078c-1.563 2.292-2.742 4.125-3.539 5.5h-1.586z"/><path d="m415.836 39.379c0-1.76-.292-3.223-.875-4.387s-1.487-1.946-2.711-2.348l.211-.602c1.521.401 2.688 1.267 3.504 2.598.815 1.331 1.223 2.937 1.223 4.816 0 1.886-.406 3.491-1.219 4.816s-1.981 2.188-3.508 2.59l-.188-.602c1.203-.401 2.098-1.193 2.684-2.375s.879-2.683.879-4.506z"/><path d="m394.81 62.637-.477 2.195h-5.656l-.148-.383 4.273-4.922c.604-.692 1.047-1.185 1.328-1.477l-.047-.055h-1.828c-.271 0-.469.019-.594.055-.125.037-.25.101-.375.191-.125.091-.26.227-.402.406s-.303.437-.48.77h-.695l.461-2.055h5.555l.148.391-3.727 4.281c-.725.828-1.352 1.531-1.883 2.109l.047.055h1.766c.313 0 .553-.017.719-.051s.313-.098.438-.191.254-.235.387-.426c.133-.19.299-.488.496-.895h.694z"/><path d="m395.75 55.48h-6.883v-.828h6.883z"/><path d="m399.708 60.879c0 1.823.293 3.326.879 4.508s1.48 1.974 2.684 2.375l-.188.602c-1.525-.401-2.695-1.265-3.508-2.59s-1.219-2.931-1.219-4.816c0-1.88.408-3.485 1.223-4.816.814-1.331 1.982-2.196 3.504-2.598l.211.602c-1.219.401-2.121 1.184-2.707 2.348s-.879 2.625-.879 4.385z"/><path d="m403.056 64.449c.238-.292.479-.595.719-.91.238-.315.531-.715.875-1.199l3.5-4.969c-.006-.531-.029-.977-.07-1.336-.043-.359-.1-.645-.172-.855-.074-.211-.17-.366-.289-.465-.121-.099-.285-.148-.492-.148-.172 0-.348.05-.523.148-.178.099-.436.302-.773.609l-.406-.453c.479-.474.875-.795 1.191-.965.314-.169.629-.254.941-.254.4 0 .707.094.922.281.213.188.363.483.453.887.088.404.133.994.133 1.77 0 .255-.006.625-.016 1.109l-.031 1.234c-.043 1.172-.063 2.094-.063 2.766 0 .542.012.965.035 1.27s.061.535.113.691c.051.156.117.262.195.316s.174.082.289.082c.135 0 .279-.045.434-.137.152-.091.342-.256.566-.496l.438.438c-.34.344-.674.612-1.004.805-.332.192-.625.289-.879.289-.297 0-.523-.06-.68-.18s-.27-.317-.34-.594c-.07-.276-.105-.682-.105-1.219 0-.739.055-1.95.164-3.633h-.078c-1.563 2.292-2.742 4.125-3.539 5.5h-1.586z"/><path d="m414.618 60.879c0-1.76-.292-3.223-.875-4.387s-1.487-1.946-2.711-2.348l.211-.602c1.521.401 2.688 1.267 3.504 2.598.815 1.331 1.223 2.937 1.223 4.816 0 1.886-.406 3.491-1.219 4.816s-1.981 2.188-3.508 2.59l-.188-.602c1.203-.401 2.098-1.193 2.684-2.375s.879-2.683.879-4.506z"/><path d="m64.411 231.505c.323-.083.539-.176.648-.277s.181-.246.215-.434.051-.474.051-.859v-1.281h-4.344v-.586l4.57-6.898h1.117v6.727h.164c.302 0 .518-.022.648-.066s.238-.122.324-.234.165-.296.238-.551h.594l-.094 1.609h-1.875v1.281c0 .349.012.604.035.766s.063.289.117.383.135.172.242.234c.106.063.28.125.52.188v.383h-3.172v-.385zm-2.141-3.609h3.055v-1.945c0-.489.008-1.038.023-1.645s.034-1.063.055-1.371h-.078l-3.055 4.852z"/><path d="m73.583 232.013c-1.125 0-1.962-.442-2.512-1.328s-.824-2.229-.824-4.031c0-.958.084-1.786.254-2.484.169-.698.406-1.274.711-1.73s.67-.793 1.098-1.012c.427-.219.893-.328 1.398-.328 1.141 0 1.989.44 2.547 1.32.557.88.836 2.211.836 3.992 0 1.844-.298 3.238-.895 4.184-.597.944-1.468 1.417-2.613 1.417zm-1.813-5.594c0 1.698.157 2.944.473 3.738.315.794.803 1.191 1.465 1.191.63 0 1.098-.374 1.402-1.121s.457-1.905.457-3.473c0-1.198-.078-2.168-.234-2.91s-.374-1.274-.652-1.598c-.279-.323-.616-.484-1.012-.484-.359 0-.66.106-.902.32s-.438.521-.586.922-.254.89-.316 1.465-.095 1.226-.095 1.95z"/><path d="m82.442 232.013c-1.125 0-1.962-.442-2.512-1.328s-.824-2.229-.824-4.031c0-.958.084-1.786.254-2.484.169-.698.406-1.274.711-1.73s.67-.793 1.098-1.012c.427-.219.893-.328 1.398-.328 1.141 0 1.989.44 2.547 1.32.557.88.836 2.211.836 3.992 0 1.844-.298 3.238-.895 4.184-.597.944-1.468 1.417-2.613 1.417zm-1.813-5.594c0 1.698.157 2.944.473 3.738.315.794.803 1.191 1.465 1.191.63 0 1.098-.374 1.402-1.121s.457-1.905.457-3.473c0-1.198-.078-2.168-.234-2.91s-.374-1.274-.652-1.598c-.279-.323-.616-.484-1.012-.484-.359 0-.66.106-.902.32s-.438.521-.586.922-.254.89-.316 1.465-.095 1.226-.095 1.95z"/><path d="m161.551 231.458v-1.656h.945c.156.531.392.922.707 1.172s.723.375 1.223.375c.692 0 1.216-.208 1.57-.625s.531-1.039.531-1.867c0-.552-.094-1.009-.281-1.371s-.44-.624-.758-.785-.688-.242-1.109-.242c-.354 0-.659.022-.914.066s-.529.113-.82.207l-.625-.367v-5.141h4.305c.177 0 .305-.015.383-.043s.141-.073.188-.133.102-.173.164-.34h.609l-.117 1.813h-4.492v3.43c.271-.114.565-.2.883-.258.317-.058.635-.086.953-.086.62 0 1.169.126 1.648.379s.849.612 1.109 1.078.391 1.007.391 1.621c0 .698-.146 1.297-.438 1.797s-.714.88-1.266 1.141-1.206.391-1.961.391c-.901-.001-1.843-.186-2.828-.556z"/><path d="m173.583 232.013c-1.125 0-1.962-.442-2.512-1.328s-.824-2.229-.824-4.031c0-.958.084-1.786.254-2.484.169-.698.406-1.274.711-1.73s.67-.793 1.098-1.012c.427-.219.893-.328 1.398-.328 1.141 0 1.989.44 2.547 1.32.557.88.836 2.211.836 3.992 0 1.844-.298 3.238-.895 4.184-.597.944-1.468 1.417-2.613 1.417zm-1.813-5.594c0 1.698.157 2.944.473 3.738.315.794.803 1.191 1.465 1.191.63 0 1.098-.374 1.402-1.121s.457-1.905.457-3.473c0-1.198-.078-2.168-.234-2.91s-.374-1.274-.652-1.598c-.279-.323-.616-.484-1.012-.484-.359 0-.66.106-.902.32s-.438.521-.586.922-.254.89-.316 1.465-.095 1.226-.095 1.95z"/><path d="m182.442 232.013c-1.125 0-1.962-.442-2.512-1.328s-.824-2.229-.824-4.031c0-.958.084-1.786.254-2.484.169-.698.406-1.274.711-1.73s.67-.793 1.098-1.012c.427-.219.893-.328 1.398-.328 1.141 0 1.989.44 2.547 1.32.557.88.836 2.211.836 3.992 0 1.844-.298 3.238-.895 4.184-.597.944-1.468 1.417-2.613 1.417zm-1.813-5.594c0 1.698.157 2.944.473 3.738.315.794.803 1.191 1.465 1.191.63 0 1.098-.374 1.402-1.121s.457-1.905.457-3.473c0-1.198-.078-2.168-.234-2.91s-.374-1.274-.652-1.598c-.279-.323-.616-.484-1.012-.484-.359 0-.66.106-.902.32s-.438.521-.586.922-.254.89-.316 1.465-.095 1.226-.095 1.95z"/><path d="m202.576 244.957c.27-.328.539-.669.809-1.023s.598-.805.984-1.35l3.938-5.59c-.006-.598-.032-1.099-.079-1.503s-.111-.726-.193-.962c-.082-.238-.19-.412-.325-.523s-.319-.167-.554-.167c-.193 0-.39.056-.589.167s-.489.34-.87.686l-.457-.51c.539-.533.986-.895 1.34-1.086.354-.189.708-.285 1.059-.285.451 0 .797.105 1.037.316s.41.544.51.998.149 1.117.149 1.99c0 .287-.006.703-.018 1.248l-.035 1.389c-.047 1.318-.07 2.355-.07 3.111 0 .609.013 1.086.04 1.428.026.344.069.603.127.778s.132.294.22.356c.088.061.196.092.325.092.152 0 .315-.051.488-.154.173-.102.385-.288.637-.558l.492.492c-.381.387-.757.688-1.129.905s-.702.325-.989.325c-.334 0-.589-.067-.765-.202s-.303-.357-.382-.668-.119-.768-.119-1.371c0-.832.062-2.194.185-4.087h-.088c-1.758 2.578-3.085 4.641-3.981 6.188h-1.784z"/><path d="m219.725 232.811-6.346 16.356h-1.379l6.363-16.356z"/><path d="m229.229 245.388h-3.463v-.431c.229-.07.393-.132.492-.185s.183-.126.25-.22.12-.238.158-.436c.038-.195.057-.493.057-.892v-2.303c0-.41-.012-.782-.035-1.116s-.063-.607-.119-.822c-.056-.213-.123-.38-.202-.5s-.173-.223-.281-.309c-.108-.084-.233-.151-.374-.201s-.325-.075-.554-.075-.445.046-.65.136c-.205.092-.431.248-.677.471s-.425.442-.536.659-.167.466-.167.747v3.278c0 .504.023.854.07 1.05.047.197.136.347.268.449s.347.191.646.268v.431h-3.445v-.431c.229-.07.391-.132.488-.185s.179-.126.246-.22.12-.237.158-.431.057-.495.057-.905v-3.832c0-.375-.006-.677-.018-.905s-.053-.411-.123-.55c-.07-.137-.177-.239-.321-.307s-.347-.125-.611-.172v-.466l2.057-.079h.536l-.097 1.433.123.035c.434-.439.784-.753 1.05-.94s.536-.332.809-.436c.272-.102.561-.153.866-.153.316 0 .599.037.848.11s.469.186.659.338.347.342.47.566c.123.227.215.497.277.813s.092.718.092 1.204v3.313c0 .404.012.697.035.879s.064.322.123.422.144.184.255.251.305.139.58.215v.434z"/><path d="m233.23 238.339.123.035c.352-.352.64-.616.866-.796.226-.178.444-.321.655-.43s.409-.187.593-.233.374-.07.567-.07c.586 0 1.063.135 1.433.404s.624.683.765 1.239c.439-.445.795-.773 1.068-.984s.551-.373.835-.488c.284-.113.59-.171.918-.171.393 0 .731.058 1.015.171.284.115.524.291.721.527.196.238.34.535.431.893s.136.838.136 1.441v3.313c0 .445.015.753.044.923s.072.302.127.396.139.175.25.241c.111.068.299.137.563.207v.431h-3.454v-.431c.229-.07.393-.132.492-.185s.183-.126.25-.22.12-.238.158-.436c.038-.195.057-.493.057-.892v-2.303c0-.498-.013-.909-.04-1.235-.026-.324-.067-.584-.123-.777s-.123-.346-.202-.457-.168-.208-.268-.29-.217-.146-.352-.193-.313-.07-.536-.07c-.234 0-.453.047-.655.141s-.422.252-.659.475-.409.447-.514.673-.158.49-.158.795v3.208c0 .445.015.753.044.923s.072.302.127.396.139.175.25.241c.111.068.299.137.563.207v.431h-3.454v-.431c.229-.07.393-.132.492-.185s.183-.126.25-.22.12-.238.158-.436c.038-.195.057-.493.057-.892v-2.303c0-.521-.015-.946-.044-1.274s-.075-.592-.136-.791-.141-.36-.237-.483-.195-.217-.294-.281-.217-.112-.352-.146c-.135-.031-.287-.048-.457-.048-.24 0-.466.055-.677.163s-.426.265-.646.47-.385.419-.497.642-.167.463-.167.721v3.296c0 .334.009.589.026.765s.045.313.083.413.086.181.145.241c.059.063.142.121.25.176.108.057.271.113.488.172v.431h-3.445v-.431c.223-.07.382-.132.479-.185s.18-.126.25-.22.123-.237.158-.431.053-.495.053-.905v-3.832c0-.375-.006-.677-.018-.905s-.053-.411-.123-.55c-.07-.137-.177-.239-.321-.307s-.347-.125-.611-.172v-.466l2.057-.079h.536z"/><path d="m267.497 221.528v.383c-.802 0-1.513.172-2.133.516s-1.134.849-1.543 1.516-.697 1.458-.863 2.375l.078.031c.438-.313.868-.542 1.293-.688.424-.146.884-.219 1.379-.219.588 0 1.09.129 1.504.387s.725.62.934 1.086c.208.466.313 1.012.313 1.637 0 .677-.13 1.274-.391 1.793s-.663.926-1.207 1.223-1.215.445-2.012.445c-1.141 0-2.001-.354-2.582-1.063-.581-.708-.871-1.753-.871-3.133 0-.927.146-1.794.438-2.602s.706-1.512 1.242-2.113c.536-.602 1.159-1.075 1.867-1.422s1.453-.54 2.234-.582zm-2.329 4.735c-.255 0-.501.028-.738.086s-.46.141-.668.25-.412.247-.609.414c-.063.058-.109.117-.141.18-.052.099-.086.222-.102.367s-.023.391-.023.734c0 .995.167 1.753.5 2.273.333.521.838.781 1.516.781.391 0 .719-.067.984-.203s.48-.321.645-.559.281-.516.352-.836.105-.668.105-1.043c0-.771-.159-1.371-.477-1.801-.318-.428-.765-.643-1.344-.643z"/><path d="m273.583 232.013c-1.125 0-1.962-.442-2.512-1.328s-.824-2.229-.824-4.031c0-.958.084-1.786.254-2.484.169-.698.406-1.274.711-1.73s.67-.793 1.098-1.012c.427-.219.893-.328 1.398-.328 1.141 0 1.989.44 2.547 1.32.557.88.836 2.211.836 3.992 0 1.844-.298 3.238-.895 4.184-.597.944-1.468 1.417-2.613 1.417zm-1.813-5.594c0 1.698.157 2.944.473 3.738.315.794.803 1.191 1.465 1.191.63 0 1.098-.374 1.402-1.121s.457-1.905.457-3.473c0-1.198-.078-2.168-.234-2.91s-.374-1.274-.652-1.598c-.279-.323-.616-.484-1.012-.484-.359 0-.66.106-.902.32s-.438.521-.586.922-.254.89-.316 1.465-.095 1.226-.095 1.95z"/><path d="m282.442 232.013c-1.125 0-1.962-.442-2.512-1.328s-.824-2.229-.824-4.031c0-.958.084-1.786.254-2.484.169-.698.406-1.274.711-1.73s.67-.793 1.098-1.012c.427-.219.893-.328 1.398-.328 1.141 0 1.989.44 2.547 1.32.557.88.836 2.211.836 3.992 0 1.844-.298 3.238-.895 4.184-.597.944-1.468 1.417-2.613 1.417zm-1.813-5.594c0 1.698.157 2.944.473 3.738.315.794.803 1.191 1.465 1.191.63 0 1.098-.374 1.402-1.121s.457-1.905.457-3.473c0-1.198-.078-2.168-.234-2.91s-.374-1.274-.652-1.598c-.279-.323-.616-.484-1.012-.484-.359 0-.66.106-.902.32s-.438.521-.586.922-.254.89-.316 1.465-.095 1.226-.095 1.95z"/><path d="m368.395 221.599-4.547 10.344h-1.133v-.383l4.211-8.914v-.117h-3.438c-.214 0-.384.02-.512.059s-.234.095-.32.168-.157.169-.215.289-.136.356-.234.711h-.672l.156-2.531h6.703v.374z"/><path d="m373.583 232.013c-1.125 0-1.962-.442-2.512-1.328s-.824-2.229-.824-4.031c0-.958.085-1.786.254-2.484s.406-1.274.711-1.73.671-.793 1.098-1.012.894-.328 1.398-.328c1.141 0 1.989.44 2.547 1.32s.836 2.211.836 3.992c0 1.844-.298 3.238-.895 4.184s-1.468 1.417-2.613 1.417zm-1.813-5.594c0 1.698.157 2.944.473 3.738s.804 1.191 1.465 1.191c.63 0 1.098-.374 1.402-1.121s.457-1.905.457-3.473c0-1.198-.078-2.168-.234-2.91s-.374-1.274-.652-1.598-.616-.484-1.012-.484c-.359 0-.66.106-.902.32s-.438.521-.586.922-.254.89-.316 1.465-.095 1.226-.095 1.95z"/><path d="m382.442 232.013c-1.125 0-1.962-.442-2.512-1.328s-.824-2.229-.824-4.031c0-.958.085-1.786.254-2.484s.406-1.274.711-1.73.671-.793 1.098-1.012.894-.328 1.398-.328c1.141 0 1.989.44 2.547 1.32s.836 2.211.836 3.992c0 1.844-.298 3.238-.895 4.184s-1.468 1.417-2.613 1.417zm-1.813-5.594c0 1.698.157 2.944.473 3.738s.804 1.191 1.465 1.191c.63 0 1.098-.374 1.402-1.121s.457-1.905.457-3.473c0-1.198-.078-2.168-.234-2.91s-.374-1.274-.652-1.598-.616-.484-1.012-.484c-.359 0-.66.106-.902.32s-.438.521-.586.922-.254.89-.316 1.465-.095 1.226-.095 1.95z"/><path d="m378.333 17.332h-30" fill="none" stroke="#f00" stroke-width="1.75"/><path d="m378.333 38.832h-30" fill="none" stroke="#0f0" stroke-width="1.75"/><path d="m378.333 60.332h-30" fill="none" stroke="#00f" stroke-width="1.75"/></svg>