<svg enable-background="new 0 0 1176 301" viewBox="0 0 1176 301" xmlns="http://www.w3.org/2000/svg" xmlns:xlink="http://www.w3.org/1999/xlink"><linearGradient id="a" gradientUnits="userSpaceOnUse" x1="18" x2="1158" y1="130" y2="130"><stop offset="0" stop-color="#ff001d"/><stop offset=".0001754386" stop-color="#ff001c"/><stop offset=".00043859649" stop-color="#ff001b"/><stop offset=".00109649123" stop-color="#ff0018"/><stop offset=".00197368421" stop-color="#ff0013"/><stop offset=".00236842105" stop-color="#ff0010"/><stop offset=".00245614035" stop-color="#ff000f"/><stop offset=".00271929825" stop-color="#ff000d"/><stop offset=".00385964912" stop-color="#ff0e00"/><stop offset=".00412280702" stop-color="#ff1000"/><stop offset=".00421052632" stop-color="#f10"/><stop offset=".00434210526" stop-color="#ff1200"/><stop offset=".00451754386" stop-color="#ff1300"/><stop offset=".00478070175" stop-color="#ff1500"/><stop offset=".00513157895" stop-color="#ff1700"/><stop offset=".00557017544" stop-color="#ff1900"/><stop offset=".00574561404" stop-color="#ff1a00"/><stop offset=".00640350877" stop-color="#ff1d00"/><stop offset=".00745614035" stop-color="#ff2100"/><stop offset=".00899122807" stop-color="#ff2600"/><stop offset=".01039473684" stop-color="#ff2a00"/><stop offset=".01236842105" stop-color="#ff2f00"/><stop offset=".01368421053" stop-color="#ff3200"/><stop offset=".01464912281" stop-color="#ff3400"/><stop offset=".0150877193" stop-color="#ff3500"/><stop offset=".01557017544" stop-color="#ff3600"/><stop offset=".01820175439" stop-color="#ff3b00"/><stop offset=".0199122807" stop-color="#ff3e00"/><stop offset=".02359649123" stop-color="#f40"/><stop offset=".02425438596" stop-color="#ff4500"/><stop offset=".02565789474" stop-color="#ff4700"/><stop offset=".02631578947" stop-color="#ff4800"/><stop offset=".02701754386" stop-color="#ff4900"/><stop offset=".02776315789" stop-color="#ff4a00"/><stop offset=".02846491228" stop-color="#ff4b00"/><stop offset=".03070175439" stop-color="#ff4e00"/><stop offset=".03307017544" stop-color="#ff5100"/><stop offset=".03557017544" stop-color="#ff5400"/><stop offset=".03820175439" stop-color="#ff5700"/><stop offset=".04096491228" stop-color="#ff5a00"/><stop offset=".0448245614" stop-color="#ff5e00"/><stop offset=".04583333333" stop-color="#ff5f00"/><stop offset=".04688596491" stop-color="#ff6000"/><stop offset=".04789473684" stop-color="#ff6100"/><stop offset=".04894736842" stop-color="#ff6200"/><stop offset=".05004385965" stop-color="#ff6300"/><stop offset=".05109649123" stop-color="#ff6400"/><stop offset=".05219298246" stop-color="#ff6500"/><stop offset=".05447368421" stop-color="#ff6700"/><stop offset=".05802631579" stop-color="#ff6a00"/><stop offset=".06048245614" stop-color="#ff6c00"/><stop offset=".06175438596" stop-color="#ff6d00"/><stop offset=".06570175439" stop-color="#ff7000"/><stop offset=".06842105263" stop-color="#ff7200"/><stop offset=".0698245614" stop-color="#ff7300"/><stop offset=".07271929825" stop-color="#ff7500"/><stop offset=".07570175439" stop-color="#f70"/><stop offset=".07723684211" stop-color="#ff7800"/><stop offset=".08197368421" stop-color="#ff7b00"/><stop offset=".08364035088" stop-color="#ff7c00"/><stop offset=".08706140351" stop-color="#ff7e00"/><stop offset=".09057017544" stop-color="#ff8000"/><stop offset=".09236842105" stop-color="#ff8100"/><stop offset=".09425438596" stop-color="#ff8200"/><stop offset=".09811403509" stop-color="#ff8400"/><stop offset=".1000877193" stop-color="#ff8500"/><stop offset=".10171052632" stop-color="#ff8600"/><stop offset=".10236842105" stop-color="#ff8601"/><stop offset=".10263157895" stop-color="#ff8606"/><stop offset=".10289473684" stop-color="#ff8608"/><stop offset=".10298245614" stop-color="#ff8708"/><stop offset=".10311403509" stop-color="#ff8709"/><stop offset=".10328947368" stop-color="#ff870a"/><stop offset=".10394736842" stop-color="#ff870d"/><stop offset=".10425438596" stop-color="#ff870e"/><stop offset=".10447368421" stop-color="#ff870f"/><stop offset=".10460526316" stop-color="#ff880f"/><stop offset=".10486842105" stop-color="#ff8810"/><stop offset=".10521929825" stop-color="#f81"/><stop offset=".10561403509" stop-color="#ff8812"/><stop offset=".10596491228" stop-color="#ff8813"/><stop offset=".10614035088" stop-color="#ff8913"/><stop offset=".10640350877" stop-color="#ff8914"/><stop offset=".10736842105" stop-color="#ff8916"/><stop offset=".10789473684" stop-color="#ff8a17"/><stop offset=".10837719298" stop-color="#ff8a18"/><stop offset=".10890350877" stop-color="#ff8a19"/><stop offset=".10921052632" stop-color="#ff8a1a"/><stop offset=".10947368421" stop-color="#ff8b1a"/><stop offset=".11" stop-color="#ff8b1b"/><stop offset=".11057017544" stop-color="#ff8b1c"/><stop offset=".11087719298" stop-color="#ff8c1c"/><stop offset=".11122807018" stop-color="#ff8c1d"/><stop offset=".11184210526" stop-color="#ff8c1e"/><stop offset=".1123245614" stop-color="#ff8c1f"/><stop offset=".1126754386" stop-color="#ff8d1f"/><stop offset=".11315789474" stop-color="#ff8d20"/><stop offset=".11381578947" stop-color="#ff8d21"/><stop offset=".11530701754" stop-color="#ff8e23"/><stop offset=".11574561404" stop-color="#ff8e24"/><stop offset=".11614035088" stop-color="#ff8f24"/><stop offset=".11679824561" stop-color="#ff8f25"/><stop offset=".1173245614" stop-color="#ff8f26"/><stop offset=".11771929825" stop-color="#ff9026"/><stop offset=".11833333333" stop-color="#ff9027"/><stop offset=".11899122807" stop-color="#ff9028"/><stop offset=".11942982456" stop-color="#ff9128"/><stop offset=".12" stop-color="#ff9129"/><stop offset=".12065789474" stop-color="#ff912a"/><stop offset=".12109649123" stop-color="#ff922a"/><stop offset=".12171052632" stop-color="#ff922b"/><stop offset=".1224122807" stop-color="#ff922c"/><stop offset=".12285087719" stop-color="#ff932c"/><stop offset=".12346491228" stop-color="#ff932d"/><stop offset=".12416666667" stop-color="#ff932e"/><stop offset=".12460526316" stop-color="#ff942e"/><stop offset=".12521929825" stop-color="#ff942f"/><stop offset=".12596491228" stop-color="#ff9430"/><stop offset=".12644736842" stop-color="#ff9530"/><stop offset=".12710526316" stop-color="#ff9531"/><stop offset=".12780701754" stop-color="#ff9532"/><stop offset=".12824561404" stop-color="#ff9632"/><stop offset=".12964912281" stop-color="#ff9634"/><stop offset=".13013157895" stop-color="#ff9734"/><stop offset=".13092105263" stop-color="#ff9735"/><stop offset=".13157894737" stop-color="#ff9736"/><stop offset=".13206140351" stop-color="#ff9836"/><stop offset=".13293859649" stop-color="#ff9837"/><stop offset=".13350877193" stop-color="#ff9838"/><stop offset=".13399122807" stop-color="#ff9938"/><stop offset=".13495614035" stop-color="#ff9939"/><stop offset=".13600877193" stop-color="#ff9a3a"/><stop offset=".13697368421" stop-color="#ff9a3b"/><stop offset=".1375" stop-color="#ff9b3b"/><stop offset=".13811403509" stop-color="#ff9b3c"/><stop offset=".13899122807" stop-color="#ff9b3d"/><stop offset=".13951754386" stop-color="#ff9c3d"/><stop offset=".14021929825" stop-color="#ff9c3e"/><stop offset=".14100877193" stop-color="#ff9c3f"/><stop offset=".14153508772" stop-color="#ff9d3f"/><stop offset=".14236842105" stop-color="#ff9d40"/><stop offset=".14311403509" stop-color="#ff9d41"/><stop offset=".14368421053" stop-color="#ff9e41"/><stop offset=".14460526316" stop-color="#ff9e42"/><stop offset=".14574561404" stop-color="#ff9f43"/><stop offset=".14675438596" stop-color="#ff9f44"/><stop offset=".1473245614" stop-color="#ffa044"/><stop offset=".14798245614" stop-color="#ffa045"/><stop offset=".14894736842" stop-color="#ffa046"/><stop offset=".14951754386" stop-color="#ffa146"/><stop offset=".15026315789" stop-color="#ffa147"/><stop offset=".15109649123" stop-color="#ffa148"/><stop offset=".15166666667" stop-color="#ffa248"/><stop offset=".1525877193" stop-color="#ffa249"/><stop offset=".15333333333" stop-color="#ffa24a"/><stop offset=".15390350877" stop-color="#ffa34a"/><stop offset=".1549122807" stop-color="#ffa34b"/><stop offset=".15614035088" stop-color="#ffa44c"/><stop offset=".15719298246" stop-color="#ffa44d"/><stop offset=".15780701754" stop-color="#ffa54d"/><stop offset=".15850877193" stop-color="#ffa54e"/><stop offset=".15947368421" stop-color="#ffa54f"/><stop offset=".1600877193" stop-color="#ffa64f"/><stop offset=".16092105263" stop-color="#ffa650"/><stop offset=".16179824561" stop-color="#ffa651"/><stop offset=".1624122807" stop-color="#ffa751"/><stop offset=".16337719298" stop-color="#ffa752"/><stop offset=".16412280702" stop-color="#ffa753"/><stop offset=".16473684211" stop-color="#ffa853"/><stop offset=".16587719298" stop-color="#ffa854"/><stop offset=".16714912281" stop-color="#ffa955"/><stop offset=".16824561404" stop-color="#ffa956"/><stop offset=".16885964912" stop-color="#ffaa56"/><stop offset=".16964912281" stop-color="#ffaa57"/><stop offset=".17070175439" stop-color="#ffaa58"/><stop offset=".17131578947" stop-color="#ffab58"/><stop offset=".17219298246" stop-color="#ffab59"/><stop offset=".17311403509" stop-color="#ffab5a"/><stop offset=".17377192982" stop-color="#ffac5a"/><stop offset=".17478070175" stop-color="#ffac5b"/><stop offset=".17557017544" stop-color="#ffac5c"/><stop offset=".17622807018" stop-color="#ffad5c"/><stop offset=".17736842105" stop-color="#ffad5d"/><stop offset=".17807017544" stop-color="#ffad5e"/><stop offset=".17872807018" stop-color="#ffae5e"/><stop offset=".1799122807" stop-color="#ffae5f"/><stop offset=".18057017544" stop-color="#ffaf5f"/><stop offset=".18131578947" stop-color="#ffaf60"/><stop offset=".18245614035" stop-color="#ffaf61"/><stop offset=".18315789474" stop-color="#ffb061"/><stop offset=".18403508772" stop-color="#ffb062"/><stop offset=".18504385965" stop-color="#ffb063"/><stop offset=".18570175439" stop-color="#ffb163"/><stop offset=".18671052632" stop-color="#ffb164"/><stop offset=".18763157895" stop-color="#ffb165"/><stop offset=".18828947368" stop-color="#ffb265"/><stop offset=".18942982456" stop-color="#ffb266"/><stop offset=".19026315789" stop-color="#ffb267"/><stop offset=".19092105263" stop-color="#ffb367"/><stop offset=".19214912281" stop-color="#ffb368"/><stop offset=".19289473684" stop-color="#ffb369"/><stop offset=".19359649123" stop-color="#ffb469"/><stop offset=".19486842105" stop-color="#ffb46a"/><stop offset=".19557017544" stop-color="#ffb56a"/><stop offset=".19635964912" stop-color="#ffb56b"/><stop offset=".1975877193" stop-color="#ffb56c"/><stop offset=".19828947368" stop-color="#ffb66c"/><stop offset=".19916666667" stop-color="#ffb66d"/><stop offset=".20030701754" stop-color="#ffb66e"/><stop offset=".20100877193" stop-color="#ffb76e"/><stop offset=".20197368421" stop-color="#ffb76f"/><stop offset=".20302631579" stop-color="#ffb770"/><stop offset=".20372807018" stop-color="#ffb870"/><stop offset=".2048245614" stop-color="#ffb871"/><stop offset=".20583333333" stop-color="#ffb872"/><stop offset=".20653508772" stop-color="#ffb972"/><stop offset=".20771929825" stop-color="#ffb973"/><stop offset=".20868421053" stop-color="#ffb974"/><stop offset=".20938596491" stop-color="#ffba74"/><stop offset=".21061403509" stop-color="#ffba75"/><stop offset=".21149122807" stop-color="#ffba76"/><stop offset=".21223684211" stop-color="#ffbb76"/><stop offset=".21359649123" stop-color="#fb7"/><stop offset=".21438596491" stop-color="#ffbb78"/><stop offset=".2150877193" stop-color="#ffbc78"/><stop offset=".21649122807" stop-color="#ffbc79"/><stop offset=".21728070175" stop-color="#ffbc7a"/><stop offset=".21802631579" stop-color="#ffbd7a"/><stop offset=".21947368421" stop-color="#ffbd7b"/><stop offset=".22105263158" stop-color="#ffbe7c"/><stop offset=".22245614035" stop-color="#ffbe7d"/><stop offset=".22320175439" stop-color="#ffbf7d"/><stop offset=".22403508772" stop-color="#ffbf7e"/><stop offset=".22539473684" stop-color="#ffbf7f"/><stop offset=".22618421053" stop-color="#ffc07f"/><stop offset=".22710526316" stop-color="#ffc080"/><stop offset=".22846491228" stop-color="#ffc081"/><stop offset=".22925438596" stop-color="#ffc181"/><stop offset=".2301754386" stop-color="#ffc182"/><stop offset=".23149122807" stop-color="#ffc183"/><stop offset=".23228070175" stop-color="#ffc283"/><stop offset=".23328947368" stop-color="#ffc284"/><stop offset=".23460526316" stop-color="#ffc285"/><stop offset=".23539473684" stop-color="#ffc385"/><stop offset=".23644736842" stop-color="#ffc386"/><stop offset=".23776315789" stop-color="#ffc387"/><stop offset=".23855263158" stop-color="#ffc487"/><stop offset=".23960526316" stop-color="#ffc488"/><stop offset=".24092105263" stop-color="#ffc489"/><stop offset=".24171052632" stop-color="#ffc589"/><stop offset=".24280701754" stop-color="#ffc58a"/><stop offset=".24412280702" stop-color="#ffc58b"/><stop offset=".2449122807" stop-color="#ffc68b"/><stop offset=".24600877193" stop-color="#ffc68c"/><stop offset=".2473245614" stop-color="#ffc68d"/><stop offset=".24815789474" stop-color="#ffc78d"/><stop offset=".24929824561" stop-color="#ffc78e"/><stop offset=".25061403509" stop-color="#ffc78f"/><stop offset=".25140350877" stop-color="#ffc88f"/><stop offset=".25254385965" stop-color="#ffc890"/><stop offset=".25390350877" stop-color="#ffc891"/><stop offset=".25473684211" stop-color="#ffc991"/><stop offset=".25587719298" stop-color="#ffc992"/><stop offset=".25728070175" stop-color="#ffc993"/><stop offset=".25811403509" stop-color="#ffca93"/><stop offset=".25921052632" stop-color="#ffca94"/><stop offset=".26065789474" stop-color="#ffca95"/><stop offset=".26149122807" stop-color="#ffcb95"/><stop offset=".2625877193" stop-color="#ffcb96"/><stop offset=".26407894737" stop-color="#ffcb97"/><stop offset=".2649122807" stop-color="#ffcc97"/><stop offset=".26596491228" stop-color="#ffcc98"/><stop offset=".2675" stop-color="#fc9"/><stop offset=".26837719298" stop-color="#ffcd99"/><stop offset=".26942982456" stop-color="#ffcd9a"/><stop offset=".27105263158" stop-color="#ffcd9b"/><stop offset=".27192982456" stop-color="#ffce9b"/><stop offset=".27289473684" stop-color="#ffce9c"/><stop offset=".27456140351" stop-color="#ffce9d"/><stop offset=".27543859649" stop-color="#ffcf9d"/><stop offset=".27635964912" stop-color="#ffcf9e"/><stop offset=".27811403509" stop-color="#ffcf9f"/><stop offset=".27995614035" stop-color="#ffd0a0"/><stop offset=".28171052632" stop-color="#ffd0a1"/><stop offset=".2826754386" stop-color="#ffd0a2"/><stop offset=".28355263158" stop-color="#ffd1a2"/><stop offset=".28526315789" stop-color="#ffd1a3"/><stop offset=".28635964912" stop-color="#ffd1a4"/><stop offset=".28728070175" stop-color="#ffd2a4"/><stop offset=".28890350877" stop-color="#ffd2a5"/><stop offset=".2900877193" stop-color="#ffd2a6"/><stop offset=".29100877193" stop-color="#ffd3a6"/><stop offset=".29254385965" stop-color="#ffd3a7"/><stop offset=".29385964912" stop-color="#ffd3a8"/><stop offset=".29478070175" stop-color="#ffd4a8"/><stop offset=".2976754386" stop-color="#ffd4aa"/><stop offset=".29859649123" stop-color="#ffd5aa"/><stop offset=".29995614035" stop-color="#ffd5ab"/><stop offset=".30157894737" stop-color="#ffd5ac"/><stop offset=".3025" stop-color="#ffd6ac"/><stop offset=".30372807018" stop-color="#ffd6ad"/><stop offset=".30548245614" stop-color="#ffd6ae"/><stop offset=".30640350877" stop-color="#ffd7ae"/><stop offset=".3075" stop-color="#ffd7af"/><stop offset=".31328947368" stop-color="#ffd8b2"/><stop offset=".31442982456" stop-color="#ffd8b3"/><stop offset=".31539473684" stop-color="#ffd9b3"/><stop offset=".31719298246" stop-color="#ffd9b4"/><stop offset=".31855263158" stop-color="#ffd9b5"/><stop offset=".31951754386" stop-color="#ffdab5"/><stop offset=".32114035088" stop-color="#ffdab6"/><stop offset=".3226754386" stop-color="#ffdab7"/><stop offset=".32364035088" stop-color="#ffdbb7"/><stop offset=".3250877193" stop-color="#ffdbb8"/><stop offset=".32684210526" stop-color="#ffdbb9"/><stop offset=".32785087719" stop-color="#ffdcb9"/><stop offset=".32912280702" stop-color="#ffdcba"/><stop offset=".33109649123" stop-color="#ffdcbb"/><stop offset=".33210526316" stop-color="#fdb"/><stop offset=".33315789474" stop-color="#ffddbc"/><stop offset=".33521929825" stop-color="#ffddbd"/><stop offset=".33640350877" stop-color="#ffddbe"/><stop offset=".3374122807" stop-color="#ffdebe"/><stop offset=".33934210526" stop-color="#ffdebf"/><stop offset=".34078947368" stop-color="#ffdec0"/><stop offset=".34184210526" stop-color="#ffdfc0"/><stop offset=".34355263158" stop-color="#ffdfc1"/><stop offset=".34521929825" stop-color="#ffdfc2"/><stop offset=".34627192982" stop-color="#ffe0c2"/><stop offset=".34776315789" stop-color="#ffe0c3"/><stop offset=".34973684211" stop-color="#ffe0c4"/><stop offset=".35078947368" stop-color="#ffe1c4"/><stop offset=".35201754386" stop-color="#ffe1c5"/><stop offset=".35416666667" stop-color="#ffe1c6"/><stop offset=".35535087719" stop-color="#ffe1c7"/><stop offset=".35644736842" stop-color="#ffe2c7"/><stop offset=".35850877193" stop-color="#ffe2c8"/><stop offset=".36" stop-color="#ffe2c9"/><stop offset=".36109649123" stop-color="#ffe3c9"/><stop offset=".36469298246" stop-color="#ffe3cb"/><stop offset=".36578947368" stop-color="#ffe4cb"/><stop offset=".36728070175" stop-color="#ffe4cc"/><stop offset=".36942982456" stop-color="#ffe4cd"/><stop offset=".37057017544" stop-color="#ffe5cd"/><stop offset=".37179824561" stop-color="#ffe5ce"/><stop offset=".37403508772" stop-color="#ffe5cf"/><stop offset=".37539473684" stop-color="#ffe5d0"/><stop offset=".37653508772" stop-color="#ffe6d0"/><stop offset=".37855263158" stop-color="#ffe6d1"/><stop offset=".38035087719" stop-color="#ffe6d2"/><stop offset=".38153508772" stop-color="#ffe7d2"/><stop offset=".38320175439" stop-color="#ffe7d3"/><stop offset=".38535087719" stop-color="#ffe7d4"/><stop offset=".38653508772" stop-color="#ffe8d4"/><stop offset=".38789473684" stop-color="#ffe8d5"/><stop offset=".39021929825" stop-color="#ffe8d6"/><stop offset=".39157894737" stop-color="#ffe8d7"/><stop offset=".39280701754" stop-color="#ffe9d7"/><stop offset=".395" stop-color="#ffe9d8"/><stop offset=".39679824561" stop-color="#ffe9d9"/><stop offset=".39798245614" stop-color="#ffead9"/><stop offset=".39978070175" stop-color="#ffeada"/><stop offset=".40206140351" stop-color="#ffeadb"/><stop offset=".40324561404" stop-color="#ffebdb"/><stop offset=".40460526316" stop-color="#ffebdc"/><stop offset=".40706140351" stop-color="#ffebdd"/><stop offset=".40859649123" stop-color="#ffebde"/><stop offset=".40986842105" stop-color="#ffecde"/><stop offset=".41206140351" stop-color="#ffecdf"/><stop offset=".41403508772" stop-color="#ffece0"/><stop offset=".41530701754" stop-color="#ffede0"/><stop offset=".41710526316" stop-color="#ffede1"/><stop offset=".41956140351" stop-color="#ffede2"/><stop offset=".42083333333" stop-color="#ffeee2"/><stop offset=".42219298246" stop-color="#ffeee3"/><stop offset=".42473684211" stop-color="#ffeee4"/><stop offset=".42644736842" stop-color="#ffeee5"/><stop offset=".42776315789" stop-color="#ffefe5"/><stop offset=".4299122807" stop-color="#ffefe6"/><stop offset=".43219298246" stop-color="#ffefe7"/><stop offset=".43350877193" stop-color="#fff0e7"/><stop offset=".43513157895" stop-color="#fff0e8"/><stop offset=".43780701754" stop-color="#fff0e9"/><stop offset=".43934210526" stop-color="#fff0ea"/><stop offset=".44065789474" stop-color="#fff1ea"/><stop offset=".44315789474" stop-color="#fff1eb"/><stop offset=".44530701754" stop-color="#fff1ec"/><stop offset=".44666666667" stop-color="#fff2ec"/><stop offset=".44859649123" stop-color="#fff2ed"/><stop offset=".45131578947" stop-color="#fff2ee"/><stop offset=".45407894737" stop-color="#fff3ef"/><stop offset=".45688596491" stop-color="#fff3f0"/><stop offset=".45890350877" stop-color="#fff3f1"/><stop offset=".46030701754" stop-color="#fff4f1"/><stop offset=".4625" stop-color="#fff4f2"/><stop offset=".4651754386" stop-color="#fff4f3"/><stop offset=".46657894737" stop-color="#fff5f3"/><stop offset=".46815789474" stop-color="#fff5f4"/><stop offset=".47105263158" stop-color="#fff5f5"/><stop offset=".47302631579" stop-color="#fff5f6"/><stop offset=".47447368421" stop-color="#fff6f6"/><stop offset=".47688596491" stop-color="#fff6f7"/><stop offset=".47956140351" stop-color="#fff6f8"/><stop offset=".48100877193" stop-color="#fff7f8"/><stop offset=".48276315789" stop-color="#fff7f9"/><stop offset=".48574561404" stop-color="#fff7fa"/><stop offset=".4876754386" stop-color="#fff7fb"/><stop offset=".48921052632" stop-color="#fff8fb"/><stop offset=".49179824561" stop-color="#fff8fc"/><stop offset=".49451754386" stop-color="#fff8fd"/><stop offset=".49605263158" stop-color="#fff9fd"/><stop offset=".49789473684" stop-color="#fff9fe"/><stop offset=".50100877193" stop-color="#fff9ff"/><stop offset=".50364035088" stop-color="#fef9ff"/><stop offset=".50521929825" stop-color="#fef8ff"/><stop offset=".5073245614" stop-color="#fdf8ff"/><stop offset=".50956140351" stop-color="#fcf8ff"/><stop offset=".51118421053" stop-color="#fcf7ff"/><stop offset=".51381578947" stop-color="#fbf7ff"/><stop offset=".51570175439" stop-color="#faf7ff"/><stop offset=".51736842105" stop-color="#faf6ff"/><stop offset=".52026315789" stop-color="#f9f6ff"/><stop offset=".52197368421" stop-color="#f9f5ff"/><stop offset=".52399122807" stop-color="#f8f5ff"/><stop offset=".52671052632" stop-color="#f7f5ff"/><stop offset=".52846491228" stop-color="#f7f4ff"/><stop offset=".53105263158" stop-color="#f6f4ff"/><stop offset=".53333333333" stop-color="#f5f4ff"/><stop offset=".53513157895" stop-color="#f5f3ff"/><stop offset=".53828947368" stop-color="#f4f3ff"/><stop offset=".54201754386" stop-color="#f3f2ff"/><stop offset=".54521929825" stop-color="#f2f2ff"/><stop offset=".54714912281" stop-color="#f2f1ff"/><stop offset=".54973684211" stop-color="#f1f1ff"/><stop offset=".55245614035" stop-color="#f0f1ff"/><stop offset=".55442982456" stop-color="#f0f0ff"/><stop offset=".5576754386" stop-color="#eff0ff"/><stop offset=".55986842105" stop-color="#eef0ff"/><stop offset=".56192982456" stop-color="#eeefff"/><stop offset=".56543859649" stop-color="#edefff"/><stop offset=".56754385965" stop-color="#edeeff"/><stop offset=".57013157895" stop-color="#eceeff"/><stop offset=".57324561404" stop-color="#ebeeff"/><stop offset=".57543859649" stop-color="#ebedff"/><stop offset=".57881578947" stop-color="#eaedff"/><stop offset=".58135964912" stop-color="#e9edff"/><stop offset=".58364035088" stop-color="#e9ecff"/><stop offset=".5875" stop-color="#e8ecff"/><stop offset=".58978070175" stop-color="#e8ebff"/><stop offset=".5925" stop-color="#e7ebff"/><stop offset=".59609649123" stop-color="#e6ebff"/><stop offset=".59846491228" stop-color="#e6eaff"/><stop offset=".60206140351" stop-color="#e5eaff"/><stop offset=".605" stop-color="#e4eaff"/><stop offset=".6075" stop-color="#e4e9ff"/><stop offset=".61166666667" stop-color="#e3e9ff"/><stop offset=".61421052632" stop-color="#e3e8ff"/><stop offset=".61719298246" stop-color="#e2e8ff"/><stop offset=".62114035088" stop-color="#e1e8ff"/><stop offset=".62377192982" stop-color="#e1e7ff"/><stop offset=".62776315789" stop-color="#e0e7ff"/><stop offset=".63096491228" stop-color="#dfe7ff"/><stop offset=".63372807018" stop-color="#dfe6ff"/><stop offset=".63837719298" stop-color="#dee6ff"/><stop offset=".64118421053" stop-color="#dee5ff"/><stop offset=".64451754386" stop-color="#dde5ff"/><stop offset=".64885964912" stop-color="#dce5ff"/><stop offset=".65179824561" stop-color="#dce4ff"/><stop offset=".65631578947" stop-color="#dbe4ff"/><stop offset=".65978070175" stop-color="#dae4ff"/><stop offset=".66285087719" stop-color="#dae3ff"/><stop offset=".66798245614" stop-color="#d9e3ff"/><stop offset=".67114035088" stop-color="#d9e2ff"/><stop offset=".67504385965" stop-color="#d8e2ff"/><stop offset=".67969298246" stop-color="#d7e2ff"/><stop offset=".68298245614" stop-color="#d7e1ff"/><stop offset=".68824561404" stop-color="#d6e1ff"/><stop offset=".69188596491" stop-color="#d5e1ff"/><stop offset=".69535087719" stop-color="#d5e0ff"/><stop offset=".70105263158" stop-color="#d4e0ff"/><stop offset=".70460526316" stop-color="#d4dfff"/><stop offset=".70929824561" stop-color="#d3dfff"/><stop offset=".71421052632" stop-color="#d2dfff"/><stop offset=".71793859649" stop-color="#d2deff"/><stop offset=".72407894737" stop-color="#d1deff"/><stop offset=".72793859649" stop-color="#d1ddff"/><stop offset=".73201754386" stop-color="#d0ddff"/><stop offset=".73828947368" stop-color="#cfddff"/><stop offset=".7423245614" stop-color="#cfdcff"/><stop offset=".74815789474" stop-color="#cedcff"/><stop offset=".75315789474" stop-color="#cddcff"/><stop offset=".7574122807" stop-color="#cddbff"/><stop offset=".76438596491" stop-color="#ccdbff"/><stop offset=".76877192982" stop-color="#ccdaff"/><stop offset=".77412280702" stop-color="#cbdaff"/><stop offset=".78057017544" stop-color="#cadaff"/><stop offset=".7851754386" stop-color="#cad9ff"/><stop offset=".79263157895" stop-color="#c9d9ff"/><stop offset=".80245614035" stop-color="#c8d8ff"/><stop offset=".81039473684" stop-color="#c7d8ff"/><stop offset=".81548245614" stop-color="#c7d7ff"/><stop offset=".82263157895" stop-color="#c6d7ff"/><stop offset=".82899122807" stop-color="#c5d7ff"/><stop offset=".83438596491" stop-color="#c5d6ff"/><stop offset=".84311403509" stop-color="#c4d6ff"/><stop offset=".84864035088" stop-color="#c4d5ff"/><stop offset=".85543859649" stop-color="#c3d5ff"/><stop offset=".86350877193" stop-color="#c2d5ff"/><stop offset=".86942982456" stop-color="#c2d4ff"/><stop offset=".87903508772" stop-color="#c1d4ff"/><stop offset=".8851754386" stop-color="#c1d3ff"/><stop offset=".89166666667" stop-color="#c0d3ff"/><stop offset=".90162280702" stop-color="#bfd3ff"/><stop offset=".90820175439" stop-color="#bfd2ff"/><stop offset=".91798245614" stop-color="#bed2ff"/><stop offset=".92565789474" stop-color="#bdd2ff"/><stop offset=".93271929825" stop-color="#bdd1ff"/><stop offset=".94394736842" stop-color="#bcd1ff"/><stop offset=".95127192982" stop-color="#bcd0ff"/><stop offset=".96114035088" stop-color="#bbd0ff"/><stop offset=".97074561404" stop-color="#bad0ff"/><stop offset=".97864035088" stop-color="#bacfff"/><stop offset=".99122807018" stop-color="#b9cfff"/><stop offset=".99899122807" stop-color="#b9ceff"/><stop offset="1" stop-color="#b9ceff"/></linearGradient><path d="m18 16h1140v228h-1140z" fill="url(#a)"/><path d="m37 255h2v9h-2z"/><path d="m137 255h2v9h-2z"/><path d="m237 255h2v9h-2z"/><path d="m337 255h2v9h-2z"/><path d="m437 255h2v9h-2z"/><path d="m537 255h2v9h-2z"/><path d="m637 255h2v9h-2z"/><path d="m737 255h2v9h-2z"/><path d="m837 255h2v9h-2z"/><path d="m937 255h2v9h-2z"/><path d="m1037 255h2v9h-2z"/><path d="m1137 255h2v9h-2z"/><path d="m88 268.2h100v40h-100z" fill="none"/><path d="m112.3 292.4v-3.1l6.1-11.8c.5-1 1-2.5 1-4.3 0-1.4-.7-2.1-1.7-2.1s-1.8.7-1.8 2.1v1.6h-3.6v-1.4c0-1.9.5-3.1 1.5-4s2.4-1.4 3.9-1.4 2.8.4 3.7 1.3c1 .9 1.6 2.2 1.6 4.2 0 1.8-.5 3.8-1.3 5.3l-5.5 10.5h6.8v3.2h-10.7z"/><path d="m135 291.2c-1 .9-2.3 1.4-3.8 1.4s-2.9-.5-3.9-1.4-1.5-2.1-1.5-4v-13.9c0-1.9.6-3.1 1.5-4 1-.9 2.4-1.4 3.9-1.4s2.9.5 3.8 1.4c1 .9 1.5 2.1 1.5 4v13.9c.1 1.9-.5 3.1-1.5 4zm-2-18c0-1.4-.8-2.1-1.8-2.1s-1.8.7-1.8 2.1v14.1c0 1.4.8 2.1 1.8 2.1s1.8-.7 1.8-2.1z"/><path d="m148.7 291.2c-1 .9-2.3 1.4-3.8 1.4s-2.9-.5-3.9-1.4-1.5-2.1-1.5-4v-13.9c0-1.9.6-3.1 1.5-4 1-.9 2.4-1.4 3.9-1.4s2.9.5 3.8 1.4c1 .9 1.5 2.1 1.5 4v13.9c0 1.9-.6 3.1-1.5 4zm-2.1-18c0-1.4-.8-2.1-1.8-2.1s-1.8.7-1.8 2.1v14.1c0 1.4.8 2.1 1.8 2.1s1.8-.7 1.8-2.1z"/><path d="m162.3 291.2c-1 .9-2.3 1.4-3.8 1.4s-2.9-.5-3.9-1.4-1.5-2.1-1.5-4v-13.9c0-1.9.6-3.1 1.5-4 1-.9 2.4-1.4 3.9-1.4s2.9.5 3.8 1.4c1 .9 1.5 2.1 1.5 4v13.9c0 1.9-.5 3.1-1.5 4zm-2.1-18c0-1.4-.8-2.1-1.8-2.1s-1.8.7-1.8 2.1v14.1c0 1.4.8 2.1 1.8 2.1s1.8-.7 1.8-2.1z"/><path d="m188 268h100v40h-100z" fill="none"/><path d="m221.4 291.1c-1 .9-2.4 1.4-3.9 1.4s-3-.5-3.9-1.4c-1-.9-1.5-2.1-1.5-4v-1.4h3.6v1.6c0 1.4.8 2.1 1.8 2.1.6 0 1-.3 1.3-.6.5-.6.6-2.1.6-3.6 0-1.6 0-2.9-.5-3.5-.3-.4-.7-.6-1.4-.6h-1.2v-3h1.2c.5 0 .9-.2 1.2-.5.5-.6.5-1.8.5-3.1 0-1.2 0-2.3-.5-2.9-.3-.3-.6-.5-1.2-.5-.9 0-1.6.6-1.6 1.9v1.7h-3.6v-1.5c0-1.9.5-3.1 1.5-4s2.2-1.4 3.7-1.4c1.6 0 2.9.5 3.7 1.4 1.1 1.1 1.6 2.7 1.6 5 0 1.6-.1 2.8-.6 3.8-.3.6-.7 1.1-1.3 1.4.6.4 1.1.9 1.4 1.5.6 1.2.7 2.4.7 4.5 0 2.5-.1 4.2-1.6 5.7z"/><path d="m235 291.1c-1 .9-2.3 1.4-3.8 1.4s-2.9-.5-3.9-1.4-1.5-2.1-1.5-4v-13.9c0-1.9.6-3.1 1.5-4 1-.9 2.4-1.4 3.9-1.4s2.9.5 3.8 1.4c1 .9 1.5 2.1 1.5 4v13.8c.1 2-.5 3.1-1.5 4.1zm-2-18.1c0-1.4-.8-2.1-1.8-2.1s-1.8.7-1.8 2.1v14.1c0 1.4.8 2.1 1.8 2.1s1.8-.7 1.8-2.1z"/><path d="m248.7 291.1c-1 .9-2.3 1.4-3.8 1.4s-2.9-.5-3.9-1.4-1.5-2.1-1.5-4v-13.9c0-1.9.6-3.1 1.5-4 1-.9 2.4-1.4 3.9-1.4s2.9.5 3.8 1.4c1 .9 1.5 2.1 1.5 4v13.8c0 2-.6 3.1-1.5 4.1zm-2.1-18.1c0-1.4-.8-2.1-1.8-2.1s-1.8.7-1.8 2.1v14.1c0 1.4.8 2.1 1.8 2.1s1.8-.7 1.8-2.1z"/><path d="m262.3 291.1c-1 .9-2.3 1.4-3.8 1.4s-2.9-.5-3.9-1.4-1.5-2.1-1.5-4v-13.9c0-1.9.6-3.1 1.5-4 1-.9 2.4-1.4 3.9-1.4s2.9.5 3.8 1.4c1 .9 1.5 2.1 1.5 4v13.8c0 2-.5 3.1-1.5 4.1zm-2.1-18.1c0-1.4-.8-2.1-1.8-2.1s-1.8.7-1.8 2.1v14.1c0 1.4.8 2.1 1.8 2.1s1.8-.7 1.8-2.1z"/><path d="m288 268h100v40h-100z" fill="none"/><path d="m321.9 288.4v3.8h-3.6v-3.8h-6.7v-3.2l6.2-17.2h3.5l-6 17.2h3v-4.3h3.6v4.3h1.7v3.2z"/><path d="m335 291.1c-1 .9-2.3 1.4-3.8 1.4s-2.9-.5-3.9-1.4-1.5-2.1-1.5-4v-13.9c0-1.9.6-3.1 1.5-4 1-.9 2.4-1.4 3.9-1.4s2.9.5 3.8 1.4c1 .9 1.5 2.1 1.5 4v13.8c.1 2-.5 3.1-1.5 4.1zm-2-18.1c0-1.4-.8-2.1-1.8-2.1s-1.8.7-1.8 2.1v14.1c0 1.4.8 2.1 1.8 2.1s1.8-.7 1.8-2.1z"/><path d="m348.7 291.1c-1 .9-2.3 1.4-3.8 1.4s-2.9-.5-3.9-1.4-1.5-2.1-1.5-4v-13.9c0-1.9.6-3.1 1.5-4 1-.9 2.4-1.4 3.9-1.4s2.9.5 3.8 1.4c1 .9 1.5 2.1 1.5 4v13.8c0 2-.6 3.1-1.5 4.1zm-2.1-18.1c0-1.4-.8-2.1-1.8-2.1s-1.8.7-1.8 2.1v14.1c0 1.4.8 2.1 1.8 2.1s1.8-.7 1.8-2.1z"/><path d="m362.3 291.1c-1 .9-2.3 1.4-3.8 1.4s-2.9-.5-3.9-1.4-1.5-2.1-1.5-4v-13.9c0-1.9.6-3.1 1.5-4 1-.9 2.4-1.4 3.9-1.4s2.9.5 3.8 1.4c1 .9 1.5 2.1 1.5 4v13.8c0 2-.5 3.1-1.5 4.1zm-2.1-18.1c0-1.4-.8-2.1-1.8-2.1s-1.8.7-1.8 2.1v14.1c0 1.4.8 2.1 1.8 2.1s1.8-.7 1.8-2.1z"/><path d="m-12 268h100v40h-100z" fill="none"/><path d="m16.8 292.2v-20l-3.6 2.8v-4.1l3.6-2.9h3.6v24.2z"/><path d="m35 291.1c-1 .9-2.3 1.4-3.8 1.4s-2.9-.5-3.9-1.4-1.5-2.1-1.5-4v-13.9c0-1.9.6-3.1 1.5-4 1-.9 2.4-1.4 3.9-1.4s2.9.5 3.8 1.4c1 .9 1.5 2.1 1.5 4v13.8c.1 2-.5 3.1-1.5 4.1zm-2-18.1c0-1.4-.8-2.1-1.8-2.1s-1.8.7-1.8 2.1v14.1c0 1.4.8 2.1 1.8 2.1s1.8-.7 1.8-2.1z"/><path d="m48.7 291.1c-1 .9-2.3 1.4-3.8 1.4s-2.9-.5-3.9-1.4-1.5-2.1-1.5-4v-13.9c0-1.9.6-3.1 1.5-4 1-.9 2.4-1.4 3.9-1.4s2.9.5 3.8 1.4c1 .9 1.5 2.1 1.5 4v13.8c0 2-.6 3.1-1.5 4.1zm-2.1-18.1c0-1.4-.8-2.1-1.8-2.1s-1.8.7-1.8 2.1v14.1c0 1.4.8 2.1 1.8 2.1s1.8-.7 1.8-2.1z"/><path d="m62.3 291.1c-1 .9-2.3 1.4-3.8 1.4s-2.9-.5-3.9-1.4-1.5-2.1-1.5-4v-13.9c0-1.9.6-3.1 1.5-4 1-.9 2.4-1.4 3.9-1.4s2.9.5 3.8 1.4c1 .9 1.5 2.1 1.5 4v13.8c0 2-.5 3.1-1.5 4.1zm-2.1-18.1c0-1.4-.8-2.1-1.8-2.1s-1.8.7-1.8 2.1v14.1c0 1.4.8 2.1 1.8 2.1s1.8-.7 1.8-2.1z"/><path d="m388 268h100v33h-100z" fill="none"/><path d="m421.4 291c-1 1-2.3 1.5-3.8 1.5s-2.9-.5-3.9-1.4-1.5-2.1-1.5-4v-1.2h3.6v1.7c0 1.5.8 2.1 1.8 2.1.6 0 1-.2 1.3-.6.5-.7.5-2.6.5-4.6s0-3.5-.5-4.3c-.3-.5-.8-.7-1.4-.7-1 0-1.8.7-1.8 2.1v.5h-3.4v-14.1h10.4v3.2h-7.1v6.5c.3-.4.8-.9 1.3-1.2s1.1-.4 1.7-.4c1.5 0 2.5.5 3.3 1.5 1 1.3 1.2 3.5 1.2 6.5-.1 3.1-.1 5.3-1.7 6.9z"/><path d="m435 291.1c-1 .9-2.3 1.4-3.8 1.4s-2.9-.5-3.9-1.4-1.5-2.1-1.5-4v-13.9c0-1.9.6-3.1 1.5-4 1-.9 2.4-1.4 3.9-1.4s2.9.5 3.8 1.4c1 .9 1.5 2.1 1.5 4v13.8c.1 2-.5 3.1-1.5 4.1zm-2-18.1c0-1.4-.8-2.1-1.8-2.1s-1.8.7-1.8 2.1v14.1c0 1.4.8 2.1 1.8 2.1s1.8-.7 1.8-2.1z"/><path d="m448.7 291.1c-1 .9-2.3 1.4-3.8 1.4s-2.9-.5-3.9-1.4-1.5-2.1-1.5-4v-13.9c0-1.9.6-3.1 1.5-4 1-.9 2.4-1.4 3.9-1.4s2.9.5 3.8 1.4c1 .9 1.5 2.1 1.5 4v13.8c0 2-.6 3.1-1.5 4.1zm-2.1-18.1c0-1.4-.8-2.1-1.8-2.1s-1.8.7-1.8 2.1v14.1c0 1.4.8 2.1 1.8 2.1s1.8-.7 1.8-2.1z"/><path d="m462.3 291.1c-1 .9-2.3 1.4-3.8 1.4s-2.9-.5-3.9-1.4-1.5-2.1-1.5-4v-13.9c0-1.9.6-3.1 1.5-4 1-.9 2.4-1.4 3.9-1.4s2.9.5 3.8 1.4c1 .9 1.5 2.1 1.5 4v13.8c0 2-.5 3.1-1.5 4.1zm-2.1-18.1c0-1.4-.8-2.1-1.8-2.1s-1.8.7-1.8 2.1v14.1c0 1.4.8 2.1 1.8 2.1s1.8-.7 1.8-2.1z"/><path d="m488 268h100v33h-100z" fill="none"/><path d="m521.8 290.5c-1 1.4-2.5 1.9-4.3 1.9-1.9 0-3.4-.7-4.2-1.9-1-1.4-1.2-2.8-1.2-5.7 0-2.2.4-4.1 1-5.7l4.2-11.2h3.7l-4 9.8c.4-.3 1-.4 1.5-.4 1.3 0 2.4.5 3.2 1.5.9 1.1 1.2 2.4 1.2 6 .1 3.3-.3 4.6-1.1 5.7zm-2.9-9.5c-.3-.4-.8-.6-1.3-.6s-1 .2-1.3.6c-.6.7-.5 2.4-.5 3.9s0 3 .5 3.8c.3.4.8.6 1.3.6s1-.2 1.3-.6c.6-.7.5-2.3.5-3.8s0-3.2-.5-3.9z"/><path d="m535 291.1c-1 .9-2.3 1.4-3.8 1.4s-2.9-.5-3.9-1.4-1.5-2.1-1.5-4v-13.9c0-1.9.6-3.1 1.5-4 1-.9 2.4-1.4 3.9-1.4s2.9.5 3.8 1.4c1 .9 1.5 2.1 1.5 4v13.8c.1 2-.5 3.1-1.5 4.1zm-2-18.1c0-1.4-.8-2.1-1.8-2.1s-1.8.7-1.8 2.1v14.1c0 1.4.8 2.1 1.8 2.1s1.8-.7 1.8-2.1z"/><path d="m548.7 291.1c-1 .9-2.3 1.4-3.8 1.4s-2.9-.5-3.9-1.4-1.5-2.1-1.5-4v-13.9c0-1.9.6-3.1 1.5-4 1-.9 2.4-1.4 3.9-1.4s2.9.5 3.8 1.4c1 .9 1.5 2.1 1.5 4v13.8c0 2-.6 3.1-1.5 4.1zm-2.1-18.1c0-1.4-.8-2.1-1.8-2.1s-1.8.7-1.8 2.1v14.1c0 1.4.8 2.1 1.8 2.1s1.8-.7 1.8-2.1z"/><path d="m562.3 291.1c-1 .9-2.3 1.4-3.8 1.4s-2.9-.5-3.9-1.4-1.5-2.1-1.5-4v-13.9c0-1.9.6-3.1 1.5-4 1-.9 2.4-1.4 3.9-1.4s2.9.5 3.8 1.4c1 .9 1.5 2.1 1.5 4v13.8c0 2-.5 3.1-1.5 4.1zm-2.1-18.1c0-1.4-.8-2.1-1.8-2.1s-1.8.7-1.8 2.1v14.1c0 1.4.8 2.1 1.8 2.1s1.8-.7 1.8-2.1z"/><path d="m588 268h100v33h-100z" fill="none"/><path d="m616.8 292.2h-3.6l6.4-21h-4.2v3.2h-3.5v-6.4h11.3v3z"/><path d="m635 291.1c-1 .9-2.3 1.4-3.8 1.4s-2.9-.5-3.9-1.4-1.5-2.1-1.5-4v-13.9c0-1.9.6-3.1 1.5-4 1-.9 2.4-1.4 3.9-1.4s2.9.5 3.8 1.4c1 .9 1.5 2.1 1.5 4v13.8c.1 2-.5 3.1-1.5 4.1zm-2-18.1c0-1.4-.8-2.1-1.8-2.1s-1.8.7-1.8 2.1v14.1c0 1.4.8 2.1 1.8 2.1s1.8-.7 1.8-2.1z"/><path d="m648.7 291.1c-1 .9-2.3 1.4-3.8 1.4s-2.9-.5-3.9-1.4-1.5-2.1-1.5-4v-13.9c0-1.9.6-3.1 1.5-4 1-.9 2.4-1.4 3.9-1.4s2.9.5 3.8 1.4c1 .9 1.5 2.1 1.5 4v13.8c0 2-.6 3.1-1.5 4.1zm-2.1-18.1c0-1.4-.8-2.1-1.8-2.1s-1.8.7-1.8 2.1v14.1c0 1.4.8 2.1 1.8 2.1s1.8-.7 1.8-2.1z"/><path d="m662.3 291.1c-1 .9-2.3 1.4-3.8 1.4s-2.9-.5-3.9-1.4-1.5-2.1-1.5-4v-13.9c0-1.9.6-3.1 1.5-4 1-.9 2.4-1.4 3.9-1.4s2.9.5 3.8 1.4 1.5 2.1 1.5 4v13.8c0 2-.5 3.1-1.5 4.1zm-2.1-18.1c0-1.4-.8-2.1-1.8-2.1s-1.8.7-1.8 2.1v14.1c0 1.4.8 2.1 1.8 2.1s1.8-.7 1.8-2.1z"/><path d="m688 268h100v33h-100z" fill="none"/><path d="m721.4 291.1c-1 1-2.4 1.4-3.8 1.4s-2.9-.5-3.9-1.4c-1.4-1.4-1.6-3-1.6-5.7 0-2 .1-3.2.7-4.3.3-.6.8-1.1 1.4-1.5-.6-.4-1-.9-1.3-1.5-.5-1.1-.6-2.1-.6-3.8 0-2.3.3-3.9 1.6-5.2 1-1 2.2-1.4 3.7-1.4s2.8.4 3.7 1.4c1.2 1.2 1.6 2.8 1.6 5.2 0 1.7-.1 2.7-.6 3.8-.3.6-.7 1.1-1.3 1.5.6.4 1.1.9 1.4 1.5.6 1.1.7 2.2.7 4.3-.1 2.6-.3 4.2-1.7 5.7zm-2.5-9.5c-.3-.4-.8-.6-1.3-.6s-1 .2-1.3.6c-.6.7-.5 2-.5 3.6 0 1.4 0 2.8.5 3.5.3.4.8.6 1.3.6s1-.2 1.3-.6c.5-.7.5-2.1.5-3.5 0-1.5 0-2.9-.5-3.6zm-.2-10.2c-.3-.3-.7-.5-1.2-.5s-.9.1-1.2.5c-.5.6-.5 1.9-.5 3 0 1.2 0 2.5.6 3.2.3.3.6.4 1.1.4.4 0 .8-.1 1.1-.4.6-.6.6-2 .6-3.2 0-1.1 0-2.4-.5-3z"/><path d="m735 291.1c-1 .9-2.3 1.4-3.8 1.4s-2.9-.5-3.9-1.4-1.5-2.1-1.5-4v-13.9c0-1.9.6-3.1 1.5-4 1-.9 2.4-1.4 3.9-1.4s2.9.5 3.8 1.4c1 .9 1.5 2.1 1.5 4v13.8c.1 2-.5 3.1-1.5 4.1zm-2-18.1c0-1.4-.8-2.1-1.8-2.1s-1.8.7-1.8 2.1v14.1c0 1.4.8 2.1 1.8 2.1s1.8-.7 1.8-2.1z"/><path d="m748.7 291.1c-1 .9-2.3 1.4-3.8 1.4s-2.9-.5-3.9-1.4-1.5-2.1-1.5-4v-13.9c0-1.9.6-3.1 1.5-4 1-.9 2.4-1.4 3.9-1.4s2.9.5 3.8 1.4c1 .9 1.5 2.1 1.5 4v13.8c0 2-.6 3.1-1.5 4.1zm-2.1-18.1c0-1.4-.8-2.1-1.8-2.1s-1.8.7-1.8 2.1v14.1c0 1.4.8 2.1 1.8 2.1s1.8-.7 1.8-2.1z"/><path d="m762.3 291.1c-1 .9-2.3 1.4-3.8 1.4s-2.9-.5-3.9-1.4-1.5-2.1-1.5-4v-13.9c0-1.9.6-3.1 1.5-4 1-.9 2.4-1.4 3.9-1.4s2.9.5 3.8 1.4 1.5 2.1 1.5 4v13.8c0 2-.5 3.1-1.5 4.1zm-2.1-18.1c0-1.4-.8-2.1-1.8-2.1s-1.8.7-1.8 2.1v14.1c0 1.4.8 2.1 1.8 2.1s1.8-.7 1.8-2.1z"/><path d="m788 268h100v33h-100z" fill="none"/><path d="m822 281.1-4.3 11.2h-3.7l4-9.8c-.4.3-1 .4-1.5.4-1.3 0-2.4-.5-3.2-1.5-.9-1.1-1.2-2.4-1.2-6 0-3.2.4-4.6 1.2-5.7 1-1.4 2.5-1.9 4.3-1.9 1.9 0 3.4.7 4.3 1.9 1 1.4 1.2 2.8 1.2 5.7-.1 2.1-.5 4.1-1.1 5.7zm-3.1-9.5c-.3-.4-.8-.6-1.3-.6s-1 .2-1.3.6c-.6.7-.5 2.3-.5 3.8s0 3.1.5 3.9c.3.4.8.6 1.3.6s1-.2 1.3-.6c.6-.7.5-2.4.5-3.9s0-3-.5-3.8z"/><path d="m835 291.1c-1 .9-2.3 1.4-3.8 1.4s-2.9-.5-3.9-1.4-1.5-2.1-1.5-4v-13.9c0-1.9.6-3.1 1.5-4 1-.9 2.4-1.4 3.9-1.4s2.9.5 3.8 1.4c1 .9 1.5 2.1 1.5 4v13.8c.1 2-.5 3.1-1.5 4.1zm-2-18.1c0-1.4-.8-2.1-1.8-2.1s-1.8.7-1.8 2.1v14.1c0 1.4.8 2.1 1.8 2.1s1.8-.7 1.8-2.1z"/><path d="m848.7 291.1c-1 .9-2.3 1.4-3.8 1.4s-2.9-.5-3.9-1.4-1.5-2.1-1.5-4v-13.9c0-1.9.6-3.1 1.5-4 1-.9 2.4-1.4 3.9-1.4s2.9.5 3.8 1.4c1 .9 1.5 2.1 1.5 4v13.8c0 2-.6 3.1-1.5 4.1zm-2.1-18.1c0-1.4-.8-2.1-1.8-2.1s-1.8.7-1.8 2.1v14.1c0 1.4.8 2.1 1.8 2.1s1.8-.7 1.8-2.1z"/><path d="m862.3 291.1c-1 .9-2.3 1.4-3.8 1.4s-2.9-.5-3.9-1.4-1.5-2.1-1.5-4v-13.9c0-1.9.6-3.1 1.5-4 1-.9 2.4-1.4 3.9-1.4s2.9.5 3.8 1.4 1.5 2.1 1.5 4v13.8c0 2-.5 3.1-1.5 4.1zm-2.1-18.1c0-1.4-.8-2.1-1.8-2.1s-1.8.7-1.8 2.1v14.1c0 1.4.8 2.1 1.8 2.1s1.8-.7 1.8-2.1z"/><path d="m888 268h100v33h-100z" fill="none"/><path d="m909.9 292.2v-20l-3.6 2.8v-4.1l3.6-2.9h3.6v24.2z"/><path d="m928.2 291.1c-1 .9-2.3 1.4-3.8 1.4s-2.9-.5-3.9-1.4-1.5-2.1-1.5-4v-13.9c0-1.9.6-3.1 1.5-4s2.4-1.4 3.9-1.4 2.9.5 3.8 1.4c1 .9 1.5 2.1 1.5 4v13.8c.1 2-.5 3.1-1.5 4.1zm-2-18.1c0-1.4-.8-2.1-1.8-2.1s-1.8.7-1.8 2.1v14.1c0 1.4.8 2.1 1.8 2.1s1.8-.7 1.8-2.1z"/><path d="m941.9 291.1c-1 .9-2.3 1.4-3.8 1.4s-2.9-.5-3.9-1.4-1.5-2.1-1.5-4v-13.9c0-1.9.6-3.1 1.5-4 1-.9 2.4-1.4 3.9-1.4s2.9.5 3.8 1.4c1 .9 1.5 2.1 1.5 4v13.8c0 2-.6 3.1-1.5 4.1zm-2.1-18.1c0-1.4-.8-2.1-1.8-2.1s-1.8.7-1.8 2.1v14.1c0 1.4.8 2.1 1.8 2.1s1.8-.7 1.8-2.1z"/><path d="m955.5 291.1c-1 .9-2.3 1.4-3.8 1.4s-2.9-.5-3.9-1.4-1.5-2.1-1.5-4v-13.9c0-1.9.6-3.1 1.5-4 1-.9 2.4-1.4 3.9-1.4s2.9.5 3.8 1.4c1 .9 1.5 2.1 1.5 4v13.8c0 2-.6 3.1-1.5 4.1zm-2.1-18.1c0-1.4-.8-2.1-1.8-2.1s-1.8.7-1.8 2.1v14.1c0 1.4.8 2.1 1.8 2.1s1.8-.7 1.8-2.1z"/><path d="m969.1 291.1c-1 .9-2.3 1.4-3.8 1.4s-2.9-.5-3.9-1.4-1.5-2.1-1.5-4v-13.9c0-1.9.6-3.1 1.5-4 1-.9 2.4-1.4 3.9-1.4s2.9.5 3.8 1.4 1.5 2.1 1.5 4v13.8c.1 2-.5 3.1-1.5 4.1zm-2-18.1c0-1.4-.8-2.1-1.8-2.1s-1.8.7-1.8 2.1v14.1c0 1.4.8 2.1 1.8 2.1s1.8-.7 1.8-2.1z"/><path d="m988 268h100v33h-100z" fill="none"/><path d="m1009.9 292.2v-20l-3.6 2.8v-4.1l3.6-2.9h3.6v24.2z"/><path d="m1023.6 292.2v-20l-3.6 2.8v-4.1l3.6-2.9h3.6v24.2z"/><path d="m1041.9 291.1c-1 .9-2.3 1.4-3.8 1.4s-2.9-.5-3.9-1.4-1.5-2.1-1.5-4v-13.9c0-1.9.6-3.1 1.5-4 1-.9 2.4-1.4 3.9-1.4s2.9.5 3.8 1.4c1 .9 1.5 2.1 1.5 4v13.8c0 2-.6 3.1-1.5 4.1zm-2.1-18.1c0-1.4-.8-2.1-1.8-2.1s-1.8.7-1.8 2.1v14.1c0 1.4.8 2.1 1.8 2.1s1.8-.7 1.8-2.1z"/><path d="m1055.5 291.1c-1 .9-2.3 1.4-3.8 1.4s-2.9-.5-3.9-1.4-1.5-2.1-1.5-4v-13.9c0-1.9.6-3.1 1.5-4 1-.9 2.4-1.4 3.9-1.4s2.9.5 3.8 1.4c1 .9 1.5 2.1 1.5 4v13.8c0 2-.6 3.1-1.5 4.1zm-2.1-18.1c0-1.4-.8-2.1-1.8-2.1s-1.8.7-1.8 2.1v14.1c0 1.4.8 2.1 1.8 2.1s1.8-.7 1.8-2.1z"/><path d="m1069.1 291.1c-1 .9-2.3 1.4-3.8 1.4s-2.9-.5-3.9-1.4-1.5-2.1-1.5-4v-13.9c0-1.9.6-3.1 1.5-4 1-.9 2.4-1.4 3.9-1.4s2.9.5 3.8 1.4 1.5 2.1 1.5 4v13.8c.1 2-.5 3.1-1.5 4.1zm-2-18.1c0-1.4-.8-2.1-1.8-2.1s-1.8.7-1.8 2.1v14.1c0 1.4.8 2.1 1.8 2.1s1.8-.7 1.8-2.1z"/><path d="m1088 268h100v33h-100z" fill="none"/><path d="m1109.9 292.2v-20l-3.6 2.8v-4.1l3.6-2.9h3.6v24.2z"/><path d="m1119.1 292.2v-3.1l6.1-11.8c.5-1 1-2.5 1-4.3 0-1.4-.7-2.1-1.7-2.1s-1.8.7-1.8 2.1v1.6h-3.6v-1.4c0-1.9.5-3.1 1.5-4s2.4-1.4 3.9-1.4 2.8.4 3.7 1.3c1 .9 1.6 2.2 1.6 4.2 0 1.8-.5 3.8-1.3 5.3l-5.5 10.4h6.8v3.2z"/><path d="m1141.9 291.1c-1 .9-2.3 1.4-3.8 1.4s-2.9-.5-3.9-1.4-1.5-2.1-1.5-4v-13.9c0-1.9.6-3.1 1.5-4 1-.9 2.4-1.4 3.9-1.4s2.9.5 3.8 1.4c1 .9 1.5 2.1 1.5 4v13.8c0 2-.6 3.1-1.5 4.1zm-2.1-18.1c0-1.4-.8-2.1-1.8-2.1s-1.8.7-1.8 2.1v14.1c0 1.4.8 2.1 1.8 2.1s1.8-.7 1.8-2.1z"/><path d="m1155.5 291.1c-1 .9-2.3 1.4-3.8 1.4s-2.9-.5-3.9-1.4-1.5-2.1-1.5-4v-13.9c0-1.9.6-3.1 1.5-4 1-.9 2.4-1.4 3.9-1.4s2.9.5 3.8 1.4c1 .9 1.5 2.1 1.5 4v13.8c0 2-.6 3.1-1.5 4.1zm-2.1-18.1c0-1.4-.8-2.1-1.8-2.1s-1.8.7-1.8 2.1v14.1c0 1.4.8 2.1 1.8 2.1s1.8-.7 1.8-2.1z"/><path d="m1169.1 291.1c-1 .9-2.3 1.4-3.8 1.4s-2.9-.5-3.9-1.4-1.5-2.1-1.5-4v-13.9c0-1.9.6-3.1 1.5-4 1-.9 2.4-1.4 3.9-1.4s2.9.5 3.8 1.4 1.5 2.1 1.5 4v13.8c.1 2-.5 3.1-1.5 4.1zm-2-18.1c0-1.4-.8-2.1-1.8-2.1s-1.8.7-1.8 2.1v14.1c0 1.4.8 2.1 1.8 2.1s1.8-.7 1.8-2.1z"/><path d="m18 253h1140v2h-1140z"/></svg>