<svg height="376.5665" width="504.22345" xmlns="http://www.w3.org/2000/svg" xmlns:xlink="http://www.w3.org/1999/xlink"><marker id="a" orient="auto" overflow="visible" refX="0" refY="0"><path d="m0 0 5-5-17.5 5 17.5 5z" fill-rule="evenodd" stroke="#000" stroke-width="1pt" transform="matrix(-.8 0 0 -.8 -10 0)"/></marker><linearGradient id="b" gradientUnits="userSpaceOnUse" x1="248.440041" x2="500.270061" y1="-20.020708" y2="-20.020708"><stop offset="0" stop-color="#c80000"/><stop offset="1" stop-color="#00c8c8"/></linearGradient><g transform="translate(-184.9149 62.268809)"><g><path d="m453.66673 96.333418c5.72324 0 13.80318 5.049952 12.45654 12.119872-1.34667 7.06993-2.71024 9.38569-2.71024 9.38569s2.44534-.71828 3.1793 4.27802c1.0505 7.15089-1.47906 7.88272-1.47906 7.88272s3.54201-4.88386 7.25722 2.57772c3.67937 7.38971.98604 10.824.98604 10.824l-3.66239 2.94828c-.83126.66917 8.14753 2.65243 8.14753 2.65243s4.77805 9.61388 4.77805 13.99049-6.73324 3.36666-6.73324 3.36666 4.71326-1.68335 7.06989 4.37659c2.35665 6.05993 4.03998 14.13981 2.01996 16.15979-2.01996 2.01998-5.04991 2.01998-5.04991 2.01998s7.73334 2.6186 5.92933 5.75575c-1.80398 3.13711-6.81679 2.89889-6.81679 2.89889s4.01719-.30939 5.55987 4.49913c1.60163 4.99219 1.15797 9.74449-5.6246 21.20274-3.74361 6.32429-13.21156-.41832-13.21156-.41832.0496-.01 2.91779 4.15865 6.42052 7.13466 5.73693 4.8743-3.76107 17.87698-7.46436 16.19366-3.7033-1.68331-4.65552-1.06077-4.65552-1.06077s3.02996 4.73023 1.68332 7.7602c-1.34664 3.02994-6.53603 10.18153-10.57597 12.87487-4.03997 2.69328-5.22325-.77896-5.22325-.77896s-4.73721 3.05389-5.07385 9.11385c-.33666 6.05989-4.03995 10.77319-12.11985 14.47648-8.07991 3.70328-14.81319 6.05991-21.88311 4.37664-7.06992-1.68333-15.82314-6.05997-17.16979-9.08994-1.34667-3.02995-13.80316-23.90302-13.80316-23.90302l-1.00997-15.14982s.33662-10.09989 3.02994-14.4765c2.69331-4.37661 6.05991-9.42654 5.72325-11.1099-.33669-1.68331-2.01996-8.0799-4.37658-11.44653-2.35665-3.36661-1.68336-14.13985-2.01999-16.8331-.33666-2.69331 1.34664-10.09989 1.34664-10.09989s.33666-17.84314-.33666-23.90307c-.67335-6.05992-2.01999-28.61635-2.01999-28.61635s0 2.35665.67335-3.02995c.67329-5.38662 4.37661-14.1398 1.6833-17.84312-2.69329-3.70329-1.01001-17.843111-2.69329-22.219748-1.68332-4.376612-1.68332-18.516422 1.00999-22.556404 2.6933-4.039946 6.73323-11.44653 11.10985-11.783171 4.37663-.336679 10.43654 2.693293 11.78319 2.693293 1.34667 0 5.72325-.336666 11.10989-1.683331 5.38657-1.346641 14.81317-3.703292 17.50645-2.019961 2.6933 1.683294 10.09986 6.733263 10.09986 10.773209s-1.34661 8.079904 1.34667 8.079904c2.69331 0 4.45831 3.203241 3.36663 8.079904-.44735 1.998374 5.72326 0 5.04996 3.366601-.67332 3.366662-2.35665 7.069942.33663 8.079928 2.69332 1.009986 3.03-1.009986 4.03996 2.356651 1.01 3.366626 1.01 5.723253 1.01 5.723253z" fill="#f0f0f0" stroke="#646464" stroke-linecap="round" stroke-linejoin="round" stroke-width="1.59974"/><path d="m295.04337 96.333418c-5.72323 0-13.80318 5.049952-12.45653 12.119872 1.34666 7.06993 2.71023 9.38569 2.71023 9.38569s-2.44534-.71828-3.17929 4.27802c-1.0505 7.15089 1.47906 7.88272 1.47906 7.88272s-3.54201-4.88386-7.25723 2.57772c-3.67937 7.38971-.98604 10.824-.98604 10.824l3.6624 2.94828c.83125.66917-8.14754 2.65243-8.14754 2.65243s-4.77805 9.61388-4.77805 13.99049 6.73325 3.36666 6.73325 3.36666-4.71328-1.68335-7.06992 4.37659c-2.35664 6.05993-4.03997 14.13981-2.01997 16.15979 2.01997 2.01998 5.04994 2.01998 5.04994 2.01998s-7.73335 2.6186-5.92935 5.75575c1.80398 3.13711 6.81682 2.89889 6.81682 2.89889s-4.01721-.30939-5.5599 4.49913c-1.60163 4.99219-1.15797 9.74449 5.62463 21.20274 3.74361 6.32429 13.21156-.41832 13.21156-.41832-.0495-.01-2.91779 4.15865-6.42052 7.13466-5.73694 4.8743 3.76107 17.87698 7.46435 16.19366 3.70329-1.68331 4.65552-1.06077 4.65552-1.06077s-3.02997 4.73023-1.68331 7.7602c1.34664 3.02994 6.53603 10.18153 10.57596 12.87487 4.03998 2.69328 5.22326-.77896 5.22326-.77896s4.73721 3.05389 5.07385 9.11385c.33665 6.05989 4.03995 10.77319 12.11985 14.47648 8.0799 3.70328 14.81319 6.05991 21.88311 4.37664 7.06992-1.68333 15.82314-6.05997 17.16978-9.08994 1.34668-3.02995 13.80316-23.90302 13.80316-23.90302l1.00998-15.14982s-.33663-10.09989-3.02994-14.4765-6.05991-9.42654-5.72326-11.1099c.33669-1.68331 2.01996-8.0799 4.37659-11.44653 2.35665-3.36661 1.68336-14.13985 2.01999-16.8331.33666-2.69331-1.34664-10.09989-1.34664-10.09989s-.33666-17.84314.33666-23.90307c.67335-6.05992 2.01999-28.61635 2.01999-28.61635s0 2.35665-.67335-3.02995c-.67329-5.38662-4.37661-14.1398-1.6833-17.84312 2.69328-3.70329 1.01001-17.843111 2.69328-22.219748 1.68333-4.376612 1.68333-18.516422-1.00998-22.556404-2.6933-4.039946-6.73324-11.44653-11.10985-11.783171-4.37664-.336679-10.43655 2.693293-11.78319 2.693293-1.34667 0-5.72326-.336666-11.10989-1.683331-5.38658-1.346641-14.81317-3.703292-17.50645-2.019961-2.69332 1.683294-10.09986 6.733263-10.09986 10.773209s1.34661 8.079904-1.34668 8.079904c-2.69331 0-4.4583 3.203241-3.36663 8.079904.44735 1.998374-5.72325 0-5.04995 3.366601.67332 3.366662 2.35665 7.069942-.33665 8.079928s-3.02998-1.009986-4.03994 2.356651c-1.01001 3.366626-1.01001 5.723253-1.01001 5.723253z" fill="#f0f0f0" stroke="#646464" stroke-linecap="round" stroke-linejoin="round" stroke-width="1.59974"/><path d="m364.39499 240.12711c-2.69231 11.43006-.23971 13.76347-6.15382 21.82737-5.91405 8.06388-12.63406 10.51015-10.24177 15.039 2.64439 5.00609 2.93005 11.35564 6.87197 7.29908 3.94194-4.05657 13.2221-19.90097 14.95204-23.43587 1.87679-8.61964 2.0819-11.11269 2.19864-16.14069-3.86281-1.47506-7.62706-4.58889-7.62706-4.58889z" fill="#96c8c8" stroke="#96c8c8" stroke-linecap="round" stroke-linejoin="round" stroke-width="1.622527"/><path d="m133.62423 227.22539c0 .8194-.65719 1.48366-1.46787 1.48366-.81069 0-1.46788-.66426-1.46788-1.48366 0-.81941.65719-1.48366 1.46788-1.48366.81068 0 1.46787.66425 1.46787 1.48366z" fill="#00c8c8" stroke="#00c8c8" stroke-linecap="round" stroke-linejoin="round" stroke-width=".999213" transform="matrix(-2.5152074 0 0 2.5152074 700.19523 -321.24544)"/><path d="m133.62423 227.22539c0 .8194-.65719 1.48366-1.46787 1.48366-.81069 0-1.46788-.66426-1.46788-1.48366 0-.81941.65719-1.48366 1.46788-1.48366.81068 0 1.46787.66425 1.46787 1.48366z" fill="#00c8c8" stroke="#00c8c8" stroke-linecap="round" stroke-linejoin="round" stroke-width=".999213" transform="matrix(-2.5152074 0 0 2.5152074 694.39174 -308.38528)"/><path d="m384.41774 240.8075c2.6923 11.43006.23971 13.76347 6.15381 21.82737 5.91406 8.06388 12.63406 10.51015 10.24177 15.039-2.64438 5.00609-4.86342 10.97524-7.74535 6.1081-3.62437-6.12093-11.31653-17.20142-13.84045-22.72127-1.87678-5.99949-2.08192-10.5569-2.43685-15.6643 3.86281-1.47507 7.62707-4.5889 7.62707-4.5889z" fill="#c89696" stroke="#c89696" stroke-linecap="round" stroke-linejoin="round" stroke-width="1.622527"/><path d="m333.52628 97.427517c22.60216 20.960663 36.5389 47.311673 40.60897 47.438863 4.04061.12628 33.77207-44.51057 40.2167-46.719546 3.05535.879348 8.53782 1.505728 10.85914 2.651646-15.07943 13.3633-42.86835 50.50763-42.86835 53.03301s9.34391 23.48605 14.14213 21.46574c4.79823-2.0203 6.69598-3.41561 10.10153-1.01015 2.68153 1.89406 4.54569 16.41498 2.27284 19.95051-2.27284 3.53554-11.86929 6.566-12.87944 3.53554s-2.88453-6.56094-4.53037-9.52248c-.89023-1.60189 1.59899 3.13443-2.03168 9.05865-3.96927 6.47671-8.08757 8.88765-8.08757 8.88765s1.28829-1.12429.88219-2.96865c3.23105-3.61421 3.50592-2.84321 5.94999-6.51446 2.39276-3.59418 1.44497-10.76405 1.44497-10.76405s-7.01242-9.6424-9.28527-13.43048c-2.27284-3.78807-4.04061-10.10152-5.55584-9.84898-1.51522.25254-8.91709 13.37461-10.95028 16.23378-2.02031 2.84105-6.32691 8.73948-6.32691 8.73948s.72829 6.28414 2.24351 8.80952c1.51523 2.52538 6.19036 6.91229 6.19036 6.91229l.32334 2.82126s-6.20862-6.64096-8.26219-9.61014c-2.29843-3.32321-2.9158-6.63207-2.9158-6.63207s-1.26269 3.78807-3.78807 7.07106c-2.52538 3.283-8.5863.50508-9.84899-2.0203s-3.29797-12.81208-2.88252-15.86658c.42848-3.15038.47443-6.42812 4.14521-7.87201 2.59578-1.02104 8.86947.9235 9.62708 2.9438.75762 2.02031 14.23777-18.72743 13.7327-21.00027-.50508-2.27284-11.8693-18.94037-16.16245-24.49621-4.29314-5.55583-25.38905-28.37486-25.38905-28.37486z" fill="#fff" stroke="#000" stroke-linecap="round" stroke-linejoin="round" stroke-width=".5"/><path d="m335.99859 53.245868c5.60119 4.365782 9.62118 9.940093 10.88559 16.399101 1.26438 6.459041.0647 13.400401-3.89866 19.293182-7.92677 11.785529-23.90669 14.913659-35.69222 6.986922-11.78559-7.926778-14.91369-23.906745-6.98695-35.692276 3.96339-5.892773 9.97196-9.467957 16.39912-10.885552 6.25358-4.114493 15.55362-2.630529 19.29312 3.898647z" fill="#fff" stroke="#000" stroke-width=".486543"/><path d="m305.7771 58.506732c-6.03427 5.557879-8.8926 21.119899-3.17594 27.948156 5.71667 6.828257 6.59979 6.993211 11.547 9.272661 4.9472 2.279463 6.39488 1.200641 10.78074 1.767242 10.57045 8.264689 44.33917 50.972989 44.14083 55.909599-.1122 2.79463-7.36994 18.3999-15.80618 26.71219-4.58459 4.51729-8.03362 3.08581-8.03362 3.08581-9.49763-6.39125-15.49324-17.8173-27.8615-4.25986-11.92912 13.07609-2.24571 27.84693 7.18632 44.24068 9.43203 16.39377 11.97405 22.27596 33.01208 24.02924 8.0846.67375 12.12689 4.04229 12.12689 4.04229" fill="none" stroke="#00c8c8" stroke-linecap="round" stroke-linejoin="round" stroke-width="2.515207"/><path d="m414.116 53.107137c-5.89887 3.954326-10.30693 9.2271-12.0297 15.579248-1.72273 6.352156-1.02216 13.361502 2.50993 19.522453 7.06427 12.321862 22.77979 16.584002 35.10166 9.519754 12.32193-7.064269 16.58402-22.779834 9.51978-35.101703-3.53213-6.160947-9.26985-10.156382-15.57927-12.029651-5.94354-4.550888-15.32585-3.735334-19.5224 2.509923z" fill="#fff" stroke="#000" stroke-width=".486543"/><g stroke-linecap="round" stroke-linejoin="round"><path d="m410.23557 59.33464c-6.03427 5.557878-8.89259 21.119898-3.17594 27.948155 5.71667 6.828233 11.28388 12.454599 12.95059 9.497221 2.71871-4.824013 6.79978-2.886048 6.8475-2.561639l-2.86329.112193-4.26365 2.75689c-51.18272 52.42403-44.27713 63.42807-63.14119 87.23272-2.49506 3.14851-8.67814 6.10627-8.67814 6.10627-12.16818-3.29973-16.09945-12.50264-25.76817-5.13827-14.08069 10.72487-8.23556 31.40768-.9123 48.84581 4.35055 10.35948 6.25738 24.4991 27.29541 26.25237 8.08461.67375 15.7792 2.45431 15.7792 2.45431" fill="none" stroke="#00c8c8" stroke-width="2.515207"/><path d="m443.26594 59.219098c6.03427 5.557878 8.8926 21.119886 3.17594 27.948143-5.71667 6.828269-6.59978 6.993211-11.547 9.272674-4.9472 2.279451-6.39488 1.200628-10.78072 1.767229-10.57047 8.264696-44.33918 50.972986-44.14084 55.909616.11219 2.79461 7.36993 18.39989 15.80617 26.71217 4.58459 4.51729 7.82941 2.88336 7.82941 2.88336 9.29342-6.59369 15.28906-18.01975 27.65732-4.4623 11.92912 13.07608 2.24571 27.84694-7.18632 44.24069-9.43203 16.39377-11.97408 22.27596-33.0121 24.02922-8.0846.67376-12.1269 4.0423-12.1269 4.0423" fill="none" stroke="#c83200" stroke-width="2.515207"/><path d="m338.13378 58.699549c6.03426 5.557879 8.89259 21.119899 3.17592 27.948156-5.71666 6.828232-11.28387 12.4546-12.95057 9.497221-2.71871-4.824014-6.79979-2.886048-6.84751-2.561639l2.86329.112193 4.26365 2.75689c51.18271 52.42403 44.27715 63.42807 63.14119 87.23272 2.49507 3.1485 8.81078 6.57754 8.81078 6.57754 12.30082-2.82844 16.23212-12.03137 25.90084-4.66699 14.08069 10.72487 8.23555 31.40767.9123 48.8458-4.35055 10.35949-6.25738 24.49911-27.29543 26.25239-8.08461.67374-15.77921 2.45431-15.77921 2.45431" fill="none" stroke="#c80000" stroke-width="2.515207"/><path d="m133.62423 227.22539c0 .8194-.65719 1.48366-1.46787 1.48366-.81069 0-1.46788-.66426-1.46788-1.48366 0-.81941.65719-1.48366 1.46788-1.48366.81068 0 1.46787.66425 1.46787 1.48366z" fill="#00c8c8" stroke="#00c8c8" stroke-width=".999213" transform="matrix(2.5152074 0 0 2.5152074 14.830153 -391.42506)"/><path d="m133.62423 227.22539c0 .8194-.65719 1.48366-1.46787 1.48366-.81069 0-1.46788-.66426-1.46788-1.48366 0-.81941.65719-1.48366 1.46788-1.48366.81068 0 1.46787.66425 1.46787 1.48366z" fill="#00c8c8" stroke="#00c8c8" stroke-width=".999213" transform="matrix(2.5152074 0 0 2.5152074 15.285043 -381.06712)"/><path d="m133.62423 227.22539c0 .8194-.65719 1.48366-1.46787 1.48366-.81069 0-1.46788-.66426-1.46788-1.48366 0-.81941.65719-1.48366 1.46788-1.48366.81068 0 1.46787.66425 1.46787 1.48366z" fill="#c83200" stroke="#c83200" stroke-width=".999213" transform="matrix(2.5152074 0 0 2.5152074 69.283185 -390.67029)"/><path d="m133.62423 227.22539c0 .8194-.65719 1.48366-1.46787 1.48366-.81069 0-1.46788-.66426-1.46788-1.48366 0-.81941.65719-1.48366 1.46788-1.48366.81068 0 1.46787.66425 1.46787 1.48366z" fill="#c80000" stroke="#c80000" stroke-width=".999213" transform="matrix(2.5152074 0 0 2.5152074 69.73806 -380.31235)"/><path d="m133.62423 227.22539c0 .8194-.65719 1.48366-1.46787 1.48366-.81069 0-1.46788-.66426-1.46788-1.48366 0-.81941.65719-1.48366 1.46788-1.48366.81068 0 1.46787.66425 1.46787 1.48366z" fill="#c83200" stroke="#c83200" stroke-width=".999213" transform="matrix(2.5152074 0 0 2.5152074 48.898213 -321.6318)"/><path d="m133.62423 227.22539c0 .8194-.65719 1.48366-1.46787 1.48366-.81069 0-1.46788-.66426-1.46788-1.48366 0-.81941.65719-1.48366 1.46788-1.48366.81068 0 1.46787.66425 1.46787 1.48366z" fill="#c80000" stroke="#c80000" stroke-width=".999213" transform="matrix(2.5152074 0 0 2.5152074 54.140232 -308.09792)"/></g><path d="m362.47436 187.10201c2.10951-2.47191 5.54036-2.31736 6.77945-.0399 1.30778 2.40376 2.82768 3.49288 4.50922 3.3116 1.74684-.18832 2.47779-2.88014 3.64596-3.64876 1.16817-.76863 3.27584-2.87654 6.65364-.13996.97348.61491 3.69055 3.37229 3.45126 5.50506-.2994 2.66843-1.47224 3.43752-3.02421 4.47395-2.47945 1.65585-1.95247 3.50593-1.95247 3.50593s-.9073 10.84408-3.43198 9.45331c-1.9239-1.05983-5.43127-2.58648-5.43127-2.58648s-2.56688 1.99769-5.4322 2.82287c-1.97846.56977-2.76339-10.58884-2.76339-10.58884s-5.23658-3.30725-5.62598-5.15194c-.38939-1.84469 2.62197-6.91686 2.62197-6.91686z" fill="#e6dcdc" stroke="#000" stroke-width=".68505"/><path d="m381.60713 196.20146c0 1.43002-1.65276 2.74713-3.10743 2.74713-1.45468 0-2.16042-1.31711-2.16042-2.74713s1.21082-1.86323 2.6655-1.86323c1.45467 0 2.60235.43321 2.60235 1.86323z" fill="#a08c8c" opacity=".398"/><path d="m367.40494 194.13984c1.09801-.91615 3.13661-.74347 4.06855.37346.93195 1.11695.27807 2.25011-.81994 3.16626s-2.08009.76907-3.01204-.34788c-.93194-1.11693-1.33458-2.27569-.23657-3.19184z" fill="#a08c8c" opacity=".398"/><path d="m376.76917 201.59276c0 1.43002-1.65276 2.74713-3.10743 2.74713-1.45468 0-2.16042-1.31711-2.16042-2.74713s1.21082-1.86323 2.6655-1.86323c1.45467 0 2.60235.43321 2.60235 1.86323z" fill="#fff" opacity=".398" stroke="#646464" stroke-width=".4"/><path d="m436.05304 51.458843c0 1.048313-3.55386 1.898138-7.93778 1.898138-4.38391 0-7.93777-.849825-7.93777-1.898138 0-1.048312 3.55386-1.898138 7.93777-1.898138 4.38392 0 7.93778.849826 7.93778 1.898138z" style="opacity:.398;fill:#fff;stroke:#323232;stroke-width:.4;stroke-linecap:round;stroke-linejoin:round" transform="matrix(.99063826 -.13651313 .13651313 .99063826 -7.12065 58.735693)"/><path d="m436.05304 51.458843c0 1.048313-3.55386 1.898138-7.93778 1.898138-4.38391 0-7.93777-.849825-7.93777-1.898138 0-1.048312 3.55386-1.898138 7.93777-1.898138 4.38392 0 7.93778.849826 7.93778 1.898138z" style="opacity:.398;fill:#fff;stroke:#323232;stroke-width:.4;stroke-linecap:round;stroke-linejoin:round" transform="matrix(.98810638 .1537718 -.1537718 .98810638 -89.360602 -65.693531)"/><path d="m307.21264 61.023726 131.06729-74.246211-92.18539-3.077503-29.54696 108.591398s-10.09647-4.510536-13.5063-15.633842c-1.5503-5.057237 4.17136-15.633842 4.17136-15.633842z" fill="#96c8c8" opacity=".4" stroke="#649696"/><path d="m440.89078 62.175908-131.06729-74.246211 92.18539-3.077503 29.54696 108.5914s12.45062-7.042267 13.63257-12.350847c2.56598-11.524735-4.29763-18.916839-4.29763-18.916839z" fill="#c89696" opacity=".4" stroke="#966464"/><path d="m413.02613 58.498346 50.88643-65.2811083-60.86169-8.8388347 25.75889 106.192286s-13.8891 4.126531-19.7611-8.460028c-4.28579-9.186529 3.97747-23.612315 3.97747-23.612315z" fill="#96c8c8" opacity=".4" stroke="#649696"/><path d="m335.09844 57.31455-50.88643-65.281108 60.86169-8.838835-25.75889 106.19229s14.64108 2.362915 20.51872-9.470182c3.70624-7.461568-4.73509-22.602165-4.73509-22.602165z" fill="#c89696" opacity=".4" stroke="#966464"/><path d="m258.44004-7.7726097s21.07659-24.4961993 115.91501-24.4961993 115.915 24.4961993 115.915 24.4961993" fill="none" stroke="url(#b)" stroke-width="20"/></g><g><text font-family="Nimbus Sans L" font-size="14" letter-spacing="2.46000004" text-anchor="middle" word-spacing="0" x="589.13971" y="266.58978"><tspan font-size="12" x="590.36969" y="266.58978">Primary visual cortex</tspan></text><text font-family="Nimbus Sans L" font-size="14" letter-spacing="2.46000004" text-anchor="middle" word-spacing="0" x="562.24042" y="158.21979"><tspan font-size="12" x="563.4704" y="158.21979">Optic chiasma</tspan></text><text font-family="Nimbus Sans L" font-size="14" letter-spacing="2.46000004" text-anchor="middle" word-spacing="0" x="552.44446" y="124.80447"><tspan font-size="12" x="553.67444" y="124.80447">Optic nerve</tspan></text><text font-family="Nimbus Sans L" font-size="14" letter-spacing="2.46000004" text-anchor="middle" word-spacing="0" x="554.34241" y="55.103931"><tspan font-size="12" x="555.57239" y="55.103931">Optical lens</tspan></text><text font-family="Nimbus Sans L" font-size="14" letter-spacing="2.46000004" word-spacing="0" x="509.06906" y="187.26297"><tspan font-size="12" x="509.06906" y="187.26297">Lateral geniculate</tspan><tspan font-size="12" x="509.06906" y="202.26297">nucleus (LGN)</tspan></text><text font-family="Nimbus Sans L" font-size="14" letter-spacing="2.46000004" text-anchor="middle" word-spacing="0" x="637.43121" y="75.660324"><tspan font-size="12" x="638.66119" y="75.660324">Eye</tspan></text><g fill="none" stroke="#000"><path d="m498.08643 50.795933h-53.98225" marker-end="url(#a)" stroke-width=".6"/><path d="m498.08643 82.534517h-39.98225" marker-end="url(#a)" stroke-width=".6"/><path d="m498.08643 119.99138h-83.98225" marker-end="url(#a)" stroke-width=".6"/><path d="m498.08643 155.34672h-109.98225" marker-end="url(#a)" stroke-width=".6"/><path d="m498.08643 189.6919h-81.98225" marker-end="url(#a)" stroke-width=".6"/><path d="m498.08643 261.91781h-81.98225" marker-end="url(#a)" stroke-width=".6"/><path d="m609.89286 44.683609h3.75v55.821431h-4.10714"/></g><text font-family="Nimbus Sans L" font-size="14" letter-spacing="2.46000004" text-anchor="middle" word-spacing="0" x="374.32297" y="38.276569"><tspan font-size="12" x="375.55298" y="38.276569">Nasal retina</tspan></text><text font-family="Nimbus Sans L" font-size="14" letter-spacing="2.46000004" text-anchor="middle" word-spacing="0" x="509.65704" xml:space="preserve" y="79.270515"><tspan font-size="12" text-anchor="start" x="509.65704" y="79.270515">Temporal </tspan><tspan font-size="12" text-anchor="start" x="509.65704" y="94.270515">retina</tspan></text><path d="m381.30992 41.015009 17.01796 21.071429" fill="none" marker-end="url(#a)" stroke="#000" stroke-width=".6"/><path d="m366.63661 41.015009-17.01796 21.071429" fill="none" marker-end="url(#a)" stroke="#000" stroke-width=".6"/><text font-family="Nimbus Sans L" font-size="14" letter-spacing="2.46000004" text-anchor="middle" word-spacing="0" x="204.6629" xml:space="preserve" y="79.270515"><tspan font-size="12" text-anchor="start" x="204.6629" y="79.270515">Temporal </tspan><tspan font-size="12" text-anchor="start" x="204.6629" y="94.270515">retina</tspan></text><path d="m269.72316 86.290753h21.98225" fill="none" marker-end="url(#a)" stroke="#000" stroke-width=".6"/><text font-family="Nimbus Sans L" font-size="14" letter-spacing="2.46000004" word-spacing="0" x="204.6989" y="-31.42396"><tspan font-size="12" x="204.6989" y="-31.42396">Left visual</tspan><tspan font-size="12" x="204.6989" y="-16.42396">field</tspan></text><text font-family="Nimbus Sans L" font-size="14" letter-spacing="2.46000004" word-spacing="0" x="499.28781" y="-31.459959"><tspan font-size="12" x="499.28781" y="-31.459959">Right visual</tspan><tspan font-size="12" x="499.28781" y="-16.459959">field</tspan></text></g></g></svg>