<svg id="Layer_1" data-name="Layer 1" xmlns="http://www.w3.org/2000/svg" viewBox="0 0 226.77 226.77">

  <g>
    <path d="M117.06,105.07h0Z" fill="none" />
    <path d="M101.64,100.13l-1.53-1.06-.29.47C100.18,100.07,100.67,100.3,101.64,100.13Z" fill="none" />
    <path d="M150.45,96.91V93.43l2.14-1.52-.14-.46a24.38,24.38,0,0,0-3.23.3,7.46,7.46,0,0,0-2.1,5.39Z" fill="none" />
    <path d="M103.41,99.55a2.73,2.73,0,0,0-.35-.47s-.23.11-.36.17l.3.53Z" fill="none" />
    <path d="M102.2,101.49l-1.27-.15,0,.18a5.89,5.89,0,0,0,.58.24,4.67,4.67,0,0,0,.67.13Z" fill="none" />
    <path d="M54.71,97.3l-.2-.2Z" fill="none" />
    <path d="M155.56,87c-2.07-.27-3,1.08-4.12,2.46l4.12-.54Z" fill="none" />
    <path
      d="M151.67,94.56c0,.64.06,1.28.09,1.94,1.24,0,2.24-.79,3.47-.08l-1.38,1.12.39.94-3.59.25c.31,2.52-.16,4.93,1.13,7.16a5.23,5.23,0,0,1,.49,2.47c0,1.93-.06,3.86-.15,5.78-.06,1.37-.22,2.73-.33,4.08l3.38,1.19a174.77,174.77,0,0,0,6.62-22.76c-1.41-.72-2.66-1.31-3.86-2s-2.31-1.47-3.49-2.22Z"
      fill="none" />
    <path d="M143.76,145.8c1.35-.48,2.52-.52,2.69-2A3.51,3.51,0,0,0,143.76,145.8Z" fill="none" />
    <path d="M147.81,145.36c-1.31,1-1.31,1-.48,2.8Z" fill="none" />
    <path
      d="M144,161.12c-1.07.09-1.68-.6-2.73-1C142.83,159.76,142.83,159.76,144,161.12Zm-2.91,2.26a5.72,5.72,0,0,1-1.9-4C140.79,160.44,141,161.88,141.05,163.38ZM136,153.27l.76,1.95c-.46.07-1,.31-1.2.15C134.71,154.7,135.06,154.08,136,153.27Zm-2,.64c-.29,1.1-.5,1.87-.7,2.61-1,0-1-.52-.9-1.06A1.48,1.48,0,0,1,134,153.91Zm-2.24-1.34a.55.55,0,0,1,.43,0c.12.06.2.21.36.4l-3,5c-.22-.41-.59-.77-.55-1.09A6.15,6.15,0,0,1,131.71,152.57Zm-8.39,11.73a7.14,7.14,0,0,1,1.46,4.76,11,11,0,0,1-2.47-5.12C122.73,164.08,123.17,164.09,123.32,164.3Zm21.78-28.07,3.08,2.64h-1.72l0-.12,0,.13-.05.66C145,138.85,145,138.85,145.1,136.23Zm-.94,2c.1,1,.17,1.68.26,2.54C143.18,139.87,143.18,139.87,144.16,138.22Zm-9.63,3.89c-.5-1.57-.5-1.57,0-2.76C135,140.51,135,140.51,134.53,142.11Zm2.38-3.52c.29.86.55,1.61.87,2.59C136,140.74,135.84,140.3,136.91,138.59Zm2.06-.43,1.07,2C138.48,139.93,138.48,139.93,139,138.16Zm3.74,2.85-.32.17-.11-.29a2.07,2.07,0,0,1,.35,0S142.69,141,142.71,141Zm-.12-1.36a3,3,0,0,1-1.72-2.19C142.13,137.88,142.68,138.48,142.59,139.65Zm-9.56-18a1.49,1.49,0,0,1,1.87-.43c1.2.64,2.36,1.36,3.68,2.13-1.79.16-1.79.16-4.36-1.51-2.68,2.94-3.22,6.27-1.95,10.24,1.82-.58,3.24-2,5.23-1.87s3.78-.43,5.77.27c-.21.62-.33,1-.45,1.3-2.17-1.55-4.33.25-6.43-.39-1.19,2.13-3.06,1.41-4.72,1.39-.15-.14-.31-.23-.37-.35C129.75,129.15,130.56,124.12,133,121.64Zm-2.8,18.6,1.34,1.42h0V139.5c1,.67,1,1.52,1.44,2.56l-1.44-.39v0l0-.05-.11.62C130,141.88,130,141.88,130.23,140.24Zm-2.32.3a4.93,4.93,0,0,1,1.29,2.75C127.75,142.66,127.75,142.66,127.91,140.54ZM125.69,95.3a3.86,3.86,0,0,1,2.52,1.57A3.34,3.34,0,0,1,125.69,95.3Zm-16.91,31a3.59,3.59,0,0,1-2.9-2.15l8.94,2.82,0,.43c-.31.08-.68.29-.93.2A17.85,17.85,0,0,0,108.78,126.29Zm6-15.17c.56-1,1.94-1.64,4.26-2C117.84,110.46,116.38,110.65,114.79,111.12ZM119.74,128h-1.85c.15-.31.18-.51.27-.54C118.73,127.25,119.31,127.11,119.74,128Zm-6.22,33.77c-.1-2,1.42-2.4,2.42-3.16a.91.91,0,0,1,1.49.25Zm2.1,2.27-.62,0c-.08-.39-.31-.82-.22-1.16.28-1,1.51-2.2,3.21-3.1C117.6,161.57,115.75,162.31,115.62,164Zm4-1.78c0,.59,0,1.17,0,1.76s.19,1,.3,1.51C118.2,165.05,118,164.12,119.64,162.25Zm2.55-16c-1.16-.61-.68-1.54-.8-2.27L120,147.9l-.72-1c-.83,1.14-1,2.74-2.71,3.77,1-2.83,1.88-5.31,2.76-7.82l1.93.15.09,1,1.34-1.79C123.05,143.89,122.36,145,122.19,146.26Zm2.34-1.51c-1.22-1.4-1.17-1.76.36-3.12C124.76,142.74,124.65,143.64,124.53,144.75Zm-2.19-18a3.32,3.32,0,0,1,2.86-1.13A3.05,3.05,0,0,1,122.34,126.78Zm4.32,17c-.89-.79-.84-1.63-.28-2.73C127.34,142.05,126.87,143,126.66,143.82Zm0-38.68c-1.73-.33-2.79-1.92-3-4.66C125.3,102,125.58,103.76,126.7,105.14Zm-23.18,3c.31-.81.94-.8,1.56-.89a16,16,0,0,0,5.29-1.49,7.59,7.59,0,0,0,1.77-1.09,10.2,10.2,0,0,1,4.22-2.3c1-.3,1.87-.68,2.93-1.07a6.45,6.45,0,0,1,1.32,1.18,8,8,0,0,0,3.71,3.29c.19.08.26.46.41.78-2.09-.13-2.47-.3-5-2.28-.16.53-.32,1-.47,1.51.27.29.5.53.69.75-1,2.18-3.43,1.26-4.8,2.61l-2.94-2.47c.29-1.11,1.94-.91,2.28-2.72-1.9,1.51-3.47,2.71-5.36,3.18S105.55,108.61,103.52,108.13ZM71.57,148.84c.19-.69.39-1.38.58-2.06v0c-.61-.05-.67-.44-.63-1,.07-.89.1-1.79.15-2.68l0,.05v-.08c-.29-.21-.77-.39-.81-.64-.37-2.34-.65-4.68-1-7.29,1.11,1.22,1.44,2.79,1.81,7.93l0,0,.77-1.55c.7,1.54,0,2.94.15,4.28l0-.05,0,0,1-.47A4.77,4.77,0,0,1,71.57,148.84ZM74.09,152c-.54-1.79-.54-1.79.16-3.85.15.73.26,1.09.3,1.46s0,.92.09,1.62l4.33,1.5-.21.54Zm4.32,3a4.58,4.58,0,0,1,2.37-1.81l-.72,1.72,2.24.58C80.84,156.09,80.05,156,78.41,155Zm40,20c.61-1.13,1.3-.78,2.19-.49C119.9,175.41,119.22,175.05,118.4,175Z"
      fill="none" />
    <path d="M164.32,91.11c-.21,1.59-.35,2.7-.51,4l2.46,1.31A8,8,0,0,0,164.32,91.11Z" fill="none" />
    <path d="M162.48,90.24l-6,.57c1.75,1.69,3.73,2.17,5.57,2.94C162.73,92.23,162.73,92.23,162.48,90.24Z" fill="none" />
    <path
      d="M149.64,101.91l-1.86,1c.2-1.78,2.54-2.56,1.61-4.37-1.85-.73-2.53,1.08-4,1.75a9.73,9.73,0,0,0,.36-4.83c-2.9,2.78-2.05,6-2,8.65a8.09,8.09,0,0,1,1.24,1.59c.7,1.87,1.27,3.79,2,5.65a18.06,18.06,0,0,0,3,5.49c1.72-3.76,1.34-10.8-.55-12.82C149.46,103.35,149.54,102.71,149.64,101.91Z"
      fill="none" />
    <path
      d="M117.45,107.05c.14,0,.17-.39.26-.6-1-.12-1.77-.24-2.57-.3a8.76,8.76,0,0,0-1.46.27C115.27,107,116.29,107.53,117.45,107.05Z"
      fill="none" />
    <path
      d="M81.94,15.39A16,16,0,0,0,87.67,14a2.49,2.49,0,0,0-1-2.25c-2.59-.28-5.21-.67-7.12,2C80.23,14.89,80.87,15.49,81.94,15.39Z"
      fill="none" />
    <path d="M46.73,109.2l.4-.06c.29-1.67.59-3.35.88-5L45,105.34Z" fill="none" />
    <path
      d="M50.59,102.71l-2.51,1.38c1,.62.88,1.65.79,2.6a30.86,30.86,0,0,1-.64,4.6c-.69,2.85,1,4.5,2.77,6.17a38.31,38.31,0,0,0-.53-3.91,2.21,2.21,0,0,1,.92-2.44c2.61-1.64,5.23-3.25,7.84-4.88.11-.07.17-.24.33-.46-.14-.35-.29-.75-.45-1.17A20,20,0,0,1,50.59,102.71Z"
      fill="none" />
    <path d="M117.74,103c-.76.38-1.91-.06-2.49,1.51C116.44,104,117.26,103.77,117.74,103Z" fill="none" />
    <path
      d="M45.74,171.31a6.65,6.65,0,0,0-4.07.18,17.81,17.81,0,0,1-6.56.93,3.2,3.2,0,0,0-.9.21,7.82,7.82,0,0,0,2.25,4.83c3.09-1.56,6.1-3.05,9.07-4.61a14.85,14.85,0,0,0,2-1.43A6.73,6.73,0,0,1,45.74,171.31Z"
      fill="none" />
    <polygon points="118.92 102.34 118.91 102.5 119.12 102.43 118.92 102.34" fill="none" />
    <path d="M90.17,13.59l.11-.07v0h0Z" />
    <path
      d="M30.37,181.13c1.08,0,1.66-.69,1.87-1.73s.46-2.37.7-3.57c.19.11.38.15.44.26a23.61,23.61,0,0,0,6.85,7.77,46,46,0,0,1,9.59,9.71,69.75,69.75,0,0,0,9.1,9.55,42.34,42.34,0,0,0,17.3,9.54A47.45,47.45,0,0,1,87.68,217c.8.46,1.7.74,2.54,1.13,1.24.57,2.68.74,3.65,1.89a1.5,1.5,0,0,0,1.29.33c1.13-.26,1.93.34,2.82.8,1.85.95,3.71,1.9,5.6,2.77a5.42,5.42,0,0,0,5.12-.27c1.28-.7,2.62-1.28,3.83-1.86a16.55,16.55,0,0,1,1.41-2c4.39-4.68,9.11-9.09,13.16-14.05,5.9-7.23,10.3-15.27,10.38-25a43.63,43.63,0,0,0-.28-4.84c-.07-.65-.38-1.3-1.24-1.28a2.11,2.11,0,0,0-.16.55,32.71,32.71,0,0,1-1.16,12.62A43.89,43.89,0,0,1,125.58,204c-4.35,4.92-9,9.55-13.53,14.35-1.64,1.75-3.75,2.29-6,2.65-.17,0-.37-.16-.44-.18s-.6-.08-.61-.1a.88.88,0,0,0-1.62-.18l.57,0c-1.42-.73-2.77-1.44-4.14-2.11-1.65-.82-3.26-2-5-2.3a21,21,0,0,1-5.88-2,49.51,49.51,0,0,0-7.78-3c-1.69-.45-3.38-.9-5.06-1.39-1.18-.34-2.34-.79-3.5-1.21a33.94,33.94,0,0,1-9.08-5,64.42,64.42,0,0,1-11.08-10.5c-3.16-3.89-6.37-7.79-10.7-10.53a14.23,14.23,0,0,1-4-3.9c1-.57,1.73-1.08,2.54-1.52,2.11-1.12,4.29-2.12,6.35-3.33a43.56,43.56,0,0,0,9.31-8c2.88-3.07,4.24-6.95,5.5-10.85l0-.16c1-6.92,1-13.77-1.55-20.43a13.18,13.18,0,0,1-.39-2c2.12.74,3.92,1.42,5.75,2,1.55.48,2.49-.07,2.63-1.61.26-2.8.25-5.58-1.56-8a7.35,7.35,0,0,1-.55-1,4.05,4.05,0,0,1,.31-.93c.84-1.23.48-2.28-.3-3.4-1-1.46-1.88-3-2.86-4.5-1.59-2.39-1.57-3.49.12-5.82.43-.58,1.13-1.1.69-2.23l-2.22,1.71-.91-5.36a13.88,13.88,0,0,0-2.66-.57,17.38,17.38,0,0,1-6.33-1.22,2.21,2.21,0,0,0-1.54,0c-1.77.77-3.52,1.59-5.22,2.51-1.12.61-1.28,1.32-.83,2.54.11.29.26.56.39.84,1,2.14,2.46,4.12,2.53,6.64a3,3,0,0,0,.54,1.26,14.48,14.48,0,0,0,4.82,5.21,3.64,3.64,0,0,1,1.06,1.18c.09.14.3.14.5.2l.67-1.07,6.34.92c-2.24-2.56-5.17-1.89-7.84-2.56-.44-2.15-.89-4.31-1.37-6.64l7.94-5.3c.5,1.74.67,3.3-.48,4.79,1.52,3.29,4,5.92,5.46,8.94-.15,1.29-.6,2.5-.33,3.52a10.62,10.62,0,0,0,1.8,2.92c-.31,1.47-.58,2.77-.87,4.14a43.26,43.26,0,0,0-4.61-1.38,9.21,9.21,0,0,1-5.95-4A46.52,46.52,0,0,0,46,116.13,6.55,6.55,0,0,1,44,113.29a40.15,40.15,0,0,1-2.13-11.59,3.51,3.51,0,0,1,2.45-3.59,10.18,10.18,0,0,1,7.87-.06c.85.37,1.66.84,2.52,1.17a5.53,5.53,0,0,0,1.52,0L55,97.58l-.48-.48h0a13.34,13.34,0,0,0-11-.75c-.41.14-.83.22-1.16.31-1.4-5.45-2.79-10.75-4.1-16.06-.67-2.69-1.12-5.44-1.81-8.12a40.36,40.36,0,0,1-1.36-9.6,51.9,51.9,0,0,1,1-9.89A26.26,26.26,0,0,1,44,37.81c.72-.67,1.41-1.36,2.1-2.07a66.86,66.86,0,0,1,15.26-12c1.79-1,3.52-2.15,5.65-2.3l0-.05.06-.18,0,.22H67l-1.83,2.6a18.43,18.43,0,0,0-3,13.91c.41,2.74,1.19,5.43,1.68,8.17.41,2.27.6,4.58,1,6.87,1.13,7.16,3.79,13.9,5.86,21.18A4.54,4.54,0,0,0,71,72.91a22.53,22.53,0,0,0-.53-2.72c-1.19-4.32-2.58-8.58-3.56-12.94-.93-4.14-1.42-8.37-2.16-12.55-.34-1.9-.87-3.76-1.21-5.66-1.08-6,0-11.54,4.35-16.12a12.86,12.86,0,0,1,7-4.19c1.73-.32,3.42-.92,5.12-1.39a12.45,12.45,0,0,1,2.32-.56,25.25,25.25,0,0,0,5.25-.87,48.34,48.34,0,0,1,12.91-1.74c3.39-.06,6.78-.41,10.17-.51a47.88,47.88,0,0,1,11.08.75,41.72,41.72,0,0,1,10,3.56,15.83,15.83,0,0,1,6.3,5.91c.21.33.39.67.59,1,1.35,2.25,2.67,4.52,4.06,6.75a11.26,11.26,0,0,1,1.84,5.18,13,13,0,0,0,.85,3.68A46.77,46.77,0,0,1,148.51,53c.5,4.88,1.32,9.73,2,14.64-1,.27-1.82.55-2.65.69-3,.51-6,.87-8.89,1.46-6.56,1.32-13.11,2.74-19.66,4.14a2.69,2.69,0,0,0-2,1.19c.26.07.42.16.55.13,3.83-.83,7.66-1.74,11.51-2.5,4.08-.81,39.31-6.86,44.37-7.88,2.94-.59,5.81-1.53,8.68-2.41a11.62,11.62,0,0,1,5.67-.43c-.39,1.57-1.34,2.68-2.21,2.65l-.66-1a61.93,61.93,0,0,1-10.89,1.91,89.77,89.77,0,0,0-9.79,1.68q-10.56,2.58-21,5.51a144.45,144.45,0,0,1-19.37,4.43,141.79,141.79,0,0,0-16.58,3.19C102,81.79,96.53,83.4,91,84.8a153.42,153.42,0,0,0-18,6c-2.17.84-4.28,2.13-7.26,1.11.53.66.65.93.86,1.06a3.93,3.93,0,0,0,3.14.34c1.19-.33,2.36-.74,3.51-1.17a167.29,167.29,0,0,1,17.18-5.48c1.72-.43,3.48-.67,5.2-1.11,3.58-.93,7.13-2,10.72-2.9,6.32-1.63,12.68-3.1,19.15-4.1,3.42-.53,6.82-1.17,10.17-2,6.09-1.54,12.13-3.28,18.17-5a146.54,146.54,0,0,1,26.33-5c1.28-.12,2.56-.3,3.85-.45l.06,0,0-.08-.06.11h0c-3.2,1.81-6.18,4-9.57,5.49-5.36,2.38-10.72,4.75-16.29,6.59a5.94,5.94,0,0,0-1.68.76c-.63.46-.59,1,.17,1.43a5,5,0,0,0,.67-.15c5.69-2.17,11.35-4.41,16.89-7,4.22-2,8.16-4.37,12.15-6.71a12,12,0,0,0,2.82-2.35,2.6,2.6,0,0,0,.24-3.59,14.73,14.73,0,0,0-8.94.67,50.81,50.81,0,0,1-5.26,1.5c-5.91,1.39-11.79,3-17.85,3.65-1.35.16-2.66.9-4.15.31-.81-1.54-.47-3.34-.94-5a44.71,44.71,0,0,1-1.4-8.47,43.71,43.71,0,0,0-3.08-12.6A18,18,0,0,1,146.65,36a11.45,11.45,0,0,0-1.55-4.73c-1.81-3-3.56-6-5.45-8.87-1.66-2.55-3.53-4.93-6.55-6a6.89,6.89,0,0,1-1.16-.56c-3.7-2.41-8-3.24-12.17-3.65a48.16,48.16,0,0,0-13.4.23,11.15,11.15,0,0,1-4.53,0,8.09,8.09,0,0,0-3.16-.21c-2.8.41-5.61.84-8.41,1.27v0l-.11.07.08-.1h0A9.5,9.5,0,0,0,89.83,12a3.48,3.48,0,0,0-2.24-2.2c-2.52-.59-5-.85-7.39.65s-2.84,2.15-2.25,5.1c0,.11-.13.26-.26.5-.21,0-.5.13-.79.18a37.6,37.6,0,0,0-6.13,1.08A64.73,64.73,0,0,0,54.54,25.6C50.47,28.47,47,32,43.35,35.32a30.66,30.66,0,0,0-8.69,14.53,40.31,40.31,0,0,0-1.51,16.06A104,104,0,0,0,35.87,78.8c1.48,5.92,3.13,11.79,4.74,17.68a3.81,3.81,0,0,1-.1,2.89,6.59,6.59,0,0,0-.53,2.69,37.46,37.46,0,0,0,1.56,10.51A11.3,11.3,0,0,0,45,118.3,47.31,47.31,0,0,1,53.25,128a10.28,10.28,0,0,0,3.87,3.66,47.15,47.15,0,0,1,2.43,17.46,24.8,24.8,0,0,1-2.66,10.69,18.53,18.53,0,0,0-1.59,3.34,10.69,10.69,0,0,1-3.6,5c-1.32,1.15-2.76,2.17-4.16,3.23l0,0h-.08a14.85,14.85,0,0,1-2,1.43c-3,1.56-6,3.05-9.07,4.61a7.82,7.82,0,0,1-2.25-4.83,3.2,3.2,0,0,1,.9-.21,17.81,17.81,0,0,0,6.56-.93,6.65,6.65,0,0,1,4.07-.18,6.73,6.73,0,0,0,1.75.11l0,0a3.4,3.4,0,0,0-2.43-1.47,7.85,7.85,0,0,0-3.89.19,19.64,19.64,0,0,1-7.1.75c-.82,0-1.63-.15-2.59-.25-.43,2.73-.85,5.36-1.28,8.06a14.11,14.11,0,0,0-6.15,1.74l-1.76.84c.5.64,1,1.26,1.52,1.89C26,182.19,28,181.1,30.37,181.13Zm28.86-74.9c-2.61,1.63-5.23,3.24-7.84,4.88a2.21,2.21,0,0,0-.92,2.44,38.31,38.31,0,0,1,.53,3.91c-1.78-1.67-3.46-3.32-2.77-6.17a30.86,30.86,0,0,0,.64-4.6c.09-1,.24-2-.79-2.6h0l-.06,0c-.29,1.68-.59,3.36-.88,5l-.4.06L45,105.34,48,104.11v-.06l.06,0,2.51-1.38a20,20,0,0,0,8.52,1.89c.16.42.31.82.45,1.17C59.4,106,59.34,106.16,59.23,106.23ZM86.71,11.79a2.49,2.49,0,0,1,1,2.25,16,16,0,0,1-5.73,1.35c-1.07.1-1.71-.5-2.35-1.59C81.5,11.12,84.12,11.51,86.71,11.79Z" />
    <path d="M67.1,21.23l-.06.18,0,.05h.07Z" />
    <path d="M150.59,138.78v.06h0Z" />
    <path d="M48,104.11l.06,0h0l-.06,0Z" />
    <path d="M47.49,171.42h.08l0,0Z" />
    <path d="M123.25,174.19l0,0h-.07Z" />
    <path d="M184.13,65.93l0,.08-.06,0h0Z" />
    <path
      d="M182.79,179.69a29.44,29.44,0,0,1-8-2.94c-2.48-1.43-5-2.79-7.45-4.24a21.32,21.32,0,0,0-6.89-2.6,16.39,16.39,0,0,1-5.83-2.15,11.39,11.39,0,0,0-3.48-1.07c-1.55-.37-2.82.6-4.2,1l-1.38.87v.05l0,0,0,0c0-.41,0-.82.06-1.17l1.29.27c.39-1.74.47-3.5,1.56-5.1s.85-3.85.73-5.86c-.16-2.61-.23-5.23-.38-7.84a6,6,0,0,1,2.46-5.61c-.22-1.45-.45-2.93-.67-4.41h-.84c-.48,2.13-2.1,3.13-3.78,4-1.07.56-2.23.94-3.62,1.51-1.92-1.53-4.14-.9-6.31.08a11.21,11.21,0,0,1-4.71.91c-2,0-4,.18-6,.22-2.2,0-2.95,1.44-3.46,3.38,1.4-.17,1.54-1.58,2.73-2.14h3.46c3.58,0,7.08-.28,10.36-1.93,1.33-.66,1.86-.42,3.24.92-1.63.56-3.46.4-5.31,1.4,1,1,1.88,1.87,2.75,2.71,0,0,.23-.12.43-.22-.26-.59-.53-1.19-.87-1.94,2.25-.39,4.25-1.26,6.36-.87,1.1,2.61,1.1,2.61.21,4.78a6.59,6.59,0,0,1-1.27.45c-1.52.24-3,.47-4.58.6a2.56,2.56,0,0,0-1.93.83,20.17,20.17,0,0,1,0,2.75c-.13.81-.61,1.58-.17,2.38a7.37,7.37,0,0,0,5.28-.23l-3.59-1.23c.27-1.24.49-2.27.68-3.13l7-1.09c.21,2.33.42,4.68.64,7.1l-.94-1.7-.31.1.42,6.39-.18,0c-.17-.57-.35-1.14-.52-1.72h-.41c-.29,1.5-.58,3-.88,4.6l-1.11-.79a11.21,11.21,0,0,1-2,5.46c-.46-.08-.89-.3-1.18-.19a10.62,10.62,0,0,1-3.88.36c-2,0-4.06.09-5.23,1.88h-3.4c-.89-1.31-2.42-.89-3.81-1.07l-.56.72c1.31-.14,1.76.85,2.1,1.85,2-.94,3.91-.44,6-.43,1.05-1.85,2.94-1.78,4.81-1.78h5.15l2.19-2.62a20.71,20.71,0,0,0,4.11-2c2.19-1.37,4.19-1,6.31.24a28.46,28.46,0,0,0,4.63,2c1.67.59,3.5.8,5.09,1.54a82.11,82.11,0,0,1,8.16,4.39,32.93,32.93,0,0,0,9.09,3.94c3.36.88,6.68,1.91,10,2.88a78.54,78.54,0,0,1,8.1,3.1c.55-.61,1.09-1.21,1.63-1.83A103.92,103.92,0,0,0,182.79,179.69Zm-39-33.89a3.51,3.51,0,0,1,2.69-2C146.28,145.28,145.11,145.32,143.76,145.8Zm4.05-.44-.48,2.8C146.5,146.33,146.5,146.33,147.81,145.36Z" />
    <path d="M145.55,168.61v-.05l0,0Z" />
    <path d="M101.43,98.51l.08.07-.06-.09-.53-.49,0,0Z" />
    <path
      d="M55,97.58c1.57.32,3.17.57,4.71,1,2,.54,4,1.21,6,1.82,6,1.82,12,3.53,17.84,5.52a94,94,0,0,0,13,3.84,31.39,31.39,0,0,1,3.81,1.2c.36,2.25.69,4.23,1,6.2.08.51.25.89.8,1l.33-.24c-.06-.77-.57-6.92-.74-9.22-.18-2.52,1.74-4.29,2.21-6.52,1.11-.06,1.85,1.11,2.92.59.28-1.4-1.33-1.3-1.63-2.22,1.09-.3,1.8,1.2,3.15.52l-2.14-1.51c2.77-1.42,5.4-.1,8.19-.17-1.05-1.18-2.54-.73-3.49-1.53a5.81,5.81,0,0,1,4.86-.13c1.59.59,3.2,1.13,4.8,1.67.48.16,1,.28,1.89.54-1.81-2-4.08-2.21-6.28-3.3,1-.29,1.74-.51,2.45-.68a4.22,4.22,0,0,1,3.91.81,41.53,41.53,0,0,0,3.57,2.58,4,4,0,0,0,1.13.32c-1.06-1.89-3-2.64-4.5-4.17,1.94-.34,3.73-.67,5.52-1a2.44,2.44,0,0,1,1.14.1,7.87,7.87,0,0,1,4.28,3c1.9,2.9,2.76,6,1.36,9.46-.07-.29-.11-.51-.17-.72-.4-1.5-1-2-2.07-2.1a2.7,2.7,0,0,0-2.62,1.91,4.46,4.46,0,0,0,.2,3.38c.51,1.12,1.51,1.18,2.51,1.24l.87,1.43a35.8,35.8,0,0,1-1.21,4.5c-.61,1.48-1.63,2.8-2.33,4.26s-2.3,1.85-2.93,3.64a7.4,7.4,0,0,0,3-2.23c3.49-4.09,5.12-9.09,6.85-14a23.68,23.68,0,0,0,.75-3.15,8.63,8.63,0,0,0-.79-5.85,11,11,0,0,0-4.7-5.3c2.57-.85,12.66-2,14.72-1.65-.87.75-1.64,1.36-2.36,2a7.42,7.42,0,0,0-2.59,5.27,32.59,32.59,0,0,0,1.6,11.88c.66,1.89,1.24,3.82,2,5.68a34.24,34.24,0,0,0,2.21,4.56,14.19,14.19,0,0,1,2.19,6.27,3.29,3.29,0,0,1-1.5,3.13,10.71,10.71,0,0,1-4.54,1.6,6.53,6.53,0,0,0-2.86.9c1.32.47,4.62.06,6.59-.7a7.79,7.79,0,0,0,4.12-4.33,31.32,31.32,0,0,0-1.26-4.54,47.3,47.3,0,0,0-2.56-4.39,18.09,18.09,0,0,1-1.12-2.55c-.59-1.59-1.17-3.19-1.66-4.82a17.47,17.47,0,0,1-1.18-5.81c1.77,4.47,2.32,8.93,5.55,12,.26,1.09-.79,2.43.9,3.13l1.25-2c.7.19,1.44.33,2.14.59a3.37,3.37,0,0,0,3.91-.77l-1.55-.42c1.25-3.55,2.55-7,3.68-10.55s2.07-7.08,3.13-10.74L166,99.09c-.79,2.84-1.43,5.62-2.35,8.3s-2.09,5.19-3.16,7.8c.13,0,.22.06.26,0a5,5,0,0,0,.69-.6,15.57,15.57,0,0,0,3.52-6.45c.75-2.76,1.45-5.53,2.18-8.34,2.24-1.12,2.29-1.44.34-3.44.37-2.85-1.56-5.09-2.48-7.8-2.46-1-5.09.79-7.65-.12a4.58,4.58,0,0,1-.1-1,4.77,4.77,0,0,0-1-3.62,14.24,14.24,0,0,1-2.59-6.63,4.42,4.42,0,0,0-.35-1c-.33.28-.71.44-.74.65a6,6,0,0,0-.16,2.47c.63,2.13,1.47,4.2,2.23,6.31-1.31,1-2.72,2.24-4.2,3.34a4.88,4.88,0,0,1-2,1c-1.75.28-3.54.35-5.3.56-3.07.36-6.14.7-9.19,1.16-4.34.65-8.69,1.31-13,2.15-4.08.79-8.17,1.65-12.16,2.83a16,16,0,0,1-5.41.82c-.78,0-1.7-.38-2.33.48l.53.49.06.09-.08-.07L100.9,98l0,0-1.77-.34c-.15.85-.25,1.44-.37,2.14-.44,0-.9,0-1.35,0s-.88.13-1.31.2v.26l3.57.88c-7,.31-7,.31-8.33,1.7,3.56-.27,7-1.19,10.44.16-.5,2.2-1,4.35-1.49,6.5l-8.44-2a26.93,26.93,0,0,1-3.12-.81C80.47,103.6,72,100.94,63.5,98.6c-2.14-.59-4.27-1.25-6.42-1.83-.88-.24-1.81-.52-2.57.33Zm109.33-6.47a8,8,0,0,1,2,5.26l-2.46-1.31C164,93.81,164.11,92.7,164.32,91.11Zm-14.39,25.74a18.06,18.06,0,0,1-3-5.49c-.71-1.86-1.28-3.78-2-5.65a8.09,8.09,0,0,0-1.24-1.59c0-2.63-.88-5.87,2-8.65a9.73,9.73,0,0,1-.36,4.83c1.47-.67,2.15-2.48,4-1.75.93,1.81-1.41,2.59-1.61,4.37l1.86-1c-.1.8-.18,1.44-.26,2.12C151.27,106.05,151.65,113.09,149.93,116.85Zm12.55-26.61c.25,2,.25,2-.45,3.51-1.84-.77-3.82-1.25-5.57-2.94Zm-4.55,4.41c1.2.69,2.45,1.28,3.86,2a174.77,174.77,0,0,1-6.62,22.76l-3.38-1.19c.11-1.35.27-2.71.33-4.08.09-1.92.17-3.85.15-5.78a5.23,5.23,0,0,0-.49-2.47c-1.29-2.23-.82-4.64-1.13-7.16l3.59-.25-.39-.94,1.38-1.12c-1.23-.71-2.23,0-3.47.08,0-.66-.06-1.3-.09-1.94l2.77-2.13C155.62,93.18,156.74,94,157.93,94.65ZM155.56,87V89l-4.12.54C152.57,88.12,153.49,86.77,155.56,87Zm-6.34,4.71a24.38,24.38,0,0,1,3.23-.3l.14.46-2.14,1.52v3.48l-3.33.23A7.46,7.46,0,0,1,149.22,91.75Zm-46.16,7.33a2.73,2.73,0,0,1,.35.47l-.41.23-.3-.53C102.83,99.19,103,99.05,103.06,99.08Zm-3.24.46.29-.47,1.53,1.06C100.67,100.3,100.18,100.07,99.82,99.54Zm1.66,2.22a5.89,5.89,0,0,1-.58-.24l0-.18,1.27.15,0,.4A4.67,4.67,0,0,1,101.48,101.76Z" />
    <path d="M54.51,97.1l0,0Z" />
    <path d="M55,97.58l-.28-.28Z" />
    <path d="M54.48,97.07l0,0h0Z" />
    <path d="M117.1,105.06Z" />
    <path
      d="M114.45,103.94c-.34,1.81-2,1.61-2.28,2.72l2.94,2.47c1.37-1.35,3.79-.43,4.8-2.61-.19-.22-.42-.46-.69-.75.15-.48.31-1,.47-1.51,2.57,2,3,2.15,5,2.28-.15-.32-.22-.7-.41-.78a8,8,0,0,1-3.71-3.29,6.45,6.45,0,0,0-1.32-1.18c-1.06.39-2,.77-2.93,1.07a10.2,10.2,0,0,0-4.22,2.3,7.59,7.59,0,0,1-1.77,1.09,16,16,0,0,1-5.29,1.49c-.62.09-1.25.08-1.56.89,2,.48,3.77-.55,5.57-1S112.55,105.45,114.45,103.94Zm4.47-1.59.2.08-.21.07Zm-1.18.61c-.48.81-1.3,1.06-2.49,1.51C115.83,102.9,117,103.34,117.74,103Zm-.64,2.1h0l.07-.06.1-.09-.06.13Zm-2,1.09c.8.06,1.59.18,2.57.3-.09.21-.12.55-.26.6-1.16.48-2.18,0-3.77-.63A8.76,8.76,0,0,1,115.14,106.15Z" />
    <path d="M117.06,105.07Z" />
    <path d="M117.27,104.91l-.1.09-.07.06.11,0Z" />
    <path
      d="M115.85,170.41l-1.8.31c0-2.09-1.35-3-3-3.72-.43-.18-9.45-3.27-13.51-4.7-.93-.33-1.75-1-2.66-1.35-3.27-1.42-6.09-4.09-9.95-3.56l-.86-1.69-.27.05v2.1a24.13,24.13,0,0,0,3.12.59,5.79,5.79,0,0,1,2.8.9A63.41,63.41,0,0,0,96,162.79c2.94,1.34,6,2.49,9,3.64,2.5.95,5,1.78,7.47,2.63.26.91.44,1.57.63,2.26l1.56.33c.15.55.29,1,.5,1.79l1.07-.72h0Z" />
    <path
      d="M131.67,132.77c1.66,0,3.53.74,4.72-1.39,2.1.64,4.26-1.16,6.43.39.12-.34.24-.68.45-1.3-2-.7-3.9-.18-5.77-.27s-3.41,1.29-5.23,1.87c-1.27-4-.73-7.3,1.95-10.24,2.57,1.67,2.57,1.67,4.36,1.51-1.32-.77-2.48-1.49-3.68-2.13a1.49,1.49,0,0,0-1.87.43c-2.47,2.48-3.28,7.51-1.73,10.78C131.36,132.54,131.52,132.63,131.67,132.77Z" />
    <path d="M121.26,143l-1.93-.15c-.88,2.51-1.76,5-2.76,7.82,1.73-1,1.88-2.63,2.71-3.77l.72,1,1.39-3.91,0,0Z" />
    <path d="M150.62,138.82l0,0,0,.06Z" />
    <path
      d="M151.7,138.16c0-.45-.29-1-.09-1.34,1-1.51,0-2.6-.68-3.76-.09-.16-.38-.21-.81-.42l-.87.82c.21,1.18.34,1.93.47,2.67h0l.92,2.7,1.08,1.39C151.7,139.16,151.72,138.66,151.7,138.16Z" />
    <path
      d="M114.78,127.39l0-.43-8.94-2.82a3.59,3.59,0,0,0,2.9,2.15,17.85,17.85,0,0,1,5.07,1.3C114.1,127.68,114.47,127.47,114.78,127.39Z" />
    <path d="M132.5,153c-.16-.19-.24-.34-.36-.4a.55.55,0,0,0-.43,0,6.15,6.15,0,0,0-2.73,4.31c0,.32.33.68.55,1.09Z" />
    <path d="M70.82,142.47c0,.25.52.43.81.64-.37-5.14-.7-6.71-1.81-7.93C70.17,137.79,70.45,140.13,70.82,142.47Z" />
    <path d="M71.63,143.11v.08l0-.05Z" />
    <path d="M123.21,174.2h0l0,0Z" />
    <path
      d="M117.79,171.68l-1.53,1.06,4.24,1.18,1.2,1.68c.83-.21,1.47-.48,1.51-1.4l-1.17.24C121.46,172.22,119,173.13,117.79,171.68Z" />
    <path d="M116.23,172.76l0,0h0Z" />
    <path d="M116.19,172.72l0,0v0Z" />
    <path d="M79,152.68l-4.33-1.5c0-.7,0-1.16-.09-1.62s-.15-.73-.3-1.46c-.7,2.06-.7,2.06-.16,3.85l4.67,1.27Z" />
    <path d="M123.32,164.3c-.15-.21-.59-.22-1-.36a11,11,0,0,0,2.47,5.12A7.14,7.14,0,0,0,123.32,164.3Z" />
    <path d="M105.21,123.23a13.85,13.85,0,0,0-2.74-5.36l-.33.24A7.54,7.54,0,0,0,105.21,123.23Z" />
    <path
      d="M114.78,162.83c-.09.34.14.77.22,1.16l.62,0c.13-1.72,2-2.46,2.37-4.3C116.29,160.63,115.06,161.79,114.78,162.83Z" />
    <path d="M126.7,105.14c-1.12-1.38-1.4-3.12-3-4.66C123.91,103.22,125,104.81,126.7,105.14Z" />
    <path d="M146.39,139.54l.05-.66,0-.13,0,.12h1.72l-3.08-2.64C145,138.85,145,138.85,146.39,139.54Z" />
    <path d="M115.94,158.6c-1,.76-2.52,1.15-2.42,3.16l3.91-2.91A.91.91,0,0,0,115.94,158.6Z" />
    <path d="M80.78,153.15A4.58,4.58,0,0,0,78.41,155c1.64,1,2.43,1.13,3.89.49l-2.24-.58Z" />
    <path d="M139.15,159.36a5.72,5.72,0,0,0,1.9,4C141,161.88,140.79,160.44,139.15,159.36Z" />
    <path d="M71.64,143.19l0-.05Z" />
    <path d="M72.59,145.87c-.16-1.34.55-2.74-.15-4.28l-.77,1.55c0,.89-.08,1.79-.15,2.68,0,.52,0,.91.63,1l.47-.92Z" />
    <path d="M119.64,162.25c-1.6,1.87-1.44,2.8.31,3.27-.11-.54-.25-1-.3-1.51S119.64,162.84,119.64,162.25Z" />
    <path d="M121.35,144l0,0c.12.73-.36,1.66.8,2.27.17-1.31.86-2.37.5-4Z" />
    <path d="M114.79,111.12c1.59-.47,3-.66,4.26-2C116.73,109.48,115.35,110.09,114.79,111.12Z" />
    <path d="M133.25,156.52c.2-.74.41-1.51.7-2.61a1.48,1.48,0,0,0-1.6,1.55C132.28,156,132.29,156.56,133.25,156.52Z" />
    <path d="M72.15,146.78s-.39,1.37-.58,2.06a4.77,4.77,0,0,0,2-3.45l-1,.47Z" />
    <path d="M72.64,145.82l0,.05h0Z" />
    <path d="M72.14,146.8v0Z" />
    <path d="M129.2,143.29a4.93,4.93,0,0,0-1.29-2.75C127.75,142.66,127.75,142.66,129.2,143.29Z" />
    <path d="M124.53,144.75c.12-1.11.23-2,.36-3.12C123.36,143,123.31,143.35,124.53,144.75Z" />
    <path d="M136.71,155.22l-.76-1.95c-.89.81-1.24,1.43-.44,2.1C135.71,155.53,136.25,155.29,136.71,155.22Z" />
    <path d="M137.78,141.18c-.32-1-.58-1.73-.87-2.59C135.84,140.3,136,140.74,137.78,141.18Z" />
    <path d="M144.42,140.76c-.09-.86-.16-1.54-.26-2.54C143.18,139.87,143.18,139.87,144.42,140.76Z" />
    <path d="M134.53,142.11c.44-1.6.44-1.6,0-2.76C134,140.54,134,140.54,134.53,142.11Z" />
    <path d="M126.66,143.82c.21-.85.68-1.77-.28-2.73C125.82,142.19,125.77,143,126.66,143.82Z" />
    <path d="M131.61,141.67h0l0,.05Z" />
    <path d="M131.61,139.5v2.17l1.44.39C132.64,141,132.64,140.17,131.61,139.5Z" />
    <path d="M131.46,142.28l.11-.62-1.34-1.42C130,141.88,130,141.88,131.46,142.28Z" />
    <path d="M131.57,141.66l0,.05Z" />
    <path d="M142.59,139.65c.09-1.17-.46-1.77-1.72-2.19A3,3,0,0,0,142.59,139.65Z" />
    <path d="M125.2,125.65a3.32,3.32,0,0,0-2.86,1.13A3.05,3.05,0,0,0,125.2,125.65Z" />
    <path d="M141.23,160.12c1.05.4,1.66,1.09,2.73,1C142.83,159.76,142.83,159.76,141.23,160.12Z" />
    <path d="M117.89,128h1.85c-.43-.88-1-.74-1.58-.54C118.07,127.48,118,127.68,117.89,128Z" />
    <path d="M118.4,175c.82.09,1.5.45,2.19-.49C119.7,174.18,119,173.83,118.4,175Z" />
    <path d="M140,140.19l-1.07-2C138.48,139.93,138.48,139.93,140,140.19Z" />
    <path d="M125.69,95.3a3.34,3.34,0,0,0,2.52,1.57A3.86,3.86,0,0,0,125.69,95.3Z" />
    <path d="M147.26,135.4a19.09,19.09,0,0,0,1.83,1.11c.1.05.37-.25.58-.41C149,135.73,148.56,134.92,147.26,135.4Z" />
    <path d="M149.67,136.1l0,0v0Z" />
    <path d="M149.69,136.08v0h0Z" />
    <path d="M142.39,141.18l.32-.17s-.05-.15-.08-.15a2.07,2.07,0,0,0-.35,0Z" />
  </g>
</svg>