<?xml version="1.0" encoding="utf-8"?>
<!DOCTYPE svg PUBLIC "-//W3C//DTD SVG 1.0//EN" "http://www.w3.org/TR/2001/REC-SVG-20010904/DTD/svg10.dtd">
<svg version="1.0" id="svg2" xmlns:svg="http://www.w3.org/2000/svg"
	 xmlns="http://www.w3.org/2000/svg" xmlns:xlink="http://www.w3.org/1999/xlink" x="0px" y="0px" width="704.867px"
	 height="631.518px" viewBox="0 0 704.867 631.518" enable-background="new 0 0 704.867 631.518" xml:space="preserve">
<path id="path25" fill="none" stroke="#CCCCCC" d="M249.923,514.818V23.638"/>
<path id="path35" fill="#CCCCCC" d="M109.585,22.235h561.349v2.807H109.585V22.235z"/>
<path id="path45" fill="#CCCCCC" d="M109.585,92.403h561.349v2.807H109.585V92.403z"/>
<path id="path55" fill="#CCCCCC" d="M109.585,373.078h561.349v2.807H109.585V373.078z"/>
<path id="path65" fill="#CCCCCC" d="M109.585,162.572h561.349v2.807H109.585V162.572z"/>
<path id="path75" fill="#CCCCCC" d="M109.585,232.741h561.349v2.807H109.585V232.741z"/>
<path id="path85" fill="#CCCCCC" d="M109.585,302.91h561.349v2.807H109.585V302.91z"/>
<path id="path95" fill="#CCCCCC" d="M109.585,443.247h561.349v2.807H109.585V443.247z"/>
<path id="path105" fill="none" stroke="#CCCCCC" d="M670.935,514.818V23.638"/>
<path id="path233" fill="none" stroke="#CCCCCC" d="M151.687,514.818V23.638"/>
<path id="path243" fill="none" stroke="#CCCCCC" d="M176.246,23.638v491.18"/>
<path id="path253" fill="none" stroke="#CCCCCC" d="M193.788,514.818V23.638"/>
<path id="path263" fill="none" stroke="#CCCCCC" d="M207.822,514.818V23.638"/>
<path id="path273" fill="none" stroke="#CCCCCC" d="M219.049,514.818V23.638"/>
<path id="path283" fill="none" stroke="#CCCCCC" d="M228.171,514.818V23.638"/>
<path id="path293" fill="none" stroke="#CCCCCC" d="M235.889,514.818V23.638"/>
<path id="path303" fill="none" stroke="#000000" d="M243.608,514.818V23.638"/>
<path id="path313" fill="none" stroke="#CCCCCC" d="M243.608,514.818V23.638"/>
<path id="path323" fill="none" stroke="#CCCCCC" d="M249.923,514.818V23.638"/>
<path id="path333" fill="none" stroke="#CCCCCC" d="M151.687,514.818V23.638"/>
<path id="path343" fill="none" stroke="#CCCCCC" d="M176.246,23.638v491.18"/>
<path id="path353" fill="none" stroke="#CCCCCC" d="M193.788,514.818V23.638"/>
<path id="path363" fill="none" stroke="#CCCCCC" d="M207.822,514.818V23.638"/>
<path id="path373" fill="none" stroke="#CCCCCC" d="M219.049,514.818V23.638"/>
<path id="path383" fill="none" stroke="#CCCCCC" d="M228.171,514.818V23.638"/>
<path id="path393" fill="none" stroke="#CCCCCC" d="M235.889,514.818V23.638"/>
<path id="path403" fill="none" stroke="#CCCCCC" d="M243.608,514.818V23.638"/>
<path id="path413" fill="none" stroke="#CCCCCC" d="M249.923,514.818V23.638"/>
<path id="path423" fill="none" stroke="#CCCCCC" d="M151.687,514.818V23.638"/>
<path id="path433" fill="none" stroke="#CCCCCC" d="M176.246,23.638v491.18"/>
<path id="path443" fill="none" stroke="#CCCCCC" d="M193.788,514.818V23.638"/>
<path id="path453" fill="none" stroke="#CCCCCC" d="M207.822,514.818V23.638"/>
<path id="path463" fill="none" stroke="#CCCCCC" d="M219.049,514.818V23.638"/>
<path id="path473" fill="none" stroke="#CCCCCC" d="M228.171,514.818V23.638"/>
<path id="path483" fill="none" stroke="#CCCCCC" d="M235.889,514.818V23.638"/>
<path id="path493" fill="none" stroke="#CCCCCC" d="M243.608,514.818V23.638"/>
<path id="path503" fill="#CCCCCC" d="M388.856,514.818V23.638h2.808v491.18H388.856z"/>
<path id="path513" fill="#CCCCCC" d="M290.621,514.818V23.638h2.807v491.18H290.621z"/>
<path id="path523" fill="#CCCCCC" d="M317.986,23.638v491.18h-2.807V23.638H317.986z"/>
<path id="path533" fill="#CCCCCC" d="M332.722,514.818V23.638h2.807v491.18H332.722z"/>
<path id="path543" fill="#CCCCCC" d="M346.756,514.818V23.638h2.807v491.18H346.756z"/>
<path id="path553" fill="#CCCCCC" d="M357.982,514.818V23.638h2.807v491.18H357.982z"/>
<path id="path563" fill="#CCCCCC" d="M367.104,514.818V23.638h2.807v491.18H367.104z"/>
<path id="path573" fill="#CCCCCC" d="M374.823,514.818V23.638h2.807v491.18H374.823z"/>
<path id="path583" fill="#CCCCCC" d="M382.542,514.818V23.638h2.807v491.18H382.542z"/>
<path id="path593" fill="none" stroke="#CCCCCC" d="M249.923,514.818V23.638"/>
<path id="path603" fill="none" stroke="#CCCCCC" d="M151.687,514.818V23.638"/>
<path id="path613" fill="none" stroke="#CCCCCC" d="M176.246,23.638v491.18"/>
<path id="path623" fill="none" stroke="#CCCCCC" d="M193.788,514.818V23.638"/>
<path id="path633" fill="none" stroke="#CCCCCC" d="M207.822,514.818V23.638"/>
<path id="path643" fill="none" stroke="#CCCCCC" d="M219.049,514.818V23.638"/>
<path id="path653" fill="none" stroke="#CCCCCC" d="M228.171,514.818V23.638"/>
<path id="path663" fill="none" stroke="#CCCCCC" d="M235.889,514.818V23.638"/>
<path id="path673" fill="none" stroke="#CCCCCC" d="M243.608,514.818V23.638"/>
<path id="path683" fill="none" stroke="#CCCCCC" d="M249.923,514.818V23.638"/>
<path id="path693" fill="none" stroke="#CCCCCC" d="M151.687,514.818V23.638"/>
<path id="path703" fill="none" stroke="#CCCCCC" d="M176.246,23.638v491.18"/>
<path id="path713" fill="none" stroke="#CCCCCC" d="M193.788,514.818V23.638"/>
<path id="path723" fill="none" stroke="#CCCCCC" d="M207.822,514.818V23.638"/>
<path id="path733" fill="none" stroke="#CCCCCC" d="M219.049,514.818V23.638"/>
<path id="path743" fill="none" stroke="#CCCCCC" d="M228.171,514.818V23.638"/>
<path id="path753" fill="none" stroke="#CCCCCC" d="M235.889,514.818V23.638"/>
<path id="path763" fill="none" stroke="#CCCCCC" d="M243.608,514.818V23.638"/>
<path id="path773" fill="none" stroke="#CCCCCC" d="M249.923,514.818V23.638"/>
<path id="path783" fill="none" stroke="#CCCCCC" d="M151.687,514.818V23.638"/>
<path id="path793" fill="none" stroke="#CCCCCC" d="M176.246,23.638v491.18"/>
<path id="path803" fill="none" stroke="#CCCCCC" d="M193.788,514.818V23.638"/>
<path id="path813" fill="none" stroke="#CCCCCC" d="M207.822,514.818V23.638"/>
<path id="path823" fill="none" stroke="#CCCCCC" d="M219.049,514.818V23.638"/>
<path id="path833" fill="none" stroke="#CCCCCC" d="M228.171,514.818V23.638"/>
<path id="path843" fill="none" stroke="#CCCCCC" d="M235.889,514.818V23.638"/>
<path id="path853" fill="none" stroke="#CCCCCC" d="M243.608,514.818V23.638"/>
<path id="path863" fill="#CCCCCC" d="M529.194,514.818V23.638h2.807v491.18H529.194z"/>
<path id="path873" fill="#CCCCCC" d="M430.958,514.818V23.638h2.807v491.18H430.958z"/>
<path id="path883" fill="#CCCCCC" d="M458.324,23.638v491.18h-2.807V23.638H458.324z"/>
<path id="path893" fill="#CCCCCC" d="M473.48,514.818V23.638h2.807v491.18H473.48z"/>
<path id="path903" fill="#CCCCCC" d="M487.093,514.818V23.638h2.807v491.18H487.093z"/>
<path id="path913" fill="#CCCCCC" d="M498.32,514.818V23.638h2.807v491.18H498.32z"/>
<path id="path923" fill="#CCCCCC" d="M507.441,514.818V23.638h2.808v491.18H507.441z"/>
<path id="path933" fill="#CCCCCC" d="M515.16,514.818V23.638h2.807v491.18H515.16z"/>
<path id="path943" fill="#CCCCCC" d="M522.879,514.818V23.638h2.807v491.18H522.879z"/>
<path id="path953" fill="#CCCCCC" d="M669.531,514.818V23.638h2.807v491.18H669.531z"/>
<path id="path963" fill="#CCCCCC" d="M571.295,514.818V23.638h2.808v491.18H571.295z"/>
<path id="path973" fill="#CCCCCC" d="M598.661,23.638v491.18h-2.807V23.638H598.661z"/>
<path id="path983" fill="#CCCCCC" d="M613.396,514.818V23.638h2.807v491.18H613.396z"/>
<path id="path993" fill="#CCCCCC" d="M627.431,514.818V23.638h2.807v491.18H627.431z"/>
<path id="path1003" fill="#CCCCCC" d="M638.657,514.818V23.638h2.807v491.18H638.657z"/>
<path id="path1013" fill="#CCCCCC" d="M647.779,514.818V23.638h2.807v491.18H647.779z"/>
<path id="path1023" fill="#CCCCCC" d="M655.498,514.818V23.638h2.807v491.18H655.498z"/>
<path id="path1033" fill="#CCCCCC" d="M663.217,514.818V23.638h2.807v491.18H663.217z"/>
<path id="path1043" fill="#CCCCCC" d="M248.52,514.818V23.638h2.807v491.18H248.52z"/>
<path id="path1053" fill="#CCCCCC" d="M150.284,514.818V23.638h2.807v491.18H150.284z"/>
<path id="path1063" fill="#CCCCCC" d="M177.649,23.638v491.18h-2.807V23.638H177.649z"/>
<path id="path1073" fill="#CCCCCC" d="M192.385,514.818V23.638h2.807v491.18H192.385z"/>
<path id="path1083" fill="#CCCCCC" d="M206.418,514.818V23.638h2.807v491.18H206.418z"/>
<path id="path1093" fill="#CCCCCC" d="M217.646,514.818V23.638h2.807v491.18H217.646z"/>
<path id="path1103" fill="#CCCCCC" d="M226.767,514.818V23.638h2.807v491.18H226.767z"/>
<path id="path1113" fill="#CCCCCC" d="M234.486,514.818V23.638h2.807v491.18H234.486z"/>
<path id="path1123" fill="#CCCCCC" d="M242.205,514.818V23.638h2.807v491.18H242.205z"/>
<path id="path1133" fill="none" stroke="#CCCCCC" d="M109.585,479.734h561.349"/>
<path id="path1143" fill="none" stroke="#CCCCCC" d="M109.585,409.565h561.349"/>
<path id="path1153" fill="none" stroke="#CCCCCC" d="M109.585,339.397h561.349"/>
<path id="path1163" fill="none" stroke="#CCCCCC" d="M109.585,269.229h561.349"/>
<path id="path1173" fill="none" stroke="#CCCCCC" d="M109.585,199.06h561.349"/>
<path id="path1183" fill="none" stroke="#CCCCCC" d="M109.585,128.891h561.349"/>
<path id="path1193" fill="none" stroke="#CCCCCC" d="M109.585,58.723h561.349"/>
<path id="path1203" fill="#FF0000" d="M152.677,219.271l-1.562,0.825l-1.532,0.854l13.556,25.196l0.03-0.029l5.628,10.845
	l6.454,13.732l11.67,24.489v0.088l11.935,23.075l10.58,19.213l7.78,12.938v0.059l8.841,13.408l0.088,0.059l9.548,13.557v0.059
	l10.668,13.762l0.059,0.059l5.835,6.867v0.088l6.218,6.866h0.088l11.375,11.936l0.059,0.059l9.253,9.076l0.088,0.06l4.273,3.86
	h0.059l4.361,3.654l0.059,0.059l9.548,7.161l0.059,0.059l11.935,8.163l0.088,0.059l5.894,3.714h0.06l5.952,3.507l0.089,0.088
	l6.159,3.212h0.088l6.454,3.006l0.059,0.089l6.896,2.799h0.06l7.426,2.594h0.089l7.367,2.181h0.059l6.808,1.621l0.059,0.059
	l6.188,1.208h0.06l5.54,0.767h0.088l4.833,0.472h0.089l4.185,0.235h0.088l3.419,0.059h0.088l2.741-0.059h0.059l3.919-0.354h0.147
	l1.621-0.295h0.059l1.415-0.354h0.059l1.208-0.354l0.06-0.059l1.119-0.354h0.089l1.827-0.767l1.68-0.678v0.029l0.913-0.266v-0.029
	l0.767-0.177l1.12-0.206l0.972-0.088l1.415-0.06l1.68,0.06l1.827,0.177v0.029l1.975,0.441l1.326,0.413l1.414,0.678l-0.029,0.029
	l1.355,0.736v0.03l1.208,0.884l-0.029,0.029l1.149,1.031l-0.029,0.029l1.119,1.12l2.182,2.594l2.121,2.652l0.06,0.088l2.239,2.652
	l0.088,0.147l1.238,1.267l0.088,0.06l1.297,1.237l-0.029,0.029l4.686,4.627h0.089l3.006,2.8l0.059,0.088l1.709,1.386l0.059,0.088
	l1.827,1.385h0.06l2.033,1.355l0.088,0.06l2.151,1.208l0.147,0.059l2.328,1.062l0.147,0.059l2.505,0.914l0.147,0.059l2.74,0.707
	l0.147,0.089l2.947,0.471h0.117l3.183,0.295h0.118h3.389h0.207l1.738-0.295h0.295l1.738-0.56l0.236-0.059l1.797-0.767l0.236-0.088
	l1.798-1.032l0.146-0.146l3.714-2.741l0.147-0.147l3.801-3.565l0.06-0.147l3.801-4.272l0.06-0.089l3.801-4.773v-0.06l7.485-10.668
	v-0.059l14.027-21.777l0.029,0.029l6.071-8.87l0.029,0.029l2.799-3.595l2.328-2.446l2.358-2.063l0.029,0.029l2.298-1.68l0.118-0.06
	l0.029-0.029l2.388-1.326l2.181-1.061l0.088-0.029l0.059-0.029l2.151-0.708l2.476-0.56v-0.029l2.24-0.266l2.092-0.059l2.239,0.206
	l2.181,0.413v0.029l2.328,0.618l2.181,0.855l1.945,0.972l2.181,1.268l0.029-0.029l1.945,1.355l2.033,1.68l1.12-1.385l1.12-1.415
	l-2.093-1.621l-0.089-0.059l-2.181-1.474l-0.059-0.088l-2.239-1.268l-0.089-0.059l-2.239-1.12l-0.118-0.059l-2.328-0.854
	l-0.147-0.06l-2.299-0.648l-0.146-0.059l-2.388-0.412l-0.206-0.089l-2.387-0.206h-0.206l-2.388,0.059h-0.206l-2.476,0.354h-0.147
	l-2.505,0.561l-0.146,0.088l-2.446,0.825l-0.206,0.089l-2.476,1.119l-0.147,0.147l-2.505,1.386l-0.147,0.146l-2.445,1.739
	l-0.147,0.088l-2.476,2.093l-0.118,0.147l-2.593,2.682l-0.089,0.118l-2.8,3.595l-0.147,0.059l-6.158,8.988l-14.057,21.808
	l0.029,0.029l-7.456,10.579l-3.713,4.715l-3.565,4.097l-0.03-0.029l-3.713,3.565l0.029,0.029l-3.418,2.534l-1.798,1.002l-1.68,0.707
	l-1.414,0.472l-1.592,0.177h-3.035l-3.006-0.206l-2.74-0.472v-0.029l-2.594-0.678v-0.029l-2.534-0.914l-2.063-0.913l0.029-0.059
	l-2.181-1.209v0.03l-1.856-1.18l0.029-0.029l-1.738-1.267l-1.681-1.415l-0.029,0.029l-2.888-2.711l0.029-0.029l-4.715-4.656h-0.059
	l-1.268-1.179l-0.029-0.029l-0.029-0.029l-1.149-1.179l0.029-0.029l-2.239-2.741l-0.03,0.029l-2.092-2.682l-0.059-0.088
	l-2.181-2.594l-0.06-0.059l-1.208-1.208l-0.059-0.06l-1.209-1.119l-0.147-0.147l-1.325-0.973l-0.147-0.089l-1.474-0.913
	l-0.118-0.059l-1.621-0.767l-0.146-0.089l-1.739-0.618h-0.235l-1.886-0.413l-0.207-0.088l-2.092-0.206h-0.147l-1.68-0.06h-0.147
	l-1.474,0.06h-0.147l-1.267,0.146h-0.118l-1.149,0.207h-0.118l-1.002,0.294h-0.117l-0.914,0.266l-0.088,0.089l-1.739,0.678
	l-1.915,0.707v0.029l-0.973,0.324v0.029l-0.973,0.266l-1.414,0.354l-1.474,0.206l-3.772,0.354l-2.534,0.059l-3.447-0.059
	l-4.067-0.235l-4.833-0.472v0.059l-5.333-0.825l-6.101-1.149l-6.748-1.591l-7.309-2.181l-7.279-2.505v-0.029l-6.807-2.711v-0.03
	l-6.454-3.006v0.03l-6.1-3.271l-0.03,0.029l-5.864-3.447l-5.835-3.654l-11.935-8.222l-9.43-7.044l0.03-0.029l-4.361-3.595
	l-4.185-3.772l-9.283-9.047l-0.03,0.029l-11.287-11.876l0.03-0.029l-6.248-6.808l-5.835-6.925l-0.029,0.029l-10.491-13.585
	l-9.548-13.615l-0.029,0.029l-8.812-13.438l-0.029,0.029l-7.632-12.701l0.029-0.029l-10.609-19.213h-0.029l-11.817-23.016h-0.029
	l-11.552-24.489l-6.513-13.762l-0.088-0.059l-5.688-10.874L152.677,219.271z"/>
<path id="path1619" d="M107.832,514.818V23.638h3.508v491.18H107.832z"/>
<path id="path1629" d="M111.41,513.064h561.349v3.509H111.41V513.064z"/>
<path id="path1851" fill="#FF0000" d="M152.117,164.194l-1.562,0.825l-1.533,0.854l28.055,50.451l0.088,0.059l13.114,20.717v0.059
	l11.729,16.915v0.059l17.033,23.723l15.648,23.369h0.088l9.96,13.615h0.059l5.747,7.162l0.088,0.059l6.306,7.367v0.088l11.582,12.76
	l0.059,0.06l9.401,9.636l0.088,0.06l4.42,4.126h0.059l4.627,4.008v0.088l10.667,8.487h0.088l10.314,7.721h0.06l12.2,8.546h0.088
	l6.454,4.155l0.059,0.06l6.542,3.801l0.06,0.059l6.395,3.359l0.118,0.089l6.188,2.711h0.059l22.897,9.076h0.118l5.274,1.739
	l0.147,0.059l5.039,1.355l0.147,0.06l4.833,0.854h0.147l2.328,0.265h0.117l2.24,0.089h0.147l2.033-0.089l0.147-0.059l1.827-0.295
	h0.206l1.621-0.412l0.147-0.06l1.532-0.56l0.147-0.088l1.385-0.708h0.147l1.326-0.766l0.088-0.06l2.446-1.62h0.088l2.299-1.532
	l0.089-0.06l0.059-0.029l1.12-0.619v-0.029l1.119-0.53l1.268-0.501l1.532-0.412v-0.03l1.474-0.177l1.474-0.088l1.562,0.088
	l1.031,0.06l1.062,0.177v0.029l1.061,0.295l0.767,0.354l0.029-0.06l0.678,0.413l0.589,0.383l-0.029,0.029l0.825,0.619l9.194,8.635
	l0.089,0.088l7.16,5.806l0.118,0.147l4.715,3.153l0.06,0.059l2.593,1.562l0.089,0.06l2.74,1.414l0.118,0.059l2.888,1.209
	l0.147,0.059l2.947,1.061l0.206,0.06l3.094,0.766h0.206l3.213,0.501l0.235,0.06l3.271,0.147h0.235l3.507-0.207l0.118-0.059
	l3.595-0.648l0.207-0.059l3.653-1.12l0.147-0.088l1.798-0.767l0.089-0.059l1.738-0.914l0.235-0.147l3.359-2.239l0.147-0.147
	l3.153-2.8l0.147-0.059l3.006-3.242l0.059-0.146l2.889-3.566l0.059-0.088l2.74-3.92l0.089-0.059l5.039-8.487l0.059-0.088
	l9.254-17.534h0.029l4.303-8.016h0.029l2.122-3.565l2.18-3.154l2.24-2.799l-0.029-0.029l2.121-2.357l0.06-0.059l0.029-0.03
	l2.151-1.944l2.239-1.798l0.029,0.029l2.388-1.532l2.298-1.061l2.034-0.767l2.445-0.501v-0.029l2.151-0.178l2.063,0.148l2.388,0.412
	l2.181,0.707l2.181,0.973l1.975,1.208l2.239,1.681l2.033,1.826l1.179-1.268l1.208-1.267l-2.181-2.033l-0.146-0.06l-2.24-1.709
	l-0.147-0.117l-2.299-1.355l-0.146-0.118l-2.388-1.062l-0.206-0.059l-2.387-0.795h-0.206l-2.388-0.473h-0.206l-2.476-0.146h-0.206
	l-2.446,0.206l-0.294,0.059l-2.446,0.501l-0.147,0.089l-2.445,0.825l-0.207,0.146l-2.475,1.121l-0.118,0.146l-2.476,1.474
	l-0.147,0.118l-2.357,1.826l-0.089,0.148l-2.387,2.18l-0.059,0.06l-2.328,2.534l-0.147,0.147l-2.239,2.858l-0.06,0.088l-2.181,3.213
	l-0.059,0.088l-2.181,3.654l-0.06,0.059l-4.361,8.075l-9.194,17.504l-0.059-0.029l-5.068,8.487l-2.652,3.772l-2.829,3.507
	l0.029,0.029l-2.977,3.153l-3.006,2.593l-3.152,2.151l-1.621,0.854l-1.532,0.648v-0.029l-3.596,1.149v0.029l-3.359,0.589
	l-3.006,0.207l-3.183-0.147l-3.064-0.442v-0.029l-3.153-0.767l-2.888-1.002v0.03l-2.682-1.18v-0.029l-2.712-1.414v0.029
	l-2.387-1.414v-0.03l-4.715-3.212v0.029l-6.955-5.657l-9.253-8.753l-0.147-0.088l-0.825-0.678l-0.088-0.089l-0.825-0.56l-0.147-0.06
	l-0.914-0.501l-0.147-0.059l-0.972-0.354l-0.207-0.089l-1.061-0.265l-0.147-0.06l-1.179-0.235h-0.147l-1.326-0.118h-0.147
	l-1.473-0.088h-0.147l-1.827,0.088h-0.206l-1.681,0.266l-0.146,0.088l-1.533,0.413h-0.206l-1.414,0.56l-0.147,0.06l-1.326,0.647
	l-0.147,0.06l-1.237,0.766h-0.089l-2.445,1.621l-2.358,1.562l-0.029-0.029l-1.208,0.707l-1.385,0.708l-1.268,0.441v-0.029
	l-1.62,0.442v0.029l-1.621,0.235l-1.68,0.089l-2.181-0.089l-2.151-0.206l-4.862-0.913l-4.892-1.326v0.029l-5.157-1.68l0.029-0.029
	l-22.868-8.959v-0.029l-6.041-2.682l-6.395-3.33v-0.029l-6.454-3.771l-6.424-4.127l0.029-0.029l-12.2-8.486l-0.029,0.029
	l-10.255-7.662l0.029-0.029l-10.667-8.369l0.029-0.029l-4.568-3.949l-4.361-4.066l-9.342-9.549l-11.552-12.818l-0.029,0.029
	l-6.307-7.396l-0.029,0.029l-5.658-7.043l-9.96-13.497l-15.707-23.428l-0.059-0.059l-17.004-23.723l-0.029,0.029l-11.611-16.797
	l-0.029-0.029l-0.03-0.059l-12.996-20.54l-0.059-0.088L152.117,164.194z"/>
<path id="path2217" fill="#FF0000" d="M152.529,96.975l-1.415,1.032l-1.385,1.061l8.546,11.994h0.088l4.892,6.601l12.79,16.267
	l0.059,0.088l9.194,11.139v0.088l11.493,12.967h0.088l11.581,12.436h0.059l5.187,5.187v0.059l4.42,4.155l17.475,16.414h0.088
	l9.519,8.693l0.088,0.088l10.727,8.693l0.059,0.059l10.667,8.016v0.059l10.049,7.102h0.059l10.668,6.808l0.088,0.059l12.76,7.309
	l21.542,11.699h0.06l5.422,2.593l0.059,0.088l5.835,2.505h0.06l6.453,2.475l0.089,0.059l7.22,2.476h0.059l13.35,3.978h0.059
	l5.481,1.415h0.06l4.979,0.973h0.147l4.627,0.648h0.147l4.626,0.265h0.147l4.686-0.059h0.147l5.128-0.294h0.059l2.328-0.266
	l0.147-0.088l2.033-0.471h0.206l1.827-0.648l0.118-0.059l1.621-0.766l0.147-0.088l1.473-0.766l0.06-0.059l1.355-0.914l0.118-0.088
	l2.475-1.827l2.27-1.621l0.029,0.029l1.208-0.707l0.089-0.03l0.029-0.029l1.061-0.501l0.06-0.029l0.147-0.059l1.208-0.413
	l0.088-0.029l0.118-0.03l1.326-0.265v0.059l1.769-0.147l2.239,0.059l1.532,0.177v0.029l1.474,0.266v0.029l1.268,0.354l1.267,0.501
	l0.973,0.472l0.854,0.501l0.648,0.53l-0.029,0.029l0.854,0.708l1.326,1.385l1.326,1.562l0.088,0.059l1.474,1.621l0.059,0.059
	l0.855,0.766l0.059,0.088l0.913,0.766l0.06,0.059l3.094,2.328v0.059l3.242,2.181l0.146,0.088l3.36,2.033h0.146l1.827,0.914
	l0.06,0.059l1.975,0.766l0.059,0.088l2.033,0.678h0.059l2.122,0.648h0.147l2.239,0.471l0.06,0.088l2.387,0.354h0.147l2.534,0.206
	h0.059l2.741,0.059l0.059,0.088l2.888-0.147h0.06l3.035-0.206h0.118l1.62-0.295l0.207-0.059l1.562-0.501l0.206-0.059l1.532-0.708
	l0.147-0.059l1.621-0.914l0.118-0.088l3.241-2.299l0.147-0.147l3.212-2.888l0.089-0.147l3.212-3.359l0.088-0.147l3.301-3.772v-0.088
	l6.454-8.546l0.059-0.059l12.612-17.652l0.03,0.029l6.158-7.662l2.889-3.006l2.652-2.328l0.059-0.03l0.088-0.088l2.8-1.827
	l-0.029-0.03l2.829-1.296v-0.03l2.593-0.825l2.977-0.501l2.505-0.059l2.741,0.206l2.888,0.619l2.387,0.795l2.446,1.12l2.445,1.385
	v-0.029l2.122,1.503l1.886,1.621l0.029-0.029l1.65,1.797l0.03-0.029l1.325,1.621h-0.029l1.179,1.857l0.885,1.886l1.591-0.796
	l1.621-0.766l-0.973-1.886l-0.088-0.207l-1.238-1.974l-0.088-0.147l-1.533-1.886l-0.146-0.147l-1.827-1.886l-0.06-0.059
	l-2.033-1.768l-0.147-0.059l-2.328-1.621l-0.059-0.059l-2.446-1.415l-0.235-0.059l-2.594-1.208h-0.117l-2.741-0.914l-0.206-0.059
	l-2.888-0.648h-0.206l-2.889-0.265h-0.265l-2.947,0.059l-0.295,0.088l-3.006,0.471l-0.206,0.088l-3.035,0.914l-0.206,0.118
	l-3.006,1.414l-0.207,0.147l-2.946,1.945l-0.147,0.147l-2.947,2.593l-0.146,0.088l-3.006,3.153l-0.089,0.147l-6.159,7.573
	l-0.088,0.059l-12.701,17.77l0.059,0.029l-6.513,8.458l-3.153,3.772l-3.094,3.301l-3.006,2.741l-3.242,2.328l0.03,0.03l-1.268,0.648
	l-1.562,0.707l-1.179,0.383v-0.029l-1.563,0.295l-2.8,0.265v-0.059l-2.74,0.147l-2.593-0.147l-2.388-0.206l-2.239-0.324v-0.029
	l-2.239-0.501v0.029l-2.034-0.589v0.029l-1.827-0.619v-0.03l-1.826-0.766v-0.029l-1.71-0.766l0.03-0.059l-3.448-1.975l-0.029,0.03
	l-3.006-2.092l0.029-0.03l-3.095-2.328l-0.029,0.029l-0.736-0.648l-0.737-0.678l0.03-0.029l-1.474-1.621l-1.415-1.532l-0.059-0.088
	l-1.474-1.532l-0.059-0.147l-0.854-0.708l-0.06-0.059l-0.913-0.708l-0.147-0.059l-0.973-0.648l-0.147-0.059l-1.119-0.56
	l-0.147-0.059l-1.268-0.501l-0.147-0.059l-1.385-0.354l-0.147-0.088l-1.621-0.265l-0.147-0.089l-1.826-0.206h-0.118l-2.27-0.059
	h-0.206l-1.945,0.147h-0.206l-1.768,0.354l-0.207,0.059l-1.562,0.501l-0.206,0.059l-1.385,0.619l-0.147,0.088l-1.326,0.766
	l-0.147,0.147l-2.446,1.68l-0.088,0.059l-2.446,1.827l-1.179,0.795l-0.029-0.029l-1.474,0.854l-1.474,0.619l0.029,0.029l-1.62,0.53
	v0.029l-1.916,0.413v0.03l-2.092,0.236l-4.922,0.354v-0.059l-4.626,0.059l-4.479-0.265l-4.715-0.648v0.059l-4.774-0.973
	l-5.393-1.326l-13.261-3.978v-0.03l-7.221-2.446v0.029l-6.395-2.475v0.029l-5.688-2.475v-0.03l-5.334-2.534l-21.542-11.699
	l-12.642-7.19l0.029-0.03l-10.609-6.748l-9.99-7.043l0.029-0.03l-10.609-7.957l-10.668-8.693l-9.607-8.693l-0.029,0.029
	l-17.446-16.385l-4.361-4.096l0.03-0.029l-5.187-5.187l0.059-0.029l-11.64-12.348l-0.029,0.029l-11.434-12.937l-9.106-11.081
	l-12.76-16.267l-4.921-6.601L152.529,96.975z"/>
<path id="path2615" fill="#FF0000" d="M152.677,122.938l-1.562,0.825l-1.532,0.854l7.515,14.027h0.059l6.395,11.168v0.059
	l6.719,10.727h0.088l8.487,12.849h0.059l10.108,14.469h0.088l10.314,13.673v0.059l17.888,22.396h0.059l20.628,25.402l9.136,10.786
	h0.059l11.228,12.377l10.815,11.493h0.059l8.34,8.34l0.088,0.088l4.066,3.654l0.059,0.059l4.361,3.654l0.059,0.059l11.228,8.487
	h0.088l11.846,8.369h0.089l5.894,3.772h0.06l5.952,3.507h0.089l6.159,3.241l0.088,0.06l6.513,2.946l0.059,0.089l6.896,2.711h0.059
	l7.456,2.623h0.059l7.367,2.092l0.147,0.059l6.719,1.563l0.089,0.059l6.158,1.061h0.089l5.452,0.707h0.088l4.833,0.354h0.059
	l4.067,0.118h0.146l3.39-0.06h0.059l2.652-0.147h0.147l1.68-0.206l0.206-0.06l1.562-0.354l0.147-0.088l1.474-0.561l0.206-0.059
	l1.326-0.648l0.147-0.059l1.326-0.707l0.059-0.059l1.356-0.855h0.059l2.534-1.738l-0.029-0.029l2.446-1.68l0.029,0.029l1.208-0.707
	l1.237-0.648l1.444-0.619l1.385-0.354v-0.029l1.474-0.236l1.385-0.088l1.975,0.088l1.415,0.118l1.532,0.295v-0.029l1.179,0.383
	l1.002,0.413l0.766,0.412l0.914,0.561l0.766,0.647l8.134,8.134l0.147,0.059l4.273,3.742l0.088,0.06l2.947,2.239l0.117,0.148
	l3.654,2.327h0.089l2.033,1.12l0.118,0.059l2.269,1.061l0.06,0.06l2.387,0.973h0.147l2.593,0.854l0.147,0.059l2.8,0.796h0.059
	l3.035,0.56l0.118,0.059l3.241,0.413h0.06l3.447,0.206h0.207l1.827-0.059l0.206-0.059l1.827-0.354h0.206l1.827-0.648l0.147-0.059
	l1.827-0.855l0.206-0.059l3.713-2.328l0.206-0.118l3.654-3.095l0.147-0.146l3.654-3.713l0.059-0.059l3.654-4.215l0.147-0.147
	l7.072-9.548l0.089-0.059l12.76-19.862l5.305-8.369l0.029,0.029l2.299-3.389l1.944-2.476l0.03,0.029l1.974-2.181l-0.059-0.029
	l1.945-1.856l2.033-1.68l-0.029-0.03l2.063-1.444v-0.029l2.122-1.179l2.092-0.973l1.945-0.648l2.328-0.471l1.975-0.147l2.239,0.147
	l2.446,0.471l2.328,0.854l0.029-0.059l2.21,1.12l2.476,1.532l2.652,2.034l2.534,2.328l1.179-1.268l1.208-1.267l-2.682-2.534
	l-0.147-0.059l-2.593-2.033l-0.118-0.088l-2.682-1.68l-0.147-0.059l-2.594-1.267l-0.206-0.059l-2.534-0.854l-0.206-0.059
	l-2.446-0.501l-0.295-0.059l-2.445-0.147h-0.206l-2.446,0.206h-0.235l-2.358,0.501l-0.146,0.059l-2.328,0.707l-0.207,0.059
	l-2.239,1.061l-0.206,0.059l-2.181,1.355l-0.147,0.059l-2.181,1.532l-0.06,0.147l-2.121,1.768l-0.06,0.059l-2.033,1.975
	l-0.059,0.059l-2.033,2.181l-0.089,0.147l-2.033,2.652l-0.059,0.088l-2.328,3.36h-0.06l-5.333,8.428l-12.701,19.715l-7.161,9.518
	l0.059,0.029l-3.565,4.127l-3.654,3.653l-3.565,2.947l-3.448,2.181l-1.474,0.678l-1.62,0.501h-0.03l-0.177,0.059l-1.532,0.295
	l-1.326,0.06l-3.389-0.207l-3.095-0.412l-2.946-0.561l-2.652-0.678v-0.029l-2.534-0.825l-2.387-1.002l-0.03,0.03l-2.092-0.973
	l0.029-0.029l-1.975-1.032v-0.029l-3.565-2.298v0.029l-2.829-2.152l-4.155-3.624l0.029-0.03L425,332.226l-0.207-0.117l-0.913-0.767
	l-0.147-0.089l-0.973-0.707l-0.147-0.059l-1.119-0.561l-0.147-0.059l-1.179-0.5l-0.236-0.089l-1.326-0.413h-0.147l-1.532-0.265
	l-0.147-0.089l-1.68-0.117h-0.146l-1.887-0.089h-0.147l-1.827,0.147h-0.117l-1.709,0.266l-0.207,0.088l-1.532,0.412l-0.147,0.06
	l-1.474,0.589l-0.146,0.059l-1.326,0.708l-0.147,0.06l-1.326,0.766l-0.06,0.088l-2.534,1.68l-0.059,0.06l-2.534,1.68l0.029,0.029
	l-1.237,0.825l-1.149,0.648l-0.029-0.029l-1.268,0.56l-1.474,0.56l-1.12,0.295l-1.68,0.207l-2.593,0.146l-3.242,0.059l-4.066-0.146
	l-4.686-0.324l-5.422-0.648l-6.101-1.12v0.03l-6.601-1.563l-7.279-2.092v-0.029l-7.308-2.477v-0.029l-6.867-2.74v0.029l-6.453-2.977
	v0.029l-6.07-3.182l0.029-0.029l-5.924-3.39l0.03-0.029l-5.835-3.654l-11.876-8.251l0.03-0.029l-11.169-8.487l-0.029,0.03
	l-4.303-3.684l-0.029,0.029l-3.979-3.536l-8.281-8.281l-10.874-11.493l-11.168-12.289l-9.077-10.697l0.029-0.029l-20.658-25.373
	l0.03-0.029l-17.976-22.396l-0.03,0.03L191.9,185.795l-0.029,0.029l-10.108-14.322l0.029-0.029l-8.546-12.73l0.059-0.029
	l-6.749-10.727l-0.029,0.03l-6.336-11.051L152.677,122.938z"/>
<path id="path3057" fill="#FF0000" d="M152.471,61.259l-1.356,1.179l-1.326,1.208l27.524,30.943h0.059l23.369,24.282v0.059
	l10.668,10.461l0.059,0.059l4.361,4.066l3.418,3.094h0.088l19.567,16.355h0.059l9.902,7.573l5.187,3.654h0.088l5.393,3.507h0.088
	l10.167,6.365h0.059l9.194,5.481h0.059l4.656,2.475h0.059l4.921,2.299h0.059l5.275,2.122l0.118,0.059l5.894,2.033h0.088
	l14.439,4.126h0.147l13.556,3.183h0.06l12.348,2.239h0.059l10.668,1.385l4.656,0.648l4.332,0.884v0.03l8.781,1.827h0.147l4.538,0.56
	l0.147,0.059l2.328,0.088h0.118h2.475h0.06l2.534-0.147h0.147l2.652-0.354h0.088l2.8-0.56h0.147l2.858-0.766h0.147l2.239-0.795
	h0.147l1.886-0.825l0.147-0.088l1.68-0.825l0.147-0.059l1.474-0.854l0.147-0.059l2.445-1.827l0.06-0.088l2.151-1.709l0.029,0.029
	l0.973-0.766l0.059-0.029l0.029-0.03l0.914-0.56l1.061-0.589l0.059-0.03l0.06-0.029l1.002-0.413l1.532-0.413v-0.029l1.326-0.236
	v0.029l1.827-0.118h2.328l3.919,0.354l1.532,0.207l1.268,0.265v-0.03l1.002,0.295v0.029l0.973,0.354l0.707,0.354l0.619,0.413v-0.03
	l6.041,4.862l0.206,0.147l3.86,2.299l0.059,0.088l4.097,2.033l0.059,0.059l4.214,1.827l0.147,0.089l4.332,1.532l0.147,0.059
	l4.479,1.208l0.147,0.059l4.567,0.854h0.206l4.627,0.472h0.206h4.715h0.266l1.208-0.207l0.266-0.059l1.267-0.354l0.207-0.059
	l1.355-0.648l0.117-0.059l1.415-0.854l0.147-0.059l2.946-2.181l0.147-0.147l3.065-2.74l0.146-0.118l6.602-7.014l0.059-0.088
	l6.896-8.281l13.468-16.709l6.101-6.719l2.651-2.534l2.476-1.886l2.446-1.415l2.239-1.031l1.975-0.708l2.387-0.442l1.739-0.059
	l2.387,0.295l1.798,0.501l2.299,1.031l1.974,1.238l-0.029,0.029l2.328,1.886l2.181,2.181l2.181,2.564l-0.029,0.029l2.328,3.242
	l0.059-0.059l2.27,3.566l4.833,8.84l1.532-0.854l1.562-0.854l-4.921-8.841v-0.118l-2.388-3.743l-0.059-0.059l-2.387-3.212
	l-0.089-0.088l-2.298-2.8l-0.147-0.059l-2.328-2.387l-0.118-0.088l-2.328-1.886l-0.147-0.147l-2.298-1.474l-0.207-0.059l-2.328-1.12
	l-0.294-0.088l-2.299-0.619l-0.206-0.059l-2.388-0.295h-0.294l-2.299,0.059l-0.295,0.088l-2.299,0.413l-0.294,0.059l-2.388,0.795
	l-0.147,0.059l-2.445,1.179l-0.147,0.088l-2.446,1.474l-0.147,0.059l-2.593,1.975l-0.147,0.147l-2.8,2.652l-0.147,0.088
	l-6.158,6.807l-0.089,0.059l-13.497,16.797l-0.029-0.03l-6.896,8.281l0.029,0.03l-6.542,6.925l0.029,0.029l-2.977,2.623l0.029,0.03
	l-2.828,2.004v0.029l-1.268,0.678l-1.208,0.56v0.029l-0.885,0.265l-1.148,0.118h-4.273l-4.479-0.383v-0.029l-4.509-0.825v-0.029
	l-4.332-1.149v-0.03l-4.302-1.473l-4.185-1.886v0.03l-3.86-2.004l-3.802-2.24l-6.041-4.921l-0.207-0.147l-0.766-0.471l-0.147-0.088
	l-0.825-0.413l-0.147-0.059l-1.061-0.354l-0.147-0.088l-1.179-0.354h-0.059l-1.415-0.265h-0.147l-1.621-0.294h-0.059l-4.155-0.324
	h-0.117h-2.24h-0.147l-2.033,0.118h-0.147l-1.768,0.295l-0.118,0.059l-1.562,0.413l-0.118,0.088l-1.355,0.56l-0.206,0.059
	l-1.179,0.648l-0.147,0.059l-1.12,0.708l-0.089,0.059l-1.031,0.854h-0.088l-2.151,1.738l-2.476,1.769v0.029l-1.326,0.737
	l0.029,0.059l-1.473,0.766l-0.03-0.059l-1.974,0.796l0.029,0.029l-2.122,0.648v0.029l-2.682,0.737v-0.059l-2.8,0.56v0.029
	l-2.534,0.265l-2.446,0.118h-2.239l-2.239-0.059l-4.361-0.53v-0.03l-8.782-1.827l-4.479-0.913h-0.147l-4.626-0.708h-0.06
	l-10.608-1.385v0.03l-12.2-2.21l-13.468-3.064v-0.03l-14.38-4.096v-0.029l-5.835-1.945v-0.03l-5.216-2.033l0.029-0.059l-4.862-2.239
	v-0.03l-4.568-2.357l0.03-0.029l-9.165-5.363l0.029-0.03l-10.196-6.277l0.03-0.029l-5.422-3.448l-5.187-3.654l-9.784-7.397
	l0.029-0.029l-19.538-16.267l0.029-0.03l-3.448-2.976l0.029-0.03l-4.361-4.067l-0.03,0.03l-10.55-10.403l-0.029-0.029l-0.059-0.059
	L179.936,92.23l0.029-0.029L152.471,61.259z"/>
<path id="path3415" fill="#FF0000" d="M152.323,29.108l-1.208,1.267l-1.179,1.268l4.126,3.919l0.088,0.088l3.654,3.625l6.572,7.102
	l6.188,6.513l0.059,0.088l3.242,3.065l0.059,0.088l3.595,3.094l9.813,8.487l0.029-0.059l10.226,9.253h0.059l10.108,8.752v0.088
	l4.774,3.919h0.059l4.509,3.448l0.059,0.059l10.167,6.866l0.088,0.088l4.686,2.947h0.088l4.479,2.593l0.059,0.059l4.42,2.328
	l0.088,0.059l4.273,2.122h0.059l8.576,3.713h0.059l9.401,3.566l0.088,0.088l10.667,3.565h0.059l5.688,1.621l0.059,0.059l5.835,1.473
	h0.059l5.982,1.267h0.059l6.041,1.061l20.48,3.212l6.101,0.796h0.088l6.66,0.619h0.06l7.308,0.413h0.06l8.222,0.147l42.937-0.56
	v-1.768v-1.738l-42.937,0.56l-8.074-0.147l-7.309-0.412l-6.602-0.619l-6.012-0.796l-20.421-3.212l-5.982-1.002l-5.894-1.238
	l-5.747-1.473l-5.599-1.591v-0.03l-10.668-3.595l-0.029,0.088l-9.253-3.565v-0.03l-8.546-3.713l-0.029,0.059l-4.185-2.092
	l-4.362-2.299l-4.479-2.623l-4.656-2.829l0.03-0.029l-10.108-6.896l-4.45-3.33l0.03-0.029l-4.774-3.919l-0.03,0.029l-9.99-8.811
	l-10.314-9.194l-9.901-8.487l-3.507-3.095l-0.029,0.03l-3.153-3.006l0.029-0.029l-6.188-6.513l-0.029,0.029l-6.483-7.073h-0.088
	l-3.713-3.772l-0.059-0.088L152.323,29.108z"/>
<path id="path3559" d="M572.846,24.069v2.034h3.507v-2.034H572.846z M572.757,29.668v3.595h3.507v-3.595H572.757z M572.698,36.829
	v3.565h3.507v-3.565H572.698z M572.64,43.99v3.566h3.507V43.99H572.64z M572.64,51.151l-0.089,3.566h3.507l0.089-3.566H572.64z
	 M572.551,58.312l-0.059,3.565h3.507l0.059-3.565H572.551z M572.492,65.473l-0.089,3.566h3.536l0.06-3.566H572.492z M572.403,72.604
	l-0.059,3.595h3.507l0.088-3.595H572.403z M572.345,79.765l-0.06,3.595h3.507l0.06-3.595H572.345z M572.285,86.926v3.595h3.507
	v-3.595H572.285z M572.197,94.087v3.565h3.507v-3.565H572.197z M572.139,101.248v3.566h3.507v-3.566H572.139z M572.079,108.409
	v3.565h3.507v-3.565H572.079z M571.991,115.57v3.565h3.507v-3.565H571.991z M571.932,122.731v3.566h3.507v-3.566H571.932z
	 M571.844,129.862v3.596h3.536v-3.596H571.844z M571.784,137.023v3.595h3.507v-3.595H571.784z M571.726,144.185l-0.088,3.595h3.507
	l0.088-3.595H571.726z M571.638,151.345v0.708l-0.118,2.799l1.738,0.059l1.769,0.088l0.118-2.888v-0.059v-0.708h-1.739H571.638z
	 M571.52,156.119l-0.295,0.059l-0.295,0.147h-0.059l-0.206,0.147l-0.295,0.206v0.059l-0.118,0.088l-0.147,0.265l-0.059,0.147
	l-0.147,0.295l-0.147,0.471v0.207l-0.206,1.061l0.796,0.147l0.029,0.413l0.943-0.147l-0.03,0.324l-0.059,1.238l-0.059,0.472
	l1.68,0.354l1.738,0.294l0.089-0.501l0.059-0.206l0.147-3.094l-1.091-0.029l-0.029-0.324l-0.088-0.266l-0.118-0.412l-0.088-0.236
	l-0.147-0.265l-0.06-0.089l-0.059-0.059l-0.206-0.266l-0.236-0.147l-0.059-0.088l-0.206-0.118l-0.295-0.088l-0.354-0.059h-0.06
	H571.52z M568.985,162.838l-0.561,3.536l3.419,0.56l0.56-3.595L568.985,162.838z M567.865,169.881l-0.324,2.034h-0.029l-0.295,1.385
	l1.68,0.354l1.709,0.413l0.324-1.326v-0.147l0.354-2.151l-1.738-0.295L567.865,169.881z M566.304,176.601l-0.561,1.768l-0.618,1.385
	l1.62,0.708l1.532,0.707l0.767-1.532l0.089-0.236l0.471-1.739l-1.62-0.501L566.304,176.601z M557.61,178.84l-1.415,1.061
	l-1.385,1.061l1.385,1.738l0.089,0.147l0.973,0.973l1.267-1.179l1.268-1.267l-0.854-0.825l-0.089-0.118l-0.029-0.029L557.61,178.84z
	 M563.71,182.082l-0.825,0.619l-0.147,0.089h-0.059l-0.295,0.059l-0.324-0.029h-0.029l-0.147-0.029l-0.147,1.002l-0.206,0.678
	l-0.472,1.738h0.147l0.206,0.089l0.472,0.059h0.295h0.501l0.266-0.059l0.501-0.089l0.206-0.059l0.501-0.147l0.206-0.147l0.413-0.206
	l0.265-0.118l0.854-0.648v-0.059l0.206-0.207l-1.325-1.12L563.71,182.082z"/>
<path id="path3703" d="M526.668,77.113l-0.501,0.147l-0.266,0.118l-1.886,0.914l-0.295,0.147l-0.707,0.56l1.002,1.474l1.031,1.415
	l0.766-0.56l1.415-0.737v0.03l0.413-0.147l-0.472-1.68L526.668,77.113z M520.066,81.445l-0.354,0.354l-0.118,0.147l-1.974,2.181
	l-0.089,0.059l-0.059,0.088l1.414,1.12l0.825,0.648l0.501,0.472l1.886-2.122l0.354-0.324l-1.179-1.356L520.066,81.445z
	 M515.293,87.132l-1.887,2.387v0.088l-0.354,0.413l1.415,1.061l1.474,0.972l0.235-0.383l0.029,0.029l1.827-2.446l-1.385-1.061
	L515.293,87.132z M511.02,92.967l-2.092,2.888l2.858,2.033l2.033-2.888L511.02,92.967z M506.894,98.802l-2.121,2.858l2.888,2.034
	l2.033-2.859L506.894,98.802z M502.739,104.607l-2.093,2.947l2.858,2.033l2.033-2.947L502.739,104.607z M498.524,110.442
	l-2.033,2.947l2.888,2.033l2.034-2.947L498.524,110.442z M494.399,116.248l-0.207,0.354l-1.974,2.269l1.326,1.179l1.267,1.12
	l2.033-2.239l0.06-0.147l0.354-0.501l-1.386-0.973L494.399,116.248z M417.544,121.022v1.768l0.089,1.739h0.618l2.388,0.294h0.088
	l0.413-1.68l0.412-1.68l-0.354-0.147h-0.206l-2.388-0.294h-0.206H417.544z M413.565,121.375l-0.147,0.088l-2.328,0.472h-0.117
	l-0.914,0.294l0.472,1.68l0.501,1.68l0.914-0.265v-0.029l2.033-0.442v0.029l0.265-0.059l-0.206-1.68l-0.266-1.768H413.565z
	 M489.831,121.523l-1.326,1.473l-0.146,0.147l-0.855,0.825l1.12,1.267l1.208,1.326l1.062-0.973l0.117-0.059l1.415-1.68l-1.268-1.12
	L489.831,121.523z M425.206,122.495l-0.619,1.621l-0.648,1.621l1.268,0.501l1.827,0.973l0.766-1.621l0.854-1.532l-2.033-1.002
	l-0.147-0.118L425.206,122.495z M406.611,123.203l-0.413,0.147h-0.088l-2.947,1.061l0.56,1.591l0.501,1.709l3.006-1.002v-0.03
	l0.354-0.118l-0.471-1.68L406.611,123.203z M399.804,125.442l-3.448,1.002l1.002,3.359l3.419-0.973L399.804,125.442z
	 M431.807,126.09l-1.002,1.474l-0.972,1.385l0.501,0.354l2.504,1.68l1.002-1.474l0.973-1.473l-2.534-1.68L431.807,126.09z
	 M484.852,126.355l-2.682,2.387l1.208,1.355l0.973,1.385l0.146-0.147l2.652-2.387l-1.179-1.326L484.852,126.355z M392.996,127.21
	l-0.206,0.059h-0.089l-3.152,0.501l0.294,1.738l0.266,1.768l3.241-0.56h0.06l0.354-0.059l-0.413-1.709L392.996,127.21z
	 M437.612,129.951l-1.68,3.094l3.153,1.739l1.709-3.094L437.612,129.951z M479.458,130.717l-0.354,0.265l-0.147,0.088l-2.445,1.473
	l0.884,1.474l0.913,1.532l2.535-1.532l0.146-0.088l0.501-0.324l-1.061-1.415L479.458,130.717z M443.801,133.163l-1.414,3.242
	l3.3,1.385l1.415-3.212L443.801,133.163z M473.477,134.077l-1.474,0.707l-1.68,0.56l0.56,1.68l0.56,1.621l1.887-0.619l0.147-0.088
	l1.473-0.707l-0.707-1.533L473.477,134.077z M450.313,135.639l-0.472,1.68l-0.501,1.68l1.886,0.56l0.147,0.059l1.621,0.295
	l0.266-1.768l0.354-1.739l-1.386-0.177v-0.03L450.313,135.639z M467.081,136.257l-2.593,0.56v0.029l-0.678,0.029l0.117,1.769
	l0.147,1.768l0.973-0.147h0.236l2.593-0.56l-0.442-1.68L467.081,136.257z M456.914,136.964l-0.206,3.507l3.566,0.147l0.235-3.507
	L456.914,136.964z"/>
<path id="path3839" d="M571.638,81.386v2.033h3.507v-2.033H571.638z M571.578,87.015v3.566h3.507v-3.566H571.578z M571.52,94.146
	v3.595h3.507v-3.595H571.52z M571.431,101.307v3.595h3.507v-3.595H571.431z M571.431,108.468l-0.059,3.595h3.507l0.059-3.595
	H571.431z M571.372,115.629l-0.089,3.566h3.507l0.089-3.566H571.372z M571.283,122.79l-0.059,3.565h3.507l0.059-3.565H571.283z
	 M571.225,129.951l-0.059,3.565h3.507l0.059-3.565H571.225z M571.166,137.112l-0.089,3.566h3.507l0.089-3.566H571.166z
	 M571.077,144.243v3.596h3.507v-3.596H571.077z M571.019,151.404V155h3.507v-3.595H571.019z M570.93,158.565v3.595h3.537v-3.595
	H570.93z M570.871,165.726v3.595h3.507v-3.595H570.871z M570.813,172.887v3.566h3.507v-3.566H570.813z M570.724,180.048v3.565h3.507
	v-3.565H570.724z M570.665,187.209v3.566h3.507v-3.566H570.665z M570.605,194.37v3.566h3.507v-3.566H570.605z M570.518,201.501
	l-0.059,3.595h3.506l0.06-3.595H570.518z M570.459,208.663v0.708l-0.147,2.799l1.768,0.088l1.739,0.059l0.146-2.859v-0.088v-0.708
	h-1.768H570.459z M570.312,213.437l-0.266,0.088l-0.295,0.118h-0.059l-0.235,0.147l-0.266,0.207v0.088l-0.147,0.059l-0.147,0.295
	l-0.059,0.118l-0.147,0.294l-0.118,0.501v0.207l-0.235,1.031l0.796,0.147l0.059,0.412l0.913-0.147l-0.059,1.562l-0.089,0.501
	l1.681,0.354l1.768,0.265l0.06-0.472l0.088-0.236l0.118-3.064l-1.091-0.059l-0.029-0.294l-0.059-0.295l-0.147-0.413l-0.06-0.207
	l-0.146-0.294l-0.06-0.059l-0.088-0.088l-0.207-0.265l-0.206-0.147l-0.059-0.059l-0.236-0.147l-0.265-0.059l-0.354-0.088h-0.06
	H570.312z M567.777,220.185l-0.561,3.507l3.448,0.56l0.56-3.566L567.777,220.185z M566.657,227.199l-0.324,2.033h-0.029
	l-0.266,1.415l1.68,0.354l1.68,0.413l0.354-1.326v-0.147l0.354-2.181l-1.768-0.294L566.657,227.199z M565.125,233.947l-0.501,1.533
	l-0.708,1.621l1.621,0.708l1.562,0.678l0.767-1.533l0.059-0.206l0.501-1.768l-1.62-0.472L565.125,233.947z M556.432,236.187
	l-1.415,1.031l-1.414,1.061l1.414,1.768l0.06,0.118l1.002,1.002l1.267-1.208l1.237-1.267l-0.824-0.825L556.432,236.187z
	 M562.531,239.399l-0.854,0.648l-0.147,0.059l-0.059,0.029l-0.266,0.03l-0.501-0.059l-0.177,1.12l-0.177,0.56l-0.501,1.768h0.147
	l0.206,0.059l0.501,0.088h0.266h0.501l0.295-0.088l0.471-0.059l0.207-0.088l0.501-0.118l0.206-0.147l0.412-0.206l0.295-0.147
	l0.854-0.619v-0.088l0.206-0.206l-1.355-1.12L562.531,239.399z"/>
<path id="path3983" d="M570.518,205.156v2.033h3.507v-2.033H570.518z M570.459,210.784v3.566h3.506v-3.566H570.459z M570.37,217.945
	v3.566h3.536v-3.566H570.37z M570.312,225.106v3.565h3.507v-3.565H570.312z M570.312,232.238l-0.06,3.595h3.507l0.06-3.595H570.312z
	 M570.252,239.399l-0.088,3.595h3.507l0.088-3.595H570.252z M570.164,246.56l-0.06,3.595h3.507l0.06-3.595H570.164z
	 M570.104,253.721l-0.059,3.565h3.507l0.059-3.565H570.104z M570.046,260.882l-0.089,3.565h3.508l0.088-3.565H570.046z
	 M569.957,268.042v3.566h3.508v-3.566H569.957z M569.898,275.204v3.566h3.507v-3.566H569.898z M569.811,282.364v3.566h3.507v-3.566
	H569.811z M569.751,289.496v3.595h3.507v-3.595H569.751z M569.692,296.657v3.595h3.507v-3.595H569.692z M569.604,303.818v3.595
	h3.507v-3.595H569.604z M569.545,310.979v3.565h3.507v-3.565H569.545z M569.457,318.14v3.566h3.536v-3.566H569.457z
	 M569.397,325.301l-0.059,3.565h3.507l0.059-3.565H569.397z M569.339,332.462v0.678l-0.147,2.829l1.738,0.059l1.769,0.06
	l0.147-2.859v-0.088v-0.678h-1.769H569.339z M569.191,337.235l-0.295,0.06l-0.265,0.147h-0.06l-0.235,0.117l-0.266,0.236v0.059
	l-0.147,0.059l-0.146,0.295l-0.06,0.147l-0.147,0.265l-0.147,0.502v0.206l-0.206,1.061l0.796,0.118l0.059,0.441l0.914-0.146
	l-0.089,1.532l-0.059,0.501l1.68,0.354l1.768,0.266l0.06-0.472l0.059-0.206l0.147-3.095l-1.09-0.06l-0.03-0.294l-0.059-0.295
	l-0.147-0.413l-0.059-0.205l-0.147-0.295l-0.089-0.059l-0.059-0.06l-0.206-0.295l-0.206-0.147l-0.089-0.059l-0.206-0.147
	l-0.266-0.059l-0.354-0.06h-0.088H569.191z M566.657,343.954l-0.561,3.508l3.448,0.56l0.56-3.565L566.657,343.954z M565.537,350.968
	l-0.324,2.033h-0.029l-0.266,1.415l1.68,0.354l1.68,0.413l0.354-1.326v-0.147l0.354-2.181l-1.769-0.266L565.537,350.968z
	 M564.005,357.717l-0.501,1.532l-0.707,1.621l1.62,0.707l1.533,0.707l0.795-1.562l0.06-0.206l0.501-1.739l-1.621-0.501
	L564.005,357.717z M555.312,359.956l-1.415,1.061l-1.414,1.032l1.414,1.769l0.06,0.146l1.002,0.973l1.237-1.179l1.268-1.267
	l-0.825-0.855L555.312,359.956z M561.411,363.198l-0.854,0.619l-0.147,0.059l-0.059,0.029l-0.295,0.059l-0.294-0.059h-0.03
	l-0.147-0.029l-0.177,1.119l-0.177,0.561l-0.501,1.768h0.147l0.207,0.059l0.5,0.089h0.266h0.501l0.266-0.089l0.501-0.059
	l0.206-0.059l0.501-0.147l0.206-0.147l0.413-0.206l0.294-0.147l0.825-0.619v-0.088l0.236-0.207l-1.355-1.119L561.411,363.198z"/>
<path id="path4127" d="M571.726,278.504v2.034h3.507v-2.034H571.726z M571.638,284.103v3.566h3.507v-3.566H571.638z
	 M571.578,291.264v3.566h3.507v-3.566H571.578z M571.52,298.425v3.565h3.507v-3.565H571.52z M571.52,305.586l-0.089,3.566h3.507
	l0.089-3.566H571.52z M571.431,312.747l-0.059,3.566h3.507l0.059-3.566H571.431z M571.372,319.878l-0.089,3.596h3.507l0.089-3.596
	H571.372z M571.283,327.04l-0.059,3.595h3.507l0.059-3.595H571.283z M571.225,334.2l-0.059,3.596h3.507l0.059-3.596H571.225z
	 M571.166,341.361v3.565h3.507v-3.565H571.166z M571.077,348.522v3.565h3.507v-3.565H571.077z M571.019,355.683v3.566h3.507v-3.566
	H571.019z M570.93,362.845v3.565h3.537v-3.565H570.93z M570.871,370.005v3.566h3.507v-3.566H570.871z M570.813,377.137v3.595h3.507
	v-3.595H570.813z M570.724,384.298v3.596h3.507v-3.596H570.724z M570.665,391.458v3.596h3.507v-3.596H570.665z M570.605,398.619
	l-0.088,3.566h3.507l0.088-3.566H570.605z M570.518,405.78v0.708l-0.147,2.799l1.769,0.06l1.768,0.088l0.118-2.888v-0.767h-1.739
	H570.518z M570.37,410.555l-0.266,0.059l-0.294,0.147h-0.06l-0.324,0.206l-0.294,0.295l-0.147,0.266l-0.089,0.147l-0.118,0.265
	l-0.146,0.501v0.206l-0.207,1.062l0.767,0.117l0.059,0.442l0.943-0.147l-0.089,1.563l-0.059,0.471l1.68,0.354l1.739,0.295
	l0.088-0.501l0.059-0.206l0.147-3.095l-1.09-0.029l-0.029-0.324l-0.089-0.265l-0.147-0.442l-0.059-0.206l-0.266-0.413l-0.235-0.294
	l-0.206-0.118l-0.06-0.089l-0.206-0.117l-0.295-0.089l-0.412-0.059H570.37z M567.865,417.273l-0.56,3.507l3.418,0.56l0.56-3.565
	L567.865,417.273z M566.745,424.287l-0.324,2.063h-0.029l-0.295,1.386l1.681,0.354l1.68,0.412l0.354-1.326v-0.147l0.354-2.15
	l-1.739-0.295L566.745,424.287z M565.184,431.035l-0.56,1.769l-0.619,1.385l1.621,0.707l1.532,0.708l0.825-1.769l0.501-1.738
	l-1.621-0.501L565.184,431.035z M556.49,433.275l-1.414,1.061l-1.386,1.061l1.386,1.739l1.061,1.12l1.267-1.18l1.268-1.267
	l-0.854-0.854L556.49,433.275z M562.59,436.517l-0.824,0.619l-0.089,0.059l-0.472,0.089l-0.441-0.06l-0.354,1.68l-0.471,1.739
	l0.354,0.088l0.472,0.06h0.294l0.767-0.06l0.56-0.088l0.619-0.206l0.648-0.354l0.265-0.146l0.796-0.619l0.266-0.266L562.59,436.517z
	"/>
<path id="path4271" d="M571.726,137.524v2.033h3.507v-2.033H571.726z M571.638,143.124v3.595h3.507v-3.595H571.638z
	 M571.578,150.285v3.595h3.507v-3.595H571.578z M571.52,157.445v3.595h3.507v-3.595H571.52z M571.52,164.606l-0.089,3.566h3.507
	l0.089-3.566H571.52z M571.431,171.768l-0.059,3.565h3.507l0.059-3.565H571.431z M571.372,178.928l-0.089,3.566h3.507l0.089-3.566
	H571.372z M571.283,186.089l-0.059,3.566h3.507l0.059-3.566H571.283z M571.225,193.25l-0.059,3.565h3.507l0.059-3.565H571.225z
	 M571.166,200.382v3.595h3.507v-3.595H571.166z M571.077,207.543v3.595h3.507v-3.595H571.077z M571.019,214.704v3.595h3.507v-3.595
	H571.019z M570.93,221.865v3.566h3.537v-3.566H570.93z M570.871,229.025v3.566h3.507v-3.566H570.871z M570.813,236.187v3.566h3.507
	v-3.566H570.813z M570.724,243.348v3.565h3.507v-3.565H570.724z M570.665,250.479v3.595h3.507v-3.595H570.665z M570.605,257.64
	l-0.088,3.595h3.507l0.088-3.595H570.605z M570.518,264.801v0.708l-0.147,2.799l1.769,0.088l1.768,0.059l0.118-2.888v-0.059v-0.708
	h-1.739H570.518z M570.37,269.575l-0.266,0.088l-0.294,0.118h-0.06l-0.206,0.147l-0.295,0.206v0.088l-0.117,0.059l-0.147,0.265
	l-0.089,0.147l-0.118,0.294l-0.146,0.472v0.236l-0.207,1.031l0.796,0.147l0.029,0.413l0.943-0.147l-0.089,1.562l-0.059,0.501
	l1.68,0.354l1.739,0.265l0.088-0.501l0.059-0.206l0.147-3.094l-1.09-0.03l-0.029-0.294l-0.089-0.295l-0.147-0.413l-0.059-0.206
	l-0.147-0.295l-0.059-0.059l-0.06-0.088l-0.235-0.265l-0.206-0.147l-0.06-0.059l-0.206-0.147l-0.295-0.059l-0.354-0.088h-0.059
	H570.37z M567.865,276.323l-0.56,3.507l3.418,0.56l0.56-3.595L567.865,276.323z M566.745,283.337l-0.324,2.033h-0.029l-0.295,1.415
	l1.681,0.324l1.68,0.442l0.354-1.356v-0.118l0.354-2.181l-1.739-0.295L566.745,283.337z M565.184,290.056l-0.56,1.769l-0.619,1.415
	l1.621,0.678l1.532,0.707l0.766-1.532l0.06-0.207l0.501-1.768l-1.621-0.501L565.184,290.056z M556.49,292.325l-1.414,1.031
	l-1.386,1.061l1.386,1.768l0.088,0.118l0.973,1.002l1.267-1.208l1.268-1.267l-0.854-0.825L556.49,292.325z M562.59,295.537
	l-0.824,0.648l-0.147,0.059h-0.06l-0.295,0.059l-0.323-0.029h-0.03l-0.146-0.029l-0.147,1.001l-0.207,0.678l-0.471,1.768h0.117
	l0.236,0.059l0.472,0.059h0.294h0.472l0.295-0.059l0.501-0.059l0.206-0.088l0.472-0.147l0.235-0.118l0.413-0.207l0.265-0.147
	l0.855-0.648v-0.059l0.206-0.207l-1.326-1.12L562.59,295.537z"/>
<path id="path4415" d="M569.397,26.81l-0.147,3.565l3.507,0.147l0.147-3.595L569.397,26.81z M569.133,33.941l-0.147,3.595
	l3.418,0.147l0.236-3.595L569.133,33.941z M568.778,41.102l-0.146,3.595l3.507,0.118l0.146-3.565L568.778,41.102z M568.484,48.263
	l-0.147,3.36v0.147l1.768,0.147l1.739,0.147V51.77l0.147-3.359l-1.739-0.059L568.484,48.263z M568.131,55.365l-0.207,3.565
	l3.507,0.207l0.207-3.507L568.131,55.365z M567.659,62.526l-0.089,1.179l-0.206,2.328l1.769,0.207l1.738,0.118L571.077,64v-0.088
	l0.089-1.179l-1.769-0.089L567.659,62.526z M567.011,69.599l-0.354,3.565l3.507,0.354l0.354-3.566L567.011,69.599z M532.414,75.08
	l-0.266,1.739l-0.294,1.768l0.913,0.147v-0.029l0.707,0.235l0.619,0.266l0.501,0.354l0.913-1.533l0.855-1.562l-0.648-0.354
	l-0.207-0.118l-0.854-0.354l-0.206-0.088l-0.825-0.265h-0.206L532.414,75.08z M566.244,76.612l-0.56,3.507l3.448,0.56l0.56-3.507
	L566.244,76.612z M539.428,79.146l-1.238,1.179l-1.267,1.208l0.235,0.236l-0.029,0.03l1.326,1.621l0.501,0.766l1.385-1.031
	l1.474-1.002l-0.56-0.766l-0.06-0.059l-1.325-1.68l-0.089-0.147L539.428,79.146z M565.125,83.626l-0.147,0.56h0.029l-0.648,2.829
	l1.68,0.413l1.739,0.413l0.647-2.947l0.06-0.147l0.088-0.56l-1.768-0.265L565.125,83.626z M543.789,85.247l-1.474,0.914
	l-1.474,0.972l1.268,1.916l0.059,0.059l0.708,1.061l1.414-1.061l1.474-0.973l-0.707-1.002l-0.03,0.03L543.789,85.247z
	 M563.356,90.286l-0.354,1.149l-0.914,2.033l1.621,0.678l1.562,0.708l1.032-2.181l0.088-0.207l0.354-1.031l-1.709-0.589
	L563.356,90.286z M547.709,90.934l-1.326,1.12l-1.326,1.12l1.473,1.768l0.147,0.118l0.973,0.854l1.179-1.267l1.208-1.267
	l-0.972-0.914L547.709,90.934z M552.482,95.266l-0.767,1.562l-0.854,1.533l0.708,0.442l0.146,0.059l1.12,0.413l0.147,0.088
	l1.12,0.324l0.147,0.088l0.354,0.059l0.412-1.68l0.354-1.739l-0.294-0.088v0.03l-0.855-0.266l0.03-0.029l-1.12-0.442L552.482,95.266
	z M560.498,95.855l-0.295,0.265l-0.589,0.413l-0.561,0.236l-0.736,0.059l0.206,1.739l0.206,1.768l0.914-0.147h0.147l0.265-0.059
	l0.914-0.354h0.088l0.266-0.147l0.854-0.56l0.206-0.206l0.501-0.501l-1.208-1.268L560.498,95.855z"/>
<path id="path4681" fill="#0000FF" d="M181.291,205.303l-1.179,1.267l-1.208,1.267l39.872,36.424l38.221,36.394l10.609,9.96h0.059
	l11.67,9.902l0.059,0.088l11.64,9.047l0.088,0.059l10.727,7.515l0.059,0.059l10.55,6.689h0.059l12.142,6.866v0.059l6.158,3.154
	h0.089l5.894,2.887h0.147l5.54,2.328l0.06,0.06l4.979,1.68h0.147l2.446,0.648h0.088l2.652,0.472h0.06l5.834,0.766h0.147l6.159,0.354
	h0.089l6.247,0.147h0.059l11.229-0.206h0.059l7.456-0.412h0.059l12.436-1.12l2.594-0.235l2.505-0.06l2.476,0.06v-0.03l2.181,0.266
	l5.599,0.884l2.446,0.501l2.269,0.648v-0.06l1.945,0.678l2.004,0.797l-0.029,0.059l2.033,0.973l1.886,1.119l10.609,6.808l0.146,0.06
	l4.833,2.682l0.147,0.059l2.388,1.119l0.059,0.089l2.387,0.913l0.147,0.06l2.446,0.767h0.147l2.534,0.647h0.117l2.594,0.413
	l0.147,0.059l2.74,0.207h0.147h2.858h0.147l3.094-0.207h0.06l3.301-0.412h0.147l3.506-0.619l0.147-0.088l1.739-0.473l0.206-0.088
	l1.769-0.766l0.206-0.06l1.62-1.002l0.147-0.118l1.592-1.208l0.235-0.147l3.006-2.947l0.147-0.117l2.858-3.596l0.089-0.146
	l2.652-4.126v-0.147l2.475-4.568l0.06-0.059l4.42-9.901l0.06-0.059l7.455-19.45h-0.029l3.241-7.515l1.474-2.711l0.707-1.061
	l0.648-0.766l0.59-0.619l0.029,0.059l0.707-0.648l2.033-1.326l-0.029-0.03l1.916-0.943l2.328-0.854l2.505-0.708l2.828-0.56v-0.03
	l2.712-0.324l2.888-0.206h3.035l3.006,0.147l2.888,0.265v-0.03l2.858,0.472v-0.088l2.741,0.56l2.534,0.678v0.029l2.446,0.737v0.029
	l2.328,0.914l0.618-1.591l0.648-1.621l-2.328-1.002h-0.059l-2.534-0.825h-0.147l-2.652-0.708l-0.147-0.059l-2.8-0.56h-0.147
	l-2.946-0.442h-0.089l-3.006-0.265h-0.059l-3.095-0.147h-0.059h-3.035h-0.147l-3.006,0.206h-0.059l-2.947,0.354l-0.147,0.088
	l-2.799,0.56h-0.147l-2.682,0.678l-0.118,0.088l-2.476,0.914l-0.147,0.059l-2.299,1.208l-0.146,0.059l-2.034,1.326l-0.147,0.147
	l-0.913,0.707l-0.059,0.147l-0.854,0.766l-0.06,0.118l-0.766,1.002l-0.147,0.059l-0.767,1.208l-0.088,0.118l-1.532,2.888
	l-0.06,0.147l-3.301,7.632v0.088l-7.455,19.361l0.059,0.03l-4.361,9.665h-0.029l-2.476,4.479l0.029,0.029l-2.445,3.92l-0.029-0.029
	l-2.652,3.389l-3.036,2.947l-1.385,1.031l-1.562,0.854l-1.532,0.708l-1.415,0.383v-0.029l-3.507,0.678v0.029l-3.006,0.384v-0.06
	l-3.094,0.206h-2.652l-2.623-0.206l-2.445-0.383v-0.03l-2.446-0.529v-0.029l-2.328-0.708l-2.446-0.973l-2.239-1.061v0.029
	l-4.773-2.682l-10.609-6.749l-2.033-1.267l-0.059-0.059l-2.034-1.002l-0.147-0.06l-2.092-0.854l-0.147-0.06l-2.181-0.708
	l-0.059-0.059l-2.328-0.56l-0.147-0.089l-2.446-0.471h-0.059l-5.688-1.002h-0.147l-2.387-0.207h-0.06l-2.534-0.059h-0.088
	l-2.594,0.059h-0.059l-2.741,0.207h-0.059l-12.348,1.148l-7.367,0.413l-11.169,0.206l-6.188-0.146l-6.1-0.354l-5.688-0.679
	l-2.505-0.472v-0.029l-2.328-0.53v-0.029l-4.833-1.621l-5.481-2.298v-0.03l-5.952-2.8l-0.029,0.06l-6.071-3.212v0.029l-11.935-6.777
	l-10.609-6.661v0.029l-10.521-7.456l-11.64-9.047l-11.582-9.843l-10.609-9.872l-38.221-36.424L181.291,205.303z"/>
<path id="path4991" fill="#FF0000" d="M152.736,122.938l-1.533,0.825l-1.562,0.854l7.515,14.027h0.088l6.365,11.168v0.059
	l6.749,10.727h0.059l8.487,12.849h0.088l10.108,14.469h0.059l10.314,13.673v0.059l17.888,22.396h0.059l20.658,25.402l9.105,10.786
	h0.059l11.228,12.377l10.815,11.493h0.088l8.34,8.34l0.059,0.088l4.067,3.654l0.088,0.059l4.332,3.654l0.088,0.059l11.228,8.487
	h0.059l11.876,8.369h0.059l5.895,3.772h0.059l5.982,3.507h0.059l6.188,3.241l0.059,0.06l6.513,2.946l0.089,0.089l6.866,2.711h0.088
	l7.427,2.623h0.059l7.367,2.092l0.147,0.059l6.749,1.563l0.059,0.059l6.188,1.061h0.059l5.481,0.707h0.059l4.833,0.354h0.089
	l4.066,0.118h0.147l3.359-0.06h0.059l2.683-0.147h0.146l1.68-0.206l0.207-0.06l1.532-0.354l0.147-0.088l1.474-0.561l0.206-0.059
	l1.326-0.648l0.147-0.059l1.325-0.707l0.089-0.059l1.326-0.855h0.059l2.534-1.738l-0.029-0.029l2.476-1.68v0.029l1.355-0.796
	l1.12-0.56l1.444-0.619l1.355-0.354v-0.029l1.473-0.236l1.415-0.088l1.945,0.088l1.414,0.118l1.532,0.295v-0.029l1.208,0.383
	l0.973,0.413l0.767,0.412l0.913,0.561l0.767,0.647l8.163,8.134l0.117,0.059l4.303,3.742l0.059,0.06l2.947,2.239l0.147,0.148
	l3.654,2.327h0.059l2.033,1.12l0.147,0.059l2.24,1.061l0.059,0.06l2.387,0.973h0.147l2.594,0.854l0.146,0.059l2.8,0.796h0.089
	l3.006,0.56l0.147,0.059l3.212,0.413h0.088l3.419,0.206h0.235l1.798-0.059l0.235-0.059l1.798-0.354h0.236l1.826-0.648l0.118-0.059
	l1.827-0.855l0.206-0.059l3.743-2.328l0.206-0.118l3.625-3.095l0.146-0.146l3.654-3.713l0.06-0.059l3.654-4.215l0.146-0.147
	l7.103-9.548l0.059-0.059l12.761-19.862l5.304-8.369l0.029,0.029l2.328-3.389l1.916-2.476l0.029,0.029l1.975-2.181l-0.06-0.029
	l1.945-1.856l2.033-1.68v-0.03l2.063-1.444v-0.029l2.092-1.179l2.093-0.973l1.974-0.648l2.328-0.471l1.945-0.147l2.269,0.147
	l2.446,0.471l2.299,0.854l0.029-0.088l2.357,1.208l2.357,1.444l-0.029,0.029l2.652,2.034l0.029-0.03l2.505,2.358l1.208-1.268
	l1.179-1.267l-2.651-2.534l-0.147-0.059l-2.594-2.033l-0.147-0.088l-2.652-1.68l-0.146-0.059l-2.594-1.267l-0.206-0.059
	l-2.534-0.854l-0.207-0.059l-2.475-0.501l-0.266-0.059l-2.476-0.147h-0.206l-2.446,0.206h-0.206l-2.387,0.501l-0.147,0.059
	l-2.299,0.707l-0.235,0.059l-2.24,1.061l-0.206,0.059l-2.181,1.355l-0.147,0.059l-2.151,1.532l-0.088,0.147l-2.093,1.768
	l-0.088,0.059l-2.033,1.975l-0.06,0.059l-2.033,2.181l-0.059,0.147l-2.033,2.652l-0.089,0.088l-2.299,3.36h-0.088l-5.334,8.428
	l-12.701,19.715l-7.161,9.518l0.06,0.029l-3.566,4.127l-3.507,3.506l-3.713,3.095l-3.448,2.181v0.029l-1.473,0.678v-0.029
	l-1.592,0.501h-0.059l-0.147,0.059l-1.562,0.295l-1.326,0.06l-3.36-0.207l-3.094-0.383v-0.029l-2.947-0.561l-2.682-0.678v-0.029
	l-2.505-0.795v-0.03l-2.387-1.002l-0.029,0.06l-2.093-1.002v-0.029l-1.974-1.032l0.029-0.029l-3.448-2.181l-2.947-2.24l-4.185-3.624
	l0.03-0.03l-8.134-8.074l-0.206-0.117l-0.914-0.767l-0.147-0.089l-0.972-0.707l-0.147-0.059l-1.12-0.561l-0.147-0.059l-1.179-0.5
	l-0.206-0.089l-1.326-0.413h-0.147l-1.562-0.265l-0.118-0.089l-1.709-0.117h-0.118l-1.915-0.089h-0.118l-1.827,0.147h-0.147
	l-1.68,0.266l-0.206,0.088l-1.563,0.412l-0.117,0.06l-1.474,0.589l-0.147,0.059l-1.326,0.708l-0.147,0.06l-1.326,0.766l-0.088,0.088
	l-2.534,1.68l-0.06,0.06l-2.534,1.68l0.029,0.029l-1.149,0.767l-1.237,0.707l-0.029-0.029l-1.268,0.589V337l-1.474,0.56
	l-1.119,0.295l-1.68,0.207l-2.594,0.146l-3.212,0.059l-4.066-0.146l-4.716-0.324l-5.393-0.648l-6.129-1.12v0.03l-6.572-1.533v-0.029
	l-7.308-2.121l-7.309-2.477v-0.029l-6.866-2.74v0.029l-6.454-2.977v0.029l-6.041-3.182v-0.029l-5.923-3.39l0.029-0.029l-5.806-3.654
	l-0.059-0.029l-0.029-0.03l-11.817-8.192l0.029-0.029l-11.139-8.487l-0.029,0.03l-4.332-3.684l-0.03,0.029l-3.978-3.536
	l-8.281-8.281l-10.874-11.493l-11.139-12.289l-9.106-10.697l0.029-0.029l-20.658-25.373l0.029-0.029l-17.946-22.396l-0.03,0.03
	l-10.226-13.644l-0.029,0.029l-10.108-14.322l0.029-0.029l-8.517-12.73l0.03-0.029l-6.719-10.727l-0.029,0.03l-6.365-11.051
	L152.736,122.938z"/>
<path id="path5395" fill="#0000FF" d="M179.965,188.123l-1.061,1.385l-1.032,1.415l15.707,12.053l0.059,0.088l7.102,4.98h0.059
	l9.548,5.834l0.059,0.059l14.263,8.075l0.059,0.059l10.727,5.688l0.088,0.059l21.335,10.255l23.575,11.08l10.521,4.921h0.059
	l10.521,4.568h0.088l5.481,2.092h0.059l5.746,1.827l0.089,0.059l5.953,1.591l6.1,1.444l11.787,2.298l10.963,1.975l5.452,0.766h0.088
	l5.953,0.56h0.059l12.289,0.56h0.088l10.874,0.088h0.06l7.22-0.206l6.542-0.295l6.1,0.059l11.936,0.295h0.059h3.006h0.089
	l2.387-0.147h0.059l3.713-0.265l1.621-0.088h1.769l1.827,0.147l2.239,0.354l3.212,0.619v-0.029l2.8,0.707v0.03l5.274,1.68v-0.03
	l8.841,3.418l0.06,0.059l2.181,0.707h0.088l2.24,0.619l0.147,0.088l2.239,0.413l0.147,0.059l2.445,0.295h0.147l2.652,0.147h0.147
	l2.888-0.147h0.118l3.153-0.354h0.088l3.448-0.619l0.206-0.088l1.739-0.501l0.206-0.059l1.68-0.767l0.235-0.088l1.592-0.884
	l0.235-0.088l1.532-1.179l0.207-0.147l2.946-2.741l0.147-0.147l2.8-3.359l0.147-0.147l2.593-3.772l0.06-0.147l2.534-4.155
	l0.059-0.059l4.862-8.899l4.833-8.841l2.387-3.949l2.594-3.713l2.505-2.976l0.029,0.029l1.326-1.326l1.474-1.208l1.237-0.855
	l0.029,0.03l1.415-0.766l1.385-0.56l1.621-0.413v0.059l11.286-1.709l4.155-0.413l3.566-0.206l3.595,0.059l3.625,0.294l9.695,1.326
	l0.206-1.739l0.206-1.768l-9.666-1.267h-0.146l-3.802-0.354h-0.06l-3.565-0.059h-0.147l-3.713,0.206h-0.089l-4.214,0.413h-0.059
	l-11.434,1.709l-0.147,0.059l-1.68,0.354l-0.207,0.059l-1.68,0.648l-0.206,0.059l-1.621,0.854l-0.146,0.118l-1.533,1.061
	l-0.147,0.059l-1.473,1.208l-0.147,0.147l-1.415,1.385l-0.117,0.088l-2.741,3.212l-0.088,0.147l-2.594,3.713l-0.059,0.147
	l-2.534,4.067v0.059l-4.833,8.841l-4.804,8.87h-0.029l-2.534,4.126l-2.446,3.654l-2.682,3.153l-2.8,2.652l-1.385,1.031l-0.029-0.029
	l-1.474,0.854v-0.029l-1.474,0.707l-1.62,0.442v-0.029l-3.507,0.648v0.029l-3.006,0.324l-2.594,0.147l-2.446-0.147l-2.387-0.295
	l-2.181-0.383v-0.03l-2.181-0.619v0.03l-2.092-0.737v0.029l-8.841-3.418l-0.147-0.059l-5.275-1.68l-0.059-0.059l-3.035-0.708h-0.06
	l-3.3-0.707h-0.06l-2.387-0.354h-0.147l-1.975-0.147h-0.117h-1.769h-0.059l-1.68,0.088h-0.089l-3.771,0.265l-2.328,0.147h-2.889
	l-11.993-0.295h-0.06l-6.1-0.059h-0.089l-6.601,0.294l-7.22,0.206h-10.727l-12.2-0.648l-5.835-0.56h-0.06l-5.334-0.766
	l-10.814-1.886h-0.06l-11.729-2.328l-5.864-1.355v-0.029l-5.982-1.621v0.029l-5.569-1.768v-0.03l-5.393-2.004V255.4l-10.521-4.568
	L281.928,246l-23.516-11.14l-21.277-10.167l0.03-0.03l-10.756-5.688l-14.292-8.133l-0.029,0.029l-9.342-5.688l0.029-0.029
	l-7.161-4.98l-0.03,0.029L179.965,188.123z"/>
<path id="path5677" fill="#0000FF" d="M181.438,227.14l-1.326,1.12l-1.326,1.12l39.341,45.264l19.508,23.281h0.088l6.866,8.015
	l0.059,0.059l8.222,8.634l0.059,0.059l23.015,22.543l12.142,11.08l0.088,0.06l5.599,4.774l5.127,4.008l23.281,18.24h0.088
	l12.495,9.401h0.059l6.041,4.126l0.06,0.088l5.688,3.418l0.059,0.089l11.11,6.307l0.059,0.088l11.021,5.953l0.147,0.059l5.334,2.594
	h0.059l5.128,2.121l0.059,0.06l2.534,0.854h0.06l2.387,0.707h0.088l2.299,0.56h0.147l2.181,0.354h0.206l3.301,0.117l0.147,0.089
	l3.153-0.147h0.147l3.006-0.295h0.059l2.829-0.354l5.334-0.619l2.239-0.147l1.179,0.089l1.062,0.118l2.799,0.501l2.388,0.618v0.03
	l2.327,0.736v0.029l2.24,0.914l1.886,0.913l1.916,1.061l-0.03,0.06l4.008,2.445v0.06l6.396,3.742l0.059,0.059l7.103,3.36
	l0.146,0.088l7.574,2.947h0.117l7.722,2.239l0.146,0.059l3.802,0.767h0.118l3.802,0.648h0.059l3.742,0.354h0.118l3.507,0.059h0.147
	l3.448-0.265h0.146l3.213-0.561l0.206-0.088l2.946-0.825l0.207-0.147l2.74-1.208l0.206-0.118l1.209-0.796l0.146-0.117l1.179-1.002
	l0.207-0.118l2.269-2.387l0.118-0.147l2.033-2.888l0.089-0.118l1.944-3.301l0.089-0.088l3.654-7.515v-0.06l3.565-7.985h-0.029
	l3.713-7.81h0.029l2.033-3.625l2.181-3.241l2.181-2.682l2.652-2.505l1.12-0.767l1.326-0.824l0.029,0.029l1.385-0.678l1.68-0.502
	v-0.029l6.042-1.237v-0.03l4.862-0.559v0.029l4.185-0.06l3.801,0.265l6.454,0.768h0.147l1.621,0.088h0.059h1.68h0.059l1.769-0.088
	l0.147-0.06l1.738-0.206l-0.206-1.769l-0.206-1.739l-1.827,0.266l-1.621,0.089h-1.385l-1.562-0.089l-6.514-0.766h-0.059
	l-3.802-0.266h-0.146l-4.332,0.059h-0.236l-5.187,0.561l-0.147,0.059l-6.218,1.355h-0.235l-1.592,0.561l-0.235,0.059l-1.592,0.707
	l-0.147,0.059l-1.473,0.914l-0.147,0.088l-1.474,1.032l-0.147,0.147l-2.652,2.445l-0.206,0.236l-2.387,2.947l-0.147,0.117
	l-2.24,3.389l-0.088,0.118l-2.033,3.654l-0.06,0.089l-3.801,7.927v0.059l-3.566,7.986h0.029l-3.536,7.309l-1.975,3.3l-1.797,2.564
	l-0.029-0.03l-2.093,2.24l-1.12,0.913l-0.913,0.561l-2.682,1.267l-2.505,0.767l-3.035,0.53v-0.029l-3.212,0.265l-3.448-0.059
	l-3.565-0.354l-3.654-0.53v-0.029l-3.713-0.737v-0.029l-7.722-2.27v0.03l-7.455-2.889l-6.926-3.3l-6.188-3.714l-0.029,0.03
	l-3.89-2.505h-0.089l-2.033-1.12l-0.059-0.059l-2.093-1.062h-0.088l-2.24-0.973h-0.059l-2.476-0.854h-0.147l-2.593-0.707h-0.118
	l-2.946-0.56h-0.089l-1.179-0.118h-0.147h-1.208h-0.118l-2.534,0.059h-0.147l-5.334,0.619l-2.858,0.354l-2.946,0.295l-2.889,0.147
	l-3.153-0.236l-2.121-0.265l-2.151-0.472v-0.029l-2.387-0.707l-0.03,0.059l-2.298-0.796v-0.029l-5.039-2.063v-0.029l-5.275-2.505
	v-0.03l-11.021-5.952l-11.14-6.396l-5.628-3.447v0.029l-5.953-4.096l-0.029,0.029l-12.406-9.342l-23.369-18.241l-5.01-3.919
	l0.03-0.03l-5.599-4.774l-0.03,0.03l-12.053-11.052l-0.029,0.06l-22.897-22.426l-0.03-0.029l-0.059-0.059l-8.075-8.487l-6.866-7.986
	l-19.567-23.31L181.438,227.14z"/>
<path id="path5979" fill="#0000FF" d="M182.706,261.854l-1.415,1.061l-1.385,1.061l9.636,12.229l-0.029,0.029l11.051,14.853
	l-0.03,0.029l19.833,27.966l-0.059,0.029l10.108,14.734h0.059l8.988,12.436l0.088,0.06l8.958,11.375l0.088,0.059l10.108,11.522
	l0.03-0.029l10.933,12.494l-0.029,0.03l10.668,12.966h0.059l10.108,12.142h0.088l4.774,5.334v0.059l4.539,4.627h0.088l23.222,21.777
	h0.059l12.907,11.435l0.089,0.059l5.599,4.567l0.089,0.06l4.538,3.389l19.95,14.439l0.06,0.06l5.746,3.507l0.089,0.088l2.858,1.532
	h0.088l2.858,1.415h0.147l2.888,1.119l0.118,0.06l2.829,0.854h0.206l2.741,0.56h0.206l2.74,0.206h0.118h12.436l5.246,0.147
	l2.387,0.207l2.181,0.265v0.029l0.767,0.118v-0.029l0.647,0.177l1.12,0.442l1.268,0.766l1.061,0.736l-0.029,0.03l1.267,1.119
	l0.03-0.059l1.179,1.179l2.181,2.446l4.272,5.422l0.06,0.06l2.033,2.327l0.088,0.06l1.032,0.973l0.146,0.088l1.002,0.767
	l0.118,0.147l5.835,3.359l0.059,0.059l2.889,1.414l0.059,0.06l2.829,1.208h0.059l2.8,1.061h0.089l2.711,0.825h0.088l2.741,0.648
	l0.059,0.06l2.682,0.501h0.118l2.593,0.265l0.147,0.059l2.594,0.147h0.147h2.593h0.059l2.623-0.059l0.118-0.089l5.127-0.618h0.147
	l5.039-1.12h0.236l1.237-0.412l0.236-0.147l1.237-0.648l0.235-0.059l1.238-0.825l0.147-0.089l1.326-0.973l0.088-0.088l2.652-2.446
	l0.147-0.147l2.74-2.946l0.06-0.118l5.54-7.161l0.088-0.088l5.688-8.134l5.895-8.281l-0.03-0.029l5.924-7.603l-0.029-0.029
	l2.976-3.213l2.947-2.799l-0.029-0.03l2.888-2.21l1.415-0.854l1.267-0.619l5.6-2.181l-0.029-0.029l4.449-1.385l4.067-0.914
	l3.447-0.471l7.573-0.648l4.421-0.501h0.088l5.246-0.825l-0.266-1.769l-0.295-1.738l-5.127,0.884v-0.059l-4.421,0.501l-7.485,0.618
	l-0.088,0.089l-3.713,0.501h-0.147l-4.066,0.884l-0.147,0.089l-4.686,1.474h-0.089l-5.599,2.239l-0.147,0.059l-1.532,0.708
	l-0.147,0.088l-1.532,0.973l-0.147,0.059l-3.095,2.388l-0.147,0.088l-3.006,2.947l-0.059,0.059l-3.035,3.359l-0.059,0.089
	l-6.042,7.721v0.059l-5.894,8.281l-5.688,8.133l0.029,0.03l-5.569,7.131l-2.594,2.888l-2.534,2.299l-1.179,0.854l-1.031,0.648
	l-0.029-0.029l-1.268,0.648l-1.061,0.354l0.029,0.059l-4.921,0.973v0.029l-4.922,0.619l-2.445,0.059h-2.476l-2.505-0.146
	l-2.534-0.324l-2.594-0.442l-2.593-0.59v-0.029l-2.741-0.854v0.029l-2.534-0.942l-0.088-0.03l-0.06-0.029l-2.593-1.09v-0.029
	l-2.8-1.415l-0.029,0.029l-5.658-3.389l-0.825-0.648l-0.029,0.029l-0.767-0.707l-1.944-2.181l-4.273-5.422l-0.088-0.06l-2.299-2.652
	l-0.089-0.088l-1.267-1.179l-0.06-0.089l-1.267-1.119l-0.147-0.06l-1.326-0.973l-0.147-0.088l-1.385-0.825l-0.206-0.089l-1.415-0.56
	l-0.206-0.059l-0.767-0.206l-0.147-0.089l-0.707-0.118h-0.147l-2.387-0.294h-0.059l-2.446-0.207h-0.147l-5.274-0.147h-0.06h-12.288
	l-2.741-0.206l-2.593-0.501v0.029l-2.534-0.766v-0.029l-2.8-1.032v-0.029l-2.74-1.267l-0.089-0.029l-0.029-0.03l-2.711-1.414
	l0.029-0.059l-5.629-3.419l0.029-0.029l-19.861-14.381l-4.598-3.33l0.029-0.029l-5.569-4.538l0.029-0.029l-12.907-11.346
	l-23.192-21.66l0.029-0.029l-4.479-4.509l-4.774-5.334l-0.029,0.029l-10.079-12.082l-10.667-12.995l-0.059-0.06l-10.962-12.495
	v-0.059l-10.108-11.375l-8.988-11.375l-0.03,0.029l-8.929-12.377l-10.049-14.646h-0.059l-19.803-28.083l-11.081-14.941
	L182.706,261.854z"/>
<path id="path6293" fill="#0000FF" d="M538.603,158.565l-5.187,0.088h-0.089l-5.245,0.265h-0.147l-5.187,0.766h-0.147l-5.187,1.208
	h-0.147l-2.593,0.766h-0.089l-2.505,0.914l-0.206,0.147l-1.267,0.56l-0.207,0.147l-1.208,0.825l-0.206,0.147l-1.12,1.061
	l-0.147,0.059l-1.119,1.267l-0.147,0.147l-2.181,3.006l-0.06,0.147l-2.092,3.507l-0.089,0.147l-3.86,8.399l-0.059,0.088
	l-3.802,9.194l-3.86,9.047l0.029,0.029l-1.975,4.038l-2.121,3.713l-2.181,3.094l-1.031,1.267l-1.002,0.973l-1.12,0.973l-1.268,0.707
	l0.029,0.029l-1.148,0.472l-0.914,0.206l-2.858,0.354l-2.594,0.147l-2.828-0.088v0.059l-2.652-0.265v0.088l-2.594-0.413v-0.029
	l-2.74-0.56l-2.682-0.678v-0.029l-2.682-0.796l0.029-0.029l-5.481-2.122l-5.599-2.741l-5.688-3.212l-5.747-3.566l-1.061-0.648
	l-0.059-0.059l-1.149-0.56h-0.06l-1.119-0.501h-0.06l-1.208-0.413h-0.147l-2.299-0.56l-0.146-0.089l-2.535-0.354h-0.117
	l-11.316-1.179l-2.387-0.294h-0.147l-2.446-0.059h-0.059h-2.534h-0.06l-2.682,0.059h-0.059l-12.289,0.914l-6.719,0.294
	l-10.255,0.147l-25.697-0.442l-46.443-2.299l-24.135-1.208l-11.846-0.767l-5.835-0.707v0.088l-5.54-1.002l-17.682-2.741l-4.42-0.884
	v-0.03l-5.333-1.385l-6.188-1.975l-7.721-2.799l-7.839-3.065v-0.029l-5.776-2.358v-0.029l-16.267-7.426l-0.708,1.621l-0.707,1.591
	l16.208,7.456h0.088l5.805,2.387v0.059l7.957,3.006l7.78,2.888h0.059l6.336,2.033l0.118,0.088l5.275,1.385h0.059l4.568,0.914
	l0.059,0.088l17.77,2.711l5.599,0.914h0.088l5.806,0.707h0.088l11.994,0.767h0.059l24.135,1.208l46.473,2.299h0.059l25.667,0.442
	h0.089l10.314-0.147h0.059l6.808-0.294h0.088l12.2-0.914l2.594-0.059h2.534l2.239,0.059l2.388,0.294l11.375,1.12l2.445,0.412v-0.029
	l2.24,0.589l0.884,0.265l-0.029,0.03l1.119,0.413l0.914,0.501v-0.03l0.913,0.531l5.806,3.625l0.089,0.088l5.688,3.212h0.059
	l5.688,2.829h0.059l5.629,2.24h0.147l2.8,0.914h0.059l2.8,0.766h0.088l2.8,0.56h0.059l2.829,0.413h0.118l2.829,0.206h0.059
	l2.8,0.088h0.147l2.888-0.147h0.059l2.889-0.354l0.206-0.059l1.385-0.354l0.295-0.088l1.326-0.56l0.295-0.118l1.267-0.854
	l0.207-0.059l1.267-1.061l0.118-0.147l1.208-1.179l0.059-0.147l1.209-1.326l0.117-0.147l2.27-3.3l0.059-0.147l2.093-3.713
	l0.088-0.147l2.033-4.125v-0.088l3.861-9.106l3.742-9.136h0.029l3.949-8.339l-0.029-0.03l1.886-3.271h0.029l2.181-2.947l0.825-0.973
	l0.088-0.059l0.06-0.088l1.061-0.914l0.767-0.56l1.061-0.53v0.029l2.594-0.914l2.445-0.766v-0.029l5.128-1.091v-0.029l5.068-0.678
	l5.039-0.354h5.187l5.069,0.206l9.872,0.796l0.147-1.768l0.146-1.739l-9.96-0.796h-0.089l-5.098-0.206H538.603z"/>
<path id="path6571" fill="#0000FF" d="M552.482,106.729l-17.387,0.56l-4.773,0.266h-0.089l-4.833,0.413h-0.059l-4.922,0.707h-0.147
	l-5.039,0.914l-0.147,0.088l-1.267,0.413l-0.266,0.059l-1.208,0.648l-0.206,0.118l-1.179,0.795l-0.207,0.118l-1.148,1.002
	l-0.207,0.147l-2.298,2.505l-0.089,0.147l-2.239,3.094l-0.147,0.147l-4.421,7.367l-0.059,0.059l-4.567,8.133l0.059,0.03
	l-4.804,7.868l-0.029-0.03l-2.593,3.654l-2.535,3.006l-2.946,2.682l-1.326,0.973l-1.474,0.825l-1.267,0.56h-0.03l-0.177,0.088
	l-1.326,0.442v-0.03l-1.768,0.295l-1.474,0.059l-3.507-0.206l-3.301-0.413v0.029l-3.064-0.589v0.03l-2.829-0.737l-2.652-0.854v0.029
	l-2.416-0.943l0.029-0.059l-2.476-1.09l0.029-0.029l-2.387-1.208l-4.774-2.947l-0.029,0.029l-4.686-3.241l-10.579-7.368h-0.089
	l-0.972-0.648l-0.147-0.059l-0.973-0.501l-0.059-0.059l-1.062-0.413l-0.088-0.088l-0.973-0.354l-0.147-0.059l-0.973-0.294
	l-0.147-0.059l-1.031-0.207l-0.088-0.088l-2.181-0.324l-0.118-0.088l-10.314-1.179l-9.754-1.473h-0.147l-2.682-0.295h-0.059
	l-2.889-0.206h-0.117h-3.035h-0.147l-3.301,0.147l-2.711,0.059l-3.802-0.059l-9.901-0.501l-25.196-1.326l-11.346-0.295h-0.088
	l-9.607,0.088l-25.402,0.207l-24.901,0.147l-10.727-0.147l-12.495-0.648l-10.874-0.413h-0.147l-7.426,0.206l-8.517,0.295
	l-14.174-0.088l-8.192-0.207l-3.035-0.118l-2.859-0.294l-3.241-0.413l-3.919-0.708h-0.059l-11.876-2.328l-0.354,1.769l-0.354,1.738
	l11.935,2.27h0.088l3.979,0.678h0.088l3.212,0.501h0.089l2.947,0.294h0.059l3.094,0.118h0.059l8.222,0.236h0.059l14.175,0.059h0.059
	l8.576-0.295l7.367-0.206l10.874,0.442l12.495,0.619h0.059l10.756,0.147l24.96-0.147l25.402-0.207l9.548-0.088l11.375,0.295
	l25.107,1.326l9.961,0.5h0.089l3.771,0.059h0.089l2.858-0.059l3.241-0.147h3.095l2.799,0.206l2.594,0.295v-0.088l9.666,1.562h0.088
	l10.314,1.149v0.029l2.033,0.324v0.03l1.061,0.294v-0.059l0.825,0.294v0.03l1.062,0.354l0.766,0.354l0.914,0.472v0.029l0.942,0.53
	l-0.029,0.03l10.609,7.279l4.773,3.3l0.06,0.088l4.773,2.858l0.147,0.088l2.387,1.268l0.118,0.059l2.534,1.179h0.059l2.594,1.061
	l0.147,0.059l2.74,0.854l0.147,0.059l2.947,0.707l0.059,0.088l3.153,0.56h0.147l3.359,0.413h0.088l3.654,0.206h0.118l1.827-0.059
	h0.206l1.827-0.354h0.235l1.681-0.56l0.206-0.088l1.68-0.766l0.147-0.059l1.591-0.914l0.147-0.088l1.562-1.12l0.118-0.118
	l2.947-2.741l0.147-0.147l2.74-3.241l0.147-0.118l2.593-3.595l0.06-0.147l4.862-7.986l0.059-0.059l4.568-8.222l-0.03-0.029
	l4.45-7.279l2.181-2.947l2.033-2.24l1.031-0.825l1.002-0.708l1.062-0.589l0.973-0.294v0.029l4.892-0.973l4.921-0.619l4.774-0.442
	l4.715-0.266l17.387-0.56l-0.059-1.768L552.482,106.729z"/>
<g font-family="Arial, 'Bitstream Vera Sans', sans-serif">
<g font-size="19.78">
<text transform="matrix(1 0 0 1 63.6953 583.6543)">Equal-loudness contours (red) (from ISO 226:2003 revision)</text>
<text transform="matrix(1 0 0 1 126.9175 608.3535)">FletcherMunson curves shown (blue) for comparison</text>
<text transform="matrix(0.007 -1 1 0.007 40.3994 432.3711)">Sound Pressure Level (dB SPL)</text>
<text transform="matrix(1 0 0 1 363.5254 462.7539)">(threshold)</text>
<text transform="matrix(1 0 0 1 460.9902 55.9858)">(estimated)</text>
<text transform="matrix(1 0 0 1 398.1895 400.3555)">20</text>
<text transform="matrix(1 0 0 1 400.3652 327.9941)">40</text>
<text transform="matrix(1 0 0 1 400.2939 258.019)">60</text>
<text transform="matrix(1 0 0 1 399.3115 187.7974)">80</text>
<text transform="matrix(1 0 0 1 392.5059 117.8745)">100 phon</text>
</g>
<g font-size="24.77">
<text transform="matrix(1 0 0 1 63.7656 452.9297)">10</text>
<text transform="matrix(1 0 0 1 53.9419 521.9756)">-10</text>
<text transform="matrix(1 0 0 1 98.6392 553.4814)">10</text>
<text transform="matrix(1 0 0 1 232.9419 553.4814)">100</text>
<text transform="matrix(1 0 0 1 364.5781 553.4814)">1000</text>
<text transform="matrix(1 0 0 1 500.4248 553.4814)">10k</text>
<text transform="matrix(1 0 0 1 637.043 551.166)">100k</text>
<text transform="matrix(1 0 0 1 74.8521 488.6455)">0</text>
<text transform="matrix(1 0 0 1 64.8882 420.7227)">20</text>
<text transform="matrix(1 0 0 1 64.9585 384.0244)">30</text>
<text transform="matrix(1 0 0 1 65.4497 348.3789)">40</text>
<text transform="matrix(1 0 0 1 64.9585 314.417)">50</text>
<text transform="matrix(1 0 0 1 64.397 279.3325)">60</text>
<text transform="matrix(1 0 0 1 64.4673 244.8096)">70</text>
<text transform="matrix(1 0 0 1 64.397 209.1641)">80</text>
<text transform="matrix(1 0 0 1 63.9761 173.5884)">90</text>
<text transform="matrix(1 0 0 1 50.4336 135.7676)">100</text>
<text transform="matrix(1 0 0 1 50.3633 103.3496)">110</text>
<text transform="matrix(1 0 0 1 50.3633 68.2656)">120</text>
<text transform="matrix(1 0 0 1 51.0649 34.7949)">130</text>
</g>
</g>
</svg>
