<svg xmlns="http://www.w3.org/2000/svg" viewBox="0 0 198.43 198.43">
  <g id="Layer_3" data-name="Layer 3">
    <g>
      <path d="M151.69,45.15a18.68,18.68,0,1,0-32.36-18.68A18.42,18.42,0,0,0,118,29.29h0l-.05.17a18.77,18.77,0,0,0-.84,3.17L105.54,76.36a6.09,6.09,0,0,0,10.3,6l33.5-33.93A18.7,18.7,0,0,0,151.69,45.15Z" fill="#333132"/>
      <path d="M171.69,78.63A18.68,18.68,0,0,0,153,46.27a17.86,17.86,0,0,0-2.54,1.8l0,0-.12.12A18.15,18.15,0,0,0,148,50.5l-31.9,32.09a6.07,6.07,0,0,0,5.94,10.29l46-12.63A18.75,18.75,0,0,0,171.69,78.63Z" fill="#f1f2f2"/>
      <path d="M172.27,117.63a18.68,18.68,0,1,0-3.1-37.09v0l-.17,0a17.76,17.76,0,0,0-3.16.86L122.16,93.27a6.08,6.08,0,0,0,0,11.89l46.14,12A19.23,19.23,0,0,0,172.27,117.63Z" fill="#f1f2f2"/>
      <path d="M153.28,151.69A18.68,18.68,0,1,0,172,119.33a19,19,0,0,0-2.83-1.31h0L169,118a18.77,18.77,0,0,0-3.17-.84l-43.74-11.58a6.08,6.08,0,0,0-5.94,10.3l33.93,33.5A18.32,18.32,0,0,0,153.28,151.69Z" fill="#333132"/>
      <path d="M119.79,171.69a18.68,18.68,0,1,0,30.57-21.22l0,0-.13-.12a18.08,18.08,0,0,0-2.32-2.31l-32.09-31.9a6.08,6.08,0,0,0-10.3,5.94l12.63,46A18.75,18.75,0,0,0,119.79,171.69Z" fill="#f1f2f2"/>
      <path d="M80.79,172.27a18.69,18.69,0,1,0,37.09-3.1h0l0-.17a19.63,19.63,0,0,0-.86-3.16l-11.84-43.68a6.08,6.08,0,0,0-11.89,0l-12,46.14A18.57,18.57,0,0,0,80.79,172.27Z" fill="#333132"/>
      <path d="M46.73,153.28A18.68,18.68,0,1,0,79.09,172a19,19,0,0,0,1.31-2.83h0l0-.17a17.87,17.87,0,0,0,.84-3.17l11.59-43.74a6.08,6.08,0,0,0-10.3-5.94l-33.5,33.93A17.87,17.87,0,0,0,46.73,153.28Z" fill="#f1f2f2"/>
      <path d="M26.73,119.79A18.68,18.68,0,1,0,48,150.36v0l.12-.13a18.83,18.83,0,0,0,2.32-2.32l31.9-32.09a6.09,6.09,0,0,0-6-10.3l-46,12.63A19,19,0,0,0,26.73,119.79Z" fill="#f1f2f2"/>
      <path d="M26.15,80.79a18.69,18.69,0,1,0,3.1,37.09v0l.16,0a19.75,19.75,0,0,0,3.17-.86l43.67-11.84a6.08,6.08,0,0,0,0-11.89l-46.13-12A18.67,18.67,0,0,0,26.15,80.79Z" fill="#333132"/>
      <path d="M45.15,46.73A18.68,18.68,0,0,0,26.47,79.09a18.42,18.42,0,0,0,2.82,1.31v0l.17,0a17.87,17.87,0,0,0,3.17.84L76.36,92.89a6.09,6.09,0,0,0,6-10.3L48.38,49.09A18.23,18.23,0,0,0,45.15,46.73Z" fill="#f1f2f2"/>
      <path d="M78.63,26.73A18.68,18.68,0,0,0,46.27,45.41,18,18,0,0,0,48.07,48h0l.12.12a18.91,18.91,0,0,0,2.33,2.32l32.09,31.9a6.08,6.08,0,0,0,10.29-6l-12.63-46A19,19,0,0,0,78.63,26.73Z" fill="#333132"/>
      <path d="M117.63,26.15a18.68,18.68,0,1,0-37.09,3.1h0l0,.16a17.87,17.87,0,0,0,.86,3.17L93.27,76.26a6.08,6.08,0,0,0,11.89,0l12-46.13A19.33,19.33,0,0,0,117.63,26.15Z" fill="#f1f2f2"/>
      <path d="M84.42,30.12C79.18,10.57,108.75,2.61,114,22.19S89.67,49.68,84.42,30.12Z" fill="#ef372f"/>
      <path d="M51.85,46.77c-14.31-14.32,7.33-36,21.66-21.65S66.21,61.14,51.85,46.77Z" fill="#e21a58"/>
      <path d="M32,77.48C12.42,72.24,20.33,42.65,39.91,47.9S51.56,82.73,32,77.48Z" fill="#eb0d8c"/>
      <path d="M30.12,114c-19.55,5.24-27.51-24.33-7.93-29.58S49.68,108.76,30.12,114Z" fill="#922a8e"/>
      <path d="M46.77,146.58c-14.32,14.31-36-7.33-21.65-21.66S61.12,132.24,46.77,146.58Z" fill="#2e3690"/>
      <path d="M77.48,166.45C72.24,186,42.65,178.11,47.9,158.52S82.73,146.86,77.48,166.45Z" fill="#0d73bb"/>
      <path d="M114,168.31c5.24,19.56-24.34,27.51-29.58,7.92S108.77,148.72,114,168.31Z" fill="#2bace2"/>
      <path d="M146.58,151.66c14.32,14.31-7.33,36-21.66,21.65S132.23,137.32,146.58,151.66Z" fill="#00a99d"/>
      <path d="M166.45,121c19.56,5.24,11.66,34.83-7.92,29.58S146.86,115.7,166.45,121Z" fill="#06a64f"/>
      <path d="M168.31,84.42c19.56-5.23,27.51,24.34,7.92,29.58S148.75,89.66,168.31,84.42Z" fill="#88c541"/>
      <path d="M151.66,51.85c14.31-14.31,36,7.32,21.65,21.66S137.29,66.21,151.66,51.85Z" fill="#fcee23"/>
      <path d="M121,32c5.24-19.56,34.83-11.66,29.58,7.93S115.7,51.57,121,32Z" fill="#f89521"/>
    </g>
    <g id="ноты">
      <path d="M103.64,30.84c-2.52,0-1.85.43-2.56-1.68-4.46,0-3.57-.44-4.27,1.68-2.68,0-2.64,1.86,1.28-9.33C101.12,21.51,99.73,19.71,103.64,30.84Zm-4.41-7.21c-1.61,4.8-2,3.81,1.28,3.81Z" fill="#fff"/>
      <g>
        <path d="M135.41,41.09c-2.51,0-1.85.44-2.55-1.68-4.46,0-3.57-.43-4.28,1.68-2.68,0-2.64,1.87,1.28-9.32C132.9,31.77,131.51,30,135.41,41.09Zm-4.4-7.2c-1.61,4.79-2.06,3.8,1.28,3.8Z" fill="#fff"/>
        <path d="M143.35,34.52c-.26,1.64.16,1.3-1.65,1.3-.26,1.56-.57,1.2,1.25,1.2-.27,1.63.17,1.3-1.67,1.3-.43,2.6,0,2.1-1.71,2.1.44-2.65.76-2.1-1-2.1-.43,2.6,0,2.1-1.69,2.1.43-2.65.78-2.1-1.11-2.1.27-1.63-.17-1.3,1.68-1.3.26-1.56.58-1.2-1.28-1.2.27-1.64-.17-1.3,1.69-1.3.43-2.6,0-2.1,1.69-2.1-.43,2.64-.75,2.1,1,2.1.43-2.61,0-2.1,1.7-2.1C141.83,35.06,141.48,34.52,143.35,34.52ZM138.78,37c1.71,0,1.31.32,1.56-1.2C138.64,35.82,139,35.51,138.78,37Z" fill="#fff"/>
      </g>
      <path d="M171.81,104.23c-8.29.06-5-13.1,2.33-9.1,2.89,1.57.93,2,.09,2.52-1.85-3.36-7.86.23-4.63,3.94a3,3,0,0,0,4.63-.47c.84.49,2.79.95-.09,2.52A4.89,4.89,0,0,1,171.81,104.23Z" fill="#fff"/>
      <g>
        <path d="M158.62,140.41c-8.29.06-5-13.11,2.33-9.1,2.88,1.57.93,2,.09,2.52a3,3,0,0,0-4.62-.48c-2.28,2.61.44,6.58,3.64,4.91,1.65-.86,0-1.54,2.56,0A4.61,4.61,0,0,1,158.62,140.41Z" fill="#fff"/>
        <path d="M170.9,133.66c-.27,1.64.16,1.3-1.65,1.3-.26,1.56-.58,1.2,1.25,1.2-.27,1.63.17,1.29-1.68,1.29-.43,2.61,0,2.1-1.7,2.1.43-2.64.75-2.1-1-2.1-.42,2.6,0,2.1-1.69,2.1.44-2.64.79-2.1-1.1-2.1.27-1.62-.17-1.29,1.69-1.29.26-1.56.58-1.2-1.28-1.2.27-1.64-.17-1.3,1.69-1.3.43-2.6,0-2.1,1.69-2.1-.44,2.64-.76,2.1,1,2.1.43-2.61,0-2.1,1.71-2.1C169.38,134.2,169,133.66,170.9,133.66Zm-4.57,2.5c1.71,0,1.31.32,1.56-1.2C166.18,135,166.58,134.65,166.33,136.16Z" fill="#fff"/>
      </g>
      <path d="M131.87,157.29c3.6,0,5.37-.31,6.9,1.34,2.81,3,.75,8-3.19,8C130.64,166.55,131.87,168.47,131.87,157.29Zm1.84,7.57c2.08,0,3,.15,3.84-.8a3.23,3.23,0,0,0,0-4.2c-1.05-1.14-2.55-.81-3.84-.81Z" fill="#fff"/>
      <g>
        <path d="M91.35,167.1c3.55,0,5.35-.33,6.9,1.35,2.81,3,.75,8-3.2,8C90.12,176.36,91.35,178.28,91.35,167.1Zm1.84,7.57c2.15,0,3,.15,3.84-.8a3.23,3.23,0,0,0,0-4.2c-1-1.14-2.55-.82-3.84-.82Z" fill="#fff"/>
        <path d="M107.88,169.86c-.26,1.64.17,1.3-1.65,1.3-.26,1.56-.57,1.2,1.26,1.2-.27,1.63.16,1.3-1.68,1.3-.43,2.6,0,2.1-1.71,2.1.44-2.65.76-2.1-1-2.1-.43,2.59,0,2.1-1.69,2.1.43-2.65.78-2.1-1.11-2.1.27-1.63-.16-1.3,1.68-1.3.26-1.56.58-1.2-1.28-1.2.27-1.64-.17-1.3,1.69-1.3.43-2.6,0-2.1,1.71-2.1-.44,2.64-.76,2.1,1,2.1.43-2.61,0-2.1,1.7-2.1C106.37,170.4,106,169.86,107.88,169.86Zm-4.56,2.5c1.7,0,1.3.31,1.55-1.2C103.17,171.16,103.57,170.85,103.32,172.36Z" fill="#fff"/>
      </g>
      <path d="M62.63,162.36c0,2.78-.89,2.1,3.93,2.1,0,2.35,1.15,1.76-5.77,1.76,0-11.76-1.72-9.34,5.7-9.34,0,2.35.78,1.76-3.86,1.76,0,2.59-.9,2,3.53,2C66.16,162.93,67,162.36,62.63,162.36Z" fill="#fff"/>
      <path d="M39.21,131.05c0,2.33.85,1.75-3.74,1.75,0,2.88-.94,2.22,3.63,2.22,0,2.29.91,1.75-3.62,1.75,0,4.47.58,3.6-1.83,3.6C33.65,128.63,32,131.05,39.21,131.05Z" fill="#fff"/>
      <g>
        <path d="M26.53,94.73c0,2.33.85,1.76-3.73,1.76,0,2.87-.94,2.21,3.62,2.21,0,2.29.92,1.76-3.62,1.76,0,4.47.58,3.59-1.84,3.59C21,92.31,19.29,94.73,26.53,94.73Z" fill="#fff"/>
        <path d="M34.91,97.48c-.27,1.65.16,1.31-1.65,1.31-.26,1.56-.58,1.2,1.25,1.2-.27,1.62.17,1.29-1.68,1.29-.43,2.6,0,2.1-1.7,2.1.43-2.65.75-2.1-1-2.1-.43,2.59,0,2.1-1.7,2.1.44-2.64.79-2.1-1.1-2.1.26-1.63-.17-1.29,1.68-1.29.26-1.56.58-1.2-1.28-1.2.27-1.65-.17-1.31,1.68-1.31.43-2.6,0-2.1,1.7-2.1-.44,2.65-.76,2.1,1,2.1.43-2.61,0-2.1,1.7-2.1C33.38,98,33,97.48,34.91,97.48ZM30.34,100c1.7,0,1.3.31,1.56-1.2C30.18,98.79,30.59,98.48,30.34,100Z" fill="#fff"/>
      </g>
      <path d="M36.7,62.85c5.47,0,4.67-.24,4.67.72A4.3,4.3,0,0,1,36.78,68c-6.65.11-6.56-9.73-.09-9.7a4.73,4.73,0,0,1,4.06,2.18c-2.48,1.43-1,.79-2.58,0-4.63-2.36-6.75,5.65-1.36,5.75a2.6,2.6,0,0,0,2.72-1.77C36,64.47,36.7,65,36.7,62.85Z" fill="#fff"/>
      <g>
        <path d="M59,36.08c5.47,0,4.67-.24,4.67.72a4.32,4.32,0,0,1-4.58,4.49c-8.43.14-5.06-13,2.26-9.12,2.91,1.56,1,2,.12,2.49A2.88,2.88,0,0,0,59,33.37c-5.32-.07-3,8.73,1.89,5.65a2.27,2.27,0,0,0,1-1.31C58.41,37.71,59,38.18,59,36.08Z" fill="#fff"/>
        <path d="M72,34.52c-.27,1.64.16,1.3-1.65,1.3-.26,1.56-.58,1.2,1.25,1.2-.27,1.63.17,1.3-1.68,1.3-.43,2.6,0,2.1-1.7,2.1.44-2.65.75-2.1-1-2.1-.43,2.59,0,2.1-1.69,2.1.43-2.65.77-2.1-1.1-2.1.27-1.63-.17-1.3,1.68-1.3.26-1.56.58-1.2-1.28-1.2.27-1.64-.17-1.3,1.69-1.3.43-2.6,0-2.1,1.69-2.1-.43,2.64-.75,2.1,1,2.1.43-2.61,0-2.1,1.7-2.1C70.48,35.06,70.13,34.52,72,34.52ZM67.42,37c1.71,0,1.31.32,1.56-1.2C67.27,35.82,67.67,35.51,67.42,37Z" fill="#fff"/>
      </g>
      <path d="M164.08,63a2.53,2.53,0,0,1,.39,4.08c-1.1,1-1.93.76-6,.76,0-11.21-1.23-9.28,3.67-9.34C164.85,58.49,165.85,61.65,164.08,63Zm-2-2.77c-2.31,0-1.83-.53-1.83,2,1.91,0,2.19.09,2.55-.29A1,1,0,0,0,162.12,60.25Zm-1.83,5.89c2.28,0,2.5.08,2.89-.32a1.15,1.15,0,0,0,0-1.57c-.41-.41-.68-.31-2.89-.31Z" fill="#fff"/>
    </g>
  </g>
</svg>
