<svg xmlns="http://www.w3.org/2000/svg" viewBox="0 0 284.58 81.08"><defs><style>.cls-1{fill:#231f20;}</style></defs><g id="Layer_1" data-name="Layer 1"><path class="cls-1" d="M29.33,56a19.45,19.45,0,0,1-7-1.18A15,15,0,0,1,17,51.43a14.7,14.7,0,0,1-3.36-5.23,18.71,18.71,0,0,1-1.16-6.71,18.31,18.31,0,0,1,1.94-8.55A14.41,14.41,0,0,1,20,25a16.84,16.84,0,0,1,8.71-2.14,23.91,23.91,0,0,1,3.05.2,25.94,25.94,0,0,1,2.89.54,23.83,23.83,0,0,1,2.58.77,18.12,18.12,0,0,1,2.13.92l-.56,6.84a21.65,21.65,0,0,0-3.35-1.75,17,17,0,0,0-3.09-1,13.61,13.61,0,0,0-2.83-.31,9.65,9.65,0,0,0-4.84,1.2,8.34,8.34,0,0,0-3.34,3.51,11.87,11.87,0,0,0-1.22,5.64,12.9,12.9,0,0,0,.62,4,9.71,9.71,0,0,0,1.89,3.33,8.74,8.74,0,0,0,3.16,2.28,11.11,11.11,0,0,0,4.45.83,15.08,15.08,0,0,0,2.11-.15,13.48,13.48,0,0,0,2.13-.45,12.86,12.86,0,0,0,2.15-.86,16.63,16.63,0,0,0,2.14-1.33l.4,6.74a12.91,12.91,0,0,1-2.12.94,17.91,17.91,0,0,1-2.45.66,24.48,24.48,0,0,1-2.63.38C31.12,56,30.22,56,29.33,56Z"/><path class="cls-1" d="M44.11,55.39V22.64l6.68-.58V36.2h.56A10.55,10.55,0,0,1,53,34.39,8,8,0,0,1,55.2,33a7.39,7.39,0,0,1,2.85-.53,6.33,6.33,0,0,1,5.07,2q1.73,2,1.72,5.91v15H58.19V42.52a5.51,5.51,0,0,0-.65-3,2.57,2.57,0,0,0-2.32-1,4,4,0,0,0-1.77.39A5.35,5.35,0,0,0,52,40a8.83,8.83,0,0,0-1.19,1.46V55.39Z"/><path class="cls-1" d="M70,55.39V33.1l5.61-.34.28,4.11h.56a9,9,0,0,1,1.92-2.76,5.73,5.73,0,0,1,2.15-1.28,7.3,7.3,0,0,1,2.1-.34,8.38,8.38,0,0,1,1.15.09,5.08,5.08,0,0,1,1.19.32l-.58,6.47-1.56-.11c-.46,0-1,0-1.47,0a6.42,6.42,0,0,0-1.29.13,3.66,3.66,0,0,0-1.28.54A4.68,4.68,0,0,0,77.57,41a7,7,0,0,0-.93,1.86V55.39Z"/><path class="cls-1" d="M98.46,56a13.31,13.31,0,0,1-5.28-1,10.19,10.19,0,0,1-3.71-2.61,10.88,10.88,0,0,1-2.19-3.79,13.79,13.79,0,0,1-.73-4.45,13,13,0,0,1,1.35-6,10.14,10.14,0,0,1,4-4.18,12.61,12.61,0,0,1,6.44-1.53,14,14,0,0,1,5.18.89,10.09,10.09,0,0,1,3.71,2.48,10.4,10.4,0,0,1,2.22,3.73,14,14,0,0,1,.73,4.59,13.07,13.07,0,0,1-1.36,6,10.21,10.21,0,0,1-4,4.22A12.25,12.25,0,0,1,98.46,56Zm0-5.45a4.2,4.2,0,0,0,2.76-.9,5.66,5.66,0,0,0,1.63-2.36,8.82,8.82,0,0,0,.54-3.1,8.38,8.38,0,0,0-.62-3.37A4.88,4.88,0,0,0,101,38.68a5,5,0,0,0-5.38.09A5.07,5.07,0,0,0,93.94,41a8.93,8.93,0,0,0,0,6.28,5.6,5.6,0,0,0,1.69,2.36A4.38,4.38,0,0,0,98.44,50.54Z"/><path class="cls-1" d="M114.45,55.39V33.1l5.61-.34.29,3.87h.56a12.06,12.06,0,0,1,1.79-2,8.14,8.14,0,0,1,2.37-1.54,7.9,7.9,0,0,1,3.08-.58,5.69,5.69,0,0,1,4,1.29,6.54,6.54,0,0,1,1.91,3.7l.45.06c.09.43.16.89.21,1.35a14.11,14.11,0,0,1,.08,1.49v15H128.1V42.52a5.74,5.74,0,0,0-.61-3,2.36,2.36,0,0,0-2.18-1,3.53,3.53,0,0,0-1.68.4A5.36,5.36,0,0,0,122.25,40a9.25,9.25,0,0,0-1.12,1.44V55.39Zm27.21,0V42.52a5.85,5.85,0,0,0-.6-3,2.37,2.37,0,0,0-2.19-1,3.64,3.64,0,0,0-1.68.39,5.31,5.31,0,0,0-1.39,1,8,8,0,0,0-1.13,1.46l-1-4.8h.58a13.36,13.36,0,0,1,1.88-2.05,8.68,8.68,0,0,1,2.47-1.55,8.25,8.25,0,0,1,3.14-.58,6.07,6.07,0,0,1,5,2,9.15,9.15,0,0,1,1.64,5.89v15Z"/><path class="cls-1" d="M158.68,55.93a6.67,6.67,0,0,1-3.35-.81,5.57,5.57,0,0,1-2.23-2.28,7,7,0,0,1-.81-3.44,6.93,6.93,0,0,1,.67-3.2,6.26,6.26,0,0,1,1.73-2.09A7.89,7.89,0,0,1,157,42.88a15.66,15.66,0,0,1,2.47-.62l6.2-1a3,3,0,0,0-.46-2,2.82,2.82,0,0,0-1.57-1,8.75,8.75,0,0,0-2.43-.29,12.33,12.33,0,0,0-1.65.12,16.64,16.64,0,0,0-1.87.37,21,21,0,0,0-2,.61c-.69.25-1.38.54-2.08.86l-.31-5.67c.55-.21,1.18-.42,1.9-.63s1.49-.4,2.33-.58a23.38,23.38,0,0,1,2.65-.4c.92-.09,1.87-.13,2.86-.13a12.69,12.69,0,0,1,4.78.8,6.15,6.15,0,0,1,3,2.55,8.73,8.73,0,0,1,1.05,4.55v15h-5.74l-.42-3h-.49a9.47,9.47,0,0,1-1.53,1.68,7.46,7.46,0,0,1-5,1.85Zm2.66-5.14a3.51,3.51,0,0,0,1.55-.38,5.49,5.49,0,0,0,1.45-1.06,6.75,6.75,0,0,0,1.18-1.62V44.31a3.47,3.47,0,0,1-.67.37,9.45,9.45,0,0,1-1.21.36l-2.24.48a3.74,3.74,0,0,0-1.37.53,2.75,2.75,0,0,0-.89,1,2.84,2.84,0,0,0-.32,1.4,2.07,2.07,0,0,0,.76,1.82A2.94,2.94,0,0,0,161.34,50.79Z"/><path class="cls-1" d="M175.05,38.12v-5H191.9v5H175.05ZM186.51,56a10.74,10.74,0,0,1-4.23-.75,5.36,5.36,0,0,1-2.68-2.4,8.83,8.83,0,0,1-.93-4.35V25.86l6.57-1.18V46.39a5.34,5.34,0,0,0,.75,3.09,2.77,2.77,0,0,0,2.44,1.06,5.49,5.49,0,0,0,1.57-.25,5.68,5.68,0,0,0,1.63-.82l.38,5.41a5.9,5.9,0,0,1-1.48.6,14.5,14.5,0,0,1-1.94.38A16.25,16.25,0,0,1,186.51,56Z"/><path class="cls-1" d="M206.37,56a13.31,13.31,0,0,1-5.28-1,10.19,10.19,0,0,1-3.71-2.61,10.88,10.88,0,0,1-2.19-3.79,13.79,13.79,0,0,1-.73-4.45,12.87,12.87,0,0,1,1.36-6,10,10,0,0,1,4-4.18,12.62,12.62,0,0,1,6.45-1.53,14,14,0,0,1,5.17.89,10,10,0,0,1,3.7,2.48,10.43,10.43,0,0,1,2.23,3.73,14,14,0,0,1,.73,4.59,13.07,13.07,0,0,1-1.36,6,10.21,10.21,0,0,1-4,4.22A12.25,12.25,0,0,1,206.37,56Zm0-5.45a4.2,4.2,0,0,0,2.76-.9,5.66,5.66,0,0,0,1.63-2.36,8.82,8.82,0,0,0,.54-3.1,8.38,8.38,0,0,0-.62-3.37,4.84,4.84,0,0,0-1.75-2.13,5,5,0,0,0-5.37.09A5.07,5.07,0,0,0,201.85,41a8.93,8.93,0,0,0,0,6.28,5.6,5.6,0,0,0,1.69,2.36A4.38,4.38,0,0,0,206.35,50.54Z"/><path class="cls-1" d="M222.36,55.39V33.1l5.61-.34.29,3.89h.56a10.9,10.9,0,0,1,1.83-2,8.66,8.66,0,0,1,2.47-1.54,8.35,8.35,0,0,1,3.18-.58,6.36,6.36,0,0,1,5.07,2q1.73,2,1.72,5.91v15h-6.66V42.52a5.51,5.51,0,0,0-.64-3,2.58,2.58,0,0,0-2.33-1,4,4,0,0,0-1.76.39,5.35,5.35,0,0,0-1.47,1A8.35,8.35,0,0,0,229,41.47V55.39Z"/><path class="cls-1" d="M259.37,56a14.36,14.36,0,0,1-7-1.52,9.37,9.37,0,0,1-4-4.18,13.63,13.63,0,0,1-1.3-6.09,14.43,14.43,0,0,1,1.22-6.07A9.25,9.25,0,0,1,251.86,34a11.19,11.19,0,0,1,5.95-1.47,11.54,11.54,0,0,1,5.2,1.07,7.35,7.35,0,0,1,3.33,3.26,11.64,11.64,0,0,1,1.16,5.52c0,.59,0,1.13,0,1.59a12.39,12.39,0,0,1-.16,1.38l-5.72-2.17a4.39,4.39,0,0,0,.07-.61c0-.2,0-.4,0-.59a5.34,5.34,0,0,0-1.06-3.52,3.38,3.38,0,0,0-2.75-1.29,3.6,3.6,0,0,0-2.24.75A5,5,0,0,0,254.08,40a8.31,8.31,0,0,0-.56,3.19v1.1a7.35,7.35,0,0,0,.71,3.34,4.67,4.67,0,0,0,2.17,2.13,8.51,8.51,0,0,0,3.78.74,13.78,13.78,0,0,0,2.06-.18,18.2,18.2,0,0,0,2.4-.53,12.2,12.2,0,0,0,2.26-.88l.23,5.63a14.35,14.35,0,0,1-2,.73,19.64,19.64,0,0,1-2.6.51A23.6,23.6,0,0,1,259.37,56Zm-9.78-10.63V41.79l13.83-.29,3.88,1.07v2.77Z"/></g></svg>